M48
;Layer_Color=9474304
;FILE_FORMAT=4:4
METRIC,TZ
;TYPE=PLATED
T1F00S00C0.2000
T2F00S00C0.2032
T3F00S00C0.3000
T4F00S00C0.7112
T5F00S00C3.5000
T6F00S00C3.7000
%
T01
X-392390Y-817184
X-380790
Y-805584
X-392390
X-386590Y-811384
Y-727524
X-392390Y-721724
X-380790
Y-733324
X-392390
X-391244Y-618060
X-385444Y-612260
X-391244Y-606460
X-379644
Y-618060
X-377822Y-539870
X-383622Y-534070
X-389422Y-528270
X-377822
X-389422Y-539870
T02
X-905500Y-912256
X-894500
Y-901256
Y-890256
X-905500
Y-901256
Y-734646
Y-723646
Y-712646
X-894500
Y-723646
Y-734646
Y-578436
X-905500
Y-567436
Y-556436
X-894500
Y-567436
X-895262Y-399810
X-906262
Y-388810
Y-377810
X-895262
Y-388810
T03
X-269494Y-1113536
X-259334
X-249682Y-1113790
X-209550Y-1132586
X-200152Y-1046988
X-196596Y-1008126
X-180848Y-999744
X-195326Y-947928
X-210820Y-949706
X-223266Y-947674
X-222250Y-900430
X-230632
X-268732Y-897382
X-267970Y-890016
X-279146Y-888492
X-280670Y-876046
X-296672Y-919480
X-302768Y-796036
X-302778Y-788162
X-302514Y-777494
X-302768Y-769620
X-267462Y-791518
X-262128Y-797106
X-241300Y-822452
X-246380Y-827786
X-159258Y-877570
X-172466Y-899668
X-91186Y-904748
X-78740
X-31242Y-885444
X-36068Y-837184
X-33274Y-808228
X-24892Y-808482
X-86614Y-809498
X-94234
X-112776Y-801878
X-120396Y-801624
X-104648Y-960628
X-104902Y-968502
X-105156Y-976630
X-81534Y-985012
X-72898
X-76962Y-991108
X-59186Y-1037844
X-42672Y-1022858
X-34290Y-1109726
X-17272Y-1093104
X-84582Y-1090168
X-95250Y-1099312
X-105410Y-1090422
X-122174Y-1107186
X-129032
X-138176Y-1071626
X-162306Y-1084834
X-343662Y-1050036
X-329692Y-992378
X-324612Y-967486
X-324358Y-959358
X-329692Y-921766
X-305562Y-910590
X-314452Y-898398
X-347726Y-856488
X-337566Y-815086
Y-807212
X-322072Y-816102
X-314198Y-816356
X-402590Y-828294
X-419100Y-848360
X-426720
X-436372Y-821182
Y-813308
X-427482Y-806704
X-419862Y-806450
X-426466Y-782574
X-434086
X-438404Y-771652
X-438150Y-763778
X-467106Y-763016
Y-770636
X-458216Y-794004
Y-801878
X-517144Y-802386
X-516636Y-808736
X-535940Y-816102
X-528828Y-843280
X-521462
Y-850900
X-528828
X-541782Y-845312
X-557784Y-845820
X-571246Y-860552
X-566674Y-870458
X-565912Y-910844
X-559308Y-919480
X-568198Y-927608
X-597662Y-921004
X-625094Y-920750
X-658622Y-913892
X-658876Y-905764
X-653542Y-872490
X-663194Y-853440
X-659686Y-844248
X-668528Y-814070
X-558292Y-780850
X-516890Y-763270
X-483616Y-878332
X-474726Y-892810
X-477520Y-902208
X-465836Y-887730
X-470408Y-935482
X-478790Y-928116
X-497586Y-929894
X-507238Y-929132
X-520192Y-919734
X-522732Y-913130
X-529336
X-542036Y-915162
X-522224Y-945896
X-507238Y-969518
X-507480Y-1029728
X-532892Y-1052576
X-521462Y-1065276
X-505206Y-1108456
X-495554
X-485902
X-476250
X-466598
X-427942Y-1122124
X-420878Y-1131316
X-411988Y-1091184
X-431292Y-1081278
X-442722Y-1030224
X-439166Y-974598
X-408432Y-942086
X-408940Y-926846
X-419354
X-426466Y-904494
X-409448Y-905256
X-395986Y-907796
X-377698Y-928116
X-377444Y-934466
X-380873Y-953135
X-386080Y-1000760
X-389382Y-1009904
X-566928Y-1002284
X-611696Y-1004507
X-612648Y-1016000
X-613156Y-1025906
X-613664Y-1036066
X-606806Y-1061212
X-606298Y-1072134
X-567436Y-1084072
X-551180Y-1100836
X-647954
X-654304Y-1100328
X-661416Y-1099820
X-658114Y-1108456
X-650748Y-1108710
X-670052Y-1047840
X-750406Y-1109796
X-839216Y-1097788
X-847344Y-1097280
X-849630Y-1090422
X-842264Y-1090676
X-834644
X-842264Y-968502
X-850392
X-859028Y-963676
Y-955294
X-832358Y-953008
Y-946404
Y-939292
X-796544Y-940054
Y-947166
Y-954786
X-808228Y-969264
X-772922Y-970026
X-759206Y-950976
Y-943864
X-758698Y-937514
X-780288Y-860552
X-780796Y-852424
X-780542Y-844550
X-777494Y-831342
Y-825246
X-815848Y-817626
X-816102Y-809752
X-897128Y-876046
X-904240
X-911606Y-876300
X-919480
X-929894Y-908304
X-922528Y-926338
Y-933450
Y-940308
X-880110Y-924052
X-868172Y-918718
Y-911352
X-872744Y-981456
X-880110Y-988568
X-879856Y-747014
X-867918Y-740664
Y-733552
X-929894Y-730758
X-923544Y-746252
X-923290Y-752094
Y-757428
X-919226Y-699262
X-912876
X-905764
X-898652
X-927608Y-602996
Y-597154
Y-591058
X-930148Y-573786
X-919480Y-543560
X-912368
X-905256
X-897890Y-543814
X-881888Y-589026
X-868426Y-585470
Y-577850
X-848106Y-525834
X-842010Y-525780
X-847090Y-519484
X-853186Y-519992
X-829310Y-501650
Y-493776
X-811784Y-491490
Y-485394
Y-479298
X-794258Y-480060
X-796036Y-494792
X-794512Y-507746
X-794258Y-520192
X-797560Y-532130
X-796036Y-545846
Y-560070
X-796544Y-570738
X-796290Y-583438
Y-608838
X-796544Y-621538
X-771398Y-596900
X-733552Y-599694
X-733298Y-537464
X-811022Y-460756
X-810768Y-453644
X-819150Y-454152
Y-460756
Y-467360
X-774446Y-407924
X-778764Y-379476
Y-372110
X-760222Y-382270
X-750316
X-740918
X-869442Y-399542
Y-407162
X-883666Y-411226
X-928624Y-411988
X-928878Y-418338
Y-424434
X-930656Y-394716
X-771906Y-659384
X-772922Y-726694
X-786384Y-722884
X-790702Y-717296
X-731266Y-720598
X-666496Y-726694
X-660146Y-752602
X-660400Y-758952
X-596646Y-739648
X-600964Y-731266
X-607822Y-722884
X-613918Y-715010
X-618490Y-702564
X-623824Y-694182
X-628650Y-686816
X-616204Y-676656
X-591312Y-684530
X-571246Y-675640
X-501650Y-674624
X-485648Y-671068
X-485902Y-679958
X-485394Y-691134
X-484886Y-700786
X-510794Y-717042
X-529082Y-720090
X-515620Y-752602
X-557022Y-746252
Y-739902
X-558038Y-762054
X-589534Y-746506
X-663194Y-677672
X-665480Y-667766
X-665734Y-659130
X-661924Y-639572
X-661670Y-632460
Y-625602
X-613410Y-559054
Y-550164
X-613664Y-541274
Y-532130
X-633730Y-522986
X-631444Y-513334
X-625094Y-504952
X-617728Y-497332
X-621792Y-488442
X-621030Y-479298
X-656844Y-470154
X-671068Y-415290
X-684022Y-392938
X-690118
X-591820Y-495046
X-540512Y-504444
X-511302Y-506984
X-512826Y-542544
Y-552450
X-473202Y-545338
X-463296Y-540258
X-452120Y-540512
X-443738Y-533146
X-426466Y-516382
X-415798Y-501904
X-403860Y-510921
X-420370Y-548386
Y-556260
X-423672Y-567182
Y-575056
X-404114Y-573278
Y-581152
X-404876Y-592890
X-399288Y-590804
X-399796Y-630174
X-406146Y-630428
X-414782Y-643636
Y-651256
X-389636Y-651002
X-382016
X-368554Y-663194
X-371602Y-674116
X-391922Y-671630
X-398526Y-671576
X-403606Y-683260
X-413512Y-684276
X-423672Y-683260
X-433578Y-682244
X-442214Y-682498
X-392684Y-683260
X-341122Y-700532
Y-708460
X-328178Y-732790
X-320294
X-315214Y-746506
X-314960Y-753618
X-308102Y-753872
Y-761238
X-315214Y-760984
X-307848Y-746760
X-312674Y-697230
X-309372Y-663194
X-317246Y-662940
X-327406Y-629666
X-335026
X-325374Y-602234
X-325120Y-593852
X-328168Y-571754
X-319786Y-571246
X-317500Y-553212
X-325120Y-553466
X-315214Y-525526
X-323596Y-516636
X-323342Y-508762
X-335788Y-522478
X-325374Y-470408
X-315214Y-470662
X-356870Y-475234
X-368300Y-480060
X-387350Y-411226
X-393446Y-411026
X-456184Y-489966
X-470408Y-504698
X-442468Y-578866
Y-586740
X-447548Y-613156
Y-620776
X-424942Y-621284
Y-613664
X-513080Y-629920
X-558800Y-602034
Y-592128
X-556514Y-581968
X-556260Y-563172
X-363982Y-567690
X-305816Y-605536
X-423418Y-728726
Y-736346
X-429768Y-748538
X-402082Y-756920
X-290830Y-741680
X-282956
X-256794Y-738886
Y-746506
X-262382Y-758698
X-301752Y-726440
X-301762Y-718566
X-283718Y-698500
X-282194Y-687832
X-281940Y-680212
X-287528Y-647246
X-295148Y-646992
X-266192Y-631190
X-258572Y-631444
X-247396Y-649732
Y-657352
X-252730Y-691388
X-273558Y-612648
X-281432Y-612902
X-242570Y-571754
X-247142Y-504444
Y-497586
X-270510Y-505968
X-284734Y-502920
X-266954Y-471678
X-270002Y-459994
X-244348Y-444500
X-244094Y-407416
Y-394716
X-134874Y-415290
X-128778
X-96266Y-471678
X-96012Y-479806
X-95250Y-493014
Y-500634
X-85598Y-510286
X-99060Y-523494
X-108966Y-518414
X-116586
X-46990Y-516890
X-33274Y-505714
Y-498094
X-44450Y-485394
Y-477774
X-41656Y-442468
X-51308Y-442214
X-29972Y-442722
X-48006Y-608584
X-47752Y-616204
X-39878Y-627380
X-40132Y-635000
X-83820
X-108458Y-630428
X-116332
X-115824Y-616458
X-107442Y-604774
X-99568
X-161544Y-650748
X-154940Y-661416
Y-669090
X-146558Y-676910
X-156210Y-688086
X-155956Y-695706
X-159004Y-725424
X-159014Y-733044
X-146812Y-723646
X-138684Y-731520
X-131064
X-42164Y-686308
X-33528
X-14478Y-350520
X-14224Y-292862
X-13970Y-235204
X-13716Y-177546
X-13462Y-119888
X-13208Y-62230
X-60452Y-15494
X-118872
X-201422Y-16002
X-192786Y-40132
Y-48260
X-224282Y-103124
X-232156Y-103378
X-241046Y-196850
X-199644Y-193294
X-195326Y-198374
X-165100Y-202692
X-164846Y-193294
Y-184150
X-143256Y-188468
X-143510Y-198120
Y-208280
X-221107Y-258181
X-220726Y-307848
X-220218Y-339090
X-178054Y-339852
X-172720Y-344678
X-167132Y-350012
X-278638Y-336042
X-278384Y-307848
X-278130Y-258689
X-255016Y-237998
Y-231140
X-295656Y-197358
X-259080Y-15748
X-359156Y-16002
X-416814Y-15748
X-440182Y-34544
X-452628Y-34798
X-460756
X-474472Y-15494
X-504698Y-31242
Y-38354
X-562356Y-15494
X-620014Y-15240
X-678942Y-18796
X-687324
X-692404Y-110236
X-545338Y-118872
X-538734Y-118618
X-531876Y-118872
X-527050Y-96520
X-437388Y-95504
X-441706Y-107188
Y-115062
X-408940Y-244602
X-410718Y-259080
X-395224Y-250698
X-379730Y-251714
X-353060Y-234696
X-332232Y-213614
X-311150Y-232410
Y-239522
X-332613Y-258181
X-332486Y-308102
X-342392Y-336296
X-411734Y-309626
X-411480Y-284734
X-511810Y-291084
X-513080Y-257048
Y-249174
X-511302Y-228854
X-562102Y-271780
X-573532Y-323088
X-308864Y-191770
X-705358Y-200152
X-712216Y-207264
X-719074Y-214376
X-853948Y-225552
Y-233362
X-874776Y-231448
X-886968Y-228600
X-883920Y-213922
X-889000Y-207826
X-869950Y-214938
X-860806Y-261166
X-882598Y-270870
X-873760Y-288734
Y-296354
X-900176Y-283972
X-939292Y-284734
X-946150
X-953516Y-284480
X-946658Y-249872
Y-242062
X-927415Y-251206
X-927354Y-259080
X-926084Y-219710
X-938784Y-199390
X-945642
X-953008Y-199136
X-957072Y-161290
X-957326Y-116078
X-957072Y-58420
X-913892Y-15240
X-856234Y-15494
X-798576Y-15748
X-740918Y-16002
X-775208Y-67818
X-887222Y-162306
X-908050Y-162560
X-906526Y-364490
X-913638
X-920496
X-899414
T04
X-180406Y-1109796
X-343000Y-457600
X-368400
X-393800
X-419200
X-444600
X-470000
X-495400
X-520800
X-546200
X-571600
X-597000
X-180406Y-149796
X-343000Y-356000
X-368400
X-393800
X-419200
X-444600
X-470000
X-495400
X-520800
X-546200
X-571600
X-597000
X-750406Y-149796
T05
X-119658Y-1024000
X-852558
X-119558Y-93500
X-852458
T06
X-180406Y-1109796
X-750406
X-180406Y-149796
X-750406
M30
