G04*
G04 #@! TF.GenerationSoftware,Altium Limited,Altium Designer,20.0.2 (26)*
G04*
G04 Layer_Color=2752767*
%FSLAX44Y44*%
%MOMM*%
G71*
G01*
G75*
%ADD149C,0.0508*%
%ADD150C,0.0677*%
D149*
X-394422Y-819216D02*
Y-815152D01*
X-390358D01*
Y-819216D01*
X-394422D01*
X-382822D02*
Y-815152D01*
X-378758D01*
Y-819216D01*
X-382822D01*
Y-807616D02*
Y-803552D01*
X-378758D01*
Y-807616D01*
X-382822D01*
X-394422D02*
Y-803552D01*
X-390358D01*
Y-807616D01*
X-394422D01*
X-388622Y-813416D02*
Y-809352D01*
X-384558D01*
Y-813416D01*
X-388622D01*
X-343000Y-358032D02*
X-345032Y-353968D01*
X-340968D01*
X-343000Y-358032D01*
X-368400D02*
X-370432Y-353968D01*
X-366368D01*
X-368400Y-358032D01*
X-393800D02*
X-395832Y-353968D01*
X-391768D01*
X-393800Y-358032D01*
X-419200D02*
X-421232Y-353968D01*
X-417168D01*
X-419200Y-358032D01*
X-444600D02*
X-446632Y-353968D01*
X-442568D01*
X-444600Y-358032D01*
X-470000D02*
X-472032Y-353968D01*
X-467968D01*
X-470000Y-358032D01*
X-495400D02*
X-497432Y-353968D01*
X-493368D01*
X-495400Y-358032D01*
X-520800D02*
X-522832Y-353968D01*
X-518768D01*
X-520800Y-358032D01*
X-546200D02*
X-548232Y-353968D01*
X-544168D01*
X-546200Y-358032D01*
X-571600D02*
X-573632Y-353968D01*
X-569568D01*
X-571600Y-358032D01*
X-597000D02*
X-599032Y-353968D01*
X-594968D01*
X-597000Y-358032D01*
Y-459632D02*
X-599032Y-455568D01*
X-594968D01*
X-597000Y-459632D01*
X-571600D02*
X-573632Y-455568D01*
X-569568D01*
X-571600Y-459632D01*
X-546200D02*
X-548232Y-455568D01*
X-544168D01*
X-546200Y-459632D01*
X-520800D02*
X-522832Y-455568D01*
X-518768D01*
X-520800Y-459632D01*
X-495400D02*
X-497432Y-455568D01*
X-493368D01*
X-495400Y-459632D01*
X-470000D02*
X-472032Y-455568D01*
X-467968D01*
X-470000Y-459632D01*
X-444600D02*
X-446632Y-455568D01*
X-442568D01*
X-444600Y-459632D01*
X-419200D02*
X-421232Y-455568D01*
X-417168D01*
X-419200Y-459632D01*
X-393800D02*
X-395832Y-455568D01*
X-391768D01*
X-393800Y-459632D01*
X-368400D02*
X-370432Y-455568D01*
X-366368D01*
X-368400Y-459632D01*
X-343000D02*
X-345032Y-455568D01*
X-340968D01*
X-343000Y-459632D01*
X-385654Y-536102D02*
Y-532038D01*
X-381590D01*
Y-536102D01*
X-385654D01*
X-391454Y-530302D02*
Y-526238D01*
X-387390D01*
Y-530302D01*
X-391454D01*
X-379854D02*
Y-526238D01*
X-375790D01*
Y-530302D01*
X-379854D01*
Y-541902D02*
Y-537838D01*
X-375790D01*
Y-541902D01*
X-379854D01*
X-391454D02*
Y-537838D01*
X-387390D01*
Y-541902D01*
X-391454D01*
X-387476Y-614292D02*
Y-610228D01*
X-383412D01*
Y-614292D01*
X-387476D01*
X-393276Y-608492D02*
Y-604428D01*
X-389212D01*
Y-608492D01*
X-393276D01*
X-381676D02*
Y-604428D01*
X-377612D01*
Y-608492D01*
X-381676D01*
Y-620092D02*
Y-616028D01*
X-377612D01*
Y-620092D01*
X-381676D01*
X-393276D02*
Y-616028D01*
X-389212D01*
Y-620092D01*
X-393276D01*
X-388622Y-729556D02*
Y-725492D01*
X-384558D01*
Y-729556D01*
X-388622D01*
X-394422Y-723756D02*
Y-719692D01*
X-390358D01*
Y-723756D01*
X-394422D01*
X-382822D02*
Y-719692D01*
X-378758D01*
Y-723756D01*
X-382822D01*
Y-735356D02*
Y-731292D01*
X-378758D01*
Y-735356D01*
X-382822D01*
X-394422D02*
Y-731292D01*
X-390358D01*
Y-735356D01*
X-394422D01*
X-719074Y-216408D02*
X-718058Y-215392D01*
X-717042D01*
X-718058Y-214376D01*
X-717042Y-213360D01*
X-718058D01*
X-719074Y-212344D01*
X-720090Y-213360D01*
X-721106D01*
X-720090Y-214376D01*
X-721106Y-215392D01*
X-720090D01*
X-719074Y-216408D01*
X-712216Y-209296D02*
X-711200Y-208280D01*
X-710184D01*
X-711200Y-207264D01*
X-710184Y-206248D01*
X-711200D01*
X-712216Y-205232D01*
X-713232Y-206248D01*
X-714248D01*
X-713232Y-207264D01*
X-714248Y-208280D01*
X-713232D01*
X-712216Y-209296D01*
X-705358Y-202184D02*
X-704342Y-201168D01*
X-703326D01*
X-704342Y-200152D01*
X-703326Y-199136D01*
X-704342D01*
X-705358Y-198120D01*
X-706374Y-199136D01*
X-707390D01*
X-706374Y-200152D01*
X-707390Y-201168D01*
X-706374D01*
X-705358Y-202184D01*
X-143510Y-210312D02*
X-142494Y-209296D01*
X-141478D01*
X-142494Y-208280D01*
X-141478Y-207264D01*
X-142494D01*
X-143510Y-206248D01*
X-144526Y-207264D01*
X-145542D01*
X-144526Y-208280D01*
X-145542Y-209296D01*
X-144526D01*
X-143510Y-210312D01*
Y-200152D02*
X-142494Y-199136D01*
X-141478D01*
X-142494Y-198120D01*
X-141478Y-197104D01*
X-142494D01*
X-143510Y-196088D01*
X-144526Y-197104D01*
X-145542D01*
X-144526Y-198120D01*
X-145542Y-199136D01*
X-144526D01*
X-143510Y-200152D01*
X-143256Y-190500D02*
X-142240Y-189484D01*
X-141224D01*
X-142240Y-188468D01*
X-141224Y-187452D01*
X-142240D01*
X-143256Y-186436D01*
X-144272Y-187452D01*
X-145288D01*
X-144272Y-188468D01*
X-145288Y-189484D01*
X-144272D01*
X-143256Y-190500D01*
X-165100Y-204724D02*
X-164084Y-203708D01*
X-163068D01*
X-164084Y-202692D01*
X-163068Y-201676D01*
X-164084D01*
X-165100Y-200660D01*
X-166116Y-201676D01*
X-167132D01*
X-166116Y-202692D01*
X-167132Y-203708D01*
X-166116D01*
X-165100Y-204724D01*
X-164846Y-195326D02*
X-163830Y-194310D01*
X-162814D01*
X-163830Y-193294D01*
X-162814Y-192278D01*
X-163830D01*
X-164846Y-191262D01*
X-165862Y-192278D01*
X-166878D01*
X-165862Y-193294D01*
X-166878Y-194310D01*
X-165862D01*
X-164846Y-195326D01*
Y-186182D02*
X-163830Y-185166D01*
X-162814D01*
X-163830Y-184150D01*
X-162814Y-183134D01*
X-163830D01*
X-164846Y-182118D01*
X-165862Y-183134D01*
X-166878D01*
X-165862Y-184150D01*
X-166878Y-185166D01*
X-165862D01*
X-164846Y-186182D01*
X-146812Y-725678D02*
X-145796Y-724662D01*
X-144780D01*
X-145796Y-723646D01*
X-144780Y-722630D01*
X-145796D01*
X-146812Y-721614D01*
X-147828Y-722630D01*
X-148844D01*
X-147828Y-723646D01*
X-148844Y-724662D01*
X-147828D01*
X-146812Y-725678D01*
X-146558Y-678942D02*
X-145542Y-677926D01*
X-144526D01*
X-145542Y-676910D01*
X-144526Y-675894D01*
X-145542D01*
X-146558Y-674878D01*
X-147574Y-675894D01*
X-148590D01*
X-147574Y-676910D01*
X-148590Y-677926D01*
X-147574D01*
X-146558Y-678942D01*
X-269494Y-1115568D02*
X-268478Y-1114552D01*
X-267462D01*
X-268478Y-1113536D01*
X-267462Y-1112520D01*
X-268478D01*
X-269494Y-1111504D01*
X-270510Y-1112520D01*
X-271526D01*
X-270510Y-1113536D01*
X-271526Y-1114552D01*
X-270510D01*
X-269494Y-1115568D01*
X-249682Y-1115822D02*
X-248666Y-1114806D01*
X-247650D01*
X-248666Y-1113790D01*
X-247650Y-1112774D01*
X-248666D01*
X-249682Y-1111758D01*
X-250698Y-1112774D01*
X-251714D01*
X-250698Y-1113790D01*
X-251714Y-1114806D01*
X-250698D01*
X-249682Y-1115822D01*
X-259334Y-1115568D02*
X-258318Y-1114552D01*
X-257302D01*
X-258318Y-1113536D01*
X-257302Y-1112520D01*
X-258318D01*
X-259334Y-1111504D01*
X-260350Y-1112520D01*
X-261366D01*
X-260350Y-1113536D01*
X-261366Y-1114552D01*
X-260350D01*
X-259334Y-1115568D01*
X-535940Y-818134D02*
X-534924Y-817118D01*
X-533908D01*
X-534924Y-816102D01*
X-533908Y-815086D01*
X-534924D01*
X-535940Y-814070D01*
X-536956Y-815086D01*
X-537972D01*
X-536956Y-816102D01*
X-537972Y-817118D01*
X-536956D01*
X-535940Y-818134D01*
X-14478Y-352552D02*
X-13462Y-351536D01*
X-12446D01*
X-13462Y-350520D01*
X-12446Y-349504D01*
X-13462D01*
X-14478Y-348488D01*
X-15494Y-349504D01*
X-16510D01*
X-15494Y-350520D01*
X-16510Y-351536D01*
X-15494D01*
X-14478Y-352552D01*
X-14224Y-294894D02*
X-13208Y-293878D01*
X-12192D01*
X-13208Y-292862D01*
X-12192Y-291846D01*
X-13208D01*
X-14224Y-290830D01*
X-15240Y-291846D01*
X-16256D01*
X-15240Y-292862D01*
X-16256Y-293878D01*
X-15240D01*
X-14224Y-294894D01*
X-13970Y-237236D02*
X-12954Y-236220D01*
X-11938D01*
X-12954Y-235204D01*
X-11938Y-234188D01*
X-12954D01*
X-13970Y-233172D01*
X-14986Y-234188D01*
X-16002D01*
X-14986Y-235204D01*
X-16002Y-236220D01*
X-14986D01*
X-13970Y-237236D01*
X-13716Y-179578D02*
X-12700Y-178562D01*
X-11684D01*
X-12700Y-177546D01*
X-11684Y-176530D01*
X-12700D01*
X-13716Y-175514D01*
X-14732Y-176530D01*
X-15748D01*
X-14732Y-177546D01*
X-15748Y-178562D01*
X-14732D01*
X-13716Y-179578D01*
X-13462Y-121920D02*
X-12446Y-120904D01*
X-11430D01*
X-12446Y-119888D01*
X-11430Y-118872D01*
X-12446D01*
X-13462Y-117856D01*
X-14478Y-118872D01*
X-15494D01*
X-14478Y-119888D01*
X-15494Y-120904D01*
X-14478D01*
X-13462Y-121920D01*
X-13208Y-64262D02*
X-12192Y-63246D01*
X-11176D01*
X-12192Y-62230D01*
X-11176Y-61214D01*
X-12192D01*
X-13208Y-60198D01*
X-14224Y-61214D01*
X-15240D01*
X-14224Y-62230D01*
X-15240Y-63246D01*
X-14224D01*
X-13208Y-64262D01*
X-60452Y-17526D02*
X-59436Y-16510D01*
X-58420D01*
X-59436Y-15494D01*
X-58420Y-14478D01*
X-59436D01*
X-60452Y-13462D01*
X-61468Y-14478D01*
X-62484D01*
X-61468Y-15494D01*
X-62484Y-16510D01*
X-61468D01*
X-60452Y-17526D01*
X-118872D02*
X-117856Y-16510D01*
X-116840D01*
X-117856Y-15494D01*
X-116840Y-14478D01*
X-117856D01*
X-118872Y-13462D01*
X-119888Y-14478D01*
X-120904D01*
X-119888Y-15494D01*
X-120904Y-16510D01*
X-119888D01*
X-118872Y-17526D01*
X-201422Y-18034D02*
X-200406Y-17018D01*
X-199390D01*
X-200406Y-16002D01*
X-199390Y-14986D01*
X-200406D01*
X-201422Y-13970D01*
X-202438Y-14986D01*
X-203454D01*
X-202438Y-16002D01*
X-203454Y-17018D01*
X-202438D01*
X-201422Y-18034D01*
X-259080Y-17780D02*
X-258064Y-16764D01*
X-257048D01*
X-258064Y-15748D01*
X-257048Y-14732D01*
X-258064D01*
X-259080Y-13716D01*
X-260096Y-14732D01*
X-261112D01*
X-260096Y-15748D01*
X-261112Y-16764D01*
X-260096D01*
X-259080Y-17780D01*
X-359156Y-18034D02*
X-358140Y-17018D01*
X-357124D01*
X-358140Y-16002D01*
X-357124Y-14986D01*
X-358140D01*
X-359156Y-13970D01*
X-360172Y-14986D01*
X-361188D01*
X-360172Y-16002D01*
X-361188Y-17018D01*
X-360172D01*
X-359156Y-18034D01*
X-416814Y-17780D02*
X-415798Y-16764D01*
X-414782D01*
X-415798Y-15748D01*
X-414782Y-14732D01*
X-415798D01*
X-416814Y-13716D01*
X-417830Y-14732D01*
X-418846D01*
X-417830Y-15748D01*
X-418846Y-16764D01*
X-417830D01*
X-416814Y-17780D01*
X-474472Y-17526D02*
X-473456Y-16510D01*
X-472440D01*
X-473456Y-15494D01*
X-472440Y-14478D01*
X-473456D01*
X-474472Y-13462D01*
X-475488Y-14478D01*
X-476504D01*
X-475488Y-15494D01*
X-476504Y-16510D01*
X-475488D01*
X-474472Y-17526D01*
X-562356D02*
X-561340Y-16510D01*
X-560324D01*
X-561340Y-15494D01*
X-560324Y-14478D01*
X-561340D01*
X-562356Y-13462D01*
X-563372Y-14478D01*
X-564388D01*
X-563372Y-15494D01*
X-564388Y-16510D01*
X-563372D01*
X-562356Y-17526D01*
X-620014Y-17272D02*
X-618998Y-16256D01*
X-617982D01*
X-618998Y-15240D01*
X-617982Y-14224D01*
X-618998D01*
X-620014Y-13208D01*
X-621030Y-14224D01*
X-622046D01*
X-621030Y-15240D01*
X-622046Y-16256D01*
X-621030D01*
X-620014Y-17272D01*
X-740918Y-18034D02*
X-739902Y-17018D01*
X-738886D01*
X-739902Y-16002D01*
X-738886Y-14986D01*
X-739902D01*
X-740918Y-13970D01*
X-741934Y-14986D01*
X-742950D01*
X-741934Y-16002D01*
X-742950Y-17018D01*
X-741934D01*
X-740918Y-18034D01*
X-798576Y-17780D02*
X-797560Y-16764D01*
X-796544D01*
X-797560Y-15748D01*
X-796544Y-14732D01*
X-797560D01*
X-798576Y-13716D01*
X-799592Y-14732D01*
X-800608D01*
X-799592Y-15748D01*
X-800608Y-16764D01*
X-799592D01*
X-798576Y-17780D01*
X-856234Y-17526D02*
X-855218Y-16510D01*
X-854202D01*
X-855218Y-15494D01*
X-854202Y-14478D01*
X-855218D01*
X-856234Y-13462D01*
X-857250Y-14478D01*
X-858266D01*
X-857250Y-15494D01*
X-858266Y-16510D01*
X-857250D01*
X-856234Y-17526D01*
X-913892Y-17272D02*
X-912876Y-16256D01*
X-911860D01*
X-912876Y-15240D01*
X-911860Y-14224D01*
X-912876D01*
X-913892Y-13208D01*
X-914908Y-14224D01*
X-915924D01*
X-914908Y-15240D01*
X-915924Y-16256D01*
X-914908D01*
X-913892Y-17272D01*
X-957072Y-60452D02*
X-956056Y-59436D01*
X-955040D01*
X-956056Y-58420D01*
X-955040Y-57404D01*
X-956056D01*
X-957072Y-56388D01*
X-958088Y-57404D01*
X-959104D01*
X-958088Y-58420D01*
X-959104Y-59436D01*
X-958088D01*
X-957072Y-60452D01*
X-957326Y-118110D02*
X-956310Y-117094D01*
X-955294D01*
X-956310Y-116078D01*
X-955294Y-115062D01*
X-956310D01*
X-957326Y-114046D01*
X-958342Y-115062D01*
X-959358D01*
X-958342Y-116078D01*
X-959358Y-117094D01*
X-958342D01*
X-957326Y-118110D01*
X-957072Y-163322D02*
X-956056Y-162306D01*
X-955040D01*
X-956056Y-161290D01*
X-955040Y-160274D01*
X-956056D01*
X-957072Y-159258D01*
X-958088Y-160274D01*
X-959104D01*
X-958088Y-161290D01*
X-959104Y-162306D01*
X-958088D01*
X-957072Y-163322D01*
X-908050Y-164592D02*
X-907034Y-163576D01*
X-906018D01*
X-907034Y-162560D01*
X-906018Y-161544D01*
X-907034D01*
X-908050Y-160528D01*
X-909066Y-161544D01*
X-910082D01*
X-909066Y-162560D01*
X-910082Y-163576D01*
X-909066D01*
X-908050Y-164592D01*
X-887222Y-164338D02*
X-886206Y-163322D01*
X-885190D01*
X-886206Y-162306D01*
X-885190Y-161290D01*
X-886206D01*
X-887222Y-160274D01*
X-888238Y-161290D01*
X-889254D01*
X-888238Y-162306D01*
X-889254Y-163322D01*
X-888238D01*
X-887222Y-164338D01*
X-658622Y-915924D02*
X-657606Y-914908D01*
X-656590D01*
X-657606Y-913892D01*
X-656590Y-912876D01*
X-657606D01*
X-658622Y-911860D01*
X-659638Y-912876D01*
X-660654D01*
X-659638Y-913892D01*
X-660654Y-914908D01*
X-659638D01*
X-658622Y-915924D01*
X-658876Y-907796D02*
X-657860Y-906780D01*
X-656844D01*
X-657860Y-905764D01*
X-656844Y-904748D01*
X-657860D01*
X-658876Y-903732D01*
X-659892Y-904748D01*
X-660908D01*
X-659892Y-905764D01*
X-660908Y-906780D01*
X-659892D01*
X-658876Y-907796D01*
X-733552Y-601726D02*
X-732536Y-600710D01*
X-731520D01*
X-732536Y-599694D01*
X-731520Y-598678D01*
X-732536D01*
X-733552Y-597662D01*
X-734568Y-598678D01*
X-735584D01*
X-734568Y-599694D01*
X-735584Y-600710D01*
X-734568D01*
X-733552Y-601726D01*
X-733298Y-539496D02*
X-732282Y-538480D01*
X-731266D01*
X-732282Y-537464D01*
X-731266Y-536448D01*
X-732282D01*
X-733298Y-535432D01*
X-734314Y-536448D01*
X-735330D01*
X-734314Y-537464D01*
X-735330Y-538480D01*
X-734314D01*
X-733298Y-539496D01*
X-907532Y-714678D02*
X-906516Y-712646D01*
X-907532Y-710614D01*
X-905500Y-711630D01*
X-903468Y-710614D01*
X-904484Y-712646D01*
X-903468Y-714678D01*
X-905500Y-713662D01*
X-907532Y-714678D01*
X-896532D02*
X-895516Y-712646D01*
X-896532Y-710614D01*
X-894500Y-711630D01*
X-892468Y-710614D01*
X-893484Y-712646D01*
X-892468Y-714678D01*
X-894500Y-713662D01*
X-896532Y-714678D01*
X-907532Y-725678D02*
X-906516Y-723646D01*
X-907532Y-721614D01*
X-905500Y-722630D01*
X-903468Y-721614D01*
X-904484Y-723646D01*
X-903468Y-725678D01*
X-905500Y-724662D01*
X-907532Y-725678D01*
X-896532D02*
X-895516Y-723646D01*
X-896532Y-721614D01*
X-894500Y-722630D01*
X-892468Y-721614D01*
X-893484Y-723646D01*
X-892468Y-725678D01*
X-894500Y-724662D01*
X-896532Y-725678D01*
X-907532Y-736678D02*
X-906516Y-734646D01*
X-907532Y-732614D01*
X-905500Y-733630D01*
X-903468Y-732614D01*
X-904484Y-734646D01*
X-903468Y-736678D01*
X-905500Y-735662D01*
X-907532Y-736678D01*
X-896532D02*
X-895516Y-734646D01*
X-896532Y-732614D01*
X-894500Y-733630D01*
X-892468Y-732614D01*
X-893484Y-734646D01*
X-892468Y-736678D01*
X-894500Y-735662D01*
X-896532Y-736678D01*
X-839216Y-1099820D02*
X-838200Y-1098804D01*
X-837184D01*
X-838200Y-1097788D01*
X-837184Y-1096772D01*
X-838200D01*
X-839216Y-1095756D01*
X-840232Y-1096772D01*
X-841248D01*
X-840232Y-1097788D01*
X-841248Y-1098804D01*
X-840232D01*
X-839216Y-1099820D01*
X-847344Y-1099312D02*
X-846328Y-1098296D01*
X-845312D01*
X-846328Y-1097280D01*
X-845312Y-1096264D01*
X-846328D01*
X-847344Y-1095248D01*
X-848360Y-1096264D01*
X-849376D01*
X-848360Y-1097280D01*
X-849376Y-1098296D01*
X-848360D01*
X-847344Y-1099312D01*
X-76962Y-993140D02*
X-75946Y-992124D01*
X-74930D01*
X-75946Y-991108D01*
X-74930Y-990092D01*
X-75946D01*
X-76962Y-989076D01*
X-77978Y-990092D01*
X-78994D01*
X-77978Y-991108D01*
X-78994Y-992124D01*
X-77978D01*
X-76962Y-993140D01*
X-72898Y-987044D02*
X-71882Y-986028D01*
X-70866D01*
X-71882Y-985012D01*
X-70866Y-983996D01*
X-71882D01*
X-72898Y-982980D01*
X-73914Y-983996D01*
X-74930D01*
X-73914Y-985012D01*
X-74930Y-986028D01*
X-73914D01*
X-72898Y-987044D01*
X-81534D02*
X-80518Y-986028D01*
X-79502D01*
X-80518Y-985012D01*
X-79502Y-983996D01*
X-80518D01*
X-81534Y-982980D01*
X-82550Y-983996D01*
X-83566D01*
X-82550Y-985012D01*
X-83566Y-986028D01*
X-82550D01*
X-81534Y-987044D01*
X-872744Y-983488D02*
X-871728Y-982472D01*
X-870712D01*
X-871728Y-981456D01*
X-870712Y-980440D01*
X-871728D01*
X-872744Y-979424D01*
X-873760Y-980440D01*
X-874776D01*
X-873760Y-981456D01*
X-874776Y-982472D01*
X-873760D01*
X-872744Y-983488D01*
X-880110Y-990600D02*
X-879094Y-989584D01*
X-878078D01*
X-879094Y-988568D01*
X-878078Y-987552D01*
X-879094D01*
X-880110Y-986536D01*
X-881126Y-987552D01*
X-882142D01*
X-881126Y-988568D01*
X-882142Y-989584D01*
X-881126D01*
X-880110Y-990600D01*
X-42672Y-1024890D02*
X-41656Y-1023874D01*
X-40640D01*
X-41656Y-1022858D01*
X-40640Y-1021842D01*
X-41656D01*
X-42672Y-1020826D01*
X-43688Y-1021842D01*
X-44704D01*
X-43688Y-1022858D01*
X-44704Y-1023874D01*
X-43688D01*
X-42672Y-1024890D01*
X-59186Y-1039876D02*
X-58170Y-1038860D01*
X-57154D01*
X-58170Y-1037844D01*
X-57154Y-1036828D01*
X-58170D01*
X-59186Y-1035812D01*
X-60202Y-1036828D01*
X-61218D01*
X-60202Y-1037844D01*
X-61218Y-1038860D01*
X-60202D01*
X-59186Y-1039876D01*
X-105156Y-978662D02*
X-104140Y-977646D01*
X-103124D01*
X-104140Y-976630D01*
X-103124Y-975614D01*
X-104140D01*
X-105156Y-974598D01*
X-106172Y-975614D01*
X-107188D01*
X-106172Y-976630D01*
X-107188Y-977646D01*
X-106172D01*
X-105156Y-978662D01*
X-104902Y-970534D02*
X-103886Y-969518D01*
X-102870D01*
X-103886Y-968502D01*
X-102870Y-967486D01*
X-103886D01*
X-104902Y-966470D01*
X-105918Y-967486D01*
X-106934D01*
X-105918Y-968502D01*
X-106934Y-969518D01*
X-105918D01*
X-104902Y-970534D01*
X-104648Y-962660D02*
X-103632Y-961644D01*
X-102616D01*
X-103632Y-960628D01*
X-102616Y-959612D01*
X-103632D01*
X-104648Y-958596D01*
X-105664Y-959612D01*
X-106680D01*
X-105664Y-960628D01*
X-106680Y-961644D01*
X-105664D01*
X-104648Y-962660D01*
X-91186Y-906780D02*
X-90170Y-905764D01*
X-89154D01*
X-90170Y-904748D01*
X-89154Y-903732D01*
X-90170D01*
X-91186Y-902716D01*
X-92202Y-903732D01*
X-93218D01*
X-92202Y-904748D01*
X-93218Y-905764D01*
X-92202D01*
X-91186Y-906780D01*
X-78740D02*
X-77724Y-905764D01*
X-76708D01*
X-77724Y-904748D01*
X-76708Y-903732D01*
X-77724D01*
X-78740Y-902716D01*
X-79756Y-903732D01*
X-80772D01*
X-79756Y-904748D01*
X-80772Y-905764D01*
X-79756D01*
X-78740Y-906780D01*
X-927415Y-253238D02*
X-926399Y-252222D01*
X-925383D01*
X-926399Y-251206D01*
X-925383Y-250190D01*
X-926399D01*
X-927415Y-249174D01*
X-928431Y-250190D01*
X-929447D01*
X-928431Y-251206D01*
X-929447Y-252222D01*
X-928431D01*
X-927415Y-253238D01*
X-927354Y-261112D02*
X-926338Y-260096D01*
X-925322D01*
X-926338Y-259080D01*
X-925322Y-258064D01*
X-926338D01*
X-927354Y-257048D01*
X-928370Y-258064D01*
X-929386D01*
X-928370Y-259080D01*
X-929386Y-260096D01*
X-928370D01*
X-927354Y-261112D01*
X-946658Y-244094D02*
X-945642Y-243078D01*
X-944626D01*
X-945642Y-242062D01*
X-944626Y-241046D01*
X-945642D01*
X-946658Y-240030D01*
X-947674Y-241046D01*
X-948690D01*
X-947674Y-242062D01*
X-948690Y-243078D01*
X-947674D01*
X-946658Y-244094D01*
Y-251904D02*
X-945642Y-250888D01*
X-944626D01*
X-945642Y-249872D01*
X-944626Y-248856D01*
X-945642D01*
X-946658Y-247840D01*
X-947674Y-248856D01*
X-948690D01*
X-947674Y-249872D01*
X-948690Y-250888D01*
X-947674D01*
X-946658Y-251904D01*
X-322072Y-818134D02*
X-321056Y-817118D01*
X-320040D01*
X-321056Y-816102D01*
X-320040Y-815086D01*
X-321056D01*
X-322072Y-814070D01*
X-323088Y-815086D01*
X-324104D01*
X-323088Y-816102D01*
X-324104Y-817118D01*
X-323088D01*
X-322072Y-818134D01*
X-337566Y-817118D02*
X-336550Y-816102D01*
X-335534D01*
X-336550Y-815086D01*
X-335534Y-814070D01*
X-336550D01*
X-337566Y-813054D01*
X-338582Y-814070D01*
X-339598D01*
X-338582Y-815086D01*
X-339598Y-816102D01*
X-338582D01*
X-337566Y-817118D01*
Y-809244D02*
X-336550Y-808228D01*
X-335534D01*
X-336550Y-807212D01*
X-335534Y-806196D01*
X-336550D01*
X-337566Y-805180D01*
X-338582Y-806196D01*
X-339598D01*
X-338582Y-807212D01*
X-339598Y-808228D01*
X-338582D01*
X-337566Y-809244D01*
X-314198Y-818388D02*
X-313182Y-817372D01*
X-312166D01*
X-313182Y-816356D01*
X-312166Y-815340D01*
X-313182D01*
X-314198Y-814324D01*
X-315214Y-815340D01*
X-316230D01*
X-315214Y-816356D01*
X-316230Y-817372D01*
X-315214D01*
X-314198Y-818388D01*
X-138684Y-733552D02*
X-137668Y-732536D01*
X-136652D01*
X-137668Y-731520D01*
X-136652Y-730504D01*
X-137668D01*
X-138684Y-729488D01*
X-139700Y-730504D01*
X-140716D01*
X-139700Y-731520D01*
X-140716Y-732536D01*
X-139700D01*
X-138684Y-733552D01*
X-301752Y-728472D02*
X-300736Y-727456D01*
X-299720D01*
X-300736Y-726440D01*
X-299720Y-725424D01*
X-300736D01*
X-301752Y-724408D01*
X-302768Y-725424D01*
X-303784D01*
X-302768Y-726440D01*
X-303784Y-727456D01*
X-302768D01*
X-301752Y-728472D01*
X-131064Y-733552D02*
X-130048Y-732536D01*
X-129032D01*
X-130048Y-731520D01*
X-129032Y-730504D01*
X-130048D01*
X-131064Y-729488D01*
X-132080Y-730504D01*
X-133096D01*
X-132080Y-731520D01*
X-133096Y-732536D01*
X-132080D01*
X-131064Y-733552D01*
X-301762Y-720598D02*
X-300746Y-719582D01*
X-299730D01*
X-300746Y-718566D01*
X-299730Y-717550D01*
X-300746D01*
X-301762Y-716534D01*
X-302778Y-717550D01*
X-303794D01*
X-302778Y-718566D01*
X-303794Y-719582D01*
X-302778D01*
X-301762Y-720598D01*
X-256794Y-740918D02*
X-255778Y-739902D01*
X-254762D01*
X-255778Y-738886D01*
X-254762Y-737870D01*
X-255778D01*
X-256794Y-736854D01*
X-257810Y-737870D01*
X-258826D01*
X-257810Y-738886D01*
X-258826Y-739902D01*
X-257810D01*
X-256794Y-740918D01*
X-290830Y-743712D02*
X-289814Y-742696D01*
X-288798D01*
X-289814Y-741680D01*
X-288798Y-740664D01*
X-289814D01*
X-290830Y-739648D01*
X-291846Y-740664D01*
X-292862D01*
X-291846Y-741680D01*
X-292862Y-742696D01*
X-291846D01*
X-290830Y-743712D01*
X-256794Y-748538D02*
X-255778Y-747522D01*
X-254762D01*
X-255778Y-746506D01*
X-254762Y-745490D01*
X-255778D01*
X-256794Y-744474D01*
X-257810Y-745490D01*
X-258826D01*
X-257810Y-746506D01*
X-258826Y-747522D01*
X-257810D01*
X-256794Y-748538D01*
X-282956Y-743712D02*
X-281940Y-742696D01*
X-280924D01*
X-281940Y-741680D01*
X-280924Y-740664D01*
X-281940D01*
X-282956Y-739648D01*
X-283972Y-740664D01*
X-284988D01*
X-283972Y-741680D01*
X-284988Y-742696D01*
X-283972D01*
X-282956Y-743712D01*
X-154940Y-671122D02*
X-153924Y-670106D01*
X-152908D01*
X-153924Y-669090D01*
X-152908Y-668074D01*
X-153924D01*
X-154940Y-667058D01*
X-155956Y-668074D01*
X-156972D01*
X-155956Y-669090D01*
X-156972Y-670106D01*
X-155956D01*
X-154940Y-671122D01*
X-273558Y-614680D02*
X-272542Y-613664D01*
X-271526D01*
X-272542Y-612648D01*
X-271526Y-611632D01*
X-272542D01*
X-273558Y-610616D01*
X-274574Y-611632D01*
X-275590D01*
X-274574Y-612648D01*
X-275590Y-613664D01*
X-274574D01*
X-273558Y-614680D01*
X-281432Y-614934D02*
X-280416Y-613918D01*
X-279400D01*
X-280416Y-612902D01*
X-279400Y-611886D01*
X-280416D01*
X-281432Y-610870D01*
X-282448Y-611886D01*
X-283464D01*
X-282448Y-612902D01*
X-283464Y-613918D01*
X-282448D01*
X-281432Y-614934D01*
X-154940Y-663448D02*
X-153924Y-662432D01*
X-152908D01*
X-153924Y-661416D01*
X-152908Y-660400D01*
X-153924D01*
X-154940Y-659384D01*
X-155956Y-660400D01*
X-156972D01*
X-155956Y-661416D01*
X-156972Y-662432D01*
X-155956D01*
X-154940Y-663448D01*
X-282194Y-689864D02*
X-281178Y-688848D01*
X-280162D01*
X-281178Y-687832D01*
X-280162Y-686816D01*
X-281178D01*
X-282194Y-685800D01*
X-283210Y-686816D01*
X-284226D01*
X-283210Y-687832D01*
X-284226Y-688848D01*
X-283210D01*
X-282194Y-689864D01*
X-309372Y-665226D02*
X-308356Y-664210D01*
X-307340D01*
X-308356Y-663194D01*
X-307340Y-662178D01*
X-308356D01*
X-309372Y-661162D01*
X-310388Y-662178D01*
X-311404D01*
X-310388Y-663194D01*
X-311404Y-664210D01*
X-310388D01*
X-309372Y-665226D01*
X-281940Y-682244D02*
X-280924Y-681228D01*
X-279908D01*
X-280924Y-680212D01*
X-279908Y-679196D01*
X-280924D01*
X-281940Y-678180D01*
X-282956Y-679196D01*
X-283972D01*
X-282956Y-680212D01*
X-283972Y-681228D01*
X-282956D01*
X-281940Y-682244D01*
X-317246Y-664972D02*
X-316230Y-663956D01*
X-315214D01*
X-316230Y-662940D01*
X-315214Y-661924D01*
X-316230D01*
X-317246Y-660908D01*
X-318262Y-661924D01*
X-319278D01*
X-318262Y-662940D01*
X-319278Y-663956D01*
X-318262D01*
X-317246Y-664972D01*
X-317500Y-555244D02*
X-316484Y-554228D01*
X-315468D01*
X-316484Y-553212D01*
X-315468Y-552196D01*
X-316484D01*
X-317500Y-551180D01*
X-318516Y-552196D01*
X-319532D01*
X-318516Y-553212D01*
X-319532Y-554228D01*
X-318516D01*
X-317500Y-555244D01*
X-95250Y-495046D02*
X-94234Y-494030D01*
X-93218D01*
X-94234Y-493014D01*
X-93218Y-491998D01*
X-94234D01*
X-95250Y-490982D01*
X-96266Y-491998D01*
X-97282D01*
X-96266Y-493014D01*
X-97282Y-494030D01*
X-96266D01*
X-95250Y-495046D01*
X-325120Y-555498D02*
X-324104Y-554482D01*
X-323088D01*
X-324104Y-553466D01*
X-323088Y-552450D01*
X-324104D01*
X-325120Y-551434D01*
X-326136Y-552450D01*
X-327152D01*
X-326136Y-553466D01*
X-327152Y-554482D01*
X-326136D01*
X-325120Y-555498D01*
X-95250Y-502666D02*
X-94234Y-501650D01*
X-93218D01*
X-94234Y-500634D01*
X-93218Y-499618D01*
X-94234D01*
X-95250Y-498602D01*
X-96266Y-499618D01*
X-97282D01*
X-96266Y-500634D01*
X-97282Y-501650D01*
X-96266D01*
X-95250Y-502666D01*
X-96012Y-481838D02*
X-94996Y-480822D01*
X-93980D01*
X-94996Y-479806D01*
X-93980Y-478790D01*
X-94996D01*
X-96012Y-477774D01*
X-97028Y-478790D01*
X-98044D01*
X-97028Y-479806D01*
X-98044Y-480822D01*
X-97028D01*
X-96012Y-481838D01*
X-335026Y-631698D02*
X-334010Y-630682D01*
X-332994D01*
X-334010Y-629666D01*
X-332994Y-628650D01*
X-334010D01*
X-335026Y-627634D01*
X-336042Y-628650D01*
X-337058D01*
X-336042Y-629666D01*
X-337058Y-630682D01*
X-336042D01*
X-335026Y-631698D01*
X-96266Y-473710D02*
X-95250Y-472694D01*
X-94234D01*
X-95250Y-471678D01*
X-94234Y-470662D01*
X-95250D01*
X-96266Y-469646D01*
X-97282Y-470662D01*
X-98298D01*
X-97282Y-471678D01*
X-98298Y-472694D01*
X-97282D01*
X-96266Y-473710D01*
X-327406Y-631698D02*
X-326390Y-630682D01*
X-325374D01*
X-326390Y-629666D01*
X-325374Y-628650D01*
X-326390D01*
X-327406Y-627634D01*
X-328422Y-628650D01*
X-329438D01*
X-328422Y-629666D01*
X-329438Y-630682D01*
X-328422D01*
X-327406Y-631698D01*
X-267462Y-793550D02*
X-266446Y-792534D01*
X-265430D01*
X-266446Y-791518D01*
X-265430Y-790502D01*
X-266446D01*
X-267462Y-789486D01*
X-268478Y-790502D01*
X-269494D01*
X-268478Y-791518D01*
X-269494Y-792534D01*
X-268478D01*
X-267462Y-793550D01*
X-107442Y-606806D02*
X-106426Y-605790D01*
X-105410D01*
X-106426Y-604774D01*
X-105410Y-603758D01*
X-106426D01*
X-107442Y-602742D01*
X-108458Y-603758D01*
X-109474D01*
X-108458Y-604774D01*
X-109474Y-605790D01*
X-108458D01*
X-107442Y-606806D01*
X-262128Y-799138D02*
X-261112Y-798122D01*
X-260096D01*
X-261112Y-797106D01*
X-260096Y-796090D01*
X-261112D01*
X-262128Y-795074D01*
X-263144Y-796090D01*
X-264160D01*
X-263144Y-797106D01*
X-264160Y-798122D01*
X-263144D01*
X-262128Y-799138D01*
X-99568Y-606806D02*
X-98552Y-605790D01*
X-97536D01*
X-98552Y-604774D01*
X-97536Y-603758D01*
X-98552D01*
X-99568Y-602742D01*
X-100584Y-603758D01*
X-101600D01*
X-100584Y-604774D01*
X-101600Y-605790D01*
X-100584D01*
X-99568Y-606806D01*
X-302768Y-798068D02*
X-301752Y-797052D01*
X-300736D01*
X-301752Y-796036D01*
X-300736Y-795020D01*
X-301752D01*
X-302768Y-794004D01*
X-303784Y-795020D01*
X-304800D01*
X-303784Y-796036D01*
X-304800Y-797052D01*
X-303784D01*
X-302768Y-798068D01*
Y-771652D02*
X-301752Y-770636D01*
X-300736D01*
X-301752Y-769620D01*
X-300736Y-768604D01*
X-301752D01*
X-302768Y-767588D01*
X-303784Y-768604D01*
X-304800D01*
X-303784Y-769620D01*
X-304800Y-770636D01*
X-303784D01*
X-302768Y-771652D01*
X-320294Y-734822D02*
X-319278Y-733806D01*
X-318262D01*
X-319278Y-732790D01*
X-318262Y-731774D01*
X-319278D01*
X-320294Y-730758D01*
X-321310Y-731774D01*
X-322326D01*
X-321310Y-732790D01*
X-322326Y-733806D01*
X-321310D01*
X-320294Y-734822D01*
X-341122Y-702564D02*
X-340106Y-701548D01*
X-339090D01*
X-340106Y-700532D01*
X-339090Y-699516D01*
X-340106D01*
X-341122Y-698500D01*
X-342138Y-699516D01*
X-343154D01*
X-342138Y-700532D01*
X-343154Y-701548D01*
X-342138D01*
X-341122Y-702564D01*
X-424942Y-615696D02*
X-423926Y-614680D01*
X-422910D01*
X-423926Y-613664D01*
X-422910Y-612648D01*
X-423926D01*
X-424942Y-611632D01*
X-425958Y-612648D01*
X-426974D01*
X-425958Y-613664D01*
X-426974Y-614680D01*
X-425958D01*
X-424942Y-615696D01*
X-447548Y-622808D02*
X-446532Y-621792D01*
X-445516D01*
X-446532Y-620776D01*
X-445516Y-619760D01*
X-446532D01*
X-447548Y-618744D01*
X-448564Y-619760D01*
X-449580D01*
X-448564Y-620776D01*
X-449580Y-621792D01*
X-448564D01*
X-447548Y-622808D01*
X-424942Y-623316D02*
X-423926Y-622300D01*
X-422910D01*
X-423926Y-621284D01*
X-422910Y-620268D01*
X-423926D01*
X-424942Y-619252D01*
X-425958Y-620268D01*
X-426974D01*
X-425958Y-621284D01*
X-426974Y-622300D01*
X-425958D01*
X-424942Y-623316D01*
X-447548Y-615188D02*
X-446532Y-614172D01*
X-445516D01*
X-446532Y-613156D01*
X-445516Y-612140D01*
X-446532D01*
X-447548Y-611124D01*
X-448564Y-612140D01*
X-449580D01*
X-448564Y-613156D01*
X-449580Y-614172D01*
X-448564D01*
X-447548Y-615188D01*
X-442468Y-580898D02*
X-441452Y-579882D01*
X-440436D01*
X-441452Y-578866D01*
X-440436Y-577850D01*
X-441452D01*
X-442468Y-576834D01*
X-443484Y-577850D01*
X-444500D01*
X-443484Y-578866D01*
X-444500Y-579882D01*
X-443484D01*
X-442468Y-580898D01*
X-420370Y-550418D02*
X-419354Y-549402D01*
X-418338D01*
X-419354Y-548386D01*
X-418338Y-547370D01*
X-419354D01*
X-420370Y-546354D01*
X-421386Y-547370D01*
X-422402D01*
X-421386Y-548386D01*
X-422402Y-549402D01*
X-421386D01*
X-420370Y-550418D01*
Y-558292D02*
X-419354Y-557276D01*
X-418338D01*
X-419354Y-556260D01*
X-418338Y-555244D01*
X-419354D01*
X-420370Y-554228D01*
X-421386Y-555244D01*
X-422402D01*
X-421386Y-556260D01*
X-422402Y-557276D01*
X-421386D01*
X-420370Y-558292D01*
X-442468Y-588772D02*
X-441452Y-587756D01*
X-440436D01*
X-441452Y-586740D01*
X-440436Y-585724D01*
X-441452D01*
X-442468Y-584708D01*
X-443484Y-585724D01*
X-444500D01*
X-443484Y-586740D01*
X-444500Y-587756D01*
X-443484D01*
X-442468Y-588772D01*
X-434086Y-784606D02*
X-433070Y-783590D01*
X-432054D01*
X-433070Y-782574D01*
X-432054Y-781558D01*
X-433070D01*
X-434086Y-780542D01*
X-435102Y-781558D01*
X-436118D01*
X-435102Y-782574D01*
X-436118Y-783590D01*
X-435102D01*
X-434086Y-784606D01*
X-467106Y-765048D02*
X-466090Y-764032D01*
X-465074D01*
X-466090Y-763016D01*
X-465074Y-762000D01*
X-466090D01*
X-467106Y-760984D01*
X-468122Y-762000D01*
X-469138D01*
X-468122Y-763016D01*
X-469138Y-764032D01*
X-468122D01*
X-467106Y-765048D01*
X-426466Y-784606D02*
X-425450Y-783590D01*
X-424434D01*
X-425450Y-782574D01*
X-424434Y-781558D01*
X-425450D01*
X-426466Y-780542D01*
X-427482Y-781558D01*
X-428498D01*
X-427482Y-782574D01*
X-428498Y-783590D01*
X-427482D01*
X-426466Y-784606D01*
X-467106Y-772668D02*
X-466090Y-771652D01*
X-465074D01*
X-466090Y-770636D01*
X-465074Y-769620D01*
X-466090D01*
X-467106Y-768604D01*
X-468122Y-769620D01*
X-469138D01*
X-468122Y-770636D01*
X-469138Y-771652D01*
X-468122D01*
X-467106Y-772668D01*
X-423418Y-730758D02*
X-422402Y-729742D01*
X-421386D01*
X-422402Y-728726D01*
X-421386Y-727710D01*
X-422402D01*
X-423418Y-726694D01*
X-424434Y-727710D01*
X-425450D01*
X-424434Y-728726D01*
X-425450Y-729742D01*
X-424434D01*
X-423418Y-730758D01*
X-438404Y-773684D02*
X-437388Y-772668D01*
X-436372D01*
X-437388Y-771652D01*
X-436372Y-770636D01*
X-437388D01*
X-438404Y-769620D01*
X-439420Y-770636D01*
X-440436D01*
X-439420Y-771652D01*
X-440436Y-772668D01*
X-439420D01*
X-438404Y-773684D01*
X-423418Y-738378D02*
X-422402Y-737362D01*
X-421386D01*
X-422402Y-736346D01*
X-421386Y-735330D01*
X-422402D01*
X-423418Y-734314D01*
X-424434Y-735330D01*
X-425450D01*
X-424434Y-736346D01*
X-425450Y-737362D01*
X-424434D01*
X-423418Y-738378D01*
X-438150Y-765810D02*
X-437134Y-764794D01*
X-436118D01*
X-437134Y-763778D01*
X-436118Y-762762D01*
X-437134D01*
X-438150Y-761746D01*
X-439166Y-762762D01*
X-440182D01*
X-439166Y-763778D01*
X-440182Y-764794D01*
X-439166D01*
X-438150Y-765810D01*
X-419862Y-808482D02*
X-418846Y-807466D01*
X-417830D01*
X-418846Y-806450D01*
X-417830Y-805434D01*
X-418846D01*
X-419862Y-804418D01*
X-420878Y-805434D01*
X-421894D01*
X-420878Y-806450D01*
X-421894Y-807466D01*
X-420878D01*
X-419862Y-808482D01*
X-436372Y-823214D02*
X-435356Y-822198D01*
X-434340D01*
X-435356Y-821182D01*
X-434340Y-820166D01*
X-435356D01*
X-436372Y-819150D01*
X-437388Y-820166D01*
X-438404D01*
X-437388Y-821182D01*
X-438404Y-822198D01*
X-437388D01*
X-436372Y-823214D01*
X-427482Y-808736D02*
X-426466Y-807720D01*
X-425450D01*
X-426466Y-806704D01*
X-425450Y-805688D01*
X-426466D01*
X-427482Y-804672D01*
X-428498Y-805688D01*
X-429514D01*
X-428498Y-806704D01*
X-429514Y-807720D01*
X-428498D01*
X-427482Y-808736D01*
X-436372Y-815340D02*
X-435356Y-814324D01*
X-434340D01*
X-435356Y-813308D01*
X-434340Y-812292D01*
X-435356D01*
X-436372Y-811276D01*
X-437388Y-812292D01*
X-438404D01*
X-437388Y-813308D01*
X-438404Y-814324D01*
X-437388D01*
X-436372Y-815340D01*
X-172466Y-901700D02*
X-171450Y-900684D01*
X-170434D01*
X-171450Y-899668D01*
X-170434Y-898652D01*
X-171450D01*
X-172466Y-897636D01*
X-173482Y-898652D01*
X-174498D01*
X-173482Y-899668D01*
X-174498Y-900684D01*
X-173482D01*
X-172466Y-901700D01*
X-159258Y-879602D02*
X-158242Y-878586D01*
X-157226D01*
X-158242Y-877570D01*
X-157226Y-876554D01*
X-158242D01*
X-159258Y-875538D01*
X-160274Y-876554D01*
X-161290D01*
X-160274Y-877570D01*
X-161290Y-878586D01*
X-160274D01*
X-159258Y-879602D01*
X-196596Y-1010158D02*
X-195580Y-1009142D01*
X-194564D01*
X-195580Y-1008126D01*
X-194564Y-1007110D01*
X-195580D01*
X-196596Y-1006094D01*
X-197612Y-1007110D01*
X-198628D01*
X-197612Y-1008126D01*
X-198628Y-1009142D01*
X-197612D01*
X-196596Y-1010158D01*
X-180848Y-1001776D02*
X-179832Y-1000760D01*
X-178816D01*
X-179832Y-999744D01*
X-178816Y-998728D01*
X-179832D01*
X-180848Y-997712D01*
X-181864Y-998728D01*
X-182880D01*
X-181864Y-999744D01*
X-182880Y-1000760D01*
X-181864D01*
X-180848Y-1001776D01*
X-161544Y-652780D02*
X-160528Y-651764D01*
X-159512D01*
X-160528Y-650748D01*
X-159512Y-649732D01*
X-160528D01*
X-161544Y-648716D01*
X-162560Y-649732D01*
X-163576D01*
X-162560Y-650748D01*
X-163576Y-651764D01*
X-162560D01*
X-161544Y-652780D01*
X-529082Y-722122D02*
X-528066Y-721106D01*
X-527050D01*
X-528066Y-720090D01*
X-527050Y-719074D01*
X-528066D01*
X-529082Y-718058D01*
X-530098Y-719074D01*
X-531114D01*
X-530098Y-720090D01*
X-531114Y-721106D01*
X-530098D01*
X-529082Y-722122D01*
X-510794Y-719074D02*
X-509778Y-718058D01*
X-508762D01*
X-509778Y-717042D01*
X-508762Y-716026D01*
X-509778D01*
X-510794Y-715010D01*
X-511810Y-716026D01*
X-512826D01*
X-511810Y-717042D01*
X-512826Y-718058D01*
X-511810D01*
X-510794Y-719074D01*
X-34290Y-1111758D02*
X-33274Y-1110742D01*
X-32258D01*
X-33274Y-1109726D01*
X-32258Y-1108710D01*
X-33274D01*
X-34290Y-1107694D01*
X-35306Y-1108710D01*
X-36322D01*
X-35306Y-1109726D01*
X-36322Y-1110742D01*
X-35306D01*
X-34290Y-1111758D01*
X-17272Y-1095136D02*
X-16256Y-1094120D01*
X-15240D01*
X-16256Y-1093104D01*
X-15240Y-1092088D01*
X-16256D01*
X-17272Y-1091072D01*
X-18288Y-1092088D01*
X-19304D01*
X-18288Y-1093104D01*
X-19304Y-1094120D01*
X-18288D01*
X-17272Y-1095136D01*
X-83820Y-637032D02*
X-82804Y-636016D01*
X-81788D01*
X-82804Y-635000D01*
X-81788Y-633984D01*
X-82804D01*
X-83820Y-632968D01*
X-84836Y-633984D01*
X-85852D01*
X-84836Y-635000D01*
X-85852Y-636016D01*
X-84836D01*
X-83820Y-637032D01*
X-811784Y-493522D02*
X-810768Y-492506D01*
X-809752D01*
X-810768Y-491490D01*
X-809752Y-490474D01*
X-810768D01*
X-811784Y-489458D01*
X-812800Y-490474D01*
X-813816D01*
X-812800Y-491490D01*
X-813816Y-492506D01*
X-812800D01*
X-811784Y-493522D01*
Y-487426D02*
X-810768Y-486410D01*
X-809752D01*
X-810768Y-485394D01*
X-809752Y-484378D01*
X-810768D01*
X-811784Y-483362D01*
X-812800Y-484378D01*
X-813816D01*
X-812800Y-485394D01*
X-813816Y-486410D01*
X-812800D01*
X-811784Y-487426D01*
Y-481330D02*
X-810768Y-480314D01*
X-809752D01*
X-810768Y-479298D01*
X-809752Y-478282D01*
X-810768D01*
X-811784Y-477266D01*
X-812800Y-478282D01*
X-813816D01*
X-812800Y-479298D01*
X-813816Y-480314D01*
X-812800D01*
X-811784Y-481330D01*
X-816102Y-811784D02*
X-815086Y-810768D01*
X-814070D01*
X-815086Y-809752D01*
X-814070Y-808736D01*
X-815086D01*
X-816102Y-807720D01*
X-817118Y-808736D01*
X-818134D01*
X-817118Y-809752D01*
X-818134Y-810768D01*
X-817118D01*
X-816102Y-811784D01*
X-815848Y-819658D02*
X-814832Y-818642D01*
X-813816D01*
X-814832Y-817626D01*
X-813816Y-816610D01*
X-814832D01*
X-815848Y-815594D01*
X-816864Y-816610D01*
X-817880D01*
X-816864Y-817626D01*
X-817880Y-818642D01*
X-816864D01*
X-815848Y-819658D01*
X-347726Y-858520D02*
X-346710Y-857504D01*
X-345694D01*
X-346710Y-856488D01*
X-345694Y-855472D01*
X-346710D01*
X-347726Y-854456D01*
X-348742Y-855472D01*
X-349758D01*
X-348742Y-856488D01*
X-349758Y-857504D01*
X-348742D01*
X-347726Y-858520D01*
X-368554Y-665226D02*
X-367538Y-664210D01*
X-366522D01*
X-367538Y-663194D01*
X-366522Y-662178D01*
X-367538D01*
X-368554Y-661162D01*
X-369570Y-662178D01*
X-370586D01*
X-369570Y-663194D01*
X-370586Y-664210D01*
X-369570D01*
X-368554Y-665226D01*
X-363982Y-569722D02*
X-362966Y-568706D01*
X-361950D01*
X-362966Y-567690D01*
X-361950Y-566674D01*
X-362966D01*
X-363982Y-565658D01*
X-364998Y-566674D01*
X-366014D01*
X-364998Y-567690D01*
X-366014Y-568706D01*
X-364998D01*
X-363982Y-569722D01*
X-122174Y-1109218D02*
X-121158Y-1108202D01*
X-120142D01*
X-121158Y-1107186D01*
X-120142Y-1106170D01*
X-121158D01*
X-122174Y-1105154D01*
X-123190Y-1106170D01*
X-124206D01*
X-123190Y-1107186D01*
X-124206Y-1108202D01*
X-123190D01*
X-122174Y-1109218D01*
X-129032D02*
X-128016Y-1108202D01*
X-127000D01*
X-128016Y-1107186D01*
X-127000Y-1106170D01*
X-128016D01*
X-129032Y-1105154D01*
X-130048Y-1106170D01*
X-131064D01*
X-130048Y-1107186D01*
X-131064Y-1108202D01*
X-130048D01*
X-129032Y-1109218D01*
X-668528Y-816102D02*
X-667512Y-815086D01*
X-666496D01*
X-667512Y-814070D01*
X-666496Y-813054D01*
X-667512D01*
X-668528Y-812038D01*
X-669544Y-813054D01*
X-670560D01*
X-669544Y-814070D01*
X-670560Y-815086D01*
X-669544D01*
X-668528Y-816102D01*
X-36068Y-839216D02*
X-35052Y-838200D01*
X-34036D01*
X-35052Y-837184D01*
X-34036Y-836168D01*
X-35052D01*
X-36068Y-835152D01*
X-37084Y-836168D01*
X-38100D01*
X-37084Y-837184D01*
X-38100Y-838200D01*
X-37084D01*
X-36068Y-839216D01*
X-209550Y-1134618D02*
X-208534Y-1133602D01*
X-207518D01*
X-208534Y-1132586D01*
X-207518Y-1131570D01*
X-208534D01*
X-209550Y-1130554D01*
X-210566Y-1131570D01*
X-211582D01*
X-210566Y-1132586D01*
X-211582Y-1133602D01*
X-210566D01*
X-209550Y-1134618D01*
X-51308Y-444246D02*
X-50292Y-443230D01*
X-49276D01*
X-50292Y-442214D01*
X-49276Y-441198D01*
X-50292D01*
X-51308Y-440182D01*
X-52324Y-441198D01*
X-53340D01*
X-52324Y-442214D01*
X-53340Y-443230D01*
X-52324D01*
X-51308Y-444246D01*
X-41656Y-444500D02*
X-40640Y-443484D01*
X-39624D01*
X-40640Y-442468D01*
X-39624Y-441452D01*
X-40640D01*
X-41656Y-440436D01*
X-42672Y-441452D01*
X-43688D01*
X-42672Y-442468D01*
X-43688Y-443484D01*
X-42672D01*
X-41656Y-444500D01*
X-29972Y-444754D02*
X-28956Y-443738D01*
X-27940D01*
X-28956Y-442722D01*
X-27940Y-441706D01*
X-28956D01*
X-29972Y-440690D01*
X-30988Y-441706D01*
X-32004D01*
X-30988Y-442722D01*
X-32004Y-443738D01*
X-30988D01*
X-29972Y-444754D01*
X-33528Y-688340D02*
X-32512Y-687324D01*
X-31496D01*
X-32512Y-686308D01*
X-31496Y-685292D01*
X-32512D01*
X-33528Y-684276D01*
X-34544Y-685292D01*
X-35560D01*
X-34544Y-686308D01*
X-35560Y-687324D01*
X-34544D01*
X-33528Y-688340D01*
X-42164D02*
X-41148Y-687324D01*
X-40132D01*
X-41148Y-686308D01*
X-40132Y-685292D01*
X-41148D01*
X-42164Y-684276D01*
X-43180Y-685292D01*
X-44196D01*
X-43180Y-686308D01*
X-44196Y-687324D01*
X-43180D01*
X-42164Y-688340D01*
X-597662Y-923036D02*
X-596646Y-922020D01*
X-595630D01*
X-596646Y-921004D01*
X-595630Y-919988D01*
X-596646D01*
X-597662Y-918972D01*
X-598678Y-919988D01*
X-599694D01*
X-598678Y-921004D01*
X-599694Y-922020D01*
X-598678D01*
X-597662Y-923036D01*
X-625094Y-922782D02*
X-624078Y-921766D01*
X-623062D01*
X-624078Y-920750D01*
X-623062Y-919734D01*
X-624078D01*
X-625094Y-918718D01*
X-626110Y-919734D01*
X-627126D01*
X-626110Y-920750D01*
X-627126Y-921766D01*
X-626110D01*
X-625094Y-922782D01*
X-192786Y-50292D02*
X-191770Y-49276D01*
X-190754D01*
X-191770Y-48260D01*
X-190754Y-47244D01*
X-191770D01*
X-192786Y-46228D01*
X-193802Y-47244D01*
X-194818D01*
X-193802Y-48260D01*
X-194818Y-49276D01*
X-193802D01*
X-192786Y-50292D01*
X-513080Y-251206D02*
X-512064Y-250190D01*
X-511048D01*
X-512064Y-249174D01*
X-511048Y-248158D01*
X-512064D01*
X-513080Y-247142D01*
X-514096Y-248158D01*
X-515112D01*
X-514096Y-249174D01*
X-515112Y-250190D01*
X-514096D01*
X-513080Y-251206D01*
X-562102Y-273812D02*
X-561086Y-272796D01*
X-560070D01*
X-561086Y-271780D01*
X-560070Y-270764D01*
X-561086D01*
X-562102Y-269748D01*
X-563118Y-270764D01*
X-564134D01*
X-563118Y-271780D01*
X-564134Y-272796D01*
X-563118D01*
X-562102Y-273812D01*
X-772922Y-728726D02*
X-771906Y-727710D01*
X-770890D01*
X-771906Y-726694D01*
X-770890Y-725678D01*
X-771906D01*
X-772922Y-724662D01*
X-773938Y-725678D01*
X-774954D01*
X-773938Y-726694D01*
X-774954Y-727710D01*
X-773938D01*
X-772922Y-728726D01*
X-516890Y-765302D02*
X-515874Y-764286D01*
X-514858D01*
X-515874Y-763270D01*
X-514858Y-762254D01*
X-515874D01*
X-516890Y-761238D01*
X-517906Y-762254D01*
X-518922D01*
X-517906Y-763270D01*
X-518922Y-764286D01*
X-517906D01*
X-516890Y-765302D01*
X-429768Y-750570D02*
X-428752Y-749554D01*
X-427736D01*
X-428752Y-748538D01*
X-427736Y-747522D01*
X-428752D01*
X-429768Y-746506D01*
X-430784Y-747522D01*
X-431800D01*
X-430784Y-748538D01*
X-431800Y-749554D01*
X-430784D01*
X-429768Y-750570D01*
X-426466Y-906526D02*
X-425450Y-905510D01*
X-424434D01*
X-425450Y-904494D01*
X-424434Y-903478D01*
X-425450D01*
X-426466Y-902462D01*
X-427482Y-903478D01*
X-428498D01*
X-427482Y-904494D01*
X-428498Y-905510D01*
X-427482D01*
X-426466Y-906526D01*
X-465836Y-889762D02*
X-464820Y-888746D01*
X-463804D01*
X-464820Y-887730D01*
X-463804Y-886714D01*
X-464820D01*
X-465836Y-885698D01*
X-466852Y-886714D01*
X-467868D01*
X-466852Y-887730D01*
X-467868Y-888746D01*
X-466852D01*
X-465836Y-889762D01*
X-507238Y-971550D02*
X-506222Y-970534D01*
X-505206D01*
X-506222Y-969518D01*
X-505206Y-968502D01*
X-506222D01*
X-507238Y-967486D01*
X-508254Y-968502D01*
X-509270D01*
X-508254Y-969518D01*
X-509270Y-970534D01*
X-508254D01*
X-507238Y-971550D01*
X-442722Y-1032256D02*
X-441706Y-1031240D01*
X-440690D01*
X-441706Y-1030224D01*
X-440690Y-1029208D01*
X-441706D01*
X-442722Y-1028192D01*
X-443738Y-1029208D01*
X-444754D01*
X-443738Y-1030224D01*
X-444754Y-1031240D01*
X-443738D01*
X-442722Y-1032256D01*
X-439166Y-976630D02*
X-438150Y-975614D01*
X-437134D01*
X-438150Y-974598D01*
X-437134Y-973582D01*
X-438150D01*
X-439166Y-972566D01*
X-440182Y-973582D01*
X-441198D01*
X-440182Y-974598D01*
X-441198Y-975614D01*
X-440182D01*
X-439166Y-976630D01*
X-507480Y-1031760D02*
X-506464Y-1030744D01*
X-505448D01*
X-506464Y-1029728D01*
X-505448Y-1028712D01*
X-506464D01*
X-507480Y-1027696D01*
X-508496Y-1028712D01*
X-509512D01*
X-508496Y-1029728D01*
X-509512Y-1030744D01*
X-508496D01*
X-507480Y-1031760D01*
X-329692Y-994410D02*
X-328676Y-993394D01*
X-327660D01*
X-328676Y-992378D01*
X-327660Y-991362D01*
X-328676D01*
X-329692Y-990346D01*
X-330708Y-991362D01*
X-331724D01*
X-330708Y-992378D01*
X-331724Y-993394D01*
X-330708D01*
X-329692Y-994410D01*
X-377444Y-936498D02*
X-376428Y-935482D01*
X-375412D01*
X-376428Y-934466D01*
X-375412Y-933450D01*
X-376428D01*
X-377444Y-932434D01*
X-378460Y-933450D01*
X-379476D01*
X-378460Y-934466D01*
X-379476Y-935482D01*
X-378460D01*
X-377444Y-936498D01*
X-377698Y-930148D02*
X-376682Y-929132D01*
X-375666D01*
X-376682Y-928116D01*
X-375666Y-927100D01*
X-376682D01*
X-377698Y-926084D01*
X-378714Y-927100D01*
X-379730D01*
X-378714Y-928116D01*
X-379730Y-929132D01*
X-378714D01*
X-377698Y-930148D01*
X-522224Y-947928D02*
X-521208Y-946912D01*
X-520192D01*
X-521208Y-945896D01*
X-520192Y-944880D01*
X-521208D01*
X-522224Y-943864D01*
X-523240Y-944880D01*
X-524256D01*
X-523240Y-945896D01*
X-524256Y-946912D01*
X-523240D01*
X-522224Y-947928D01*
X-520192Y-921766D02*
X-519176Y-920750D01*
X-518160D01*
X-519176Y-919734D01*
X-518160Y-918718D01*
X-519176D01*
X-520192Y-917702D01*
X-521208Y-918718D01*
X-522224D01*
X-521208Y-919734D01*
X-522224Y-920750D01*
X-521208D01*
X-520192Y-921766D01*
X-522732Y-915162D02*
X-521716Y-914146D01*
X-520700D01*
X-521716Y-913130D01*
X-520700Y-912114D01*
X-521716D01*
X-522732Y-911098D01*
X-523748Y-912114D01*
X-524764D01*
X-523748Y-913130D01*
X-524764Y-914146D01*
X-523748D01*
X-522732Y-915162D01*
X-529336D02*
X-528320Y-914146D01*
X-527304D01*
X-528320Y-913130D01*
X-527304Y-912114D01*
X-528320D01*
X-529336Y-911098D01*
X-530352Y-912114D01*
X-531368D01*
X-530352Y-913130D01*
X-531368Y-914146D01*
X-530352D01*
X-529336Y-915162D01*
X-262382Y-760730D02*
X-261366Y-759714D01*
X-260350D01*
X-261366Y-758698D01*
X-260350Y-757682D01*
X-261366D01*
X-262382Y-756666D01*
X-263398Y-757682D01*
X-264414D01*
X-263398Y-758698D01*
X-264414Y-759714D01*
X-263398D01*
X-262382Y-760730D01*
X-252730Y-693420D02*
X-251714Y-692404D01*
X-250698D01*
X-251714Y-691388D01*
X-250698Y-690372D01*
X-251714D01*
X-252730Y-689356D01*
X-253746Y-690372D01*
X-254762D01*
X-253746Y-691388D01*
X-254762Y-692404D01*
X-253746D01*
X-252730Y-693420D01*
X-242570Y-573786D02*
X-241554Y-572770D01*
X-240538D01*
X-241554Y-571754D01*
X-240538Y-570738D01*
X-241554D01*
X-242570Y-569722D01*
X-243586Y-570738D01*
X-244602D01*
X-243586Y-571754D01*
X-244602Y-572770D01*
X-243586D01*
X-242570Y-573786D01*
X-540512Y-506476D02*
X-539496Y-505460D01*
X-538480D01*
X-539496Y-504444D01*
X-538480Y-503428D01*
X-539496D01*
X-540512Y-502412D01*
X-541528Y-503428D01*
X-542544D01*
X-541528Y-504444D01*
X-542544Y-505460D01*
X-541528D01*
X-540512Y-506476D01*
X-244348Y-446532D02*
X-243332Y-445516D01*
X-242316D01*
X-243332Y-444500D01*
X-242316Y-443484D01*
X-243332D01*
X-244348Y-442468D01*
X-245364Y-443484D01*
X-246380D01*
X-245364Y-444500D01*
X-246380Y-445516D01*
X-245364D01*
X-244348Y-446532D01*
X-244094Y-396748D02*
X-243078Y-395732D01*
X-242062D01*
X-243078Y-394716D01*
X-242062Y-393700D01*
X-243078D01*
X-244094Y-392684D01*
X-245110Y-393700D01*
X-246126D01*
X-245110Y-394716D01*
X-246126Y-395732D01*
X-245110D01*
X-244094Y-396748D01*
Y-409448D02*
X-243078Y-408432D01*
X-242062D01*
X-243078Y-407416D01*
X-242062Y-406400D01*
X-243078D01*
X-244094Y-405384D01*
X-245110Y-406400D01*
X-246126D01*
X-245110Y-407416D01*
X-246126Y-408432D01*
X-245110D01*
X-244094Y-409448D01*
X-408940Y-246634D02*
X-407924Y-245618D01*
X-406908D01*
X-407924Y-244602D01*
X-406908Y-243586D01*
X-407924D01*
X-408940Y-242570D01*
X-409956Y-243586D01*
X-410972D01*
X-409956Y-244602D01*
X-410972Y-245618D01*
X-409956D01*
X-408940Y-246634D01*
X-511302Y-230886D02*
X-510286Y-229870D01*
X-509270D01*
X-510286Y-228854D01*
X-509270Y-227838D01*
X-510286D01*
X-511302Y-226822D01*
X-512318Y-227838D01*
X-513334D01*
X-512318Y-228854D01*
X-513334Y-229870D01*
X-512318D01*
X-511302Y-230886D01*
X-687324Y-20828D02*
X-686308Y-19812D01*
X-685292D01*
X-686308Y-18796D01*
X-685292Y-17780D01*
X-686308D01*
X-687324Y-16764D01*
X-688340Y-17780D01*
X-689356D01*
X-688340Y-18796D01*
X-689356Y-19812D01*
X-688340D01*
X-687324Y-20828D01*
X-678942D02*
X-677926Y-19812D01*
X-676910D01*
X-677926Y-18796D01*
X-676910Y-17780D01*
X-677926D01*
X-678942Y-16764D01*
X-679958Y-17780D01*
X-680974D01*
X-679958Y-18796D01*
X-680974Y-19812D01*
X-679958D01*
X-678942Y-20828D01*
X-775208Y-69850D02*
X-774192Y-68834D01*
X-773176D01*
X-774192Y-67818D01*
X-773176Y-66802D01*
X-774192D01*
X-775208Y-65786D01*
X-776224Y-66802D01*
X-777240D01*
X-776224Y-67818D01*
X-777240Y-68834D01*
X-776224D01*
X-775208Y-69850D01*
X-692404Y-112268D02*
X-691388Y-111252D01*
X-690372D01*
X-691388Y-110236D01*
X-690372Y-109220D01*
X-691388D01*
X-692404Y-108204D01*
X-693420Y-109220D01*
X-694436D01*
X-693420Y-110236D01*
X-694436Y-111252D01*
X-693420D01*
X-692404Y-112268D01*
X-527050Y-98552D02*
X-526034Y-97536D01*
X-525018D01*
X-526034Y-96520D01*
X-525018Y-95504D01*
X-526034D01*
X-527050Y-94488D01*
X-528066Y-95504D01*
X-529082D01*
X-528066Y-96520D01*
X-529082Y-97536D01*
X-528066D01*
X-527050Y-98552D01*
X-192786Y-42164D02*
X-191770Y-41148D01*
X-190754D01*
X-191770Y-40132D01*
X-190754Y-39116D01*
X-191770D01*
X-192786Y-38100D01*
X-193802Y-39116D01*
X-194818D01*
X-193802Y-40132D01*
X-194818Y-41148D01*
X-193802D01*
X-192786Y-42164D01*
X-224282Y-105156D02*
X-223266Y-104140D01*
X-222250D01*
X-223266Y-103124D01*
X-222250Y-102108D01*
X-223266D01*
X-224282Y-101092D01*
X-225298Y-102108D01*
X-226314D01*
X-225298Y-103124D01*
X-226314Y-104140D01*
X-225298D01*
X-224282Y-105156D01*
X-232156Y-105410D02*
X-231140Y-104394D01*
X-230124D01*
X-231140Y-103378D01*
X-230124Y-102362D01*
X-231140D01*
X-232156Y-101346D01*
X-233172Y-102362D01*
X-234188D01*
X-233172Y-103378D01*
X-234188Y-104394D01*
X-233172D01*
X-232156Y-105410D01*
X-452628Y-36830D02*
X-451612Y-35814D01*
X-450596D01*
X-451612Y-34798D01*
X-450596Y-33782D01*
X-451612D01*
X-452628Y-32766D01*
X-453644Y-33782D01*
X-454660D01*
X-453644Y-34798D01*
X-454660Y-35814D01*
X-453644D01*
X-452628Y-36830D01*
X-460756D02*
X-459740Y-35814D01*
X-458724D01*
X-459740Y-34798D01*
X-458724Y-33782D01*
X-459740D01*
X-460756Y-32766D01*
X-461772Y-33782D01*
X-462788D01*
X-461772Y-34798D01*
X-462788Y-35814D01*
X-461772D01*
X-460756Y-36830D01*
X-441706Y-109220D02*
X-440690Y-108204D01*
X-439674D01*
X-440690Y-107188D01*
X-439674Y-106172D01*
X-440690D01*
X-441706Y-105156D01*
X-442722Y-106172D01*
X-443738D01*
X-442722Y-107188D01*
X-443738Y-108204D01*
X-442722D01*
X-441706Y-109220D01*
X-504698Y-40386D02*
X-503682Y-39370D01*
X-502666D01*
X-503682Y-38354D01*
X-502666Y-37338D01*
X-503682D01*
X-504698Y-36322D01*
X-505714Y-37338D01*
X-506730D01*
X-505714Y-38354D01*
X-506730Y-39370D01*
X-505714D01*
X-504698Y-40386D01*
Y-33274D02*
X-503682Y-32258D01*
X-502666D01*
X-503682Y-31242D01*
X-502666Y-30226D01*
X-503682D01*
X-504698Y-29210D01*
X-505714Y-30226D01*
X-506730D01*
X-505714Y-31242D01*
X-506730Y-32258D01*
X-505714D01*
X-504698Y-33274D01*
X-441706Y-117094D02*
X-440690Y-116078D01*
X-439674D01*
X-440690Y-115062D01*
X-439674Y-114046D01*
X-440690D01*
X-441706Y-113030D01*
X-442722Y-114046D01*
X-443738D01*
X-442722Y-115062D01*
X-443738Y-116078D01*
X-442722D01*
X-441706Y-117094D01*
X-531876Y-120904D02*
X-530860Y-119888D01*
X-529844D01*
X-530860Y-118872D01*
X-529844Y-117856D01*
X-530860D01*
X-531876Y-116840D01*
X-532892Y-117856D01*
X-533908D01*
X-532892Y-118872D01*
X-533908Y-119888D01*
X-532892D01*
X-531876Y-120904D01*
X-538734Y-120650D02*
X-537718Y-119634D01*
X-536702D01*
X-537718Y-118618D01*
X-536702Y-117602D01*
X-537718D01*
X-538734Y-116586D01*
X-539750Y-117602D01*
X-540766D01*
X-539750Y-118618D01*
X-540766Y-119634D01*
X-539750D01*
X-538734Y-120650D01*
X-545338Y-120904D02*
X-544322Y-119888D01*
X-543306D01*
X-544322Y-118872D01*
X-543306Y-117856D01*
X-544322D01*
X-545338Y-116840D01*
X-546354Y-117856D01*
X-547370D01*
X-546354Y-118872D01*
X-547370Y-119888D01*
X-546354D01*
X-545338Y-120904D01*
X-485648Y-673100D02*
X-484632Y-672084D01*
X-483616D01*
X-484632Y-671068D01*
X-483616Y-670052D01*
X-484632D01*
X-485648Y-669036D01*
X-486664Y-670052D01*
X-487680D01*
X-486664Y-671068D01*
X-487680Y-672084D01*
X-486664D01*
X-485648Y-673100D01*
X-690118Y-394970D02*
X-689102Y-393954D01*
X-688086D01*
X-689102Y-392938D01*
X-688086Y-391922D01*
X-689102D01*
X-690118Y-390906D01*
X-691134Y-391922D01*
X-692150D01*
X-691134Y-392938D01*
X-692150Y-393954D01*
X-691134D01*
X-690118Y-394970D01*
X-684022D02*
X-683006Y-393954D01*
X-681990D01*
X-683006Y-392938D01*
X-681990Y-391922D01*
X-683006D01*
X-684022Y-390906D01*
X-685038Y-391922D01*
X-686054D01*
X-685038Y-392938D01*
X-686054Y-393954D01*
X-685038D01*
X-684022Y-394970D01*
X-760222Y-384302D02*
X-759206Y-383286D01*
X-758190D01*
X-759206Y-382270D01*
X-758190Y-381254D01*
X-759206D01*
X-760222Y-380238D01*
X-761238Y-381254D01*
X-762254D01*
X-761238Y-382270D01*
X-762254Y-383286D01*
X-761238D01*
X-760222Y-384302D01*
X-750316D02*
X-749300Y-383286D01*
X-748284D01*
X-749300Y-382270D01*
X-748284Y-381254D01*
X-749300D01*
X-750316Y-380238D01*
X-751332Y-381254D01*
X-752348D01*
X-751332Y-382270D01*
X-752348Y-383286D01*
X-751332D01*
X-750316Y-384302D01*
X-740918D02*
X-739902Y-383286D01*
X-738886D01*
X-739902Y-382270D01*
X-738886Y-381254D01*
X-739902D01*
X-740918Y-380238D01*
X-741934Y-381254D01*
X-742950D01*
X-741934Y-382270D01*
X-742950Y-383286D01*
X-741934D01*
X-740918Y-384302D01*
X-731266Y-722630D02*
X-730250Y-721614D01*
X-729234D01*
X-730250Y-720598D01*
X-729234Y-719582D01*
X-730250D01*
X-731266Y-718566D01*
X-732282Y-719582D01*
X-733298D01*
X-732282Y-720598D01*
X-733298Y-721614D01*
X-732282D01*
X-731266Y-722630D01*
X-521462Y-852932D02*
X-520446Y-851916D01*
X-519430D01*
X-520446Y-850900D01*
X-519430Y-849884D01*
X-520446D01*
X-521462Y-848868D01*
X-522478Y-849884D01*
X-523494D01*
X-522478Y-850900D01*
X-523494Y-851916D01*
X-522478D01*
X-521462Y-852932D01*
X-528828D02*
X-527812Y-851916D01*
X-526796D01*
X-527812Y-850900D01*
X-526796Y-849884D01*
X-527812D01*
X-528828Y-848868D01*
X-529844Y-849884D01*
X-530860D01*
X-529844Y-850900D01*
X-530860Y-851916D01*
X-529844D01*
X-528828Y-852932D01*
X-521462Y-845312D02*
X-520446Y-844296D01*
X-519430D01*
X-520446Y-843280D01*
X-519430Y-842264D01*
X-520446D01*
X-521462Y-841248D01*
X-522478Y-842264D01*
X-523494D01*
X-522478Y-843280D01*
X-523494Y-844296D01*
X-522478D01*
X-521462Y-845312D01*
X-528828D02*
X-527812Y-844296D01*
X-526796D01*
X-527812Y-843280D01*
X-526796Y-842264D01*
X-527812D01*
X-528828Y-841248D01*
X-529844Y-842264D01*
X-530860D01*
X-529844Y-843280D01*
X-530860Y-844296D01*
X-529844D01*
X-528828Y-845312D01*
X-342392Y-338328D02*
X-341376Y-337312D01*
X-340360D01*
X-341376Y-336296D01*
X-340360Y-335280D01*
X-341376D01*
X-342392Y-334264D01*
X-343408Y-335280D01*
X-344424D01*
X-343408Y-336296D01*
X-344424Y-337312D01*
X-343408D01*
X-342392Y-338328D01*
X-220218Y-341122D02*
X-219202Y-340106D01*
X-218186D01*
X-219202Y-339090D01*
X-218186Y-338074D01*
X-219202D01*
X-220218Y-337058D01*
X-221234Y-338074D01*
X-222250D01*
X-221234Y-339090D01*
X-222250Y-340106D01*
X-221234D01*
X-220218Y-341122D01*
X-278638Y-338074D02*
X-277622Y-337058D01*
X-276606D01*
X-277622Y-336042D01*
X-276606Y-335026D01*
X-277622D01*
X-278638Y-334010D01*
X-279654Y-335026D01*
X-280670D01*
X-279654Y-336042D01*
X-280670Y-337058D01*
X-279654D01*
X-278638Y-338074D01*
X-513080Y-259080D02*
X-512064Y-258064D01*
X-511048D01*
X-512064Y-257048D01*
X-511048Y-256032D01*
X-512064D01*
X-513080Y-255016D01*
X-514096Y-256032D01*
X-515112D01*
X-514096Y-257048D01*
X-515112Y-258064D01*
X-514096D01*
X-513080Y-259080D01*
X-511810Y-293116D02*
X-510794Y-292100D01*
X-509778D01*
X-510794Y-291084D01*
X-509778Y-290068D01*
X-510794D01*
X-511810Y-289052D01*
X-512826Y-290068D01*
X-513842D01*
X-512826Y-291084D01*
X-513842Y-292100D01*
X-512826D01*
X-511810Y-293116D01*
X-515620Y-754634D02*
X-514604Y-753618D01*
X-513588D01*
X-514604Y-752602D01*
X-513588Y-751586D01*
X-514604D01*
X-515620Y-750570D01*
X-516636Y-751586D01*
X-517652D01*
X-516636Y-752602D01*
X-517652Y-753618D01*
X-516636D01*
X-515620Y-754634D01*
X-517144Y-804418D02*
X-516128Y-803402D01*
X-515112D01*
X-516128Y-802386D01*
X-515112Y-801370D01*
X-516128D01*
X-517144Y-800354D01*
X-518160Y-801370D01*
X-519176D01*
X-518160Y-802386D01*
X-519176Y-803402D01*
X-518160D01*
X-517144Y-804418D01*
X-516636Y-810768D02*
X-515620Y-809752D01*
X-514604D01*
X-515620Y-808736D01*
X-514604Y-807720D01*
X-515620D01*
X-516636Y-806704D01*
X-517652Y-807720D01*
X-518668D01*
X-517652Y-808736D01*
X-518668Y-809752D01*
X-517652D01*
X-516636Y-810768D01*
X-501650Y-676656D02*
X-500634Y-675640D01*
X-499618D01*
X-500634Y-674624D01*
X-499618Y-673608D01*
X-500634D01*
X-501650Y-672592D01*
X-502666Y-673608D01*
X-503682D01*
X-502666Y-674624D01*
X-503682Y-675640D01*
X-502666D01*
X-501650Y-676656D01*
X-777494Y-833374D02*
X-776478Y-832358D01*
X-775462D01*
X-776478Y-831342D01*
X-775462Y-830326D01*
X-776478D01*
X-777494Y-829310D01*
X-778510Y-830326D01*
X-779526D01*
X-778510Y-831342D01*
X-779526Y-832358D01*
X-778510D01*
X-777494Y-833374D01*
Y-827278D02*
X-776478Y-826262D01*
X-775462D01*
X-776478Y-825246D01*
X-775462Y-824230D01*
X-776478D01*
X-777494Y-823214D01*
X-778510Y-824230D01*
X-779526D01*
X-778510Y-825246D01*
X-779526Y-826262D01*
X-778510D01*
X-777494Y-827278D01*
X-513080Y-631952D02*
X-512064Y-630936D01*
X-511048D01*
X-512064Y-629920D01*
X-511048Y-628904D01*
X-512064D01*
X-513080Y-627888D01*
X-514096Y-628904D01*
X-515112D01*
X-514096Y-629920D01*
X-515112Y-630936D01*
X-514096D01*
X-513080Y-631952D01*
X-558800Y-604066D02*
X-557784Y-603050D01*
X-556768D01*
X-557784Y-602034D01*
X-556768Y-601018D01*
X-557784D01*
X-558800Y-600002D01*
X-559816Y-601018D01*
X-560832D01*
X-559816Y-602034D01*
X-560832Y-603050D01*
X-559816D01*
X-558800Y-604066D01*
Y-594160D02*
X-557784Y-593144D01*
X-556768D01*
X-557784Y-592128D01*
X-556768Y-591112D01*
X-557784D01*
X-558800Y-590096D01*
X-559816Y-591112D01*
X-560832D01*
X-559816Y-592128D01*
X-560832Y-593144D01*
X-559816D01*
X-558800Y-594160D01*
X-656844Y-472186D02*
X-655828Y-471170D01*
X-654812D01*
X-655828Y-470154D01*
X-654812Y-469138D01*
X-655828D01*
X-656844Y-468122D01*
X-657860Y-469138D01*
X-658876D01*
X-657860Y-470154D01*
X-658876Y-471170D01*
X-657860D01*
X-656844Y-472186D01*
X-661924Y-641604D02*
X-660908Y-640588D01*
X-659892D01*
X-660908Y-639572D01*
X-659892Y-638556D01*
X-660908D01*
X-661924Y-637540D01*
X-662940Y-638556D01*
X-663956D01*
X-662940Y-639572D01*
X-663956Y-640588D01*
X-662940D01*
X-661924Y-641604D01*
X-661670Y-634492D02*
X-660654Y-633476D01*
X-659638D01*
X-660654Y-632460D01*
X-659638Y-631444D01*
X-660654D01*
X-661670Y-630428D01*
X-662686Y-631444D01*
X-663702D01*
X-662686Y-632460D01*
X-663702Y-633476D01*
X-662686D01*
X-661670Y-634492D01*
Y-627634D02*
X-660654Y-626618D01*
X-659638D01*
X-660654Y-625602D01*
X-659638Y-624586D01*
X-660654D01*
X-661670Y-623570D01*
X-662686Y-624586D01*
X-663702D01*
X-662686Y-625602D01*
X-663702Y-626618D01*
X-662686D01*
X-661670Y-627634D01*
X-660400Y-760984D02*
X-659384Y-759968D01*
X-658368D01*
X-659384Y-758952D01*
X-658368Y-757936D01*
X-659384D01*
X-660400Y-756920D01*
X-661416Y-757936D01*
X-662432D01*
X-661416Y-758952D01*
X-662432Y-759968D01*
X-661416D01*
X-660400Y-760984D01*
X-660146Y-754634D02*
X-659130Y-753618D01*
X-658114D01*
X-659130Y-752602D01*
X-658114Y-751586D01*
X-659130D01*
X-660146Y-750570D01*
X-661162Y-751586D01*
X-662178D01*
X-661162Y-752602D01*
X-662178Y-753618D01*
X-661162D01*
X-660146Y-754634D01*
X-557022Y-741934D02*
X-556006Y-740918D01*
X-554990D01*
X-556006Y-739902D01*
X-554990Y-738886D01*
X-556006D01*
X-557022Y-737870D01*
X-558038Y-738886D01*
X-559054D01*
X-558038Y-739902D01*
X-559054Y-740918D01*
X-558038D01*
X-557022Y-741934D01*
Y-748284D02*
X-556006Y-747268D01*
X-554990D01*
X-556006Y-746252D01*
X-554990Y-745236D01*
X-556006D01*
X-557022Y-744220D01*
X-558038Y-745236D01*
X-559054D01*
X-558038Y-746252D01*
X-559054Y-747268D01*
X-558038D01*
X-557022Y-748284D01*
X-613410Y-561086D02*
X-612394Y-560070D01*
X-611378D01*
X-612394Y-559054D01*
X-611378Y-558038D01*
X-612394D01*
X-613410Y-557022D01*
X-614426Y-558038D01*
X-615442D01*
X-614426Y-559054D01*
X-615442Y-560070D01*
X-614426D01*
X-613410Y-561086D01*
X-613664Y-534162D02*
X-612648Y-533146D01*
X-611632D01*
X-612648Y-532130D01*
X-611632Y-531114D01*
X-612648D01*
X-613664Y-530098D01*
X-614680Y-531114D01*
X-615696D01*
X-614680Y-532130D01*
X-615696Y-533146D01*
X-614680D01*
X-613664Y-534162D01*
Y-543306D02*
X-612648Y-542290D01*
X-611632D01*
X-612648Y-541274D01*
X-611632Y-540258D01*
X-612648D01*
X-613664Y-539242D01*
X-614680Y-540258D01*
X-615696D01*
X-614680Y-541274D01*
X-615696Y-542290D01*
X-614680D01*
X-613664Y-543306D01*
X-613410Y-552196D02*
X-612394Y-551180D01*
X-611378D01*
X-612394Y-550164D01*
X-611378Y-549148D01*
X-612394D01*
X-613410Y-548132D01*
X-614426Y-549148D01*
X-615442D01*
X-614426Y-550164D01*
X-615442Y-551180D01*
X-614426D01*
X-613410Y-552196D01*
X-650748Y-1110742D02*
X-649732Y-1109726D01*
X-648716D01*
X-649732Y-1108710D01*
X-648716Y-1107694D01*
X-649732D01*
X-650748Y-1106678D01*
X-651764Y-1107694D01*
X-652780D01*
X-651764Y-1108710D01*
X-652780Y-1109726D01*
X-651764D01*
X-650748Y-1110742D01*
X-658114Y-1110488D02*
X-657098Y-1109472D01*
X-656082D01*
X-657098Y-1108456D01*
X-656082Y-1107440D01*
X-657098D01*
X-658114Y-1106424D01*
X-659130Y-1107440D01*
X-660146D01*
X-659130Y-1108456D01*
X-660146Y-1109472D01*
X-659130D01*
X-658114Y-1110488D01*
X-647954Y-1102868D02*
X-646938Y-1101852D01*
X-645922D01*
X-646938Y-1100836D01*
X-645922Y-1099820D01*
X-646938D01*
X-647954Y-1098804D01*
X-648970Y-1099820D01*
X-649986D01*
X-648970Y-1100836D01*
X-649986Y-1101852D01*
X-648970D01*
X-647954Y-1102868D01*
X-654304Y-1102360D02*
X-653288Y-1101344D01*
X-652272D01*
X-653288Y-1100328D01*
X-652272Y-1099312D01*
X-653288D01*
X-654304Y-1098296D01*
X-655320Y-1099312D01*
X-656336D01*
X-655320Y-1100328D01*
X-656336Y-1101344D01*
X-655320D01*
X-654304Y-1102360D01*
X-661416Y-1101852D02*
X-660400Y-1100836D01*
X-659384D01*
X-660400Y-1099820D01*
X-659384Y-1098804D01*
X-660400D01*
X-661416Y-1097788D01*
X-662432Y-1098804D01*
X-663448D01*
X-662432Y-1099820D01*
X-663448Y-1100836D01*
X-662432D01*
X-661416Y-1101852D01*
X-353060Y-236728D02*
X-352044Y-235712D01*
X-351028D01*
X-352044Y-234696D01*
X-351028Y-233680D01*
X-352044D01*
X-353060Y-232664D01*
X-354076Y-233680D01*
X-355092D01*
X-354076Y-234696D01*
X-355092Y-235712D01*
X-354076D01*
X-353060Y-236728D01*
X-195326Y-200406D02*
X-194310Y-199390D01*
X-193294D01*
X-194310Y-198374D01*
X-193294Y-197358D01*
X-194310D01*
X-195326Y-196342D01*
X-196342Y-197358D01*
X-197358D01*
X-196342Y-198374D01*
X-197358Y-199390D01*
X-196342D01*
X-195326Y-200406D01*
X-199644Y-195326D02*
X-198628Y-194310D01*
X-197612D01*
X-198628Y-193294D01*
X-197612Y-192278D01*
X-198628D01*
X-199644Y-191262D01*
X-200660Y-192278D01*
X-201676D01*
X-200660Y-193294D01*
X-201676Y-194310D01*
X-200660D01*
X-199644Y-195326D01*
X-255016Y-240030D02*
X-254000Y-239014D01*
X-252984D01*
X-254000Y-237998D01*
X-252984Y-236982D01*
X-254000D01*
X-255016Y-235966D01*
X-256032Y-236982D01*
X-257048D01*
X-256032Y-237998D01*
X-257048Y-239014D01*
X-256032D01*
X-255016Y-240030D01*
Y-233172D02*
X-254000Y-232156D01*
X-252984D01*
X-254000Y-231140D01*
X-252984Y-230124D01*
X-254000D01*
X-255016Y-229108D01*
X-256032Y-230124D01*
X-257048D01*
X-256032Y-231140D01*
X-257048Y-232156D01*
X-256032D01*
X-255016Y-233172D01*
X-311150Y-241554D02*
X-310134Y-240538D01*
X-309118D01*
X-310134Y-239522D01*
X-309118Y-238506D01*
X-310134D01*
X-311150Y-237490D01*
X-312166Y-238506D01*
X-313182D01*
X-312166Y-239522D01*
X-313182Y-240538D01*
X-312166D01*
X-311150Y-241554D01*
Y-234442D02*
X-310134Y-233426D01*
X-309118D01*
X-310134Y-232410D01*
X-309118Y-231394D01*
X-310134D01*
X-311150Y-230378D01*
X-312166Y-231394D01*
X-313182D01*
X-312166Y-232410D01*
X-313182Y-233426D01*
X-312166D01*
X-311150Y-234442D01*
X-308864Y-193802D02*
X-307848Y-192786D01*
X-306832D01*
X-307848Y-191770D01*
X-306832Y-190754D01*
X-307848D01*
X-308864Y-189738D01*
X-309880Y-190754D01*
X-310896D01*
X-309880Y-191770D01*
X-310896Y-192786D01*
X-309880D01*
X-308864Y-193802D01*
X-387350Y-413258D02*
X-386334Y-412242D01*
X-385318D01*
X-386334Y-411226D01*
X-385318Y-410210D01*
X-386334D01*
X-387350Y-409194D01*
X-388366Y-410210D01*
X-389382D01*
X-388366Y-411226D01*
X-389382Y-412242D01*
X-388366D01*
X-387350Y-413258D01*
X-395224Y-252730D02*
X-394208Y-251714D01*
X-393192D01*
X-394208Y-250698D01*
X-393192Y-249682D01*
X-394208D01*
X-395224Y-248666D01*
X-396240Y-249682D01*
X-397256D01*
X-396240Y-250698D01*
X-397256Y-251714D01*
X-396240D01*
X-395224Y-252730D01*
X-379730Y-253746D02*
X-378714Y-252730D01*
X-377698D01*
X-378714Y-251714D01*
X-377698Y-250698D01*
X-378714D01*
X-379730Y-249682D01*
X-380746Y-250698D01*
X-381762D01*
X-380746Y-251714D01*
X-381762Y-252730D01*
X-380746D01*
X-379730Y-253746D01*
X-325374Y-472440D02*
X-324358Y-471424D01*
X-323342D01*
X-324358Y-470408D01*
X-323342Y-469392D01*
X-324358D01*
X-325374Y-468376D01*
X-326390Y-469392D01*
X-327406D01*
X-326390Y-470408D01*
X-327406Y-471424D01*
X-326390D01*
X-325374Y-472440D01*
X-315214Y-472694D02*
X-314198Y-471678D01*
X-313182D01*
X-314198Y-470662D01*
X-313182Y-469646D01*
X-314198D01*
X-315214Y-468630D01*
X-316230Y-469646D01*
X-317246D01*
X-316230Y-470662D01*
X-317246Y-471678D01*
X-316230D01*
X-315214Y-472694D01*
X-24892Y-810514D02*
X-23876Y-809498D01*
X-22860D01*
X-23876Y-808482D01*
X-22860Y-807466D01*
X-23876D01*
X-24892Y-806450D01*
X-25908Y-807466D01*
X-26924D01*
X-25908Y-808482D01*
X-26924Y-809498D01*
X-25908D01*
X-24892Y-810514D01*
X-33274Y-810260D02*
X-32258Y-809244D01*
X-31242D01*
X-32258Y-808228D01*
X-31242Y-807212D01*
X-32258D01*
X-33274Y-806196D01*
X-34290Y-807212D01*
X-35306D01*
X-34290Y-808228D01*
X-35306Y-809244D01*
X-34290D01*
X-33274Y-810260D01*
X-86614Y-811530D02*
X-85598Y-810514D01*
X-84582D01*
X-85598Y-809498D01*
X-84582Y-808482D01*
X-85598D01*
X-86614Y-807466D01*
X-87630Y-808482D01*
X-88646D01*
X-87630Y-809498D01*
X-88646Y-810514D01*
X-87630D01*
X-86614Y-811530D01*
X-94234D02*
X-93218Y-810514D01*
X-92202D01*
X-93218Y-809498D01*
X-92202Y-808482D01*
X-93218D01*
X-94234Y-807466D01*
X-95250Y-808482D01*
X-96266D01*
X-95250Y-809498D01*
X-96266Y-810514D01*
X-95250D01*
X-94234Y-811530D01*
X-167132Y-352044D02*
X-166116Y-351028D01*
X-165100D01*
X-166116Y-350012D01*
X-165100Y-348996D01*
X-166116D01*
X-167132Y-347980D01*
X-168148Y-348996D01*
X-169164D01*
X-168148Y-350012D01*
X-169164Y-351028D01*
X-168148D01*
X-167132Y-352044D01*
X-172720Y-346710D02*
X-171704Y-345694D01*
X-170688D01*
X-171704Y-344678D01*
X-170688Y-343662D01*
X-171704D01*
X-172720Y-342646D01*
X-173736Y-343662D01*
X-174752D01*
X-173736Y-344678D01*
X-174752Y-345694D01*
X-173736D01*
X-172720Y-346710D01*
X-178054Y-341884D02*
X-177038Y-340868D01*
X-176022D01*
X-177038Y-339852D01*
X-176022Y-338836D01*
X-177038D01*
X-178054Y-337820D01*
X-179070Y-338836D01*
X-180086D01*
X-179070Y-339852D01*
X-180086Y-340868D01*
X-179070D01*
X-178054Y-341884D01*
X-128778Y-417322D02*
X-127762Y-416306D01*
X-126746D01*
X-127762Y-415290D01*
X-126746Y-414274D01*
X-127762D01*
X-128778Y-413258D01*
X-129794Y-414274D01*
X-130810D01*
X-129794Y-415290D01*
X-130810Y-416306D01*
X-129794D01*
X-128778Y-417322D01*
X-134874D02*
X-133858Y-416306D01*
X-132842D01*
X-133858Y-415290D01*
X-132842Y-414274D01*
X-133858D01*
X-134874Y-413258D01*
X-135890Y-414274D01*
X-136906D01*
X-135890Y-415290D01*
X-136906Y-416306D01*
X-135890D01*
X-134874Y-417322D01*
X-302514Y-779526D02*
X-301498Y-778510D01*
X-300482D01*
X-301498Y-777494D01*
X-300482Y-776478D01*
X-301498D01*
X-302514Y-775462D01*
X-303530Y-776478D01*
X-304546D01*
X-303530Y-777494D01*
X-304546Y-778510D01*
X-303530D01*
X-302514Y-779526D01*
X-159004Y-727456D02*
X-157988Y-726440D01*
X-156972D01*
X-157988Y-725424D01*
X-156972Y-724408D01*
X-157988D01*
X-159004Y-723392D01*
X-160020Y-724408D01*
X-161036D01*
X-160020Y-725424D01*
X-161036Y-726440D01*
X-160020D01*
X-159004Y-727456D01*
X-159014Y-735076D02*
X-157998Y-734060D01*
X-156982D01*
X-157998Y-733044D01*
X-156982Y-732028D01*
X-157998D01*
X-159014Y-731012D01*
X-160030Y-732028D01*
X-161046D01*
X-160030Y-733044D01*
X-161046Y-734060D01*
X-160030D01*
X-159014Y-735076D01*
X-811022Y-462788D02*
X-810006Y-461772D01*
X-808990D01*
X-810006Y-460756D01*
X-808990Y-459740D01*
X-810006D01*
X-811022Y-458724D01*
X-812038Y-459740D01*
X-813054D01*
X-812038Y-460756D01*
X-813054Y-461772D01*
X-812038D01*
X-811022Y-462788D01*
X-810768Y-455676D02*
X-809752Y-454660D01*
X-808736D01*
X-809752Y-453644D01*
X-808736Y-452628D01*
X-809752D01*
X-810768Y-451612D01*
X-811784Y-452628D01*
X-812800D01*
X-811784Y-453644D01*
X-812800Y-454660D01*
X-811784D01*
X-810768Y-455676D01*
X-116332Y-632460D02*
X-115316Y-631444D01*
X-114300D01*
X-115316Y-630428D01*
X-114300Y-629412D01*
X-115316D01*
X-116332Y-628396D01*
X-117348Y-629412D01*
X-118364D01*
X-117348Y-630428D01*
X-118364Y-631444D01*
X-117348D01*
X-116332Y-632460D01*
X-108458D02*
X-107442Y-631444D01*
X-106426D01*
X-107442Y-630428D01*
X-106426Y-629412D01*
X-107442D01*
X-108458Y-628396D01*
X-109474Y-629412D01*
X-110490D01*
X-109474Y-630428D01*
X-110490Y-631444D01*
X-109474D01*
X-108458Y-632460D01*
X-328178Y-734822D02*
X-327162Y-733806D01*
X-326146D01*
X-327162Y-732790D01*
X-326146Y-731774D01*
X-327162D01*
X-328178Y-730758D01*
X-329194Y-731774D01*
X-330210D01*
X-329194Y-732790D01*
X-330210Y-733806D01*
X-329194D01*
X-328178Y-734822D01*
X-115824Y-618490D02*
X-114808Y-617474D01*
X-113792D01*
X-114808Y-616458D01*
X-113792Y-615442D01*
X-114808D01*
X-115824Y-614426D01*
X-116840Y-615442D01*
X-117856D01*
X-116840Y-616458D01*
X-117856Y-617474D01*
X-116840D01*
X-115824Y-618490D01*
X-437388Y-97536D02*
X-436372Y-96520D01*
X-435356D01*
X-436372Y-95504D01*
X-435356Y-94488D01*
X-436372D01*
X-437388Y-93472D01*
X-438404Y-94488D01*
X-439420D01*
X-438404Y-95504D01*
X-439420Y-96520D01*
X-438404D01*
X-437388Y-97536D01*
X-497586Y-931926D02*
X-496570Y-930910D01*
X-495554D01*
X-496570Y-929894D01*
X-495554Y-928878D01*
X-496570D01*
X-497586Y-927862D01*
X-498602Y-928878D01*
X-499618D01*
X-498602Y-929894D01*
X-499618Y-930910D01*
X-498602D01*
X-497586Y-931926D01*
X-440182Y-36576D02*
X-439166Y-35560D01*
X-438150D01*
X-439166Y-34544D01*
X-438150Y-33528D01*
X-439166D01*
X-440182Y-32512D01*
X-441198Y-33528D01*
X-442214D01*
X-441198Y-34544D01*
X-442214Y-35560D01*
X-441198D01*
X-440182Y-36576D01*
X-507238Y-931164D02*
X-506222Y-930148D01*
X-505206D01*
X-506222Y-929132D01*
X-505206Y-928116D01*
X-506222D01*
X-507238Y-927100D01*
X-508254Y-928116D01*
X-509270D01*
X-508254Y-929132D01*
X-509270Y-930148D01*
X-508254D01*
X-507238Y-931164D01*
X-99060Y-525526D02*
X-98044Y-524510D01*
X-97028D01*
X-98044Y-523494D01*
X-97028Y-522478D01*
X-98044D01*
X-99060Y-521462D01*
X-100076Y-522478D01*
X-101092D01*
X-100076Y-523494D01*
X-101092Y-524510D01*
X-100076D01*
X-99060Y-525526D01*
X-44450Y-487426D02*
X-43434Y-486410D01*
X-42418D01*
X-43434Y-485394D01*
X-42418Y-484378D01*
X-43434D01*
X-44450Y-483362D01*
X-45466Y-484378D01*
X-46482D01*
X-45466Y-485394D01*
X-46482Y-486410D01*
X-45466D01*
X-44450Y-487426D01*
X-323342Y-510794D02*
X-322326Y-509778D01*
X-321310D01*
X-322326Y-508762D01*
X-321310Y-507746D01*
X-322326D01*
X-323342Y-506730D01*
X-324358Y-507746D01*
X-325374D01*
X-324358Y-508762D01*
X-325374Y-509778D01*
X-324358D01*
X-323342Y-510794D01*
X-44450Y-479806D02*
X-43434Y-478790D01*
X-42418D01*
X-43434Y-477774D01*
X-42418Y-476758D01*
X-43434D01*
X-44450Y-475742D01*
X-45466Y-476758D01*
X-46482D01*
X-45466Y-477774D01*
X-46482Y-478790D01*
X-45466D01*
X-44450Y-479806D01*
X-323596Y-518668D02*
X-322580Y-517652D01*
X-321564D01*
X-322580Y-516636D01*
X-321564Y-515620D01*
X-322580D01*
X-323596Y-514604D01*
X-324612Y-515620D01*
X-325628D01*
X-324612Y-516636D01*
X-325628Y-517652D01*
X-324612D01*
X-323596Y-518668D01*
X-247142Y-499618D02*
X-246126Y-498602D01*
X-245110D01*
X-246126Y-497586D01*
X-245110Y-496570D01*
X-246126D01*
X-247142Y-495554D01*
X-248158Y-496570D01*
X-249174D01*
X-248158Y-497586D01*
X-249174Y-498602D01*
X-248158D01*
X-247142Y-499618D01*
Y-506476D02*
X-246126Y-505460D01*
X-245110D01*
X-246126Y-504444D01*
X-245110Y-503428D01*
X-246126D01*
X-247142Y-502412D01*
X-248158Y-503428D01*
X-249174D01*
X-248158Y-504444D01*
X-249174Y-505460D01*
X-248158D01*
X-247142Y-506476D01*
X-328168Y-573786D02*
X-327152Y-572770D01*
X-326136D01*
X-327152Y-571754D01*
X-326136Y-570738D01*
X-327152D01*
X-328168Y-569722D01*
X-329184Y-570738D01*
X-330200D01*
X-329184Y-571754D01*
X-330200Y-572770D01*
X-329184D01*
X-328168Y-573786D01*
X-319786Y-573278D02*
X-318770Y-572262D01*
X-317754D01*
X-318770Y-571246D01*
X-317754Y-570230D01*
X-318770D01*
X-319786Y-569214D01*
X-320802Y-570230D01*
X-321818D01*
X-320802Y-571246D01*
X-321818Y-572262D01*
X-320802D01*
X-319786Y-573278D01*
X-335788Y-524510D02*
X-334772Y-523494D01*
X-333756D01*
X-334772Y-522478D01*
X-333756Y-521462D01*
X-334772D01*
X-335788Y-520446D01*
X-336804Y-521462D01*
X-337820D01*
X-336804Y-522478D01*
X-337820Y-523494D01*
X-336804D01*
X-335788Y-524510D01*
X-315214Y-527558D02*
X-314198Y-526542D01*
X-313182D01*
X-314198Y-525526D01*
X-313182Y-524510D01*
X-314198D01*
X-315214Y-523494D01*
X-316230Y-524510D01*
X-317246D01*
X-316230Y-525526D01*
X-317246Y-526542D01*
X-316230D01*
X-315214Y-527558D01*
X-308102Y-763270D02*
X-307086Y-762254D01*
X-306070D01*
X-307086Y-761238D01*
X-306070Y-760222D01*
X-307086D01*
X-308102Y-759206D01*
X-309118Y-760222D01*
X-310134D01*
X-309118Y-761238D01*
X-310134Y-762254D01*
X-309118D01*
X-308102Y-763270D01*
X-315214Y-763016D02*
X-314198Y-762000D01*
X-313182D01*
X-314198Y-760984D01*
X-313182Y-759968D01*
X-314198D01*
X-315214Y-758952D01*
X-316230Y-759968D01*
X-317246D01*
X-316230Y-760984D01*
X-317246Y-762000D01*
X-316230D01*
X-315214Y-763016D01*
X-308102Y-755904D02*
X-307086Y-754888D01*
X-306070D01*
X-307086Y-753872D01*
X-306070Y-752856D01*
X-307086D01*
X-308102Y-751840D01*
X-309118Y-752856D01*
X-310134D01*
X-309118Y-753872D01*
X-310134Y-754888D01*
X-309118D01*
X-308102Y-755904D01*
X-314960Y-755650D02*
X-313944Y-754634D01*
X-312928D01*
X-313944Y-753618D01*
X-312928Y-752602D01*
X-313944D01*
X-314960Y-751586D01*
X-315976Y-752602D01*
X-316992D01*
X-315976Y-753618D01*
X-316992Y-754634D01*
X-315976D01*
X-314960Y-755650D01*
X-307848Y-748792D02*
X-306832Y-747776D01*
X-305816D01*
X-306832Y-746760D01*
X-305816Y-745744D01*
X-306832D01*
X-307848Y-744728D01*
X-308864Y-745744D01*
X-309880D01*
X-308864Y-746760D01*
X-309880Y-747776D01*
X-308864D01*
X-307848Y-748792D01*
X-315214Y-748538D02*
X-314198Y-747522D01*
X-313182D01*
X-314198Y-746506D01*
X-313182Y-745490D01*
X-314198D01*
X-315214Y-744474D01*
X-316230Y-745490D01*
X-317246D01*
X-316230Y-746506D01*
X-317246Y-747522D01*
X-316230D01*
X-315214Y-748538D01*
X-312674Y-699262D02*
X-311658Y-698246D01*
X-310642D01*
X-311658Y-697230D01*
X-310642Y-696214D01*
X-311658D01*
X-312674Y-695198D01*
X-313690Y-696214D01*
X-314706D01*
X-313690Y-697230D01*
X-314706Y-698246D01*
X-313690D01*
X-312674Y-699262D01*
X-283718Y-700532D02*
X-282702Y-699516D01*
X-281686D01*
X-282702Y-698500D01*
X-281686Y-697484D01*
X-282702D01*
X-283718Y-696468D01*
X-284734Y-697484D01*
X-285750D01*
X-284734Y-698500D01*
X-285750Y-699516D01*
X-284734D01*
X-283718Y-700532D01*
X-305816Y-607568D02*
X-304800Y-606552D01*
X-303784D01*
X-304800Y-605536D01*
X-303784Y-604520D01*
X-304800D01*
X-305816Y-603504D01*
X-306832Y-604520D01*
X-307848D01*
X-306832Y-605536D01*
X-307848Y-606552D01*
X-306832D01*
X-305816Y-607568D01*
X-284734Y-504952D02*
X-283718Y-503936D01*
X-282702D01*
X-283718Y-502920D01*
X-282702Y-501904D01*
X-283718D01*
X-284734Y-500888D01*
X-285750Y-501904D01*
X-286766D01*
X-285750Y-502920D01*
X-286766Y-503936D01*
X-285750D01*
X-284734Y-504952D01*
X-270510Y-508000D02*
X-269494Y-506984D01*
X-268478D01*
X-269494Y-505968D01*
X-268478Y-504952D01*
X-269494D01*
X-270510Y-503936D01*
X-271526Y-504952D01*
X-272542D01*
X-271526Y-505968D01*
X-272542Y-506984D01*
X-271526D01*
X-270510Y-508000D01*
X-241300Y-824484D02*
X-240284Y-823468D01*
X-239268D01*
X-240284Y-822452D01*
X-239268Y-821436D01*
X-240284D01*
X-241300Y-820420D01*
X-242316Y-821436D01*
X-243332D01*
X-242316Y-822452D01*
X-243332Y-823468D01*
X-242316D01*
X-241300Y-824484D01*
X-246380Y-829818D02*
X-245364Y-828802D01*
X-244348D01*
X-245364Y-827786D01*
X-244348Y-826770D01*
X-245364D01*
X-246380Y-825754D01*
X-247396Y-826770D01*
X-248412D01*
X-247396Y-827786D01*
X-248412Y-828802D01*
X-247396D01*
X-246380Y-829818D01*
X-230632Y-902462D02*
X-229616Y-901446D01*
X-228600D01*
X-229616Y-900430D01*
X-228600Y-899414D01*
X-229616D01*
X-230632Y-898398D01*
X-231648Y-899414D01*
X-232664D01*
X-231648Y-900430D01*
X-232664Y-901446D01*
X-231648D01*
X-230632Y-902462D01*
X-222250D02*
X-221234Y-901446D01*
X-220218D01*
X-221234Y-900430D01*
X-220218Y-899414D01*
X-221234D01*
X-222250Y-898398D01*
X-223266Y-899414D01*
X-224282D01*
X-223266Y-900430D01*
X-224282Y-901446D01*
X-223266D01*
X-222250Y-902462D01*
X-267970Y-892048D02*
X-266954Y-891032D01*
X-265938D01*
X-266954Y-890016D01*
X-265938Y-889000D01*
X-266954D01*
X-267970Y-887984D01*
X-268986Y-889000D01*
X-270002D01*
X-268986Y-890016D01*
X-270002Y-891032D01*
X-268986D01*
X-267970Y-892048D01*
X-329692Y-923798D02*
X-328676Y-922782D01*
X-327660D01*
X-328676Y-921766D01*
X-327660Y-920750D01*
X-328676D01*
X-329692Y-919734D01*
X-330708Y-920750D01*
X-331724D01*
X-330708Y-921766D01*
X-331724Y-922782D01*
X-330708D01*
X-329692Y-923798D01*
X-268732Y-899414D02*
X-267716Y-898398D01*
X-266700D01*
X-267716Y-897382D01*
X-266700Y-896366D01*
X-267716D01*
X-268732Y-895350D01*
X-269748Y-896366D01*
X-270764D01*
X-269748Y-897382D01*
X-270764Y-898398D01*
X-269748D01*
X-268732Y-899414D01*
X-953008Y-201168D02*
X-951992Y-200152D01*
X-950976D01*
X-951992Y-199136D01*
X-950976Y-198120D01*
X-951992D01*
X-953008Y-197104D01*
X-954024Y-198120D01*
X-955040D01*
X-954024Y-199136D01*
X-955040Y-200152D01*
X-954024D01*
X-953008Y-201168D01*
X-945642Y-201422D02*
X-944626Y-200406D01*
X-943610D01*
X-944626Y-199390D01*
X-943610Y-198374D01*
X-944626D01*
X-945642Y-197358D01*
X-946658Y-198374D01*
X-947674D01*
X-946658Y-199390D01*
X-947674Y-200406D01*
X-946658D01*
X-945642Y-201422D01*
X-938784D02*
X-937768Y-200406D01*
X-936752D01*
X-937768Y-199390D01*
X-936752Y-198374D01*
X-937768D01*
X-938784Y-197358D01*
X-939800Y-198374D01*
X-940816D01*
X-939800Y-199390D01*
X-940816Y-200406D01*
X-939800D01*
X-938784Y-201422D01*
X-900176Y-286004D02*
X-899160Y-284988D01*
X-898144D01*
X-899160Y-283972D01*
X-898144Y-282956D01*
X-899160D01*
X-900176Y-281940D01*
X-901192Y-282956D01*
X-902208D01*
X-901192Y-283972D01*
X-902208Y-284988D01*
X-901192D01*
X-900176Y-286004D01*
X-939292Y-286766D02*
X-938276Y-285750D01*
X-937260D01*
X-938276Y-284734D01*
X-937260Y-283718D01*
X-938276D01*
X-939292Y-282702D01*
X-940308Y-283718D01*
X-941324D01*
X-940308Y-284734D01*
X-941324Y-285750D01*
X-940308D01*
X-939292Y-286766D01*
X-946150D02*
X-945134Y-285750D01*
X-944118D01*
X-945134Y-284734D01*
X-944118Y-283718D01*
X-945134D01*
X-946150Y-282702D01*
X-947166Y-283718D01*
X-948182D01*
X-947166Y-284734D01*
X-948182Y-285750D01*
X-947166D01*
X-946150Y-286766D01*
X-953516Y-286512D02*
X-952500Y-285496D01*
X-951484D01*
X-952500Y-284480D01*
X-951484Y-283464D01*
X-952500D01*
X-953516Y-282448D01*
X-954532Y-283464D01*
X-955548D01*
X-954532Y-284480D01*
X-955548Y-285496D01*
X-954532D01*
X-953516Y-286512D01*
X-371602Y-676148D02*
X-370586Y-675132D01*
X-369570D01*
X-370586Y-674116D01*
X-369570Y-673100D01*
X-370586D01*
X-371602Y-672084D01*
X-372618Y-673100D01*
X-373634D01*
X-372618Y-674116D01*
X-373634Y-675132D01*
X-372618D01*
X-371602Y-676148D01*
X-399288Y-592836D02*
X-398272Y-591820D01*
X-397256D01*
X-398272Y-590804D01*
X-397256Y-589788D01*
X-398272D01*
X-399288Y-588772D01*
X-400304Y-589788D01*
X-401320D01*
X-400304Y-590804D01*
X-401320Y-591820D01*
X-400304D01*
X-399288Y-592836D01*
X-406146Y-632460D02*
X-405130Y-631444D01*
X-404114D01*
X-405130Y-630428D01*
X-404114Y-629412D01*
X-405130D01*
X-406146Y-628396D01*
X-407162Y-629412D01*
X-408178D01*
X-407162Y-630428D01*
X-408178Y-631444D01*
X-407162D01*
X-406146Y-632460D01*
X-398526Y-673608D02*
X-397510Y-672592D01*
X-396494D01*
X-397510Y-671576D01*
X-396494Y-670560D01*
X-397510D01*
X-398526Y-669544D01*
X-399542Y-670560D01*
X-400558D01*
X-399542Y-671576D01*
X-400558Y-672592D01*
X-399542D01*
X-398526Y-673608D01*
X-663194Y-855472D02*
X-662178Y-854456D01*
X-661162D01*
X-662178Y-853440D01*
X-661162Y-852424D01*
X-662178D01*
X-663194Y-851408D01*
X-664210Y-852424D01*
X-665226D01*
X-664210Y-853440D01*
X-665226Y-854456D01*
X-664210D01*
X-663194Y-855472D01*
X-659686Y-846280D02*
X-658670Y-845264D01*
X-657654D01*
X-658670Y-844248D01*
X-657654Y-843232D01*
X-658670D01*
X-659686Y-842216D01*
X-660702Y-843232D01*
X-661718D01*
X-660702Y-844248D01*
X-661718Y-845264D01*
X-660702D01*
X-659686Y-846280D01*
X-780288Y-862584D02*
X-779272Y-861568D01*
X-778256D01*
X-779272Y-860552D01*
X-778256Y-859536D01*
X-779272D01*
X-780288Y-858520D01*
X-781304Y-859536D01*
X-782320D01*
X-781304Y-860552D01*
X-782320Y-861568D01*
X-781304D01*
X-780288Y-862584D01*
X-780796Y-854456D02*
X-779780Y-853440D01*
X-778764D01*
X-779780Y-852424D01*
X-778764Y-851408D01*
X-779780D01*
X-780796Y-850392D01*
X-781812Y-851408D01*
X-782828D01*
X-781812Y-852424D01*
X-782828Y-853440D01*
X-781812D01*
X-780796Y-854456D01*
X-780542Y-846582D02*
X-779526Y-845566D01*
X-778510D01*
X-779526Y-844550D01*
X-778510Y-843534D01*
X-779526D01*
X-780542Y-842518D01*
X-781558Y-843534D01*
X-782574D01*
X-781558Y-844550D01*
X-782574Y-845566D01*
X-781558D01*
X-780542Y-846582D01*
X-790702Y-719328D02*
X-789686Y-718312D01*
X-788670D01*
X-789686Y-717296D01*
X-788670Y-716280D01*
X-789686D01*
X-790702Y-715264D01*
X-791718Y-716280D01*
X-792734D01*
X-791718Y-717296D01*
X-792734Y-718312D01*
X-791718D01*
X-790702Y-719328D01*
X-786384Y-724916D02*
X-785368Y-723900D01*
X-784352D01*
X-785368Y-722884D01*
X-784352Y-721868D01*
X-785368D01*
X-786384Y-720852D01*
X-787400Y-721868D01*
X-788416D01*
X-787400Y-722884D01*
X-788416Y-723900D01*
X-787400D01*
X-786384Y-724916D01*
X-829310Y-503682D02*
X-828294Y-502666D01*
X-827278D01*
X-828294Y-501650D01*
X-827278Y-500634D01*
X-828294D01*
X-829310Y-499618D01*
X-830326Y-500634D01*
X-831342D01*
X-830326Y-501650D01*
X-831342Y-502666D01*
X-830326D01*
X-829310Y-503682D01*
Y-495808D02*
X-828294Y-494792D01*
X-827278D01*
X-828294Y-493776D01*
X-827278Y-492760D01*
X-828294D01*
X-829310Y-491744D01*
X-830326Y-492760D01*
X-831342D01*
X-830326Y-493776D01*
X-831342Y-494792D01*
X-830326D01*
X-829310Y-495808D01*
X-778764Y-381508D02*
X-777748Y-380492D01*
X-776732D01*
X-777748Y-379476D01*
X-776732Y-378460D01*
X-777748D01*
X-778764Y-377444D01*
X-779780Y-378460D01*
X-780796D01*
X-779780Y-379476D01*
X-780796Y-380492D01*
X-779780D01*
X-778764Y-381508D01*
Y-374142D02*
X-777748Y-373126D01*
X-776732D01*
X-777748Y-372110D01*
X-776732Y-371094D01*
X-777748D01*
X-778764Y-370078D01*
X-779780Y-371094D01*
X-780796D01*
X-779780Y-372110D01*
X-780796Y-373126D01*
X-779780D01*
X-778764Y-374142D01*
X-834644Y-1092708D02*
X-833628Y-1091692D01*
X-832612D01*
X-833628Y-1090676D01*
X-832612Y-1089660D01*
X-833628D01*
X-834644Y-1088644D01*
X-835660Y-1089660D01*
X-836676D01*
X-835660Y-1090676D01*
X-836676Y-1091692D01*
X-835660D01*
X-834644Y-1092708D01*
X-842264D02*
X-841248Y-1091692D01*
X-840232D01*
X-841248Y-1090676D01*
X-840232Y-1089660D01*
X-841248D01*
X-842264Y-1088644D01*
X-843280Y-1089660D01*
X-844296D01*
X-843280Y-1090676D01*
X-844296Y-1091692D01*
X-843280D01*
X-842264Y-1092708D01*
X-849630Y-1092454D02*
X-848614Y-1091438D01*
X-847598D01*
X-848614Y-1090422D01*
X-847598Y-1089406D01*
X-848614D01*
X-849630Y-1088390D01*
X-850646Y-1089406D01*
X-851662D01*
X-850646Y-1090422D01*
X-851662Y-1091438D01*
X-850646D01*
X-849630Y-1092454D01*
X-31242Y-887476D02*
X-30226Y-886460D01*
X-29210D01*
X-30226Y-885444D01*
X-29210Y-884428D01*
X-30226D01*
X-31242Y-883412D01*
X-32258Y-884428D01*
X-33274D01*
X-32258Y-885444D01*
X-33274Y-886460D01*
X-32258D01*
X-31242Y-887476D01*
X-200152Y-1049020D02*
X-199136Y-1048004D01*
X-198120D01*
X-199136Y-1046988D01*
X-198120Y-1045972D01*
X-199136D01*
X-200152Y-1044956D01*
X-201168Y-1045972D01*
X-202184D01*
X-201168Y-1046988D01*
X-202184Y-1048004D01*
X-201168D01*
X-200152Y-1049020D01*
X-532892Y-1054608D02*
X-531876Y-1053592D01*
X-530860D01*
X-531876Y-1052576D01*
X-530860Y-1051560D01*
X-531876D01*
X-532892Y-1050544D01*
X-533908Y-1051560D01*
X-534924D01*
X-533908Y-1052576D01*
X-534924Y-1053592D01*
X-533908D01*
X-532892Y-1054608D01*
X-521462Y-1067308D02*
X-520446Y-1066292D01*
X-519430D01*
X-520446Y-1065276D01*
X-519430Y-1064260D01*
X-520446D01*
X-521462Y-1063244D01*
X-522478Y-1064260D01*
X-523494D01*
X-522478Y-1065276D01*
X-523494Y-1066292D01*
X-522478D01*
X-521462Y-1067308D01*
X-551180Y-1102868D02*
X-550164Y-1101852D01*
X-549148D01*
X-550164Y-1100836D01*
X-549148Y-1099820D01*
X-550164D01*
X-551180Y-1098804D01*
X-552196Y-1099820D01*
X-553212D01*
X-552196Y-1100836D01*
X-553212Y-1101852D01*
X-552196D01*
X-551180Y-1102868D01*
X-408940Y-928878D02*
X-407924Y-927862D01*
X-406908D01*
X-407924Y-926846D01*
X-406908Y-925830D01*
X-407924D01*
X-408940Y-924814D01*
X-409956Y-925830D01*
X-410972D01*
X-409956Y-926846D01*
X-410972Y-927862D01*
X-409956D01*
X-408940Y-928878D01*
X-419354D02*
X-418338Y-927862D01*
X-417322D01*
X-418338Y-926846D01*
X-417322Y-925830D01*
X-418338D01*
X-419354Y-924814D01*
X-420370Y-925830D01*
X-421386D01*
X-420370Y-926846D01*
X-421386Y-927862D01*
X-420370D01*
X-419354Y-928878D01*
X-409448Y-907288D02*
X-408432Y-906272D01*
X-407416D01*
X-408432Y-905256D01*
X-407416Y-904240D01*
X-408432D01*
X-409448Y-903224D01*
X-410464Y-904240D01*
X-411480D01*
X-410464Y-905256D01*
X-411480Y-906272D01*
X-410464D01*
X-409448Y-907288D01*
X-395986Y-909828D02*
X-394970Y-908812D01*
X-393954D01*
X-394970Y-907796D01*
X-393954Y-906780D01*
X-394970D01*
X-395986Y-905764D01*
X-397002Y-906780D01*
X-398018D01*
X-397002Y-907796D01*
X-398018Y-908812D01*
X-397002D01*
X-395986Y-909828D01*
X-266954Y-473710D02*
X-265938Y-472694D01*
X-264922D01*
X-265938Y-471678D01*
X-264922Y-470662D01*
X-265938D01*
X-266954Y-469646D01*
X-267970Y-470662D01*
X-268986D01*
X-267970Y-471678D01*
X-268986Y-472694D01*
X-267970D01*
X-266954Y-473710D01*
X-270002Y-462026D02*
X-268986Y-461010D01*
X-267970D01*
X-268986Y-459994D01*
X-267970Y-458978D01*
X-268986D01*
X-270002Y-457962D01*
X-271018Y-458978D01*
X-272034D01*
X-271018Y-459994D01*
X-272034Y-461010D01*
X-271018D01*
X-270002Y-462026D01*
X-567436Y-1086104D02*
X-566420Y-1085088D01*
X-565404D01*
X-566420Y-1084072D01*
X-565404Y-1083056D01*
X-566420D01*
X-567436Y-1082040D01*
X-568452Y-1083056D01*
X-569468D01*
X-568452Y-1084072D01*
X-569468Y-1085088D01*
X-568452D01*
X-567436Y-1086104D01*
X-670052Y-1049872D02*
X-669036Y-1048856D01*
X-668020D01*
X-669036Y-1047840D01*
X-668020Y-1046824D01*
X-669036D01*
X-670052Y-1045808D01*
X-671068Y-1046824D01*
X-672084D01*
X-671068Y-1047840D01*
X-672084Y-1048856D01*
X-671068D01*
X-670052Y-1049872D01*
X-772922Y-972058D02*
X-771906Y-971042D01*
X-770890D01*
X-771906Y-970026D01*
X-770890Y-969010D01*
X-771906D01*
X-772922Y-967994D01*
X-773938Y-969010D01*
X-774954D01*
X-773938Y-970026D01*
X-774954Y-971042D01*
X-773938D01*
X-772922Y-972058D01*
X-808228Y-971296D02*
X-807212Y-970280D01*
X-806196D01*
X-807212Y-969264D01*
X-806196Y-968248D01*
X-807212D01*
X-808228Y-967232D01*
X-809244Y-968248D01*
X-810260D01*
X-809244Y-969264D01*
X-810260Y-970280D01*
X-809244D01*
X-808228Y-971296D01*
X-666496Y-728726D02*
X-665480Y-727710D01*
X-664464D01*
X-665480Y-726694D01*
X-664464Y-725678D01*
X-665480D01*
X-666496Y-724662D01*
X-667512Y-725678D01*
X-668528D01*
X-667512Y-726694D01*
X-668528Y-727710D01*
X-667512D01*
X-666496Y-728726D01*
X-797560Y-534162D02*
X-796544Y-533146D01*
X-795528D01*
X-796544Y-532130D01*
X-795528Y-531114D01*
X-796544D01*
X-797560Y-530098D01*
X-798576Y-531114D01*
X-799592D01*
X-798576Y-532130D01*
X-799592Y-533146D01*
X-798576D01*
X-797560Y-534162D01*
X-774446Y-409956D02*
X-773430Y-408940D01*
X-772414D01*
X-773430Y-407924D01*
X-772414Y-406908D01*
X-773430D01*
X-774446Y-405892D01*
X-775462Y-406908D01*
X-776478D01*
X-775462Y-407924D01*
X-776478Y-408940D01*
X-775462D01*
X-774446Y-409956D01*
X-671068Y-417322D02*
X-670052Y-416306D01*
X-669036D01*
X-670052Y-415290D01*
X-669036Y-414274D01*
X-670052D01*
X-671068Y-413258D01*
X-672084Y-414274D01*
X-673100D01*
X-672084Y-415290D01*
X-673100Y-416306D01*
X-672084D01*
X-671068Y-417322D01*
X-819150Y-469392D02*
X-818134Y-468376D01*
X-817118D01*
X-818134Y-467360D01*
X-817118Y-466344D01*
X-818134D01*
X-819150Y-465328D01*
X-820166Y-466344D01*
X-821182D01*
X-820166Y-467360D01*
X-821182Y-468376D01*
X-820166D01*
X-819150Y-469392D01*
Y-462788D02*
X-818134Y-461772D01*
X-817118D01*
X-818134Y-460756D01*
X-817118Y-459740D01*
X-818134D01*
X-819150Y-458724D01*
X-820166Y-459740D01*
X-821182D01*
X-820166Y-460756D01*
X-821182Y-461772D01*
X-820166D01*
X-819150Y-462788D01*
Y-456184D02*
X-818134Y-455168D01*
X-817118D01*
X-818134Y-454152D01*
X-817118Y-453136D01*
X-818134D01*
X-819150Y-452120D01*
X-820166Y-453136D01*
X-821182D01*
X-820166Y-454152D01*
X-821182Y-455168D01*
X-820166D01*
X-819150Y-456184D01*
X-241046Y-198882D02*
X-240030Y-197866D01*
X-239014D01*
X-240030Y-196850D01*
X-239014Y-195834D01*
X-240030D01*
X-241046Y-194818D01*
X-242062Y-195834D01*
X-243078D01*
X-242062Y-196850D01*
X-243078Y-197866D01*
X-242062D01*
X-241046Y-198882D01*
X-295656Y-199390D02*
X-294640Y-198374D01*
X-293624D01*
X-294640Y-197358D01*
X-293624Y-196342D01*
X-294640D01*
X-295656Y-195326D01*
X-296672Y-196342D01*
X-297688D01*
X-296672Y-197358D01*
X-297688Y-198374D01*
X-296672D01*
X-295656Y-199390D01*
X-332232Y-215646D02*
X-331216Y-214630D01*
X-330200D01*
X-331216Y-213614D01*
X-330200Y-212598D01*
X-331216D01*
X-332232Y-211582D01*
X-333248Y-212598D01*
X-334264D01*
X-333248Y-213614D01*
X-334264Y-214630D01*
X-333248D01*
X-332232Y-215646D01*
X-393446Y-413058D02*
X-392430Y-412042D01*
X-391414D01*
X-392430Y-411026D01*
X-391414Y-410010D01*
X-392430D01*
X-393446Y-408994D01*
X-394462Y-410010D01*
X-395478D01*
X-394462Y-411026D01*
X-395478Y-412042D01*
X-394462D01*
X-393446Y-413058D01*
X-85598Y-512318D02*
X-84582Y-511302D01*
X-83566D01*
X-84582Y-510286D01*
X-83566Y-509270D01*
X-84582D01*
X-85598Y-508254D01*
X-86614Y-509270D01*
X-87630D01*
X-86614Y-510286D01*
X-87630Y-511302D01*
X-86614D01*
X-85598Y-512318D01*
X-116586Y-520446D02*
X-115570Y-519430D01*
X-114554D01*
X-115570Y-518414D01*
X-114554Y-517398D01*
X-115570D01*
X-116586Y-516382D01*
X-117602Y-517398D01*
X-118618D01*
X-117602Y-518414D01*
X-118618Y-519430D01*
X-117602D01*
X-116586Y-520446D01*
X-46990Y-518922D02*
X-45974Y-517906D01*
X-44958D01*
X-45974Y-516890D01*
X-44958Y-515874D01*
X-45974D01*
X-46990Y-514858D01*
X-48006Y-515874D01*
X-49022D01*
X-48006Y-516890D01*
X-49022Y-517906D01*
X-48006D01*
X-46990Y-518922D01*
X-108966Y-520446D02*
X-107950Y-519430D01*
X-106934D01*
X-107950Y-518414D01*
X-106934Y-517398D01*
X-107950D01*
X-108966Y-516382D01*
X-109982Y-517398D01*
X-110998D01*
X-109982Y-518414D01*
X-110998Y-519430D01*
X-109982D01*
X-108966Y-520446D01*
X-391922Y-673662D02*
X-390906Y-672646D01*
X-389890D01*
X-390906Y-671630D01*
X-389890Y-670614D01*
X-390906D01*
X-391922Y-669598D01*
X-392938Y-670614D01*
X-393954D01*
X-392938Y-671630D01*
X-393954Y-672646D01*
X-392938D01*
X-391922Y-673662D01*
X-402590Y-830326D02*
X-401574Y-829310D01*
X-400558D01*
X-401574Y-828294D01*
X-400558Y-827278D01*
X-401574D01*
X-402590Y-826262D01*
X-403606Y-827278D01*
X-404622D01*
X-403606Y-828294D01*
X-404622Y-829310D01*
X-403606D01*
X-402590Y-830326D01*
X-402082Y-758952D02*
X-401066Y-757936D01*
X-400050D01*
X-401066Y-756920D01*
X-400050Y-755904D01*
X-401066D01*
X-402082Y-754888D01*
X-403098Y-755904D01*
X-404114D01*
X-403098Y-756920D01*
X-404114Y-757936D01*
X-403098D01*
X-402082Y-758952D01*
X-404876Y-594922D02*
X-403860Y-593906D01*
X-402844D01*
X-403860Y-592890D01*
X-402844Y-591874D01*
X-403860D01*
X-404876Y-590858D01*
X-405892Y-591874D01*
X-406908D01*
X-405892Y-592890D01*
X-406908Y-593906D01*
X-405892D01*
X-404876Y-594922D01*
X-399796Y-632206D02*
X-398780Y-631190D01*
X-397764D01*
X-398780Y-630174D01*
X-397764Y-629158D01*
X-398780D01*
X-399796Y-628142D01*
X-400812Y-629158D01*
X-401828D01*
X-400812Y-630174D01*
X-401828Y-631190D01*
X-400812D01*
X-399796Y-632206D01*
X-484886Y-702818D02*
X-483870Y-701802D01*
X-482854D01*
X-483870Y-700786D01*
X-482854Y-699770D01*
X-483870D01*
X-484886Y-698754D01*
X-485902Y-699770D01*
X-486918D01*
X-485902Y-700786D01*
X-486918Y-701802D01*
X-485902D01*
X-484886Y-702818D01*
X-485902Y-681990D02*
X-484886Y-680974D01*
X-483870D01*
X-484886Y-679958D01*
X-483870Y-678942D01*
X-484886D01*
X-485902Y-677926D01*
X-486918Y-678942D01*
X-487934D01*
X-486918Y-679958D01*
X-487934Y-680974D01*
X-486918D01*
X-485902Y-681990D01*
X-485394Y-693166D02*
X-484378Y-692150D01*
X-483362D01*
X-484378Y-691134D01*
X-483362Y-690118D01*
X-484378D01*
X-485394Y-689102D01*
X-486410Y-690118D01*
X-487426D01*
X-486410Y-691134D01*
X-487426Y-692150D01*
X-486410D01*
X-485394Y-693166D01*
X-573532Y-325120D02*
X-572516Y-324104D01*
X-571500D01*
X-572516Y-323088D01*
X-571500Y-322072D01*
X-572516D01*
X-573532Y-321056D01*
X-574548Y-322072D01*
X-575564D01*
X-574548Y-323088D01*
X-575564Y-324104D01*
X-574548D01*
X-573532Y-325120D01*
X-556514Y-584000D02*
X-555498Y-582984D01*
X-554482D01*
X-555498Y-581968D01*
X-554482Y-580952D01*
X-555498D01*
X-556514Y-579936D01*
X-557530Y-580952D01*
X-558546D01*
X-557530Y-581968D01*
X-558546Y-582984D01*
X-557530D01*
X-556514Y-584000D01*
X-556260Y-565204D02*
X-555244Y-564188D01*
X-554228D01*
X-555244Y-563172D01*
X-554228Y-562156D01*
X-555244D01*
X-556260Y-561140D01*
X-557276Y-562156D01*
X-558292D01*
X-557276Y-563172D01*
X-558292Y-564188D01*
X-557276D01*
X-556260Y-565204D01*
X-558038Y-764086D02*
X-557022Y-763070D01*
X-556006D01*
X-557022Y-762054D01*
X-556006Y-761038D01*
X-557022D01*
X-558038Y-760022D01*
X-559054Y-761038D01*
X-560070D01*
X-559054Y-762054D01*
X-560070Y-763070D01*
X-559054D01*
X-558038Y-764086D01*
X-558292Y-782882D02*
X-557276Y-781866D01*
X-556260D01*
X-557276Y-780850D01*
X-556260Y-779834D01*
X-557276D01*
X-558292Y-778818D01*
X-559308Y-779834D01*
X-560324D01*
X-559308Y-780850D01*
X-560324Y-781866D01*
X-559308D01*
X-558292Y-782882D01*
X-842010Y-527812D02*
X-840994Y-526796D01*
X-839978D01*
X-840994Y-525780D01*
X-839978Y-524764D01*
X-840994D01*
X-842010Y-523748D01*
X-843026Y-524764D01*
X-844042D01*
X-843026Y-525780D01*
X-844042Y-526796D01*
X-843026D01*
X-842010Y-527812D01*
X-848106Y-527866D02*
X-847090Y-526850D01*
X-846074D01*
X-847090Y-525834D01*
X-846074Y-524818D01*
X-847090D01*
X-848106Y-523802D01*
X-849122Y-524818D01*
X-850138D01*
X-849122Y-525834D01*
X-850138Y-526850D01*
X-849122D01*
X-848106Y-527866D01*
X-847090Y-521516D02*
X-846074Y-520500D01*
X-845058D01*
X-846074Y-519484D01*
X-845058Y-518468D01*
X-846074D01*
X-847090Y-517452D01*
X-848106Y-518468D01*
X-849122D01*
X-848106Y-519484D01*
X-849122Y-520500D01*
X-848106D01*
X-847090Y-521516D01*
X-853186Y-522024D02*
X-852170Y-521008D01*
X-851154D01*
X-852170Y-519992D01*
X-851154Y-518976D01*
X-852170D01*
X-853186Y-517960D01*
X-854202Y-518976D01*
X-855218D01*
X-854202Y-519992D01*
X-855218Y-521008D01*
X-854202D01*
X-853186Y-522024D01*
X-155956Y-697738D02*
X-154940Y-696722D01*
X-153924D01*
X-154940Y-695706D01*
X-153924Y-694690D01*
X-154940D01*
X-155956Y-693674D01*
X-156972Y-694690D01*
X-157988D01*
X-156972Y-695706D01*
X-157988Y-696722D01*
X-156972D01*
X-155956Y-697738D01*
X-287528Y-649278D02*
X-286512Y-648262D01*
X-285496D01*
X-286512Y-647246D01*
X-285496Y-646230D01*
X-286512D01*
X-287528Y-645214D01*
X-288544Y-646230D01*
X-289560D01*
X-288544Y-647246D01*
X-289560Y-648262D01*
X-288544D01*
X-287528Y-649278D01*
X-156210Y-690118D02*
X-155194Y-689102D01*
X-154178D01*
X-155194Y-688086D01*
X-154178Y-687070D01*
X-155194D01*
X-156210Y-686054D01*
X-157226Y-687070D01*
X-158242D01*
X-157226Y-688086D01*
X-158242Y-689102D01*
X-157226D01*
X-156210Y-690118D01*
X-295148Y-649024D02*
X-294132Y-648008D01*
X-293116D01*
X-294132Y-646992D01*
X-293116Y-645976D01*
X-294132D01*
X-295148Y-644960D01*
X-296164Y-645976D01*
X-297180D01*
X-296164Y-646992D01*
X-297180Y-648008D01*
X-296164D01*
X-295148Y-649024D01*
X-33274Y-507746D02*
X-32258Y-506730D01*
X-31242D01*
X-32258Y-505714D01*
X-31242Y-504698D01*
X-32258D01*
X-33274Y-503682D01*
X-34290Y-504698D01*
X-35306D01*
X-34290Y-505714D01*
X-35306Y-506730D01*
X-34290D01*
X-33274Y-507746D01*
X-325120Y-595884D02*
X-324104Y-594868D01*
X-323088D01*
X-324104Y-593852D01*
X-323088Y-592836D01*
X-324104D01*
X-325120Y-591820D01*
X-326136Y-592836D01*
X-327152D01*
X-326136Y-593852D01*
X-327152Y-594868D01*
X-326136D01*
X-325120Y-595884D01*
X-33274Y-500126D02*
X-32258Y-499110D01*
X-31242D01*
X-32258Y-498094D01*
X-31242Y-497078D01*
X-32258D01*
X-33274Y-496062D01*
X-34290Y-497078D01*
X-35306D01*
X-34290Y-498094D01*
X-35306Y-499110D01*
X-34290D01*
X-33274Y-500126D01*
X-325374Y-604266D02*
X-324358Y-603250D01*
X-323342D01*
X-324358Y-602234D01*
X-323342Y-601218D01*
X-324358D01*
X-325374Y-600202D01*
X-326390Y-601218D01*
X-327406D01*
X-326390Y-602234D01*
X-327406Y-603250D01*
X-326390D01*
X-325374Y-604266D01*
X-382016Y-653034D02*
X-381000Y-652018D01*
X-379984D01*
X-381000Y-651002D01*
X-379984Y-649986D01*
X-381000D01*
X-382016Y-648970D01*
X-383032Y-649986D01*
X-384048D01*
X-383032Y-651002D01*
X-384048Y-652018D01*
X-383032D01*
X-382016Y-653034D01*
X-414782Y-645668D02*
X-413766Y-644652D01*
X-412750D01*
X-413766Y-643636D01*
X-412750Y-642620D01*
X-413766D01*
X-414782Y-641604D01*
X-415798Y-642620D01*
X-416814D01*
X-415798Y-643636D01*
X-416814Y-644652D01*
X-415798D01*
X-414782Y-645668D01*
X-389636Y-653034D02*
X-388620Y-652018D01*
X-387604D01*
X-388620Y-651002D01*
X-387604Y-649986D01*
X-388620D01*
X-389636Y-648970D01*
X-390652Y-649986D01*
X-391668D01*
X-390652Y-651002D01*
X-391668Y-652018D01*
X-390652D01*
X-389636Y-653034D01*
X-414782Y-653288D02*
X-413766Y-652272D01*
X-412750D01*
X-413766Y-651256D01*
X-412750Y-650240D01*
X-413766D01*
X-414782Y-649224D01*
X-415798Y-650240D01*
X-416814D01*
X-415798Y-651256D01*
X-416814Y-652272D01*
X-415798D01*
X-414782Y-653288D01*
X-40132Y-637032D02*
X-39116Y-636016D01*
X-38100D01*
X-39116Y-635000D01*
X-38100Y-633984D01*
X-39116D01*
X-40132Y-632968D01*
X-41148Y-633984D01*
X-42164D01*
X-41148Y-635000D01*
X-42164Y-636016D01*
X-41148D01*
X-40132Y-637032D01*
X-302778Y-790194D02*
X-301762Y-789178D01*
X-300746D01*
X-301762Y-788162D01*
X-300746Y-787146D01*
X-301762D01*
X-302778Y-786130D01*
X-303794Y-787146D01*
X-304810D01*
X-303794Y-788162D01*
X-304810Y-789178D01*
X-303794D01*
X-302778Y-790194D01*
X-39878Y-629412D02*
X-38862Y-628396D01*
X-37846D01*
X-38862Y-627380D01*
X-37846Y-626364D01*
X-38862D01*
X-39878Y-625348D01*
X-40894Y-626364D01*
X-41910D01*
X-40894Y-627380D01*
X-41910Y-628396D01*
X-40894D01*
X-39878Y-629412D01*
X-47752Y-618236D02*
X-46736Y-617220D01*
X-45720D01*
X-46736Y-616204D01*
X-45720Y-615188D01*
X-46736D01*
X-47752Y-614172D01*
X-48768Y-615188D01*
X-49784D01*
X-48768Y-616204D01*
X-49784Y-617220D01*
X-48768D01*
X-47752Y-618236D01*
X-48006Y-610616D02*
X-46990Y-609600D01*
X-45974D01*
X-46990Y-608584D01*
X-45974Y-607568D01*
X-46990D01*
X-48006Y-606552D01*
X-49022Y-607568D01*
X-50038D01*
X-49022Y-608584D01*
X-50038Y-609600D01*
X-49022D01*
X-48006Y-610616D01*
X-341122Y-710492D02*
X-340106Y-709476D01*
X-339090D01*
X-340106Y-708460D01*
X-339090Y-707444D01*
X-340106D01*
X-341122Y-706428D01*
X-342138Y-707444D01*
X-343154D01*
X-342138Y-708460D01*
X-343154Y-709476D01*
X-342138D01*
X-341122Y-710492D01*
X-874776Y-233480D02*
X-873760Y-232464D01*
X-872744D01*
X-873760Y-231448D01*
X-872744Y-230432D01*
X-873760D01*
X-874776Y-229416D01*
X-875792Y-230432D01*
X-876808D01*
X-875792Y-231448D01*
X-876808Y-232464D01*
X-875792D01*
X-874776Y-233480D01*
X-869950Y-216970D02*
X-868934Y-215954D01*
X-867918D01*
X-868934Y-214938D01*
X-867918Y-213922D01*
X-868934D01*
X-869950Y-212906D01*
X-870966Y-213922D01*
X-871982D01*
X-870966Y-214938D01*
X-871982Y-215954D01*
X-870966D01*
X-869950Y-216970D01*
X-882598Y-272902D02*
X-881582Y-271886D01*
X-880566D01*
X-881582Y-270870D01*
X-880566Y-269854D01*
X-881582D01*
X-882598Y-268838D01*
X-883614Y-269854D01*
X-884630D01*
X-883614Y-270870D01*
X-884630Y-271886D01*
X-883614D01*
X-882598Y-272902D01*
X-860806Y-263198D02*
X-859790Y-262182D01*
X-858774D01*
X-859790Y-261166D01*
X-858774Y-260150D01*
X-859790D01*
X-860806Y-259134D01*
X-861822Y-260150D01*
X-862838D01*
X-861822Y-261166D01*
X-862838Y-262182D01*
X-861822D01*
X-860806Y-263198D01*
X-591820Y-497078D02*
X-590804Y-496062D01*
X-589788D01*
X-590804Y-495046D01*
X-589788Y-494030D01*
X-590804D01*
X-591820Y-493014D01*
X-592836Y-494030D01*
X-593852D01*
X-592836Y-495046D01*
X-593852Y-496062D01*
X-592836D01*
X-591820Y-497078D01*
X-621792Y-490474D02*
X-620776Y-489458D01*
X-619760D01*
X-620776Y-488442D01*
X-619760Y-487426D01*
X-620776D01*
X-621792Y-486410D01*
X-622808Y-487426D01*
X-623824D01*
X-622808Y-488442D01*
X-623824Y-489458D01*
X-622808D01*
X-621792Y-490474D01*
X-859028Y-965708D02*
X-858012Y-964692D01*
X-856996D01*
X-858012Y-963676D01*
X-856996Y-962660D01*
X-858012D01*
X-859028Y-961644D01*
X-860044Y-962660D01*
X-861060D01*
X-860044Y-963676D01*
X-861060Y-964692D01*
X-860044D01*
X-859028Y-965708D01*
X-842264Y-970534D02*
X-841248Y-969518D01*
X-840232D01*
X-841248Y-968502D01*
X-840232Y-967486D01*
X-841248D01*
X-842264Y-966470D01*
X-843280Y-967486D01*
X-844296D01*
X-843280Y-968502D01*
X-844296Y-969518D01*
X-843280D01*
X-842264Y-970534D01*
X-850392D02*
X-849376Y-969518D01*
X-848360D01*
X-849376Y-968502D01*
X-848360Y-967486D01*
X-849376D01*
X-850392Y-966470D01*
X-851408Y-967486D01*
X-852424D01*
X-851408Y-968502D01*
X-852424Y-969518D01*
X-851408D01*
X-850392Y-970534D01*
X-859028Y-957326D02*
X-858012Y-956310D01*
X-856996D01*
X-858012Y-955294D01*
X-856996Y-954278D01*
X-858012D01*
X-859028Y-953262D01*
X-860044Y-954278D01*
X-861060D01*
X-860044Y-955294D01*
X-861060Y-956310D01*
X-860044D01*
X-859028Y-957326D01*
X-380873Y-955167D02*
X-379857Y-954151D01*
X-378841D01*
X-379857Y-953135D01*
X-378841Y-952119D01*
X-379857D01*
X-380873Y-951103D01*
X-381889Y-952119D01*
X-382905D01*
X-381889Y-953135D01*
X-382905Y-954151D01*
X-381889D01*
X-380873Y-955167D01*
X-408432Y-944118D02*
X-407416Y-943102D01*
X-406400D01*
X-407416Y-942086D01*
X-406400Y-941070D01*
X-407416D01*
X-408432Y-940054D01*
X-409448Y-941070D01*
X-410464D01*
X-409448Y-942086D01*
X-410464Y-943102D01*
X-409448D01*
X-408432Y-944118D01*
X-853948Y-227584D02*
X-852932Y-226568D01*
X-851916D01*
X-852932Y-225552D01*
X-851916Y-224536D01*
X-852932D01*
X-853948Y-223520D01*
X-854964Y-224536D01*
X-855980D01*
X-854964Y-225552D01*
X-855980Y-226568D01*
X-854964D01*
X-853948Y-227584D01*
X-404114Y-583184D02*
X-403098Y-582168D01*
X-402082D01*
X-403098Y-581152D01*
X-402082Y-580136D01*
X-403098D01*
X-404114Y-579120D01*
X-405130Y-580136D01*
X-406146D01*
X-405130Y-581152D01*
X-406146Y-582168D01*
X-405130D01*
X-404114Y-583184D01*
X-423672Y-577088D02*
X-422656Y-576072D01*
X-421640D01*
X-422656Y-575056D01*
X-421640Y-574040D01*
X-422656D01*
X-423672Y-573024D01*
X-424688Y-574040D01*
X-425704D01*
X-424688Y-575056D01*
X-425704Y-576072D01*
X-424688D01*
X-423672Y-577088D01*
X-926084Y-221742D02*
X-925068Y-220726D01*
X-924052D01*
X-925068Y-219710D01*
X-924052Y-218694D01*
X-925068D01*
X-926084Y-217678D01*
X-927100Y-218694D01*
X-928116D01*
X-927100Y-219710D01*
X-928116Y-220726D01*
X-927100D01*
X-926084Y-221742D01*
X-886968Y-230632D02*
X-885952Y-229616D01*
X-884936D01*
X-885952Y-228600D01*
X-884936Y-227584D01*
X-885952D01*
X-886968Y-226568D01*
X-887984Y-227584D01*
X-889000D01*
X-887984Y-228600D01*
X-889000Y-229616D01*
X-887984D01*
X-886968Y-230632D01*
X-883920Y-215954D02*
X-882904Y-214938D01*
X-881888D01*
X-882904Y-213922D01*
X-881888Y-212906D01*
X-882904D01*
X-883920Y-211890D01*
X-884936Y-212906D01*
X-885952D01*
X-884936Y-213922D01*
X-885952Y-214938D01*
X-884936D01*
X-883920Y-215954D01*
X-889000Y-209858D02*
X-887984Y-208842D01*
X-886968D01*
X-887984Y-207826D01*
X-886968Y-206810D01*
X-887984D01*
X-889000Y-205794D01*
X-890016Y-206810D01*
X-891032D01*
X-890016Y-207826D01*
X-891032Y-208842D01*
X-890016D01*
X-889000Y-209858D01*
X-853948Y-235394D02*
X-852932Y-234378D01*
X-851916D01*
X-852932Y-233362D01*
X-851916Y-232346D01*
X-852932D01*
X-853948Y-231330D01*
X-854964Y-232346D01*
X-855980D01*
X-854964Y-233362D01*
X-855980Y-234378D01*
X-854964D01*
X-853948Y-235394D01*
X-873760Y-290766D02*
X-872744Y-289750D01*
X-871728D01*
X-872744Y-288734D01*
X-871728Y-287718D01*
X-872744D01*
X-873760Y-286702D01*
X-874776Y-287718D01*
X-875792D01*
X-874776Y-288734D01*
X-875792Y-289750D01*
X-874776D01*
X-873760Y-290766D01*
Y-298386D02*
X-872744Y-297370D01*
X-871728D01*
X-872744Y-296354D01*
X-871728Y-295338D01*
X-872744D01*
X-873760Y-294322D01*
X-874776Y-295338D01*
X-875792D01*
X-874776Y-296354D01*
X-875792Y-297370D01*
X-874776D01*
X-873760Y-298386D01*
X-368300Y-482092D02*
X-367284Y-481076D01*
X-366268D01*
X-367284Y-480060D01*
X-366268Y-479044D01*
X-367284D01*
X-368300Y-478028D01*
X-369316Y-479044D01*
X-370332D01*
X-369316Y-480060D01*
X-370332Y-481076D01*
X-369316D01*
X-368300Y-482092D01*
X-356870Y-477266D02*
X-355854Y-476250D01*
X-354838D01*
X-355854Y-475234D01*
X-354838Y-474218D01*
X-355854D01*
X-356870Y-473202D01*
X-357886Y-474218D01*
X-358902D01*
X-357886Y-475234D01*
X-358902Y-476250D01*
X-357886D01*
X-356870Y-477266D01*
X-411734Y-311658D02*
X-410718Y-310642D01*
X-409702D01*
X-410718Y-309626D01*
X-409702Y-308610D01*
X-410718D01*
X-411734Y-307594D01*
X-412750Y-308610D01*
X-413766D01*
X-412750Y-309626D01*
X-413766Y-310642D01*
X-412750D01*
X-411734Y-311658D01*
X-410718Y-261112D02*
X-409702Y-260096D01*
X-408686D01*
X-409702Y-259080D01*
X-408686Y-258064D01*
X-409702D01*
X-410718Y-257048D01*
X-411734Y-258064D01*
X-412750D01*
X-411734Y-259080D01*
X-412750Y-260096D01*
X-411734D01*
X-410718Y-261112D01*
X-411480Y-286766D02*
X-410464Y-285750D01*
X-409448D01*
X-410464Y-284734D01*
X-409448Y-283718D01*
X-410464D01*
X-411480Y-282702D01*
X-412496Y-283718D01*
X-413512D01*
X-412496Y-284734D01*
X-413512Y-285750D01*
X-412496D01*
X-411480Y-286766D01*
X-403860Y-512953D02*
X-402844Y-511937D01*
X-401828D01*
X-402844Y-510921D01*
X-401828Y-509905D01*
X-402844D01*
X-403860Y-508889D01*
X-404876Y-509905D01*
X-405892D01*
X-404876Y-510921D01*
X-405892Y-511937D01*
X-404876D01*
X-403860Y-512953D01*
X-324358Y-961390D02*
X-323342Y-960374D01*
X-322326D01*
X-323342Y-959358D01*
X-322326Y-958342D01*
X-323342D01*
X-324358Y-957326D01*
X-325374Y-958342D01*
X-326390D01*
X-325374Y-959358D01*
X-326390Y-960374D01*
X-325374D01*
X-324358Y-961390D01*
X-324612Y-969518D02*
X-323596Y-968502D01*
X-322580D01*
X-323596Y-967486D01*
X-322580Y-966470D01*
X-323596D01*
X-324612Y-965454D01*
X-325628Y-966470D01*
X-326644D01*
X-325628Y-967486D01*
X-326644Y-968502D01*
X-325628D01*
X-324612Y-969518D01*
X-120396Y-803656D02*
X-119380Y-802640D01*
X-118364D01*
X-119380Y-801624D01*
X-118364Y-800608D01*
X-119380D01*
X-120396Y-799592D01*
X-121412Y-800608D01*
X-122428D01*
X-121412Y-801624D01*
X-122428Y-802640D01*
X-121412D01*
X-120396Y-803656D01*
X-112776Y-803910D02*
X-111760Y-802894D01*
X-110744D01*
X-111760Y-801878D01*
X-110744Y-800862D01*
X-111760D01*
X-112776Y-799846D01*
X-113792Y-800862D01*
X-114808D01*
X-113792Y-801878D01*
X-114808Y-802894D01*
X-113792D01*
X-112776Y-803910D01*
X-423672Y-569214D02*
X-422656Y-568198D01*
X-421640D01*
X-422656Y-567182D01*
X-421640Y-566166D01*
X-422656D01*
X-423672Y-565150D01*
X-424688Y-566166D01*
X-425704D01*
X-424688Y-567182D01*
X-425704Y-568198D01*
X-424688D01*
X-423672Y-569214D01*
X-404114Y-575310D02*
X-403098Y-574294D01*
X-402082D01*
X-403098Y-573278D01*
X-402082Y-572262D01*
X-403098D01*
X-404114Y-571246D01*
X-405130Y-572262D01*
X-406146D01*
X-405130Y-573278D01*
X-406146Y-574294D01*
X-405130D01*
X-404114Y-575310D01*
X-247396Y-659384D02*
X-246380Y-658368D01*
X-245364D01*
X-246380Y-657352D01*
X-245364Y-656336D01*
X-246380D01*
X-247396Y-655320D01*
X-248412Y-656336D01*
X-249428D01*
X-248412Y-657352D01*
X-249428Y-658368D01*
X-248412D01*
X-247396Y-659384D01*
X-258572Y-633476D02*
X-257556Y-632460D01*
X-256540D01*
X-257556Y-631444D01*
X-256540Y-630428D01*
X-257556D01*
X-258572Y-629412D01*
X-259588Y-630428D01*
X-260604D01*
X-259588Y-631444D01*
X-260604Y-632460D01*
X-259588D01*
X-258572Y-633476D01*
X-247396Y-651764D02*
X-246380Y-650748D01*
X-245364D01*
X-246380Y-649732D01*
X-245364Y-648716D01*
X-246380D01*
X-247396Y-647700D01*
X-248412Y-648716D01*
X-249428D01*
X-248412Y-649732D01*
X-249428Y-650748D01*
X-248412D01*
X-247396Y-651764D01*
X-266192Y-633222D02*
X-265176Y-632206D01*
X-264160D01*
X-265176Y-631190D01*
X-264160Y-630174D01*
X-265176D01*
X-266192Y-629158D01*
X-267208Y-630174D01*
X-268224D01*
X-267208Y-631190D01*
X-268224Y-632206D01*
X-267208D01*
X-266192Y-633222D01*
X-443738Y-535178D02*
X-442722Y-534162D01*
X-441706D01*
X-442722Y-533146D01*
X-441706Y-532130D01*
X-442722D01*
X-443738Y-531114D01*
X-444754Y-532130D01*
X-445770D01*
X-444754Y-533146D01*
X-445770Y-534162D01*
X-444754D01*
X-443738Y-535178D01*
X-415798Y-503936D02*
X-414782Y-502920D01*
X-413766D01*
X-414782Y-501904D01*
X-413766Y-500888D01*
X-414782D01*
X-415798Y-499872D01*
X-416814Y-500888D01*
X-417830D01*
X-416814Y-501904D01*
X-417830Y-502920D01*
X-416814D01*
X-415798Y-503936D01*
X-512826Y-554482D02*
X-511810Y-553466D01*
X-510794D01*
X-511810Y-552450D01*
X-510794Y-551434D01*
X-511810D01*
X-512826Y-550418D01*
X-513842Y-551434D01*
X-514858D01*
X-513842Y-552450D01*
X-514858Y-553466D01*
X-513842D01*
X-512826Y-554482D01*
X-511302Y-509016D02*
X-510286Y-508000D01*
X-509270D01*
X-510286Y-506984D01*
X-509270Y-505968D01*
X-510286D01*
X-511302Y-504952D01*
X-512318Y-505968D01*
X-513334D01*
X-512318Y-506984D01*
X-513334Y-508000D01*
X-512318D01*
X-511302Y-509016D01*
X-512826Y-544576D02*
X-511810Y-543560D01*
X-510794D01*
X-511810Y-542544D01*
X-510794Y-541528D01*
X-511810D01*
X-512826Y-540512D01*
X-513842Y-541528D01*
X-514858D01*
X-513842Y-542544D01*
X-514858Y-543560D01*
X-513842D01*
X-512826Y-544576D01*
X-463296Y-542290D02*
X-462280Y-541274D01*
X-461264D01*
X-462280Y-540258D01*
X-461264Y-539242D01*
X-462280D01*
X-463296Y-538226D01*
X-464312Y-539242D01*
X-465328D01*
X-464312Y-540258D01*
X-465328Y-541274D01*
X-464312D01*
X-463296Y-542290D01*
X-473202Y-547370D02*
X-472186Y-546354D01*
X-471170D01*
X-472186Y-545338D01*
X-471170Y-544322D01*
X-472186D01*
X-473202Y-543306D01*
X-474218Y-544322D01*
X-475234D01*
X-474218Y-545338D01*
X-475234Y-546354D01*
X-474218D01*
X-473202Y-547370D01*
X-403606Y-685292D02*
X-402590Y-684276D01*
X-401574D01*
X-402590Y-683260D01*
X-401574Y-682244D01*
X-402590D01*
X-403606Y-681228D01*
X-404622Y-682244D01*
X-405638D01*
X-404622Y-683260D01*
X-405638Y-684276D01*
X-404622D01*
X-403606Y-685292D01*
X-413512Y-686308D02*
X-412496Y-685292D01*
X-411480D01*
X-412496Y-684276D01*
X-411480Y-683260D01*
X-412496D01*
X-413512Y-682244D01*
X-414528Y-683260D01*
X-415544D01*
X-414528Y-684276D01*
X-415544Y-685292D01*
X-414528D01*
X-413512Y-686308D01*
X-423672Y-685292D02*
X-422656Y-684276D01*
X-421640D01*
X-422656Y-683260D01*
X-421640Y-682244D01*
X-422656D01*
X-423672Y-681228D01*
X-424688Y-682244D01*
X-425704D01*
X-424688Y-683260D01*
X-425704Y-684276D01*
X-424688D01*
X-423672Y-685292D01*
X-392684D02*
X-391668Y-684276D01*
X-390652D01*
X-391668Y-683260D01*
X-390652Y-682244D01*
X-391668D01*
X-392684Y-681228D01*
X-393700Y-682244D01*
X-394716D01*
X-393700Y-683260D01*
X-394716Y-684276D01*
X-393700D01*
X-392684Y-685292D01*
X-433578Y-684276D02*
X-432562Y-683260D01*
X-431546D01*
X-432562Y-682244D01*
X-431546Y-681228D01*
X-432562D01*
X-433578Y-680212D01*
X-434594Y-681228D01*
X-435610D01*
X-434594Y-682244D01*
X-435610Y-683260D01*
X-434594D01*
X-433578Y-684276D01*
X-442214Y-684530D02*
X-441198Y-683514D01*
X-440182D01*
X-441198Y-682498D01*
X-440182Y-681482D01*
X-441198D01*
X-442214Y-680466D01*
X-443230Y-681482D01*
X-444246D01*
X-443230Y-682498D01*
X-444246Y-683514D01*
X-443230D01*
X-442214Y-684530D01*
X-426466Y-518414D02*
X-425450Y-517398D01*
X-424434D01*
X-425450Y-516382D01*
X-424434Y-515366D01*
X-425450D01*
X-426466Y-514350D01*
X-427482Y-515366D01*
X-428498D01*
X-427482Y-516382D01*
X-428498Y-517398D01*
X-427482D01*
X-426466Y-518414D01*
X-456184Y-491998D02*
X-455168Y-490982D01*
X-454152D01*
X-455168Y-489966D01*
X-454152Y-488950D01*
X-455168D01*
X-456184Y-487934D01*
X-457200Y-488950D01*
X-458216D01*
X-457200Y-489966D01*
X-458216Y-490982D01*
X-457200D01*
X-456184Y-491998D01*
X-571246Y-862584D02*
X-570230Y-861568D01*
X-569214D01*
X-570230Y-860552D01*
X-569214Y-859536D01*
X-570230D01*
X-571246Y-858520D01*
X-572262Y-859536D01*
X-573278D01*
X-572262Y-860552D01*
X-573278Y-861568D01*
X-572262D01*
X-571246Y-862584D01*
X-566674Y-872490D02*
X-565658Y-871474D01*
X-564642D01*
X-565658Y-870458D01*
X-564642Y-869442D01*
X-565658D01*
X-566674Y-868426D01*
X-567690Y-869442D01*
X-568706D01*
X-567690Y-870458D01*
X-568706Y-871474D01*
X-567690D01*
X-566674Y-872490D01*
X-458216Y-803910D02*
X-457200Y-802894D01*
X-456184D01*
X-457200Y-801878D01*
X-456184Y-800862D01*
X-457200D01*
X-458216Y-799846D01*
X-459232Y-800862D01*
X-460248D01*
X-459232Y-801878D01*
X-460248Y-802894D01*
X-459232D01*
X-458216Y-803910D01*
X-653542Y-874522D02*
X-652526Y-873506D01*
X-651510D01*
X-652526Y-872490D01*
X-651510Y-871474D01*
X-652526D01*
X-653542Y-870458D01*
X-654558Y-871474D01*
X-655574D01*
X-654558Y-872490D01*
X-655574Y-873506D01*
X-654558D01*
X-653542Y-874522D01*
X-621030Y-481330D02*
X-620014Y-480314D01*
X-618998D01*
X-620014Y-479298D01*
X-618998Y-478282D01*
X-620014D01*
X-621030Y-477266D01*
X-622046Y-478282D01*
X-623062D01*
X-622046Y-479298D01*
X-623062Y-480314D01*
X-622046D01*
X-621030Y-481330D01*
X-617728Y-499364D02*
X-616712Y-498348D01*
X-615696D01*
X-616712Y-497332D01*
X-615696Y-496316D01*
X-616712D01*
X-617728Y-495300D01*
X-618744Y-496316D01*
X-619760D01*
X-618744Y-497332D01*
X-619760Y-498348D01*
X-618744D01*
X-617728Y-499364D01*
X-625094Y-506984D02*
X-624078Y-505968D01*
X-623062D01*
X-624078Y-504952D01*
X-623062Y-503936D01*
X-624078D01*
X-625094Y-502920D01*
X-626110Y-503936D01*
X-627126D01*
X-626110Y-504952D01*
X-627126Y-505968D01*
X-626110D01*
X-625094Y-506984D01*
X-631444Y-515366D02*
X-630428Y-514350D01*
X-629412D01*
X-630428Y-513334D01*
X-629412Y-512318D01*
X-630428D01*
X-631444Y-511302D01*
X-632460Y-512318D01*
X-633476D01*
X-632460Y-513334D01*
X-633476Y-514350D01*
X-632460D01*
X-631444Y-515366D01*
X-633730Y-525018D02*
X-632714Y-524002D01*
X-631698D01*
X-632714Y-522986D01*
X-631698Y-521970D01*
X-632714D01*
X-633730Y-520954D01*
X-634746Y-521970D01*
X-635762D01*
X-634746Y-522986D01*
X-635762Y-524002D01*
X-634746D01*
X-633730Y-525018D01*
X-663194Y-679704D02*
X-662178Y-678688D01*
X-661162D01*
X-662178Y-677672D01*
X-661162Y-676656D01*
X-662178D01*
X-663194Y-675640D01*
X-664210Y-676656D01*
X-665226D01*
X-664210Y-677672D01*
X-665226Y-678688D01*
X-664210D01*
X-663194Y-679704D01*
X-665734Y-661162D02*
X-664718Y-660146D01*
X-663702D01*
X-664718Y-659130D01*
X-663702Y-658114D01*
X-664718D01*
X-665734Y-657098D01*
X-666750Y-658114D01*
X-667766D01*
X-666750Y-659130D01*
X-667766Y-660146D01*
X-666750D01*
X-665734Y-661162D01*
X-665480Y-669798D02*
X-664464Y-668782D01*
X-663448D01*
X-664464Y-667766D01*
X-663448Y-666750D01*
X-664464D01*
X-665480Y-665734D01*
X-666496Y-666750D01*
X-667512D01*
X-666496Y-667766D01*
X-667512Y-668782D01*
X-666496D01*
X-665480Y-669798D01*
X-332613Y-260213D02*
X-331597Y-259197D01*
X-330581D01*
X-331597Y-258181D01*
X-330581Y-257165D01*
X-331597D01*
X-332613Y-256149D01*
X-333629Y-257165D01*
X-334645D01*
X-333629Y-258181D01*
X-334645Y-259197D01*
X-333629D01*
X-332613Y-260213D01*
X-278130Y-260721D02*
X-277114Y-259705D01*
X-276098D01*
X-277114Y-258689D01*
X-276098Y-257673D01*
X-277114D01*
X-278130Y-256657D01*
X-279146Y-257673D01*
X-280162D01*
X-279146Y-258689D01*
X-280162Y-259705D01*
X-279146D01*
X-278130Y-260721D01*
X-221107Y-260213D02*
X-220091Y-259197D01*
X-219075D01*
X-220091Y-258181D01*
X-219075Y-257165D01*
X-220091D01*
X-221107Y-256149D01*
X-222123Y-257165D01*
X-223139D01*
X-222123Y-258181D01*
X-223139Y-259197D01*
X-222123D01*
X-221107Y-260213D01*
X-220726Y-309880D02*
X-219710Y-308864D01*
X-218694D01*
X-219710Y-307848D01*
X-218694Y-306832D01*
X-219710D01*
X-220726Y-305816D01*
X-221742Y-306832D01*
X-222758D01*
X-221742Y-307848D01*
X-222758Y-308864D01*
X-221742D01*
X-220726Y-309880D01*
X-332486Y-310134D02*
X-331470Y-309118D01*
X-330454D01*
X-331470Y-308102D01*
X-330454Y-307086D01*
X-331470D01*
X-332486Y-306070D01*
X-333502Y-307086D01*
X-334518D01*
X-333502Y-308102D01*
X-334518Y-309118D01*
X-333502D01*
X-332486Y-310134D01*
X-794258Y-482092D02*
X-793242Y-481076D01*
X-792226D01*
X-793242Y-480060D01*
X-792226Y-479044D01*
X-793242D01*
X-794258Y-478028D01*
X-795274Y-479044D01*
X-796290D01*
X-795274Y-480060D01*
X-796290Y-481076D01*
X-795274D01*
X-794258Y-482092D01*
X-796036Y-496824D02*
X-795020Y-495808D01*
X-794004D01*
X-795020Y-494792D01*
X-794004Y-493776D01*
X-795020D01*
X-796036Y-492760D01*
X-797052Y-493776D01*
X-798068D01*
X-797052Y-494792D01*
X-798068Y-495808D01*
X-797052D01*
X-796036Y-496824D01*
X-794512Y-509778D02*
X-793496Y-508762D01*
X-792480D01*
X-793496Y-507746D01*
X-792480Y-506730D01*
X-793496D01*
X-794512Y-505714D01*
X-795528Y-506730D01*
X-796544D01*
X-795528Y-507746D01*
X-796544Y-508762D01*
X-795528D01*
X-794512Y-509778D01*
X-794258Y-522224D02*
X-793242Y-521208D01*
X-792226D01*
X-793242Y-520192D01*
X-792226Y-519176D01*
X-793242D01*
X-794258Y-518160D01*
X-795274Y-519176D01*
X-796290D01*
X-795274Y-520192D01*
X-796290Y-521208D01*
X-795274D01*
X-794258Y-522224D01*
X-796036Y-547878D02*
X-795020Y-546862D01*
X-794004D01*
X-795020Y-545846D01*
X-794004Y-544830D01*
X-795020D01*
X-796036Y-543814D01*
X-797052Y-544830D01*
X-798068D01*
X-797052Y-545846D01*
X-798068Y-546862D01*
X-797052D01*
X-796036Y-547878D01*
Y-562102D02*
X-795020Y-561086D01*
X-794004D01*
X-795020Y-560070D01*
X-794004Y-559054D01*
X-795020D01*
X-796036Y-558038D01*
X-797052Y-559054D01*
X-798068D01*
X-797052Y-560070D01*
X-798068Y-561086D01*
X-797052D01*
X-796036Y-562102D01*
X-796544Y-572770D02*
X-795528Y-571754D01*
X-794512D01*
X-795528Y-570738D01*
X-794512Y-569722D01*
X-795528D01*
X-796544Y-568706D01*
X-797560Y-569722D01*
X-798576D01*
X-797560Y-570738D01*
X-798576Y-571754D01*
X-797560D01*
X-796544Y-572770D01*
X-796290Y-585470D02*
X-795274Y-584454D01*
X-794258D01*
X-795274Y-583438D01*
X-794258Y-582422D01*
X-795274D01*
X-796290Y-581406D01*
X-797306Y-582422D01*
X-798322D01*
X-797306Y-583438D01*
X-798322Y-584454D01*
X-797306D01*
X-796290Y-585470D01*
X-796544Y-623570D02*
X-795528Y-622554D01*
X-794512D01*
X-795528Y-621538D01*
X-794512Y-620522D01*
X-795528D01*
X-796544Y-619506D01*
X-797560Y-620522D01*
X-798576D01*
X-797560Y-621538D01*
X-798576Y-622554D01*
X-797560D01*
X-796544Y-623570D01*
X-796290Y-610870D02*
X-795274Y-609854D01*
X-794258D01*
X-795274Y-608838D01*
X-794258Y-607822D01*
X-795274D01*
X-796290Y-606806D01*
X-797306Y-607822D01*
X-798322D01*
X-797306Y-608838D01*
X-798322Y-609854D01*
X-797306D01*
X-796290Y-610870D01*
X-411988Y-1093216D02*
X-410972Y-1092200D01*
X-409956D01*
X-410972Y-1091184D01*
X-409956Y-1090168D01*
X-410972D01*
X-411988Y-1089152D01*
X-413004Y-1090168D01*
X-414020D01*
X-413004Y-1091184D01*
X-414020Y-1092200D01*
X-413004D01*
X-411988Y-1093216D01*
X-431292Y-1083310D02*
X-430276Y-1082294D01*
X-429260D01*
X-430276Y-1081278D01*
X-429260Y-1080262D01*
X-430276D01*
X-431292Y-1079246D01*
X-432308Y-1080262D01*
X-433324D01*
X-432308Y-1081278D01*
X-433324Y-1082294D01*
X-432308D01*
X-431292Y-1083310D01*
X-420878Y-1133348D02*
X-419862Y-1132332D01*
X-418846D01*
X-419862Y-1131316D01*
X-418846Y-1130300D01*
X-419862D01*
X-420878Y-1129284D01*
X-421894Y-1130300D01*
X-422910D01*
X-421894Y-1131316D01*
X-422910Y-1132332D01*
X-421894D01*
X-420878Y-1133348D01*
X-427942Y-1124156D02*
X-426926Y-1123140D01*
X-425910D01*
X-426926Y-1122124D01*
X-425910Y-1121108D01*
X-426926D01*
X-427942Y-1120092D01*
X-428958Y-1121108D01*
X-429974D01*
X-428958Y-1122124D01*
X-429974Y-1123140D01*
X-428958D01*
X-427942Y-1124156D01*
X-419100Y-850392D02*
X-418084Y-849376D01*
X-417068D01*
X-418084Y-848360D01*
X-417068Y-847344D01*
X-418084D01*
X-419100Y-846328D01*
X-420116Y-847344D01*
X-421132D01*
X-420116Y-848360D01*
X-421132Y-849376D01*
X-420116D01*
X-419100Y-850392D01*
X-426720D02*
X-425704Y-849376D01*
X-424688D01*
X-425704Y-848360D01*
X-424688Y-847344D01*
X-425704D01*
X-426720Y-846328D01*
X-427736Y-847344D01*
X-428752D01*
X-427736Y-848360D01*
X-428752Y-849376D01*
X-427736D01*
X-426720Y-850392D01*
X-458216Y-796036D02*
X-457200Y-795020D01*
X-456184D01*
X-457200Y-794004D01*
X-456184Y-792988D01*
X-457200D01*
X-458216Y-791972D01*
X-459232Y-792988D01*
X-460248D01*
X-459232Y-794004D01*
X-460248Y-795020D01*
X-459232D01*
X-458216Y-796036D01*
X-452120Y-542544D02*
X-451104Y-541528D01*
X-450088D01*
X-451104Y-540512D01*
X-450088Y-539496D01*
X-451104D01*
X-452120Y-538480D01*
X-453136Y-539496D01*
X-454152D01*
X-453136Y-540512D01*
X-454152Y-541528D01*
X-453136D01*
X-452120Y-542544D01*
X-280670Y-878078D02*
X-279654Y-877062D01*
X-278638D01*
X-279654Y-876046D01*
X-278638Y-875030D01*
X-279654D01*
X-280670Y-874014D01*
X-281686Y-875030D01*
X-282702D01*
X-281686Y-876046D01*
X-282702Y-877062D01*
X-281686D01*
X-280670Y-878078D01*
X-305562Y-912622D02*
X-304546Y-911606D01*
X-303530D01*
X-304546Y-910590D01*
X-303530Y-909574D01*
X-304546D01*
X-305562Y-908558D01*
X-306578Y-909574D01*
X-307594D01*
X-306578Y-910590D01*
X-307594Y-911606D01*
X-306578D01*
X-305562Y-912622D01*
X-296672Y-921512D02*
X-295656Y-920496D01*
X-294640D01*
X-295656Y-919480D01*
X-294640Y-918464D01*
X-295656D01*
X-296672Y-917448D01*
X-297688Y-918464D01*
X-298704D01*
X-297688Y-919480D01*
X-298704Y-920496D01*
X-297688D01*
X-296672Y-921512D01*
X-477520Y-904240D02*
X-476504Y-903224D01*
X-475488D01*
X-476504Y-902208D01*
X-475488Y-901192D01*
X-476504D01*
X-477520Y-900176D01*
X-478536Y-901192D01*
X-479552D01*
X-478536Y-902208D01*
X-479552Y-903224D01*
X-478536D01*
X-477520Y-904240D01*
X-474726Y-894842D02*
X-473710Y-893826D01*
X-472694D01*
X-473710Y-892810D01*
X-472694Y-891794D01*
X-473710D01*
X-474726Y-890778D01*
X-475742Y-891794D01*
X-476758D01*
X-475742Y-892810D01*
X-476758Y-893826D01*
X-475742D01*
X-474726Y-894842D01*
X-483616Y-880364D02*
X-482600Y-879348D01*
X-481584D01*
X-482600Y-878332D01*
X-481584Y-877316D01*
X-482600D01*
X-483616Y-876300D01*
X-484632Y-877316D01*
X-485648D01*
X-484632Y-878332D01*
X-485648Y-879348D01*
X-484632D01*
X-483616Y-880364D01*
X-314452Y-900430D02*
X-313436Y-899414D01*
X-312420D01*
X-313436Y-898398D01*
X-312420Y-897382D01*
X-313436D01*
X-314452Y-896366D01*
X-315468Y-897382D01*
X-316484D01*
X-315468Y-898398D01*
X-316484Y-899414D01*
X-315468D01*
X-314452Y-900430D01*
X-557784Y-847852D02*
X-556768Y-846836D01*
X-555752D01*
X-556768Y-845820D01*
X-555752Y-844804D01*
X-556768D01*
X-557784Y-843788D01*
X-558800Y-844804D01*
X-559816D01*
X-558800Y-845820D01*
X-559816Y-846836D01*
X-558800D01*
X-557784Y-847852D01*
X-559308Y-921512D02*
X-558292Y-920496D01*
X-557276D01*
X-558292Y-919480D01*
X-557276Y-918464D01*
X-558292D01*
X-559308Y-917448D01*
X-560324Y-918464D01*
X-561340D01*
X-560324Y-919480D01*
X-561340Y-920496D01*
X-560324D01*
X-559308Y-921512D01*
X-565912Y-912876D02*
X-564896Y-911860D01*
X-563880D01*
X-564896Y-910844D01*
X-563880Y-909828D01*
X-564896D01*
X-565912Y-908812D01*
X-566928Y-909828D01*
X-567944D01*
X-566928Y-910844D01*
X-567944Y-911860D01*
X-566928D01*
X-565912Y-912876D01*
X-568198Y-929640D02*
X-567182Y-928624D01*
X-566166D01*
X-567182Y-927608D01*
X-566166Y-926592D01*
X-567182D01*
X-568198Y-925576D01*
X-569214Y-926592D01*
X-570230D01*
X-569214Y-927608D01*
X-570230Y-928624D01*
X-569214D01*
X-568198Y-929640D01*
X-541782Y-847344D02*
X-540766Y-846328D01*
X-539750D01*
X-540766Y-845312D01*
X-539750Y-844296D01*
X-540766D01*
X-541782Y-843280D01*
X-542798Y-844296D01*
X-543814D01*
X-542798Y-845312D01*
X-543814Y-846328D01*
X-542798D01*
X-541782Y-847344D01*
X-542036Y-917194D02*
X-541020Y-916178D01*
X-540004D01*
X-541020Y-915162D01*
X-540004Y-914146D01*
X-541020D01*
X-542036Y-913130D01*
X-543052Y-914146D01*
X-544068D01*
X-543052Y-915162D01*
X-544068Y-916178D01*
X-543052D01*
X-542036Y-917194D01*
X-607822Y-724916D02*
X-606806Y-723900D01*
X-605790D01*
X-606806Y-722884D01*
X-605790Y-721868D01*
X-606806D01*
X-607822Y-720852D01*
X-608838Y-721868D01*
X-609854D01*
X-608838Y-722884D01*
X-609854Y-723900D01*
X-608838D01*
X-607822Y-724916D01*
X-589534Y-748538D02*
X-588518Y-747522D01*
X-587502D01*
X-588518Y-746506D01*
X-587502Y-745490D01*
X-588518D01*
X-589534Y-744474D01*
X-590550Y-745490D01*
X-591566D01*
X-590550Y-746506D01*
X-591566Y-747522D01*
X-590550D01*
X-589534Y-748538D01*
X-470408Y-506730D02*
X-469392Y-505714D01*
X-468376D01*
X-469392Y-504698D01*
X-468376Y-503682D01*
X-469392D01*
X-470408Y-502666D01*
X-471424Y-503682D01*
X-472440D01*
X-471424Y-504698D01*
X-472440Y-505714D01*
X-471424D01*
X-470408Y-506730D01*
X-195326Y-949960D02*
X-194310Y-948944D01*
X-193294D01*
X-194310Y-947928D01*
X-193294Y-946912D01*
X-194310D01*
X-195326Y-945896D01*
X-196342Y-946912D01*
X-197358D01*
X-196342Y-947928D01*
X-197358Y-948944D01*
X-196342D01*
X-195326Y-949960D01*
X-223266Y-949706D02*
X-222250Y-948690D01*
X-221234D01*
X-222250Y-947674D01*
X-221234Y-946658D01*
X-222250D01*
X-223266Y-945642D01*
X-224282Y-946658D01*
X-225298D01*
X-224282Y-947674D01*
X-225298Y-948690D01*
X-224282D01*
X-223266Y-949706D01*
X-210820Y-951738D02*
X-209804Y-950722D01*
X-208788D01*
X-209804Y-949706D01*
X-208788Y-948690D01*
X-209804D01*
X-210820Y-947674D01*
X-211836Y-948690D01*
X-212852D01*
X-211836Y-949706D01*
X-212852Y-950722D01*
X-211836D01*
X-210820Y-951738D01*
X-571246Y-677672D02*
X-570230Y-676656D01*
X-569214D01*
X-570230Y-675640D01*
X-569214Y-674624D01*
X-570230D01*
X-571246Y-673608D01*
X-572262Y-674624D01*
X-573278D01*
X-572262Y-675640D01*
X-573278Y-676656D01*
X-572262D01*
X-571246Y-677672D01*
X-279146Y-890524D02*
X-278130Y-889508D01*
X-277114D01*
X-278130Y-888492D01*
X-277114Y-887476D01*
X-278130D01*
X-279146Y-886460D01*
X-280162Y-887476D01*
X-281178D01*
X-280162Y-888492D01*
X-281178Y-889508D01*
X-280162D01*
X-279146Y-890524D01*
X-596646Y-741680D02*
X-595630Y-740664D01*
X-594614D01*
X-595630Y-739648D01*
X-594614Y-738632D01*
X-595630D01*
X-596646Y-737616D01*
X-597662Y-738632D01*
X-598678D01*
X-597662Y-739648D01*
X-598678Y-740664D01*
X-597662D01*
X-596646Y-741680D01*
X-600964Y-733298D02*
X-599948Y-732282D01*
X-598932D01*
X-599948Y-731266D01*
X-598932Y-730250D01*
X-599948D01*
X-600964Y-729234D01*
X-601980Y-730250D01*
X-602996D01*
X-601980Y-731266D01*
X-602996Y-732282D01*
X-601980D01*
X-600964Y-733298D01*
X-613918Y-717042D02*
X-612902Y-716026D01*
X-611886D01*
X-612902Y-715010D01*
X-611886Y-713994D01*
X-612902D01*
X-613918Y-712978D01*
X-614934Y-713994D01*
X-615950D01*
X-614934Y-715010D01*
X-615950Y-716026D01*
X-614934D01*
X-613918Y-717042D01*
X-618490Y-704596D02*
X-617474Y-703580D01*
X-616458D01*
X-617474Y-702564D01*
X-616458Y-701548D01*
X-617474D01*
X-618490Y-700532D01*
X-619506Y-701548D01*
X-620522D01*
X-619506Y-702564D01*
X-620522Y-703580D01*
X-619506D01*
X-618490Y-704596D01*
X-623824Y-696214D02*
X-622808Y-695198D01*
X-621792D01*
X-622808Y-694182D01*
X-621792Y-693166D01*
X-622808D01*
X-623824Y-692150D01*
X-624840Y-693166D01*
X-625856D01*
X-624840Y-694182D01*
X-625856Y-695198D01*
X-624840D01*
X-623824Y-696214D01*
X-628650Y-688848D02*
X-627634Y-687832D01*
X-626618D01*
X-627634Y-686816D01*
X-626618Y-685800D01*
X-627634D01*
X-628650Y-684784D01*
X-629666Y-685800D01*
X-630682D01*
X-629666Y-686816D01*
X-630682Y-687832D01*
X-629666D01*
X-628650Y-688848D01*
X-616204Y-678688D02*
X-615188Y-677672D01*
X-614172D01*
X-615188Y-676656D01*
X-614172Y-675640D01*
X-615188D01*
X-616204Y-674624D01*
X-617220Y-675640D01*
X-618236D01*
X-617220Y-676656D01*
X-618236Y-677672D01*
X-617220D01*
X-616204Y-678688D01*
X-591312Y-686562D02*
X-590296Y-685546D01*
X-589280D01*
X-590296Y-684530D01*
X-589280Y-683514D01*
X-590296D01*
X-591312Y-682498D01*
X-592328Y-683514D01*
X-593344D01*
X-592328Y-684530D01*
X-593344Y-685546D01*
X-592328D01*
X-591312Y-686562D01*
X-613664Y-1038098D02*
X-612648Y-1037082D01*
X-611632D01*
X-612648Y-1036066D01*
X-611632Y-1035050D01*
X-612648D01*
X-613664Y-1034034D01*
X-614680Y-1035050D01*
X-615696D01*
X-614680Y-1036066D01*
X-615696Y-1037082D01*
X-614680D01*
X-613664Y-1038098D01*
X-613156Y-1027938D02*
X-612140Y-1026922D01*
X-611124D01*
X-612140Y-1025906D01*
X-611124Y-1024890D01*
X-612140D01*
X-613156Y-1023874D01*
X-614172Y-1024890D01*
X-615188D01*
X-614172Y-1025906D01*
X-615188Y-1026922D01*
X-614172D01*
X-613156Y-1027938D01*
X-612648Y-1018032D02*
X-611632Y-1017016D01*
X-610616D01*
X-611632Y-1016000D01*
X-610616Y-1014984D01*
X-611632D01*
X-612648Y-1013968D01*
X-613664Y-1014984D01*
X-614680D01*
X-613664Y-1016000D01*
X-614680Y-1017016D01*
X-613664D01*
X-612648Y-1018032D01*
X-611696Y-1006538D02*
X-610680Y-1005523D01*
X-609664D01*
X-610680Y-1004507D01*
X-609664Y-1003491D01*
X-610680D01*
X-611696Y-1002475D01*
X-612711Y-1003491D01*
X-613727D01*
X-612711Y-1004507D01*
X-613727Y-1005523D01*
X-612711D01*
X-611696Y-1006538D01*
X-343662Y-1052068D02*
X-342646Y-1051052D01*
X-341630D01*
X-342646Y-1050036D01*
X-341630Y-1049020D01*
X-342646D01*
X-343662Y-1048004D01*
X-344678Y-1049020D01*
X-345694D01*
X-344678Y-1050036D01*
X-345694Y-1051052D01*
X-344678D01*
X-343662Y-1052068D01*
X-466598Y-1110488D02*
X-465582Y-1109472D01*
X-464566D01*
X-465582Y-1108456D01*
X-464566Y-1107440D01*
X-465582D01*
X-466598Y-1106424D01*
X-467614Y-1107440D01*
X-468630D01*
X-467614Y-1108456D01*
X-468630Y-1109472D01*
X-467614D01*
X-466598Y-1110488D01*
X-476250D02*
X-475234Y-1109472D01*
X-474218D01*
X-475234Y-1108456D01*
X-474218Y-1107440D01*
X-475234D01*
X-476250Y-1106424D01*
X-477266Y-1107440D01*
X-478282D01*
X-477266Y-1108456D01*
X-478282Y-1109472D01*
X-477266D01*
X-476250Y-1110488D01*
X-485902D02*
X-484886Y-1109472D01*
X-483870D01*
X-484886Y-1108456D01*
X-483870Y-1107440D01*
X-484886D01*
X-485902Y-1106424D01*
X-486918Y-1107440D01*
X-487934D01*
X-486918Y-1108456D01*
X-487934Y-1109472D01*
X-486918D01*
X-485902Y-1110488D01*
X-495554D02*
X-494538Y-1109472D01*
X-493522D01*
X-494538Y-1108456D01*
X-493522Y-1107440D01*
X-494538D01*
X-495554Y-1106424D01*
X-496570Y-1107440D01*
X-497586D01*
X-496570Y-1108456D01*
X-497586Y-1109472D01*
X-496570D01*
X-495554Y-1110488D01*
X-505206D02*
X-504190Y-1109472D01*
X-503174D01*
X-504190Y-1108456D01*
X-503174Y-1107440D01*
X-504190D01*
X-505206Y-1106424D01*
X-506222Y-1107440D01*
X-507238D01*
X-506222Y-1108456D01*
X-507238Y-1109472D01*
X-506222D01*
X-505206Y-1110488D01*
X-566928Y-1004316D02*
X-565912Y-1003300D01*
X-564896D01*
X-565912Y-1002284D01*
X-564896Y-1001268D01*
X-565912D01*
X-566928Y-1000252D01*
X-567944Y-1001268D01*
X-568960D01*
X-567944Y-1002284D01*
X-568960Y-1003300D01*
X-567944D01*
X-566928Y-1004316D01*
X-606298Y-1074166D02*
X-605282Y-1073150D01*
X-604266D01*
X-605282Y-1072134D01*
X-604266Y-1071118D01*
X-605282D01*
X-606298Y-1070102D01*
X-607314Y-1071118D01*
X-608330D01*
X-607314Y-1072134D01*
X-608330Y-1073150D01*
X-607314D01*
X-606298Y-1074166D01*
X-606806Y-1063244D02*
X-605790Y-1062228D01*
X-604774D01*
X-605790Y-1061212D01*
X-604774Y-1060196D01*
X-605790D01*
X-606806Y-1059180D01*
X-607822Y-1060196D01*
X-608838D01*
X-607822Y-1061212D01*
X-608838Y-1062228D01*
X-607822D01*
X-606806Y-1063244D01*
X-120574Y-94516D02*
Y-95532D01*
X-118542D01*
Y-94516D01*
X-117526D01*
Y-92484D01*
X-118542D01*
Y-91468D01*
X-120574D01*
Y-92484D01*
X-121590D01*
Y-94516D01*
X-120574D01*
X-868426Y-579882D02*
X-867410Y-578866D01*
X-866394D01*
X-867410Y-577850D01*
X-866394Y-576834D01*
X-867410D01*
X-868426Y-575818D01*
X-869442Y-576834D01*
X-870458D01*
X-869442Y-577850D01*
X-870458Y-578866D01*
X-869442D01*
X-868426Y-579882D01*
X-927608Y-593090D02*
X-926592Y-592074D01*
X-925576D01*
X-926592Y-591058D01*
X-925576Y-590042D01*
X-926592D01*
X-927608Y-589026D01*
X-928624Y-590042D01*
X-929640D01*
X-928624Y-591058D01*
X-929640Y-592074D01*
X-928624D01*
X-927608Y-593090D01*
X-868426Y-587502D02*
X-867410Y-586486D01*
X-866394D01*
X-867410Y-585470D01*
X-866394Y-584454D01*
X-867410D01*
X-868426Y-583438D01*
X-869442Y-584454D01*
X-870458D01*
X-869442Y-585470D01*
X-870458Y-586486D01*
X-869442D01*
X-868426Y-587502D01*
X-881888Y-591058D02*
X-880872Y-590042D01*
X-879856D01*
X-880872Y-589026D01*
X-879856Y-588010D01*
X-880872D01*
X-881888Y-586994D01*
X-882904Y-588010D01*
X-883920D01*
X-882904Y-589026D01*
X-883920Y-590042D01*
X-882904D01*
X-881888Y-591058D01*
X-927608Y-599186D02*
X-926592Y-598170D01*
X-925576D01*
X-926592Y-597154D01*
X-925576Y-596138D01*
X-926592D01*
X-927608Y-595122D01*
X-928624Y-596138D01*
X-929640D01*
X-928624Y-597154D01*
X-929640Y-598170D01*
X-928624D01*
X-927608Y-599186D01*
X-162306Y-1086866D02*
X-161290Y-1085850D01*
X-160274D01*
X-161290Y-1084834D01*
X-160274Y-1083818D01*
X-161290D01*
X-162306Y-1082802D01*
X-163322Y-1083818D01*
X-164338D01*
X-163322Y-1084834D01*
X-164338Y-1085850D01*
X-163322D01*
X-162306Y-1086866D01*
X-105410Y-1092454D02*
X-104394Y-1091438D01*
X-103378D01*
X-104394Y-1090422D01*
X-103378Y-1089406D01*
X-104394D01*
X-105410Y-1088390D01*
X-106426Y-1089406D01*
X-107442D01*
X-106426Y-1090422D01*
X-107442Y-1091438D01*
X-106426D01*
X-105410Y-1092454D01*
X-84582Y-1092200D02*
X-83566Y-1091184D01*
X-82550D01*
X-83566Y-1090168D01*
X-82550Y-1089152D01*
X-83566D01*
X-84582Y-1088136D01*
X-85598Y-1089152D01*
X-86614D01*
X-85598Y-1090168D01*
X-86614Y-1091184D01*
X-85598D01*
X-84582Y-1092200D01*
X-95250Y-1101344D02*
X-94234Y-1100328D01*
X-93218D01*
X-94234Y-1099312D01*
X-93218Y-1098296D01*
X-94234D01*
X-95250Y-1097280D01*
X-96266Y-1098296D01*
X-97282D01*
X-96266Y-1099312D01*
X-97282Y-1100328D01*
X-96266D01*
X-95250Y-1101344D01*
X-138176Y-1073658D02*
X-137160Y-1072642D01*
X-136144D01*
X-137160Y-1071626D01*
X-136144Y-1070610D01*
X-137160D01*
X-138176Y-1069594D01*
X-139192Y-1070610D01*
X-140208D01*
X-139192Y-1071626D01*
X-140208Y-1072642D01*
X-139192D01*
X-138176Y-1073658D01*
X-478790Y-930148D02*
X-477774Y-929132D01*
X-476758D01*
X-477774Y-928116D01*
X-476758Y-927100D01*
X-477774D01*
X-478790Y-926084D01*
X-479806Y-927100D01*
X-480822D01*
X-479806Y-928116D01*
X-480822Y-929132D01*
X-479806D01*
X-478790Y-930148D01*
X-470408Y-937514D02*
X-469392Y-936498D01*
X-468376D01*
X-469392Y-935482D01*
X-468376Y-934466D01*
X-469392D01*
X-470408Y-933450D01*
X-471424Y-934466D01*
X-472440D01*
X-471424Y-935482D01*
X-472440Y-936498D01*
X-471424D01*
X-470408Y-937514D01*
X-389382Y-1011936D02*
X-388366Y-1010920D01*
X-387350D01*
X-388366Y-1009904D01*
X-387350Y-1008888D01*
X-388366D01*
X-389382Y-1007872D01*
X-390398Y-1008888D01*
X-391414D01*
X-390398Y-1009904D01*
X-391414Y-1010920D01*
X-390398D01*
X-389382Y-1011936D01*
X-386080Y-1002792D02*
X-385064Y-1001776D01*
X-384048D01*
X-385064Y-1000760D01*
X-384048Y-999744D01*
X-385064D01*
X-386080Y-998728D01*
X-387096Y-999744D01*
X-388112D01*
X-387096Y-1000760D01*
X-388112Y-1001776D01*
X-387096D01*
X-386080Y-1002792D01*
X-750406Y-151828D02*
X-752438Y-147764D01*
X-748374D01*
X-750406Y-151828D01*
X-759206Y-953008D02*
X-758190Y-951992D01*
X-757174D01*
X-758190Y-950976D01*
X-757174Y-949960D01*
X-758190D01*
X-759206Y-948944D01*
X-760222Y-949960D01*
X-761238D01*
X-760222Y-950976D01*
X-761238Y-951992D01*
X-760222D01*
X-759206Y-953008D01*
Y-945896D02*
X-758190Y-944880D01*
X-757174D01*
X-758190Y-943864D01*
X-757174Y-942848D01*
X-758190D01*
X-759206Y-941832D01*
X-760222Y-942848D01*
X-761238D01*
X-760222Y-943864D01*
X-761238Y-944880D01*
X-760222D01*
X-759206Y-945896D01*
X-758698Y-939546D02*
X-757682Y-938530D01*
X-756666D01*
X-757682Y-937514D01*
X-756666Y-936498D01*
X-757682D01*
X-758698Y-935482D01*
X-759714Y-936498D01*
X-760730D01*
X-759714Y-937514D01*
X-760730Y-938530D01*
X-759714D01*
X-758698Y-939546D01*
X-796544Y-956818D02*
X-795528Y-955802D01*
X-794512D01*
X-795528Y-954786D01*
X-794512Y-953770D01*
X-795528D01*
X-796544Y-952754D01*
X-797560Y-953770D01*
X-798576D01*
X-797560Y-954786D01*
X-798576Y-955802D01*
X-797560D01*
X-796544Y-956818D01*
Y-949198D02*
X-795528Y-948182D01*
X-794512D01*
X-795528Y-947166D01*
X-794512Y-946150D01*
X-795528D01*
X-796544Y-945134D01*
X-797560Y-946150D01*
X-798576D01*
X-797560Y-947166D01*
X-798576Y-948182D01*
X-797560D01*
X-796544Y-949198D01*
Y-942086D02*
X-795528Y-941070D01*
X-794512D01*
X-795528Y-940054D01*
X-794512Y-939038D01*
X-795528D01*
X-796544Y-938022D01*
X-797560Y-939038D01*
X-798576D01*
X-797560Y-940054D01*
X-798576Y-941070D01*
X-797560D01*
X-796544Y-942086D01*
X-832358Y-955040D02*
X-831342Y-954024D01*
X-830326D01*
X-831342Y-953008D01*
X-830326Y-951992D01*
X-831342D01*
X-832358Y-950976D01*
X-833374Y-951992D01*
X-834390D01*
X-833374Y-953008D01*
X-834390Y-954024D01*
X-833374D01*
X-832358Y-955040D01*
Y-948436D02*
X-831342Y-947420D01*
X-830326D01*
X-831342Y-946404D01*
X-830326Y-945388D01*
X-831342D01*
X-832358Y-944372D01*
X-833374Y-945388D01*
X-834390D01*
X-833374Y-946404D01*
X-834390Y-947420D01*
X-833374D01*
X-832358Y-948436D01*
Y-941324D02*
X-831342Y-940308D01*
X-830326D01*
X-831342Y-939292D01*
X-830326Y-938276D01*
X-831342D01*
X-832358Y-937260D01*
X-833374Y-938276D01*
X-834390D01*
X-833374Y-939292D01*
X-834390Y-940308D01*
X-833374D01*
X-832358Y-941324D01*
X-879856Y-749046D02*
X-878840Y-748030D01*
X-877824D01*
X-878840Y-747014D01*
X-877824Y-745998D01*
X-878840D01*
X-879856Y-744982D01*
X-880872Y-745998D01*
X-881888D01*
X-880872Y-747014D01*
X-881888Y-748030D01*
X-880872D01*
X-879856Y-749046D01*
X-883666Y-413258D02*
X-882650Y-412242D01*
X-881634D01*
X-882650Y-411226D01*
X-881634Y-410210D01*
X-882650D01*
X-883666Y-409194D01*
X-884682Y-410210D01*
X-885698D01*
X-884682Y-411226D01*
X-885698Y-412242D01*
X-884682D01*
X-883666Y-413258D01*
X-930656Y-396748D02*
X-929640Y-395732D01*
X-928624D01*
X-929640Y-394716D01*
X-928624Y-393700D01*
X-929640D01*
X-930656Y-392684D01*
X-931672Y-393700D01*
X-932688D01*
X-931672Y-394716D01*
X-932688Y-395732D01*
X-931672D01*
X-930656Y-396748D01*
X-928624Y-414020D02*
X-927608Y-413004D01*
X-926592D01*
X-927608Y-411988D01*
X-926592Y-410972D01*
X-927608D01*
X-928624Y-409956D01*
X-929640Y-410972D01*
X-930656D01*
X-929640Y-411988D01*
X-930656Y-413004D01*
X-929640D01*
X-928624Y-414020D01*
X-928878Y-420370D02*
X-927862Y-419354D01*
X-926846D01*
X-927862Y-418338D01*
X-926846Y-417322D01*
X-927862D01*
X-928878Y-416306D01*
X-929894Y-417322D01*
X-930910D01*
X-929894Y-418338D01*
X-930910Y-419354D01*
X-929894D01*
X-928878Y-420370D01*
Y-426466D02*
X-927862Y-425450D01*
X-926846D01*
X-927862Y-424434D01*
X-926846Y-423418D01*
X-927862D01*
X-928878Y-422402D01*
X-929894Y-423418D01*
X-930910D01*
X-929894Y-424434D01*
X-930910Y-425450D01*
X-929894D01*
X-928878Y-426466D01*
X-906526Y-366522D02*
X-905510Y-365506D01*
X-904494D01*
X-905510Y-364490D01*
X-904494Y-363474D01*
X-905510D01*
X-906526Y-362458D01*
X-907542Y-363474D01*
X-908558D01*
X-907542Y-364490D01*
X-908558Y-365506D01*
X-907542D01*
X-906526Y-366522D01*
X-913638D02*
X-912622Y-365506D01*
X-911606D01*
X-912622Y-364490D01*
X-911606Y-363474D01*
X-912622D01*
X-913638Y-362458D01*
X-914654Y-363474D01*
X-915670D01*
X-914654Y-364490D01*
X-915670Y-365506D01*
X-914654D01*
X-913638Y-366522D01*
X-920496D02*
X-919480Y-365506D01*
X-918464D01*
X-919480Y-364490D01*
X-918464Y-363474D01*
X-919480D01*
X-920496Y-362458D01*
X-921512Y-363474D01*
X-922528D01*
X-921512Y-364490D01*
X-922528Y-365506D01*
X-921512D01*
X-920496Y-366522D01*
X-899414D02*
X-898398Y-365506D01*
X-897382D01*
X-898398Y-364490D01*
X-897382Y-363474D01*
X-898398D01*
X-899414Y-362458D01*
X-900430Y-363474D01*
X-901446D01*
X-900430Y-364490D01*
X-901446Y-365506D01*
X-900430D01*
X-899414Y-366522D01*
X-905256Y-545592D02*
X-904240Y-544576D01*
X-903224D01*
X-904240Y-543560D01*
X-903224Y-542544D01*
X-904240D01*
X-905256Y-541528D01*
X-906272Y-542544D01*
X-907288D01*
X-906272Y-543560D01*
X-907288Y-544576D01*
X-906272D01*
X-905256Y-545592D01*
X-912368D02*
X-911352Y-544576D01*
X-910336D01*
X-911352Y-543560D01*
X-910336Y-542544D01*
X-911352D01*
X-912368Y-541528D01*
X-913384Y-542544D01*
X-914400D01*
X-913384Y-543560D01*
X-914400Y-544576D01*
X-913384D01*
X-912368Y-545592D01*
X-919480D02*
X-918464Y-544576D01*
X-917448D01*
X-918464Y-543560D01*
X-917448Y-542544D01*
X-918464D01*
X-919480Y-541528D01*
X-920496Y-542544D01*
X-921512D01*
X-920496Y-543560D01*
X-921512Y-544576D01*
X-920496D01*
X-919480Y-545592D01*
X-897890Y-545846D02*
X-896874Y-544830D01*
X-895858D01*
X-896874Y-543814D01*
X-895858Y-542798D01*
X-896874D01*
X-897890Y-541782D01*
X-898906Y-542798D01*
X-899922D01*
X-898906Y-543814D01*
X-899922Y-544830D01*
X-898906D01*
X-897890Y-545846D01*
X-930148Y-575818D02*
X-929132Y-574802D01*
X-928116D01*
X-929132Y-573786D01*
X-928116Y-572770D01*
X-929132D01*
X-930148Y-571754D01*
X-931164Y-572770D01*
X-932180D01*
X-931164Y-573786D01*
X-932180Y-574802D01*
X-931164D01*
X-930148Y-575818D01*
X-927608Y-605028D02*
X-926592Y-604012D01*
X-925576D01*
X-926592Y-602996D01*
X-925576Y-601980D01*
X-926592D01*
X-927608Y-600964D01*
X-928624Y-601980D01*
X-929640D01*
X-928624Y-602996D01*
X-929640Y-604012D01*
X-928624D01*
X-927608Y-605028D01*
X-905764Y-701294D02*
X-904748Y-700278D01*
X-903732D01*
X-904748Y-699262D01*
X-903732Y-698246D01*
X-904748D01*
X-905764Y-697230D01*
X-906780Y-698246D01*
X-907796D01*
X-906780Y-699262D01*
X-907796Y-700278D01*
X-906780D01*
X-905764Y-701294D01*
X-919226D02*
X-918210Y-700278D01*
X-917194D01*
X-918210Y-699262D01*
X-917194Y-698246D01*
X-918210D01*
X-919226Y-697230D01*
X-920242Y-698246D01*
X-921258D01*
X-920242Y-699262D01*
X-921258Y-700278D01*
X-920242D01*
X-919226Y-701294D01*
X-912876D02*
X-911860Y-700278D01*
X-910844D01*
X-911860Y-699262D01*
X-910844Y-698246D01*
X-911860D01*
X-912876Y-697230D01*
X-913892Y-698246D01*
X-914908D01*
X-913892Y-699262D01*
X-914908Y-700278D01*
X-913892D01*
X-912876Y-701294D01*
X-898652D02*
X-897636Y-700278D01*
X-896620D01*
X-897636Y-699262D01*
X-896620Y-698246D01*
X-897636D01*
X-898652Y-697230D01*
X-899668Y-698246D01*
X-900684D01*
X-899668Y-699262D01*
X-900684Y-700278D01*
X-899668D01*
X-898652Y-701294D01*
X-929894Y-732790D02*
X-928878Y-731774D01*
X-927862D01*
X-928878Y-730758D01*
X-927862Y-729742D01*
X-928878D01*
X-929894Y-728726D01*
X-930910Y-729742D01*
X-931926D01*
X-930910Y-730758D01*
X-931926Y-731774D01*
X-930910D01*
X-929894Y-732790D01*
X-923290Y-754126D02*
X-922274Y-753110D01*
X-921258D01*
X-922274Y-752094D01*
X-921258Y-751078D01*
X-922274D01*
X-923290Y-750062D01*
X-924306Y-751078D01*
X-925322D01*
X-924306Y-752094D01*
X-925322Y-753110D01*
X-924306D01*
X-923290Y-754126D01*
X-923544Y-748284D02*
X-922528Y-747268D01*
X-921512D01*
X-922528Y-746252D01*
X-921512Y-745236D01*
X-922528D01*
X-923544Y-744220D01*
X-924560Y-745236D01*
X-925576D01*
X-924560Y-746252D01*
X-925576Y-747268D01*
X-924560D01*
X-923544Y-748284D01*
X-923290Y-759460D02*
X-922274Y-758444D01*
X-921258D01*
X-922274Y-757428D01*
X-921258Y-756412D01*
X-922274D01*
X-923290Y-755396D01*
X-924306Y-756412D01*
X-925322D01*
X-924306Y-757428D01*
X-925322Y-758444D01*
X-924306D01*
X-923290Y-759460D01*
X-919480Y-878332D02*
X-918464Y-877316D01*
X-917448D01*
X-918464Y-876300D01*
X-917448Y-875284D01*
X-918464D01*
X-919480Y-874268D01*
X-920496Y-875284D01*
X-921512D01*
X-920496Y-876300D01*
X-921512Y-877316D01*
X-920496D01*
X-919480Y-878332D01*
X-911606D02*
X-910590Y-877316D01*
X-909574D01*
X-910590Y-876300D01*
X-909574Y-875284D01*
X-910590D01*
X-911606Y-874268D01*
X-912622Y-875284D01*
X-913638D01*
X-912622Y-876300D01*
X-913638Y-877316D01*
X-912622D01*
X-911606Y-878332D01*
X-897128Y-878078D02*
X-896112Y-877062D01*
X-895096D01*
X-896112Y-876046D01*
X-895096Y-875030D01*
X-896112D01*
X-897128Y-874014D01*
X-898144Y-875030D01*
X-899160D01*
X-898144Y-876046D01*
X-899160Y-877062D01*
X-898144D01*
X-897128Y-878078D01*
X-904240D02*
X-903224Y-877062D01*
X-902208D01*
X-903224Y-876046D01*
X-902208Y-875030D01*
X-903224D01*
X-904240Y-874014D01*
X-905256Y-875030D01*
X-906272D01*
X-905256Y-876046D01*
X-906272Y-877062D01*
X-905256D01*
X-904240Y-878078D01*
X-929894Y-910336D02*
X-928878Y-909320D01*
X-927862D01*
X-928878Y-908304D01*
X-927862Y-907288D01*
X-928878D01*
X-929894Y-906272D01*
X-930910Y-907288D01*
X-931926D01*
X-930910Y-908304D01*
X-931926Y-909320D01*
X-930910D01*
X-929894Y-910336D01*
X-922528Y-942340D02*
X-921512Y-941324D01*
X-920496D01*
X-921512Y-940308D01*
X-920496Y-939292D01*
X-921512D01*
X-922528Y-938276D01*
X-923544Y-939292D01*
X-924560D01*
X-923544Y-940308D01*
X-924560Y-941324D01*
X-923544D01*
X-922528Y-942340D01*
Y-935482D02*
X-921512Y-934466D01*
X-920496D01*
X-921512Y-933450D01*
X-920496Y-932434D01*
X-921512D01*
X-922528Y-931418D01*
X-923544Y-932434D01*
X-924560D01*
X-923544Y-933450D01*
X-924560Y-934466D01*
X-923544D01*
X-922528Y-935482D01*
Y-928370D02*
X-921512Y-927354D01*
X-920496D01*
X-921512Y-926338D01*
X-920496Y-925322D01*
X-921512D01*
X-922528Y-924306D01*
X-923544Y-925322D01*
X-924560D01*
X-923544Y-926338D01*
X-924560Y-927354D01*
X-923544D01*
X-922528Y-928370D01*
X-880110Y-926084D02*
X-879094Y-925068D01*
X-878078D01*
X-879094Y-924052D01*
X-878078Y-923036D01*
X-879094D01*
X-880110Y-922020D01*
X-881126Y-923036D01*
X-882142D01*
X-881126Y-924052D01*
X-882142Y-925068D01*
X-881126D01*
X-880110Y-926084D01*
X-869442Y-409194D02*
X-868426Y-408178D01*
X-867410D01*
X-868426Y-407162D01*
X-867410Y-406146D01*
X-868426D01*
X-869442Y-405130D01*
X-870458Y-406146D01*
X-871474D01*
X-870458Y-407162D01*
X-871474Y-408178D01*
X-870458D01*
X-869442Y-409194D01*
Y-401574D02*
X-868426Y-400558D01*
X-867410D01*
X-868426Y-399542D01*
X-867410Y-398526D01*
X-868426D01*
X-869442Y-397510D01*
X-870458Y-398526D01*
X-871474D01*
X-870458Y-399542D01*
X-871474Y-400558D01*
X-870458D01*
X-869442Y-401574D01*
X-867918Y-742696D02*
X-866902Y-741680D01*
X-865886D01*
X-866902Y-740664D01*
X-865886Y-739648D01*
X-866902D01*
X-867918Y-738632D01*
X-868934Y-739648D01*
X-869950D01*
X-868934Y-740664D01*
X-869950Y-741680D01*
X-868934D01*
X-867918Y-742696D01*
X-868172Y-920750D02*
X-867156Y-919734D01*
X-866140D01*
X-867156Y-918718D01*
X-866140Y-917702D01*
X-867156D01*
X-868172Y-916686D01*
X-869188Y-917702D01*
X-870204D01*
X-869188Y-918718D01*
X-870204Y-919734D01*
X-869188D01*
X-868172Y-920750D01*
Y-913384D02*
X-867156Y-912368D01*
X-866140D01*
X-867156Y-911352D01*
X-866140Y-910336D01*
X-867156D01*
X-868172Y-909320D01*
X-869188Y-910336D01*
X-870204D01*
X-869188Y-911352D01*
X-870204Y-912368D01*
X-869188D01*
X-868172Y-913384D01*
X-771398Y-598932D02*
X-770382Y-597916D01*
X-769366D01*
X-770382Y-596900D01*
X-769366Y-595884D01*
X-770382D01*
X-771398Y-594868D01*
X-772414Y-595884D01*
X-773430D01*
X-772414Y-596900D01*
X-773430Y-597916D01*
X-772414D01*
X-771398Y-598932D01*
X-771906Y-661416D02*
X-770890Y-660400D01*
X-769874D01*
X-770890Y-659384D01*
X-769874Y-658368D01*
X-770890D01*
X-771906Y-657352D01*
X-772922Y-658368D01*
X-773938D01*
X-772922Y-659384D01*
X-773938Y-660400D01*
X-772922D01*
X-771906Y-661416D01*
X-867918Y-735584D02*
X-866902Y-734568D01*
X-865886D01*
X-866902Y-733552D01*
X-865886Y-732536D01*
X-866902D01*
X-867918Y-731520D01*
X-868934Y-732536D01*
X-869950D01*
X-868934Y-733552D01*
X-869950Y-734568D01*
X-868934D01*
X-867918Y-735584D01*
X-897294Y-401842D02*
X-896278Y-399810D01*
X-897294Y-397778D01*
X-895262Y-398794D01*
X-893230Y-397778D01*
X-894246Y-399810D01*
X-893230Y-401842D01*
X-895262Y-400826D01*
X-897294Y-401842D01*
X-908294D02*
X-907278Y-399810D01*
X-908294Y-397778D01*
X-906262Y-398794D01*
X-904230Y-397778D01*
X-905246Y-399810D01*
X-904230Y-401842D01*
X-906262Y-400826D01*
X-908294Y-401842D01*
X-897294Y-390842D02*
X-896278Y-388810D01*
X-897294Y-386778D01*
X-895262Y-387794D01*
X-893230Y-386778D01*
X-894246Y-388810D01*
X-893230Y-390842D01*
X-895262Y-389826D01*
X-897294Y-390842D01*
X-908294D02*
X-907278Y-388810D01*
X-908294Y-386778D01*
X-906262Y-387794D01*
X-904230Y-386778D01*
X-905246Y-388810D01*
X-904230Y-390842D01*
X-906262Y-389826D01*
X-908294Y-390842D01*
X-897294Y-379842D02*
X-896278Y-377810D01*
X-897294Y-375778D01*
X-895262Y-376794D01*
X-893230Y-375778D01*
X-894246Y-377810D01*
X-893230Y-379842D01*
X-895262Y-378826D01*
X-897294Y-379842D01*
X-908294D02*
X-907278Y-377810D01*
X-908294Y-375778D01*
X-906262Y-376794D01*
X-904230Y-375778D01*
X-905246Y-377810D01*
X-904230Y-379842D01*
X-906262Y-378826D01*
X-908294Y-379842D01*
X-896532Y-914288D02*
X-895516Y-912256D01*
X-896532Y-910224D01*
X-894500Y-911240D01*
X-892468Y-910224D01*
X-893484Y-912256D01*
X-892468Y-914288D01*
X-894500Y-913272D01*
X-896532Y-914288D01*
X-907532D02*
X-906516Y-912256D01*
X-907532Y-910224D01*
X-905500Y-911240D01*
X-903468Y-910224D01*
X-904484Y-912256D01*
X-903468Y-914288D01*
X-905500Y-913272D01*
X-907532Y-914288D01*
X-896532Y-903288D02*
X-895516Y-901256D01*
X-896532Y-899224D01*
X-894500Y-900240D01*
X-892468Y-899224D01*
X-893484Y-901256D01*
X-892468Y-903288D01*
X-894500Y-902272D01*
X-896532Y-903288D01*
X-907532D02*
X-906516Y-901256D01*
X-907532Y-899224D01*
X-905500Y-900240D01*
X-903468Y-899224D01*
X-904484Y-901256D01*
X-903468Y-903288D01*
X-905500Y-902272D01*
X-907532Y-903288D01*
X-896532Y-892288D02*
X-895516Y-890256D01*
X-896532Y-888224D01*
X-894500Y-889240D01*
X-892468Y-888224D01*
X-893484Y-890256D01*
X-892468Y-892288D01*
X-894500Y-891272D01*
X-896532Y-892288D01*
X-907532D02*
X-906516Y-890256D01*
X-907532Y-888224D01*
X-905500Y-889240D01*
X-903468Y-888224D01*
X-904484Y-890256D01*
X-903468Y-892288D01*
X-905500Y-891272D01*
X-907532Y-892288D01*
X-896532Y-580468D02*
X-895516Y-578436D01*
X-896532Y-576404D01*
X-894500Y-577420D01*
X-892468Y-576404D01*
X-893484Y-578436D01*
X-892468Y-580468D01*
X-894500Y-579452D01*
X-896532Y-580468D01*
X-907532D02*
X-906516Y-578436D01*
X-907532Y-576404D01*
X-905500Y-577420D01*
X-903468Y-576404D01*
X-904484Y-578436D01*
X-903468Y-580468D01*
X-905500Y-579452D01*
X-907532Y-580468D01*
X-896532Y-569468D02*
X-895516Y-567436D01*
X-896532Y-565404D01*
X-894500Y-566420D01*
X-892468Y-565404D01*
X-893484Y-567436D01*
X-892468Y-569468D01*
X-894500Y-568452D01*
X-896532Y-569468D01*
X-907532D02*
X-906516Y-567436D01*
X-907532Y-565404D01*
X-905500Y-566420D01*
X-903468Y-565404D01*
X-904484Y-567436D01*
X-903468Y-569468D01*
X-905500Y-568452D01*
X-907532Y-569468D01*
X-896532Y-558468D02*
X-895516Y-556436D01*
X-896532Y-554404D01*
X-894500Y-555420D01*
X-892468Y-554404D01*
X-893484Y-556436D01*
X-892468Y-558468D01*
X-894500Y-557452D01*
X-896532Y-558468D01*
X-907532D02*
X-906516Y-556436D01*
X-907532Y-554404D01*
X-905500Y-555420D01*
X-903468Y-554404D01*
X-904484Y-556436D01*
X-903468Y-558468D01*
X-905500Y-557452D01*
X-907532Y-558468D01*
X-278384Y-309880D02*
X-277368Y-308864D01*
X-276352D01*
X-277368Y-307848D01*
X-276352Y-306832D01*
X-277368D01*
X-278384Y-305816D01*
X-279400Y-306832D01*
X-280416D01*
X-279400Y-307848D01*
X-280416Y-308864D01*
X-279400D01*
X-278384Y-309880D01*
X-750406Y-1111828D02*
X-749390Y-1110812D01*
X-748374D01*
X-749390Y-1109796D01*
X-748374Y-1108780D01*
X-749390D01*
X-750406Y-1107764D01*
X-751422Y-1108780D01*
X-752438D01*
X-751422Y-1109796D01*
X-752438Y-1110812D01*
X-751422D01*
X-750406Y-1111828D01*
X-180406Y-151828D02*
X-182438Y-147764D01*
X-178374D01*
X-180406Y-151828D01*
Y-1111828D02*
X-182438Y-1107764D01*
X-178374D01*
X-180406Y-1111828D01*
X-120674Y-1025016D02*
Y-1026032D01*
X-118642D01*
Y-1025016D01*
X-117626D01*
Y-1022984D01*
X-118642D01*
Y-1021968D01*
X-120674D01*
Y-1022984D01*
X-121690D01*
Y-1025016D01*
X-120674D01*
X-853574D02*
Y-1026032D01*
X-851542D01*
Y-1025016D01*
X-850526D01*
Y-1022984D01*
X-851542D01*
Y-1021968D01*
X-853574D01*
Y-1022984D01*
X-854590D01*
Y-1025016D01*
X-853574D01*
X-853474Y-94516D02*
Y-95532D01*
X-851442D01*
Y-94516D01*
X-850426D01*
Y-92484D01*
X-851442D01*
Y-91468D01*
X-853474D01*
Y-92484D01*
X-854490D01*
Y-94516D01*
X-853474D01*
D150*
X-748374Y-149796D02*
G03*
X-748374Y-149796I-2032J0D01*
G01*
X-178374D02*
G03*
X-178374Y-149796I-2032J0D01*
G01*
X-748374Y-1109796D02*
G03*
X-748374Y-1109796I-2032J0D01*
G01*
X-178374D02*
G03*
X-178374Y-1109796I-2032J0D01*
G01*
M02*
