G04*
G04 #@! TF.GenerationSoftware,Altium Limited,Altium Designer,20.0.2 (26)*
G04*
G04 Layer_Color=32896*
%FSLAX44Y44*%
%MOMM*%
G71*
G01*
G75*
%ADD16C,0.1000*%
D16*
X-313308Y-105854D02*
X-297308D01*
X-313308Y-97854D02*
X-297308D01*
Y-105854D02*
Y-97854D01*
X-313308Y-105854D02*
Y-97854D01*
X-249618Y-70992D02*
X-241618D01*
X-249618Y-54992D02*
X-241618D01*
X-249618Y-70992D02*
Y-54992D01*
X-241618Y-70992D02*
Y-54992D01*
X-314578Y-28892D02*
Y-20892D01*
X-298578Y-28892D02*
Y-20892D01*
X-314578D02*
X-298578D01*
X-314578Y-28892D02*
X-298578D01*
X-627508Y-34226D02*
Y-26226D01*
X-643508Y-34226D02*
Y-26226D01*
Y-34226D02*
X-627508D01*
X-643508Y-26226D02*
X-627508D01*
X-724598Y-60072D02*
X-716598D01*
X-724598Y-76072D02*
X-716598D01*
Y-60072D01*
X-724598Y-76072D02*
Y-60072D01*
X-627508Y-113220D02*
Y-105220D01*
X-643508Y-113220D02*
Y-105220D01*
Y-113220D02*
X-627508D01*
X-643508Y-105220D02*
X-627508D01*
X-456822Y-1140904D02*
X-440822D01*
X-456822Y-1132904D02*
X-440822D01*
Y-1140904D02*
Y-1132904D01*
X-456822Y-1140904D02*
Y-1132904D01*
X-509144Y-903034D02*
X-493144D01*
X-509144Y-911034D02*
X-493144D01*
X-509144D02*
Y-903034D01*
X-493144Y-911034D02*
Y-903034D01*
X-456822Y-1126172D02*
X-440822D01*
X-456822Y-1118172D02*
X-440822D01*
Y-1126172D02*
Y-1118172D01*
X-456822Y-1126172D02*
Y-1118172D01*
X-509144Y-887286D02*
X-493144D01*
X-509144Y-895286D02*
X-493144D01*
X-509144D02*
Y-887286D01*
X-493144Y-895286D02*
Y-887286D01*
X-65404Y-846772D02*
X-49404D01*
X-65404Y-838772D02*
X-49404D01*
Y-846772D02*
Y-838772D01*
X-65404Y-846772D02*
Y-838772D01*
X-358522Y-951548D02*
X-342522D01*
X-358522Y-959548D02*
X-342522D01*
X-358522D02*
Y-951548D01*
X-342522Y-959548D02*
Y-951548D01*
X-358522Y-966788D02*
X-342522D01*
X-358522Y-974788D02*
X-342522D01*
X-358522D02*
Y-966788D01*
X-342522Y-974788D02*
Y-966788D01*
X-355410Y-938402D02*
Y-922402D01*
X-363410Y-938402D02*
Y-922402D01*
X-355410D01*
X-363410Y-938402D02*
X-355410D01*
X-55244Y-1007682D02*
X-39244D01*
X-55244Y-1015682D02*
X-39244D01*
X-55244D02*
Y-1007682D01*
X-39244Y-1015682D02*
Y-1007682D01*
M02*
