G04*
G04 #@! TF.GenerationSoftware,Altium Limited,Altium Designer,20.0.2 (26)*
G04*
G04 Layer_Physical_Order=4*
G04 Layer_Color=16711680*
%FSLAX44Y44*%
%MOMM*%
G71*
G01*
G75*
%ADD14C,0.1524*%
%ADD19C,0.2540*%
%ADD25C,1.0160*%
%ADD77C,1.2192*%
%ADD131R,1.2192X1.2192*%
%ADD140C,0.1727*%
%ADD142C,0.4000*%
%ADD143C,3.7000*%
%ADD144C,0.6000*%
%ADD145C,0.5000*%
%ADD146C,5.0000*%
%ADD147C,1.2700*%
G36*
X-199390Y-186182D02*
X-191770Y-193802D01*
Y-223774D01*
X-211328Y-243332D01*
X-345948D01*
X-384048Y-281432D01*
Y-464058D01*
X-397510D01*
Y-257187D01*
X-396240Y-256144D01*
X-395224Y-256346D01*
X-393062Y-255917D01*
X-391230Y-254692D01*
X-390005Y-252860D01*
X-389576Y-250698D01*
X-390005Y-248536D01*
X-391230Y-246704D01*
X-393062Y-245479D01*
X-395224Y-245049D01*
X-396240Y-245252D01*
X-397510Y-244209D01*
Y-228092D01*
X-410972Y-214630D01*
X-642620D01*
X-790448Y-362458D01*
Y-396494D01*
X-839978Y-446024D01*
Y-529082D01*
X-849630D01*
X-858520Y-520192D01*
Y-447040D01*
X-859536Y-446024D01*
X-851408Y-437896D01*
Y-381254D01*
X-656336Y-186182D01*
X-199390Y-186182D01*
D02*
G37*
G36*
X-507492Y-245364D02*
Y-261366D01*
X-509524Y-263398D01*
X-517906D01*
X-540004Y-241300D01*
X-627634Y-241300D01*
X-648970Y-262636D01*
X-648970Y-469646D01*
X-652272Y-472948D01*
X-654558Y-475234D01*
X-654812Y-475488D01*
X-672592D01*
X-672846Y-475234D01*
X-693928D01*
X-744982Y-526288D01*
Y-945896D01*
X-753364Y-954278D01*
X-763778D01*
X-764794Y-953262D01*
Y-745490D01*
X-777240Y-733044D01*
Y-712724D01*
X-759714Y-695198D01*
Y-520446D01*
X-703580Y-464312D01*
X-673354D01*
Y-261112D01*
X-632714Y-220472D01*
X-532384D01*
X-507492Y-245364D01*
D02*
G37*
G36*
X-11176Y-52070D02*
Y-441960D01*
X-15240Y-446024D01*
X-147066D01*
X-151130Y-441960D01*
X-208788Y-499618D01*
X-344857D01*
Y-483362D01*
X-345153Y-481875D01*
X-345995Y-480615D01*
X-351247Y-475363D01*
X-351222Y-475234D01*
X-351651Y-473072D01*
X-352876Y-471240D01*
X-354708Y-470015D01*
X-356870Y-469585D01*
X-359032Y-470015D01*
X-360864Y-471240D01*
X-362089Y-473072D01*
X-362519Y-475234D01*
X-362173Y-476973D01*
X-363369Y-477468D01*
X-364306Y-476066D01*
X-366138Y-474841D01*
X-368300Y-474412D01*
X-370462Y-474841D01*
X-372294Y-476066D01*
X-373519Y-477898D01*
X-373949Y-480060D01*
X-373519Y-482222D01*
X-372294Y-484054D01*
X-370462Y-485279D01*
X-368300Y-485709D01*
X-368171Y-485683D01*
X-360501Y-493353D01*
Y-505968D01*
X-384556D01*
Y-532892D01*
X-389890Y-538226D01*
X-405732D01*
X-411019Y-532939D01*
X-412279Y-532097D01*
X-413766Y-531801D01*
X-423587D01*
X-453437Y-501951D01*
X-454697Y-501109D01*
X-456184Y-500813D01*
X-466341D01*
X-466414Y-500704D01*
X-468246Y-499479D01*
X-470408Y-499049D01*
X-472570Y-499479D01*
X-474402Y-500704D01*
X-475627Y-502536D01*
X-476057Y-504698D01*
X-475627Y-506860D01*
X-474402Y-508692D01*
X-472570Y-509917D01*
X-470408Y-510346D01*
X-468246Y-509917D01*
X-466414Y-508692D01*
X-466341Y-508583D01*
X-457793D01*
X-429323Y-537053D01*
X-429809Y-538226D01*
X-436118D01*
X-445370Y-547478D01*
X-445471Y-547498D01*
X-446563Y-548228D01*
X-450183Y-551847D01*
X-450912Y-552940D01*
X-450933Y-553041D01*
X-459740Y-561848D01*
Y-629920D01*
X-431778Y-657882D01*
X-432264Y-659055D01*
X-513757D01*
X-517699Y-655113D01*
X-518959Y-654271D01*
X-520446Y-653975D01*
X-585978D01*
X-587465Y-654271D01*
X-588725Y-655113D01*
X-604219Y-670607D01*
X-605061Y-671867D01*
X-605357Y-673354D01*
Y-707898D01*
X-605061Y-709385D01*
X-604219Y-710645D01*
X-596213Y-718651D01*
Y-726293D01*
X-597483Y-726929D01*
X-598802Y-726047D01*
X-600964Y-725618D01*
X-601544Y-725733D01*
X-601825Y-725550D01*
X-602521Y-724632D01*
X-602174Y-722884D01*
X-602603Y-720722D01*
X-603828Y-718890D01*
X-605660Y-717665D01*
X-607822Y-717235D01*
X-608481Y-716072D01*
X-608270Y-715010D01*
X-608699Y-712848D01*
X-609924Y-711016D01*
X-611756Y-709791D01*
X-613918Y-709361D01*
X-616080Y-709791D01*
X-616533Y-710095D01*
X-617653Y-709496D01*
Y-708046D01*
X-616328Y-707783D01*
X-614496Y-706558D01*
X-613271Y-704726D01*
X-612841Y-702564D01*
X-613271Y-700402D01*
X-614496Y-698570D01*
X-616328Y-697345D01*
X-617581Y-697096D01*
X-618487Y-696431D01*
X-618482Y-695721D01*
X-618176Y-694182D01*
X-618605Y-692020D01*
X-619830Y-690188D01*
X-621662Y-688963D01*
X-623361Y-688625D01*
X-623002Y-686816D01*
X-623431Y-684654D01*
X-624656Y-682822D01*
X-626488Y-681597D01*
X-628650Y-681168D01*
X-630812Y-681597D01*
X-632644Y-682822D01*
X-633869Y-684654D01*
X-634130Y-685971D01*
X-634417Y-686139D01*
X-635687Y-685412D01*
Y-569299D01*
X-629989Y-563601D01*
X-616577D01*
X-615572Y-564273D01*
X-613410Y-564702D01*
X-611248Y-564273D01*
X-609416Y-563048D01*
X-608191Y-561216D01*
X-607761Y-559054D01*
X-608191Y-556892D01*
X-609416Y-555060D01*
Y-554158D01*
X-608191Y-552326D01*
X-607761Y-550164D01*
X-608191Y-548002D01*
X-609416Y-546170D01*
X-609302Y-544718D01*
X-608445Y-543436D01*
X-608016Y-541274D01*
X-608445Y-539112D01*
X-609498Y-537537D01*
X-609600Y-536702D01*
X-609498Y-535867D01*
X-608445Y-534292D01*
X-608016Y-532130D01*
X-608445Y-529968D01*
X-609670Y-528136D01*
X-611502Y-526911D01*
X-613664Y-526482D01*
X-615826Y-526911D01*
X-617658Y-528136D01*
X-618174Y-528907D01*
X-630334D01*
X-630719Y-527637D01*
X-629736Y-526980D01*
X-628511Y-525148D01*
X-628082Y-522986D01*
X-628511Y-520824D01*
X-629178Y-519827D01*
X-629277Y-518617D01*
X-628823Y-518246D01*
X-627450Y-517328D01*
X-626225Y-515496D01*
X-625796Y-513334D01*
X-626122Y-511691D01*
X-625212Y-510577D01*
X-625094Y-510601D01*
X-622932Y-510171D01*
X-621100Y-508946D01*
X-619875Y-507114D01*
X-619445Y-504952D01*
X-619656Y-503892D01*
X-618576Y-502812D01*
X-617728Y-502980D01*
X-615566Y-502551D01*
X-613734Y-501326D01*
X-612509Y-499494D01*
X-612080Y-497332D01*
X-612509Y-495170D01*
X-613734Y-493338D01*
X-615566Y-492113D01*
X-616225Y-491982D01*
X-616711Y-490809D01*
X-616573Y-490604D01*
X-616143Y-488442D01*
X-616573Y-486280D01*
X-617798Y-484448D01*
Y-483801D01*
X-617036Y-483292D01*
X-615811Y-481460D01*
X-615382Y-479298D01*
X-615811Y-477136D01*
X-617036Y-475304D01*
X-618868Y-474079D01*
X-621030Y-473649D01*
X-623192Y-474079D01*
X-625024Y-475304D01*
X-625097Y-475413D01*
X-649279D01*
X-649853Y-474201D01*
X-649854Y-474193D01*
X-647139Y-471477D01*
X-646577Y-470637D01*
X-646380Y-469646D01*
X-646380Y-263709D01*
X-626561Y-243890D01*
X-541077Y-243890D01*
X-519737Y-265229D01*
X-518897Y-265791D01*
X-517906Y-265988D01*
X-509524D01*
X-508533Y-265791D01*
X-507693Y-265229D01*
X-505661Y-263197D01*
X-505099Y-262357D01*
X-504902Y-261366D01*
Y-245364D01*
X-505099Y-244373D01*
X-505661Y-243533D01*
X-530553Y-218641D01*
X-530779Y-218490D01*
X-530393Y-217220D01*
X-412045D01*
X-400100Y-229165D01*
Y-244209D01*
X-400075Y-244335D01*
X-400087Y-244463D01*
X-399977Y-244827D01*
X-399903Y-245200D01*
X-399831Y-245307D01*
X-399794Y-245430D01*
X-399725Y-245515D01*
X-399218Y-246704D01*
X-400443Y-248536D01*
X-400872Y-250698D01*
X-400443Y-252860D01*
X-399218Y-254692D01*
X-399725Y-255881D01*
X-399794Y-255966D01*
X-399831Y-256089D01*
X-399903Y-256196D01*
X-399977Y-256569D01*
X-400087Y-256933D01*
X-400075Y-257061D01*
X-400100Y-257187D01*
Y-350024D01*
X-401343Y-351645D01*
X-402214Y-353745D01*
X-402510Y-356000D01*
X-402214Y-358255D01*
X-401343Y-360355D01*
X-400100Y-361976D01*
Y-451624D01*
X-401343Y-453245D01*
X-401753Y-454234D01*
X-403023Y-453982D01*
Y-419100D01*
X-403319Y-417613D01*
X-404161Y-416353D01*
X-412675Y-407839D01*
Y-405459D01*
X-410464D01*
X-408977Y-405163D01*
X-407717Y-404321D01*
X-406193Y-402797D01*
X-405351Y-401537D01*
X-405055Y-400050D01*
Y-398018D01*
X-405351Y-396531D01*
X-406193Y-395271D01*
X-407510Y-393954D01*
X-406193Y-392637D01*
X-405351Y-391377D01*
X-405055Y-389890D01*
Y-387858D01*
X-405351Y-386371D01*
X-406193Y-385111D01*
X-407717Y-383587D01*
X-408977Y-382745D01*
X-410464Y-382449D01*
X-412675D01*
Y-378714D01*
X-412971Y-377227D01*
X-413813Y-375967D01*
X-415719Y-374062D01*
X-415719Y-374062D01*
X-418233Y-371547D01*
X-419493Y-370705D01*
X-420980Y-370409D01*
X-422843D01*
X-422843Y-368546D01*
X-423139Y-367060D01*
X-423981Y-365800D01*
X-426495Y-363285D01*
X-426495Y-363285D01*
X-426689Y-363091D01*
X-426603Y-362625D01*
X-425788Y-362320D01*
X-425241Y-362250D01*
X-423555Y-363544D01*
X-421455Y-364414D01*
X-419200Y-364711D01*
X-416945Y-364414D01*
X-414845Y-363544D01*
X-413041Y-362159D01*
X-411656Y-360355D01*
X-410786Y-358255D01*
X-410490Y-356000D01*
X-410786Y-353745D01*
X-411656Y-351645D01*
X-413041Y-349841D01*
X-414845Y-348456D01*
X-416945Y-347586D01*
X-419200Y-347290D01*
X-421455Y-347586D01*
X-423555Y-348456D01*
X-425359Y-349841D01*
X-425883Y-350524D01*
X-427153Y-350093D01*
Y-314452D01*
Y-311225D01*
X-424688D01*
X-423201Y-310929D01*
X-421941Y-310087D01*
X-420417Y-308563D01*
X-419575Y-307303D01*
X-419279Y-305816D01*
Y-303784D01*
X-419575Y-302297D01*
X-420417Y-301037D01*
X-421734Y-299720D01*
X-420417Y-298403D01*
X-419575Y-297143D01*
X-419279Y-295656D01*
Y-293624D01*
X-419575Y-292137D01*
X-420417Y-290877D01*
X-421941Y-289353D01*
X-423201Y-288511D01*
X-424688Y-288215D01*
X-426766D01*
X-427476Y-287173D01*
X-427442Y-286945D01*
X-427153Y-285496D01*
Y-281009D01*
X-410847Y-264703D01*
X-410718Y-264729D01*
X-408556Y-264299D01*
X-406724Y-263074D01*
X-405499Y-261242D01*
X-405070Y-259080D01*
X-405499Y-256918D01*
X-406724Y-255086D01*
X-408556Y-253861D01*
X-410718Y-253431D01*
X-412880Y-253861D01*
X-414712Y-255086D01*
X-415937Y-256918D01*
X-416367Y-259080D01*
X-416341Y-259209D01*
X-433785Y-276653D01*
X-434627Y-277913D01*
X-434923Y-279400D01*
Y-283135D01*
X-437388D01*
X-438875Y-283431D01*
X-440135Y-284273D01*
X-441659Y-285797D01*
X-442501Y-287057D01*
X-442797Y-288544D01*
Y-290576D01*
X-442501Y-292063D01*
X-441659Y-293323D01*
X-440342Y-294640D01*
X-441659Y-295957D01*
X-442501Y-297217D01*
X-442797Y-298704D01*
Y-300736D01*
X-442501Y-302223D01*
X-441659Y-303483D01*
X-440135Y-305007D01*
X-438875Y-305849D01*
X-437388Y-306145D01*
X-435310D01*
X-434600Y-307187D01*
X-434634Y-307415D01*
X-434923Y-308864D01*
Y-314452D01*
Y-353614D01*
X-436186Y-353745D01*
X-437057Y-351645D01*
X-438441Y-349841D01*
X-440245Y-348456D01*
X-442346Y-347586D01*
X-444600Y-347290D01*
X-446855Y-347586D01*
X-448955Y-348456D01*
X-450759Y-349841D01*
X-452144Y-351645D01*
X-453014Y-353745D01*
X-453311Y-356000D01*
X-453014Y-358255D01*
X-452144Y-360355D01*
X-450759Y-362159D01*
X-448955Y-363544D01*
X-446855Y-364414D01*
X-444600Y-364711D01*
X-442346Y-364414D01*
X-440245Y-363544D01*
X-438441Y-362159D01*
X-437057Y-360355D01*
X-436186Y-358255D01*
X-434923Y-358386D01*
Y-364236D01*
X-434627Y-365723D01*
X-433785Y-366983D01*
X-431989Y-368779D01*
X-431147Y-369628D01*
X-432707Y-371188D01*
X-433549Y-372448D01*
X-433845Y-373935D01*
Y-376090D01*
X-433549Y-377576D01*
X-432707Y-378837D01*
X-431270Y-380274D01*
X-430010Y-381116D01*
X-428523Y-381411D01*
X-426368D01*
X-424882Y-381116D01*
X-423621Y-380274D01*
X-422693Y-379345D01*
X-421510D01*
X-421160Y-379608D01*
X-420445Y-380323D01*
Y-384810D01*
X-420156Y-386259D01*
X-420122Y-386487D01*
X-420832Y-387529D01*
X-422656D01*
X-424143Y-387825D01*
X-425403Y-388667D01*
X-426927Y-390191D01*
X-427769Y-391451D01*
X-428065Y-392938D01*
Y-394970D01*
X-427769Y-396457D01*
X-426927Y-397717D01*
X-425403Y-399241D01*
X-424143Y-400083D01*
X-422656Y-400379D01*
X-420832D01*
X-420122Y-401421D01*
X-420156Y-401649D01*
X-420445Y-403098D01*
Y-409448D01*
X-420149Y-410935D01*
X-419307Y-412195D01*
X-410793Y-420709D01*
Y-452284D01*
X-412063Y-452715D01*
X-413041Y-451441D01*
X-414845Y-450056D01*
X-416945Y-449186D01*
X-419200Y-448890D01*
X-421455Y-449186D01*
X-423555Y-450056D01*
X-425359Y-451441D01*
X-426391Y-452786D01*
X-427661Y-452355D01*
Y-415036D01*
X-427957Y-413549D01*
X-428799Y-412289D01*
X-478969Y-362119D01*
Y-360232D01*
X-477699Y-359979D01*
X-477543Y-360355D01*
X-476159Y-362159D01*
X-474355Y-363544D01*
X-472254Y-364414D01*
X-470000Y-364711D01*
X-467746Y-364414D01*
X-465645Y-363544D01*
X-463841Y-362159D01*
X-462457Y-360355D01*
X-461586Y-358255D01*
X-461289Y-356000D01*
X-461586Y-353745D01*
X-462457Y-351645D01*
X-463841Y-349841D01*
X-465645Y-348456D01*
X-467746Y-347586D01*
X-470000Y-347290D01*
X-472254Y-347586D01*
X-474355Y-348456D01*
X-476159Y-349841D01*
X-477543Y-351645D01*
X-477699Y-352021D01*
X-478969Y-351768D01*
Y-298958D01*
X-479265Y-297471D01*
X-480107Y-296211D01*
X-507285Y-269033D01*
X-508545Y-268191D01*
X-510032Y-267895D01*
X-558035D01*
X-558108Y-267786D01*
X-559940Y-266561D01*
X-562102Y-266131D01*
X-564264Y-266561D01*
X-566096Y-267786D01*
X-567321Y-269618D01*
X-567751Y-271780D01*
X-567321Y-273942D01*
X-566096Y-275774D01*
X-564264Y-276999D01*
X-562102Y-277428D01*
X-559940Y-276999D01*
X-558108Y-275774D01*
X-558035Y-275665D01*
X-511641D01*
X-486739Y-300567D01*
Y-363728D01*
X-486443Y-365215D01*
X-485601Y-366475D01*
X-435431Y-416645D01*
Y-453851D01*
X-436701Y-454104D01*
X-437057Y-453245D01*
X-438441Y-451441D01*
X-440245Y-450056D01*
X-442346Y-449186D01*
X-444600Y-448890D01*
X-446855Y-449186D01*
X-448955Y-450056D01*
X-450759Y-451441D01*
X-452144Y-453245D01*
X-453014Y-455345D01*
X-453311Y-457600D01*
X-453014Y-459855D01*
X-452144Y-461955D01*
X-450759Y-463759D01*
X-448955Y-465144D01*
X-446855Y-466014D01*
X-444600Y-466311D01*
X-442346Y-466014D01*
X-440245Y-465144D01*
X-438441Y-463759D01*
X-437057Y-461955D01*
X-436701Y-461096D01*
X-435431Y-461349D01*
Y-465074D01*
X-435135Y-466561D01*
X-434293Y-467821D01*
X-407745Y-494369D01*
Y-506854D01*
X-407854Y-506927D01*
X-409079Y-508759D01*
X-409509Y-510921D01*
X-409095Y-513002D01*
X-409150Y-513079D01*
X-410257Y-513635D01*
X-411517Y-512793D01*
X-413004Y-512497D01*
X-422399D01*
X-422472Y-512388D01*
X-424304Y-511163D01*
X-426466Y-510733D01*
X-428628Y-511163D01*
X-430460Y-512388D01*
X-431685Y-514220D01*
X-432114Y-516382D01*
X-431685Y-518544D01*
X-430460Y-520376D01*
X-428628Y-521601D01*
X-426466Y-522030D01*
X-424304Y-521601D01*
X-422472Y-520376D01*
X-422399Y-520267D01*
X-414613D01*
X-408639Y-526241D01*
X-407379Y-527083D01*
X-405892Y-527379D01*
X-401066D01*
X-399579Y-527083D01*
X-398319Y-526241D01*
X-388159Y-516081D01*
X-387317Y-514821D01*
X-387021Y-513334D01*
Y-485140D01*
X-387317Y-483653D01*
X-388159Y-482393D01*
X-403023Y-467529D01*
Y-461218D01*
X-401753Y-460966D01*
X-401343Y-461955D01*
X-400100Y-463576D01*
Y-464058D01*
X-399903Y-465049D01*
X-399341Y-465889D01*
X-398501Y-466451D01*
X-397510Y-466648D01*
X-384048D01*
X-383057Y-466451D01*
X-382217Y-465889D01*
X-381655Y-465049D01*
X-381458Y-464058D01*
Y-282505D01*
X-344875Y-245922D01*
X-211328D01*
X-210337Y-245725D01*
X-209497Y-245163D01*
X-189939Y-225605D01*
X-189377Y-224765D01*
X-189180Y-223774D01*
Y-193802D01*
X-189377Y-192811D01*
X-189939Y-191971D01*
X-197559Y-184351D01*
X-198399Y-183789D01*
X-199390Y-183592D01*
X-656336Y-183592D01*
X-657327Y-183789D01*
X-658167Y-184351D01*
X-853239Y-379423D01*
X-853801Y-380263D01*
X-853998Y-381254D01*
Y-436823D01*
X-861367Y-444193D01*
X-861929Y-445033D01*
X-862126Y-446024D01*
X-861929Y-447015D01*
X-861367Y-447855D01*
X-861110Y-448113D01*
Y-520192D01*
X-860913Y-521183D01*
X-860351Y-522023D01*
X-851461Y-530913D01*
X-850621Y-531475D01*
X-849630Y-531672D01*
X-839978D01*
X-838987Y-531475D01*
X-838147Y-530913D01*
X-837585Y-530073D01*
X-837388Y-529082D01*
Y-528835D01*
X-836791Y-527942D01*
X-836361Y-525780D01*
X-836791Y-523618D01*
X-837388Y-522725D01*
Y-447097D01*
X-788617Y-398325D01*
X-788055Y-397485D01*
X-787858Y-396494D01*
Y-363531D01*
X-641547Y-217220D01*
X-634705D01*
X-634319Y-218490D01*
X-634545Y-218641D01*
X-675185Y-259281D01*
X-675747Y-260121D01*
X-675944Y-261112D01*
Y-388467D01*
X-677214Y-388972D01*
X-679397Y-386789D01*
X-680237Y-386227D01*
X-681228Y-386030D01*
X-700278D01*
X-701269Y-386227D01*
X-702109Y-386789D01*
X-737673Y-422352D01*
X-799084D01*
X-800075Y-422549D01*
X-800915Y-423111D01*
X-824791Y-446987D01*
X-825353Y-447827D01*
X-825550Y-448818D01*
Y-470154D01*
X-825353Y-471145D01*
X-824791Y-471985D01*
X-824029Y-472747D01*
X-823189Y-473309D01*
X-822198Y-473506D01*
X-803656D01*
X-802665Y-473309D01*
X-801825Y-472747D01*
X-771595Y-442518D01*
X-719328D01*
X-718337Y-442321D01*
X-717497Y-441759D01*
X-677214Y-401476D01*
X-675944Y-401981D01*
Y-412615D01*
X-676287Y-413128D01*
X-676717Y-415290D01*
X-676287Y-417452D01*
X-675944Y-417965D01*
Y-461722D01*
X-703580D01*
X-704571Y-461919D01*
X-705411Y-462481D01*
X-761545Y-518615D01*
X-762107Y-519455D01*
X-762304Y-520446D01*
Y-694125D01*
X-779071Y-710893D01*
X-779633Y-711733D01*
X-779830Y-712724D01*
Y-720928D01*
X-781100Y-721053D01*
X-781165Y-720722D01*
X-782390Y-718890D01*
X-784222Y-717665D01*
X-785092Y-717492D01*
X-785053Y-717296D01*
X-785483Y-715134D01*
X-786708Y-713302D01*
X-788540Y-712077D01*
X-790702Y-711647D01*
X-792864Y-712077D01*
X-794696Y-713302D01*
X-795921Y-715134D01*
X-796350Y-717296D01*
X-795921Y-719458D01*
X-794696Y-721290D01*
X-792864Y-722515D01*
X-791993Y-722688D01*
X-792032Y-722884D01*
X-791603Y-725046D01*
X-790378Y-726878D01*
X-788546Y-728103D01*
X-786384Y-728532D01*
X-784222Y-728103D01*
X-782390Y-726878D01*
X-781165Y-725046D01*
X-781100Y-724715D01*
X-779830Y-724840D01*
Y-733044D01*
X-779633Y-734035D01*
X-779071Y-734875D01*
X-767384Y-746563D01*
Y-953262D01*
X-767187Y-954253D01*
X-766625Y-955093D01*
X-765609Y-956109D01*
X-764769Y-956671D01*
X-763778Y-956868D01*
X-753364D01*
X-752373Y-956671D01*
X-751533Y-956109D01*
X-743151Y-947727D01*
X-742589Y-946887D01*
X-742392Y-945896D01*
Y-527361D01*
X-692855Y-477824D01*
X-673668D01*
X-673583Y-477881D01*
X-672592Y-478078D01*
X-655801D01*
X-655275Y-479348D01*
X-724361Y-548433D01*
X-725203Y-549693D01*
X-725499Y-551180D01*
X-725499Y-981710D01*
X-725203Y-983197D01*
X-724361Y-984457D01*
X-723900Y-984918D01*
Y-1035050D01*
X-706120Y-1052830D01*
X-672556D01*
X-672214Y-1053058D01*
X-670052Y-1053488D01*
X-667890Y-1053058D01*
X-667548Y-1052830D01*
X-658622D01*
X-657305Y-1051513D01*
X-633937Y-1074881D01*
X-632677Y-1075723D01*
X-631190Y-1076019D01*
X-610365D01*
X-610292Y-1076128D01*
X-608460Y-1077353D01*
X-606298Y-1077783D01*
X-605370Y-1077598D01*
X-604389Y-1078404D01*
Y-1098502D01*
X-604093Y-1099989D01*
X-603251Y-1101249D01*
X-572977Y-1131523D01*
X-571717Y-1132365D01*
X-570230Y-1132661D01*
X-492506D01*
X-491019Y-1132365D01*
X-489759Y-1131523D01*
X-473503Y-1115267D01*
X-472661Y-1114007D01*
X-472366Y-1112524D01*
X-472256Y-1112450D01*
X-472059Y-1112156D01*
X-470789D01*
X-470592Y-1112450D01*
X-468760Y-1113675D01*
X-466598Y-1114105D01*
X-464436Y-1113675D01*
X-462604Y-1112450D01*
X-461379Y-1110618D01*
X-460950Y-1108456D01*
X-461379Y-1106294D01*
X-462604Y-1104462D01*
X-462919Y-1104251D01*
Y-1101646D01*
X-463215Y-1100159D01*
X-464057Y-1098899D01*
X-488997Y-1073959D01*
X-490257Y-1073117D01*
X-491744Y-1072821D01*
X-528743D01*
X-538151Y-1063413D01*
Y-1056963D01*
X-536886Y-1056570D01*
X-535054Y-1057795D01*
X-532892Y-1058224D01*
X-530730Y-1057795D01*
X-528898Y-1056570D01*
X-527673Y-1054738D01*
X-527243Y-1052576D01*
X-527673Y-1050414D01*
X-528898Y-1048582D01*
X-530730Y-1047357D01*
X-532892Y-1046927D01*
X-535054Y-1047357D01*
X-536886Y-1048582D01*
X-538151Y-1048189D01*
Y-919229D01*
X-538042Y-919156D01*
X-536817Y-917324D01*
X-536387Y-915162D01*
X-536817Y-913000D01*
X-538042Y-911168D01*
X-539874Y-909943D01*
X-542036Y-909513D01*
X-544198Y-909943D01*
X-546030Y-911168D01*
X-547255Y-913000D01*
X-547476Y-914116D01*
X-548854Y-914534D01*
X-555291Y-908097D01*
X-556390Y-907363D01*
X-556386Y-906738D01*
X-556179Y-906093D01*
X-481587D01*
X-481514Y-906202D01*
X-479682Y-907427D01*
X-477520Y-907857D01*
X-475358Y-907427D01*
X-473526Y-906202D01*
X-472301Y-904370D01*
X-471871Y-902208D01*
X-472301Y-900046D01*
X-472822Y-899268D01*
X-472259Y-897824D01*
X-470732Y-896804D01*
X-469507Y-894972D01*
X-469243Y-893644D01*
X-468006Y-892953D01*
X-467912Y-892966D01*
X-465836Y-893379D01*
X-463674Y-892949D01*
X-461842Y-891724D01*
X-460617Y-889892D01*
X-460187Y-887730D01*
X-460617Y-885568D01*
X-461842Y-883736D01*
X-463674Y-882511D01*
X-465836Y-882082D01*
X-466288Y-882171D01*
X-466381Y-882109D01*
X-467868Y-881813D01*
X-477932D01*
X-478531Y-880693D01*
X-478397Y-880494D01*
X-477967Y-878332D01*
X-478397Y-876170D01*
X-479622Y-874338D01*
X-481454Y-873113D01*
X-483616Y-872683D01*
X-485778Y-873113D01*
X-487610Y-874338D01*
X-487683Y-874447D01*
X-561330D01*
X-561928Y-873327D01*
X-561455Y-872620D01*
X-561026Y-870458D01*
X-561455Y-868296D01*
X-562680Y-866464D01*
X-564512Y-865239D01*
X-565991Y-864945D01*
X-566622Y-863603D01*
X-566027Y-862714D01*
X-565597Y-860552D01*
X-566027Y-858390D01*
X-567252Y-856558D01*
X-569084Y-855333D01*
X-571246Y-854903D01*
X-571587Y-854971D01*
X-576325Y-850233D01*
X-575516Y-849246D01*
X-575273Y-849409D01*
X-573786Y-849705D01*
X-561851D01*
X-561778Y-849814D01*
X-559946Y-851039D01*
X-557784Y-851469D01*
X-555622Y-851039D01*
X-553790Y-849814D01*
X-552565Y-847982D01*
X-552136Y-845820D01*
X-552565Y-843658D01*
X-553790Y-841826D01*
X-555622Y-840601D01*
X-557784Y-840172D01*
X-559946Y-840601D01*
X-561778Y-841826D01*
X-561851Y-841935D01*
X-572177D01*
X-592761Y-821351D01*
Y-752381D01*
X-591491Y-751765D01*
X-589975Y-752067D01*
X-588339Y-753703D01*
Y-802640D01*
X-588043Y-804127D01*
X-587201Y-805387D01*
X-547405Y-845183D01*
X-547430Y-845312D01*
X-547001Y-847474D01*
X-545776Y-849306D01*
X-543944Y-850531D01*
X-541782Y-850960D01*
X-539620Y-850531D01*
X-538530Y-849802D01*
X-537260Y-850481D01*
Y-856488D01*
X-537063Y-857479D01*
X-536501Y-858319D01*
X-534723Y-860097D01*
X-533883Y-860659D01*
X-532892Y-860856D01*
X-517906D01*
X-516915Y-860659D01*
X-516075Y-860097D01*
X-506169Y-850191D01*
X-505607Y-849351D01*
X-505410Y-848360D01*
Y-836767D01*
X-504237Y-836281D01*
X-443183Y-897335D01*
X-441923Y-898177D01*
X-440436Y-898473D01*
X-410253D01*
X-410128Y-899743D01*
X-411610Y-900037D01*
X-413442Y-901262D01*
X-414667Y-903094D01*
X-415097Y-905256D01*
X-415071Y-905385D01*
X-422101Y-912415D01*
X-422943Y-913675D01*
X-423239Y-915162D01*
Y-922779D01*
X-423348Y-922852D01*
X-424573Y-924684D01*
X-425003Y-926846D01*
X-424573Y-929008D01*
X-423348Y-930840D01*
X-421516Y-932065D01*
X-419354Y-932495D01*
X-417192Y-932065D01*
X-415360Y-930840D01*
X-414782Y-929975D01*
X-413512D01*
X-412934Y-930840D01*
X-411102Y-932065D01*
X-408940Y-932495D01*
X-406778Y-932065D01*
X-404946Y-930840D01*
X-403721Y-929008D01*
X-403292Y-926846D01*
X-403721Y-924684D01*
X-404946Y-922852D01*
X-404408Y-921711D01*
X-396115Y-913419D01*
X-395986Y-913445D01*
X-393824Y-913015D01*
X-391992Y-911790D01*
X-390767Y-909958D01*
X-390337Y-907796D01*
X-390767Y-905634D01*
X-391992Y-903802D01*
X-393824Y-902577D01*
X-395986Y-902148D01*
X-398148Y-902577D01*
X-399980Y-903802D01*
X-401205Y-905634D01*
X-401634Y-907796D01*
X-401609Y-907925D01*
X-411687Y-918003D01*
X-412529Y-919263D01*
X-412825Y-920750D01*
Y-922779D01*
X-412934Y-922852D01*
X-413465Y-923646D01*
X-414700Y-923677D01*
X-415307Y-922931D01*
X-415360Y-922852D01*
X-415385Y-922835D01*
X-415469Y-922731D01*
Y-916771D01*
X-409577Y-910879D01*
X-409448Y-910904D01*
X-407286Y-910475D01*
X-405454Y-909250D01*
X-404229Y-907418D01*
X-403800Y-905256D01*
X-404229Y-903094D01*
X-405454Y-901262D01*
X-407286Y-900037D01*
X-408768Y-899743D01*
X-408643Y-898473D01*
X-346795D01*
X-323041Y-922227D01*
X-321781Y-923069D01*
X-320294Y-923365D01*
X-300739D01*
X-300666Y-923474D01*
X-298834Y-924699D01*
X-296672Y-925128D01*
X-294510Y-924699D01*
X-292678Y-923474D01*
X-291453Y-921642D01*
X-291024Y-919480D01*
X-291453Y-917318D01*
X-292678Y-915486D01*
X-294510Y-914261D01*
X-296672Y-913831D01*
X-298834Y-914261D01*
X-299849Y-914940D01*
X-300199Y-914821D01*
X-300712Y-913303D01*
X-300343Y-912752D01*
X-299914Y-910590D01*
X-300343Y-908428D01*
X-301568Y-906596D01*
X-303400Y-905371D01*
X-305562Y-904941D01*
X-307724Y-905371D01*
X-309556Y-906596D01*
X-309629Y-906705D01*
X-315129D01*
X-317123Y-904712D01*
X-316958Y-904358D01*
X-316374Y-903664D01*
X-314452Y-904046D01*
X-312290Y-903617D01*
X-310458Y-902392D01*
X-309233Y-900560D01*
X-308804Y-898398D01*
X-309233Y-896236D01*
X-310458Y-894404D01*
X-312290Y-893179D01*
X-314452Y-892749D01*
X-314581Y-892775D01*
X-329204Y-878153D01*
X-328678Y-876883D01*
X-298281D01*
X-284071Y-891092D01*
X-283140Y-892486D01*
X-281308Y-893711D01*
X-279146Y-894140D01*
X-276984Y-893711D01*
X-275152Y-892486D01*
X-273927Y-890654D01*
X-273498Y-888492D01*
X-273927Y-886330D01*
X-275152Y-884498D01*
X-276984Y-883273D01*
X-279146Y-882843D01*
X-279951Y-883004D01*
X-280053Y-882867D01*
X-279512Y-881464D01*
X-278508Y-881265D01*
X-276676Y-880040D01*
X-275451Y-878208D01*
X-275021Y-876046D01*
X-275451Y-873884D01*
X-276676Y-872052D01*
X-278508Y-870827D01*
X-280670Y-870397D01*
X-280799Y-870423D01*
X-287829Y-863393D01*
X-288548Y-862913D01*
X-288163Y-861643D01*
X-282533D01*
X-262457Y-881719D01*
Y-912368D01*
X-262161Y-913855D01*
X-261319Y-915115D01*
X-228889Y-947545D01*
X-228915Y-947674D01*
X-228485Y-949836D01*
X-227260Y-951668D01*
X-225428Y-952893D01*
X-223266Y-953323D01*
X-221104Y-952893D01*
X-219272Y-951668D01*
X-218407Y-950374D01*
X-216989Y-950025D01*
X-216797Y-950060D01*
X-216334Y-950381D01*
X-216039Y-951868D01*
X-214814Y-953700D01*
X-212982Y-954925D01*
X-210820Y-955355D01*
X-208658Y-954925D01*
X-206826Y-953700D01*
X-205601Y-951868D01*
X-205172Y-949706D01*
X-205601Y-947544D01*
X-206826Y-945712D01*
X-208658Y-944487D01*
X-210820Y-944057D01*
X-210949Y-944083D01*
X-245289Y-909743D01*
Y-905118D01*
X-244116Y-904632D01*
X-200949Y-947799D01*
X-200975Y-947928D01*
X-200545Y-950090D01*
X-199320Y-951922D01*
X-197488Y-953147D01*
X-195326Y-953577D01*
X-193656Y-953244D01*
X-193030Y-954415D01*
X-197043Y-958428D01*
X-318895D01*
X-319139Y-957196D01*
X-320364Y-955364D01*
X-322196Y-954139D01*
X-324358Y-953709D01*
X-326520Y-954139D01*
X-328352Y-955364D01*
X-329577Y-957196D01*
X-330006Y-959358D01*
X-329577Y-961520D01*
X-328366Y-963331D01*
X-328606Y-963492D01*
X-329831Y-965324D01*
X-330261Y-967486D01*
X-329831Y-969648D01*
X-328606Y-971480D01*
X-327473Y-972237D01*
X-327858Y-973507D01*
X-355007D01*
X-375250Y-953264D01*
X-375224Y-953135D01*
X-375654Y-950973D01*
X-376879Y-949141D01*
X-378711Y-947916D01*
X-380873Y-947486D01*
X-383035Y-947916D01*
X-384867Y-949141D01*
X-386092Y-950973D01*
X-386521Y-953135D01*
X-386092Y-955297D01*
X-384867Y-957129D01*
X-383035Y-958354D01*
X-380873Y-958783D01*
X-380744Y-958758D01*
X-360564Y-978938D01*
X-361050Y-980111D01*
X-364913D01*
X-402809Y-942215D01*
X-402784Y-942086D01*
X-403213Y-939924D01*
X-404438Y-938092D01*
X-406270Y-936867D01*
X-408432Y-936438D01*
X-410594Y-936867D01*
X-412426Y-938092D01*
X-413651Y-939924D01*
X-414081Y-942086D01*
X-413651Y-944248D01*
X-412426Y-946080D01*
X-410594Y-947305D01*
X-408432Y-947735D01*
X-408303Y-947709D01*
X-369269Y-986743D01*
X-368009Y-987585D01*
X-366522Y-987881D01*
X-174498D01*
X-173011Y-987585D01*
X-171751Y-986743D01*
X-105579Y-920571D01*
X-90678D01*
X-89191Y-920275D01*
X-87931Y-919433D01*
X-78869Y-910371D01*
X-78740Y-910396D01*
X-76578Y-909967D01*
X-74746Y-908742D01*
X-73521Y-906910D01*
X-73092Y-904748D01*
X-73521Y-902586D01*
X-74746Y-900754D01*
X-76578Y-899529D01*
X-78740Y-899100D01*
X-80902Y-899529D01*
X-82734Y-900754D01*
X-83959Y-902586D01*
X-84316Y-904381D01*
X-85519D01*
X-85619Y-904337D01*
X-85967Y-902586D01*
X-87192Y-900754D01*
X-89024Y-899529D01*
X-91186Y-899100D01*
X-93348Y-899529D01*
X-95180Y-900754D01*
X-95253Y-900863D01*
X-117348D01*
X-118835Y-901159D01*
X-120095Y-902001D01*
X-191601Y-973507D01*
X-321366D01*
X-321751Y-972237D01*
X-320618Y-971480D01*
X-319393Y-969648D01*
X-319189Y-968620D01*
X-194259D01*
X-192931Y-968355D01*
X-191805Y-967603D01*
X-132928Y-908726D01*
X-132928Y-908726D01*
X-112695Y-888493D01*
X-111943Y-887367D01*
X-111679Y-886039D01*
Y-807308D01*
X-110614Y-807097D01*
X-108782Y-805872D01*
X-107557Y-804040D01*
X-107128Y-801878D01*
X-107557Y-799716D01*
X-108782Y-797884D01*
X-110614Y-796659D01*
X-112776Y-796229D01*
X-114938Y-796659D01*
X-116398Y-797635D01*
X-116402Y-797630D01*
X-118234Y-796405D01*
X-120396Y-795975D01*
X-122558Y-796405D01*
X-124390Y-797630D01*
X-125615Y-799462D01*
X-126045Y-801624D01*
X-125615Y-803786D01*
X-124390Y-805618D01*
X-122558Y-806843D01*
X-121870Y-806979D01*
Y-883255D01*
X-188839Y-950224D01*
X-190010Y-949598D01*
X-189678Y-947928D01*
X-190107Y-945766D01*
X-191332Y-943934D01*
X-193164Y-942709D01*
X-195326Y-942280D01*
X-195455Y-942305D01*
X-238685Y-899075D01*
Y-872236D01*
X-238981Y-870749D01*
X-239823Y-869489D01*
X-267763Y-841549D01*
X-269023Y-840707D01*
X-270510Y-840411D01*
X-329607D01*
X-344857Y-825161D01*
Y-818481D01*
X-343587Y-817955D01*
X-338328Y-823214D01*
X-306832D01*
X-299466Y-815848D01*
X-155956D01*
X-90170Y-750062D01*
Y-715772D01*
X-24130Y-649732D01*
X-10922D01*
Y-1120140D01*
X-47752Y-1156970D01*
X-924814D01*
X-960374Y-1121410D01*
Y-753606D01*
X-959201Y-753120D01*
X-950013Y-762307D01*
X-949173Y-762869D01*
X-948182Y-763066D01*
X-923344Y-763066D01*
X-923290Y-763076D01*
X-923236Y-763066D01*
X-921394D01*
X-921394Y-763066D01*
X-864616D01*
X-863625Y-762869D01*
X-862785Y-762307D01*
X-859483Y-759005D01*
X-858921Y-758165D01*
X-858724Y-757174D01*
Y-732028D01*
X-858921Y-731037D01*
X-859483Y-730197D01*
X-862277Y-727403D01*
X-863117Y-726841D01*
X-864108Y-726644D01*
X-870458D01*
X-871449Y-726841D01*
X-872289Y-727403D01*
X-874829Y-729943D01*
X-875391Y-730783D01*
X-875588Y-731774D01*
Y-741676D01*
X-876858Y-742354D01*
X-877694Y-741795D01*
X-879856Y-741366D01*
X-882018Y-741795D01*
X-883850Y-743020D01*
X-883923Y-743129D01*
X-904409D01*
X-906697Y-740842D01*
X-906071Y-739671D01*
X-905500Y-739785D01*
X-903533Y-739393D01*
X-901866Y-738280D01*
X-900752Y-736612D01*
X-900647Y-736085D01*
X-899353D01*
X-899248Y-736612D01*
X-898134Y-738280D01*
X-896467Y-739393D01*
X-894500Y-739785D01*
X-892533Y-739393D01*
X-890866Y-738280D01*
X-889752Y-736612D01*
X-889361Y-734646D01*
X-889752Y-732680D01*
X-890866Y-731012D01*
X-892533Y-729898D01*
X-893061Y-729793D01*
Y-728499D01*
X-892533Y-728393D01*
X-890866Y-727280D01*
X-889752Y-725612D01*
X-889361Y-723646D01*
X-889752Y-721680D01*
X-890866Y-720012D01*
X-892533Y-718898D01*
X-893061Y-718793D01*
Y-717498D01*
X-892533Y-717394D01*
X-890866Y-716280D01*
X-889752Y-714613D01*
X-889361Y-712646D01*
X-889752Y-710679D01*
X-890866Y-709012D01*
X-892533Y-707898D01*
X-894500Y-707507D01*
X-896467Y-707898D01*
X-898134Y-709012D01*
X-899248Y-710679D01*
X-899353Y-711207D01*
X-900647D01*
X-900752Y-710679D01*
X-901866Y-709012D01*
X-903533Y-707898D01*
X-904563Y-707694D01*
X-904437Y-706424D01*
X-896620D01*
X-895629Y-706227D01*
X-894789Y-705665D01*
X-891741Y-702617D01*
X-891179Y-701777D01*
X-890982Y-700786D01*
Y-697738D01*
X-891179Y-696747D01*
X-891741Y-695907D01*
X-894535Y-693113D01*
X-895375Y-692551D01*
X-896366Y-692354D01*
X-946912D01*
X-947903Y-692551D01*
X-948743Y-693113D01*
X-959201Y-703570D01*
X-960374Y-703084D01*
Y-597904D01*
X-959201Y-597418D01*
X-948235Y-608383D01*
X-947395Y-608945D01*
X-946404Y-609142D01*
X-930081D01*
X-929996Y-609199D01*
X-929005Y-609396D01*
X-874014D01*
X-873023Y-609199D01*
X-872183Y-608637D01*
X-859356Y-595810D01*
X-858794Y-594970D01*
X-858597Y-593979D01*
Y-577850D01*
X-858794Y-576859D01*
X-859356Y-576019D01*
X-863928Y-571447D01*
X-864768Y-570885D01*
X-865759Y-570688D01*
X-870585D01*
X-871576Y-570885D01*
X-872416Y-571447D01*
X-874702Y-573733D01*
X-875264Y-574573D01*
X-875461Y-575564D01*
Y-586014D01*
X-876639Y-586784D01*
X-876731Y-586773D01*
X-877894Y-585032D01*
X-879726Y-583807D01*
X-881888Y-583377D01*
X-884050Y-583807D01*
X-885882Y-585032D01*
X-885955Y-585141D01*
X-913299D01*
X-924525Y-573915D01*
X-924500Y-573786D01*
X-924929Y-571624D01*
X-925998Y-570026D01*
X-925593Y-568756D01*
X-915162D01*
X-914171Y-568559D01*
X-913331Y-567997D01*
X-911807Y-566473D01*
X-911715Y-566335D01*
X-910518Y-566831D01*
X-910639Y-567436D01*
X-910248Y-569403D01*
X-909134Y-571070D01*
X-907467Y-572184D01*
X-906939Y-572289D01*
Y-573583D01*
X-907467Y-573688D01*
X-909134Y-574802D01*
X-910248Y-576469D01*
X-910639Y-578436D01*
X-910248Y-580402D01*
X-909134Y-582070D01*
X-907467Y-583184D01*
X-905500Y-583575D01*
X-903533Y-583184D01*
X-901866Y-582070D01*
X-900752Y-580402D01*
X-900647Y-579875D01*
X-899353D01*
X-899248Y-580402D01*
X-898134Y-582070D01*
X-896467Y-583184D01*
X-894500Y-583575D01*
X-892533Y-583184D01*
X-890866Y-582070D01*
X-889752Y-580402D01*
X-889361Y-578436D01*
X-889752Y-576469D01*
X-890866Y-574802D01*
X-892533Y-573688D01*
X-893061Y-573583D01*
Y-572289D01*
X-892533Y-572184D01*
X-890866Y-571070D01*
X-889752Y-569403D01*
X-889361Y-567436D01*
X-889752Y-565470D01*
X-890866Y-563802D01*
X-892533Y-562688D01*
X-893061Y-562584D01*
Y-561289D01*
X-892533Y-561184D01*
X-890866Y-560070D01*
X-889752Y-558402D01*
X-889361Y-556436D01*
X-889752Y-554469D01*
X-890866Y-552802D01*
X-892533Y-551688D01*
X-894011Y-551395D01*
X-894303Y-550738D01*
X-894398Y-550081D01*
X-891487Y-547169D01*
X-890925Y-546329D01*
X-890728Y-545338D01*
Y-542290D01*
X-890925Y-541299D01*
X-891487Y-540459D01*
X-894281Y-537665D01*
X-895121Y-537103D01*
X-896112Y-536906D01*
X-946658D01*
X-947649Y-537103D01*
X-948489Y-537665D01*
X-959201Y-548376D01*
X-960374Y-547890D01*
Y-419596D01*
X-959201Y-419110D01*
X-948997Y-429313D01*
X-948157Y-429875D01*
X-947166Y-430072D01*
X-928932D01*
X-928878Y-430083D01*
X-928824Y-430072D01*
X-877570D01*
X-876579Y-429875D01*
X-875739Y-429313D01*
X-860499Y-414073D01*
X-859937Y-413233D01*
X-859740Y-412242D01*
Y-398526D01*
X-859937Y-397535D01*
X-860499Y-396695D01*
X-865071Y-392123D01*
X-865911Y-391561D01*
X-866902Y-391364D01*
X-871728D01*
X-872719Y-391561D01*
X-873559Y-392123D01*
X-875845Y-394409D01*
X-876407Y-395249D01*
X-876604Y-396240D01*
Y-408486D01*
X-877292Y-409047D01*
X-878670Y-408731D01*
X-879672Y-407232D01*
X-881504Y-406007D01*
X-883666Y-405578D01*
X-885828Y-406007D01*
X-887660Y-407232D01*
X-887733Y-407341D01*
X-912537D01*
X-925033Y-394845D01*
X-925007Y-394716D01*
X-925437Y-392554D01*
X-926662Y-390722D01*
X-926692Y-390702D01*
X-926307Y-389432D01*
X-916178D01*
X-915187Y-389235D01*
X-914347Y-388673D01*
X-912823Y-387149D01*
X-912261Y-386309D01*
X-912064Y-385318D01*
Y-380484D01*
X-910794Y-380099D01*
X-909896Y-381444D01*
X-908229Y-382558D01*
X-907701Y-382663D01*
Y-383957D01*
X-908229Y-384062D01*
X-909896Y-385176D01*
X-911010Y-386843D01*
X-911401Y-388810D01*
X-911010Y-390776D01*
X-909896Y-392444D01*
X-908229Y-393558D01*
X-907701Y-393663D01*
Y-394957D01*
X-908229Y-395062D01*
X-909896Y-396176D01*
X-911010Y-397844D01*
X-911401Y-399810D01*
X-911010Y-401777D01*
X-909896Y-403444D01*
X-908229Y-404558D01*
X-906262Y-404949D01*
X-904296Y-404558D01*
X-902628Y-403444D01*
X-901514Y-401777D01*
X-901409Y-401249D01*
X-900115D01*
X-900010Y-401777D01*
X-898896Y-403444D01*
X-897228Y-404558D01*
X-895262Y-404949D01*
X-893296Y-404558D01*
X-891628Y-403444D01*
X-890514Y-401777D01*
X-890123Y-399810D01*
X-890514Y-397844D01*
X-891628Y-396176D01*
X-893296Y-395062D01*
X-893823Y-394957D01*
Y-393663D01*
X-893296Y-393558D01*
X-891628Y-392444D01*
X-890514Y-390776D01*
X-890123Y-388810D01*
X-890514Y-386843D01*
X-891628Y-385176D01*
X-893296Y-384062D01*
X-893823Y-383957D01*
Y-382663D01*
X-893296Y-382558D01*
X-891628Y-381444D01*
X-890514Y-379776D01*
X-890123Y-377810D01*
X-890514Y-375844D01*
X-891628Y-374176D01*
X-893296Y-373062D01*
X-895262Y-372671D01*
X-897228Y-373062D01*
X-898896Y-374176D01*
X-900010Y-375844D01*
X-900115Y-376371D01*
X-901409D01*
X-901514Y-375844D01*
X-902628Y-374176D01*
X-904296Y-373062D01*
X-905003Y-372922D01*
X-904878Y-371652D01*
X-897382D01*
X-896391Y-371455D01*
X-895551Y-370893D01*
X-892503Y-367845D01*
X-891941Y-367005D01*
X-891744Y-366014D01*
Y-362966D01*
X-891941Y-361975D01*
X-892503Y-361135D01*
X-895297Y-358341D01*
X-896137Y-357779D01*
X-897128Y-357582D01*
X-947674D01*
X-948665Y-357779D01*
X-949505Y-358341D01*
X-959201Y-368036D01*
X-960374Y-367550D01*
Y-300871D01*
X-959201Y-300385D01*
X-956310Y-303276D01*
X-852424D01*
X-843280Y-294132D01*
Y-212852D01*
X-866902Y-189230D01*
X-960628D01*
Y-52324D01*
X-961136Y-51816D01*
X-920750Y-11430D01*
X-51816D01*
X-11176Y-52070D01*
D02*
G37*
G36*
X-894334Y-362966D02*
Y-366014D01*
X-897382Y-369062D01*
X-913130D01*
X-914654Y-370586D01*
Y-385318D01*
X-916178Y-386842D01*
X-933958D01*
X-939292Y-392176D01*
Y-404368D01*
X-934974Y-408686D01*
X-925576D01*
X-917956Y-416306D01*
X-886035D01*
X-885828Y-416445D01*
X-883666Y-416875D01*
X-881504Y-416445D01*
X-881297Y-416306D01*
X-880364D01*
X-874014Y-409956D01*
Y-396240D01*
X-871728Y-393954D01*
X-866902D01*
X-862330Y-398526D01*
Y-412242D01*
X-877570Y-427482D01*
X-947166D01*
X-961644Y-413004D01*
Y-374142D01*
X-947674Y-360172D01*
X-897128D01*
X-894334Y-362966D01*
D02*
G37*
G36*
X-410793Y-462916D02*
Y-469138D01*
X-410497Y-470625D01*
X-409655Y-471885D01*
X-394791Y-486749D01*
Y-511725D01*
X-402675Y-519609D01*
X-404283D01*
X-406449Y-517443D01*
X-406018Y-516211D01*
X-405941Y-516156D01*
X-403860Y-516570D01*
X-401698Y-516140D01*
X-399866Y-514915D01*
X-398641Y-513083D01*
X-398212Y-510921D01*
X-398641Y-508759D01*
X-399866Y-506927D01*
X-399975Y-506854D01*
Y-492760D01*
X-400271Y-491273D01*
X-401113Y-490013D01*
X-427123Y-464004D01*
X-427044Y-463650D01*
X-425675Y-463348D01*
X-425359Y-463759D01*
X-423555Y-465144D01*
X-421455Y-466014D01*
X-419200Y-466311D01*
X-416945Y-466014D01*
X-414845Y-465144D01*
X-413041Y-463759D01*
X-412063Y-462485D01*
X-410793Y-462916D01*
D02*
G37*
G36*
X-678688Y-391160D02*
Y-399288D01*
X-719328Y-439928D01*
X-772668D01*
X-803656Y-470916D01*
X-822198D01*
X-822960Y-470154D01*
Y-448818D01*
X-799084Y-424942D01*
X-736600D01*
X-700278Y-388620D01*
X-681228D01*
X-678688Y-391160D01*
D02*
G37*
G36*
X-627005Y-484453D02*
X-627082Y-484557D01*
X-645922D01*
X-647409Y-484853D01*
X-648669Y-485695D01*
X-715568Y-552594D01*
X-716946Y-552177D01*
X-716975Y-552034D01*
X-648123Y-483183D01*
X-627646D01*
X-627005Y-484453D01*
D02*
G37*
G36*
X-360501Y-510496D02*
Y-581798D01*
X-361674Y-582284D01*
X-367209Y-576749D01*
Y-563118D01*
X-367505Y-561631D01*
X-368347Y-560371D01*
X-382698Y-546020D01*
X-383958Y-545178D01*
X-384556Y-545059D01*
Y-532892D01*
X-361674Y-510010D01*
X-360501Y-510496D01*
D02*
G37*
G36*
X-893318Y-542290D02*
Y-545338D01*
X-896366Y-548386D01*
X-912114D01*
X-913638Y-549910D01*
Y-564642D01*
X-915162Y-566166D01*
X-932942D01*
X-938276Y-571500D01*
Y-583692D01*
X-933958Y-588010D01*
X-924306D01*
Y-588137D01*
X-916813Y-595630D01*
X-879221D01*
X-872871Y-589280D01*
Y-575564D01*
X-870585Y-573278D01*
X-865759D01*
X-861187Y-577850D01*
Y-593979D01*
X-874014Y-606806D01*
X-929005D01*
X-929132Y-606679D01*
Y-606552D01*
X-946404D01*
X-960628Y-592328D01*
Y-553466D01*
X-946658Y-539496D01*
X-896112D01*
X-893318Y-542290D01*
D02*
G37*
G36*
X-374979Y-564727D02*
Y-578358D01*
X-374683Y-579845D01*
X-373841Y-581105D01*
X-366089Y-588857D01*
Y-670110D01*
X-367359Y-670495D01*
X-367608Y-670122D01*
X-369440Y-668897D01*
X-371602Y-668467D01*
X-373764Y-668897D01*
X-375596Y-670122D01*
X-376737Y-669584D01*
X-381428Y-664892D01*
X-375158Y-658622D01*
Y-647192D01*
X-384556Y-637794D01*
Y-556809D01*
X-383383Y-556323D01*
X-374979Y-564727D01*
D02*
G37*
G36*
X-515758Y-680996D02*
X-516244Y-682169D01*
X-569164D01*
X-569290Y-680899D01*
X-569084Y-680859D01*
X-567252Y-679634D01*
X-566027Y-677802D01*
X-565865Y-676985D01*
X-519769D01*
X-515758Y-680996D01*
D02*
G37*
G36*
X-893572Y-697738D02*
Y-700786D01*
X-896620Y-703834D01*
X-912368D01*
X-913892Y-705358D01*
Y-720090D01*
X-915416Y-721614D01*
X-933196D01*
X-938530Y-726948D01*
Y-739140D01*
X-934466Y-743204D01*
X-925322Y-743204D01*
Y-743204D01*
X-918464D01*
X-908812Y-752856D01*
X-877316D01*
X-872998Y-748538D01*
Y-731774D01*
X-870458Y-729234D01*
X-864108D01*
X-861314Y-732028D01*
Y-757174D01*
X-864616Y-760476D01*
X-921394D01*
X-921394Y-760476D01*
X-948182Y-760476D01*
X-960882Y-747776D01*
Y-708914D01*
X-946912Y-694944D01*
X-896366D01*
X-893572Y-697738D01*
D02*
G37*
G36*
X-595306Y-688524D02*
X-593474Y-689749D01*
X-591312Y-690179D01*
X-589150Y-689749D01*
X-587318Y-688524D01*
X-587245Y-688415D01*
X-582293D01*
X-581907Y-688801D01*
X-580646Y-689643D01*
X-579160Y-689939D01*
X-515197D01*
X-507313Y-697823D01*
Y-794914D01*
X-508000Y-795478D01*
X-520700D01*
X-521691Y-795675D01*
X-522531Y-796237D01*
X-523093Y-797077D01*
X-523290Y-798068D01*
Y-816299D01*
X-536501Y-829511D01*
X-537063Y-830351D01*
X-537260Y-831342D01*
Y-840143D01*
X-538530Y-840822D01*
X-539620Y-840093D01*
X-541782Y-839663D01*
X-541911Y-839689D01*
X-580569Y-801031D01*
Y-752094D01*
X-580865Y-750607D01*
X-581707Y-749347D01*
X-583995Y-747059D01*
X-583885Y-746506D01*
X-584315Y-744344D01*
X-585540Y-742512D01*
X-587372Y-741287D01*
X-589534Y-740857D01*
X-590187Y-740987D01*
X-591085Y-740089D01*
X-590998Y-739648D01*
X-591179Y-738738D01*
X-589581Y-737141D01*
X-588739Y-735880D01*
X-588443Y-734394D01*
Y-717042D01*
X-588739Y-715555D01*
X-589581Y-714295D01*
X-597587Y-706289D01*
Y-687393D01*
X-596317Y-687011D01*
X-595306Y-688524D01*
D02*
G37*
G36*
X-508000Y-848360D02*
X-517906Y-858266D01*
X-532892D01*
X-534670Y-856488D01*
Y-831342D01*
X-520700Y-817372D01*
Y-798068D01*
X-508000D01*
Y-848360D01*
D02*
G37*
G36*
X-518113Y-665687D02*
X-516853Y-666529D01*
X-515366Y-666825D01*
X-403499D01*
X-402863Y-668095D01*
X-403745Y-669414D01*
X-404174Y-671576D01*
X-403745Y-673738D01*
X-402520Y-675570D01*
X-400688Y-676795D01*
X-398526Y-677225D01*
X-396787Y-676879D01*
X-395759Y-677561D01*
X-395575Y-677794D01*
X-395550Y-678512D01*
X-396678Y-679266D01*
X-397381Y-680318D01*
X-398909D01*
X-399612Y-679266D01*
X-401444Y-678041D01*
X-403606Y-677611D01*
X-405768Y-678041D01*
X-407600Y-679266D01*
X-408135Y-680066D01*
X-409518Y-680282D01*
X-411350Y-679057D01*
X-413512Y-678627D01*
X-415674Y-679057D01*
X-417506Y-680282D01*
X-419016Y-680256D01*
X-419678Y-679266D01*
X-421510Y-678041D01*
X-423672Y-677611D01*
X-425834Y-678041D01*
X-427666Y-679266D01*
X-429049Y-679050D01*
X-429584Y-678250D01*
X-431416Y-677025D01*
X-433578Y-676596D01*
X-435740Y-677025D01*
X-437572Y-678250D01*
X-438945Y-678019D01*
X-440052Y-677279D01*
X-442214Y-676850D01*
X-444376Y-677279D01*
X-446208Y-678504D01*
X-447433Y-680336D01*
X-447863Y-682498D01*
X-447433Y-684660D01*
X-446208Y-686492D01*
X-444376Y-687717D01*
X-442214Y-688147D01*
X-440052Y-687717D01*
X-438220Y-686492D01*
X-436938Y-686662D01*
X-435740Y-687463D01*
X-433578Y-687893D01*
X-431416Y-687463D01*
X-429584Y-686238D01*
X-428201Y-686454D01*
X-427666Y-687254D01*
X-425834Y-688479D01*
X-423672Y-688908D01*
X-421510Y-688479D01*
X-419678Y-687254D01*
X-418168Y-687280D01*
X-417506Y-688270D01*
X-415674Y-689495D01*
X-413512Y-689924D01*
X-411350Y-689495D01*
X-409518Y-688270D01*
X-408983Y-687470D01*
X-407600Y-687254D01*
X-405768Y-688479D01*
X-403606Y-688908D01*
X-401444Y-688479D01*
X-399612Y-687254D01*
X-398909Y-686202D01*
X-397381D01*
X-396678Y-687254D01*
X-394846Y-688479D01*
X-392684Y-688908D01*
X-390522Y-688479D01*
X-388690Y-687254D01*
X-387465Y-685422D01*
X-387035Y-683260D01*
X-387465Y-681098D01*
X-388690Y-679266D01*
X-390230Y-678237D01*
X-390141Y-677035D01*
X-390096Y-676915D01*
X-389760Y-676848D01*
X-387928Y-675624D01*
X-386703Y-673792D01*
X-386473Y-672631D01*
X-385095Y-672213D01*
X-380445Y-676863D01*
X-379185Y-677705D01*
X-377698Y-678001D01*
X-375669D01*
X-375596Y-678110D01*
X-373764Y-679335D01*
X-371602Y-679764D01*
X-369440Y-679335D01*
X-367608Y-678110D01*
X-367359Y-677737D01*
X-366089Y-678122D01*
Y-831088D01*
X-365793Y-832575D01*
X-364951Y-833835D01*
X-338281Y-860505D01*
X-337562Y-860985D01*
X-337947Y-862255D01*
X-424095D01*
X-427576Y-858774D01*
X-427050Y-857504D01*
X-415544D01*
X-394970Y-836930D01*
Y-716534D01*
X-395224Y-716280D01*
X-423926D01*
X-433070Y-725424D01*
Y-742442D01*
X-443738Y-753110D01*
X-470113D01*
X-470599Y-751937D01*
X-461057Y-742395D01*
X-460215Y-741135D01*
X-459919Y-739648D01*
Y-691134D01*
X-460215Y-689647D01*
X-461057Y-688387D01*
X-472233Y-677211D01*
X-473493Y-676369D01*
X-474980Y-676073D01*
X-481835D01*
X-481908Y-675964D01*
X-483740Y-674739D01*
X-485902Y-674309D01*
X-488064Y-674739D01*
X-489896Y-675964D01*
X-491121Y-677796D01*
X-491550Y-679958D01*
X-491121Y-682120D01*
X-489896Y-683952D01*
X-488400Y-684952D01*
X-488241Y-686061D01*
X-488313Y-686421D01*
X-489388Y-687140D01*
X-490613Y-688972D01*
X-491043Y-691134D01*
X-490613Y-693296D01*
X-489388Y-695128D01*
X-488839Y-695495D01*
Y-696462D01*
X-488974Y-696932D01*
X-490105Y-698624D01*
X-490535Y-700786D01*
X-490105Y-702948D01*
X-488880Y-704780D01*
X-487048Y-706005D01*
X-484886Y-706434D01*
X-484453Y-707617D01*
Y-728641D01*
X-492274Y-736462D01*
X-493447Y-735976D01*
Y-693928D01*
X-493743Y-692441D01*
X-494585Y-691181D01*
X-505574Y-680193D01*
X-504764Y-679206D01*
X-503812Y-679843D01*
X-501650Y-680273D01*
X-499488Y-679843D01*
X-497656Y-678618D01*
X-496431Y-676786D01*
X-496002Y-674624D01*
X-496431Y-672462D01*
X-497656Y-670630D01*
X-499488Y-669405D01*
X-501650Y-668976D01*
X-503812Y-669405D01*
X-505644Y-670630D01*
X-506869Y-672462D01*
X-507299Y-674624D01*
X-506869Y-676786D01*
X-506232Y-677738D01*
X-507219Y-678548D01*
X-515413Y-670353D01*
X-516673Y-669511D01*
X-518160Y-669215D01*
X-568706D01*
X-570193Y-669511D01*
X-570988Y-670043D01*
X-571246Y-669992D01*
X-573408Y-670421D01*
X-575240Y-671646D01*
X-576465Y-673478D01*
X-576894Y-675640D01*
X-576465Y-677802D01*
X-575240Y-679634D01*
X-573408Y-680859D01*
X-573203Y-680899D01*
X-573328Y-682169D01*
X-577551D01*
X-577937Y-681783D01*
X-579197Y-680941D01*
X-580684Y-680645D01*
X-587245D01*
X-587318Y-680536D01*
X-589150Y-679311D01*
X-591312Y-678882D01*
X-593474Y-679311D01*
X-595306Y-680536D01*
X-596317Y-682049D01*
X-597587Y-681667D01*
Y-674963D01*
X-584369Y-661745D01*
X-522055D01*
X-518113Y-665687D01*
D02*
G37*
G36*
X-649743Y-560767D02*
X-649807Y-561086D01*
Y-866976D01*
X-650927Y-867575D01*
X-651380Y-867271D01*
X-653542Y-866842D01*
X-655704Y-867271D01*
X-657536Y-868496D01*
X-658761Y-870328D01*
X-659191Y-872490D01*
X-658761Y-874652D01*
X-657536Y-876484D01*
X-655704Y-877709D01*
X-653542Y-878139D01*
X-651380Y-877709D01*
X-650927Y-877405D01*
X-649807Y-878004D01*
Y-930024D01*
X-657317D01*
X-674549Y-912791D01*
Y-583777D01*
X-650914Y-560141D01*
X-649743Y-560767D01*
D02*
G37*
G36*
X-482068Y-897965D02*
X-482360Y-898323D01*
X-584027D01*
X-584263Y-897965D01*
X-583579Y-896695D01*
X-482673D01*
X-482068Y-897965D01*
D02*
G37*
G36*
X-589233Y-904955D02*
X-587973Y-905797D01*
X-586486Y-906093D01*
X-570885D01*
X-570249Y-907363D01*
X-571131Y-908682D01*
X-571561Y-910844D01*
X-571131Y-913006D01*
X-569906Y-914838D01*
X-568074Y-916063D01*
X-565912Y-916492D01*
X-565439Y-916398D01*
X-565009Y-916832D01*
X-564567Y-917520D01*
X-564957Y-919480D01*
X-564527Y-921642D01*
X-564250Y-922056D01*
X-565165Y-922971D01*
X-566036Y-922389D01*
X-568198Y-921960D01*
X-570360Y-922389D01*
X-572192Y-923614D01*
X-573348Y-923728D01*
X-577342Y-919734D01*
X-574267Y-928994D01*
X-575010Y-930024D01*
X-635687D01*
Y-860160D01*
X-634514Y-859674D01*
X-589233Y-904955D01*
D02*
G37*
G36*
X-95180Y-908742D02*
X-93348Y-909967D01*
X-91597Y-910315D01*
X-91052Y-911566D01*
X-92287Y-912801D01*
X-107188D01*
X-108675Y-913097D01*
X-109935Y-913939D01*
X-176107Y-980111D01*
X-185558D01*
X-186044Y-978938D01*
X-115739Y-908633D01*
X-95253D01*
X-95180Y-908742D01*
D02*
G37*
G36*
X-604389Y-1054753D02*
X-605659Y-1055792D01*
X-606806Y-1055564D01*
X-608968Y-1055993D01*
X-610800Y-1057218D01*
X-610873Y-1057327D01*
X-630343D01*
X-646731Y-1040939D01*
X-641933Y-1036141D01*
X-619298D01*
X-618883Y-1038228D01*
X-617658Y-1040060D01*
X-615826Y-1041285D01*
X-613664Y-1041714D01*
X-611502Y-1041285D01*
X-609670Y-1040060D01*
X-608445Y-1038228D01*
X-608016Y-1036066D01*
X-608445Y-1033904D01*
X-609670Y-1032072D01*
X-609898Y-1031919D01*
Y-1030392D01*
X-609162Y-1029900D01*
X-607937Y-1028068D01*
X-607508Y-1025906D01*
X-607937Y-1023744D01*
X-609162Y-1021912D01*
X-609393Y-1021758D01*
Y-1020488D01*
X-608654Y-1019994D01*
X-607429Y-1018162D01*
X-607000Y-1016000D01*
X-607429Y-1013838D01*
X-608654Y-1012006D01*
X-609993Y-1011111D01*
X-609725Y-1009763D01*
X-609534Y-1009725D01*
X-607701Y-1008501D01*
X-606477Y-1006668D01*
X-606398Y-1006273D01*
X-604389D01*
Y-1054753D01*
D02*
G37*
G36*
X-571180Y-1005892D02*
X-570922Y-1006278D01*
X-570813Y-1006351D01*
Y-1079665D01*
X-571430Y-1080078D01*
X-572655Y-1081910D01*
X-573084Y-1084072D01*
X-572702Y-1085994D01*
X-573396Y-1086578D01*
X-573750Y-1086743D01*
X-577521Y-1082971D01*
Y-1006273D01*
X-572950D01*
X-572444Y-1005767D01*
X-571180Y-1005892D01*
D02*
G37*
G36*
X-548949Y-1094336D02*
X-549575Y-1095507D01*
X-551180Y-1095188D01*
X-553342Y-1095617D01*
X-555174Y-1096842D01*
X-556399Y-1098674D01*
X-556828Y-1100836D01*
X-556572Y-1102124D01*
X-557743Y-1102749D01*
X-570107Y-1090386D01*
X-569942Y-1090032D01*
X-569358Y-1089338D01*
X-567436Y-1089721D01*
X-565274Y-1089291D01*
X-563442Y-1088066D01*
X-562217Y-1086234D01*
X-561787Y-1084072D01*
X-561981Y-1083101D01*
X-560810Y-1082476D01*
X-548949Y-1094336D01*
D02*
G37*
%LPC*%
G36*
X-241046Y-191201D02*
X-243208Y-191631D01*
X-245040Y-192856D01*
X-246265Y-194688D01*
X-246695Y-196850D01*
X-246265Y-199012D01*
X-245040Y-200844D01*
X-243208Y-202069D01*
X-241046Y-202498D01*
X-238884Y-202069D01*
X-237052Y-200844D01*
X-235827Y-199012D01*
X-235397Y-196850D01*
X-235827Y-194688D01*
X-237052Y-192856D01*
X-238884Y-191631D01*
X-241046Y-191201D01*
D02*
G37*
G36*
X-295656Y-191709D02*
X-297818Y-192139D01*
X-299650Y-193364D01*
X-300875Y-195196D01*
X-301304Y-197358D01*
X-300875Y-199520D01*
X-299650Y-201352D01*
X-297818Y-202577D01*
X-295656Y-203006D01*
X-293494Y-202577D01*
X-291662Y-201352D01*
X-290437Y-199520D01*
X-290007Y-197358D01*
X-290437Y-195196D01*
X-291662Y-193364D01*
X-293494Y-192139D01*
X-295656Y-191709D01*
D02*
G37*
G36*
X-332232Y-207966D02*
X-334394Y-208395D01*
X-336226Y-209620D01*
X-337451Y-211452D01*
X-337881Y-213614D01*
X-337451Y-215776D01*
X-336226Y-217608D01*
X-334394Y-218833D01*
X-332232Y-219263D01*
X-330070Y-218833D01*
X-328238Y-217608D01*
X-327013Y-215776D01*
X-326584Y-213614D01*
X-327013Y-211452D01*
X-328238Y-209620D01*
X-330070Y-208395D01*
X-332232Y-207966D01*
D02*
G37*
G36*
X-379730Y-246066D02*
X-381892Y-246495D01*
X-383724Y-247720D01*
X-384949Y-249552D01*
X-385378Y-251714D01*
X-384949Y-253876D01*
X-383724Y-255708D01*
X-381892Y-256933D01*
X-379730Y-257362D01*
X-377568Y-256933D01*
X-375736Y-255708D01*
X-374511Y-253876D01*
X-374081Y-251714D01*
X-374511Y-249552D01*
X-375736Y-247720D01*
X-377568Y-246495D01*
X-379730Y-246066D01*
D02*
G37*
G36*
X-440182Y-28895D02*
X-442344Y-29325D01*
X-444176Y-30550D01*
X-445401Y-32382D01*
X-445830Y-34544D01*
X-445401Y-36706D01*
X-444176Y-38538D01*
X-442344Y-39763D01*
X-440182Y-40192D01*
X-438020Y-39763D01*
X-436188Y-38538D01*
X-434963Y-36706D01*
X-434534Y-34544D01*
X-434963Y-32382D01*
X-436188Y-30550D01*
X-438020Y-29325D01*
X-440182Y-28895D01*
D02*
G37*
G36*
X-119558Y-65875D02*
X-123879Y-66215D01*
X-128095Y-67227D01*
X-132100Y-68886D01*
X-135796Y-71151D01*
X-139092Y-73966D01*
X-141907Y-77262D01*
X-144172Y-80958D01*
X-145831Y-84963D01*
X-146843Y-89178D01*
X-147183Y-93500D01*
X-146843Y-97822D01*
X-145831Y-102037D01*
X-144172Y-106041D01*
X-141907Y-109738D01*
X-139092Y-113034D01*
X-135796Y-115849D01*
X-132100Y-118114D01*
X-128095Y-119773D01*
X-123879Y-120785D01*
X-119558Y-121125D01*
X-115237Y-120785D01*
X-111021Y-119773D01*
X-107016Y-118114D01*
X-103320Y-115849D01*
X-100024Y-113034D01*
X-97209Y-109738D01*
X-94944Y-106041D01*
X-93285Y-102037D01*
X-92273Y-97822D01*
X-91933Y-93500D01*
X-92273Y-89178D01*
X-93285Y-84963D01*
X-94944Y-80958D01*
X-97209Y-77262D01*
X-100024Y-73966D01*
X-103320Y-71151D01*
X-107016Y-68886D01*
X-111021Y-67227D01*
X-115237Y-66215D01*
X-119558Y-65875D01*
D02*
G37*
G36*
X-852458D02*
X-856779Y-66215D01*
X-860995Y-67227D01*
X-865000Y-68886D01*
X-868696Y-71151D01*
X-871992Y-73966D01*
X-874807Y-77262D01*
X-877072Y-80958D01*
X-878731Y-84963D01*
X-879743Y-89178D01*
X-880083Y-93500D01*
X-879743Y-97822D01*
X-878731Y-102037D01*
X-877072Y-106041D01*
X-874807Y-109738D01*
X-871992Y-113034D01*
X-868696Y-115849D01*
X-865000Y-118114D01*
X-860995Y-119773D01*
X-856779Y-120785D01*
X-852458Y-121125D01*
X-848137Y-120785D01*
X-843921Y-119773D01*
X-839917Y-118114D01*
X-836220Y-115849D01*
X-832924Y-113034D01*
X-830109Y-109738D01*
X-827844Y-106041D01*
X-826185Y-102037D01*
X-825173Y-97822D01*
X-824833Y-93500D01*
X-825173Y-89178D01*
X-826185Y-84963D01*
X-827844Y-80958D01*
X-830109Y-77262D01*
X-832924Y-73966D01*
X-836220Y-71151D01*
X-839917Y-68886D01*
X-843921Y-67227D01*
X-848137Y-66215D01*
X-852458Y-65875D01*
D02*
G37*
G36*
X-501396Y-21540D02*
X-508254D01*
X-509245Y-21737D01*
X-510085Y-22299D01*
X-513895Y-26109D01*
X-514457Y-26949D01*
X-514654Y-27940D01*
Y-91383D01*
X-525837Y-102566D01*
X-541274D01*
X-542265Y-102763D01*
X-543105Y-103325D01*
X-551741Y-111961D01*
X-552303Y-112801D01*
X-552500Y-113792D01*
Y-122428D01*
X-552303Y-123419D01*
X-551741Y-124259D01*
X-550901Y-124821D01*
X-549910Y-125018D01*
X-441452D01*
X-440461Y-124821D01*
X-439621Y-124259D01*
X-432255Y-116893D01*
X-431693Y-116053D01*
X-431496Y-115062D01*
Y-107696D01*
X-431693Y-106705D01*
X-432255Y-105865D01*
X-436084Y-102035D01*
X-435716Y-100820D01*
X-435226Y-100723D01*
X-433394Y-99498D01*
X-432169Y-97666D01*
X-431740Y-95504D01*
X-432169Y-93342D01*
X-433394Y-91510D01*
X-435226Y-90285D01*
X-437388Y-89855D01*
X-439550Y-90285D01*
X-441382Y-91510D01*
X-442607Y-93342D01*
X-443036Y-95504D01*
X-442607Y-97666D01*
X-442217Y-98248D01*
X-442896Y-99518D01*
X-489401D01*
X-494234Y-94685D01*
Y-28702D01*
X-494431Y-27711D01*
X-494993Y-26871D01*
X-499565Y-22299D01*
X-500405Y-21737D01*
X-501396Y-21540D01*
D02*
G37*
G36*
X-820420Y-151064D02*
X-822409Y-151326D01*
X-824263Y-152094D01*
X-825855Y-153315D01*
X-827076Y-154907D01*
X-827844Y-156761D01*
X-828106Y-158750D01*
X-827844Y-160739D01*
X-827076Y-162593D01*
X-825855Y-164185D01*
X-824263Y-165406D01*
X-822409Y-166174D01*
X-820420Y-166436D01*
X-818431Y-166174D01*
X-816577Y-165406D01*
X-814985Y-164185D01*
X-813764Y-162593D01*
X-812996Y-160739D01*
X-812734Y-158750D01*
X-812996Y-156761D01*
X-813764Y-154907D01*
X-814985Y-153315D01*
X-816577Y-152094D01*
X-818431Y-151326D01*
X-820420Y-151064D01*
D02*
G37*
G36*
X-180406Y-128654D02*
X-184531Y-129060D01*
X-188497Y-130264D01*
X-192152Y-132217D01*
X-195355Y-134846D01*
X-197985Y-138050D01*
X-199939Y-141705D01*
X-201142Y-145671D01*
X-201548Y-149796D01*
X-201142Y-153920D01*
X-199939Y-157887D01*
X-197985Y-161542D01*
X-195355Y-164746D01*
X-192152Y-167375D01*
X-188497Y-169328D01*
X-184531Y-170532D01*
X-180406Y-170938D01*
X-176282Y-170532D01*
X-172315Y-169328D01*
X-168660Y-167375D01*
X-165457Y-164746D01*
X-162827Y-161542D01*
X-160874Y-157887D01*
X-159670Y-153920D01*
X-159264Y-149796D01*
X-159670Y-145671D01*
X-160874Y-141705D01*
X-162827Y-138050D01*
X-165457Y-134846D01*
X-168660Y-132217D01*
X-172315Y-130264D01*
X-176282Y-129060D01*
X-180406Y-128654D01*
D02*
G37*
G36*
X-750406D02*
X-754531Y-129060D01*
X-758497Y-130264D01*
X-762152Y-132217D01*
X-765356Y-134846D01*
X-767985Y-138050D01*
X-769939Y-141705D01*
X-771142Y-145671D01*
X-771548Y-149796D01*
X-771142Y-153920D01*
X-769939Y-157887D01*
X-767985Y-161542D01*
X-765356Y-164746D01*
X-762152Y-167375D01*
X-758497Y-169328D01*
X-754531Y-170532D01*
X-750406Y-170938D01*
X-746282Y-170532D01*
X-742315Y-169328D01*
X-738660Y-167375D01*
X-735456Y-164746D01*
X-732827Y-161542D01*
X-730873Y-157887D01*
X-729670Y-153920D01*
X-729264Y-149796D01*
X-729670Y-145671D01*
X-730873Y-141705D01*
X-732827Y-138050D01*
X-735456Y-134846D01*
X-738660Y-132217D01*
X-742315Y-130264D01*
X-746282Y-129060D01*
X-750406Y-128654D01*
D02*
G37*
G36*
X-221107Y-252533D02*
X-223269Y-252962D01*
X-225101Y-254187D01*
X-226326Y-256019D01*
X-226756Y-258181D01*
X-226326Y-260343D01*
X-225101Y-262175D01*
X-223269Y-263400D01*
X-221107Y-263829D01*
X-218945Y-263400D01*
X-217113Y-262175D01*
X-215889Y-260343D01*
X-215459Y-258181D01*
X-215889Y-256019D01*
X-217113Y-254187D01*
X-218945Y-252962D01*
X-221107Y-252533D01*
D02*
G37*
G36*
X-332613Y-252533D02*
X-334775Y-252962D01*
X-336607Y-254187D01*
X-337832Y-256019D01*
X-338262Y-258181D01*
X-337832Y-260343D01*
X-336607Y-262175D01*
X-334775Y-263400D01*
X-332613Y-263829D01*
X-330451Y-263400D01*
X-328619Y-262175D01*
X-327394Y-260343D01*
X-326964Y-258181D01*
X-327394Y-256019D01*
X-328619Y-254187D01*
X-330451Y-252962D01*
X-332613Y-252533D01*
D02*
G37*
G36*
X-278130Y-253041D02*
X-280292Y-253470D01*
X-282124Y-254695D01*
X-283349Y-256527D01*
X-283779Y-258689D01*
X-283349Y-260851D01*
X-282124Y-262683D01*
X-280292Y-263908D01*
X-278130Y-264338D01*
X-275968Y-263908D01*
X-274136Y-262683D01*
X-272911Y-260851D01*
X-272481Y-258689D01*
X-272911Y-256527D01*
X-274136Y-254695D01*
X-275968Y-253470D01*
X-278130Y-253041D01*
D02*
G37*
G36*
X-75692Y-272222D02*
X-77681Y-272484D01*
X-79535Y-273252D01*
X-81127Y-274473D01*
X-82348Y-276065D01*
X-83116Y-277919D01*
X-83378Y-279908D01*
X-83116Y-281897D01*
X-82348Y-283751D01*
X-81127Y-285343D01*
X-79535Y-286564D01*
X-77681Y-287332D01*
X-75692Y-287594D01*
X-73703Y-287332D01*
X-71849Y-286564D01*
X-70257Y-285343D01*
X-69036Y-283751D01*
X-68268Y-281897D01*
X-68006Y-279908D01*
X-68268Y-277919D01*
X-69036Y-276065D01*
X-70257Y-274473D01*
X-71849Y-273252D01*
X-73703Y-272484D01*
X-75692Y-272222D01*
D02*
G37*
G36*
X-411480Y-279086D02*
X-413642Y-279515D01*
X-415474Y-280740D01*
X-416699Y-282572D01*
X-417128Y-284734D01*
X-416699Y-286896D01*
X-415474Y-288728D01*
X-413642Y-289953D01*
X-411480Y-290382D01*
X-409318Y-289953D01*
X-407486Y-288728D01*
X-406261Y-286896D01*
X-405831Y-284734D01*
X-406261Y-282572D01*
X-407486Y-280740D01*
X-409318Y-279515D01*
X-411480Y-279086D01*
D02*
G37*
G36*
X-220726Y-302199D02*
X-222888Y-302629D01*
X-224720Y-303854D01*
X-225945Y-305686D01*
X-226374Y-307848D01*
X-225945Y-310010D01*
X-224720Y-311842D01*
X-222888Y-313067D01*
X-220726Y-313496D01*
X-218564Y-313067D01*
X-216732Y-311842D01*
X-215507Y-310010D01*
X-215077Y-307848D01*
X-215507Y-305686D01*
X-216732Y-303854D01*
X-218564Y-302629D01*
X-220726Y-302199D01*
D02*
G37*
G36*
X-278384D02*
X-280546Y-302629D01*
X-282378Y-303854D01*
X-283603Y-305686D01*
X-284032Y-307848D01*
X-283603Y-310010D01*
X-282378Y-311842D01*
X-280546Y-313067D01*
X-278384Y-313496D01*
X-276222Y-313067D01*
X-274390Y-311842D01*
X-273165Y-310010D01*
X-272736Y-307848D01*
X-273165Y-305686D01*
X-274390Y-303854D01*
X-276222Y-302629D01*
X-278384Y-302199D01*
D02*
G37*
G36*
X-332486Y-302453D02*
X-334648Y-302883D01*
X-336480Y-304108D01*
X-337705Y-305940D01*
X-338134Y-308102D01*
X-337705Y-310264D01*
X-336480Y-312096D01*
X-334648Y-313321D01*
X-332486Y-313750D01*
X-330324Y-313321D01*
X-328492Y-312096D01*
X-327267Y-310264D01*
X-326838Y-308102D01*
X-327267Y-305940D01*
X-328492Y-304108D01*
X-330324Y-302883D01*
X-332486Y-302453D01*
D02*
G37*
G36*
X-411734Y-303978D02*
X-413896Y-304407D01*
X-415728Y-305632D01*
X-416953Y-307464D01*
X-417383Y-309626D01*
X-416953Y-311788D01*
X-415728Y-313620D01*
X-413896Y-314845D01*
X-411734Y-315275D01*
X-409572Y-314845D01*
X-407740Y-313620D01*
X-406515Y-311788D01*
X-406086Y-309626D01*
X-406515Y-307464D01*
X-407740Y-305632D01*
X-409572Y-304407D01*
X-411734Y-303978D01*
D02*
G37*
G36*
X-278638Y-330393D02*
X-280800Y-330823D01*
X-282632Y-332048D01*
X-283857Y-333880D01*
X-284286Y-336042D01*
X-283857Y-338204D01*
X-282632Y-340036D01*
X-280800Y-341261D01*
X-278638Y-341690D01*
X-276476Y-341261D01*
X-274644Y-340036D01*
X-273419Y-338204D01*
X-272990Y-336042D01*
X-273419Y-333880D01*
X-274644Y-332048D01*
X-276476Y-330823D01*
X-278638Y-330393D01*
D02*
G37*
G36*
X-342392Y-330648D02*
X-344554Y-331077D01*
X-346386Y-332302D01*
X-347611Y-334134D01*
X-348041Y-336296D01*
X-347611Y-338458D01*
X-346386Y-340290D01*
X-344554Y-341515D01*
X-342392Y-341945D01*
X-340230Y-341515D01*
X-338398Y-340290D01*
X-337173Y-338458D01*
X-336744Y-336296D01*
X-337173Y-334134D01*
X-338398Y-332302D01*
X-340230Y-331077D01*
X-342392Y-330648D01*
D02*
G37*
G36*
X-220218Y-333442D02*
X-222380Y-333871D01*
X-224212Y-335096D01*
X-225437Y-336928D01*
X-225867Y-339090D01*
X-225437Y-341252D01*
X-224212Y-343084D01*
X-222380Y-344309D01*
X-220218Y-344739D01*
X-218056Y-344309D01*
X-216224Y-343084D01*
X-214999Y-341252D01*
X-214569Y-339090D01*
X-214999Y-336928D01*
X-216224Y-335096D01*
X-218056Y-333871D01*
X-220218Y-333442D01*
D02*
G37*
G36*
X-511810Y-285436D02*
X-513972Y-285865D01*
X-515804Y-287090D01*
X-517029Y-288922D01*
X-517458Y-291084D01*
X-517029Y-293246D01*
X-515804Y-295078D01*
X-513972Y-296303D01*
X-512393Y-296617D01*
Y-298121D01*
X-514604D01*
X-516091Y-298417D01*
X-517351Y-299259D01*
X-518875Y-300783D01*
X-519717Y-302043D01*
X-520013Y-303530D01*
Y-305562D01*
X-519717Y-307049D01*
X-518875Y-308309D01*
X-517558Y-309626D01*
X-518875Y-310943D01*
X-519717Y-312203D01*
X-520013Y-313690D01*
Y-315722D01*
X-519717Y-317209D01*
X-518875Y-318469D01*
X-517558Y-319786D01*
X-518875Y-321103D01*
X-519717Y-322363D01*
X-520013Y-323850D01*
Y-325882D01*
X-519717Y-327369D01*
X-518875Y-328629D01*
X-517558Y-329946D01*
X-518875Y-331263D01*
X-519717Y-332523D01*
X-520013Y-334010D01*
Y-336042D01*
X-519717Y-337529D01*
X-518875Y-338789D01*
X-517351Y-340313D01*
X-516091Y-341155D01*
X-514604Y-341451D01*
X-512393D01*
Y-350684D01*
X-513663Y-351115D01*
X-514641Y-349841D01*
X-516445Y-348456D01*
X-518545Y-347586D01*
X-520800Y-347290D01*
X-523055Y-347586D01*
X-525155Y-348456D01*
X-526959Y-349841D01*
X-528344Y-351645D01*
X-529214Y-353745D01*
X-529510Y-356000D01*
X-529214Y-358255D01*
X-528344Y-360355D01*
X-526959Y-362159D01*
X-525155Y-363544D01*
X-523055Y-364414D01*
X-520800Y-364711D01*
X-518545Y-364414D01*
X-516445Y-363544D01*
X-514641Y-362159D01*
X-513663Y-360885D01*
X-512393Y-361316D01*
Y-401828D01*
Y-407895D01*
X-512104Y-409344D01*
X-512070Y-409572D01*
X-512780Y-410614D01*
X-514598D01*
X-516084Y-410910D01*
X-517345Y-411752D01*
X-518869Y-413276D01*
X-519711Y-414536D01*
X-520006Y-416023D01*
Y-418055D01*
X-519711Y-419542D01*
X-518869Y-420802D01*
X-517345Y-422326D01*
X-516084Y-423168D01*
X-514598Y-423464D01*
X-512780D01*
X-512070Y-424506D01*
X-512104Y-424734D01*
X-512393Y-426183D01*
Y-432279D01*
X-512097Y-433765D01*
X-511255Y-435026D01*
X-466776Y-479505D01*
X-465516Y-480347D01*
X-464029Y-480643D01*
X-442553D01*
X-421421Y-501775D01*
X-421446Y-501904D01*
X-421017Y-504066D01*
X-419792Y-505898D01*
X-417960Y-507123D01*
X-415798Y-507552D01*
X-413636Y-507123D01*
X-411804Y-505898D01*
X-410579Y-504066D01*
X-410149Y-501904D01*
X-410579Y-499742D01*
X-411804Y-497910D01*
X-413636Y-496685D01*
X-415798Y-496255D01*
X-415927Y-496281D01*
X-438197Y-474011D01*
X-439457Y-473169D01*
X-440944Y-472873D01*
X-462420D01*
X-504623Y-430670D01*
Y-428544D01*
X-502418D01*
X-500932Y-428248D01*
X-499671Y-427406D01*
X-498147Y-425882D01*
X-497305Y-424622D01*
X-497010Y-423135D01*
Y-421103D01*
X-497305Y-419616D01*
X-498147Y-418356D01*
X-499464Y-417039D01*
X-498147Y-415722D01*
X-497305Y-414462D01*
X-497010Y-412975D01*
Y-410943D01*
X-497305Y-409456D01*
X-498147Y-408196D01*
X-499671Y-406672D01*
X-500932Y-405830D01*
X-502418Y-405534D01*
X-504623D01*
Y-401828D01*
Y-338836D01*
X-504861Y-337641D01*
X-504162Y-336371D01*
X-502412D01*
X-500925Y-336075D01*
X-499665Y-335233D01*
X-498141Y-333709D01*
X-497299Y-332449D01*
X-497003Y-330962D01*
Y-328930D01*
X-497299Y-327443D01*
X-498141Y-326183D01*
X-499458Y-324866D01*
X-498141Y-323549D01*
X-497299Y-322289D01*
X-497003Y-320802D01*
Y-318770D01*
X-497299Y-317283D01*
X-498141Y-316023D01*
X-499458Y-314706D01*
X-498141Y-313389D01*
X-497299Y-312129D01*
X-497003Y-310642D01*
Y-308610D01*
X-497299Y-307123D01*
X-498141Y-305863D01*
X-499665Y-304339D01*
X-500925Y-303497D01*
X-502412Y-303201D01*
X-504236D01*
X-504946Y-302159D01*
X-504912Y-301931D01*
X-504623Y-300482D01*
Y-294386D01*
X-504919Y-292899D01*
X-505761Y-291639D01*
X-506187Y-291213D01*
X-506161Y-291084D01*
X-506591Y-288922D01*
X-507816Y-287090D01*
X-509648Y-285865D01*
X-511810Y-285436D01*
D02*
G37*
G36*
X-178054Y-334203D02*
X-180216Y-334633D01*
X-182048Y-335858D01*
X-183273Y-337690D01*
X-183703Y-339852D01*
X-183273Y-342014D01*
X-182048Y-343846D01*
X-180216Y-345071D01*
X-178211Y-345469D01*
X-177939Y-346840D01*
X-176714Y-348672D01*
X-174882Y-349897D01*
X-172720Y-350326D01*
X-172718Y-350326D01*
X-172351Y-352174D01*
X-171126Y-354006D01*
X-169294Y-355231D01*
X-167132Y-355661D01*
X-164970Y-355231D01*
X-163138Y-354006D01*
X-161913Y-352174D01*
X-161483Y-350012D01*
X-161913Y-347850D01*
X-163138Y-346018D01*
X-164970Y-344793D01*
X-167132Y-344364D01*
X-167134Y-344364D01*
X-167501Y-342516D01*
X-168726Y-340684D01*
X-170558Y-339459D01*
X-172563Y-339061D01*
X-172835Y-337690D01*
X-174060Y-335858D01*
X-175892Y-334633D01*
X-178054Y-334203D01*
D02*
G37*
G36*
X-343000Y-347290D02*
X-345255Y-347586D01*
X-347355Y-348456D01*
X-349159Y-349841D01*
X-350544Y-351645D01*
X-351414Y-353745D01*
X-351711Y-356000D01*
X-351414Y-358255D01*
X-350544Y-360355D01*
X-349159Y-362159D01*
X-347355Y-363544D01*
X-345255Y-364414D01*
X-343000Y-364711D01*
X-340746Y-364414D01*
X-338645Y-363544D01*
X-336841Y-362159D01*
X-335457Y-360355D01*
X-334586Y-358255D01*
X-334290Y-356000D01*
X-334586Y-353745D01*
X-335457Y-351645D01*
X-336841Y-349841D01*
X-338645Y-348456D01*
X-340746Y-347586D01*
X-343000Y-347290D01*
D02*
G37*
G36*
X-368400D02*
X-370654Y-347586D01*
X-372755Y-348456D01*
X-374559Y-349841D01*
X-375943Y-351645D01*
X-376814Y-353745D01*
X-377110Y-356000D01*
X-376814Y-358255D01*
X-375943Y-360355D01*
X-374559Y-362159D01*
X-372755Y-363544D01*
X-370654Y-364414D01*
X-368400Y-364711D01*
X-366146Y-364414D01*
X-364045Y-363544D01*
X-362241Y-362159D01*
X-360857Y-360355D01*
X-359986Y-358255D01*
X-359689Y-356000D01*
X-359986Y-353745D01*
X-360857Y-351645D01*
X-362241Y-349841D01*
X-364045Y-348456D01*
X-366146Y-347586D01*
X-368400Y-347290D01*
D02*
G37*
G36*
X-546200D02*
X-548455Y-347586D01*
X-550555Y-348456D01*
X-552359Y-349841D01*
X-553744Y-351645D01*
X-554614Y-353745D01*
X-554911Y-356000D01*
X-554614Y-358255D01*
X-553744Y-360355D01*
X-552359Y-362159D01*
X-550555Y-363544D01*
X-548455Y-364414D01*
X-546200Y-364711D01*
X-543946Y-364414D01*
X-541845Y-363544D01*
X-540041Y-362159D01*
X-538657Y-360355D01*
X-537786Y-358255D01*
X-537490Y-356000D01*
X-537786Y-353745D01*
X-538657Y-351645D01*
X-540041Y-349841D01*
X-541845Y-348456D01*
X-543946Y-347586D01*
X-546200Y-347290D01*
D02*
G37*
G36*
X-778764Y-366461D02*
X-780926Y-366891D01*
X-782758Y-368116D01*
X-783983Y-369948D01*
X-784413Y-372110D01*
X-783983Y-374272D01*
X-782966Y-375793D01*
X-783983Y-377314D01*
X-784413Y-379476D01*
X-783983Y-381638D01*
X-782758Y-383470D01*
X-780926Y-384695D01*
X-778764Y-385125D01*
X-776602Y-384695D01*
X-774770Y-383470D01*
X-773545Y-381638D01*
X-773115Y-379476D01*
X-773545Y-377314D01*
X-774562Y-375793D01*
X-773545Y-374272D01*
X-773115Y-372110D01*
X-773545Y-369948D01*
X-774770Y-368116D01*
X-776602Y-366891D01*
X-778764Y-366461D01*
D02*
G37*
G36*
X-128778Y-409641D02*
X-130940Y-410071D01*
X-131826Y-410664D01*
X-132712Y-410071D01*
X-134874Y-409641D01*
X-137036Y-410071D01*
X-138868Y-411296D01*
X-140093Y-413128D01*
X-140522Y-415290D01*
X-140093Y-417452D01*
X-138868Y-419284D01*
X-137036Y-420509D01*
X-134874Y-420938D01*
X-132712Y-420509D01*
X-131826Y-419916D01*
X-130940Y-420509D01*
X-128778Y-420938D01*
X-126616Y-420509D01*
X-124784Y-419284D01*
X-123559Y-417452D01*
X-123130Y-415290D01*
X-123559Y-413128D01*
X-124784Y-411296D01*
X-126616Y-410071D01*
X-128778Y-409641D01*
D02*
G37*
G36*
X-334364Y-448964D02*
X-351636D01*
Y-466236D01*
X-334364D01*
Y-448964D01*
D02*
G37*
G36*
X-368400Y-448890D02*
X-370654Y-449186D01*
X-372755Y-450056D01*
X-374559Y-451441D01*
X-375943Y-453245D01*
X-376814Y-455345D01*
X-377110Y-457600D01*
X-376814Y-459855D01*
X-375943Y-461955D01*
X-374559Y-463759D01*
X-372755Y-465144D01*
X-370654Y-466014D01*
X-368400Y-466311D01*
X-366146Y-466014D01*
X-364045Y-465144D01*
X-362241Y-463759D01*
X-360857Y-461955D01*
X-359986Y-459855D01*
X-359689Y-457600D01*
X-359986Y-455345D01*
X-360857Y-453245D01*
X-362241Y-451441D01*
X-364045Y-450056D01*
X-366146Y-449186D01*
X-368400Y-448890D01*
D02*
G37*
G36*
X-520800D02*
X-523055Y-449186D01*
X-525155Y-450056D01*
X-526959Y-451441D01*
X-528344Y-453245D01*
X-529214Y-455345D01*
X-529510Y-457600D01*
X-529214Y-459855D01*
X-528344Y-461955D01*
X-526959Y-463759D01*
X-525155Y-465144D01*
X-523055Y-466014D01*
X-520800Y-466311D01*
X-518545Y-466014D01*
X-516445Y-465144D01*
X-514641Y-463759D01*
X-513256Y-461955D01*
X-512386Y-459855D01*
X-512090Y-457600D01*
X-512386Y-455345D01*
X-513256Y-453245D01*
X-514641Y-451441D01*
X-516445Y-450056D01*
X-518545Y-449186D01*
X-520800Y-448890D01*
D02*
G37*
G36*
X-546200D02*
X-548455Y-449186D01*
X-550555Y-450056D01*
X-552359Y-451441D01*
X-553744Y-453245D01*
X-554614Y-455345D01*
X-554911Y-457600D01*
X-554614Y-459855D01*
X-553744Y-461955D01*
X-552359Y-463759D01*
X-550555Y-465144D01*
X-548455Y-466014D01*
X-546200Y-466311D01*
X-543946Y-466014D01*
X-541845Y-465144D01*
X-540041Y-463759D01*
X-538657Y-461955D01*
X-537786Y-459855D01*
X-537490Y-457600D01*
X-537786Y-455345D01*
X-538657Y-453245D01*
X-540041Y-451441D01*
X-541845Y-450056D01*
X-543946Y-449186D01*
X-546200Y-448890D01*
D02*
G37*
G36*
X-325374Y-464759D02*
X-327536Y-465189D01*
X-329368Y-466414D01*
X-330593Y-468246D01*
X-331022Y-470408D01*
X-330593Y-472570D01*
X-329368Y-474402D01*
X-327536Y-475627D01*
X-325374Y-476057D01*
X-323212Y-475627D01*
X-321380Y-474402D01*
X-321014Y-473854D01*
X-319744D01*
X-319208Y-474656D01*
X-317376Y-475881D01*
X-315214Y-476311D01*
X-313052Y-475881D01*
X-311220Y-474656D01*
X-309995Y-472824D01*
X-309566Y-470662D01*
X-309995Y-468500D01*
X-311220Y-466668D01*
X-313052Y-465443D01*
X-315214Y-465014D01*
X-317376Y-465443D01*
X-319208Y-466668D01*
X-319574Y-467216D01*
X-320844D01*
X-321380Y-466414D01*
X-323212Y-465189D01*
X-325374Y-464759D01*
D02*
G37*
G36*
X-270002Y-454346D02*
X-272164Y-454775D01*
X-273996Y-456000D01*
X-275221Y-457832D01*
X-275651Y-459994D01*
X-275221Y-462156D01*
X-273996Y-463988D01*
X-272164Y-465213D01*
X-270138Y-465615D01*
X-269928Y-466020D01*
X-269757Y-466888D01*
X-270948Y-467684D01*
X-272173Y-469516D01*
X-272603Y-471678D01*
X-272173Y-473840D01*
X-270948Y-475672D01*
X-269116Y-476897D01*
X-266954Y-477327D01*
X-264792Y-476897D01*
X-262960Y-475672D01*
X-261735Y-473840D01*
X-261306Y-471678D01*
X-261735Y-469516D01*
X-262960Y-467684D01*
X-264792Y-466459D01*
X-266818Y-466057D01*
X-267029Y-465652D01*
X-267199Y-464784D01*
X-266008Y-463988D01*
X-264783Y-462156D01*
X-264354Y-459994D01*
X-264783Y-457832D01*
X-266008Y-456000D01*
X-267840Y-454775D01*
X-270002Y-454346D01*
D02*
G37*
G36*
X-571600Y-448890D02*
X-573854Y-449186D01*
X-575955Y-450056D01*
X-577759Y-451441D01*
X-579143Y-453245D01*
X-580014Y-455345D01*
X-580311Y-457600D01*
X-580014Y-459855D01*
X-579143Y-461955D01*
X-577759Y-463759D01*
X-575955Y-465144D01*
X-573854Y-466014D01*
X-571600Y-466311D01*
X-569346Y-466014D01*
X-567444Y-465226D01*
X-556721Y-475949D01*
X-555461Y-476791D01*
X-553974Y-477087D01*
X-500973D01*
X-499615Y-478445D01*
X-500425Y-479431D01*
X-501433Y-478757D01*
X-502920Y-478461D01*
X-570645D01*
X-588781Y-460325D01*
X-588586Y-459855D01*
X-588289Y-457600D01*
X-588586Y-455345D01*
X-589456Y-453245D01*
X-590841Y-451441D01*
X-592645Y-450056D01*
X-594745Y-449186D01*
X-597000Y-448890D01*
X-599254Y-449186D01*
X-601355Y-450056D01*
X-603159Y-451441D01*
X-604543Y-453245D01*
X-605414Y-455345D01*
X-605710Y-457600D01*
X-605414Y-459855D01*
X-604543Y-461955D01*
X-603159Y-463759D01*
X-601355Y-465144D01*
X-599254Y-466014D01*
X-597000Y-466311D01*
X-594745Y-466014D01*
X-594275Y-465819D01*
X-575001Y-485093D01*
X-573741Y-485935D01*
X-572254Y-486231D01*
X-504529D01*
X-492835Y-497925D01*
Y-515874D01*
X-492539Y-517361D01*
X-491697Y-518621D01*
X-477087Y-533231D01*
Y-541271D01*
X-477196Y-541344D01*
X-478421Y-543176D01*
X-478851Y-545338D01*
X-478421Y-547500D01*
X-477196Y-549332D01*
X-475364Y-550557D01*
X-473202Y-550987D01*
X-471040Y-550557D01*
X-469208Y-549332D01*
X-467983Y-547500D01*
X-467600Y-545572D01*
X-466867Y-545077D01*
X-466350Y-544881D01*
X-465458Y-545477D01*
X-463296Y-545906D01*
X-461134Y-545477D01*
X-459302Y-544252D01*
X-458077Y-542420D01*
X-457648Y-540258D01*
X-458077Y-538096D01*
X-459302Y-536264D01*
X-459411Y-536191D01*
Y-528828D01*
X-459707Y-527341D01*
X-460549Y-526081D01*
X-477699Y-508931D01*
Y-490982D01*
X-477995Y-489495D01*
X-478837Y-488235D01*
X-496617Y-470455D01*
X-497877Y-469613D01*
X-499364Y-469317D01*
X-552365D01*
X-563028Y-458654D01*
X-562890Y-457600D01*
X-563186Y-455345D01*
X-564057Y-453245D01*
X-565441Y-451441D01*
X-567245Y-450056D01*
X-569346Y-449186D01*
X-571600Y-448890D01*
D02*
G37*
G36*
X-794258Y-474412D02*
X-796420Y-474841D01*
X-798252Y-476066D01*
X-799477Y-477898D01*
X-799906Y-480060D01*
X-799477Y-482222D01*
X-798252Y-484054D01*
X-796420Y-485279D01*
X-794258Y-485709D01*
X-792096Y-485279D01*
X-790264Y-484054D01*
X-789039Y-482222D01*
X-788609Y-480060D01*
X-789039Y-477898D01*
X-790264Y-476066D01*
X-792096Y-474841D01*
X-794258Y-474412D01*
D02*
G37*
G36*
X-456184Y-484318D02*
X-458346Y-484747D01*
X-460178Y-485972D01*
X-461403Y-487804D01*
X-461833Y-489966D01*
X-461403Y-492128D01*
X-460178Y-493960D01*
X-458346Y-495185D01*
X-456184Y-495615D01*
X-454022Y-495185D01*
X-452190Y-493960D01*
X-450965Y-492128D01*
X-450536Y-489966D01*
X-450965Y-487804D01*
X-452190Y-485972D01*
X-454022Y-484747D01*
X-456184Y-484318D01*
D02*
G37*
G36*
X-796036Y-489143D02*
X-798198Y-489573D01*
X-800030Y-490798D01*
X-801255Y-492630D01*
X-801684Y-494792D01*
X-801255Y-496954D01*
X-800030Y-498786D01*
X-798198Y-500011D01*
X-796036Y-500440D01*
X-793874Y-500011D01*
X-792042Y-498786D01*
X-790817Y-496954D01*
X-790387Y-494792D01*
X-790817Y-492630D01*
X-792042Y-490798D01*
X-793874Y-489573D01*
X-796036Y-489143D01*
D02*
G37*
G36*
X-829310Y-488128D02*
X-831472Y-488557D01*
X-833304Y-489782D01*
X-834529Y-491614D01*
X-834958Y-493776D01*
X-834529Y-495938D01*
X-833342Y-497713D01*
X-834529Y-499488D01*
X-834958Y-501650D01*
X-834529Y-503812D01*
X-833304Y-505644D01*
X-831472Y-506869D01*
X-829310Y-507299D01*
X-827148Y-506869D01*
X-825316Y-505644D01*
X-824091Y-503812D01*
X-823661Y-501650D01*
X-824091Y-499488D01*
X-825278Y-497713D01*
X-824091Y-495938D01*
X-823661Y-493776D01*
X-824091Y-491614D01*
X-825316Y-489782D01*
X-827148Y-488557D01*
X-829310Y-488128D01*
D02*
G37*
G36*
X-511302Y-501335D02*
X-513464Y-501765D01*
X-515296Y-502990D01*
X-516521Y-504822D01*
X-516950Y-506984D01*
X-516521Y-509146D01*
X-515296Y-510978D01*
X-513464Y-512203D01*
X-511302Y-512632D01*
X-509140Y-512203D01*
X-507308Y-510978D01*
X-506083Y-509146D01*
X-505653Y-506984D01*
X-506083Y-504822D01*
X-507308Y-502990D01*
X-509140Y-501765D01*
X-511302Y-501335D01*
D02*
G37*
G36*
X-794512Y-502098D02*
X-796674Y-502527D01*
X-798506Y-503752D01*
X-799731Y-505584D01*
X-800161Y-507746D01*
X-799731Y-509908D01*
X-798506Y-511740D01*
X-796674Y-512965D01*
X-794512Y-513395D01*
X-794504Y-514592D01*
X-796420Y-514973D01*
X-798252Y-516198D01*
X-799477Y-518030D01*
X-799906Y-520192D01*
X-799477Y-522354D01*
X-798252Y-524186D01*
X-796420Y-525411D01*
X-794258Y-525840D01*
X-792096Y-525411D01*
X-790264Y-524186D01*
X-789039Y-522354D01*
X-788609Y-520192D01*
X-789039Y-518030D01*
X-790264Y-516198D01*
X-792096Y-514973D01*
X-793296Y-514735D01*
X-794258Y-514543D01*
X-794266Y-513346D01*
X-792350Y-512965D01*
X-790518Y-511740D01*
X-789293Y-509908D01*
X-788864Y-507746D01*
X-789293Y-505584D01*
X-790518Y-503752D01*
X-792350Y-502527D01*
X-794512Y-502098D01*
D02*
G37*
G36*
X-443738Y-527497D02*
X-445900Y-527927D01*
X-447732Y-529152D01*
X-448957Y-530984D01*
X-449386Y-533146D01*
X-448957Y-535308D01*
X-447732Y-537140D01*
X-445900Y-538365D01*
X-443738Y-538795D01*
X-441576Y-538365D01*
X-439744Y-537140D01*
X-438519Y-535308D01*
X-438089Y-533146D01*
X-438519Y-530984D01*
X-439744Y-529152D01*
X-441576Y-527927D01*
X-443738Y-527497D01*
D02*
G37*
G36*
X-796036Y-540197D02*
X-798198Y-540627D01*
X-800030Y-541852D01*
X-801255Y-543684D01*
X-801684Y-545846D01*
X-801255Y-548008D01*
X-800030Y-549840D01*
X-798198Y-551065D01*
X-796036Y-551494D01*
X-793874Y-551065D01*
X-792042Y-549840D01*
X-790817Y-548008D01*
X-790387Y-545846D01*
X-790817Y-543684D01*
X-792042Y-541852D01*
X-793874Y-540627D01*
X-796036Y-540197D01*
D02*
G37*
G36*
X-512826Y-536895D02*
X-514988Y-537325D01*
X-516820Y-538550D01*
X-518045Y-540382D01*
X-518475Y-542544D01*
X-518045Y-544706D01*
X-516820Y-546538D01*
X-516335Y-546862D01*
Y-548132D01*
X-516820Y-548456D01*
X-518045Y-550288D01*
X-518475Y-552450D01*
X-518045Y-554612D01*
X-516820Y-556444D01*
X-514988Y-557669D01*
X-512826Y-558098D01*
X-510664Y-557669D01*
X-508832Y-556444D01*
X-507607Y-554612D01*
X-507178Y-552450D01*
X-507607Y-550288D01*
X-508832Y-548456D01*
X-509317Y-548132D01*
Y-546862D01*
X-508832Y-546538D01*
X-507607Y-544706D01*
X-507178Y-542544D01*
X-507607Y-540382D01*
X-508832Y-538550D01*
X-510664Y-537325D01*
X-512826Y-536895D01*
D02*
G37*
G36*
X-556260Y-557523D02*
X-558422Y-557953D01*
X-560254Y-559178D01*
X-561479Y-561010D01*
X-561908Y-563172D01*
X-561479Y-565334D01*
X-560254Y-567166D01*
X-558422Y-568390D01*
X-556260Y-568820D01*
X-554098Y-568390D01*
X-552266Y-567166D01*
X-551041Y-565334D01*
X-550611Y-563172D01*
X-551041Y-561010D01*
X-552266Y-559178D01*
X-554098Y-557953D01*
X-556260Y-557523D01*
D02*
G37*
G36*
X-796036Y-554422D02*
X-798198Y-554851D01*
X-800030Y-556076D01*
X-801255Y-557908D01*
X-801684Y-560070D01*
X-801255Y-562232D01*
X-800030Y-564064D01*
X-799422Y-564471D01*
Y-565998D01*
X-800538Y-566744D01*
X-801763Y-568576D01*
X-802193Y-570738D01*
X-801763Y-572900D01*
X-800538Y-574732D01*
X-798706Y-575957D01*
X-796544Y-576386D01*
X-794382Y-575957D01*
X-792550Y-574732D01*
X-791325Y-572900D01*
X-790895Y-570738D01*
X-791325Y-568576D01*
X-792550Y-566744D01*
X-793158Y-566337D01*
Y-564810D01*
X-792042Y-564064D01*
X-790817Y-562232D01*
X-790387Y-560070D01*
X-790817Y-557908D01*
X-792042Y-556076D01*
X-793874Y-554851D01*
X-796036Y-554422D01*
D02*
G37*
G36*
X-796290Y-577789D02*
X-798452Y-578219D01*
X-800284Y-579444D01*
X-801509Y-581276D01*
X-801938Y-583438D01*
X-801509Y-585600D01*
X-800284Y-587432D01*
X-798452Y-588657D01*
X-796290Y-589086D01*
X-794128Y-588657D01*
X-792296Y-587432D01*
X-791071Y-585600D01*
X-790641Y-583438D01*
X-791071Y-581276D01*
X-792296Y-579444D01*
X-794128Y-578219D01*
X-796290Y-577789D01*
D02*
G37*
G36*
X-556514Y-576319D02*
X-558676Y-576749D01*
X-560508Y-577974D01*
X-561733Y-579806D01*
X-562163Y-581968D01*
X-561733Y-584129D01*
X-560766Y-585576D01*
X-560923Y-586643D01*
X-561169Y-587048D01*
X-562794Y-588134D01*
X-564019Y-589966D01*
X-564449Y-592128D01*
X-564019Y-594290D01*
X-562794Y-596122D01*
X-562309Y-596446D01*
Y-597716D01*
X-562794Y-598040D01*
X-564019Y-599872D01*
X-564449Y-602034D01*
X-564019Y-604196D01*
X-562794Y-606028D01*
X-560962Y-607252D01*
X-558800Y-607682D01*
X-556638Y-607252D01*
X-554806Y-606028D01*
X-553581Y-604196D01*
X-553152Y-602034D01*
X-553581Y-599872D01*
X-554806Y-598040D01*
X-555291Y-597716D01*
Y-596446D01*
X-554806Y-596122D01*
X-553581Y-594290D01*
X-553152Y-592128D01*
X-553581Y-589966D01*
X-554548Y-588520D01*
X-554391Y-587453D01*
X-554145Y-587048D01*
X-552520Y-585962D01*
X-551295Y-584129D01*
X-550866Y-581968D01*
X-551295Y-579806D01*
X-552520Y-577974D01*
X-554352Y-576749D01*
X-556514Y-576319D01*
D02*
G37*
G36*
X-796290Y-603190D02*
X-798452Y-603619D01*
X-800284Y-604844D01*
X-801509Y-606676D01*
X-801938Y-608838D01*
X-801509Y-611000D01*
X-800284Y-612832D01*
X-798452Y-614057D01*
X-796290Y-614487D01*
X-794128Y-614057D01*
X-792296Y-612832D01*
X-791071Y-611000D01*
X-790641Y-608838D01*
X-791071Y-606676D01*
X-792296Y-604844D01*
X-794128Y-603619D01*
X-796290Y-603190D01*
D02*
G37*
G36*
X-796544Y-615890D02*
X-798706Y-616319D01*
X-800538Y-617544D01*
X-801763Y-619376D01*
X-802193Y-621538D01*
X-801763Y-623700D01*
X-800538Y-625532D01*
X-798706Y-626757D01*
X-796544Y-627187D01*
X-794382Y-626757D01*
X-792550Y-625532D01*
X-791325Y-623700D01*
X-790895Y-621538D01*
X-791325Y-619376D01*
X-792550Y-617544D01*
X-794382Y-616319D01*
X-796544Y-615890D01*
D02*
G37*
G36*
X-513080Y-624272D02*
X-515242Y-624701D01*
X-517074Y-625926D01*
X-518299Y-627758D01*
X-518728Y-629920D01*
X-518299Y-632082D01*
X-517074Y-633914D01*
X-515242Y-635139D01*
X-513080Y-635569D01*
X-510918Y-635139D01*
X-509086Y-633914D01*
X-507861Y-632082D01*
X-507431Y-629920D01*
X-507861Y-627758D01*
X-509086Y-625926D01*
X-510918Y-624701D01*
X-513080Y-624272D01*
D02*
G37*
G36*
X-571600Y-347290D02*
X-573854Y-347586D01*
X-575955Y-348456D01*
X-577759Y-349841D01*
X-579143Y-351645D01*
X-580014Y-353745D01*
X-580311Y-356000D01*
X-580014Y-358255D01*
X-579143Y-360355D01*
X-577759Y-362159D01*
X-575955Y-363544D01*
X-575485Y-363739D01*
Y-402859D01*
X-617935Y-445309D01*
X-618777Y-446569D01*
X-619073Y-448056D01*
Y-461264D01*
X-618777Y-462751D01*
X-617935Y-464011D01*
X-595705Y-486241D01*
Y-490979D01*
X-595814Y-491052D01*
X-597039Y-492884D01*
X-597468Y-495046D01*
X-597039Y-497208D01*
X-595814Y-499040D01*
X-595705Y-499113D01*
Y-567605D01*
X-619459Y-591359D01*
X-620301Y-592619D01*
X-620597Y-594106D01*
Y-673258D01*
X-621423Y-674494D01*
X-621852Y-676656D01*
X-621423Y-678818D01*
X-620198Y-680650D01*
X-618366Y-681875D01*
X-616204Y-682305D01*
X-614042Y-681875D01*
X-612210Y-680650D01*
X-610985Y-678818D01*
X-610555Y-676656D01*
X-610985Y-674494D01*
X-612210Y-672662D01*
X-612827Y-672249D01*
Y-595715D01*
X-589073Y-571961D01*
X-588231Y-570701D01*
X-587935Y-569214D01*
Y-499113D01*
X-587826Y-499040D01*
X-586601Y-497208D01*
X-586171Y-495046D01*
X-586601Y-492884D01*
X-587826Y-491052D01*
X-587935Y-490979D01*
Y-484632D01*
X-588231Y-483145D01*
X-589073Y-481885D01*
X-611303Y-459655D01*
Y-449665D01*
X-568853Y-407215D01*
X-568011Y-405955D01*
X-567715Y-404468D01*
Y-363739D01*
X-567245Y-363544D01*
X-565441Y-362159D01*
X-564057Y-360355D01*
X-563186Y-358255D01*
X-562890Y-356000D01*
X-563186Y-353745D01*
X-564057Y-351645D01*
X-565441Y-349841D01*
X-567245Y-348456D01*
X-569346Y-347586D01*
X-571600Y-347290D01*
D02*
G37*
G36*
X-777494Y-819597D02*
X-779656Y-820027D01*
X-781488Y-821252D01*
X-782713Y-823084D01*
X-783142Y-825246D01*
X-782713Y-827408D01*
X-782120Y-828294D01*
X-782713Y-829180D01*
X-783142Y-831342D01*
X-782713Y-833504D01*
X-781488Y-835336D01*
X-779656Y-836561D01*
X-777494Y-836991D01*
X-775332Y-836561D01*
X-773500Y-835336D01*
X-772275Y-833504D01*
X-771845Y-831342D01*
X-772275Y-829180D01*
X-772868Y-828294D01*
X-772275Y-827408D01*
X-771845Y-825246D01*
X-772275Y-823084D01*
X-773500Y-821252D01*
X-775332Y-820027D01*
X-777494Y-819597D01*
D02*
G37*
G36*
X-780542Y-838902D02*
X-782704Y-839331D01*
X-784536Y-840556D01*
X-785761Y-842388D01*
X-786190Y-844550D01*
X-785761Y-846712D01*
X-784667Y-848348D01*
X-784790Y-848430D01*
X-786015Y-850262D01*
X-786444Y-852424D01*
X-786015Y-854586D01*
X-784790Y-856418D01*
X-784374Y-856696D01*
X-785507Y-858390D01*
X-785937Y-860552D01*
X-785507Y-862714D01*
X-784282Y-864546D01*
X-782450Y-865771D01*
X-780288Y-866200D01*
X-778126Y-865771D01*
X-776294Y-864546D01*
X-775069Y-862714D01*
X-774640Y-860552D01*
X-775069Y-858390D01*
X-776294Y-856558D01*
X-776710Y-856280D01*
X-775577Y-854586D01*
X-775147Y-852424D01*
X-775577Y-850262D01*
X-776671Y-848626D01*
X-776548Y-848544D01*
X-775323Y-846712D01*
X-774893Y-844550D01*
X-775323Y-842388D01*
X-776548Y-840556D01*
X-778380Y-839331D01*
X-780542Y-838902D01*
D02*
G37*
G36*
X-159258Y-871921D02*
X-161420Y-872351D01*
X-163252Y-873576D01*
X-164477Y-875408D01*
X-164907Y-877570D01*
X-164477Y-879732D01*
X-163252Y-881564D01*
X-161420Y-882789D01*
X-159258Y-883219D01*
X-157096Y-882789D01*
X-155264Y-881564D01*
X-154039Y-879732D01*
X-153610Y-877570D01*
X-154039Y-875408D01*
X-155264Y-873576D01*
X-157096Y-872351D01*
X-159258Y-871921D01*
D02*
G37*
G36*
X-31242Y-879796D02*
X-33404Y-880225D01*
X-35236Y-881450D01*
X-36461Y-883282D01*
X-36890Y-885444D01*
X-36461Y-887606D01*
X-35236Y-889438D01*
X-33404Y-890663D01*
X-31242Y-891093D01*
X-29080Y-890663D01*
X-27248Y-889438D01*
X-26023Y-887606D01*
X-25594Y-885444D01*
X-26023Y-883282D01*
X-27248Y-881450D01*
X-29080Y-880225D01*
X-31242Y-879796D01*
D02*
G37*
G36*
X-172466Y-894019D02*
X-174628Y-894449D01*
X-176460Y-895674D01*
X-177685Y-897506D01*
X-178114Y-899668D01*
X-177685Y-901830D01*
X-176460Y-903662D01*
X-174628Y-904887D01*
X-172466Y-905316D01*
X-170304Y-904887D01*
X-168472Y-903662D01*
X-167247Y-901830D01*
X-166817Y-899668D01*
X-167247Y-897506D01*
X-168472Y-895674D01*
X-170304Y-894449D01*
X-172466Y-894019D01*
D02*
G37*
G36*
X-522732Y-907482D02*
X-524894Y-907911D01*
X-526034Y-908673D01*
X-527174Y-907911D01*
X-529336Y-907482D01*
X-531498Y-907911D01*
X-533330Y-909136D01*
X-534555Y-910968D01*
X-534985Y-913130D01*
X-534555Y-915292D01*
X-533330Y-917124D01*
X-531498Y-918349D01*
X-529336Y-918779D01*
X-527174Y-918349D01*
X-526812Y-918106D01*
X-525669Y-918870D01*
X-525840Y-919734D01*
X-525411Y-921896D01*
X-524186Y-923728D01*
X-522354Y-924953D01*
X-520192Y-925383D01*
X-518030Y-924953D01*
X-516198Y-923728D01*
X-514973Y-921896D01*
X-514543Y-919734D01*
X-514973Y-917572D01*
X-516198Y-915740D01*
X-517438Y-914911D01*
X-517084Y-913130D01*
X-517513Y-910968D01*
X-518738Y-909136D01*
X-520570Y-907911D01*
X-522732Y-907482D01*
D02*
G37*
G36*
X-895350Y-868630D02*
X-929640D01*
X-930631Y-868827D01*
X-931471Y-869389D01*
X-951029Y-888947D01*
X-951591Y-889787D01*
X-951788Y-890778D01*
Y-925576D01*
X-951591Y-926567D01*
X-951029Y-927407D01*
X-932233Y-946203D01*
X-931393Y-946765D01*
X-930402Y-946962D01*
X-921004D01*
X-920013Y-946765D01*
X-919928Y-946708D01*
X-876808D01*
X-875817Y-946511D01*
X-874977Y-945949D01*
X-859229Y-930201D01*
X-858667Y-929361D01*
X-858470Y-928370D01*
Y-909320D01*
X-858667Y-908329D01*
X-859229Y-907489D01*
X-862531Y-904187D01*
X-863371Y-903625D01*
X-864362Y-903428D01*
X-871474D01*
X-872465Y-903625D01*
X-873305Y-904187D01*
X-875083Y-905965D01*
X-875645Y-906805D01*
X-875842Y-907796D01*
Y-918714D01*
X-877112Y-919392D01*
X-877948Y-918833D01*
X-880110Y-918403D01*
X-882272Y-918833D01*
X-884104Y-920058D01*
X-884177Y-920167D01*
X-907457D01*
X-917495Y-910129D01*
X-918755Y-909287D01*
X-920242Y-908991D01*
X-923226D01*
X-924328Y-907890D01*
X-924675Y-906142D01*
X-925900Y-904310D01*
X-927732Y-903085D01*
X-929894Y-902655D01*
X-932056Y-903085D01*
X-932534Y-903405D01*
X-933654Y-902807D01*
Y-901503D01*
X-933393Y-901242D01*
X-915162D01*
X-914171Y-901045D01*
X-913331Y-900483D01*
X-911046Y-898198D01*
X-910060Y-899008D01*
X-910248Y-899289D01*
X-910639Y-901256D01*
X-910248Y-903223D01*
X-909134Y-904890D01*
X-907467Y-906003D01*
X-906939Y-906109D01*
Y-907403D01*
X-907467Y-907508D01*
X-909134Y-908622D01*
X-910248Y-910290D01*
X-910639Y-912256D01*
X-910248Y-914222D01*
X-909134Y-915890D01*
X-907467Y-917004D01*
X-905500Y-917395D01*
X-903533Y-917004D01*
X-901866Y-915890D01*
X-900752Y-914222D01*
X-900647Y-913695D01*
X-899353D01*
X-899248Y-914222D01*
X-898134Y-915890D01*
X-896467Y-917004D01*
X-894500Y-917395D01*
X-892533Y-917004D01*
X-890866Y-915890D01*
X-889752Y-914222D01*
X-889361Y-912256D01*
X-889752Y-910290D01*
X-890866Y-908622D01*
X-892533Y-907508D01*
X-893061Y-907403D01*
Y-906109D01*
X-892533Y-906003D01*
X-890866Y-904890D01*
X-889752Y-903223D01*
X-889361Y-901256D01*
X-889752Y-899289D01*
X-890866Y-897622D01*
X-892533Y-896508D01*
X-893061Y-896403D01*
Y-895108D01*
X-892533Y-895004D01*
X-890866Y-893890D01*
X-889752Y-892223D01*
X-889361Y-890256D01*
X-889752Y-888289D01*
X-890866Y-886622D01*
X-892533Y-885508D01*
X-894419Y-885134D01*
X-894628Y-884805D01*
X-894989Y-883920D01*
X-890217Y-879147D01*
X-889655Y-878307D01*
X-889458Y-877316D01*
Y-874522D01*
X-889655Y-873531D01*
X-890217Y-872691D01*
X-893519Y-869389D01*
X-894359Y-868827D01*
X-895350Y-868630D01*
D02*
G37*
G36*
X-507238Y-923484D02*
X-509400Y-923913D01*
X-511232Y-925138D01*
X-512457Y-926970D01*
X-512887Y-929132D01*
X-512457Y-931294D01*
X-511232Y-933126D01*
X-509400Y-934351D01*
X-507238Y-934781D01*
X-505076Y-934351D01*
X-503244Y-933126D01*
X-502089D01*
X-501580Y-933888D01*
X-499748Y-935113D01*
X-497586Y-935543D01*
X-495424Y-935113D01*
X-493592Y-933888D01*
X-492367Y-932056D01*
X-491937Y-929894D01*
X-492367Y-927732D01*
X-493592Y-925900D01*
X-495424Y-924675D01*
X-497586Y-924246D01*
X-499748Y-924675D01*
X-501580Y-925900D01*
X-502735D01*
X-503244Y-925138D01*
X-505076Y-923913D01*
X-507238Y-923484D01*
D02*
G37*
G36*
X-377698Y-922467D02*
X-379860Y-922897D01*
X-381692Y-924122D01*
X-382917Y-925954D01*
X-383346Y-928116D01*
X-382917Y-930278D01*
X-382112Y-931481D01*
X-382663Y-932304D01*
X-383092Y-934466D01*
X-382663Y-936628D01*
X-381438Y-938460D01*
X-379606Y-939685D01*
X-377444Y-940115D01*
X-375282Y-939685D01*
X-373450Y-938460D01*
X-372225Y-936628D01*
X-371796Y-934466D01*
X-372225Y-932304D01*
X-373030Y-931101D01*
X-372479Y-930278D01*
X-372049Y-928116D01*
X-372479Y-925954D01*
X-373704Y-924122D01*
X-375536Y-922897D01*
X-377698Y-922467D01*
D02*
G37*
G36*
X-522224Y-940247D02*
X-524386Y-940677D01*
X-526218Y-941902D01*
X-527443Y-943734D01*
X-527873Y-945896D01*
X-527443Y-948058D01*
X-526218Y-949890D01*
X-524386Y-951115D01*
X-522224Y-951544D01*
X-520062Y-951115D01*
X-518230Y-949890D01*
X-517005Y-948058D01*
X-516576Y-945896D01*
X-517005Y-943734D01*
X-518230Y-941902D01*
X-520062Y-940677D01*
X-522224Y-940247D01*
D02*
G37*
G36*
X-832358Y-933643D02*
X-834520Y-934073D01*
X-836352Y-935298D01*
X-837577Y-937130D01*
X-838007Y-939292D01*
X-837577Y-941454D01*
X-836645Y-942848D01*
X-837577Y-944242D01*
X-838007Y-946404D01*
X-837577Y-948566D01*
X-836815Y-949706D01*
X-837577Y-950846D01*
X-838007Y-953008D01*
X-837577Y-955170D01*
X-836352Y-957002D01*
X-834520Y-958227D01*
X-832358Y-958656D01*
X-830196Y-958227D01*
X-828364Y-957002D01*
X-827139Y-955170D01*
X-826710Y-953008D01*
X-827139Y-950846D01*
X-827901Y-949706D01*
X-827139Y-948566D01*
X-826710Y-946404D01*
X-827139Y-944242D01*
X-828071Y-942848D01*
X-827139Y-941454D01*
X-826710Y-939292D01*
X-827139Y-937130D01*
X-828364Y-935298D01*
X-830196Y-934073D01*
X-832358Y-933643D01*
D02*
G37*
G36*
X-796544Y-934406D02*
X-798706Y-934835D01*
X-800538Y-936060D01*
X-801763Y-937892D01*
X-802193Y-940054D01*
X-801763Y-942216D01*
X-800831Y-943610D01*
X-801763Y-945004D01*
X-802193Y-947166D01*
X-801763Y-949328D01*
X-800661Y-950976D01*
X-801763Y-952624D01*
X-802193Y-954786D01*
X-801763Y-956948D01*
X-800538Y-958780D01*
X-798706Y-960005D01*
X-796544Y-960434D01*
X-794382Y-960005D01*
X-792550Y-958780D01*
X-791325Y-956948D01*
X-790895Y-954786D01*
X-791325Y-952624D01*
X-792427Y-950976D01*
X-791325Y-949328D01*
X-790895Y-947166D01*
X-791325Y-945004D01*
X-792257Y-943610D01*
X-791325Y-942216D01*
X-790895Y-940054D01*
X-791325Y-937892D01*
X-792550Y-936060D01*
X-794382Y-934835D01*
X-796544Y-934406D01*
D02*
G37*
G36*
X-859028Y-949645D02*
X-861190Y-950075D01*
X-863022Y-951300D01*
X-864247Y-953132D01*
X-864677Y-955294D01*
X-864247Y-957456D01*
X-863022Y-959288D01*
Y-959682D01*
X-864247Y-961514D01*
X-864677Y-963676D01*
X-864247Y-965838D01*
X-863022Y-967670D01*
X-861190Y-968895D01*
X-859028Y-969324D01*
X-856866Y-968895D01*
X-855800Y-969710D01*
X-855611Y-970664D01*
X-854386Y-972496D01*
X-852554Y-973721D01*
X-850392Y-974150D01*
X-848230Y-973721D01*
X-846398Y-972496D01*
X-846258D01*
X-844426Y-973721D01*
X-842264Y-974150D01*
X-840102Y-973721D01*
X-838270Y-972496D01*
X-837045Y-970664D01*
X-836616Y-968502D01*
X-837045Y-966340D01*
X-838270Y-964508D01*
X-840102Y-963283D01*
X-842264Y-962853D01*
X-844426Y-963283D01*
X-846258Y-964508D01*
X-846398D01*
X-848230Y-963283D01*
X-850392Y-962853D01*
X-852554Y-963283D01*
X-853620Y-962468D01*
X-853809Y-961514D01*
X-855034Y-959682D01*
Y-959288D01*
X-853809Y-957456D01*
X-853380Y-955294D01*
X-853809Y-953132D01*
X-855034Y-951300D01*
X-856866Y-950075D01*
X-859028Y-949645D01*
D02*
G37*
G36*
X-104648Y-954979D02*
X-106810Y-955409D01*
X-108642Y-956634D01*
X-109867Y-958466D01*
X-110296Y-960628D01*
X-109867Y-962790D01*
X-108773Y-964426D01*
X-108896Y-964508D01*
X-110121Y-966340D01*
X-110550Y-968502D01*
X-110121Y-970664D01*
X-108910Y-972475D01*
X-109150Y-972636D01*
X-110375Y-974468D01*
X-110805Y-976630D01*
X-110375Y-978792D01*
X-109150Y-980624D01*
X-107318Y-981849D01*
X-105156Y-982279D01*
X-102994Y-981849D01*
X-101162Y-980624D01*
X-99937Y-978792D01*
X-99508Y-976630D01*
X-99937Y-974468D01*
X-101148Y-972657D01*
X-100908Y-972496D01*
X-99683Y-970664D01*
X-99254Y-968502D01*
X-99683Y-966340D01*
X-100777Y-964704D01*
X-100654Y-964622D01*
X-99429Y-962790D01*
X-99000Y-960628D01*
X-99429Y-958466D01*
X-100654Y-956634D01*
X-102486Y-955409D01*
X-104648Y-954979D01*
D02*
G37*
G36*
X-872744Y-975807D02*
X-874906Y-976237D01*
X-876738Y-977462D01*
X-877963Y-979294D01*
X-878392Y-981456D01*
X-878242Y-982214D01*
X-879140Y-983112D01*
X-880110Y-982919D01*
X-882272Y-983349D01*
X-884104Y-984574D01*
X-885329Y-986406D01*
X-885759Y-988568D01*
X-885329Y-990730D01*
X-884104Y-992562D01*
X-882272Y-993787D01*
X-880110Y-994217D01*
X-877948Y-993787D01*
X-876116Y-992562D01*
X-874891Y-990730D01*
X-874462Y-988568D01*
X-874612Y-987810D01*
X-873714Y-986911D01*
X-872744Y-987104D01*
X-870582Y-986675D01*
X-868750Y-985450D01*
X-867525Y-983618D01*
X-867095Y-981456D01*
X-867525Y-979294D01*
X-868750Y-977462D01*
X-870582Y-976237D01*
X-872744Y-975807D01*
D02*
G37*
G36*
X-180848Y-994096D02*
X-183010Y-994525D01*
X-184842Y-995750D01*
X-186067Y-997582D01*
X-186497Y-999744D01*
X-186067Y-1001906D01*
X-184842Y-1003738D01*
X-183010Y-1004963D01*
X-180848Y-1005393D01*
X-178686Y-1004963D01*
X-176854Y-1003738D01*
X-175629Y-1001906D01*
X-175200Y-999744D01*
X-175629Y-997582D01*
X-176854Y-995750D01*
X-178686Y-994525D01*
X-180848Y-994096D01*
D02*
G37*
G36*
X-196596Y-1002477D02*
X-198758Y-1002907D01*
X-200590Y-1004132D01*
X-201815Y-1005964D01*
X-202244Y-1008126D01*
X-201815Y-1010288D01*
X-200590Y-1012120D01*
X-198758Y-1013345D01*
X-196596Y-1013774D01*
X-194434Y-1013345D01*
X-192602Y-1012120D01*
X-191377Y-1010288D01*
X-190947Y-1008126D01*
X-191377Y-1005964D01*
X-192602Y-1004132D01*
X-194434Y-1002907D01*
X-196596Y-1002477D01*
D02*
G37*
G36*
X-42672Y-1017209D02*
X-44834Y-1017639D01*
X-46666Y-1018864D01*
X-47891Y-1020696D01*
X-48320Y-1022858D01*
X-47891Y-1025020D01*
X-46666Y-1026852D01*
X-44834Y-1028077D01*
X-42672Y-1028506D01*
X-40510Y-1028077D01*
X-38678Y-1026852D01*
X-37453Y-1025020D01*
X-37023Y-1022858D01*
X-37453Y-1020696D01*
X-38678Y-1018864D01*
X-40510Y-1017639D01*
X-42672Y-1017209D01*
D02*
G37*
G36*
X-119658Y-996375D02*
X-123980Y-996715D01*
X-128195Y-997727D01*
X-132200Y-999386D01*
X-135896Y-1001651D01*
X-139192Y-1004466D01*
X-142007Y-1007762D01*
X-144272Y-1011459D01*
X-145931Y-1015463D01*
X-146943Y-1019678D01*
X-147283Y-1024000D01*
X-146943Y-1028322D01*
X-145931Y-1032537D01*
X-144272Y-1036542D01*
X-142007Y-1040238D01*
X-139192Y-1043534D01*
X-135896Y-1046349D01*
X-132200Y-1048614D01*
X-128195Y-1050273D01*
X-123980Y-1051285D01*
X-119658Y-1051625D01*
X-115337Y-1051285D01*
X-111121Y-1050273D01*
X-107116Y-1048614D01*
X-103420Y-1046349D01*
X-100124Y-1043534D01*
X-97309Y-1040238D01*
X-95044Y-1036542D01*
X-93385Y-1032537D01*
X-92373Y-1028322D01*
X-92033Y-1024000D01*
X-92373Y-1019678D01*
X-93385Y-1015463D01*
X-95044Y-1011459D01*
X-97309Y-1007762D01*
X-100124Y-1004466D01*
X-103420Y-1001651D01*
X-107116Y-999386D01*
X-111121Y-997727D01*
X-115337Y-996715D01*
X-119658Y-996375D01*
D02*
G37*
G36*
X-852558D02*
X-856880Y-996715D01*
X-861095Y-997727D01*
X-865100Y-999386D01*
X-868796Y-1001651D01*
X-872092Y-1004466D01*
X-874907Y-1007762D01*
X-877172Y-1011459D01*
X-878831Y-1015463D01*
X-879843Y-1019678D01*
X-880183Y-1024000D01*
X-879843Y-1028322D01*
X-878831Y-1032537D01*
X-877172Y-1036542D01*
X-874907Y-1040238D01*
X-872092Y-1043534D01*
X-868796Y-1046349D01*
X-865100Y-1048614D01*
X-861095Y-1050273D01*
X-856880Y-1051285D01*
X-852558Y-1051625D01*
X-848236Y-1051285D01*
X-844021Y-1050273D01*
X-840016Y-1048614D01*
X-836320Y-1046349D01*
X-833024Y-1043534D01*
X-830209Y-1040238D01*
X-827944Y-1036542D01*
X-826285Y-1032537D01*
X-825273Y-1028322D01*
X-824933Y-1024000D01*
X-825273Y-1019678D01*
X-826285Y-1015463D01*
X-827944Y-1011459D01*
X-830209Y-1007762D01*
X-833024Y-1004466D01*
X-836320Y-1001651D01*
X-840016Y-999386D01*
X-844021Y-997727D01*
X-848236Y-996715D01*
X-852558Y-996375D01*
D02*
G37*
G36*
X-200152Y-1041339D02*
X-202314Y-1041769D01*
X-204146Y-1042994D01*
X-205371Y-1044826D01*
X-205800Y-1046988D01*
X-205371Y-1049150D01*
X-204146Y-1050982D01*
X-202314Y-1052207D01*
X-200152Y-1052636D01*
X-197990Y-1052207D01*
X-196158Y-1050982D01*
X-194933Y-1049150D01*
X-194503Y-1046988D01*
X-194933Y-1044826D01*
X-196158Y-1042994D01*
X-197990Y-1041769D01*
X-200152Y-1041339D01*
D02*
G37*
G36*
X-343662Y-1044388D02*
X-345824Y-1044817D01*
X-347656Y-1046042D01*
X-348881Y-1047874D01*
X-349310Y-1050036D01*
X-348881Y-1052198D01*
X-347656Y-1054030D01*
X-345824Y-1055255D01*
X-343662Y-1055685D01*
X-341500Y-1055255D01*
X-339668Y-1054030D01*
X-338443Y-1052198D01*
X-338013Y-1050036D01*
X-338443Y-1047874D01*
X-339668Y-1046042D01*
X-341500Y-1044817D01*
X-343662Y-1044388D01*
D02*
G37*
G36*
X-521462Y-1059628D02*
X-523624Y-1060057D01*
X-525456Y-1061282D01*
X-526681Y-1063114D01*
X-527110Y-1065276D01*
X-526681Y-1067438D01*
X-525456Y-1069270D01*
X-523624Y-1070495D01*
X-521462Y-1070925D01*
X-519300Y-1070495D01*
X-517468Y-1069270D01*
X-516243Y-1067438D01*
X-515813Y-1065276D01*
X-516243Y-1063114D01*
X-517468Y-1061282D01*
X-519300Y-1060057D01*
X-521462Y-1059628D01*
D02*
G37*
G36*
X-702310Y-1066734D02*
X-704299Y-1066996D01*
X-706153Y-1067764D01*
X-707745Y-1068985D01*
X-708966Y-1070577D01*
X-709734Y-1072431D01*
X-709996Y-1074420D01*
X-709734Y-1076409D01*
X-708966Y-1078263D01*
X-707745Y-1079855D01*
X-706153Y-1081076D01*
X-704299Y-1081844D01*
X-702310Y-1082106D01*
X-700321Y-1081844D01*
X-698467Y-1081076D01*
X-696875Y-1079855D01*
X-695654Y-1078263D01*
X-694886Y-1076409D01*
X-694624Y-1074420D01*
X-694886Y-1072431D01*
X-695654Y-1070577D01*
X-696875Y-1068985D01*
X-698467Y-1067764D01*
X-700321Y-1066996D01*
X-702310Y-1066734D01*
D02*
G37*
G36*
X-849630Y-1084773D02*
X-851792Y-1085203D01*
X-853624Y-1086428D01*
X-854849Y-1088260D01*
X-855278Y-1090422D01*
X-854849Y-1092584D01*
X-853624Y-1094416D01*
X-852564Y-1095125D01*
X-852992Y-1097280D01*
X-852563Y-1099442D01*
X-851338Y-1101274D01*
X-849506Y-1102499D01*
X-847344Y-1102928D01*
X-845182Y-1102499D01*
X-843488Y-1101366D01*
X-843210Y-1101782D01*
X-841378Y-1103007D01*
X-839216Y-1103437D01*
X-837054Y-1103007D01*
X-835222Y-1101782D01*
X-833997Y-1099950D01*
X-833568Y-1097788D01*
X-833888Y-1096174D01*
X-832482Y-1095895D01*
X-830650Y-1094670D01*
X-829425Y-1092838D01*
X-828996Y-1090676D01*
X-829425Y-1088514D01*
X-830650Y-1086682D01*
X-832482Y-1085457D01*
X-834644Y-1085027D01*
X-836806Y-1085457D01*
X-838454Y-1086559D01*
X-840102Y-1085457D01*
X-842264Y-1085027D01*
X-844426Y-1085457D01*
X-845757Y-1086347D01*
X-847468Y-1085203D01*
X-849630Y-1084773D01*
D02*
G37*
G36*
X-661416Y-1094172D02*
X-663578Y-1094601D01*
X-665410Y-1095826D01*
X-666635Y-1097658D01*
X-667065Y-1099820D01*
X-666635Y-1101982D01*
X-665410Y-1103814D01*
X-663578Y-1105039D01*
X-663325Y-1105650D01*
X-663349Y-1106379D01*
X-663763Y-1108456D01*
X-663333Y-1110618D01*
X-662108Y-1112450D01*
X-660276Y-1113675D01*
X-658114Y-1114105D01*
X-655952Y-1113675D01*
X-654621Y-1112785D01*
X-652910Y-1113929D01*
X-650748Y-1114359D01*
X-648586Y-1113929D01*
X-646754Y-1112704D01*
X-645529Y-1110872D01*
X-645099Y-1108710D01*
X-645529Y-1106548D01*
X-644796Y-1105388D01*
X-643960Y-1104830D01*
X-642735Y-1102998D01*
X-642306Y-1100836D01*
X-642735Y-1098674D01*
X-643960Y-1096842D01*
X-645792Y-1095617D01*
X-647954Y-1095188D01*
X-650116Y-1095617D01*
X-650749Y-1096041D01*
X-652142Y-1095109D01*
X-654304Y-1094679D01*
X-656466Y-1095109D01*
X-657480Y-1095787D01*
X-659254Y-1094601D01*
X-661416Y-1094172D01*
D02*
G37*
G36*
X-411988Y-1085536D02*
X-414150Y-1085965D01*
X-415982Y-1087190D01*
X-417207Y-1089022D01*
X-417636Y-1091184D01*
X-417207Y-1093346D01*
X-415982Y-1095178D01*
X-415873Y-1095251D01*
Y-1120817D01*
X-420749Y-1125693D01*
X-420878Y-1125667D01*
X-423040Y-1126097D01*
X-424872Y-1127322D01*
X-426097Y-1129154D01*
X-426526Y-1131316D01*
X-426097Y-1133478D01*
X-424872Y-1135310D01*
X-423040Y-1136535D01*
X-420878Y-1136964D01*
X-418716Y-1136535D01*
X-416884Y-1135310D01*
X-415659Y-1133478D01*
X-415229Y-1131316D01*
X-415255Y-1131187D01*
X-409241Y-1125173D01*
X-408399Y-1123913D01*
X-408103Y-1122426D01*
Y-1095251D01*
X-407994Y-1095178D01*
X-406769Y-1093346D01*
X-406339Y-1091184D01*
X-406769Y-1089022D01*
X-407994Y-1087190D01*
X-409826Y-1085965D01*
X-411988Y-1085536D01*
D02*
G37*
G36*
X-750406Y-1088654D02*
X-754531Y-1089060D01*
X-758497Y-1090264D01*
X-762152Y-1092217D01*
X-765356Y-1094846D01*
X-767985Y-1098050D01*
X-769939Y-1101705D01*
X-771142Y-1105671D01*
X-771548Y-1109796D01*
X-771142Y-1113921D01*
X-769939Y-1117887D01*
X-767985Y-1121542D01*
X-765356Y-1124745D01*
X-762152Y-1127375D01*
X-758497Y-1129329D01*
X-754531Y-1130532D01*
X-750406Y-1130938D01*
X-746282Y-1130532D01*
X-742315Y-1129329D01*
X-738660Y-1127375D01*
X-735456Y-1124745D01*
X-732827Y-1121542D01*
X-730873Y-1117887D01*
X-729670Y-1113921D01*
X-729264Y-1109796D01*
X-729670Y-1105671D01*
X-730873Y-1101705D01*
X-732827Y-1098050D01*
X-735456Y-1094846D01*
X-738660Y-1092217D01*
X-742315Y-1090264D01*
X-746282Y-1089060D01*
X-750406Y-1088654D01*
D02*
G37*
G36*
X-478790Y-922467D02*
X-480952Y-922897D01*
X-482784Y-924122D01*
X-484009Y-925954D01*
X-484439Y-928116D01*
X-484009Y-930278D01*
X-482784Y-932110D01*
X-480952Y-933335D01*
X-478790Y-933764D01*
X-476936Y-933396D01*
X-476112Y-933974D01*
X-475827Y-934326D01*
X-476057Y-935482D01*
X-475627Y-937644D01*
X-474402Y-939476D01*
X-472570Y-940701D01*
X-470408Y-941131D01*
X-468246Y-940701D01*
X-466414Y-939476D01*
X-466341Y-939367D01*
X-445601D01*
X-408761Y-976207D01*
Y-1052830D01*
X-408465Y-1054317D01*
X-407623Y-1055577D01*
X-327867Y-1135333D01*
X-326607Y-1136175D01*
X-325120Y-1136471D01*
X-213617D01*
X-213544Y-1136580D01*
X-211712Y-1137805D01*
X-209550Y-1138234D01*
X-207388Y-1137805D01*
X-205556Y-1136580D01*
X-205483Y-1136471D01*
X-107950D01*
X-106463Y-1136175D01*
X-105203Y-1135333D01*
X-81835Y-1111965D01*
X-80993Y-1110705D01*
X-80697Y-1109218D01*
Y-1094235D01*
X-80588Y-1094162D01*
X-79363Y-1092330D01*
X-78934Y-1090168D01*
X-79363Y-1088006D01*
X-80588Y-1086174D01*
X-82420Y-1084949D01*
X-84582Y-1084520D01*
X-86744Y-1084949D01*
X-88576Y-1086174D01*
X-89801Y-1088006D01*
X-90231Y-1090168D01*
X-89801Y-1092330D01*
X-88576Y-1094162D01*
X-88467Y-1094235D01*
Y-1098507D01*
X-89737Y-1098632D01*
X-90031Y-1097150D01*
X-91256Y-1095318D01*
X-93088Y-1094093D01*
X-95250Y-1093663D01*
X-97412Y-1094093D01*
X-99244Y-1095318D01*
X-99317Y-1095427D01*
X-100817D01*
X-101243Y-1094157D01*
X-100191Y-1092584D01*
X-99761Y-1090422D01*
X-100191Y-1088260D01*
X-101416Y-1086428D01*
X-101525Y-1086355D01*
Y-1081786D01*
X-101821Y-1080299D01*
X-102663Y-1079039D01*
X-122221Y-1059481D01*
X-123481Y-1058639D01*
X-124968Y-1058343D01*
X-354499D01*
X-377115Y-1035727D01*
Y-1005840D01*
X-377411Y-1004353D01*
X-378253Y-1003093D01*
X-380457Y-1000889D01*
X-380432Y-1000760D01*
X-380861Y-998598D01*
X-382086Y-996766D01*
X-383918Y-995541D01*
X-386080Y-995111D01*
X-388242Y-995541D01*
X-390074Y-996766D01*
X-391299Y-998598D01*
X-391729Y-1000760D01*
X-391299Y-1002922D01*
X-390922Y-1003485D01*
X-391408Y-1004659D01*
X-391544Y-1004685D01*
X-393117Y-1005737D01*
X-394387Y-1005311D01*
Y-971296D01*
X-394683Y-969809D01*
X-395525Y-968549D01*
X-438705Y-925369D01*
X-439965Y-924527D01*
X-441452Y-924231D01*
X-474723D01*
X-474796Y-924122D01*
X-476628Y-922897D01*
X-478790Y-922467D01*
D02*
G37*
%LPD*%
G36*
X-496824Y-28702D02*
Y-95758D01*
X-490474Y-102108D01*
X-439674D01*
X-434086Y-107696D01*
Y-115062D01*
X-441452Y-122428D01*
X-549910D01*
Y-113792D01*
X-541274Y-105156D01*
X-524764D01*
X-512064Y-92456D01*
Y-27940D01*
X-508254Y-24130D01*
X-501396D01*
X-496824Y-28702D01*
D02*
G37*
G36*
X-892048Y-874522D02*
Y-877316D01*
X-897128Y-882396D01*
X-907034D01*
X-912622Y-887984D01*
Y-896112D01*
X-915162Y-898652D01*
X-934466D01*
X-936244Y-900430D01*
Y-916178D01*
X-928878Y-923544D01*
X-919480D01*
X-913384Y-929640D01*
X-880414D01*
X-880110Y-929700D01*
X-879806Y-929640D01*
X-877316D01*
X-873252Y-925576D01*
Y-907796D01*
X-871474Y-906018D01*
X-864362D01*
X-861060Y-909320D01*
Y-928370D01*
X-876808Y-944118D01*
X-920750D01*
X-921004Y-944372D01*
X-930402D01*
X-949198Y-925576D01*
Y-890778D01*
X-929640Y-871220D01*
X-895350D01*
X-892048Y-874522D01*
D02*
G37*
G36*
X-142724Y-1067383D02*
X-143015Y-1067741D01*
X-354919D01*
X-355155Y-1067383D01*
X-354471Y-1066113D01*
X-143329D01*
X-142724Y-1067383D01*
D02*
G37*
G36*
X-121723Y-1100431D02*
X-122373Y-1101577D01*
X-124336Y-1101967D01*
X-125603Y-1102814D01*
X-126870Y-1101967D01*
X-129032Y-1101537D01*
X-131194Y-1101967D01*
X-133026Y-1103192D01*
X-134251Y-1105024D01*
X-134681Y-1107186D01*
X-134251Y-1109348D01*
X-133026Y-1111180D01*
X-131194Y-1112405D01*
X-129032Y-1112834D01*
X-126870Y-1112405D01*
X-125603Y-1111558D01*
X-124336Y-1112405D01*
X-122174Y-1112834D01*
X-120012Y-1112405D01*
X-118180Y-1111180D01*
X-116955Y-1109348D01*
X-116525Y-1107186D01*
X-116955Y-1105024D01*
X-117328Y-1104467D01*
X-116649Y-1103197D01*
X-99317D01*
X-99244Y-1103306D01*
X-97412Y-1104531D01*
X-95250Y-1104960D01*
X-93088Y-1104531D01*
X-91256Y-1103306D01*
X-90031Y-1101474D01*
X-89737Y-1099992D01*
X-88467Y-1100117D01*
Y-1107609D01*
X-109559Y-1128701D01*
X-168529D01*
X-168837Y-1127469D01*
X-168660Y-1127375D01*
X-165457Y-1124745D01*
X-162827Y-1121542D01*
X-160874Y-1117887D01*
X-159670Y-1113921D01*
X-159264Y-1109796D01*
X-159670Y-1105671D01*
X-160874Y-1101705D01*
X-162827Y-1098050D01*
X-165457Y-1094846D01*
X-168660Y-1092217D01*
X-172315Y-1090264D01*
X-173640Y-1089862D01*
X-173452Y-1088592D01*
X-166458D01*
X-166300Y-1088828D01*
X-164468Y-1090053D01*
X-162306Y-1090482D01*
X-160144Y-1090053D01*
X-158312Y-1088828D01*
X-158154Y-1088592D01*
X-133562D01*
X-121723Y-1100431D01*
D02*
G37*
G36*
X-392971Y-1041109D02*
X-392129Y-1042369D01*
X-360125Y-1074373D01*
X-358865Y-1075215D01*
X-357378Y-1075511D01*
X-142243D01*
X-142170Y-1075620D01*
X-140338Y-1076845D01*
X-138176Y-1077274D01*
X-136014Y-1076845D01*
X-134182Y-1075620D01*
X-132957Y-1073788D01*
X-132528Y-1071626D01*
X-132957Y-1069464D01*
X-134182Y-1067632D01*
X-134555Y-1067383D01*
X-134170Y-1066113D01*
X-126577D01*
X-109295Y-1083395D01*
Y-1086355D01*
X-109404Y-1086428D01*
X-110629Y-1088260D01*
X-111059Y-1090422D01*
X-110629Y-1092584D01*
X-109577Y-1094157D01*
X-110003Y-1095427D01*
X-115739D01*
X-129206Y-1081960D01*
X-130466Y-1081118D01*
X-131953Y-1080822D01*
X-158338D01*
X-160144Y-1079615D01*
X-162306Y-1079185D01*
X-164468Y-1079615D01*
X-166274Y-1080822D01*
X-357674D01*
X-394387Y-1044109D01*
Y-1040498D01*
X-393117Y-1040373D01*
X-392971Y-1041109D01*
D02*
G37*
G36*
X-362030Y-1087454D02*
X-360770Y-1088296D01*
X-359283Y-1088592D01*
X-187360D01*
X-187172Y-1089862D01*
X-188497Y-1090264D01*
X-192152Y-1092217D01*
X-195355Y-1094846D01*
X-197985Y-1098050D01*
X-199939Y-1101705D01*
X-201142Y-1105671D01*
X-201548Y-1109796D01*
X-201142Y-1113921D01*
X-199939Y-1117887D01*
X-197985Y-1121542D01*
X-195355Y-1124745D01*
X-192152Y-1127375D01*
X-191975Y-1127469D01*
X-192283Y-1128701D01*
X-205483D01*
X-205556Y-1128592D01*
X-207388Y-1127367D01*
X-209550Y-1126937D01*
X-211712Y-1127367D01*
X-213544Y-1128592D01*
X-213617Y-1128701D01*
X-323511D01*
X-400887Y-1051325D01*
X-400786Y-1050394D01*
X-399565Y-1049918D01*
X-362030Y-1087454D01*
D02*
G37*
%LPC*%
G36*
X-529082Y-714442D02*
X-531244Y-714871D01*
X-533076Y-716096D01*
X-534301Y-717928D01*
X-534730Y-720090D01*
X-534301Y-722252D01*
X-533076Y-724084D01*
X-531244Y-725309D01*
X-529082Y-725739D01*
X-526920Y-725309D01*
X-525088Y-724084D01*
X-523863Y-722252D01*
X-523433Y-720090D01*
X-523863Y-717928D01*
X-525088Y-716096D01*
X-526920Y-714871D01*
X-529082Y-714442D01*
D02*
G37*
G36*
X-557022Y-734253D02*
X-559184Y-734683D01*
X-561016Y-735908D01*
X-562241Y-737740D01*
X-562671Y-739902D01*
X-562241Y-742064D01*
X-561563Y-743077D01*
X-562241Y-744090D01*
X-562671Y-746252D01*
X-562241Y-748414D01*
X-561016Y-750246D01*
X-559184Y-751471D01*
X-557022Y-751900D01*
X-554860Y-751471D01*
X-553028Y-750246D01*
X-551803Y-748414D01*
X-551373Y-746252D01*
X-551803Y-744090D01*
X-552481Y-743077D01*
X-551803Y-742064D01*
X-551373Y-739902D01*
X-551803Y-737740D01*
X-553028Y-735908D01*
X-554860Y-734683D01*
X-557022Y-734253D01*
D02*
G37*
G36*
X-515620Y-746954D02*
X-517782Y-747383D01*
X-519614Y-748608D01*
X-520839Y-750440D01*
X-521269Y-752602D01*
X-520839Y-754764D01*
X-519614Y-756596D01*
X-517782Y-757821D01*
X-515620Y-758251D01*
X-513458Y-757821D01*
X-511626Y-756596D01*
X-510401Y-754764D01*
X-509972Y-752602D01*
X-510401Y-750440D01*
X-511626Y-748608D01*
X-513458Y-747383D01*
X-515620Y-746954D01*
D02*
G37*
G36*
X-558038Y-756405D02*
X-560200Y-756835D01*
X-562032Y-758060D01*
X-563257Y-759892D01*
X-563686Y-762054D01*
X-563257Y-764215D01*
X-562032Y-766048D01*
X-560200Y-767272D01*
X-558038Y-767702D01*
X-555876Y-767272D01*
X-554044Y-766048D01*
X-552819Y-764215D01*
X-552389Y-762054D01*
X-552819Y-759892D01*
X-554044Y-758060D01*
X-555876Y-756835D01*
X-558038Y-756405D01*
D02*
G37*
G36*
X-558292Y-775201D02*
X-560454Y-775631D01*
X-562286Y-776856D01*
X-563511Y-778688D01*
X-563941Y-780850D01*
X-563511Y-783011D01*
X-562286Y-784844D01*
X-560454Y-786068D01*
X-558292Y-786498D01*
X-556130Y-786068D01*
X-554298Y-784844D01*
X-553073Y-783011D01*
X-552644Y-780850D01*
X-553073Y-778688D01*
X-554298Y-776856D01*
X-556130Y-775631D01*
X-558292Y-775201D01*
D02*
G37*
G36*
X-661670Y-619953D02*
X-663832Y-620383D01*
X-665664Y-621608D01*
X-666889Y-623440D01*
X-667318Y-625602D01*
X-666889Y-627764D01*
X-666042Y-629031D01*
X-666889Y-630298D01*
X-667318Y-632460D01*
X-666889Y-634622D01*
X-666084Y-635826D01*
X-667143Y-637410D01*
X-667572Y-639572D01*
X-667143Y-641734D01*
X-665918Y-643566D01*
X-664086Y-644791D01*
X-661924Y-645220D01*
X-659762Y-644791D01*
X-657930Y-643566D01*
X-656705Y-641734D01*
X-656275Y-639572D01*
X-656705Y-637410D01*
X-657510Y-636206D01*
X-656451Y-634622D01*
X-656021Y-632460D01*
X-656451Y-630298D01*
X-657298Y-629031D01*
X-656451Y-627764D01*
X-656021Y-625602D01*
X-656451Y-623440D01*
X-657676Y-621608D01*
X-659508Y-620383D01*
X-661670Y-619953D01*
D02*
G37*
G36*
X-665734Y-653482D02*
X-667896Y-653911D01*
X-669728Y-655136D01*
X-670953Y-656968D01*
X-671383Y-659130D01*
X-670953Y-661292D01*
X-669728Y-663124D01*
X-669959Y-664497D01*
X-670699Y-665604D01*
X-671128Y-667766D01*
X-670699Y-669928D01*
X-669474Y-671760D01*
X-667983Y-672756D01*
X-667635Y-673159D01*
X-667596Y-674288D01*
X-668413Y-675510D01*
X-668842Y-677672D01*
X-668413Y-679834D01*
X-667188Y-681666D01*
X-665356Y-682891D01*
X-663194Y-683320D01*
X-661032Y-682891D01*
X-659200Y-681666D01*
X-657975Y-679834D01*
X-657545Y-677672D01*
X-657975Y-675510D01*
X-659200Y-673678D01*
X-660691Y-672682D01*
X-661039Y-672279D01*
X-661078Y-671150D01*
X-660261Y-669928D01*
X-659831Y-667766D01*
X-660261Y-665604D01*
X-661486Y-663772D01*
X-661255Y-662399D01*
X-660515Y-661292D01*
X-660086Y-659130D01*
X-660515Y-656968D01*
X-661740Y-655136D01*
X-663572Y-653911D01*
X-665734Y-653482D01*
D02*
G37*
G36*
X-666496Y-721046D02*
X-668658Y-721475D01*
X-670490Y-722700D01*
X-671715Y-724532D01*
X-672144Y-726694D01*
X-671715Y-728856D01*
X-670490Y-730688D01*
X-668658Y-731913D01*
X-666496Y-732343D01*
X-664334Y-731913D01*
X-662502Y-730688D01*
X-661277Y-728856D01*
X-660847Y-726694D01*
X-661277Y-724532D01*
X-662502Y-722700D01*
X-664334Y-721475D01*
X-666496Y-721046D01*
D02*
G37*
G36*
X-660146Y-746954D02*
X-662308Y-747383D01*
X-664140Y-748608D01*
X-665365Y-750440D01*
X-665795Y-752602D01*
X-665365Y-754764D01*
X-664814Y-755587D01*
X-665619Y-756790D01*
X-666049Y-758952D01*
X-665619Y-761114D01*
X-664394Y-762946D01*
X-662562Y-764171D01*
X-660400Y-764601D01*
X-658238Y-764171D01*
X-656406Y-762946D01*
X-655181Y-761114D01*
X-654752Y-758952D01*
X-655181Y-756790D01*
X-655732Y-755967D01*
X-654927Y-754764D01*
X-654498Y-752602D01*
X-654927Y-750440D01*
X-656152Y-748608D01*
X-657984Y-747383D01*
X-660146Y-746954D01*
D02*
G37*
G36*
X-659686Y-838599D02*
X-661848Y-839029D01*
X-663680Y-840254D01*
X-664905Y-842086D01*
X-665334Y-844248D01*
X-664905Y-846410D01*
X-664524Y-846979D01*
X-665010Y-848153D01*
X-665356Y-848221D01*
X-667188Y-849446D01*
X-668413Y-851278D01*
X-668842Y-853440D01*
X-668413Y-855602D01*
X-667188Y-857434D01*
X-665356Y-858659D01*
X-663194Y-859089D01*
X-661032Y-858659D01*
X-659200Y-857434D01*
X-657975Y-855602D01*
X-657545Y-853440D01*
X-657975Y-851278D01*
X-658356Y-850709D01*
X-657870Y-849535D01*
X-657524Y-849467D01*
X-655692Y-848242D01*
X-654467Y-846410D01*
X-654037Y-844248D01*
X-654467Y-842086D01*
X-655692Y-840254D01*
X-657524Y-839029D01*
X-659686Y-838599D01*
D02*
G37*
%LPD*%
D14*
X-926507Y-251206D02*
X-924285Y-253428D01*
X-917582D01*
X-911676Y-247523D01*
X-879285D02*
X-859663Y-227901D01*
X-857064D01*
X-927415Y-251206D02*
X-926507D01*
X-911676Y-247523D02*
X-879285D01*
X-854715Y-225552D02*
X-853948D01*
X-857064Y-227901D02*
X-854715Y-225552D01*
X-924223Y-256857D02*
X-916162D01*
X-926446Y-259080D02*
X-924223Y-256857D01*
X-927354Y-259080D02*
X-926446D01*
X-916162Y-256857D02*
X-910256Y-250951D01*
X-877864D02*
X-858243Y-231330D01*
X-857142D01*
X-855110Y-233362D01*
X-853948D01*
X-910256Y-250951D02*
X-877864D01*
X-874795Y-288734D02*
X-873760D01*
X-876891Y-290830D02*
X-874795Y-288734D01*
X-904176Y-290830D02*
X-876891D01*
X-940221Y-244475D02*
X-935228Y-249468D01*
X-943527Y-244475D02*
X-940221D01*
X-935228Y-259778D02*
X-904176Y-290830D01*
X-935228Y-259778D02*
Y-249468D01*
X-946658Y-242062D02*
X-945940D01*
X-943527Y-244475D01*
X-876891Y-294258D02*
X-874795Y-296354D01*
X-905597Y-294258D02*
X-876891D01*
X-874795Y-296354D02*
X-873760D01*
X-943527Y-247903D02*
X-941641D01*
X-938657Y-250888D01*
Y-261198D02*
X-905597Y-294258D01*
X-938657Y-261198D02*
Y-250888D01*
X-945496Y-249872D02*
X-943527Y-247903D01*
X-946658Y-249872D02*
X-945496D01*
X-319786Y-812605D02*
Y-809752D01*
X-321564Y-807974D02*
X-319786Y-809752D01*
X-322072Y-816102D02*
Y-814891D01*
X-319786Y-812605D01*
X-324081Y-807974D02*
X-321564D01*
X-328970Y-812863D02*
X-324081Y-807974D01*
X-334435Y-812863D02*
X-328970D01*
X-336658Y-815086D02*
X-334435Y-812863D01*
X-337566Y-815086D02*
X-336658D01*
X-314452Y-816356D02*
X-314198D01*
X-316357Y-810768D02*
X-315308Y-811817D01*
Y-815500D02*
Y-811817D01*
X-316357Y-810768D02*
Y-808332D01*
X-315308Y-815500D02*
X-314452Y-816356D01*
X-325501Y-804545D02*
X-320144D01*
X-316357Y-808332D01*
X-336658Y-807212D02*
X-334435Y-809435D01*
X-337566Y-807212D02*
X-336658D01*
X-334435Y-809435D02*
X-330391D01*
X-325501Y-804545D01*
X-165862Y-717423D02*
X-139088D01*
X-166779D02*
X-165862D01*
X-167998Y-718642D02*
X-166779Y-717423D01*
X-167998Y-722806D02*
Y-718642D01*
X-169217Y-724025D02*
X-167998Y-722806D01*
X-170842Y-724025D02*
X-169217D01*
X-172062Y-722806D02*
X-170842Y-724025D01*
X-172062Y-722806D02*
Y-718642D01*
X-173281Y-717423D02*
X-172062Y-718642D01*
X-176126Y-717423D02*
X-173281D01*
X-178158D02*
X-176126D01*
X-236500Y-724090D02*
X-229181D01*
X-139088Y-717423D02*
X-136720Y-719791D01*
Y-728389D02*
Y-719791D01*
X-196307Y-735572D02*
X-178158Y-717423D01*
X-138684Y-731520D02*
Y-730353D01*
X-136720Y-728389D01*
X-237744Y-725334D02*
X-236500Y-724090D01*
X-248666Y-733538D02*
Y-725334D01*
X-237744Y-733538D02*
Y-725334D01*
X-240996Y-736790D02*
X-237744Y-733538D01*
X-248666D02*
X-245414Y-736790D01*
X-240996D01*
X-298631Y-724090D02*
X-249910D01*
X-248666Y-725334D01*
X-300980Y-726440D02*
X-298631Y-724090D01*
X-301752Y-726440D02*
X-300980D01*
X-179578Y-713994D02*
X-137668D01*
X-133291Y-718371D01*
X-197727Y-732143D02*
X-179578Y-713994D01*
X-133291Y-728389D02*
X-131064Y-730617D01*
Y-731520D02*
Y-730617D01*
X-133291Y-728389D02*
Y-718371D01*
X-241173Y-723914D02*
X-237921Y-720661D01*
X-245237Y-732118D02*
Y-723914D01*
X-241173Y-732118D02*
Y-723914D01*
X-242417Y-733362D02*
X-241173Y-732118D01*
X-245237D02*
X-243993Y-733362D01*
X-242417D01*
X-301762Y-718566D02*
X-300726D01*
X-298631Y-720661D01*
X-248489D01*
X-245237Y-723914D01*
X-219468Y-735572D02*
X-196307D01*
X-225120Y-729920D02*
X-219468Y-735572D01*
X-218047Y-732143D02*
X-197727D01*
X-225120Y-729920D02*
Y-728151D01*
X-229181Y-724090D02*
X-225120Y-728151D01*
X-221691Y-728499D02*
X-218047Y-732143D01*
X-221691Y-728499D02*
Y-726730D01*
X-227760Y-720661D02*
X-221691Y-726730D01*
X-237921Y-720661D02*
X-227760D01*
X-165100Y-741172D02*
X-152908D01*
X-189230D02*
X-179324D01*
X-172009D02*
X-165100D01*
X-173228Y-739953D02*
X-172009Y-741172D01*
X-173228Y-739953D02*
Y-737897D01*
X-174447Y-736678D02*
X-173228Y-737897D01*
X-176073Y-736678D02*
X-174447D01*
X-177292Y-737897D02*
X-176073Y-736678D01*
X-177292Y-739953D02*
Y-737897D01*
X-178511Y-741172D02*
X-177292Y-739953D01*
X-179324Y-741172D02*
X-178511D01*
X-155883Y-730948D02*
X-153728D01*
X-155873Y-727520D02*
X-152307D01*
X-153728Y-730948D02*
X-151765Y-732911D01*
X-152307Y-727520D02*
X-148336Y-731491D01*
X-151765Y-740029D02*
Y-732911D01*
X-148336Y-741449D02*
Y-731491D01*
X-152908Y-741172D02*
X-151765Y-740029D01*
X-151488Y-744601D02*
X-148336Y-741449D01*
X-187810Y-744601D02*
X-151488D01*
X-209042Y-760984D02*
X-189230Y-741172D01*
X-207622Y-764413D02*
X-187810Y-744601D01*
X-249993Y-760984D02*
X-209042D01*
X-248573Y-764413D02*
X-207622D01*
X-260979Y-771970D02*
X-249993Y-760984D01*
X-259559Y-775398D02*
X-248573Y-764413D01*
X-299393Y-771970D02*
X-296392Y-771970D01*
X-295148Y-770726D01*
Y-765062D01*
X-291896Y-761810D01*
X-287478D01*
X-284226Y-765062D01*
Y-780886D02*
Y-765062D01*
Y-780886D02*
X-282982Y-782130D01*
X-281406D01*
X-280162Y-780886D01*
Y-765062D01*
X-276910Y-761810D01*
X-272492D01*
X-269240Y-765062D01*
Y-770726D02*
Y-765062D01*
Y-770726D02*
X-267996Y-771970D01*
X-260979Y-771970D01*
X-299383Y-775398D02*
X-294971Y-775399D01*
X-291719Y-772146D01*
Y-766482D01*
X-290475Y-765239D01*
X-288899D01*
X-287655Y-766482D01*
Y-782306D02*
Y-766482D01*
Y-782306D02*
X-284403Y-785559D01*
X-279985D01*
X-276733Y-782306D01*
Y-766482D01*
X-275489Y-765239D01*
X-273913D01*
X-272669Y-766482D01*
Y-772146D02*
Y-766482D01*
Y-772146D02*
X-269417Y-775399D01*
X-259559Y-775398D01*
X-157969Y-725424D02*
X-155873Y-727520D01*
X-301479Y-777494D02*
X-299383Y-775398D01*
X-157978Y-733044D02*
X-155883Y-730948D01*
X-301742Y-769620D02*
X-299393Y-771970D01*
X-281825Y-731151D02*
X-271157D01*
X-285179Y-734504D02*
X-281825Y-731151D01*
X-285179Y-738549D02*
Y-734504D01*
X-284515Y-727722D02*
X-268212D01*
X-288608Y-738549D02*
Y-731814D01*
X-284515Y-727722D01*
X-263513Y-739533D02*
Y-732421D01*
X-268212Y-727722D02*
X-263513Y-732421D01*
X-318354Y-704723D02*
X-279660D01*
X-326204Y-712574D02*
X-318354Y-704723D01*
X-279660D02*
X-278417Y-703479D01*
X-257956Y-738886D02*
X-256794D01*
X-259925Y-740854D02*
X-257956Y-738886D01*
X-290830Y-740772D02*
X-288608Y-738549D01*
X-262192Y-740854D02*
X-259925D01*
X-263513Y-739533D02*
X-262192Y-740854D01*
X-290830Y-741680D02*
Y-740772D01*
X-266989Y-735318D02*
X-266942D01*
X-271157Y-731151D02*
X-266989Y-735318D01*
X-266942Y-740953D02*
Y-735318D01*
X-285179Y-738549D02*
X-282956Y-740772D01*
X-266942Y-740953D02*
X-263612Y-744284D01*
X-282956Y-741680D02*
Y-740772D01*
X-259925Y-744284D02*
X-257702Y-746506D01*
X-263612Y-744284D02*
X-259925D01*
X-257702Y-746506D02*
X-256794D01*
X-275781Y-615779D02*
X-273558Y-613556D01*
X-275781Y-619121D02*
X-274888Y-620014D01*
X-154940Y-669090D02*
X-153778D01*
X-151809Y-667121D01*
X-145128D01*
X-139446Y-661439D01*
X-275781Y-619121D02*
Y-615779D01*
X-273558Y-613556D02*
Y-612648D01*
X-274888Y-620014D02*
X-148082D01*
X-139446Y-661439D02*
Y-628650D01*
X-148082Y-620014D02*
X-139446Y-628650D01*
X-142875Y-645045D02*
Y-630070D01*
X-143625Y-645795D02*
X-142875Y-645045D01*
X-148467Y-645795D02*
X-143625D01*
X-149686Y-647014D02*
X-148467Y-645795D01*
X-149686Y-648640D02*
Y-647014D01*
Y-648640D02*
X-148467Y-649859D01*
X-144094D01*
X-142875Y-651078D01*
Y-653923D02*
Y-651078D01*
Y-657987D02*
Y-653923D01*
Y-660019D02*
Y-657987D01*
X-281432Y-613810D02*
Y-612902D01*
Y-613810D02*
X-279209Y-616033D01*
X-151809Y-663692D02*
X-146548D01*
X-142875Y-660019D01*
X-279209Y-620542D02*
Y-616033D01*
Y-620542D02*
X-276308Y-623443D01*
X-149502D01*
X-142875Y-630070D01*
X-154940Y-661416D02*
X-154086D01*
X-151809Y-663692D01*
X-283229Y-687832D02*
X-282194D01*
X-311912Y-657737D02*
X-311019Y-656844D01*
X-305435D01*
X-311912Y-660400D02*
Y-657737D01*
X-299085Y-667512D02*
Y-663194D01*
X-302260Y-670687D02*
X-299085Y-667512D01*
X-305435Y-656844D02*
X-299085Y-663194D01*
X-306220Y-670687D02*
X-302260D01*
X-285325Y-685736D02*
X-283229Y-687832D01*
X-306474Y-685736D02*
X-285325D01*
X-311912Y-660400D02*
X-309372Y-662940D01*
Y-663194D02*
Y-662940D01*
X-310261Y-674728D02*
X-306220Y-670687D01*
X-310261Y-681950D02*
Y-674728D01*
Y-681950D02*
X-306474Y-685736D01*
X-312440Y-653415D02*
X-304015D01*
X-315341Y-656316D02*
X-312440Y-653415D01*
X-304015D02*
X-295656Y-661774D01*
X-315341Y-660400D02*
Y-656316D01*
X-295656Y-668932D02*
Y-661774D01*
X-304800Y-674116D02*
X-300840D01*
X-295656Y-668932D01*
X-282975Y-680212D02*
X-281940D01*
X-285071Y-682308D02*
X-282975Y-680212D01*
X-305054Y-682308D02*
X-285071D01*
X-317246Y-662305D02*
X-315341Y-660400D01*
X-306832Y-680529D02*
Y-676148D01*
Y-680529D02*
X-305054Y-682308D01*
X-317246Y-662940D02*
Y-662305D01*
X-306832Y-676148D02*
X-304800Y-674116D01*
X-123762Y-498411D02*
X-98381D01*
X-125182Y-494982D02*
X-98381D01*
X-132969Y-507619D02*
X-123762Y-498411D01*
X-136398Y-506199D02*
X-125182Y-494982D01*
X-132969Y-531013D02*
Y-507619D01*
Y-531013D02*
X-128423Y-535559D01*
X-122759D01*
X-119507Y-538811D01*
Y-543229D02*
Y-538811D01*
X-122759Y-546481D02*
X-119507Y-543229D01*
X-128423Y-546481D02*
X-122759D01*
X-129667Y-547725D02*
X-128423Y-546481D01*
X-129667Y-557426D02*
Y-547725D01*
X-136398Y-532434D02*
Y-506199D01*
Y-532434D02*
X-129844Y-538988D01*
X-124180D01*
X-122936Y-540232D01*
Y-541808D02*
Y-540232D01*
X-124180Y-543052D02*
X-122936Y-541808D01*
X-129844Y-543052D02*
X-124180D01*
X-133096Y-546304D02*
X-129844Y-543052D01*
X-133096Y-556006D02*
Y-546304D01*
X-137772Y-565531D02*
X-129667Y-557426D01*
X-139192Y-562102D02*
X-133096Y-556006D01*
X-199009Y-565531D02*
X-137772D01*
X-201370Y-562102D02*
X-139192D01*
X-98381Y-498411D02*
X-96158Y-500634D01*
X-199009Y-569899D02*
Y-565531D01*
X-202261Y-573151D02*
X-199009Y-569899D01*
X-206679Y-573151D02*
X-202261D01*
X-209931Y-569899D02*
X-206679Y-573151D01*
X-209931Y-569899D02*
Y-559155D01*
X-211175Y-557911D02*
X-209931Y-559155D01*
X-212751Y-557911D02*
X-211175D01*
X-213995Y-559155D02*
X-212751Y-557911D01*
X-213995Y-569899D02*
Y-559155D01*
X-217247Y-573151D02*
X-213995Y-569899D01*
X-221665Y-573151D02*
X-217247D01*
X-224917Y-569899D02*
X-221665Y-573151D01*
X-224917Y-569899D02*
Y-559155D01*
X-226161Y-557911D02*
X-224917Y-559155D01*
X-227737Y-557911D02*
X-226161D01*
X-228981Y-559155D02*
X-227737Y-557911D01*
X-228981Y-562279D02*
Y-559155D01*
X-232233Y-565531D02*
X-228981Y-562279D01*
X-266369Y-565531D02*
X-232233D01*
X-269621Y-562279D02*
X-266369Y-565531D01*
X-269621Y-562279D02*
Y-559155D01*
X-270865Y-557911D02*
X-269621Y-559155D01*
X-272441Y-557911D02*
X-270865D01*
X-273685Y-559155D02*
X-272441Y-557911D01*
X-273685Y-569899D02*
Y-559155D01*
X-276937Y-573151D02*
X-273685Y-569899D01*
X-281355Y-573151D02*
X-276937D01*
X-284607Y-569899D02*
X-281355Y-573151D01*
X-284607Y-569899D02*
Y-559155D01*
X-285851Y-557911D02*
X-284607Y-559155D01*
X-287427Y-557911D02*
X-285851D01*
X-288671Y-559155D02*
X-287427Y-557911D01*
X-288671Y-569899D02*
Y-559155D01*
X-291923Y-573151D02*
X-288671Y-569899D01*
X-296341Y-573151D02*
X-291923D01*
X-299593Y-569899D02*
X-296341Y-573151D01*
X-299593Y-569899D02*
Y-559155D01*
X-300837Y-557911D02*
X-299593Y-559155D01*
X-302413Y-557911D02*
X-300837D01*
X-303657Y-559155D02*
X-302413Y-557911D01*
X-303657Y-562279D02*
Y-559155D01*
X-306909Y-565531D02*
X-303657Y-562279D01*
X-319746Y-565531D02*
X-306909D01*
X-323024Y-562252D02*
X-319746Y-565531D01*
X-323024Y-562252D02*
Y-556597D01*
X-325120Y-554501D02*
X-323024Y-556597D01*
X-319596Y-556343D02*
X-317500Y-554247D01*
X-319596Y-560832D02*
Y-556343D01*
Y-560832D02*
X-318326Y-562102D01*
X-308330D01*
X-307086Y-560858D01*
Y-557734D01*
X-303834Y-554482D01*
X-299416D01*
X-296164Y-557734D01*
Y-568478D02*
Y-557734D01*
Y-568478D02*
X-294920Y-569722D01*
X-293344D01*
X-292100Y-568478D01*
Y-557734D01*
X-288848Y-554482D01*
X-284430D01*
X-281178Y-557734D01*
Y-568478D02*
Y-557734D01*
Y-568478D02*
X-279934Y-569722D01*
X-278358D01*
X-277114Y-568478D01*
Y-557734D01*
X-273862Y-554482D01*
X-269444D01*
X-266192Y-557734D01*
Y-560858D02*
Y-557734D01*
Y-560858D02*
X-264948Y-562102D01*
X-233654D01*
X-232410Y-560858D01*
Y-557734D01*
X-229158Y-554482D01*
X-224740D01*
X-221488Y-557734D01*
Y-568478D02*
Y-557734D01*
Y-568478D02*
X-220244Y-569722D01*
X-218668D01*
X-217424Y-568478D01*
Y-557734D01*
X-214172Y-554482D01*
X-209754D01*
X-206502Y-557734D01*
Y-568478D02*
Y-557734D01*
Y-568478D02*
X-205258Y-569722D01*
X-203682D01*
X-202438Y-568478D01*
Y-563170D01*
X-201370Y-562102D01*
X-317500Y-554247D02*
Y-553212D01*
X-98381Y-494982D02*
X-96412Y-493014D01*
X-95250D01*
X-325120Y-554501D02*
Y-553466D01*
X-96158Y-500634D02*
X-95250D01*
X-136883Y-455930D02*
X-43688D01*
X-39850D01*
X-38631Y-457149D01*
Y-458600D02*
Y-457149D01*
Y-458600D02*
X-37412Y-459819D01*
X-35786D01*
X-34567Y-458600D01*
Y-457149D01*
X-33348Y-455930D01*
X-30503D01*
X-26439D01*
X-24407D01*
X-20320Y-466598D02*
Y-460017D01*
X-20660Y-466938D02*
X-20320Y-466598D01*
X-22671Y-468950D02*
X-20660Y-466938D01*
X-24396Y-468950D02*
X-22671D01*
X-28060Y-465286D02*
X-24396Y-468950D01*
X-29784Y-465286D02*
X-28060D01*
X-30933Y-466435D02*
X-29784Y-465286D01*
X-30933Y-468159D02*
Y-466435D01*
Y-468159D02*
X-27269Y-471823D01*
Y-473547D02*
Y-471823D01*
X-29281Y-475559D02*
X-27269Y-473547D01*
X-32155Y-478433D02*
X-29281Y-475559D01*
X-33591Y-479869D02*
X-32155Y-478433D01*
X-322434Y-508762D02*
X-320211Y-510984D01*
X-293664D01*
X-287643Y-517005D01*
X-202807D01*
X-195947Y-510145D01*
X-191348D01*
X-189139Y-512354D01*
X-187380D01*
X-186265Y-511239D01*
Y-509481D01*
X-193862Y-501883D02*
X-186265Y-509481D01*
X-193862Y-501883D02*
Y-497284D01*
X-190739Y-494160D01*
X-186139D01*
X-178542Y-501758D01*
X-176783D01*
X-175668Y-500643D01*
Y-498884D01*
X-177878Y-496675D02*
X-175668Y-498884D01*
X-177878Y-496675D02*
Y-492076D01*
X-138303Y-452501D01*
X-22987D01*
X-16891Y-458597D01*
Y-468018D02*
Y-458597D01*
X-32171Y-483298D02*
X-16891Y-468018D01*
X-41319Y-483298D02*
X-32171D01*
X-43415Y-485394D02*
X-41319Y-483298D01*
X-322688Y-516636D02*
X-320465Y-514413D01*
X-295084D01*
X-289064Y-520434D01*
X-201387D01*
X-194527Y-513574D01*
X-192768D01*
X-190559Y-515783D01*
X-185960D01*
X-182836Y-512660D01*
Y-508060D01*
X-190433Y-500463D02*
X-182836Y-508060D01*
X-190433Y-500463D02*
Y-498704D01*
X-189318Y-497589D01*
X-187560D01*
X-179962Y-505187D01*
X-175363D01*
X-172239Y-502063D01*
Y-497464D01*
X-174449Y-495255D02*
X-172239Y-497464D01*
X-174449Y-495255D02*
Y-493496D01*
X-136883Y-455930D01*
X-24407D02*
X-20320Y-460017D01*
X-41319Y-479869D02*
X-33591D01*
X-43415Y-477774D02*
X-41319Y-479869D01*
X-285369Y-526415D02*
X-280112D01*
X-287782Y-528828D02*
X-285369Y-526415D01*
X-287782Y-532791D02*
Y-528828D01*
X-280289Y-534212D02*
X-277037Y-537464D01*
X-280289Y-534212D02*
Y-531088D01*
X-277037Y-537464D02*
X-169926D01*
X-127675Y-477457D02*
X-99143D01*
X-96793Y-479806D02*
X-96012D01*
X-99143Y-477457D02*
X-96793Y-479806D01*
X-129095Y-474027D02*
X-99397D01*
X-281533Y-529844D02*
X-280289Y-531088D01*
X-283109Y-529844D02*
X-281533D01*
X-284353Y-531088D02*
X-283109Y-529844D01*
X-287605Y-537464D02*
X-284353Y-534212D01*
X-300075Y-527304D02*
X-298831Y-528548D01*
Y-534212D02*
Y-528548D01*
X-301651Y-527304D02*
X-300075D01*
X-302895Y-528548D02*
X-301651Y-527304D01*
X-284353Y-534212D02*
Y-531088D01*
X-295579Y-537464D02*
X-287605D01*
X-298831Y-534212D02*
X-295579Y-537464D01*
X-302895Y-534212D02*
Y-528548D01*
X-306147Y-537464D02*
X-302895Y-534212D01*
X-323065Y-537464D02*
X-306147D01*
X-335026Y-549425D02*
X-323065Y-537464D01*
X-335026Y-605767D02*
Y-549425D01*
Y-605767D02*
X-315341Y-625452D01*
Y-637690D02*
Y-625452D01*
X-335026Y-630701D02*
X-332930Y-632797D01*
X-330029Y-642747D02*
X-320398D01*
X-315341Y-637690D01*
X-332930Y-639846D02*
Y-632797D01*
Y-639846D02*
X-330029Y-642747D01*
X-335026Y-630701D02*
Y-629666D01*
X-97047Y-471678D02*
X-96266D01*
X-99397Y-474027D02*
X-97047Y-471678D01*
X-280112Y-526415D02*
X-276860Y-529667D01*
Y-532791D02*
X-275616Y-534035D01*
X-171346D01*
X-276860Y-532791D02*
Y-529667D01*
X-295402Y-532791D02*
Y-527127D01*
X-303072Y-523875D02*
X-298654D01*
X-295402Y-527127D01*
X-294158Y-534035D02*
X-289026D01*
X-287782Y-532791D01*
X-295402D02*
X-294158Y-534035D01*
X-306324Y-527127D02*
X-303072Y-523875D01*
X-306324Y-532791D02*
Y-527127D01*
X-324485Y-534035D02*
X-307568D01*
X-306324Y-532791D01*
X-327406Y-630701D02*
Y-629666D01*
X-338455Y-548005D02*
X-324485Y-534035D01*
X-338455Y-607187D02*
X-318770Y-626872D01*
X-338455Y-607187D02*
Y-548005D01*
X-329501Y-632797D02*
X-327406Y-630701D01*
X-318770Y-636270D02*
Y-626872D01*
X-328609Y-639318D02*
X-321818D01*
X-318770Y-636270D01*
X-329501Y-638425D02*
Y-632797D01*
Y-638425D02*
X-328609Y-639318D01*
X-171346Y-534035D02*
X-154559Y-517248D01*
X-169926Y-537464D02*
X-151130Y-518668D01*
X-154559Y-517248D02*
Y-499491D01*
X-129095Y-474027D01*
X-151130Y-518668D02*
Y-500911D01*
X-127675Y-477457D01*
X-68636Y-564167D02*
Y-562408D01*
X-72150Y-567680D02*
X-68636Y-564167D01*
X-73874Y-567680D02*
X-72150D01*
X-74550Y-567005D02*
X-73874Y-567680D01*
X-76274Y-567005D02*
X-74550D01*
X-77423Y-568154D02*
X-76274Y-567005D01*
X-77423Y-569878D02*
Y-568154D01*
Y-569878D02*
X-76747Y-570554D01*
Y-572278D02*
Y-570554D01*
X-78759Y-574290D02*
X-76747Y-572278D01*
X-81633Y-577164D02*
X-78759Y-574290D01*
X-83070Y-578600D02*
X-81633Y-577164D01*
X-30221Y-503364D02*
X-26864D01*
X-30221Y-499935D02*
X-25444D01*
X-26864Y-503364D02*
X-20447Y-509782D01*
X-25444Y-499935D02*
X-17018Y-508361D01*
X-20447Y-515978D02*
Y-509782D01*
X-17018Y-517398D02*
Y-508361D01*
X-29484Y-525014D02*
X-20447Y-515978D01*
X-28063Y-528443D02*
X-17018Y-517398D01*
X-31242Y-525014D02*
X-29484D01*
X-32663Y-528443D02*
X-28063D01*
X-35247Y-521009D02*
X-31242Y-525014D01*
X-36668Y-524438D02*
X-32663Y-528443D01*
X-39847Y-521009D02*
X-35247D01*
X-38426Y-524438D02*
X-36668D01*
X-42970Y-524133D02*
X-39847Y-521009D01*
X-39542Y-525553D02*
X-38426Y-524438D01*
X-42970Y-528732D02*
Y-524133D01*
X-39542Y-527312D02*
Y-525553D01*
X-42970Y-528732D02*
X-38965Y-532737D01*
X-39542Y-527312D02*
X-35536Y-531317D01*
X-38965Y-534496D02*
Y-532737D01*
X-35536Y-535916D02*
Y-531317D01*
X-44319Y-539850D02*
X-38965Y-534496D01*
X-42899Y-543279D02*
X-35536Y-535916D01*
X-46078Y-539850D02*
X-44319D01*
X-47498Y-543279D02*
X-42899D01*
X-50083Y-535844D02*
X-46078Y-539850D01*
X-51503Y-539273D02*
X-47498Y-543279D01*
X-54682Y-535844D02*
X-50083D01*
X-53262Y-539273D02*
X-51503D01*
X-57806Y-538968D02*
X-54682Y-535844D01*
X-54377Y-540388D02*
X-53262Y-539273D01*
X-57806Y-543567D02*
Y-538968D01*
X-54377Y-542147D02*
Y-540388D01*
X-57806Y-543567D02*
X-53801Y-547573D01*
X-54377Y-542147D02*
X-50372Y-546152D01*
X-53801Y-549331D02*
Y-547573D01*
X-50372Y-550752D02*
Y-546152D01*
X-59154Y-554685D02*
X-53801Y-549331D01*
X-60913Y-554685D02*
X-59154D01*
X-64918Y-550680D02*
X-60913Y-554685D01*
X-69517Y-550680D02*
X-64918D01*
X-72641Y-553803D02*
X-69517Y-550680D01*
X-72641Y-558403D02*
Y-553803D01*
Y-558403D02*
X-68636Y-562408D01*
X-57734Y-558114D02*
X-50372Y-550752D01*
X-62333Y-558114D02*
X-57734D01*
X-66339Y-554109D02*
X-62333Y-558114D01*
X-68097Y-554109D02*
X-66339D01*
X-69212Y-555224D02*
X-68097Y-554109D01*
X-69212Y-556982D02*
Y-555224D01*
Y-556982D02*
X-65207Y-560988D01*
Y-565587D02*
Y-560988D01*
X-81649Y-582029D02*
X-65207Y-565587D01*
X-283158Y-578600D02*
X-83070D01*
X-281738Y-582029D02*
X-81649D01*
X-300886Y-596329D02*
X-283158Y-578600D01*
X-299466Y-599757D02*
X-281738Y-582029D01*
X-32571Y-505714D02*
X-30221Y-503364D01*
X-321989Y-596329D02*
X-300886D01*
X-324466Y-593852D02*
X-321989Y-596329D01*
X-55626Y-594360D02*
X-41171D01*
X-277622D02*
X-74168D01*
X-62789D02*
X-55626D01*
X-64008Y-595579D02*
X-62789Y-594360D01*
X-64008Y-602094D02*
Y-595579D01*
X-65227Y-603313D02*
X-64008Y-602094D01*
X-66853Y-603313D02*
X-65227D01*
X-68072Y-602094D02*
X-66853Y-603313D01*
X-68072Y-602094D02*
Y-595579D01*
X-69291Y-594360D02*
X-68072Y-595579D01*
X-72136Y-594360D02*
X-69291D01*
X-74168D02*
X-72136D01*
X-35052Y-607314D02*
Y-600479D01*
X-41171Y-594360D02*
X-35052Y-600479D01*
X-340395Y-700532D02*
X-337991Y-702935D01*
X-334889D01*
X-330962Y-699008D01*
Y-689306D01*
X-327710Y-686054D01*
X-324586D01*
X-323342Y-684810D01*
Y-683234D01*
X-324586Y-681990D02*
X-323342Y-683234D01*
X-335330Y-681990D02*
X-324586D01*
X-338582Y-678738D02*
X-335330Y-681990D01*
X-338582Y-678738D02*
Y-674320D01*
X-335330Y-671068D01*
X-332206D01*
X-330962Y-669824D01*
Y-659257D01*
X-302260Y-630555D01*
Y-614149D01*
X-279042Y-590931D01*
X-39751D01*
X-31623Y-599059D01*
Y-608734D02*
Y-599059D01*
X-37696Y-614807D02*
X-31623Y-608734D01*
X-41921Y-614807D02*
X-37696D01*
X-340087Y-708460D02*
X-337991Y-706364D01*
X-333469D01*
X-327533Y-700428D01*
Y-690727D01*
X-326289Y-689483D01*
X-323165D01*
X-319913Y-686231D01*
Y-681813D01*
X-323165Y-678561D02*
X-319913Y-681813D01*
X-333909Y-678561D02*
X-323165D01*
X-335153Y-677317D02*
X-333909Y-678561D01*
X-335153Y-677317D02*
Y-675741D01*
X-333909Y-674497D01*
X-330785D01*
X-327533Y-671245D01*
Y-660677D01*
X-298831Y-631975D01*
Y-615569D01*
X-277622Y-594360D01*
X-39116Y-611378D02*
X-35052Y-607314D01*
X-326204Y-715264D02*
Y-712574D01*
Y-722344D02*
Y-715264D01*
X-327424Y-723563D02*
X-326204Y-722344D01*
X-327424Y-723563D02*
X-327424D01*
X-328643Y-724782D02*
X-327424Y-723563D01*
X-328643Y-726408D02*
Y-724782D01*
Y-726408D02*
X-327424Y-727627D01*
X-327424D01*
X-326204Y-728846D01*
Y-729659D02*
Y-728846D01*
X-196342Y-711099D02*
Y-706553D01*
X-192913Y-712520D02*
Y-708152D01*
X-197586Y-712343D02*
X-196342Y-711099D01*
X-196165Y-715772D02*
X-192913Y-712520D01*
X-199162Y-712343D02*
X-197586D01*
X-200583Y-715772D02*
X-196165D01*
X-200406Y-711099D02*
X-199162Y-712343D01*
X-203835Y-712520D02*
X-200583Y-715772D01*
X-200406Y-711099D02*
Y-700355D01*
X-203835Y-712520D02*
Y-701776D01*
X-203658Y-697103D02*
X-200406Y-700355D01*
X-205079Y-700532D02*
X-203835Y-701776D01*
X-208076Y-697103D02*
X-203658D01*
X-206655Y-700532D02*
X-205079D01*
X-211328Y-700355D02*
X-208076Y-697103D01*
X-207899Y-701776D02*
X-206655Y-700532D01*
X-211328Y-711099D02*
Y-700355D01*
X-207899Y-712520D02*
Y-701776D01*
X-212572Y-712343D02*
X-211328Y-711099D01*
X-211151Y-715772D02*
X-207899Y-712520D01*
X-214148Y-712343D02*
X-212572D01*
X-215569Y-715772D02*
X-211151D01*
X-215392Y-711099D02*
X-214148Y-712343D01*
X-218821Y-712520D02*
X-215569Y-715772D01*
X-215392Y-711099D02*
Y-700355D01*
X-218821Y-712520D02*
Y-701776D01*
X-218644Y-697103D02*
X-215392Y-700355D01*
X-220065Y-700532D02*
X-218821Y-701776D01*
X-223062Y-697103D02*
X-218644D01*
X-221641Y-700532D02*
X-220065D01*
X-226314Y-700355D02*
X-223062Y-697103D01*
X-222885Y-701776D02*
X-221641Y-700532D01*
X-226314Y-711099D02*
Y-700355D01*
X-222885Y-712520D02*
Y-701776D01*
X-227558Y-712343D02*
X-226314Y-711099D01*
X-226137Y-715772D02*
X-222885Y-712520D01*
X-229134Y-712343D02*
X-227558D01*
X-230555Y-715772D02*
X-226137D01*
X-230378Y-711099D02*
X-229134Y-712343D01*
X-233807Y-712520D02*
X-230555Y-715772D01*
X-230378Y-711099D02*
Y-700355D01*
X-233807Y-712520D02*
Y-701776D01*
X-233630Y-697103D02*
X-230378Y-700355D01*
X-235051Y-700532D02*
X-233807Y-701776D01*
X-238048Y-697103D02*
X-233630D01*
X-236627Y-700532D02*
X-235051D01*
X-241300Y-700355D02*
X-238048Y-697103D01*
X-237871Y-701776D02*
X-236627Y-700532D01*
X-241300Y-703479D02*
Y-700355D01*
X-237871Y-704900D02*
Y-701776D01*
X-242544Y-704723D02*
X-241300Y-703479D01*
X-241123Y-708152D02*
X-237871Y-704900D01*
X-251265Y-704723D02*
X-242544D01*
X-252509Y-703479D02*
X-251265Y-704723D01*
X-252509Y-703479D02*
Y-700355D01*
X-255761Y-697103D02*
X-252509Y-700355D01*
X-260178Y-697103D02*
X-255761D01*
X-263431Y-700355D02*
X-260178Y-697103D01*
X-263431Y-711099D02*
Y-700355D01*
X-264674Y-712343D02*
X-263431Y-711099D01*
X-266251Y-712343D02*
X-264674D01*
X-267495Y-711099D02*
X-266251Y-712343D01*
X-267495Y-711099D02*
Y-700355D01*
X-270747Y-697103D02*
X-267495Y-700355D01*
X-275164Y-697103D02*
X-270747D01*
X-278417Y-700355D02*
X-275164Y-697103D01*
X-278417Y-703479D02*
Y-700355D01*
X-252685Y-708152D02*
X-241123D01*
X-255938Y-704900D02*
X-252685Y-708152D01*
X-255938Y-704900D02*
Y-701776D01*
X-257181Y-700532D02*
X-255938Y-701776D01*
X-258758Y-700532D02*
X-257181D01*
X-260002Y-701776D02*
X-258758Y-700532D01*
X-260002Y-712520D02*
Y-701776D01*
X-263254Y-715772D02*
X-260002Y-712520D01*
X-267671Y-715772D02*
X-263254D01*
X-270924Y-712520D02*
X-267671Y-715772D01*
X-270924Y-712520D02*
Y-701776D01*
X-272167Y-700532D02*
X-270924Y-701776D01*
X-273744Y-700532D02*
X-272167D01*
X-274988Y-701776D02*
X-273744Y-700532D01*
X-274988Y-704900D02*
Y-701776D01*
X-278240Y-708152D02*
X-274988Y-704900D01*
X-316933Y-708152D02*
X-278240D01*
X-322775Y-713994D02*
X-316933Y-708152D01*
X-322775Y-729659D02*
Y-713994D01*
X-110998Y-635000D02*
X-108918Y-632920D01*
X-110998Y-653597D02*
Y-635000D01*
X-122999Y-665599D02*
X-110998Y-653597D01*
X-122999Y-685379D02*
Y-665599D01*
X-145773Y-708152D02*
X-122999Y-685379D01*
X-192913Y-708152D02*
X-145773D01*
X-322775Y-729659D02*
X-320294Y-732141D01*
X-116332Y-632968D02*
X-114427Y-634873D01*
Y-652177D02*
Y-634873D01*
X-126428Y-664178D02*
X-114427Y-652177D01*
X-126428Y-683959D02*
Y-664178D01*
X-147193Y-704723D02*
X-126428Y-683959D01*
X-194512Y-704723D02*
X-147193D01*
X-196342Y-706553D02*
X-194512Y-704723D01*
X-226822Y-784987D02*
X-164719D01*
X-257895D02*
X-249278D01*
X-225402Y-788416D02*
X-163299D01*
X-256474D02*
X-250698D01*
X-105219Y-615338D02*
Y-607905D01*
Y-615338D02*
X-95631Y-624927D01*
Y-644321D02*
Y-624927D01*
Y-644321D02*
X-92379Y-647573D01*
X-89255D01*
X-88011Y-648817D01*
Y-650393D02*
Y-648817D01*
X-89255Y-651637D02*
X-88011Y-650393D01*
X-92379Y-651637D02*
X-89255D01*
X-95631Y-654889D02*
X-92379Y-651637D01*
X-95631Y-666600D02*
Y-654889D01*
X-99725Y-670693D02*
X-95631Y-666600D01*
X-99725Y-675293D02*
Y-670693D01*
Y-675293D02*
X-97515Y-677502D01*
Y-679260D02*
Y-677502D01*
X-98630Y-680375D02*
X-97515Y-679260D01*
X-100389Y-680375D02*
X-98630D01*
X-102598Y-678166D02*
X-100389Y-680375D01*
X-107198Y-678166D02*
X-102598D01*
X-115062Y-686031D02*
X-107198Y-678166D01*
X-115062Y-735330D02*
Y-686031D01*
X-164719Y-784987D02*
X-115062Y-735330D01*
X-263730Y-790822D02*
X-257895Y-784987D01*
X-107442Y-605682D02*
X-105219Y-607905D01*
X-266766Y-790822D02*
X-263730D01*
X-267462Y-791518D02*
X-266766Y-790822D01*
X-107442Y-605682D02*
Y-604774D01*
X-101791Y-613918D02*
Y-607905D01*
Y-613918D02*
X-92202Y-623507D01*
Y-642900D02*
Y-623507D01*
Y-642900D02*
X-90958Y-644144D01*
X-87834D01*
X-84582Y-647396D01*
Y-651814D02*
Y-647396D01*
X-87834Y-655066D02*
X-84582Y-651814D01*
X-90958Y-655066D02*
X-87834D01*
X-92202Y-656310D02*
X-90958Y-655066D01*
X-92202Y-668020D02*
Y-656310D01*
X-96295Y-672113D02*
X-92202Y-668020D01*
X-96295Y-673872D02*
Y-672113D01*
Y-673872D02*
X-94086Y-676081D01*
Y-680681D02*
Y-676081D01*
X-97210Y-683804D02*
X-94086Y-680681D01*
X-101809Y-683804D02*
X-97210D01*
X-104018Y-681595D02*
X-101809Y-683804D01*
X-105777Y-681595D02*
X-104018D01*
X-111633Y-687451D02*
X-105777Y-681595D01*
X-111633Y-736750D02*
Y-687451D01*
X-163299Y-788416D02*
X-111633Y-736750D01*
X-261432Y-793374D02*
X-256474Y-788416D01*
X-101791Y-607905D02*
X-99568Y-605682D01*
X-261432Y-796410D02*
Y-793374D01*
X-262128Y-797106D02*
X-261432Y-796410D01*
X-99568Y-605682D02*
Y-604774D01*
X-232664Y-790829D02*
X-226822Y-784987D01*
X-231244Y-794258D02*
X-225402Y-788416D01*
X-244856Y-794258D02*
X-231244D01*
X-243436Y-790829D02*
X-232664D01*
X-250698Y-788416D02*
X-244856Y-794258D01*
X-249278Y-784987D02*
X-243436Y-790829D01*
X-277991Y-806565D02*
X-277091Y-807466D01*
X-283506Y-801050D02*
X-277991Y-806565D01*
X-283506Y-801050D02*
Y-799326D01*
X-281813Y-797633D01*
Y-795909D01*
X-282963Y-794760D02*
X-281813Y-795909D01*
X-284687Y-794760D02*
X-282963D01*
X-286380Y-796453D02*
X-284687Y-794760D01*
X-288104Y-796453D02*
X-286380D01*
X-290116Y-794441D02*
X-288104Y-796453D01*
X-292989Y-791567D02*
X-290116Y-794441D01*
X-294426Y-790130D02*
X-292989Y-791567D01*
X-302377Y-796036D02*
X-299901Y-793559D01*
X-302768Y-796036D02*
X-302377D01*
X-302768Y-769620D02*
X-301742D01*
X-320294Y-732790D02*
Y-732141D01*
X-341122Y-700532D02*
X-340395D01*
X-419862Y-631952D02*
X-416306Y-628396D01*
X-423926Y-631952D02*
X-419862D01*
X-426720Y-629158D02*
X-423926Y-631952D01*
X-428752Y-629158D02*
X-426720D01*
X-427482Y-639572D02*
Y-636016D01*
X-430530Y-632968D02*
X-427482Y-636016D01*
X-430530Y-632968D02*
Y-630936D01*
X-428752Y-629158D01*
X-429133Y-641223D02*
X-427482Y-639572D01*
X-416306Y-628396D02*
Y-620776D01*
X-424942Y-613918D02*
Y-613664D01*
Y-613918D02*
X-424086Y-614774D01*
X-421927D02*
X-421386Y-615315D01*
X-416918D01*
X-424086Y-614774D02*
X-421927D01*
X-416918Y-615315D02*
X-412877Y-619356D01*
Y-629816D02*
Y-619356D01*
X-427713Y-644652D02*
X-412877Y-629816D01*
X-440932Y-637829D02*
X-434109Y-644652D01*
X-427713D01*
X-436868Y-626606D02*
Y-620982D01*
X-444417Y-618554D02*
X-439297D01*
X-436868Y-620982D01*
X-440932Y-637829D02*
Y-630670D01*
X-436868Y-626606D01*
X-446640Y-620776D02*
X-444417Y-618554D01*
X-447548Y-620776D02*
X-446640D01*
X-421386Y-618744D02*
X-418338D01*
X-416306Y-620776D01*
X-437876Y-615125D02*
X-433439Y-619562D01*
X-424942Y-621284D02*
X-423926D01*
X-421386Y-618744D01*
X-437503Y-636409D02*
X-432689Y-641223D01*
X-429133D01*
X-433439Y-628027D02*
Y-619562D01*
X-444417Y-615125D02*
X-437876D01*
X-437503Y-636409D02*
Y-632091D01*
X-433439Y-628027D01*
X-447548Y-613156D02*
X-446386D01*
X-444417Y-615125D01*
X-423501Y-550608D02*
X-421278Y-548386D01*
X-428739Y-550608D02*
X-423501D01*
X-429958Y-549389D02*
X-428739Y-550608D01*
X-429958Y-549389D02*
Y-543317D01*
X-431178Y-542098D02*
X-429958Y-543317D01*
X-432803Y-542098D02*
X-431178D01*
X-434022Y-543317D02*
X-432803Y-542098D01*
X-434022Y-549389D02*
Y-543317D01*
X-435242Y-550608D02*
X-434022Y-549389D01*
X-438087Y-550608D02*
X-435242D01*
X-442150D02*
X-438087D01*
X-444183D02*
X-442150D01*
X-435598Y-579251D02*
Y-574952D01*
X-432169Y-580671D02*
Y-573532D01*
X-441306Y-578866D02*
X-439337Y-580835D01*
X-437182D01*
X-435598Y-579251D01*
X-442468Y-578866D02*
X-441306D01*
X-421278Y-548386D02*
X-420370D01*
X-435762Y-584263D02*
X-432169Y-580671D01*
X-439337Y-584263D02*
X-435762D01*
X-421278Y-556260D02*
X-420370D01*
X-423501Y-554038D02*
X-421278Y-556260D01*
X-442762Y-554038D02*
X-423501D01*
X-443630Y-586232D02*
X-443122Y-586740D01*
X-442468D01*
X-441814D01*
X-439337Y-584263D01*
X-444373Y-561328D02*
Y-555648D01*
Y-561328D02*
X-432169Y-573532D01*
X-432169D01*
X-447802Y-562749D02*
Y-554228D01*
Y-562749D02*
X-435598Y-574952D01*
X-444373Y-555648D02*
X-442762Y-554038D01*
X-447802Y-554228D02*
X-444183Y-550608D01*
X-453771Y-774319D02*
Y-772056D01*
X-463975Y-768540D02*
X-457287D01*
X-453771Y-772056D01*
X-455549Y-780946D02*
X-450342Y-775739D01*
X-463975Y-765111D02*
X-455867D01*
X-450342Y-770636D01*
Y-775739D02*
Y-770636D01*
X-434086Y-783609D02*
X-431991Y-785705D01*
X-434086Y-783609D02*
Y-782574D01*
X-431991Y-787954D02*
Y-785705D01*
X-445174Y-784694D02*
X-441021Y-788847D01*
X-432883D02*
X-431991Y-787954D01*
X-441021Y-788847D02*
X-432883D01*
X-467106Y-763016D02*
X-466071D01*
X-463975Y-765111D01*
X-453532Y-784694D02*
X-445174D01*
X-455549Y-782678D02*
X-453532Y-784694D01*
X-455549Y-782678D02*
Y-780946D01*
X-426466Y-783609D02*
Y-782574D01*
X-428562Y-785705D02*
X-426466Y-783609D01*
X-428562Y-789374D02*
Y-785705D01*
X-431463Y-792276D02*
X-428562Y-789374D01*
X-442441Y-792276D02*
X-431463D01*
X-466071Y-770636D02*
X-463975Y-768540D01*
X-467106Y-770636D02*
X-466071D01*
X-458978Y-779526D02*
X-453771Y-774319D01*
X-446594Y-788123D02*
X-442441Y-792276D01*
X-454953Y-788123D02*
X-446594D01*
X-458978Y-784098D02*
X-454953Y-788123D01*
X-458978Y-784098D02*
Y-779526D01*
X-420287Y-730822D02*
X-416698D01*
X-420287Y-734250D02*
X-415277D01*
X-423418Y-728726D02*
X-422383D01*
X-420287Y-730822D01*
X-413616Y-753733D02*
Y-753733D01*
X-420993Y-753733D02*
X-413616D01*
X-423545Y-756285D02*
X-420993Y-753733D01*
X-423545Y-765960D02*
Y-756285D01*
X-433088Y-769493D02*
X-427078D01*
X-423545Y-765960D01*
X-433151Y-769429D02*
X-433088Y-769493D01*
X-435273Y-769429D02*
X-433151D01*
X-437496Y-771652D02*
X-435273Y-769429D01*
X-438404Y-771652D02*
X-437496D01*
X-422383Y-736346D02*
X-420287Y-734250D01*
X-423418Y-736346D02*
X-422383D01*
X-422414Y-750304D02*
X-415036D01*
X-426974Y-754865D02*
X-422414Y-750304D01*
X-426974Y-764540D02*
Y-754865D01*
X-430244Y-766001D02*
X-430181Y-766064D01*
X-428498D01*
X-435019Y-766001D02*
X-430244D01*
X-438150Y-763778D02*
X-437242D01*
X-435019Y-766001D01*
X-428498Y-766064D02*
X-426974Y-764540D01*
X-411554Y-725678D02*
X-405107D01*
X-410134Y-729107D02*
X-406527D01*
X-400177Y-740295D02*
Y-730608D01*
X-406527Y-729107D02*
X-403606Y-732028D01*
Y-738874D02*
Y-732028D01*
X-415036Y-750304D02*
X-403606Y-738874D01*
X-413616Y-753733D02*
X-400177Y-740295D01*
X-405107Y-725678D02*
X-400177Y-730608D01*
X-416698Y-730822D02*
X-411554Y-725678D01*
X-415277Y-734250D02*
X-410134Y-729107D01*
X-412440Y-828492D02*
Y-825810D01*
X-425360Y-812916D02*
X-418618Y-819658D01*
X-418592D01*
X-412440Y-825810D01*
X-421944Y-811482D02*
X-417601Y-815826D01*
X-417575D02*
X-409011Y-824389D01*
X-421958Y-811496D02*
X-421944Y-811482D01*
X-421944D01*
X-417601Y-815826D02*
X-417575D01*
X-422180Y-830802D02*
X-419862Y-833120D01*
X-423904Y-830802D02*
X-422180D01*
X-426730Y-833628D02*
X-423904Y-830802D01*
X-428455Y-833628D02*
X-426730D01*
X-429604Y-832479D02*
X-428455Y-833628D01*
X-429604Y-832479D02*
Y-830755D01*
X-426778Y-827928D01*
Y-826204D01*
X-428789Y-824193D02*
X-426778Y-826204D01*
X-430226Y-822756D02*
X-428789Y-824193D01*
X-421958Y-809757D02*
X-419862Y-807661D01*
Y-806450D01*
X-421958Y-811496D02*
Y-809757D01*
X-409011Y-829913D02*
Y-824389D01*
X-413223Y-834124D02*
X-409011Y-829913D01*
X-418858Y-834124D02*
X-413223D01*
X-419862Y-833120D02*
X-418858Y-834124D01*
X-433241Y-818960D02*
X-431119D01*
X-430226Y-819852D01*
X-436372Y-821182D02*
X-435464D01*
X-433241Y-818960D01*
X-430226Y-822756D02*
Y-819852D01*
X-426626Y-811651D02*
Y-807560D01*
Y-811651D02*
X-425836Y-812440D01*
X-425360Y-812916D01*
X-414643Y-830695D02*
X-412440Y-828492D01*
X-426797Y-821336D02*
Y-818432D01*
Y-821336D02*
X-417437Y-830695D01*
X-414643D01*
X-427482Y-806704D02*
X-426626Y-807560D01*
X-436372Y-813308D02*
X-435464D01*
X-433241Y-815530D01*
X-429699D01*
X-426797Y-818432D01*
X-441764Y-832808D02*
X-434467Y-840105D01*
X-449060Y-825512D02*
X-446936Y-827636D01*
Y-829360D02*
Y-827636D01*
X-447848Y-830271D02*
X-446936Y-829360D01*
X-447848Y-831995D02*
Y-830271D01*
Y-831995D02*
X-446698Y-833145D01*
X-444974D01*
X-444063Y-832234D01*
X-442338D01*
X-441764Y-832808D01*
X-159004Y-725424D02*
X-157969D01*
X-302514Y-777494D02*
X-301479D01*
X-159014Y-733044D02*
X-157978D01*
X-116332Y-632968D02*
Y-630428D01*
X-108712D02*
X-108458D01*
X-108918Y-630634D02*
X-108712Y-630428D01*
X-108918Y-632920D02*
Y-630634D01*
X-328178Y-731633D02*
X-326204Y-729659D01*
X-328178Y-732790D02*
Y-731633D01*
X-44450Y-485394D02*
X-43415D01*
X-323342Y-508762D02*
X-322434D01*
X-44450Y-477774D02*
X-43415D01*
X-323596Y-516636D02*
X-322688D01*
X-85598Y-510286D02*
X-84074D01*
X-75815Y-518545D01*
X-111589Y-508806D02*
X-99500D01*
X-86845Y-521462D01*
X-110169Y-512235D02*
X-100921D01*
X-88265Y-524891D01*
X-114490Y-511708D02*
X-111589Y-508806D01*
X-75815Y-520569D02*
Y-518545D01*
X-76708Y-521462D02*
X-75815Y-520569D01*
X-86845Y-521462D02*
X-76708D01*
X-114490Y-515283D02*
Y-511708D01*
X-116586Y-518414D02*
Y-517379D01*
X-114490Y-515283D01*
X-111061Y-513128D02*
X-110169Y-512235D01*
X-54991Y-524891D02*
X-46990Y-516890D01*
X-88265Y-524891D02*
X-54991D01*
X-111061Y-515283D02*
Y-513128D01*
Y-515283D02*
X-108966Y-517379D01*
Y-518414D02*
Y-517379D01*
X-322243Y-599757D02*
X-299466D01*
X-324720Y-602234D02*
X-322243Y-599757D01*
X-299466D02*
Y-599757D01*
X-154686Y-677164D02*
X-146304Y-685546D01*
Y-691027D02*
Y-685546D01*
X-263883Y-677164D02*
X-154686D01*
X-149015Y-693737D02*
X-146304Y-691027D01*
X-152825Y-693737D02*
X-149015D01*
X-287528Y-648281D02*
Y-647246D01*
X-154794Y-695706D02*
X-152825Y-693737D01*
X-155956Y-695706D02*
X-154794D01*
X-289624Y-651423D02*
X-263883Y-677164D01*
X-289624Y-650377D02*
X-287528Y-648281D01*
X-289624Y-651423D02*
Y-650377D01*
X-156106Y-680593D02*
X-149733Y-686966D01*
Y-689606D02*
Y-686966D01*
X-265303Y-680593D02*
X-156106D01*
X-156210Y-688086D02*
X-155048D01*
X-293053Y-652843D02*
X-265303Y-680593D01*
X-155048Y-688086D02*
X-152825Y-690309D01*
X-150435D02*
X-149733Y-689606D01*
X-152825Y-690309D02*
X-150435D01*
X-295148Y-648027D02*
Y-646992D01*
X-293053Y-652843D02*
Y-650123D01*
X-295148Y-648027D02*
X-293053Y-650123D01*
X-33274Y-505714D02*
X-32571D01*
X-325120Y-593852D02*
X-324466D01*
X-32063Y-498094D02*
X-30221Y-499935D01*
X-33274Y-498094D02*
X-32063D01*
X-325374Y-602234D02*
X-324720D01*
X-392890Y-641394D02*
X-387013D01*
X-384112Y-647871D02*
X-382016Y-649967D01*
Y-651002D02*
Y-649967D01*
X-387013Y-641394D02*
X-384112Y-644296D01*
X-397227Y-645732D02*
X-392890Y-641394D01*
X-384112Y-647871D02*
Y-644296D01*
X-413747Y-643636D02*
X-411651Y-645732D01*
X-409496D02*
X-397227D01*
X-411651D02*
X-409496D01*
X-414782Y-643636D02*
X-413747D01*
X-391470Y-644823D02*
X-388433D01*
X-387541Y-647871D02*
Y-645716D01*
X-388433Y-644823D02*
X-387541Y-645716D01*
X-389636Y-649967D02*
X-387541Y-647871D01*
X-395807Y-649161D02*
X-391470Y-644823D01*
X-389636Y-651002D02*
Y-649967D01*
X-408076Y-649161D02*
X-395807D01*
X-411651D02*
X-408076D01*
X-413747Y-651256D02*
X-411651Y-649161D01*
X-414782Y-651256D02*
X-413747D01*
X-33108Y-632714D02*
X-29464D01*
X-33172Y-632777D02*
X-33108Y-632714D01*
X-37001Y-632777D02*
X-33172D01*
X-39224Y-635000D02*
X-37001Y-632777D01*
X-40132Y-635000D02*
X-39224D01*
X-29464Y-632714D02*
X-27178Y-635000D01*
Y-639318D02*
Y-635000D01*
X-34368Y-646508D02*
X-27178Y-639318D01*
X-101548Y-713688D02*
X-34368Y-646508D01*
X-101548Y-744676D02*
Y-713688D01*
X-164338Y-807466D02*
X-101548Y-744676D01*
X-302778Y-788162D02*
X-301615D01*
X-299647Y-790130D02*
X-294426D01*
X-301615Y-788162D02*
X-299647Y-790130D01*
X-277091Y-807466D02*
X-164338D01*
X-38716Y-627380D02*
X-36747Y-629348D01*
X-34592D02*
X-34529Y-629285D01*
X-39878Y-627380D02*
X-38716D01*
X-34529Y-629285D02*
X-28044D01*
X-36747Y-629348D02*
X-34592D01*
X-28044Y-629285D02*
X-23749Y-633580D01*
Y-640738D02*
Y-633580D01*
X-32947Y-649937D02*
X-23749Y-640738D01*
X-98119Y-715108D02*
X-32947Y-649937D01*
X-98119Y-746096D02*
Y-715108D01*
X-162918Y-810895D02*
X-98119Y-746096D01*
X-299901Y-793559D02*
X-295847D01*
X-278511Y-810895D01*
X-162918D01*
X-42466Y-614262D02*
X-41921Y-614807D01*
X-44621Y-614262D02*
X-42466D01*
X-46563Y-616204D02*
X-44621Y-614262D01*
X-47752Y-616204D02*
X-46563D01*
X-40501Y-611378D02*
X-39116D01*
X-41046Y-610833D02*
X-40501Y-611378D01*
X-47125Y-608584D02*
X-44875Y-610833D01*
X-41046D01*
X-48006Y-608584D02*
X-47125D01*
X-341122Y-708460D02*
X-340087D01*
X-403206Y-581152D02*
X-400729Y-578675D01*
X-404114Y-581152D02*
X-403206D01*
X-423018Y-575056D02*
X-420541Y-572579D01*
X-423672Y-575056D02*
X-423018D01*
X-926084Y-219710D02*
X-917725D01*
X-901700Y-213868D02*
X-886968Y-228600D01*
X-901700Y-213868D02*
Y-208534D01*
X-917725Y-219710D02*
X-892579Y-194564D01*
X-885421D01*
X-878625Y-201360D01*
X-901700Y-208534D02*
X-891159Y-197993D01*
X-886841D01*
X-882054Y-202780D01*
X-885205Y-207194D02*
X-882054Y-204043D01*
X-878625Y-205463D02*
Y-201360D01*
X-883288Y-210126D02*
X-878625Y-205463D01*
X-882054Y-204043D02*
Y-202780D01*
X-883288Y-213290D02*
Y-210126D01*
X-883920Y-213922D02*
X-883288Y-213290D01*
X-888368Y-207194D02*
X-885205D01*
X-889000Y-207826D02*
X-888368Y-207194D01*
X-396113Y-558673D02*
X-389890Y-564896D01*
Y-571158D02*
Y-564896D01*
X-397408Y-578675D02*
X-389890Y-571158D01*
X-400729Y-578675D02*
X-397408D01*
X-407909Y-558673D02*
X-396113D01*
X-423672Y-567182D02*
X-422510D01*
X-418386Y-569151D02*
X-407909Y-558673D01*
X-420541Y-569151D02*
X-418386D01*
X-422510Y-567182D02*
X-420541Y-569151D01*
X-397533Y-562102D02*
X-393319Y-566316D01*
Y-569738D02*
Y-566316D01*
X-398828Y-575247D02*
X-393319Y-569738D01*
X-400983Y-575247D02*
X-398828D01*
X-402952Y-573278D02*
X-400983Y-575247D01*
X-406488Y-562102D02*
X-397533D01*
X-420541Y-572579D02*
X-416966D01*
X-406488Y-562102D01*
X-404114Y-573278D02*
X-402952D01*
X-235585Y-652676D02*
Y-646303D01*
X-238610Y-655701D02*
X-235585Y-652676D01*
X-243574Y-638314D02*
X-235585Y-646303D01*
X-258572Y-632479D02*
Y-631444D01*
X-259084Y-638314D02*
X-243574D01*
X-243078Y-655701D02*
X-238610D01*
X-243873Y-656496D02*
X-243078Y-655701D01*
X-246540Y-656496D02*
X-243873D01*
X-247396Y-657352D02*
X-246540Y-656496D01*
X-260667Y-636730D02*
X-259084Y-638314D01*
X-260667Y-634575D02*
X-258572Y-632479D01*
X-260667Y-636730D02*
Y-634575D01*
X-244995Y-641743D02*
X-239014Y-647723D01*
X-260504Y-641743D02*
X-244995D01*
X-264097Y-638150D02*
Y-634321D01*
Y-638150D02*
X-260504Y-641743D01*
X-247396Y-649732D02*
X-246185D01*
X-239014Y-651256D02*
Y-647723D01*
X-240030Y-652272D02*
X-239014Y-651256D01*
X-243645Y-652272D02*
X-240030D01*
X-246185Y-649732D02*
X-243645Y-652272D01*
X-266192Y-632225D02*
X-264097Y-634321D01*
X-266192Y-632225D02*
Y-631190D01*
X-458216Y-801878D02*
X-457308D01*
X-455085Y-799656D01*
X-419276Y-847149D02*
X-419100D01*
X-426720Y-847325D02*
X-424624Y-845229D01*
Y-843374D01*
X-426720Y-848360D02*
Y-847325D01*
X-434467Y-840105D02*
X-427894D01*
X-424624Y-843374D01*
X-421195Y-845229D02*
X-419276Y-847149D01*
X-426474Y-836676D02*
X-421195Y-841954D01*
Y-845229D02*
Y-841954D01*
X-433047Y-836676D02*
X-426474D01*
X-445631Y-824091D02*
X-433047Y-836676D01*
X-452565Y-799656D02*
X-449060Y-803160D01*
X-445631Y-824091D02*
Y-801739D01*
X-451144Y-796227D02*
X-445631Y-801739D01*
X-449060Y-825512D02*
Y-803160D01*
X-455085Y-799656D02*
X-452565D01*
X-455085Y-796227D02*
X-451144D01*
X-457308Y-794004D02*
X-455085Y-796227D01*
X-458216Y-794004D02*
X-457308D01*
D19*
X-366522Y-983996D02*
X-174498D01*
X-90678Y-916686D02*
X-78740Y-904748D01*
X-107188Y-916686D02*
X-90678D01*
X-174498Y-983996D02*
X-107188Y-916686D01*
X-356616Y-977392D02*
X-189992D01*
X-117348Y-904748D01*
X-91186D01*
X-482854Y-363728D02*
Y-298958D01*
X-510032Y-271780D02*
X-482854Y-298958D01*
X-562102Y-271780D02*
X-510032D01*
X-403860Y-510921D02*
Y-492760D01*
X-401066Y-523494D02*
X-390906Y-513334D01*
X-405892Y-523494D02*
X-401066D01*
X-413004Y-516382D02*
X-405892Y-523494D01*
X-426466Y-516382D02*
X-413004D01*
X-431038Y-279400D02*
X-410718Y-259080D01*
X-431038Y-364236D02*
Y-314452D01*
Y-308864D01*
X-429514Y-307340D01*
X-424688D01*
X-423164Y-305816D01*
Y-303784D01*
X-424688Y-302260D02*
X-423164Y-303784D01*
X-431038Y-302260D02*
X-424688D01*
X-437388D02*
X-431038D01*
X-438912Y-300736D02*
X-437388Y-302260D01*
X-438912Y-300736D02*
Y-298704D01*
X-437388Y-297180D01*
X-431038D01*
X-424688D01*
X-423164Y-295656D01*
Y-293624D01*
X-424688Y-292100D02*
X-423164Y-293624D01*
X-431038Y-292100D02*
X-424688D01*
X-437388D02*
X-431038D01*
X-438912Y-290576D02*
X-437388Y-292100D01*
X-438912Y-290576D02*
Y-288544D01*
X-437388Y-287020D01*
X-432562D01*
X-431038Y-285496D01*
Y-281940D01*
Y-279400D01*
X-416560Y-409448D02*
Y-407416D01*
Y-406654D01*
Y-403098D01*
X-415036Y-401574D01*
X-410464D01*
X-408940Y-400050D01*
Y-398018D01*
X-410464Y-396494D02*
X-408940Y-398018D01*
X-416560Y-396494D02*
X-410464D01*
X-422656D02*
X-416560D01*
X-424180Y-394970D02*
X-422656Y-396494D01*
X-424180Y-394970D02*
Y-392938D01*
X-422656Y-391414D01*
X-416560D01*
X-410464D01*
X-408940Y-389890D01*
Y-387858D01*
X-410464Y-386334D02*
X-408940Y-387858D01*
X-415036Y-386334D02*
X-410464D01*
X-416560Y-384810D02*
X-415036Y-386334D01*
X-416560Y-384810D02*
Y-381254D01*
Y-378714D01*
X-418466Y-376808D02*
X-416560Y-378714D01*
X-420980Y-374294D02*
X-418466Y-376808D01*
X-423135Y-374294D02*
X-420980D01*
X-426368Y-377527D02*
X-423135Y-374294D01*
X-428523Y-377527D02*
X-426368D01*
X-429960Y-376090D02*
X-428523Y-377527D01*
X-429960Y-376090D02*
Y-373935D01*
X-426727Y-370702D01*
X-426727Y-368546D02*
X-426727Y-370702D01*
X-429242Y-366032D02*
X-426727Y-368546D01*
X-431038Y-364236D02*
X-429242Y-366032D01*
X-508508Y-401828D02*
Y-338836D01*
Y-407895D02*
Y-401828D01*
Y-407895D02*
X-506984Y-409419D01*
X-502418D01*
X-500894Y-410943D01*
Y-412975D02*
Y-410943D01*
X-502418Y-414499D02*
X-500894Y-412975D01*
X-508508Y-414499D02*
X-502418D01*
X-514598D02*
X-508508D01*
X-516122Y-416023D02*
X-514598Y-414499D01*
X-516122Y-418055D02*
Y-416023D01*
Y-418055D02*
X-514598Y-419579D01*
X-508508D01*
X-502418D01*
X-500894Y-421103D01*
Y-423135D02*
Y-421103D01*
X-502418Y-424659D02*
X-500894Y-423135D01*
X-506984Y-424659D02*
X-502418D01*
X-508508Y-426183D02*
X-506984Y-424659D01*
X-508508Y-429739D02*
Y-426183D01*
Y-432279D02*
Y-429739D01*
X-509778Y-337566D02*
X-508508Y-338836D01*
X-514604Y-337566D02*
X-509778D01*
X-516128Y-336042D02*
X-514604Y-337566D01*
X-516128Y-336042D02*
Y-334010D01*
X-514604Y-332486D01*
X-508508D01*
X-502412D01*
X-500888Y-330962D01*
Y-328930D01*
X-502412Y-327406D02*
X-500888Y-328930D01*
X-508508Y-327406D02*
X-502412D01*
X-514604D02*
X-508508D01*
X-516128Y-325882D02*
X-514604Y-327406D01*
X-516128Y-325882D02*
Y-323850D01*
X-514604Y-322326D01*
X-508508D01*
X-502412D01*
X-500888Y-320802D01*
Y-318770D01*
X-502412Y-317246D02*
X-500888Y-318770D01*
X-508508Y-317246D02*
X-502412D01*
X-514604D02*
X-508508D01*
X-516128Y-315722D02*
X-514604Y-317246D01*
X-516128Y-315722D02*
Y-313690D01*
X-514604Y-312166D01*
X-508508D01*
X-502412D01*
X-500888Y-310642D01*
Y-308610D01*
X-502412Y-307086D02*
X-500888Y-308610D01*
X-508508Y-307086D02*
X-502412D01*
X-514604D02*
X-508508D01*
X-516128Y-305562D02*
X-514604Y-307086D01*
X-516128Y-305562D02*
Y-303530D01*
X-514604Y-302006D01*
X-510032D01*
X-508508Y-300482D01*
Y-296926D01*
Y-294386D01*
X-511810Y-291084D02*
X-508508Y-294386D01*
X-371094Y-578358D02*
X-362204Y-587248D01*
X-413766Y-535686D02*
X-400685Y-548767D01*
X-385445D02*
X-371094Y-563118D01*
Y-578358D02*
Y-563118D01*
X-400685Y-548767D02*
X-385445D01*
X-325120Y-1132586D02*
X-209550D01*
X-404876Y-1052830D02*
X-325120Y-1132586D01*
X-209550D02*
X-107950D01*
X-84582Y-1109218D01*
X-772922Y-726694D02*
X-750316Y-704088D01*
Y-515874D01*
X-704596Y-470154D01*
X-656844D01*
X-467868Y-885698D02*
X-465836Y-887730D01*
X-581152Y-885698D02*
X-467868D01*
X-621538Y-845312D02*
X-581152Y-885698D01*
X-408432Y-942086D02*
X-366522Y-983996D01*
X-652018Y-1032256D02*
X-617474D01*
X-710692Y-973582D02*
X-652018Y-1032256D01*
X-617474D02*
X-613664Y-1036066D01*
X-617474Y-1011174D02*
X-612648Y-1016000D01*
X-639572Y-1011174D02*
X-617474D01*
X-698246Y-952500D02*
X-639572Y-1011174D01*
X-616712Y-1022350D02*
X-613156Y-1025906D01*
X-643128Y-1022350D02*
X-616712D01*
X-704850Y-960628D02*
X-643128Y-1022350D01*
X-482854Y-363728D02*
X-431546Y-415036D01*
X-614072Y-559716D02*
X-613410Y-559054D01*
X-631598Y-559716D02*
X-614072D01*
X-639572Y-567690D02*
X-631598Y-559716D01*
X-639572Y-935228D02*
Y-567690D01*
X-614326Y-532792D02*
X-613664Y-532130D01*
X-640742Y-532792D02*
X-614326D01*
Y-541936D02*
X-613664Y-541274D01*
X-614072Y-550826D02*
X-613410Y-550164D01*
X-416560Y-409448D02*
X-406908Y-419100D01*
Y-469138D02*
Y-419100D01*
Y-469138D02*
X-390906Y-485140D01*
Y-513334D02*
Y-485140D01*
X-431546Y-465074D02*
X-403860Y-492760D01*
X-431546Y-465074D02*
Y-415036D01*
X-242570Y-900684D02*
X-195326Y-947928D01*
X-242570Y-900684D02*
Y-872236D01*
X-377698Y-674116D02*
X-371602D01*
X-388874Y-662940D02*
X-377698Y-674116D01*
X-530352Y-1076706D02*
X-491744D01*
X-542036Y-1065022D02*
X-530352Y-1076706D01*
X-542036Y-1065022D02*
Y-915162D01*
X-531622Y-1084580D02*
X-492760D01*
X-547878Y-1068324D02*
X-531622Y-1084580D01*
X-547878Y-1068324D02*
Y-921004D01*
X-571246Y-860806D02*
X-570992D01*
X-605028Y-827024D02*
X-571246Y-860806D01*
X-533400Y-1092454D02*
X-492506D01*
X-554482Y-1071372D02*
X-533400Y-1092454D01*
X-554482Y-1071372D02*
Y-930656D01*
X-537972Y-1099820D02*
X-497840D01*
X-560324Y-1077468D02*
X-537972Y-1099820D01*
X-560324Y-1077468D02*
Y-935482D01*
X-408940Y-920750D02*
X-395986Y-907796D01*
X-408940Y-926846D02*
Y-920750D01*
X-419354Y-915162D02*
X-409448Y-905256D01*
X-419354Y-926846D02*
Y-915162D01*
X-566928Y-1083564D02*
Y-1002284D01*
X-567436Y-1084072D02*
X-566928Y-1083564D01*
X-571600Y-404468D02*
Y-356000D01*
X-615188Y-448056D02*
X-571600Y-404468D01*
X-615188Y-461264D02*
Y-448056D01*
X-484886Y-700786D02*
X-480568Y-705104D01*
Y-730250D02*
Y-705104D01*
X-491236Y-740918D02*
X-480568Y-730250D01*
X-491236Y-822452D02*
Y-740918D01*
X-480568Y-691134D02*
X-471678Y-700024D01*
Y-734060D02*
Y-700024D01*
X-483870Y-746252D02*
X-471678Y-734060D01*
X-483870Y-819150D02*
Y-746252D01*
X-518160Y-673100D02*
X-497332Y-693928D01*
Y-827024D02*
Y-693928D01*
Y-827024D02*
X-437388Y-886968D01*
X-491236Y-822452D02*
X-433578Y-880110D01*
X-440436Y-894588D02*
X-345186D01*
X-503428Y-831596D02*
X-440436Y-894588D01*
X-503428Y-831596D02*
Y-696214D01*
X-437388Y-886968D02*
X-340360D01*
X-316738Y-910590D01*
X-345186Y-894588D02*
X-320294Y-919480D01*
X-332740Y-880110D02*
X-314452Y-898398D01*
X-433578Y-880110D02*
X-332740D01*
X-296672Y-872998D02*
X-281178Y-888492D01*
X-430022Y-872998D02*
X-296672D01*
X-483870Y-819150D02*
X-430022Y-872998D01*
X-290576Y-866140D02*
X-280670Y-876046D01*
X-425704Y-866140D02*
X-290576D01*
X-477266Y-814578D02*
X-425704Y-866140D01*
X-477266Y-814578D02*
Y-753110D01*
X-463804Y-739648D01*
X-513588Y-686054D02*
X-503428Y-696214D01*
X-485394Y-691134D02*
X-480568D01*
X-463804Y-739648D02*
Y-691134D01*
X-474980Y-679958D02*
X-463804Y-691134D01*
X-485902Y-679958D02*
X-474980D01*
X-515366Y-662940D02*
X-388874D01*
X-520446Y-657860D02*
X-515366Y-662940D01*
X-502920Y-482346D02*
X-488950Y-496316D01*
Y-515874D02*
Y-496316D01*
Y-515874D02*
X-473202Y-531622D01*
X-499364Y-473202D02*
X-481584Y-490982D01*
Y-510540D02*
Y-490982D01*
Y-510540D02*
X-463296Y-528828D01*
X-553974Y-473202D02*
X-499364D01*
X-569576Y-457600D02*
X-553974Y-473202D01*
X-597000Y-356000D02*
X-595602Y-354602D01*
Y-345158D01*
X-573532Y-323088D01*
X-584454Y-802640D02*
Y-752094D01*
Y-802640D02*
X-541782Y-845312D01*
X-589534Y-747014D02*
X-584454Y-752094D01*
X-596646Y-822960D02*
Y-739648D01*
X-573786Y-845820D02*
X-557784D01*
X-596646Y-822960D02*
X-573786Y-845820D01*
X-882598Y-270870D02*
X-870510D01*
X-860806Y-261166D01*
X-615188Y-461264D02*
X-591820Y-484632D01*
X-616712Y-594106D02*
X-591820Y-569214D01*
Y-495046D02*
Y-484632D01*
Y-569214D02*
Y-495046D01*
X-645922Y-488442D02*
X-621792D01*
X-716026Y-558546D02*
X-645922Y-488442D01*
X-380873Y-953135D02*
X-356616Y-977392D01*
X-368300Y-480060D02*
X-356616Y-491744D01*
X-356870Y-475234D02*
X-348742Y-483362D01*
Y-826770D02*
Y-483362D01*
X-356616Y-828040D02*
Y-491744D01*
X-508508Y-432279D02*
X-464029Y-476758D01*
X-440944D01*
X-415798Y-501904D01*
X-362204Y-831088D02*
Y-587248D01*
X-425196Y-535686D02*
X-413766D01*
X-470408Y-504698D02*
X-456184D01*
X-425196Y-535686D01*
X-463296Y-540258D02*
Y-528828D01*
X-473202Y-545338D02*
Y-531622D01*
X-572516Y-870458D02*
X-566674D01*
X-610108Y-832866D02*
X-572516Y-870458D01*
X-610108Y-832866D02*
Y-725170D01*
X-607822Y-722884D01*
X-721614Y-551180D02*
X-649732Y-479298D01*
X-621030D01*
X-643382Y-497332D02*
X-617728D01*
X-710692Y-564642D02*
X-643382Y-497332D01*
X-704850Y-568452D02*
X-641350Y-504952D01*
X-625094D01*
X-698246Y-571500D02*
X-640080Y-513334D01*
X-631444D01*
X-692404Y-574802D02*
X-640588Y-522986D01*
X-633730D01*
X-635662Y-550826D02*
X-614072D01*
X-645922Y-561086D02*
X-635662Y-550826D01*
X-645922Y-937768D02*
Y-561086D01*
X-638202Y-541936D02*
X-614326D01*
X-678434Y-582168D02*
X-638202Y-541936D01*
X-678434Y-914400D02*
Y-582168D01*
X-686308Y-578358D02*
X-640742Y-532792D01*
X-686308Y-578358D02*
X-686308Y-915924D01*
X-692404Y-574802D02*
X-692404Y-932688D01*
X-698246Y-571500D02*
X-698246Y-952500D01*
X-704850Y-568452D02*
X-704850Y-960628D01*
X-710692Y-564642D02*
X-710692Y-973582D01*
X-716026Y-558546D02*
X-716026Y-977138D01*
X-721614Y-551180D02*
X-721614Y-981710D01*
X-335534Y-857758D02*
X-280924D01*
X-362204Y-831088D02*
X-335534Y-857758D01*
X-333756Y-850900D02*
X-275082D01*
X-356616Y-828040D02*
X-333756Y-850900D01*
X-331216Y-844296D02*
X-270510D01*
X-348742Y-826770D02*
X-331216Y-844296D01*
X-678434Y-914400D02*
X-593852Y-998982D01*
X-686308Y-915924D02*
X-600504Y-1001728D01*
X-692404Y-932688D02*
X-620776Y-1004316D01*
X-716026Y-977138D02*
X-631952Y-1061212D01*
X-721614Y-981710D02*
X-631190Y-1072134D01*
X-596646Y-739648D02*
Y-738712D01*
X-592328Y-734394D01*
X-601472Y-707898D02*
X-592328Y-717042D01*
Y-734394D02*
Y-717042D01*
X-601472Y-707898D02*
Y-673354D01*
X-585978Y-657860D02*
X-520446D01*
X-601472Y-673354D02*
X-585978Y-657860D01*
X-427942Y-1122124D02*
Y-1085564D01*
X-431292Y-1082214D02*
X-427942Y-1085564D01*
X-431292Y-1082214D02*
Y-1081278D01*
X-420878Y-1131316D02*
X-411988Y-1122426D01*
Y-1091184D01*
X-270510Y-844296D02*
X-242570Y-872236D01*
X-249174Y-911352D02*
Y-876808D01*
X-275082Y-850900D02*
X-249174Y-876808D01*
X-258572Y-912368D02*
Y-880110D01*
X-280924Y-857758D02*
X-258572Y-880110D01*
X-281178Y-888492D02*
X-279146D01*
X-591312Y-684530D02*
X-580684D01*
X-579160Y-686054D01*
X-513588D01*
X-320294Y-919480D02*
X-296672D01*
X-568706Y-673100D02*
X-518160D01*
X-316738Y-910590D02*
X-305562D01*
X-586486Y-902208D02*
X-477520D01*
X-632968Y-855726D02*
X-586486Y-902208D01*
X-585216Y-892810D02*
X-474726D01*
X-627380Y-850646D02*
X-585216Y-892810D01*
X-577850Y-878332D02*
X-483616D01*
X-615950Y-840232D02*
X-577850Y-878332D01*
X-559308Y-925830D02*
Y-919480D01*
Y-925830D02*
X-554482Y-930656D01*
X-558038Y-910844D02*
X-547878Y-921004D01*
X-565912Y-910844D02*
X-558038D01*
X-568198Y-927608D02*
X-560324Y-935482D01*
X-497840Y-1099820D02*
X-496014Y-1101646D01*
Y-1107996D02*
X-495554Y-1108456D01*
X-496014Y-1107996D02*
Y-1101646D01*
X-485902Y-1108456D02*
Y-1099058D01*
X-492506Y-1092454D02*
X-485902Y-1099058D01*
X-476250Y-1108456D02*
Y-1101090D01*
X-492760Y-1084580D02*
X-476250Y-1101090D01*
X-605028Y-827024D02*
Y-736266D01*
X-600964Y-732202D01*
Y-731266D01*
X-589534Y-747014D02*
Y-746506D01*
X-491744Y-1076706D02*
X-466804Y-1101646D01*
Y-1108250D02*
X-466598Y-1108456D01*
X-466804Y-1108250D02*
Y-1101646D01*
X-616712Y-676148D02*
X-616204Y-676656D01*
X-616712Y-676148D02*
Y-594106D01*
X-597000Y-457600D02*
X-572254Y-482346D01*
X-502920D01*
X-571600Y-457600D02*
X-569576D01*
X-258572Y-912368D02*
X-223266Y-947674D01*
X-249174Y-911352D02*
X-210820Y-949706D01*
X-571246Y-675640D02*
X-568706Y-673100D01*
X-615950Y-717042D02*
X-613918Y-715010D01*
X-615950Y-840232D02*
Y-717042D01*
X-627380Y-697738D02*
X-623824Y-694182D01*
X-627380Y-850646D02*
Y-697738D01*
X-621538Y-705612D02*
X-618490Y-702564D01*
X-621538Y-845312D02*
Y-705612D01*
X-632968Y-691134D02*
X-628650Y-686816D01*
X-632968Y-855726D02*
Y-691134D01*
X-639572Y-935228D02*
X-581406Y-993394D01*
X-645922Y-937768D02*
X-587502Y-996188D01*
X-492506Y-1128776D02*
X-476250Y-1112520D01*
X-570230Y-1128776D02*
X-492506D01*
X-600504Y-1098502D02*
X-570230Y-1128776D01*
X-476250Y-1112520D02*
Y-1108456D01*
X-496570Y-1122680D02*
X-485902Y-1112012D01*
X-565150Y-1122680D02*
X-496570D01*
X-593852Y-1093978D02*
X-565150Y-1122680D01*
X-485902Y-1112012D02*
Y-1108456D01*
X-498602Y-1116584D02*
X-495554Y-1113536D01*
X-559308Y-1116584D02*
X-498602D01*
X-587502Y-1088390D02*
X-559308Y-1116584D01*
X-495554Y-1113536D02*
Y-1108456D01*
X-557530D02*
X-505206D01*
X-581406Y-1084580D02*
X-557530Y-1108456D01*
X-581406Y-1084580D02*
Y-993394D01*
X-587502Y-1088390D02*
Y-996188D01*
X-593852Y-1093978D02*
Y-998982D01*
X-600504Y-1098502D02*
Y-1001728D01*
X-611886Y-1004316D02*
X-611696Y-1004507D01*
X-620776Y-1004316D02*
X-611886D01*
X-356108Y-1062228D02*
X-124968D01*
X-386080Y-1000760D02*
X-381000Y-1005840D01*
Y-1037336D02*
Y-1005840D01*
Y-1037336D02*
X-356108Y-1062228D01*
X-357378Y-1071626D02*
X-138176D01*
X-389382Y-1039622D02*
X-357378Y-1071626D01*
X-389382Y-1039622D02*
Y-1009904D01*
X-359283Y-1084707D02*
X-131953D01*
X-398272Y-1045718D02*
X-359283Y-1084707D01*
X-398272Y-1045718D02*
Y-971296D01*
X-404876Y-1052830D02*
Y-974598D01*
X-631952Y-1061212D02*
X-606806D01*
X-631190Y-1072134D02*
X-606298D01*
X-930148Y-573786D02*
X-914908Y-589026D01*
X-881888D01*
X-117348Y-1099312D02*
X-95250D01*
X-131953Y-1084707D02*
X-117348Y-1099312D01*
X-105410Y-1090422D02*
Y-1081786D01*
X-84582Y-1109218D02*
Y-1090168D01*
X-470408Y-935482D02*
X-443992D01*
X-404876Y-974598D01*
X-124968Y-1062228D02*
X-105410Y-1081786D01*
X-478790Y-928116D02*
X-441452D01*
X-398272Y-971296D01*
X-906018Y-747014D02*
X-879856D01*
X-922274Y-730758D02*
X-906018Y-747014D01*
X-929894Y-730758D02*
X-922274D01*
X-929894Y-908304D02*
X-929407D01*
X-924835Y-912876D01*
X-920242D01*
X-909066Y-924052D02*
X-880110D01*
X-920242Y-912876D02*
X-909066Y-924052D01*
X-914146Y-411226D02*
X-883666D01*
X-930656Y-394716D02*
X-914146Y-411226D01*
D25*
X-702310Y-1074420D02*
D03*
X-820420Y-158750D02*
D03*
X-75692Y-279908D02*
D03*
D77*
X-343000Y-356000D02*
D03*
X-368400D02*
D03*
X-393800D02*
D03*
X-419200D02*
D03*
X-444600D02*
D03*
X-470000D02*
D03*
X-495400D02*
D03*
X-520800D02*
D03*
X-546200D02*
D03*
X-571600D02*
D03*
X-597000D02*
D03*
Y-457600D02*
D03*
X-571600D02*
D03*
X-546200D02*
D03*
X-520800D02*
D03*
X-495400D02*
D03*
X-470000D02*
D03*
X-444600D02*
D03*
X-419200D02*
D03*
X-393800D02*
D03*
X-368400D02*
D03*
D131*
X-343000D02*
D03*
D140*
X-120396Y-802776D02*
X-118400Y-804772D01*
Y-884692D02*
Y-804772D01*
X-120396Y-802776D02*
Y-801624D01*
X-195606Y-961898D02*
X-118400Y-884692D01*
X-321818Y-961898D02*
X-195606D01*
X-324358Y-959358D02*
X-321818Y-961898D01*
X-112776Y-802653D02*
Y-801878D01*
X-115149Y-886039D02*
Y-805026D01*
X-112776Y-802653D01*
X-135382Y-906272D02*
X-115149Y-886039D01*
X-135382Y-906272D02*
Y-906272D01*
X-194259Y-965149D02*
X-135382Y-906272D01*
X-322275Y-965149D02*
X-194259D01*
X-324612Y-967486D02*
X-322275Y-965149D01*
D142*
X-392390Y-817184D02*
D03*
X-380790D02*
D03*
Y-805584D02*
D03*
X-392390D02*
D03*
X-386590Y-811384D02*
D03*
X-383622Y-534070D02*
D03*
X-389422Y-528270D02*
D03*
X-377822D02*
D03*
Y-539870D02*
D03*
X-389422D02*
D03*
X-385444Y-612260D02*
D03*
X-391244Y-606460D02*
D03*
X-379644D02*
D03*
Y-618060D02*
D03*
X-391244D02*
D03*
X-386590Y-727524D02*
D03*
X-392390Y-721724D02*
D03*
X-380790D02*
D03*
Y-733324D02*
D03*
X-392390D02*
D03*
D143*
X-750406Y-149796D02*
D03*
X-180406D02*
D03*
X-750406Y-1109796D02*
D03*
X-180406D02*
D03*
D144*
X-719074Y-214376D02*
D03*
X-712216Y-207264D02*
D03*
X-705358Y-200152D02*
D03*
X-143510Y-208280D02*
D03*
Y-198120D02*
D03*
X-143256Y-188468D02*
D03*
X-165100Y-202692D02*
D03*
X-164846Y-193294D02*
D03*
Y-184150D02*
D03*
X-146812Y-723646D02*
D03*
X-146558Y-676910D02*
D03*
X-269494Y-1113536D02*
D03*
X-249682Y-1113790D02*
D03*
X-259334Y-1113536D02*
D03*
X-535940Y-816102D02*
D03*
X-14478Y-350520D02*
D03*
X-14224Y-292862D02*
D03*
X-13970Y-235204D02*
D03*
X-13716Y-177546D02*
D03*
X-13462Y-119888D02*
D03*
X-13208Y-62230D02*
D03*
X-60452Y-15494D02*
D03*
X-118872D02*
D03*
X-201422Y-16002D02*
D03*
X-259080Y-15748D02*
D03*
X-359156Y-16002D02*
D03*
X-416814Y-15748D02*
D03*
X-474472Y-15494D02*
D03*
X-562356D02*
D03*
X-620014Y-15240D02*
D03*
X-740918Y-16002D02*
D03*
X-798576Y-15748D02*
D03*
X-856234Y-15494D02*
D03*
X-913892Y-15240D02*
D03*
X-957072Y-58420D02*
D03*
X-957326Y-116078D02*
D03*
X-957072Y-161290D02*
D03*
X-908050Y-162560D02*
D03*
X-887222Y-162306D02*
D03*
X-658622Y-913892D02*
D03*
X-658876Y-905764D02*
D03*
X-733552Y-599694D02*
D03*
X-733298Y-537464D02*
D03*
X-839216Y-1097788D02*
D03*
X-847344Y-1097280D02*
D03*
X-76962Y-991108D02*
D03*
X-72898Y-985012D02*
D03*
X-81534D02*
D03*
X-872744Y-981456D02*
D03*
X-880110Y-988568D02*
D03*
X-42672Y-1022858D02*
D03*
X-59186Y-1037844D02*
D03*
X-105156Y-976630D02*
D03*
X-104902Y-968502D02*
D03*
X-104648Y-960628D02*
D03*
X-91186Y-904748D02*
D03*
X-78740D02*
D03*
X-927415Y-251206D02*
D03*
X-927354Y-259080D02*
D03*
X-946658Y-242062D02*
D03*
Y-249872D02*
D03*
X-322072Y-816102D02*
D03*
X-337566Y-815086D02*
D03*
Y-807212D02*
D03*
X-314198Y-816356D02*
D03*
X-138684Y-731520D02*
D03*
X-301752Y-726440D02*
D03*
X-131064Y-731520D02*
D03*
X-301762Y-718566D02*
D03*
X-256794Y-738886D02*
D03*
X-290830Y-741680D02*
D03*
X-256794Y-746506D02*
D03*
X-282956Y-741680D02*
D03*
X-154940Y-669090D02*
D03*
X-273558Y-612648D02*
D03*
X-281432Y-612902D02*
D03*
X-154940Y-661416D02*
D03*
X-282194Y-687832D02*
D03*
X-309372Y-663194D02*
D03*
X-281940Y-680212D02*
D03*
X-317246Y-662940D02*
D03*
X-317500Y-553212D02*
D03*
X-95250Y-493014D02*
D03*
X-325120Y-553466D02*
D03*
X-95250Y-500634D02*
D03*
X-96012Y-479806D02*
D03*
X-335026Y-629666D02*
D03*
X-96266Y-471678D02*
D03*
X-327406Y-629666D02*
D03*
X-267462Y-791518D02*
D03*
X-107442Y-604774D02*
D03*
X-262128Y-797106D02*
D03*
X-99568Y-604774D02*
D03*
X-302768Y-796036D02*
D03*
Y-769620D02*
D03*
X-320294Y-732790D02*
D03*
X-341122Y-700532D02*
D03*
X-424942Y-613664D02*
D03*
X-447548Y-620776D02*
D03*
X-424942Y-621284D02*
D03*
X-447548Y-613156D02*
D03*
X-442468Y-578866D02*
D03*
X-420370Y-548386D02*
D03*
Y-556260D02*
D03*
X-442468Y-586740D02*
D03*
X-434086Y-782574D02*
D03*
X-467106Y-763016D02*
D03*
X-426466Y-782574D02*
D03*
X-467106Y-770636D02*
D03*
X-423418Y-728726D02*
D03*
X-438404Y-771652D02*
D03*
X-423418Y-736346D02*
D03*
X-438150Y-763778D02*
D03*
X-419862Y-806450D02*
D03*
X-436372Y-821182D02*
D03*
X-427482Y-806704D02*
D03*
X-436372Y-813308D02*
D03*
X-172466Y-899668D02*
D03*
X-159258Y-877570D02*
D03*
X-196596Y-1008126D02*
D03*
X-180848Y-999744D02*
D03*
X-161544Y-650748D02*
D03*
X-529082Y-720090D02*
D03*
X-510794Y-717042D02*
D03*
X-34290Y-1109726D02*
D03*
X-17272Y-1093104D02*
D03*
X-83820Y-635000D02*
D03*
X-811784Y-491490D02*
D03*
Y-485394D02*
D03*
Y-479298D02*
D03*
X-816102Y-809752D02*
D03*
X-815848Y-817626D02*
D03*
X-347726Y-856488D02*
D03*
X-368554Y-663194D02*
D03*
X-363982Y-567690D02*
D03*
X-122174Y-1107186D02*
D03*
X-129032D02*
D03*
X-668528Y-814070D02*
D03*
X-36068Y-837184D02*
D03*
X-209550Y-1132586D02*
D03*
X-51308Y-442214D02*
D03*
X-41656Y-442468D02*
D03*
X-29972Y-442722D02*
D03*
X-33528Y-686308D02*
D03*
X-42164D02*
D03*
X-597662Y-921004D02*
D03*
X-625094Y-920750D02*
D03*
X-192786Y-48260D02*
D03*
X-513080Y-249174D02*
D03*
X-562102Y-271780D02*
D03*
X-772922Y-726694D02*
D03*
X-516890Y-763270D02*
D03*
X-429768Y-748538D02*
D03*
X-426466Y-904494D02*
D03*
X-465836Y-887730D02*
D03*
X-507238Y-969518D02*
D03*
X-442722Y-1030224D02*
D03*
X-439166Y-974598D02*
D03*
X-507480Y-1029728D02*
D03*
X-329692Y-992378D02*
D03*
X-377444Y-934466D02*
D03*
X-377698Y-928116D02*
D03*
X-522224Y-945896D02*
D03*
X-520192Y-919734D02*
D03*
X-522732Y-913130D02*
D03*
X-529336D02*
D03*
X-262382Y-758698D02*
D03*
X-252730Y-691388D02*
D03*
X-242570Y-571754D02*
D03*
X-540512Y-504444D02*
D03*
X-244348Y-444500D02*
D03*
X-244094Y-394716D02*
D03*
Y-407416D02*
D03*
X-408940Y-244602D02*
D03*
X-511302Y-228854D02*
D03*
X-687324Y-18796D02*
D03*
X-678942D02*
D03*
X-775208Y-67818D02*
D03*
X-692404Y-110236D02*
D03*
X-527050Y-96520D02*
D03*
X-192786Y-40132D02*
D03*
X-224282Y-103124D02*
D03*
X-232156Y-103378D02*
D03*
X-452628Y-34798D02*
D03*
X-460756D02*
D03*
X-441706Y-107188D02*
D03*
X-504698Y-38354D02*
D03*
Y-31242D02*
D03*
X-441706Y-115062D02*
D03*
X-531876Y-118872D02*
D03*
X-538734Y-118618D02*
D03*
X-545338Y-118872D02*
D03*
X-485648Y-671068D02*
D03*
X-690118Y-392938D02*
D03*
X-684022D02*
D03*
X-760222Y-382270D02*
D03*
X-750316D02*
D03*
X-740918D02*
D03*
X-731266Y-720598D02*
D03*
X-521462Y-850900D02*
D03*
X-528828D02*
D03*
X-521462Y-843280D02*
D03*
X-528828D02*
D03*
X-342392Y-336296D02*
D03*
X-220218Y-339090D02*
D03*
X-278638Y-336042D02*
D03*
X-513080Y-257048D02*
D03*
X-511810Y-291084D02*
D03*
X-515620Y-752602D02*
D03*
X-517144Y-802386D02*
D03*
X-516636Y-808736D02*
D03*
X-501650Y-674624D02*
D03*
X-777494Y-831342D02*
D03*
Y-825246D02*
D03*
X-513080Y-629920D02*
D03*
X-558800Y-602034D02*
D03*
Y-592128D02*
D03*
X-656844Y-470154D02*
D03*
X-661924Y-639572D02*
D03*
X-661670Y-632460D02*
D03*
Y-625602D02*
D03*
X-660400Y-758952D02*
D03*
X-660146Y-752602D02*
D03*
X-557022Y-739902D02*
D03*
Y-746252D02*
D03*
X-613410Y-559054D02*
D03*
X-613664Y-532130D02*
D03*
Y-541274D02*
D03*
X-613410Y-550164D02*
D03*
X-650748Y-1108710D02*
D03*
X-658114Y-1108456D02*
D03*
X-647954Y-1100836D02*
D03*
X-654304Y-1100328D02*
D03*
X-661416Y-1099820D02*
D03*
X-353060Y-234696D02*
D03*
X-195326Y-198374D02*
D03*
X-199644Y-193294D02*
D03*
X-255016Y-237998D02*
D03*
Y-231140D02*
D03*
X-311150Y-239522D02*
D03*
Y-232410D02*
D03*
X-308864Y-191770D02*
D03*
X-387350Y-411226D02*
D03*
X-395224Y-250698D02*
D03*
X-379730Y-251714D02*
D03*
X-325374Y-470408D02*
D03*
X-315214Y-470662D02*
D03*
X-24892Y-808482D02*
D03*
X-33274Y-808228D02*
D03*
X-86614Y-809498D02*
D03*
X-94234D02*
D03*
X-167132Y-350012D02*
D03*
X-172720Y-344678D02*
D03*
X-178054Y-339852D02*
D03*
X-128778Y-415290D02*
D03*
X-134874D02*
D03*
X-302514Y-777494D02*
D03*
X-159004Y-725424D02*
D03*
X-159014Y-733044D02*
D03*
X-811022Y-460756D02*
D03*
X-810768Y-453644D02*
D03*
X-116332Y-630428D02*
D03*
X-108458D02*
D03*
X-328178Y-732790D02*
D03*
X-115824Y-616458D02*
D03*
X-437388Y-95504D02*
D03*
X-497586Y-929894D02*
D03*
X-440182Y-34544D02*
D03*
X-507238Y-929132D02*
D03*
X-99060Y-523494D02*
D03*
X-44450Y-485394D02*
D03*
X-323342Y-508762D02*
D03*
X-44450Y-477774D02*
D03*
X-323596Y-516636D02*
D03*
X-247142Y-497586D02*
D03*
Y-504444D02*
D03*
X-328168Y-571754D02*
D03*
X-319786Y-571246D02*
D03*
X-335788Y-522478D02*
D03*
X-315214Y-525526D02*
D03*
X-308102Y-761238D02*
D03*
X-315214Y-760984D02*
D03*
X-308102Y-753872D02*
D03*
X-314960Y-753618D02*
D03*
X-307848Y-746760D02*
D03*
X-315214Y-746506D02*
D03*
X-312674Y-697230D02*
D03*
X-283718Y-698500D02*
D03*
X-305816Y-605536D02*
D03*
X-284734Y-502920D02*
D03*
X-270510Y-505968D02*
D03*
X-241300Y-822452D02*
D03*
X-246380Y-827786D02*
D03*
X-230632Y-900430D02*
D03*
X-222250D02*
D03*
X-267970Y-890016D02*
D03*
X-329692Y-921766D02*
D03*
X-268732Y-897382D02*
D03*
X-953008Y-199136D02*
D03*
X-945642Y-199390D02*
D03*
X-938784D02*
D03*
X-900176Y-283972D02*
D03*
X-939292Y-284734D02*
D03*
X-946150D02*
D03*
X-953516Y-284480D02*
D03*
X-371602Y-674116D02*
D03*
X-399288Y-590804D02*
D03*
X-406146Y-630428D02*
D03*
X-398526Y-671576D02*
D03*
X-663194Y-853440D02*
D03*
X-659686Y-844248D02*
D03*
X-780288Y-860552D02*
D03*
X-780796Y-852424D02*
D03*
X-780542Y-844550D02*
D03*
X-790702Y-717296D02*
D03*
X-786384Y-722884D02*
D03*
X-829310Y-501650D02*
D03*
Y-493776D02*
D03*
X-778764Y-379476D02*
D03*
Y-372110D02*
D03*
X-834644Y-1090676D02*
D03*
X-842264D02*
D03*
X-849630Y-1090422D02*
D03*
X-31242Y-885444D02*
D03*
X-200152Y-1046988D02*
D03*
X-532892Y-1052576D02*
D03*
X-521462Y-1065276D02*
D03*
X-551180Y-1100836D02*
D03*
X-408940Y-926846D02*
D03*
X-419354D02*
D03*
X-409448Y-905256D02*
D03*
X-395986Y-907796D02*
D03*
X-266954Y-471678D02*
D03*
X-270002Y-459994D02*
D03*
X-567436Y-1084072D02*
D03*
X-670052Y-1047840D02*
D03*
X-772922Y-970026D02*
D03*
X-808228Y-969264D02*
D03*
X-666496Y-726694D02*
D03*
X-797560Y-532130D02*
D03*
X-774446Y-407924D02*
D03*
X-671068Y-415290D02*
D03*
X-819150Y-467360D02*
D03*
Y-460756D02*
D03*
Y-454152D02*
D03*
X-241046Y-196850D02*
D03*
X-295656Y-197358D02*
D03*
X-332232Y-213614D02*
D03*
X-393446Y-411026D02*
D03*
X-85598Y-510286D02*
D03*
X-116586Y-518414D02*
D03*
X-46990Y-516890D02*
D03*
X-108966Y-518414D02*
D03*
X-391922Y-671630D02*
D03*
X-402590Y-828294D02*
D03*
X-402082Y-756920D02*
D03*
X-404876Y-592890D02*
D03*
X-399796Y-630174D02*
D03*
X-484886Y-700786D02*
D03*
X-485902Y-679958D02*
D03*
X-485394Y-691134D02*
D03*
X-573532Y-323088D02*
D03*
X-556514Y-581968D02*
D03*
X-556260Y-563172D02*
D03*
X-558038Y-762054D02*
D03*
X-558292Y-780850D02*
D03*
X-842010Y-525780D02*
D03*
X-848106Y-525834D02*
D03*
X-847090Y-519484D02*
D03*
X-853186Y-519992D02*
D03*
X-155956Y-695706D02*
D03*
X-287528Y-647246D02*
D03*
X-156210Y-688086D02*
D03*
X-295148Y-646992D02*
D03*
X-33274Y-505714D02*
D03*
X-325120Y-593852D02*
D03*
X-33274Y-498094D02*
D03*
X-325374Y-602234D02*
D03*
X-382016Y-651002D02*
D03*
X-414782Y-643636D02*
D03*
X-389636Y-651002D02*
D03*
X-414782Y-651256D02*
D03*
X-40132Y-635000D02*
D03*
X-302778Y-788162D02*
D03*
X-39878Y-627380D02*
D03*
X-47752Y-616204D02*
D03*
X-48006Y-608584D02*
D03*
X-341122Y-708460D02*
D03*
X-874776Y-231448D02*
D03*
X-869950Y-214938D02*
D03*
X-882598Y-270870D02*
D03*
X-860806Y-261166D02*
D03*
X-591820Y-495046D02*
D03*
X-621792Y-488442D02*
D03*
X-859028Y-963676D02*
D03*
X-842264Y-968502D02*
D03*
X-850392D02*
D03*
X-859028Y-955294D02*
D03*
X-380873Y-953135D02*
D03*
X-408432Y-942086D02*
D03*
X-853948Y-225552D02*
D03*
X-404114Y-581152D02*
D03*
X-423672Y-575056D02*
D03*
X-926084Y-219710D02*
D03*
X-886968Y-228600D02*
D03*
X-883920Y-213922D02*
D03*
X-889000Y-207826D02*
D03*
X-853948Y-233362D02*
D03*
X-873760Y-288734D02*
D03*
Y-296354D02*
D03*
X-368300Y-480060D02*
D03*
X-356870Y-475234D02*
D03*
X-411734Y-309626D02*
D03*
X-410718Y-259080D02*
D03*
X-411480Y-284734D02*
D03*
X-403860Y-510921D02*
D03*
X-324358Y-959358D02*
D03*
X-324612Y-967486D02*
D03*
X-120396Y-801624D02*
D03*
X-112776Y-801878D02*
D03*
X-423672Y-567182D02*
D03*
X-404114Y-573278D02*
D03*
X-247396Y-657352D02*
D03*
X-258572Y-631444D02*
D03*
X-247396Y-649732D02*
D03*
X-266192Y-631190D02*
D03*
X-443738Y-533146D02*
D03*
X-415798Y-501904D02*
D03*
X-512826Y-552450D02*
D03*
X-511302Y-506984D02*
D03*
X-512826Y-542544D02*
D03*
X-463296Y-540258D02*
D03*
X-473202Y-545338D02*
D03*
X-403606Y-683260D02*
D03*
X-413512Y-684276D02*
D03*
X-423672Y-683260D02*
D03*
X-392684D02*
D03*
X-433578Y-682244D02*
D03*
X-442214Y-682498D02*
D03*
X-426466Y-516382D02*
D03*
X-456184Y-489966D02*
D03*
X-571246Y-860552D02*
D03*
X-566674Y-870458D02*
D03*
X-458216Y-801878D02*
D03*
X-653542Y-872490D02*
D03*
X-621030Y-479298D02*
D03*
X-617728Y-497332D02*
D03*
X-625094Y-504952D02*
D03*
X-631444Y-513334D02*
D03*
X-633730Y-522986D02*
D03*
X-663194Y-677672D02*
D03*
X-665734Y-659130D02*
D03*
X-665480Y-667766D02*
D03*
X-332613Y-258181D02*
D03*
X-278130Y-258689D02*
D03*
X-221107Y-258181D02*
D03*
X-220726Y-307848D02*
D03*
X-332486Y-308102D02*
D03*
X-794258Y-480060D02*
D03*
X-796036Y-494792D02*
D03*
X-794512Y-507746D02*
D03*
X-794258Y-520192D02*
D03*
X-796036Y-545846D02*
D03*
Y-560070D02*
D03*
X-796544Y-570738D02*
D03*
X-796290Y-583438D02*
D03*
X-796544Y-621538D02*
D03*
X-796290Y-608838D02*
D03*
X-411988Y-1091184D02*
D03*
X-431292Y-1081278D02*
D03*
X-420878Y-1131316D02*
D03*
X-427942Y-1122124D02*
D03*
X-419100Y-848360D02*
D03*
X-426720D02*
D03*
X-458216Y-794004D02*
D03*
X-452120Y-540512D02*
D03*
X-280670Y-876046D02*
D03*
X-305562Y-910590D02*
D03*
X-296672Y-919480D02*
D03*
X-477520Y-902208D02*
D03*
X-474726Y-892810D02*
D03*
X-483616Y-878332D02*
D03*
X-314452Y-898398D02*
D03*
X-557784Y-845820D02*
D03*
X-559308Y-919480D02*
D03*
X-565912Y-910844D02*
D03*
X-568198Y-927608D02*
D03*
X-541782Y-845312D02*
D03*
X-542036Y-915162D02*
D03*
X-607822Y-722884D02*
D03*
X-589534Y-746506D02*
D03*
X-470408Y-504698D02*
D03*
X-195326Y-947928D02*
D03*
X-223266Y-947674D02*
D03*
X-210820Y-949706D02*
D03*
X-571246Y-675640D02*
D03*
X-279146Y-888492D02*
D03*
X-596646Y-739648D02*
D03*
X-600964Y-731266D02*
D03*
X-613918Y-715010D02*
D03*
X-618490Y-702564D02*
D03*
X-623824Y-694182D02*
D03*
X-628650Y-686816D02*
D03*
X-616204Y-676656D02*
D03*
X-591312Y-684530D02*
D03*
X-613664Y-1036066D02*
D03*
X-613156Y-1025906D02*
D03*
X-612648Y-1016000D02*
D03*
X-611696Y-1004507D02*
D03*
X-343662Y-1050036D02*
D03*
X-466598Y-1108456D02*
D03*
X-476250D02*
D03*
X-485902D02*
D03*
X-495554D02*
D03*
X-505206D02*
D03*
X-566928Y-1002284D02*
D03*
X-606298Y-1072134D02*
D03*
X-606806Y-1061212D02*
D03*
X-868426Y-577850D02*
D03*
X-927608Y-591058D02*
D03*
X-868426Y-585470D02*
D03*
X-881888Y-589026D02*
D03*
X-927608Y-597154D02*
D03*
X-162306Y-1084834D02*
D03*
X-105410Y-1090422D02*
D03*
X-84582Y-1090168D02*
D03*
X-95250Y-1099312D02*
D03*
X-138176Y-1071626D02*
D03*
X-478790Y-928116D02*
D03*
X-470408Y-935482D02*
D03*
X-389382Y-1009904D02*
D03*
X-386080Y-1000760D02*
D03*
X-759206Y-950976D02*
D03*
Y-943864D02*
D03*
X-758698Y-937514D02*
D03*
X-796544Y-954786D02*
D03*
Y-947166D02*
D03*
Y-940054D02*
D03*
X-832358Y-953008D02*
D03*
Y-946404D02*
D03*
Y-939292D02*
D03*
X-879856Y-747014D02*
D03*
X-883666Y-411226D02*
D03*
X-930656Y-394716D02*
D03*
X-928624Y-411988D02*
D03*
X-928878Y-418338D02*
D03*
Y-424434D02*
D03*
X-906526Y-364490D02*
D03*
X-913638D02*
D03*
X-920496D02*
D03*
X-899414D02*
D03*
X-905256Y-543560D02*
D03*
X-912368D02*
D03*
X-919480D02*
D03*
X-897890Y-543814D02*
D03*
X-930148Y-573786D02*
D03*
X-927608Y-602996D02*
D03*
X-905764Y-699262D02*
D03*
X-919226D02*
D03*
X-912876D02*
D03*
X-898652D02*
D03*
X-929894Y-730758D02*
D03*
X-923290Y-752094D02*
D03*
X-923544Y-746252D02*
D03*
X-923290Y-757428D02*
D03*
X-919480Y-876300D02*
D03*
X-911606D02*
D03*
X-897128Y-876046D02*
D03*
X-904240D02*
D03*
X-929894Y-908304D02*
D03*
X-922528Y-940308D02*
D03*
Y-933450D02*
D03*
Y-926338D02*
D03*
X-880110Y-924052D02*
D03*
X-869442Y-407162D02*
D03*
Y-399542D02*
D03*
X-867918Y-740664D02*
D03*
X-868172Y-918718D02*
D03*
Y-911352D02*
D03*
X-771398Y-596900D02*
D03*
X-771906Y-659384D02*
D03*
X-867918Y-733552D02*
D03*
X-278384Y-307848D02*
D03*
X-750406Y-1109796D02*
D03*
D145*
X-905500Y-712646D02*
D03*
X-894500D02*
D03*
X-905500Y-723646D02*
D03*
X-894500D02*
D03*
X-905500Y-734646D02*
D03*
X-894500D02*
D03*
X-895262Y-399810D02*
D03*
X-906262D02*
D03*
X-895262Y-388810D02*
D03*
X-906262D02*
D03*
X-895262Y-377810D02*
D03*
X-906262D02*
D03*
X-894500Y-912256D02*
D03*
X-905500D02*
D03*
X-894500Y-901256D02*
D03*
X-905500D02*
D03*
X-894500Y-890256D02*
D03*
X-905500D02*
D03*
X-894500Y-578436D02*
D03*
X-905500D02*
D03*
X-894500Y-567436D02*
D03*
X-905500D02*
D03*
X-894500Y-556436D02*
D03*
X-905500D02*
D03*
D146*
X-119558Y-93500D02*
D03*
X-119658Y-1024000D02*
D03*
X-852558D02*
D03*
X-852458Y-93500D02*
D03*
D147*
X-750406Y-149796D02*
D03*
X-180406D02*
D03*
Y-1109796D02*
D03*
M02*
