G04*
G04 #@! TF.GenerationSoftware,Altium Limited,Altium Designer,20.0.2 (26)*
G04*
G04 Layer_Color=128*
%FSLAX44Y44*%
%MOMM*%
G71*
G01*
G75*
%ADD149C,0.0508*%
D149*
X-393390Y-817184D02*
X-391390D01*
X-392390Y-818184D02*
Y-816184D01*
X-381790Y-817184D02*
X-379790D01*
X-380790Y-818184D02*
Y-816184D01*
X-381790Y-805584D02*
X-379790D01*
X-380790Y-806584D02*
Y-804584D01*
X-393390Y-805584D02*
X-391390D01*
X-392390Y-806584D02*
Y-804584D01*
X-387590Y-811384D02*
X-385590D01*
X-386590Y-812384D02*
Y-810384D01*
X-768906Y-149796D02*
X-731906D01*
X-750406Y-168296D02*
Y-131296D01*
X-198906Y-149796D02*
X-161906D01*
X-180406Y-168296D02*
Y-131296D01*
X-768906Y-1109796D02*
X-731906D01*
X-750406Y-1128296D02*
Y-1091296D01*
X-198906Y-1109796D02*
X-161906D01*
X-180406Y-1128296D02*
Y-1091296D01*
X-346556Y-356000D02*
X-339444D01*
X-343000Y-359556D02*
Y-352444D01*
X-371956Y-356000D02*
X-364844D01*
X-368400Y-359556D02*
Y-352444D01*
X-397356Y-356000D02*
X-390244D01*
X-393800Y-359556D02*
Y-352444D01*
X-422756Y-356000D02*
X-415644D01*
X-419200Y-359556D02*
Y-352444D01*
X-448156Y-356000D02*
X-441044D01*
X-444600Y-359556D02*
Y-352444D01*
X-473556Y-356000D02*
X-466444D01*
X-470000Y-359556D02*
Y-352444D01*
X-498956Y-356000D02*
X-491844D01*
X-495400Y-359556D02*
Y-352444D01*
X-524356Y-356000D02*
X-517244D01*
X-520800Y-359556D02*
Y-352444D01*
X-549756Y-356000D02*
X-542644D01*
X-546200Y-359556D02*
Y-352444D01*
X-575156Y-356000D02*
X-568044D01*
X-571600Y-359556D02*
Y-352444D01*
X-600556Y-356000D02*
X-593444D01*
X-597000Y-359556D02*
Y-352444D01*
X-600556Y-457600D02*
X-593444D01*
X-597000Y-461156D02*
Y-454044D01*
X-575156Y-457600D02*
X-568044D01*
X-571600Y-461156D02*
Y-454044D01*
X-549756Y-457600D02*
X-542644D01*
X-546200Y-461156D02*
Y-454044D01*
X-524356Y-457600D02*
X-517244D01*
X-520800Y-461156D02*
Y-454044D01*
X-498956Y-457600D02*
X-491844D01*
X-495400Y-461156D02*
Y-454044D01*
X-473556Y-457600D02*
X-466444D01*
X-470000Y-461156D02*
Y-454044D01*
X-448156Y-457600D02*
X-441044D01*
X-444600Y-461156D02*
Y-454044D01*
X-422756Y-457600D02*
X-415644D01*
X-419200Y-461156D02*
Y-454044D01*
X-397356Y-457600D02*
X-390244D01*
X-393800Y-461156D02*
Y-454044D01*
X-371956Y-457600D02*
X-364844D01*
X-368400Y-461156D02*
Y-454044D01*
X-346556Y-457600D02*
X-339444D01*
X-343000Y-461156D02*
Y-454044D01*
X-384622Y-534070D02*
X-382622D01*
X-383622Y-535070D02*
Y-533070D01*
X-390422Y-528270D02*
X-388422D01*
X-389422Y-529270D02*
Y-527270D01*
X-378822Y-528270D02*
X-376822D01*
X-377822Y-529270D02*
Y-527270D01*
X-378822Y-539870D02*
X-376822D01*
X-377822Y-540870D02*
Y-538870D01*
X-390422Y-539870D02*
X-388422D01*
X-389422Y-540870D02*
Y-538870D01*
X-386444Y-612260D02*
X-384444D01*
X-385444Y-613260D02*
Y-611260D01*
X-392244Y-606460D02*
X-390244D01*
X-391244Y-607460D02*
Y-605460D01*
X-380644Y-606460D02*
X-378644D01*
X-379644Y-607460D02*
Y-605460D01*
X-380644Y-618060D02*
X-378644D01*
X-379644Y-619060D02*
Y-617060D01*
X-392244Y-618060D02*
X-390244D01*
X-391244Y-619060D02*
Y-617060D01*
X-387590Y-727524D02*
X-385590D01*
X-386590Y-728524D02*
Y-726524D01*
X-393390Y-721724D02*
X-391390D01*
X-392390Y-722724D02*
Y-720724D01*
X-381790Y-721724D02*
X-379790D01*
X-380790Y-722724D02*
Y-720724D01*
X-381790Y-733324D02*
X-379790D01*
X-380790Y-734324D02*
Y-732324D01*
X-393390Y-733324D02*
X-391390D01*
X-392390Y-734324D02*
Y-732324D01*
X-720574Y-214376D02*
X-717574D01*
X-719074Y-215876D02*
Y-212876D01*
X-713716Y-207264D02*
X-710716D01*
X-712216Y-208764D02*
Y-205764D01*
X-706858Y-200152D02*
X-703858D01*
X-705358Y-201652D02*
Y-198652D01*
X-145010Y-208280D02*
X-142010D01*
X-143510Y-209780D02*
Y-206780D01*
X-145010Y-198120D02*
X-142010D01*
X-143510Y-199620D02*
Y-196620D01*
X-144756Y-188468D02*
X-141756D01*
X-143256Y-189968D02*
Y-186968D01*
X-166600Y-202692D02*
X-163600D01*
X-165100Y-204192D02*
Y-201192D01*
X-166346Y-193294D02*
X-163346D01*
X-164846Y-194794D02*
Y-191794D01*
X-166346Y-184150D02*
X-163346D01*
X-164846Y-185650D02*
Y-182650D01*
X-148312Y-723646D02*
X-145312D01*
X-146812Y-725146D02*
Y-722146D01*
X-148058Y-676910D02*
X-145058D01*
X-146558Y-678410D02*
Y-675410D01*
X-270994Y-1113536D02*
X-267994D01*
X-269494Y-1115036D02*
Y-1112036D01*
X-251182Y-1113790D02*
X-248182D01*
X-249682Y-1115290D02*
Y-1112290D01*
X-260834Y-1113536D02*
X-257834D01*
X-259334Y-1115036D02*
Y-1112036D01*
X-537440Y-816102D02*
X-534440D01*
X-535940Y-817602D02*
Y-814602D01*
X-15978Y-350520D02*
X-12978D01*
X-14478Y-352020D02*
Y-349020D01*
X-15724Y-292862D02*
X-12724D01*
X-14224Y-294362D02*
Y-291362D01*
X-15470Y-235204D02*
X-12470D01*
X-13970Y-236704D02*
Y-233704D01*
X-15216Y-177546D02*
X-12216D01*
X-13716Y-179046D02*
Y-176046D01*
X-14962Y-119888D02*
X-11962D01*
X-13462Y-121388D02*
Y-118388D01*
X-14708Y-62230D02*
X-11708D01*
X-13208Y-63730D02*
Y-60730D01*
X-61952Y-15494D02*
X-58952D01*
X-60452Y-16994D02*
Y-13994D01*
X-120372Y-15494D02*
X-117372D01*
X-118872Y-16994D02*
Y-13994D01*
X-202922Y-16002D02*
X-199922D01*
X-201422Y-17502D02*
Y-14502D01*
X-260580Y-15748D02*
X-257580D01*
X-259080Y-17248D02*
Y-14248D01*
X-360656Y-16002D02*
X-357656D01*
X-359156Y-17502D02*
Y-14502D01*
X-418314Y-15748D02*
X-415314D01*
X-416814Y-17248D02*
Y-14248D01*
X-475972Y-15494D02*
X-472972D01*
X-474472Y-16994D02*
Y-13994D01*
X-563856Y-15494D02*
X-560856D01*
X-562356Y-16994D02*
Y-13994D01*
X-621514Y-15240D02*
X-618514D01*
X-620014Y-16740D02*
Y-13740D01*
X-742418Y-16002D02*
X-739418D01*
X-740918Y-17502D02*
Y-14502D01*
X-800076Y-15748D02*
X-797076D01*
X-798576Y-17248D02*
Y-14248D01*
X-857734Y-15494D02*
X-854734D01*
X-856234Y-16994D02*
Y-13994D01*
X-915392Y-15240D02*
X-912392D01*
X-913892Y-16740D02*
Y-13740D01*
X-958572Y-58420D02*
X-955572D01*
X-957072Y-59920D02*
Y-56920D01*
X-958826Y-116078D02*
X-955826D01*
X-957326Y-117578D02*
Y-114578D01*
X-958572Y-161290D02*
X-955572D01*
X-957072Y-162790D02*
Y-159790D01*
X-909550Y-162560D02*
X-906550D01*
X-908050Y-164060D02*
Y-161060D01*
X-888722Y-162306D02*
X-885722D01*
X-887222Y-163806D02*
Y-160806D01*
X-660122Y-913892D02*
X-657122D01*
X-658622Y-915392D02*
Y-912392D01*
X-660376Y-905764D02*
X-657376D01*
X-658876Y-907264D02*
Y-904264D01*
X-735052Y-599694D02*
X-732052D01*
X-733552Y-601194D02*
Y-598194D01*
X-734798Y-537464D02*
X-731798D01*
X-733298Y-538964D02*
Y-535964D01*
X-906516Y-712646D02*
X-904484D01*
X-905500Y-713662D02*
Y-711630D01*
X-895516Y-712646D02*
X-893484D01*
X-894500Y-713662D02*
Y-711630D01*
X-906516Y-723646D02*
X-904484D01*
X-905500Y-724662D02*
Y-722630D01*
X-895516Y-723646D02*
X-893484D01*
X-894500Y-724662D02*
Y-722630D01*
X-906516Y-734646D02*
X-904484D01*
X-905500Y-735662D02*
Y-733630D01*
X-895516Y-734646D02*
X-893484D01*
X-894500Y-735662D02*
Y-733630D01*
X-840716Y-1097788D02*
X-837716D01*
X-839216Y-1099288D02*
Y-1096288D01*
X-848844Y-1097280D02*
X-845844D01*
X-847344Y-1098780D02*
Y-1095780D01*
X-78462Y-991108D02*
X-75462D01*
X-76962Y-992608D02*
Y-989608D01*
X-74398Y-985012D02*
X-71398D01*
X-72898Y-986512D02*
Y-983512D01*
X-83034Y-985012D02*
X-80034D01*
X-81534Y-986512D02*
Y-983512D01*
X-874244Y-981456D02*
X-871244D01*
X-872744Y-982956D02*
Y-979956D01*
X-881610Y-988568D02*
X-878610D01*
X-880110Y-990068D02*
Y-987068D01*
X-44172Y-1022858D02*
X-41172D01*
X-42672Y-1024358D02*
Y-1021358D01*
X-60686Y-1037844D02*
X-57686D01*
X-59186Y-1039344D02*
Y-1036344D01*
X-106656Y-976630D02*
X-103656D01*
X-105156Y-978130D02*
Y-975130D01*
X-106402Y-968502D02*
X-103402D01*
X-104902Y-970002D02*
Y-967002D01*
X-106148Y-960628D02*
X-103148D01*
X-104648Y-962128D02*
Y-959128D01*
X-92686Y-904748D02*
X-89686D01*
X-91186Y-906248D02*
Y-903248D01*
X-80240Y-904748D02*
X-77240D01*
X-78740Y-906248D02*
Y-903248D01*
X-928915Y-251206D02*
X-925915D01*
X-927415Y-252706D02*
Y-249706D01*
X-928854Y-259080D02*
X-925854D01*
X-927354Y-260580D02*
Y-257580D01*
X-948158Y-242062D02*
X-945158D01*
X-946658Y-243562D02*
Y-240562D01*
X-948158Y-249872D02*
X-945158D01*
X-946658Y-251372D02*
Y-248372D01*
X-323572Y-816102D02*
X-320572D01*
X-322072Y-817602D02*
Y-814602D01*
X-339066Y-815086D02*
X-336066D01*
X-337566Y-816586D02*
Y-813586D01*
X-339066Y-807212D02*
X-336066D01*
X-337566Y-808712D02*
Y-805712D01*
X-315698Y-816356D02*
X-312698D01*
X-314198Y-817856D02*
Y-814856D01*
X-140184Y-731520D02*
X-137184D01*
X-138684Y-733020D02*
Y-730020D01*
X-303252Y-726440D02*
X-300252D01*
X-301752Y-727940D02*
Y-724940D01*
X-132564Y-731520D02*
X-129564D01*
X-131064Y-733020D02*
Y-730020D01*
X-303262Y-718566D02*
X-300262D01*
X-301762Y-720066D02*
Y-717066D01*
X-258294Y-738886D02*
X-255294D01*
X-256794Y-740386D02*
Y-737386D01*
X-292330Y-741680D02*
X-289330D01*
X-290830Y-743180D02*
Y-740180D01*
X-258294Y-746506D02*
X-255294D01*
X-256794Y-748006D02*
Y-745006D01*
X-284456Y-741680D02*
X-281456D01*
X-282956Y-743180D02*
Y-740180D01*
X-156440Y-669090D02*
X-153440D01*
X-154940Y-670590D02*
Y-667590D01*
X-275058Y-612648D02*
X-272058D01*
X-273558Y-614148D02*
Y-611148D01*
X-282932Y-612902D02*
X-279932D01*
X-281432Y-614402D02*
Y-611402D01*
X-156440Y-661416D02*
X-153440D01*
X-154940Y-662916D02*
Y-659916D01*
X-283694Y-687832D02*
X-280694D01*
X-282194Y-689332D02*
Y-686332D01*
X-310872Y-663194D02*
X-307872D01*
X-309372Y-664694D02*
Y-661694D01*
X-283440Y-680212D02*
X-280440D01*
X-281940Y-681712D02*
Y-678712D01*
X-318746Y-662940D02*
X-315746D01*
X-317246Y-664440D02*
Y-661440D01*
X-319000Y-553212D02*
X-316000D01*
X-317500Y-554712D02*
Y-551712D01*
X-96750Y-493014D02*
X-93750D01*
X-95250Y-494514D02*
Y-491514D01*
X-326620Y-553466D02*
X-323620D01*
X-325120Y-554966D02*
Y-551966D01*
X-96750Y-500634D02*
X-93750D01*
X-95250Y-502134D02*
Y-499134D01*
X-97512Y-479806D02*
X-94512D01*
X-96012Y-481306D02*
Y-478306D01*
X-336526Y-629666D02*
X-333526D01*
X-335026Y-631166D02*
Y-628166D01*
X-97766Y-471678D02*
X-94766D01*
X-96266Y-473178D02*
Y-470178D01*
X-328906Y-629666D02*
X-325906D01*
X-327406Y-631166D02*
Y-628166D01*
X-268962Y-791518D02*
X-265962D01*
X-267462Y-793018D02*
Y-790018D01*
X-108942Y-604774D02*
X-105942D01*
X-107442Y-606274D02*
Y-603274D01*
X-263628Y-797106D02*
X-260628D01*
X-262128Y-798606D02*
Y-795606D01*
X-101068Y-604774D02*
X-98068D01*
X-99568Y-606274D02*
Y-603274D01*
X-304268Y-796036D02*
X-301268D01*
X-302768Y-797536D02*
Y-794536D01*
X-304268Y-769620D02*
X-301268D01*
X-302768Y-771120D02*
Y-768120D01*
X-321794Y-732790D02*
X-318794D01*
X-320294Y-734290D02*
Y-731290D01*
X-342622Y-700532D02*
X-339622D01*
X-341122Y-702032D02*
Y-699032D01*
X-426442Y-613664D02*
X-423442D01*
X-424942Y-615164D02*
Y-612164D01*
X-449048Y-620776D02*
X-446048D01*
X-447548Y-622276D02*
Y-619276D01*
X-426442Y-621284D02*
X-423442D01*
X-424942Y-622784D02*
Y-619784D01*
X-449048Y-613156D02*
X-446048D01*
X-447548Y-614656D02*
Y-611656D01*
X-443968Y-578866D02*
X-440968D01*
X-442468Y-580366D02*
Y-577366D01*
X-421870Y-548386D02*
X-418870D01*
X-420370Y-549886D02*
Y-546886D01*
X-421870Y-556260D02*
X-418870D01*
X-420370Y-557760D02*
Y-554760D01*
X-443968Y-586740D02*
X-440968D01*
X-442468Y-588240D02*
Y-585240D01*
X-435586Y-782574D02*
X-432586D01*
X-434086Y-784074D02*
Y-781074D01*
X-468606Y-763016D02*
X-465606D01*
X-467106Y-764516D02*
Y-761516D01*
X-427966Y-782574D02*
X-424966D01*
X-426466Y-784074D02*
Y-781074D01*
X-468606Y-770636D02*
X-465606D01*
X-467106Y-772136D02*
Y-769136D01*
X-424918Y-728726D02*
X-421918D01*
X-423418Y-730226D02*
Y-727226D01*
X-439904Y-771652D02*
X-436904D01*
X-438404Y-773152D02*
Y-770152D01*
X-424918Y-736346D02*
X-421918D01*
X-423418Y-737846D02*
Y-734846D01*
X-439650Y-763778D02*
X-436650D01*
X-438150Y-765278D02*
Y-762278D01*
X-421362Y-806450D02*
X-418362D01*
X-419862Y-807950D02*
Y-804950D01*
X-437872Y-821182D02*
X-434872D01*
X-436372Y-822682D02*
Y-819682D01*
X-428982Y-806704D02*
X-425982D01*
X-427482Y-808204D02*
Y-805204D01*
X-437872Y-813308D02*
X-434872D01*
X-436372Y-814808D02*
Y-811808D01*
X-173966Y-899668D02*
X-170966D01*
X-172466Y-901168D02*
Y-898168D01*
X-160758Y-877570D02*
X-157758D01*
X-159258Y-879070D02*
Y-876070D01*
X-198096Y-1008126D02*
X-195096D01*
X-196596Y-1009626D02*
Y-1006626D01*
X-182348Y-999744D02*
X-179348D01*
X-180848Y-1001244D02*
Y-998244D01*
X-163044Y-650748D02*
X-160044D01*
X-161544Y-652248D02*
Y-649248D01*
X-530582Y-720090D02*
X-527582D01*
X-529082Y-721590D02*
Y-718590D01*
X-512294Y-717042D02*
X-509294D01*
X-510794Y-718542D02*
Y-715542D01*
X-35790Y-1109726D02*
X-32790D01*
X-34290Y-1111226D02*
Y-1108226D01*
X-18772Y-1093104D02*
X-15772D01*
X-17272Y-1094604D02*
Y-1091604D01*
X-85320Y-635000D02*
X-82320D01*
X-83820Y-636500D02*
Y-633500D01*
X-813284Y-491490D02*
X-810284D01*
X-811784Y-492990D02*
Y-489990D01*
X-813284Y-485394D02*
X-810284D01*
X-811784Y-486894D02*
Y-483894D01*
X-813284Y-479298D02*
X-810284D01*
X-811784Y-480798D02*
Y-477798D01*
X-817602Y-809752D02*
X-814602D01*
X-816102Y-811252D02*
Y-808252D01*
X-817348Y-817626D02*
X-814348D01*
X-815848Y-819126D02*
Y-816126D01*
X-349226Y-856488D02*
X-346226D01*
X-347726Y-857988D02*
Y-854988D01*
X-370054Y-663194D02*
X-367054D01*
X-368554Y-664694D02*
Y-661694D01*
X-365482Y-567690D02*
X-362482D01*
X-363982Y-569190D02*
Y-566190D01*
X-123674Y-1107186D02*
X-120674D01*
X-122174Y-1108686D02*
Y-1105686D01*
X-130532Y-1107186D02*
X-127532D01*
X-129032Y-1108686D02*
Y-1105686D01*
X-670028Y-814070D02*
X-667028D01*
X-668528Y-815570D02*
Y-812570D01*
X-37568Y-837184D02*
X-34568D01*
X-36068Y-838684D02*
Y-835684D01*
X-211050Y-1132586D02*
X-208050D01*
X-209550Y-1134086D02*
Y-1131086D01*
X-52808Y-442214D02*
X-49808D01*
X-51308Y-443714D02*
Y-440714D01*
X-43156Y-442468D02*
X-40156D01*
X-41656Y-443968D02*
Y-440968D01*
X-31472Y-442722D02*
X-28472D01*
X-29972Y-444222D02*
Y-441222D01*
X-35028Y-686308D02*
X-32028D01*
X-33528Y-687808D02*
Y-684808D01*
X-43664Y-686308D02*
X-40664D01*
X-42164Y-687808D02*
Y-684808D01*
X-599162Y-921004D02*
X-596162D01*
X-597662Y-922504D02*
Y-919504D01*
X-626594Y-920750D02*
X-623594D01*
X-625094Y-922250D02*
Y-919250D01*
X-194286Y-48260D02*
X-191286D01*
X-192786Y-49760D02*
Y-46760D01*
X-514580Y-249174D02*
X-511580D01*
X-513080Y-250674D02*
Y-247674D01*
X-563602Y-271780D02*
X-560602D01*
X-562102Y-273280D02*
Y-270280D01*
X-774422Y-726694D02*
X-771422D01*
X-772922Y-728194D02*
Y-725194D01*
X-518390Y-763270D02*
X-515390D01*
X-516890Y-764770D02*
Y-761770D01*
X-431268Y-748538D02*
X-428268D01*
X-429768Y-750038D02*
Y-747038D01*
X-427966Y-904494D02*
X-424966D01*
X-426466Y-905994D02*
Y-902994D01*
X-467336Y-887730D02*
X-464336D01*
X-465836Y-889230D02*
Y-886230D01*
X-508738Y-969518D02*
X-505738D01*
X-507238Y-971018D02*
Y-968018D01*
X-444222Y-1030224D02*
X-441222D01*
X-442722Y-1031724D02*
Y-1028724D01*
X-440666Y-974598D02*
X-437666D01*
X-439166Y-976098D02*
Y-973098D01*
X-508980Y-1029728D02*
X-505980D01*
X-507480Y-1031228D02*
Y-1028228D01*
X-331192Y-992378D02*
X-328192D01*
X-329692Y-993878D02*
Y-990878D01*
X-378944Y-934466D02*
X-375944D01*
X-377444Y-935966D02*
Y-932966D01*
X-379198Y-928116D02*
X-376198D01*
X-377698Y-929616D02*
Y-926616D01*
X-523724Y-945896D02*
X-520724D01*
X-522224Y-947396D02*
Y-944396D01*
X-521692Y-919734D02*
X-518692D01*
X-520192Y-921234D02*
Y-918234D01*
X-524232Y-913130D02*
X-521232D01*
X-522732Y-914630D02*
Y-911630D01*
X-530836Y-913130D02*
X-527836D01*
X-529336Y-914630D02*
Y-911630D01*
X-263882Y-758698D02*
X-260882D01*
X-262382Y-760198D02*
Y-757198D01*
X-254230Y-691388D02*
X-251230D01*
X-252730Y-692888D02*
Y-689888D01*
X-244070Y-571754D02*
X-241070D01*
X-242570Y-573254D02*
Y-570254D01*
X-542012Y-504444D02*
X-539012D01*
X-540512Y-505944D02*
Y-502944D01*
X-245848Y-444500D02*
X-242848D01*
X-244348Y-446000D02*
Y-443000D01*
X-245594Y-394716D02*
X-242594D01*
X-244094Y-396216D02*
Y-393216D01*
X-245594Y-407416D02*
X-242594D01*
X-244094Y-408916D02*
Y-405916D01*
X-410440Y-244602D02*
X-407440D01*
X-408940Y-246102D02*
Y-243102D01*
X-512802Y-228854D02*
X-509802D01*
X-511302Y-230354D02*
Y-227354D01*
X-688824Y-18796D02*
X-685824D01*
X-687324Y-20296D02*
Y-17296D01*
X-680442Y-18796D02*
X-677442D01*
X-678942Y-20296D02*
Y-17296D01*
X-776708Y-67818D02*
X-773708D01*
X-775208Y-69318D02*
Y-66318D01*
X-693904Y-110236D02*
X-690904D01*
X-692404Y-111736D02*
Y-108736D01*
X-528550Y-96520D02*
X-525550D01*
X-527050Y-98020D02*
Y-95020D01*
X-194286Y-40132D02*
X-191286D01*
X-192786Y-41632D02*
Y-38632D01*
X-225782Y-103124D02*
X-222782D01*
X-224282Y-104624D02*
Y-101624D01*
X-233656Y-103378D02*
X-230656D01*
X-232156Y-104878D02*
Y-101878D01*
X-454128Y-34798D02*
X-451128D01*
X-452628Y-36298D02*
Y-33298D01*
X-462256Y-34798D02*
X-459256D01*
X-460756Y-36298D02*
Y-33298D01*
X-443206Y-107188D02*
X-440206D01*
X-441706Y-108688D02*
Y-105688D01*
X-506198Y-38354D02*
X-503198D01*
X-504698Y-39854D02*
Y-36854D01*
X-506198Y-31242D02*
X-503198D01*
X-504698Y-32742D02*
Y-29742D01*
X-443206Y-115062D02*
X-440206D01*
X-441706Y-116562D02*
Y-113562D01*
X-533376Y-118872D02*
X-530376D01*
X-531876Y-120372D02*
Y-117372D01*
X-540234Y-118618D02*
X-537234D01*
X-538734Y-120118D02*
Y-117118D01*
X-546838Y-118872D02*
X-543838D01*
X-545338Y-120372D02*
Y-117372D01*
X-487148Y-671068D02*
X-484148D01*
X-485648Y-672568D02*
Y-669568D01*
X-691618Y-392938D02*
X-688618D01*
X-690118Y-394438D02*
Y-391438D01*
X-685522Y-392938D02*
X-682522D01*
X-684022Y-394438D02*
Y-391438D01*
X-761722Y-382270D02*
X-758722D01*
X-760222Y-383770D02*
Y-380770D01*
X-751816Y-382270D02*
X-748816D01*
X-750316Y-383770D02*
Y-380770D01*
X-742418Y-382270D02*
X-739418D01*
X-740918Y-383770D02*
Y-380770D01*
X-732766Y-720598D02*
X-729766D01*
X-731266Y-722098D02*
Y-719098D01*
X-522962Y-850900D02*
X-519962D01*
X-521462Y-852400D02*
Y-849400D01*
X-530328Y-850900D02*
X-527328D01*
X-528828Y-852400D02*
Y-849400D01*
X-522962Y-843280D02*
X-519962D01*
X-521462Y-844780D02*
Y-841780D01*
X-530328Y-843280D02*
X-527328D01*
X-528828Y-844780D02*
Y-841780D01*
X-343892Y-336296D02*
X-340892D01*
X-342392Y-337796D02*
Y-334796D01*
X-221718Y-339090D02*
X-218718D01*
X-220218Y-340590D02*
Y-337590D01*
X-280138Y-336042D02*
X-277138D01*
X-278638Y-337542D02*
Y-334542D01*
X-514580Y-257048D02*
X-511580D01*
X-513080Y-258548D02*
Y-255548D01*
X-513310Y-291084D02*
X-510310D01*
X-511810Y-292584D02*
Y-289584D01*
X-517120Y-752602D02*
X-514120D01*
X-515620Y-754102D02*
Y-751102D01*
X-518644Y-802386D02*
X-515644D01*
X-517144Y-803886D02*
Y-800886D01*
X-518136Y-808736D02*
X-515136D01*
X-516636Y-810236D02*
Y-807236D01*
X-503150Y-674624D02*
X-500150D01*
X-501650Y-676124D02*
Y-673124D01*
X-778994Y-831342D02*
X-775994D01*
X-777494Y-832842D02*
Y-829842D01*
X-778994Y-825246D02*
X-775994D01*
X-777494Y-826746D02*
Y-823746D01*
X-514580Y-629920D02*
X-511580D01*
X-513080Y-631420D02*
Y-628420D01*
X-560300Y-602034D02*
X-557300D01*
X-558800Y-603534D02*
Y-600534D01*
X-560300Y-592128D02*
X-557300D01*
X-558800Y-593628D02*
Y-590628D01*
X-658344Y-470154D02*
X-655344D01*
X-656844Y-471654D02*
Y-468654D01*
X-663424Y-639572D02*
X-660424D01*
X-661924Y-641072D02*
Y-638072D01*
X-663170Y-632460D02*
X-660170D01*
X-661670Y-633960D02*
Y-630960D01*
X-663170Y-625602D02*
X-660170D01*
X-661670Y-627102D02*
Y-624102D01*
X-661900Y-758952D02*
X-658900D01*
X-660400Y-760452D02*
Y-757452D01*
X-661646Y-752602D02*
X-658646D01*
X-660146Y-754102D02*
Y-751102D01*
X-558522Y-739902D02*
X-555522D01*
X-557022Y-741402D02*
Y-738402D01*
X-558522Y-746252D02*
X-555522D01*
X-557022Y-747752D02*
Y-744752D01*
X-614910Y-559054D02*
X-611910D01*
X-613410Y-560554D02*
Y-557554D01*
X-615164Y-532130D02*
X-612164D01*
X-613664Y-533630D02*
Y-530630D01*
X-615164Y-541274D02*
X-612164D01*
X-613664Y-542774D02*
Y-539774D01*
X-614910Y-550164D02*
X-611910D01*
X-613410Y-551664D02*
Y-548664D01*
X-652248Y-1108710D02*
X-649248D01*
X-650748Y-1110210D02*
Y-1107210D01*
X-659614Y-1108456D02*
X-656614D01*
X-658114Y-1109956D02*
Y-1106956D01*
X-649454Y-1100836D02*
X-646454D01*
X-647954Y-1102336D02*
Y-1099336D01*
X-655804Y-1100328D02*
X-652804D01*
X-654304Y-1101828D02*
Y-1098828D01*
X-662916Y-1099820D02*
X-659916D01*
X-661416Y-1101320D02*
Y-1098320D01*
X-354560Y-234696D02*
X-351560D01*
X-353060Y-236196D02*
Y-233196D01*
X-196826Y-198374D02*
X-193826D01*
X-195326Y-199874D02*
Y-196874D01*
X-201144Y-193294D02*
X-198144D01*
X-199644Y-194794D02*
Y-191794D01*
X-256516Y-237998D02*
X-253516D01*
X-255016Y-239498D02*
Y-236498D01*
X-256516Y-231140D02*
X-253516D01*
X-255016Y-232640D02*
Y-229640D01*
X-312650Y-239522D02*
X-309650D01*
X-311150Y-241022D02*
Y-238022D01*
X-312650Y-232410D02*
X-309650D01*
X-311150Y-233910D02*
Y-230910D01*
X-310364Y-191770D02*
X-307364D01*
X-308864Y-193270D02*
Y-190270D01*
X-388850Y-411226D02*
X-385850D01*
X-387350Y-412726D02*
Y-409726D01*
X-396724Y-250698D02*
X-393724D01*
X-395224Y-252198D02*
Y-249198D01*
X-381230Y-251714D02*
X-378230D01*
X-379730Y-253214D02*
Y-250214D01*
X-326874Y-470408D02*
X-323874D01*
X-325374Y-471908D02*
Y-468908D01*
X-316714Y-470662D02*
X-313714D01*
X-315214Y-472162D02*
Y-469162D01*
X-26392Y-808482D02*
X-23392D01*
X-24892Y-809982D02*
Y-806982D01*
X-34774Y-808228D02*
X-31774D01*
X-33274Y-809728D02*
Y-806728D01*
X-88114Y-809498D02*
X-85114D01*
X-86614Y-810998D02*
Y-807998D01*
X-95734Y-809498D02*
X-92734D01*
X-94234Y-810998D02*
Y-807998D01*
X-168632Y-350012D02*
X-165632D01*
X-167132Y-351512D02*
Y-348512D01*
X-174220Y-344678D02*
X-171220D01*
X-172720Y-346178D02*
Y-343178D01*
X-179554Y-339852D02*
X-176554D01*
X-178054Y-341352D02*
Y-338352D01*
X-130278Y-415290D02*
X-127278D01*
X-128778Y-416790D02*
Y-413790D01*
X-136374Y-415290D02*
X-133374D01*
X-134874Y-416790D02*
Y-413790D01*
X-304014Y-777494D02*
X-301014D01*
X-302514Y-778994D02*
Y-775994D01*
X-160504Y-725424D02*
X-157504D01*
X-159004Y-726924D02*
Y-723924D01*
X-160514Y-733044D02*
X-157514D01*
X-159014Y-734544D02*
Y-731544D01*
X-812522Y-460756D02*
X-809522D01*
X-811022Y-462256D02*
Y-459256D01*
X-812268Y-453644D02*
X-809268D01*
X-810768Y-455144D02*
Y-452144D01*
X-117832Y-630428D02*
X-114832D01*
X-116332Y-631928D02*
Y-628928D01*
X-109958Y-630428D02*
X-106958D01*
X-108458Y-631928D02*
Y-628928D01*
X-329678Y-732790D02*
X-326678D01*
X-328178Y-734290D02*
Y-731290D01*
X-117324Y-616458D02*
X-114324D01*
X-115824Y-617958D02*
Y-614958D01*
X-438888Y-95504D02*
X-435888D01*
X-437388Y-97004D02*
Y-94004D01*
X-499086Y-929894D02*
X-496086D01*
X-497586Y-931394D02*
Y-928394D01*
X-441682Y-34544D02*
X-438682D01*
X-440182Y-36044D02*
Y-33044D01*
X-508738Y-929132D02*
X-505738D01*
X-507238Y-930632D02*
Y-927632D01*
X-100560Y-523494D02*
X-97560D01*
X-99060Y-524994D02*
Y-521994D01*
X-45950Y-485394D02*
X-42950D01*
X-44450Y-486894D02*
Y-483894D01*
X-324842Y-508762D02*
X-321842D01*
X-323342Y-510262D02*
Y-507262D01*
X-45950Y-477774D02*
X-42950D01*
X-44450Y-479274D02*
Y-476274D01*
X-325096Y-516636D02*
X-322096D01*
X-323596Y-518136D02*
Y-515136D01*
X-248642Y-497586D02*
X-245642D01*
X-247142Y-499086D02*
Y-496086D01*
X-248642Y-504444D02*
X-245642D01*
X-247142Y-505944D02*
Y-502944D01*
X-329668Y-571754D02*
X-326668D01*
X-328168Y-573254D02*
Y-570254D01*
X-321286Y-571246D02*
X-318286D01*
X-319786Y-572746D02*
Y-569746D01*
X-337288Y-522478D02*
X-334288D01*
X-335788Y-523978D02*
Y-520978D01*
X-316714Y-525526D02*
X-313714D01*
X-315214Y-527026D02*
Y-524026D01*
X-309602Y-761238D02*
X-306602D01*
X-308102Y-762738D02*
Y-759738D01*
X-316714Y-760984D02*
X-313714D01*
X-315214Y-762484D02*
Y-759484D01*
X-309602Y-753872D02*
X-306602D01*
X-308102Y-755372D02*
Y-752372D01*
X-316460Y-753618D02*
X-313460D01*
X-314960Y-755118D02*
Y-752118D01*
X-309348Y-746760D02*
X-306348D01*
X-307848Y-748260D02*
Y-745260D01*
X-316714Y-746506D02*
X-313714D01*
X-315214Y-748006D02*
Y-745006D01*
X-314174Y-697230D02*
X-311174D01*
X-312674Y-698730D02*
Y-695730D01*
X-285218Y-698500D02*
X-282218D01*
X-283718Y-700000D02*
Y-697000D01*
X-307316Y-605536D02*
X-304316D01*
X-305816Y-607036D02*
Y-604036D01*
X-286234Y-502920D02*
X-283234D01*
X-284734Y-504420D02*
Y-501420D01*
X-272010Y-505968D02*
X-269010D01*
X-270510Y-507468D02*
Y-504468D01*
X-242800Y-822452D02*
X-239800D01*
X-241300Y-823952D02*
Y-820952D01*
X-247880Y-827786D02*
X-244880D01*
X-246380Y-829286D02*
Y-826286D01*
X-232132Y-900430D02*
X-229132D01*
X-230632Y-901930D02*
Y-898930D01*
X-223750Y-900430D02*
X-220750D01*
X-222250Y-901930D02*
Y-898930D01*
X-269470Y-890016D02*
X-266470D01*
X-267970Y-891516D02*
Y-888516D01*
X-331192Y-921766D02*
X-328192D01*
X-329692Y-923266D02*
Y-920266D01*
X-270232Y-897382D02*
X-267232D01*
X-268732Y-898882D02*
Y-895882D01*
X-954508Y-199136D02*
X-951508D01*
X-953008Y-200636D02*
Y-197636D01*
X-947142Y-199390D02*
X-944142D01*
X-945642Y-200890D02*
Y-197890D01*
X-940284Y-199390D02*
X-937284D01*
X-938784Y-200890D02*
Y-197890D01*
X-901676Y-283972D02*
X-898676D01*
X-900176Y-285472D02*
Y-282472D01*
X-940792Y-284734D02*
X-937792D01*
X-939292Y-286234D02*
Y-283234D01*
X-947650Y-284734D02*
X-944650D01*
X-946150Y-286234D02*
Y-283234D01*
X-955016Y-284480D02*
X-952016D01*
X-953516Y-285980D02*
Y-282980D01*
X-373102Y-674116D02*
X-370102D01*
X-371602Y-675616D02*
Y-672616D01*
X-400788Y-590804D02*
X-397788D01*
X-399288Y-592304D02*
Y-589304D01*
X-407646Y-630428D02*
X-404646D01*
X-406146Y-631928D02*
Y-628928D01*
X-400026Y-671576D02*
X-397026D01*
X-398526Y-673076D02*
Y-670076D01*
X-664694Y-853440D02*
X-661694D01*
X-663194Y-854940D02*
Y-851940D01*
X-661186Y-844248D02*
X-658186D01*
X-659686Y-845748D02*
Y-842748D01*
X-781788Y-860552D02*
X-778788D01*
X-780288Y-862052D02*
Y-859052D01*
X-782296Y-852424D02*
X-779296D01*
X-780796Y-853924D02*
Y-850924D01*
X-782042Y-844550D02*
X-779042D01*
X-780542Y-846050D02*
Y-843050D01*
X-792202Y-717296D02*
X-789202D01*
X-790702Y-718796D02*
Y-715796D01*
X-787884Y-722884D02*
X-784884D01*
X-786384Y-724384D02*
Y-721384D01*
X-830810Y-501650D02*
X-827810D01*
X-829310Y-503150D02*
Y-500150D01*
X-830810Y-493776D02*
X-827810D01*
X-829310Y-495276D02*
Y-492276D01*
X-780264Y-379476D02*
X-777264D01*
X-778764Y-380976D02*
Y-377976D01*
X-780264Y-372110D02*
X-777264D01*
X-778764Y-373610D02*
Y-370610D01*
X-836144Y-1090676D02*
X-833144D01*
X-834644Y-1092176D02*
Y-1089176D01*
X-843764Y-1090676D02*
X-840764D01*
X-842264Y-1092176D02*
Y-1089176D01*
X-851130Y-1090422D02*
X-848130D01*
X-849630Y-1091922D02*
Y-1088922D01*
X-32742Y-885444D02*
X-29742D01*
X-31242Y-886944D02*
Y-883944D01*
X-201652Y-1046988D02*
X-198652D01*
X-200152Y-1048488D02*
Y-1045488D01*
X-534392Y-1052576D02*
X-531392D01*
X-532892Y-1054076D02*
Y-1051076D01*
X-522962Y-1065276D02*
X-519962D01*
X-521462Y-1066776D02*
Y-1063776D01*
X-552680Y-1100836D02*
X-549680D01*
X-551180Y-1102336D02*
Y-1099336D01*
X-410440Y-926846D02*
X-407440D01*
X-408940Y-928346D02*
Y-925346D01*
X-420854Y-926846D02*
X-417854D01*
X-419354Y-928346D02*
Y-925346D01*
X-410948Y-905256D02*
X-407948D01*
X-409448Y-906756D02*
Y-903756D01*
X-397486Y-907796D02*
X-394486D01*
X-395986Y-909296D02*
Y-906296D01*
X-268454Y-471678D02*
X-265454D01*
X-266954Y-473178D02*
Y-470178D01*
X-271502Y-459994D02*
X-268502D01*
X-270002Y-461494D02*
Y-458494D01*
X-568936Y-1084072D02*
X-565936D01*
X-567436Y-1085572D02*
Y-1082572D01*
X-671552Y-1047840D02*
X-668552D01*
X-670052Y-1049340D02*
Y-1046340D01*
X-774422Y-970026D02*
X-771422D01*
X-772922Y-971526D02*
Y-968526D01*
X-809728Y-969264D02*
X-806728D01*
X-808228Y-970764D02*
Y-967764D01*
X-667996Y-726694D02*
X-664996D01*
X-666496Y-728194D02*
Y-725194D01*
X-799060Y-532130D02*
X-796060D01*
X-797560Y-533630D02*
Y-530630D01*
X-775946Y-407924D02*
X-772946D01*
X-774446Y-409424D02*
Y-406424D01*
X-672568Y-415290D02*
X-669568D01*
X-671068Y-416790D02*
Y-413790D01*
X-820650Y-467360D02*
X-817650D01*
X-819150Y-468860D02*
Y-465860D01*
X-820650Y-460756D02*
X-817650D01*
X-819150Y-462256D02*
Y-459256D01*
X-820650Y-454152D02*
X-817650D01*
X-819150Y-455652D02*
Y-452652D01*
X-242546Y-196850D02*
X-239546D01*
X-241046Y-198350D02*
Y-195350D01*
X-297156Y-197358D02*
X-294156D01*
X-295656Y-198858D02*
Y-195858D01*
X-333732Y-213614D02*
X-330732D01*
X-332232Y-215114D02*
Y-212114D01*
X-394946Y-411026D02*
X-391946D01*
X-393446Y-412526D02*
Y-409526D01*
X-87098Y-510286D02*
X-84098D01*
X-85598Y-511786D02*
Y-508786D01*
X-118086Y-518414D02*
X-115086D01*
X-116586Y-519914D02*
Y-516914D01*
X-48490Y-516890D02*
X-45490D01*
X-46990Y-518390D02*
Y-515390D01*
X-110466Y-518414D02*
X-107466D01*
X-108966Y-519914D02*
Y-516914D01*
X-393422Y-671630D02*
X-390422D01*
X-391922Y-673130D02*
Y-670130D01*
X-404090Y-828294D02*
X-401090D01*
X-402590Y-829794D02*
Y-826794D01*
X-403582Y-756920D02*
X-400582D01*
X-402082Y-758420D02*
Y-755420D01*
X-406376Y-592890D02*
X-403376D01*
X-404876Y-594390D02*
Y-591390D01*
X-401296Y-630174D02*
X-398296D01*
X-399796Y-631674D02*
Y-628674D01*
X-486386Y-700786D02*
X-483386D01*
X-484886Y-702286D02*
Y-699286D01*
X-487402Y-679958D02*
X-484402D01*
X-485902Y-681458D02*
Y-678458D01*
X-486894Y-691134D02*
X-483894D01*
X-485394Y-692634D02*
Y-689634D01*
X-575032Y-323088D02*
X-572032D01*
X-573532Y-324588D02*
Y-321588D01*
X-558014Y-581968D02*
X-555014D01*
X-556514Y-583468D02*
Y-580468D01*
X-557760Y-563172D02*
X-554760D01*
X-556260Y-564672D02*
Y-561672D01*
X-559538Y-762054D02*
X-556538D01*
X-558038Y-763554D02*
Y-760554D01*
X-559792Y-780850D02*
X-556792D01*
X-558292Y-782350D02*
Y-779350D01*
X-843510Y-525780D02*
X-840510D01*
X-842010Y-527280D02*
Y-524280D01*
X-849606Y-525834D02*
X-846606D01*
X-848106Y-527334D02*
Y-524334D01*
X-848590Y-519484D02*
X-845590D01*
X-847090Y-520984D02*
Y-517984D01*
X-854686Y-519992D02*
X-851686D01*
X-853186Y-521492D02*
Y-518492D01*
X-157456Y-695706D02*
X-154456D01*
X-155956Y-697206D02*
Y-694206D01*
X-289028Y-647246D02*
X-286028D01*
X-287528Y-648746D02*
Y-645746D01*
X-157710Y-688086D02*
X-154710D01*
X-156210Y-689586D02*
Y-686586D01*
X-296648Y-646992D02*
X-293648D01*
X-295148Y-648492D02*
Y-645492D01*
X-34774Y-505714D02*
X-31774D01*
X-33274Y-507214D02*
Y-504214D01*
X-326620Y-593852D02*
X-323620D01*
X-325120Y-595352D02*
Y-592352D01*
X-34774Y-498094D02*
X-31774D01*
X-33274Y-499594D02*
Y-496594D01*
X-326874Y-602234D02*
X-323874D01*
X-325374Y-603734D02*
Y-600734D01*
X-383516Y-651002D02*
X-380516D01*
X-382016Y-652502D02*
Y-649502D01*
X-416282Y-643636D02*
X-413282D01*
X-414782Y-645136D02*
Y-642136D01*
X-391136Y-651002D02*
X-388136D01*
X-389636Y-652502D02*
Y-649502D01*
X-416282Y-651256D02*
X-413282D01*
X-414782Y-652756D02*
Y-649756D01*
X-41632Y-635000D02*
X-38632D01*
X-40132Y-636500D02*
Y-633500D01*
X-304278Y-788162D02*
X-301278D01*
X-302778Y-789662D02*
Y-786662D01*
X-41378Y-627380D02*
X-38378D01*
X-39878Y-628880D02*
Y-625880D01*
X-49252Y-616204D02*
X-46252D01*
X-47752Y-617704D02*
Y-614704D01*
X-49506Y-608584D02*
X-46506D01*
X-48006Y-610084D02*
Y-607084D01*
X-342622Y-708460D02*
X-339622D01*
X-341122Y-709960D02*
Y-706960D01*
X-876276Y-231448D02*
X-873276D01*
X-874776Y-232948D02*
Y-229948D01*
X-871450Y-214938D02*
X-868450D01*
X-869950Y-216438D02*
Y-213438D01*
X-884098Y-270870D02*
X-881098D01*
X-882598Y-272370D02*
Y-269370D01*
X-862306Y-261166D02*
X-859306D01*
X-860806Y-262666D02*
Y-259666D01*
X-593320Y-495046D02*
X-590320D01*
X-591820Y-496546D02*
Y-493546D01*
X-623292Y-488442D02*
X-620292D01*
X-621792Y-489942D02*
Y-486942D01*
X-860528Y-963676D02*
X-857528D01*
X-859028Y-965176D02*
Y-962176D01*
X-843764Y-968502D02*
X-840764D01*
X-842264Y-970002D02*
Y-967002D01*
X-851892Y-968502D02*
X-848892D01*
X-850392Y-970002D02*
Y-967002D01*
X-860528Y-955294D02*
X-857528D01*
X-859028Y-956794D02*
Y-953794D01*
X-382373Y-953135D02*
X-379373D01*
X-380873Y-954635D02*
Y-951635D01*
X-409932Y-942086D02*
X-406932D01*
X-408432Y-943586D02*
Y-940586D01*
X-855448Y-225552D02*
X-852448D01*
X-853948Y-227052D02*
Y-224052D01*
X-405614Y-581152D02*
X-402614D01*
X-404114Y-582652D02*
Y-579652D01*
X-425172Y-575056D02*
X-422172D01*
X-423672Y-576556D02*
Y-573556D01*
X-927584Y-219710D02*
X-924584D01*
X-926084Y-221210D02*
Y-218210D01*
X-888468Y-228600D02*
X-885468D01*
X-886968Y-230100D02*
Y-227100D01*
X-885420Y-213922D02*
X-882420D01*
X-883920Y-215422D02*
Y-212422D01*
X-890500Y-207826D02*
X-887500D01*
X-889000Y-209326D02*
Y-206326D01*
X-855448Y-233362D02*
X-852448D01*
X-853948Y-234862D02*
Y-231862D01*
X-875260Y-288734D02*
X-872260D01*
X-873760Y-290234D02*
Y-287234D01*
X-875260Y-296354D02*
X-872260D01*
X-873760Y-297854D02*
Y-294854D01*
X-369800Y-480060D02*
X-366800D01*
X-368300Y-481560D02*
Y-478560D01*
X-358370Y-475234D02*
X-355370D01*
X-356870Y-476734D02*
Y-473734D01*
X-413234Y-309626D02*
X-410234D01*
X-411734Y-311126D02*
Y-308126D01*
X-412218Y-259080D02*
X-409218D01*
X-410718Y-260580D02*
Y-257580D01*
X-412980Y-284734D02*
X-409980D01*
X-411480Y-286234D02*
Y-283234D01*
X-405360Y-510921D02*
X-402360D01*
X-403860Y-512421D02*
Y-509421D01*
X-325858Y-959358D02*
X-322858D01*
X-324358Y-960858D02*
Y-957858D01*
X-326112Y-967486D02*
X-323112D01*
X-324612Y-968986D02*
Y-965986D01*
X-121896Y-801624D02*
X-118896D01*
X-120396Y-803124D02*
Y-800124D01*
X-114276Y-801878D02*
X-111276D01*
X-112776Y-803378D02*
Y-800378D01*
X-425172Y-567182D02*
X-422172D01*
X-423672Y-568682D02*
Y-565682D01*
X-405614Y-573278D02*
X-402614D01*
X-404114Y-574778D02*
Y-571778D01*
X-248896Y-657352D02*
X-245896D01*
X-247396Y-658852D02*
Y-655852D01*
X-260072Y-631444D02*
X-257072D01*
X-258572Y-632944D02*
Y-629944D01*
X-248896Y-649732D02*
X-245896D01*
X-247396Y-651232D02*
Y-648232D01*
X-267692Y-631190D02*
X-264692D01*
X-266192Y-632690D02*
Y-629690D01*
X-445238Y-533146D02*
X-442238D01*
X-443738Y-534646D02*
Y-531646D01*
X-417298Y-501904D02*
X-414298D01*
X-415798Y-503404D02*
Y-500404D01*
X-514326Y-552450D02*
X-511326D01*
X-512826Y-553950D02*
Y-550950D01*
X-512802Y-506984D02*
X-509802D01*
X-511302Y-508484D02*
Y-505484D01*
X-514326Y-542544D02*
X-511326D01*
X-512826Y-544044D02*
Y-541044D01*
X-464796Y-540258D02*
X-461796D01*
X-463296Y-541758D02*
Y-538758D01*
X-474702Y-545338D02*
X-471702D01*
X-473202Y-546838D02*
Y-543838D01*
X-405106Y-683260D02*
X-402106D01*
X-403606Y-684760D02*
Y-681760D01*
X-415012Y-684276D02*
X-412012D01*
X-413512Y-685776D02*
Y-682776D01*
X-425172Y-683260D02*
X-422172D01*
X-423672Y-684760D02*
Y-681760D01*
X-394184Y-683260D02*
X-391184D01*
X-392684Y-684760D02*
Y-681760D01*
X-435078Y-682244D02*
X-432078D01*
X-433578Y-683744D02*
Y-680744D01*
X-443714Y-682498D02*
X-440714D01*
X-442214Y-683998D02*
Y-680998D01*
X-427966Y-516382D02*
X-424966D01*
X-426466Y-517882D02*
Y-514882D01*
X-457684Y-489966D02*
X-454684D01*
X-456184Y-491466D02*
Y-488466D01*
X-572746Y-860552D02*
X-569746D01*
X-571246Y-862052D02*
Y-859052D01*
X-568174Y-870458D02*
X-565174D01*
X-566674Y-871958D02*
Y-868958D01*
X-459716Y-801878D02*
X-456716D01*
X-458216Y-803378D02*
Y-800378D01*
X-655042Y-872490D02*
X-652042D01*
X-653542Y-873990D02*
Y-870990D01*
X-622530Y-479298D02*
X-619530D01*
X-621030Y-480798D02*
Y-477798D01*
X-619228Y-497332D02*
X-616228D01*
X-617728Y-498832D02*
Y-495832D01*
X-626594Y-504952D02*
X-623594D01*
X-625094Y-506452D02*
Y-503452D01*
X-632944Y-513334D02*
X-629944D01*
X-631444Y-514834D02*
Y-511834D01*
X-635230Y-522986D02*
X-632230D01*
X-633730Y-524486D02*
Y-521486D01*
X-664694Y-677672D02*
X-661694D01*
X-663194Y-679172D02*
Y-676172D01*
X-667234Y-659130D02*
X-664234D01*
X-665734Y-660630D02*
Y-657630D01*
X-666980Y-667766D02*
X-663980D01*
X-665480Y-669266D02*
Y-666266D01*
X-334113Y-258181D02*
X-331113D01*
X-332613Y-259681D02*
Y-256681D01*
X-279630Y-258689D02*
X-276630D01*
X-278130Y-260189D02*
Y-257189D01*
X-222607Y-258181D02*
X-219607D01*
X-221107Y-259681D02*
Y-256681D01*
X-222226Y-307848D02*
X-219226D01*
X-220726Y-309348D02*
Y-306348D01*
X-333986Y-308102D02*
X-330986D01*
X-332486Y-309602D02*
Y-306602D01*
X-795758Y-480060D02*
X-792758D01*
X-794258Y-481560D02*
Y-478560D01*
X-797536Y-494792D02*
X-794536D01*
X-796036Y-496292D02*
Y-493292D01*
X-796012Y-507746D02*
X-793012D01*
X-794512Y-509246D02*
Y-506246D01*
X-795758Y-520192D02*
X-792758D01*
X-794258Y-521692D02*
Y-518692D01*
X-797536Y-545846D02*
X-794536D01*
X-796036Y-547346D02*
Y-544346D01*
X-797536Y-560070D02*
X-794536D01*
X-796036Y-561570D02*
Y-558570D01*
X-798044Y-570738D02*
X-795044D01*
X-796544Y-572238D02*
Y-569238D01*
X-797790Y-583438D02*
X-794790D01*
X-796290Y-584938D02*
Y-581938D01*
X-798044Y-621538D02*
X-795044D01*
X-796544Y-623038D02*
Y-620038D01*
X-797790Y-608838D02*
X-794790D01*
X-796290Y-610338D02*
Y-607338D01*
X-413488Y-1091184D02*
X-410488D01*
X-411988Y-1092684D02*
Y-1089684D01*
X-432792Y-1081278D02*
X-429792D01*
X-431292Y-1082778D02*
Y-1079778D01*
X-422378Y-1131316D02*
X-419378D01*
X-420878Y-1132816D02*
Y-1129816D01*
X-429442Y-1122124D02*
X-426442D01*
X-427942Y-1123624D02*
Y-1120624D01*
X-420600Y-848360D02*
X-417600D01*
X-419100Y-849860D02*
Y-846860D01*
X-428220Y-848360D02*
X-425220D01*
X-426720Y-849860D02*
Y-846860D01*
X-459716Y-794004D02*
X-456716D01*
X-458216Y-795504D02*
Y-792504D01*
X-453620Y-540512D02*
X-450620D01*
X-452120Y-542012D02*
Y-539012D01*
X-282170Y-876046D02*
X-279170D01*
X-280670Y-877546D02*
Y-874546D01*
X-307062Y-910590D02*
X-304062D01*
X-305562Y-912090D02*
Y-909090D01*
X-298172Y-919480D02*
X-295172D01*
X-296672Y-920980D02*
Y-917980D01*
X-479020Y-902208D02*
X-476020D01*
X-477520Y-903708D02*
Y-900708D01*
X-476226Y-892810D02*
X-473226D01*
X-474726Y-894310D02*
Y-891310D01*
X-485116Y-878332D02*
X-482116D01*
X-483616Y-879832D02*
Y-876832D01*
X-315952Y-898398D02*
X-312952D01*
X-314452Y-899898D02*
Y-896898D01*
X-559284Y-845820D02*
X-556284D01*
X-557784Y-847320D02*
Y-844320D01*
X-560808Y-919480D02*
X-557808D01*
X-559308Y-920980D02*
Y-917980D01*
X-567412Y-910844D02*
X-564412D01*
X-565912Y-912344D02*
Y-909344D01*
X-569698Y-927608D02*
X-566698D01*
X-568198Y-929108D02*
Y-926108D01*
X-543282Y-845312D02*
X-540282D01*
X-541782Y-846812D02*
Y-843812D01*
X-543536Y-915162D02*
X-540536D01*
X-542036Y-916662D02*
Y-913662D01*
X-609322Y-722884D02*
X-606322D01*
X-607822Y-724384D02*
Y-721384D01*
X-591034Y-746506D02*
X-588034D01*
X-589534Y-748006D02*
Y-745006D01*
X-471908Y-504698D02*
X-468908D01*
X-470408Y-506198D02*
Y-503198D01*
X-196826Y-947928D02*
X-193826D01*
X-195326Y-949428D02*
Y-946428D01*
X-224766Y-947674D02*
X-221766D01*
X-223266Y-949174D02*
Y-946174D01*
X-212320Y-949706D02*
X-209320D01*
X-210820Y-951206D02*
Y-948206D01*
X-572746Y-675640D02*
X-569746D01*
X-571246Y-677140D02*
Y-674140D01*
X-280646Y-888492D02*
X-277646D01*
X-279146Y-889992D02*
Y-886992D01*
X-598146Y-739648D02*
X-595146D01*
X-596646Y-741148D02*
Y-738148D01*
X-602464Y-731266D02*
X-599464D01*
X-600964Y-732766D02*
Y-729766D01*
X-615418Y-715010D02*
X-612418D01*
X-613918Y-716510D02*
Y-713510D01*
X-619990Y-702564D02*
X-616990D01*
X-618490Y-704064D02*
Y-701064D01*
X-625324Y-694182D02*
X-622324D01*
X-623824Y-695682D02*
Y-692682D01*
X-630150Y-686816D02*
X-627150D01*
X-628650Y-688316D02*
Y-685316D01*
X-617704Y-676656D02*
X-614704D01*
X-616204Y-678156D02*
Y-675156D01*
X-592812Y-684530D02*
X-589812D01*
X-591312Y-686030D02*
Y-683030D01*
X-615164Y-1036066D02*
X-612164D01*
X-613664Y-1037566D02*
Y-1034566D01*
X-614656Y-1025906D02*
X-611656D01*
X-613156Y-1027406D02*
Y-1024406D01*
X-614148Y-1016000D02*
X-611148D01*
X-612648Y-1017500D02*
Y-1014500D01*
X-613195Y-1004507D02*
X-610196D01*
X-611696Y-1006006D02*
Y-1003007D01*
X-345162Y-1050036D02*
X-342162D01*
X-343662Y-1051536D02*
Y-1048536D01*
X-468098Y-1108456D02*
X-465098D01*
X-466598Y-1109956D02*
Y-1106956D01*
X-477750Y-1108456D02*
X-474750D01*
X-476250Y-1109956D02*
Y-1106956D01*
X-487402Y-1108456D02*
X-484402D01*
X-485902Y-1109956D02*
Y-1106956D01*
X-497054Y-1108456D02*
X-494054D01*
X-495554Y-1109956D02*
Y-1106956D01*
X-506706Y-1108456D02*
X-503706D01*
X-505206Y-1109956D02*
Y-1106956D01*
X-568428Y-1002284D02*
X-565428D01*
X-566928Y-1003784D02*
Y-1000784D01*
X-607798Y-1072134D02*
X-604798D01*
X-606298Y-1073634D02*
Y-1070634D01*
X-608306Y-1061212D02*
X-605306D01*
X-606806Y-1062712D02*
Y-1059712D01*
X-137058Y-93500D02*
X-102058D01*
X-119558Y-111000D02*
Y-76000D01*
X-869926Y-577850D02*
X-866926D01*
X-868426Y-579350D02*
Y-576350D01*
X-929108Y-591058D02*
X-926108D01*
X-927608Y-592558D02*
Y-589558D01*
X-869926Y-585470D02*
X-866926D01*
X-868426Y-586970D02*
Y-583970D01*
X-883388Y-589026D02*
X-880388D01*
X-881888Y-590526D02*
Y-587526D01*
X-929108Y-597154D02*
X-926108D01*
X-927608Y-598654D02*
Y-595654D01*
X-163806Y-1084834D02*
X-160806D01*
X-162306Y-1086334D02*
Y-1083334D01*
X-106910Y-1090422D02*
X-103910D01*
X-105410Y-1091922D02*
Y-1088922D01*
X-86082Y-1090168D02*
X-83082D01*
X-84582Y-1091668D02*
Y-1088668D01*
X-96750Y-1099312D02*
X-93750D01*
X-95250Y-1100812D02*
Y-1097812D01*
X-139676Y-1071626D02*
X-136676D01*
X-138176Y-1073126D02*
Y-1070126D01*
X-480290Y-928116D02*
X-477290D01*
X-478790Y-929616D02*
Y-926616D01*
X-471908Y-935482D02*
X-468908D01*
X-470408Y-936982D02*
Y-933982D01*
X-390882Y-1009904D02*
X-387882D01*
X-389382Y-1011404D02*
Y-1008404D01*
X-387580Y-1000760D02*
X-384580D01*
X-386080Y-1002260D02*
Y-999260D01*
X-753962Y-149796D02*
X-746850D01*
X-750406Y-153352D02*
Y-146240D01*
X-760706Y-950976D02*
X-757706D01*
X-759206Y-952476D02*
Y-949476D01*
X-760706Y-943864D02*
X-757706D01*
X-759206Y-945364D02*
Y-942364D01*
X-760198Y-937514D02*
X-757198D01*
X-758698Y-939014D02*
Y-936014D01*
X-798044Y-954786D02*
X-795044D01*
X-796544Y-956286D02*
Y-953286D01*
X-798044Y-947166D02*
X-795044D01*
X-796544Y-948666D02*
Y-945666D01*
X-798044Y-940054D02*
X-795044D01*
X-796544Y-941554D02*
Y-938554D01*
X-833858Y-953008D02*
X-830858D01*
X-832358Y-954508D02*
Y-951508D01*
X-833858Y-946404D02*
X-830858D01*
X-832358Y-947904D02*
Y-944904D01*
X-833858Y-939292D02*
X-830858D01*
X-832358Y-940792D02*
Y-937792D01*
X-881356Y-747014D02*
X-878356D01*
X-879856Y-748514D02*
Y-745514D01*
X-885166Y-411226D02*
X-882166D01*
X-883666Y-412726D02*
Y-409726D01*
X-932156Y-394716D02*
X-929156D01*
X-930656Y-396216D02*
Y-393216D01*
X-930124Y-411988D02*
X-927124D01*
X-928624Y-413488D02*
Y-410488D01*
X-930378Y-418338D02*
X-927378D01*
X-928878Y-419838D02*
Y-416838D01*
X-930378Y-424434D02*
X-927378D01*
X-928878Y-425934D02*
Y-422934D01*
X-908026Y-364490D02*
X-905026D01*
X-906526Y-365990D02*
Y-362990D01*
X-915138Y-364490D02*
X-912138D01*
X-913638Y-365990D02*
Y-362990D01*
X-921996Y-364490D02*
X-918996D01*
X-920496Y-365990D02*
Y-362990D01*
X-900914Y-364490D02*
X-897914D01*
X-899414Y-365990D02*
Y-362990D01*
X-906756Y-543560D02*
X-903756D01*
X-905256Y-545060D02*
Y-542060D01*
X-913868Y-543560D02*
X-910868D01*
X-912368Y-545060D02*
Y-542060D01*
X-920980Y-543560D02*
X-917980D01*
X-919480Y-545060D02*
Y-542060D01*
X-899390Y-543814D02*
X-896390D01*
X-897890Y-545314D02*
Y-542314D01*
X-931648Y-573786D02*
X-928648D01*
X-930148Y-575286D02*
Y-572286D01*
X-929108Y-602996D02*
X-926108D01*
X-927608Y-604496D02*
Y-601496D01*
X-907264Y-699262D02*
X-904264D01*
X-905764Y-700762D02*
Y-697762D01*
X-920726Y-699262D02*
X-917726D01*
X-919226Y-700762D02*
Y-697762D01*
X-914376Y-699262D02*
X-911376D01*
X-912876Y-700762D02*
Y-697762D01*
X-900152Y-699262D02*
X-897152D01*
X-898652Y-700762D02*
Y-697762D01*
X-931394Y-730758D02*
X-928394D01*
X-929894Y-732258D02*
Y-729258D01*
X-924790Y-752094D02*
X-921790D01*
X-923290Y-753594D02*
Y-750594D01*
X-925044Y-746252D02*
X-922044D01*
X-923544Y-747752D02*
Y-744752D01*
X-924790Y-757428D02*
X-921790D01*
X-923290Y-758928D02*
Y-755928D01*
X-920980Y-876300D02*
X-917980D01*
X-919480Y-877800D02*
Y-874800D01*
X-913106Y-876300D02*
X-910106D01*
X-911606Y-877800D02*
Y-874800D01*
X-898628Y-876046D02*
X-895628D01*
X-897128Y-877546D02*
Y-874546D01*
X-905740Y-876046D02*
X-902740D01*
X-904240Y-877546D02*
Y-874546D01*
X-931394Y-908304D02*
X-928394D01*
X-929894Y-909804D02*
Y-906804D01*
X-924028Y-940308D02*
X-921028D01*
X-922528Y-941808D02*
Y-938808D01*
X-924028Y-933450D02*
X-921028D01*
X-922528Y-934950D02*
Y-931950D01*
X-924028Y-926338D02*
X-921028D01*
X-922528Y-927838D02*
Y-924838D01*
X-881610Y-924052D02*
X-878610D01*
X-880110Y-925552D02*
Y-922552D01*
X-870942Y-407162D02*
X-867942D01*
X-869442Y-408662D02*
Y-405662D01*
X-870942Y-399542D02*
X-867942D01*
X-869442Y-401042D02*
Y-398042D01*
X-869418Y-740664D02*
X-866418D01*
X-867918Y-742164D02*
Y-739164D01*
X-869672Y-918718D02*
X-866672D01*
X-868172Y-920218D02*
Y-917218D01*
X-869672Y-911352D02*
X-866672D01*
X-868172Y-912852D02*
Y-909852D01*
X-772898Y-596900D02*
X-769898D01*
X-771398Y-598400D02*
Y-595400D01*
X-773406Y-659384D02*
X-770406D01*
X-771906Y-660884D02*
Y-657884D01*
X-869418Y-733552D02*
X-866418D01*
X-867918Y-735052D02*
Y-732052D01*
X-896278Y-399810D02*
X-894246D01*
X-895262Y-400826D02*
Y-398794D01*
X-907278Y-399810D02*
X-905246D01*
X-906262Y-400826D02*
Y-398794D01*
X-896278Y-388810D02*
X-894246D01*
X-895262Y-389826D02*
Y-387794D01*
X-907278Y-388810D02*
X-905246D01*
X-906262Y-389826D02*
Y-387794D01*
X-896278Y-377810D02*
X-894246D01*
X-895262Y-378826D02*
Y-376794D01*
X-907278Y-377810D02*
X-905246D01*
X-906262Y-378826D02*
Y-376794D01*
X-895516Y-912256D02*
X-893484D01*
X-894500Y-913272D02*
Y-911240D01*
X-906516Y-912256D02*
X-904484D01*
X-905500Y-913272D02*
Y-911240D01*
X-895516Y-901256D02*
X-893484D01*
X-894500Y-902272D02*
Y-900240D01*
X-906516Y-901256D02*
X-904484D01*
X-905500Y-902272D02*
Y-900240D01*
X-895516Y-890256D02*
X-893484D01*
X-894500Y-891272D02*
Y-889240D01*
X-906516Y-890256D02*
X-904484D01*
X-905500Y-891272D02*
Y-889240D01*
X-895516Y-578436D02*
X-893484D01*
X-894500Y-579452D02*
Y-577420D01*
X-906516Y-578436D02*
X-904484D01*
X-905500Y-579452D02*
Y-577420D01*
X-895516Y-567436D02*
X-893484D01*
X-894500Y-568452D02*
Y-566420D01*
X-906516Y-567436D02*
X-904484D01*
X-905500Y-568452D02*
Y-566420D01*
X-895516Y-556436D02*
X-893484D01*
X-894500Y-557452D02*
Y-555420D01*
X-906516Y-556436D02*
X-904484D01*
X-905500Y-557452D02*
Y-555420D01*
X-279884Y-307848D02*
X-276884D01*
X-278384Y-309348D02*
Y-306348D01*
X-751906Y-1109796D02*
X-748906D01*
X-750406Y-1111296D02*
Y-1108296D01*
X-183962Y-149796D02*
X-176850D01*
X-180406Y-153352D02*
Y-146240D01*
X-183962Y-1109796D02*
X-176850D01*
X-180406Y-1113352D02*
Y-1106240D01*
X-137158Y-1024000D02*
X-102158D01*
X-119658Y-1041500D02*
Y-1006500D01*
X-870058Y-1024000D02*
X-835058D01*
X-852558Y-1041500D02*
Y-1006500D01*
X-869958Y-93500D02*
X-834958D01*
X-852458Y-111000D02*
Y-76000D01*
M02*
