G04*
G04 #@! TF.GenerationSoftware,Altium Limited,Altium Designer,20.0.2 (26)*
G04*
G04 Layer_Color=32896*
%FSLAX44Y44*%
%MOMM*%
G71*
G01*
G75*
%ADD14C,0.1524*%
%ADD19C,0.2540*%
%ADD23C,0.1778*%
%ADD148C,0.7620*%
D14*
X-358980Y-355746D02*
X-352420D01*
X-384380D02*
X-377820D01*
X-409780D02*
X-403220D01*
X-435180D02*
X-428620D01*
X-460580D02*
X-454020D01*
X-485980D02*
X-479420D01*
X-511380D02*
X-504820D01*
X-536780D02*
X-530220D01*
X-562180D02*
X-555620D01*
X-587580D02*
X-581020D01*
X-587580Y-457854D02*
X-581020D01*
X-562180D02*
X-555620D01*
X-536780D02*
X-530220D01*
X-511380D02*
X-504820D01*
X-485980D02*
X-479420D01*
X-460580D02*
X-454020D01*
X-435180D02*
X-428620D01*
X-409780D02*
X-403220D01*
X-384380D02*
X-377820D01*
X-358980D02*
X-352423D01*
D19*
X-604620Y-466490D02*
X-335380D01*
X-604620D02*
Y-448710D01*
X-335380D01*
Y-466490D02*
Y-448710D01*
Y-364890D02*
Y-347110D01*
X-604620D02*
X-335380D01*
X-604620Y-364890D02*
Y-347110D01*
Y-364890D02*
X-335380D01*
X-591917Y-320553D02*
X-586838D01*
X-589378D01*
Y-333249D01*
X-586838Y-335788D01*
X-584299D01*
X-581760Y-333249D01*
X-596995Y-323092D02*
X-599534Y-320553D01*
X-604613D01*
X-607152Y-323092D01*
Y-325631D01*
X-604613Y-328171D01*
X-607152Y-330710D01*
Y-333249D01*
X-604613Y-335788D01*
X-599534D01*
X-596995Y-333249D01*
Y-330710D01*
X-599534Y-328171D01*
X-596995Y-325631D01*
Y-323092D01*
X-599534Y-328171D02*
X-604613D01*
D23*
X-823470Y-137670D02*
X-828548D01*
Y-141479D01*
X-826009D01*
X-828548D01*
Y-145288D01*
X-820930D02*
Y-137670D01*
X-817122D01*
X-815852Y-138940D01*
Y-141479D01*
X-817122Y-142749D01*
X-820930D01*
X-813313Y-145288D02*
X-810774D01*
X-812043D01*
Y-137670D01*
X-813313Y-138940D01*
X-706630Y-1056134D02*
X-711708D01*
Y-1059943D01*
X-709169D01*
X-711708D01*
Y-1063752D01*
X-704090D02*
Y-1056134D01*
X-700282D01*
X-699012Y-1057404D01*
Y-1059943D01*
X-700282Y-1061213D01*
X-704090D01*
X-696473Y-1057404D02*
X-695203Y-1056134D01*
X-692664D01*
X-691395Y-1057404D01*
Y-1058674D01*
X-692664Y-1059943D01*
X-693934D01*
X-692664D01*
X-691395Y-1061213D01*
Y-1062482D01*
X-692664Y-1063752D01*
X-695203D01*
X-696473Y-1062482D01*
X-79250Y-260861D02*
X-84328D01*
Y-264669D01*
X-81789D01*
X-84328D01*
Y-268478D01*
X-76711D02*
Y-260861D01*
X-72902D01*
X-71632Y-262130D01*
Y-264669D01*
X-72902Y-265939D01*
X-76711D01*
X-64015Y-268478D02*
X-69093D01*
X-64015Y-263400D01*
Y-262130D01*
X-65284Y-260861D01*
X-67823D01*
X-69093Y-262130D01*
D148*
X-325120Y-457200D02*
D03*
M02*
