G04*
G04 #@! TF.GenerationSoftware,Altium Limited,Altium Designer,20.0.2 (26)*
G04*
G04 Layer_Color=8388736*
%FSLAX44Y44*%
%MOMM*%
G71*
G01*
G75*
%ADD77C,1.2192*%
%ADD78R,0.9432X2.9932*%
%ADD79R,1.4032X2.4032*%
%ADD80R,2.2032X4.4032*%
%ADD81O,0.5032X2.0032*%
%ADD82O,2.0032X0.5032*%
%ADD83R,2.7032X1.9032*%
%ADD84R,1.3032X1.9032*%
%ADD85R,1.0532X1.0032*%
G04:AMPARAMS|DCode=86|XSize=0.8032mm|YSize=1.0532mm|CornerRadius=0.2516mm|HoleSize=0mm|Usage=FLASHONLY|Rotation=0.000|XOffset=0mm|YOffset=0mm|HoleType=Round|Shape=RoundedRectangle|*
%AMROUNDEDRECTD86*
21,1,0.8032,0.5500,0,0,0.0*
21,1,0.3000,1.0532,0,0,0.0*
1,1,0.5032,0.1500,-0.2750*
1,1,0.5032,-0.1500,-0.2750*
1,1,0.5032,-0.1500,0.2750*
1,1,0.5032,0.1500,0.2750*
%
%ADD86ROUNDEDRECTD86*%
%ADD87R,1.3032X1.6032*%
%ADD88R,1.0032X1.1032*%
G04:AMPARAMS|DCode=89|XSize=0.6032mm|YSize=0.7032mm|CornerRadius=0.1516mm|HoleSize=0mm|Usage=FLASHONLY|Rotation=180.000|XOffset=0mm|YOffset=0mm|HoleType=Round|Shape=RoundedRectangle|*
%AMROUNDEDRECTD89*
21,1,0.6032,0.4000,0,0,180.0*
21,1,0.3000,0.7032,0,0,180.0*
1,1,0.3032,-0.1500,0.2000*
1,1,0.3032,0.1500,0.2000*
1,1,0.3032,0.1500,-0.2000*
1,1,0.3032,-0.1500,-0.2000*
%
%ADD89ROUNDEDRECTD89*%
%ADD90R,1.0160X1.0160*%
%ADD91R,2.5332X1.7632*%
%ADD92R,2.0032X1.0032*%
%ADD93R,2.5032X0.7032*%
%ADD94R,2.7032X2.2032*%
%ADD95R,1.5240X3.8100*%
%ADD96R,0.7032X0.8032*%
%ADD97C,1.0932*%
%ADD98R,0.8032X1.5532*%
%ADD99R,2.1844X0.7366*%
%ADD100O,1.1532X0.5032*%
%ADD101R,2.4032X3.2032*%
%ADD102R,1.6764X0.4826*%
%ADD103R,1.8832X1.8832*%
G04:AMPARAMS|DCode=104|XSize=1.0632mm|YSize=0.4632mm|CornerRadius=0.1341mm|HoleSize=0mm|Usage=FLASHONLY|Rotation=0.000|XOffset=0mm|YOffset=0mm|HoleType=Round|Shape=RoundedRectangle|*
%AMROUNDEDRECTD104*
21,1,1.0632,0.1950,0,0,0.0*
21,1,0.7950,0.4632,0,0,0.0*
1,1,0.2682,0.3975,-0.0975*
1,1,0.2682,-0.3975,-0.0975*
1,1,0.2682,-0.3975,0.0975*
1,1,0.2682,0.3975,0.0975*
%
%ADD104ROUNDEDRECTD104*%
G04:AMPARAMS|DCode=105|XSize=1.0632mm|YSize=0.4632mm|CornerRadius=0.1341mm|HoleSize=0mm|Usage=FLASHONLY|Rotation=90.000|XOffset=0mm|YOffset=0mm|HoleType=Round|Shape=RoundedRectangle|*
%AMROUNDEDRECTD105*
21,1,1.0632,0.1950,0,0,90.0*
21,1,0.7950,0.4632,0,0,90.0*
1,1,0.2682,0.0975,0.3975*
1,1,0.2682,0.0975,-0.3975*
1,1,0.2682,-0.0975,-0.3975*
1,1,0.2682,-0.0975,0.3975*
%
%ADD105ROUNDEDRECTD105*%
%ADD106R,1.2032X2.0032*%
%ADD107R,3.2032X2.7032*%
%ADD108R,1.6032X1.4032*%
%ADD109R,2.4032X2.7032*%
%ADD110R,2.9932X0.9432*%
%ADD111R,0.9652X0.9652*%
%ADD112R,1.2232X2.3632*%
%ADD113R,2.2032X1.9032*%
%ADD114R,1.5832X2.0032*%
%ADD115R,1.0532X0.4332*%
%ADD116R,1.2032X0.4332*%
%ADD117R,1.2032X1.2532*%
%ADD118R,1.3532X0.8532*%
%ADD119R,1.1032X1.1532*%
%ADD120R,1.7032X0.8532*%
%ADD121R,1.2432X1.3032*%
%ADD122R,2.6924X1.4732*%
G04:AMPARAMS|DCode=123|XSize=0.6032mm|YSize=0.7032mm|CornerRadius=0.1516mm|HoleSize=0mm|Usage=FLASHONLY|Rotation=270.000|XOffset=0mm|YOffset=0mm|HoleType=Round|Shape=RoundedRectangle|*
%AMROUNDEDRECTD123*
21,1,0.6032,0.4000,0,0,270.0*
21,1,0.3000,0.7032,0,0,270.0*
1,1,0.3032,-0.2000,-0.1500*
1,1,0.3032,-0.2000,0.1500*
1,1,0.3032,0.2000,0.1500*
1,1,0.3032,0.2000,-0.1500*
%
%ADD123ROUNDEDRECTD123*%
%ADD124R,1.1532X1.1032*%
%ADD125R,1.2532X1.2032*%
%ADD126R,1.6032X1.3032*%
%ADD127R,0.9652X0.9652*%
%ADD128R,3.8100X1.5240*%
%ADD129R,1.0032X2.0032*%
%ADD130C,3.9032*%
%ADD131R,1.2192X1.2192*%
%ADD132C,0.8032*%
%ADD133C,0.7032*%
%ADD134C,5.2032*%
%ADD135C,1.4732*%
D77*
X-240792Y-1086612D02*
D03*
X-658368Y-177038D02*
D03*
X-68834Y-314960D02*
D03*
X-343000Y-356000D02*
D03*
X-368400D02*
D03*
X-393800D02*
D03*
X-419200D02*
D03*
X-444600D02*
D03*
X-470000D02*
D03*
X-495400D02*
D03*
X-520800D02*
D03*
X-546200D02*
D03*
X-571600D02*
D03*
X-597000D02*
D03*
Y-457600D02*
D03*
X-571600D02*
D03*
X-546200D02*
D03*
X-520800D02*
D03*
X-495400D02*
D03*
X-470000D02*
D03*
X-444600D02*
D03*
X-419200D02*
D03*
X-393800D02*
D03*
X-368400D02*
D03*
D78*
X-68580Y-965352D02*
D03*
Y-924652D02*
D03*
X-55880Y-965352D02*
D03*
Y-924652D02*
D03*
X-43180Y-965352D02*
D03*
Y-924652D02*
D03*
X-93980Y-965352D02*
D03*
Y-924652D02*
D03*
X-81280Y-965352D02*
D03*
Y-924652D02*
D03*
D79*
X-826274Y-1074754D02*
D03*
X-846274D02*
D03*
X-866274D02*
D03*
X-886274D02*
D03*
D80*
X-922274Y-1130554D02*
D03*
X-790274D02*
D03*
D81*
X-512480Y-951356D02*
D03*
X-507480D02*
D03*
X-502480D02*
D03*
X-497480D02*
D03*
X-492480D02*
D03*
X-487480D02*
D03*
X-482480D02*
D03*
X-477480D02*
D03*
X-472480D02*
D03*
X-467480D02*
D03*
X-462480D02*
D03*
X-457480D02*
D03*
X-452480D02*
D03*
X-447480D02*
D03*
X-442480D02*
D03*
X-437480D02*
D03*
Y-1062356D02*
D03*
X-442480D02*
D03*
X-447480D02*
D03*
X-452480D02*
D03*
X-457480D02*
D03*
X-462480D02*
D03*
X-467480D02*
D03*
X-472480D02*
D03*
X-477480D02*
D03*
X-482480D02*
D03*
X-487480D02*
D03*
X-492480D02*
D03*
X-497480D02*
D03*
X-502480D02*
D03*
X-507480D02*
D03*
X-512480D02*
D03*
D82*
X-419480Y-969356D02*
D03*
Y-974356D02*
D03*
Y-979356D02*
D03*
Y-984356D02*
D03*
Y-989356D02*
D03*
Y-994356D02*
D03*
Y-999356D02*
D03*
Y-1004356D02*
D03*
Y-1009356D02*
D03*
Y-1014356D02*
D03*
Y-1019356D02*
D03*
Y-1024356D02*
D03*
Y-1029356D02*
D03*
Y-1034356D02*
D03*
Y-1039356D02*
D03*
Y-1044356D02*
D03*
X-530480D02*
D03*
Y-1039356D02*
D03*
Y-1034356D02*
D03*
Y-1029356D02*
D03*
Y-1024356D02*
D03*
Y-1019356D02*
D03*
Y-1014356D02*
D03*
Y-1009356D02*
D03*
Y-1004356D02*
D03*
Y-999356D02*
D03*
Y-994356D02*
D03*
Y-989356D02*
D03*
Y-984356D02*
D03*
Y-979356D02*
D03*
Y-974356D02*
D03*
Y-969356D02*
D03*
D83*
X-939734Y-1042416D02*
D03*
X-899734D02*
D03*
X-941766Y-984758D02*
D03*
X-901766D02*
D03*
D84*
X-393408Y-394207D02*
D03*
X-420408D02*
D03*
X-343446Y-217165D02*
D03*
X-316446D02*
D03*
X-232194D02*
D03*
X-205194D02*
D03*
X-287566Y-217673D02*
D03*
X-260566D02*
D03*
D85*
X-69850Y-1027430D02*
D03*
Y-1012430D02*
D03*
D86*
X-803536Y-736600D02*
D03*
X-788536D02*
D03*
X-789552Y-374904D02*
D03*
X-804552D02*
D03*
X-837558Y-509524D02*
D03*
X-852558D02*
D03*
X-801998Y-847598D02*
D03*
X-816998D02*
D03*
X-910724Y-775716D02*
D03*
X-895724D02*
D03*
X-914280Y-616204D02*
D03*
X-899280D02*
D03*
X-916820Y-438150D02*
D03*
X-901820D02*
D03*
X-908946Y-951484D02*
D03*
X-893946D02*
D03*
D87*
X-816236Y-781812D02*
D03*
X-801236D02*
D03*
X-815474Y-878332D02*
D03*
X-800474D02*
D03*
X-808856Y-438912D02*
D03*
X-823856D02*
D03*
D88*
X-639688Y-626110D02*
D03*
X-653688D02*
D03*
X-653688Y-648462D02*
D03*
X-639688D02*
D03*
X-653434Y-833374D02*
D03*
X-639434D02*
D03*
X-639434Y-811784D02*
D03*
X-653434D02*
D03*
D89*
X-373300Y-837946D02*
D03*
X-363300D02*
D03*
X-143680Y-710692D02*
D03*
X-133680D02*
D03*
X-362378Y-1001522D02*
D03*
X-352378D02*
D03*
X-362378Y-1011174D02*
D03*
X-352378D02*
D03*
X-362378Y-1020826D02*
D03*
X-352378D02*
D03*
X-362378Y-1030478D02*
D03*
X-352378D02*
D03*
X-362378Y-1040130D02*
D03*
X-352378D02*
D03*
X-362378Y-1050036D02*
D03*
X-352378D02*
D03*
X-586058Y-1070864D02*
D03*
X-596058D02*
D03*
X-586058Y-1060958D02*
D03*
X-596058D02*
D03*
X-586820Y-1036066D02*
D03*
X-596820D02*
D03*
X-586820Y-1025906D02*
D03*
X-596820D02*
D03*
X-586820Y-1016254D02*
D03*
X-596820D02*
D03*
X-586820Y-1006602D02*
D03*
X-596820D02*
D03*
X-560752Y-956310D02*
D03*
X-550752D02*
D03*
X-560752Y-945896D02*
D03*
X-550752D02*
D03*
X-430958Y-1090930D02*
D03*
X-420958D02*
D03*
X-525954Y-1089660D02*
D03*
X-515954D02*
D03*
X-560752Y-966216D02*
D03*
X-550752D02*
D03*
X-491570Y-632714D02*
D03*
X-501570D02*
D03*
X-491316Y-832104D02*
D03*
X-501316D02*
D03*
X-674958Y-699008D02*
D03*
X-684958D02*
D03*
X-671150Y-533400D02*
D03*
X-681150D02*
D03*
X-671150Y-521208D02*
D03*
X-681150D02*
D03*
X-671150Y-508000D02*
D03*
X-681150D02*
D03*
X-671150Y-495554D02*
D03*
X-681150D02*
D03*
X-671150Y-483108D02*
D03*
X-681150D02*
D03*
X-671150Y-469900D02*
D03*
X-681150D02*
D03*
X-671150Y-457200D02*
D03*
X-681150D02*
D03*
X-671150Y-444500D02*
D03*
X-681150D02*
D03*
X-671150Y-431292D02*
D03*
X-681150D02*
D03*
X-143844Y-393700D02*
D03*
X-153844D02*
D03*
X-671150Y-406146D02*
D03*
X-681150D02*
D03*
X-246970Y-876300D02*
D03*
X-256970D02*
D03*
X-246970Y-863854D02*
D03*
X-256970D02*
D03*
X-246970Y-851154D02*
D03*
X-256970D02*
D03*
X-133680Y-850138D02*
D03*
X-143680D02*
D03*
X-246970Y-838200D02*
D03*
X-256970D02*
D03*
X-133430Y-835406D02*
D03*
X-143430D02*
D03*
X-246970Y-812800D02*
D03*
X-256970D02*
D03*
X-133430Y-824484D02*
D03*
X-143430D02*
D03*
X-775288Y-495554D02*
D03*
X-785288D02*
D03*
X-775288Y-482346D02*
D03*
X-785288D02*
D03*
X-245444Y-673100D02*
D03*
X-255444D02*
D03*
X-775284Y-559054D02*
D03*
X-785284D02*
D03*
X-775284Y-546100D02*
D03*
X-785284D02*
D03*
X-775284Y-520446D02*
D03*
X-785284D02*
D03*
X-775284Y-507492D02*
D03*
X-785284D02*
D03*
X-676736Y-558546D02*
D03*
X-686736D02*
D03*
X-775368Y-621792D02*
D03*
X-785368D02*
D03*
X-676736Y-571246D02*
D03*
X-686736D02*
D03*
X-775368Y-609346D02*
D03*
X-785368D02*
D03*
X-676656Y-583946D02*
D03*
X-686656D02*
D03*
X-775368D02*
D03*
X-785368D02*
D03*
X-676816Y-596646D02*
D03*
X-686816D02*
D03*
X-775288Y-570992D02*
D03*
X-785288D02*
D03*
X-246970Y-469646D02*
D03*
X-256970D02*
D03*
X-246970Y-456946D02*
D03*
X-256970D02*
D03*
X-362742Y-639184D02*
D03*
X-372742D02*
D03*
X-362538Y-754126D02*
D03*
X-372538D02*
D03*
X-360296Y-560444D02*
D03*
X-370296D02*
D03*
X-555324Y-630936D02*
D03*
X-565324D02*
D03*
X-557102Y-831850D02*
D03*
X-567102D02*
D03*
X-641688Y-678434D02*
D03*
X-651688D02*
D03*
X-641434Y-862838D02*
D03*
X-651434D02*
D03*
X-641688Y-669036D02*
D03*
X-651688D02*
D03*
X-641434Y-853254D02*
D03*
X-651434D02*
D03*
X-641688Y-659638D02*
D03*
X-651688D02*
D03*
X-641434Y-844042D02*
D03*
X-651434D02*
D03*
X-651688Y-614934D02*
D03*
X-641688D02*
D03*
X-641434Y-801116D02*
D03*
X-651434D02*
D03*
X-641688Y-595630D02*
D03*
X-651688D02*
D03*
X-641434Y-782320D02*
D03*
X-651434D02*
D03*
X-641688Y-586232D02*
D03*
X-651688D02*
D03*
X-641434Y-772922D02*
D03*
X-651434D02*
D03*
X-651688Y-637540D02*
D03*
X-641688D02*
D03*
X-651688Y-605282D02*
D03*
X-641688D02*
D03*
X-651688Y-576834D02*
D03*
X-641688D02*
D03*
X-651688Y-567436D02*
D03*
X-641688D02*
D03*
X-651434Y-822706D02*
D03*
X-641434D02*
D03*
X-651434Y-791718D02*
D03*
X-641434D02*
D03*
X-651434Y-763524D02*
D03*
X-641434D02*
D03*
X-651434Y-754126D02*
D03*
X-641434D02*
D03*
X-453521Y-550204D02*
D03*
X-463521D02*
D03*
X-453521Y-559602D02*
D03*
X-463521D02*
D03*
X-439246Y-744220D02*
D03*
X-449246D02*
D03*
X-439246Y-753110D02*
D03*
X-449246D02*
D03*
X-432388Y-489204D02*
D03*
X-442388D02*
D03*
X-381842Y-837946D02*
D03*
X-391842D02*
D03*
X-381204Y-639184D02*
D03*
X-391204D02*
D03*
X-381588Y-754126D02*
D03*
X-391588D02*
D03*
X-378714Y-560578D02*
D03*
X-388714D02*
D03*
X-794338Y-724408D02*
D03*
X-804338D02*
D03*
X-859866Y-771398D02*
D03*
X-869866D02*
D03*
X-834978Y-547370D02*
D03*
X-844978D02*
D03*
X-842692Y-785876D02*
D03*
X-832692D02*
D03*
X-818976Y-977900D02*
D03*
X-828976D02*
D03*
X-859866Y-761238D02*
D03*
X-869866D02*
D03*
X-869264Y-603504D02*
D03*
X-879264D02*
D03*
Y-613410D02*
D03*
X-869264D02*
D03*
X-883582Y-437896D02*
D03*
X-873582D02*
D03*
Y-427482D02*
D03*
X-883582D02*
D03*
D90*
X-846836Y-797560D02*
D03*
X-832104Y-797306D02*
D03*
X-827278Y-572008D02*
D03*
X-842010Y-572262D02*
D03*
X-842264Y-449834D02*
D03*
X-856996Y-450088D02*
D03*
X-834136Y-989584D02*
D03*
X-819404Y-989330D02*
D03*
D91*
X-73978Y-870204D02*
D03*
X-31178D02*
D03*
D92*
X-802894Y-764666D02*
D03*
Y-748666D02*
D03*
X-794512Y-905638D02*
D03*
Y-921638D02*
D03*
X-817372Y-905638D02*
D03*
Y-921638D02*
D03*
X-840232D02*
D03*
Y-905638D02*
D03*
X-805688Y-408814D02*
D03*
Y-424814D02*
D03*
D93*
X-88514Y-764538D02*
D03*
Y-756538D02*
D03*
Y-748538D02*
D03*
Y-740538D02*
D03*
Y-732538D02*
D03*
D94*
X-87514Y-704038D02*
D03*
X-32514D02*
D03*
Y-793038D02*
D03*
X-87514D02*
D03*
D95*
X-818388Y-714248D02*
D03*
X-849884D02*
D03*
X-864616Y-848360D02*
D03*
X-833120D02*
D03*
X-851152Y-379984D02*
D03*
X-819656D02*
D03*
D96*
X-278638Y-327074D02*
D03*
Y-317074D02*
D03*
X-221488Y-235256D02*
D03*
Y-245256D02*
D03*
X-211582Y-245256D02*
D03*
Y-235256D02*
D03*
X-232156Y-245256D02*
D03*
Y-235256D02*
D03*
X-321818Y-245256D02*
D03*
Y-235256D02*
D03*
X-343916Y-245256D02*
D03*
Y-235256D02*
D03*
X-233426Y-316566D02*
D03*
Y-326566D02*
D03*
X-220726Y-316566D02*
D03*
Y-326566D02*
D03*
X-267970Y-235764D02*
D03*
Y-245764D02*
D03*
X-288544Y-235764D02*
D03*
Y-245764D02*
D03*
X-208534Y-326566D02*
D03*
Y-316566D02*
D03*
X-342646Y-326564D02*
D03*
Y-316564D02*
D03*
X-322072Y-326566D02*
D03*
Y-316566D02*
D03*
X-332486Y-326566D02*
D03*
Y-316566D02*
D03*
Y-245256D02*
D03*
Y-235256D02*
D03*
X-290576Y-327074D02*
D03*
Y-317074D02*
D03*
X-264922Y-327074D02*
D03*
Y-317074D02*
D03*
X-278130Y-245764D02*
D03*
Y-235764D02*
D03*
D97*
X-818388Y-683006D02*
D03*
X-892810Y-470916D02*
D03*
X-871220Y-968248D02*
D03*
X-820166Y-348488D02*
D03*
D98*
X-268630Y-271614D02*
D03*
X-278130D02*
D03*
X-287630D02*
D03*
Y-295314D02*
D03*
X-278130D02*
D03*
X-268630D02*
D03*
X-323240Y-271106D02*
D03*
X-332740D02*
D03*
X-342240D02*
D03*
Y-294806D02*
D03*
X-332740D02*
D03*
X-323240D02*
D03*
X-211226Y-271106D02*
D03*
X-220726D02*
D03*
X-230226D02*
D03*
Y-294806D02*
D03*
X-220726D02*
D03*
X-211226D02*
D03*
D99*
X-540512Y-247396D02*
D03*
Y-260096D02*
D03*
Y-272796D02*
D03*
Y-285496D02*
D03*
Y-298196D02*
D03*
Y-310896D02*
D03*
Y-323596D02*
D03*
X-589788D02*
D03*
Y-310896D02*
D03*
Y-298196D02*
D03*
Y-285496D02*
D03*
Y-272796D02*
D03*
Y-260096D02*
D03*
Y-247396D02*
D03*
X-477774Y-246380D02*
D03*
Y-259080D02*
D03*
Y-271780D02*
D03*
Y-284480D02*
D03*
Y-297180D02*
D03*
Y-309880D02*
D03*
Y-322580D02*
D03*
X-428498D02*
D03*
Y-309880D02*
D03*
Y-297180D02*
D03*
Y-284480D02*
D03*
Y-271780D02*
D03*
Y-259080D02*
D03*
Y-246380D02*
D03*
D100*
X-919000Y-711646D02*
D03*
Y-719646D02*
D03*
Y-727646D02*
D03*
Y-735646D02*
D03*
X-881000D02*
D03*
Y-727646D02*
D03*
Y-719646D02*
D03*
Y-711646D02*
D03*
X-881762Y-376810D02*
D03*
Y-384810D02*
D03*
Y-392810D02*
D03*
Y-400810D02*
D03*
X-919762D02*
D03*
Y-392810D02*
D03*
Y-384810D02*
D03*
Y-376810D02*
D03*
X-881000Y-889256D02*
D03*
Y-897256D02*
D03*
Y-905256D02*
D03*
Y-913256D02*
D03*
X-919000D02*
D03*
Y-905256D02*
D03*
Y-897256D02*
D03*
Y-889256D02*
D03*
X-881000Y-555436D02*
D03*
Y-563436D02*
D03*
Y-571436D02*
D03*
Y-579436D02*
D03*
X-919000D02*
D03*
Y-571436D02*
D03*
Y-563436D02*
D03*
Y-555436D02*
D03*
D101*
X-900000Y-723646D02*
D03*
X-900762Y-388810D02*
D03*
X-900000Y-901256D02*
D03*
Y-567436D02*
D03*
D102*
X-497332Y-487426D02*
D03*
Y-492506D02*
D03*
Y-497586D02*
D03*
Y-502412D02*
D03*
Y-507492D02*
D03*
Y-512572D02*
D03*
Y-517398D02*
D03*
Y-522478D02*
D03*
Y-527558D02*
D03*
Y-532384D02*
D03*
Y-537464D02*
D03*
Y-542544D02*
D03*
Y-547370D02*
D03*
Y-552450D02*
D03*
Y-557530D02*
D03*
Y-562610D02*
D03*
Y-567436D02*
D03*
Y-572516D02*
D03*
Y-577596D02*
D03*
Y-582422D02*
D03*
Y-587502D02*
D03*
Y-592582D02*
D03*
Y-597408D02*
D03*
Y-602488D02*
D03*
Y-607568D02*
D03*
Y-612394D02*
D03*
Y-617474D02*
D03*
Y-622554D02*
D03*
X-570992D02*
D03*
Y-617474D02*
D03*
Y-612394D02*
D03*
Y-607568D02*
D03*
Y-602488D02*
D03*
Y-597408D02*
D03*
Y-592582D02*
D03*
Y-587502D02*
D03*
Y-582422D02*
D03*
Y-577596D02*
D03*
Y-572516D02*
D03*
Y-567436D02*
D03*
Y-562610D02*
D03*
Y-557530D02*
D03*
Y-552450D02*
D03*
Y-547370D02*
D03*
Y-542544D02*
D03*
Y-537464D02*
D03*
Y-532384D02*
D03*
Y-527558D02*
D03*
Y-522478D02*
D03*
Y-517398D02*
D03*
Y-512572D02*
D03*
Y-507492D02*
D03*
Y-502412D02*
D03*
Y-497586D02*
D03*
Y-492506D02*
D03*
Y-487426D02*
D03*
X-572008Y-686308D02*
D03*
Y-691388D02*
D03*
Y-696468D02*
D03*
Y-701294D02*
D03*
Y-706374D02*
D03*
Y-711454D02*
D03*
Y-716280D02*
D03*
Y-721360D02*
D03*
Y-726440D02*
D03*
Y-731266D02*
D03*
Y-736346D02*
D03*
Y-741426D02*
D03*
Y-746252D02*
D03*
Y-751332D02*
D03*
Y-756412D02*
D03*
Y-761492D02*
D03*
Y-766318D02*
D03*
Y-771398D02*
D03*
Y-776478D02*
D03*
Y-781304D02*
D03*
Y-786384D02*
D03*
Y-791464D02*
D03*
Y-796290D02*
D03*
Y-801370D02*
D03*
Y-806450D02*
D03*
Y-811276D02*
D03*
Y-816356D02*
D03*
Y-821436D02*
D03*
X-498348D02*
D03*
Y-816356D02*
D03*
Y-811276D02*
D03*
Y-806450D02*
D03*
Y-801370D02*
D03*
Y-796290D02*
D03*
Y-791464D02*
D03*
Y-786384D02*
D03*
Y-781304D02*
D03*
Y-776478D02*
D03*
Y-771398D02*
D03*
Y-766318D02*
D03*
Y-761492D02*
D03*
Y-756412D02*
D03*
Y-751332D02*
D03*
Y-746252D02*
D03*
Y-741426D02*
D03*
Y-736346D02*
D03*
Y-731266D02*
D03*
Y-726440D02*
D03*
Y-721360D02*
D03*
Y-716280D02*
D03*
Y-711454D02*
D03*
Y-706374D02*
D03*
Y-701294D02*
D03*
Y-696468D02*
D03*
Y-691388D02*
D03*
Y-686308D02*
D03*
D103*
X-386590Y-811384D02*
D03*
X-383622Y-534070D02*
D03*
X-385444Y-612260D02*
D03*
X-386590Y-727524D02*
D03*
D104*
X-372240Y-803884D02*
D03*
Y-808884D02*
D03*
Y-813884D02*
D03*
Y-818884D02*
D03*
X-400940D02*
D03*
Y-813884D02*
D03*
Y-808884D02*
D03*
Y-803884D02*
D03*
X-397972Y-526570D02*
D03*
Y-531570D02*
D03*
Y-536570D02*
D03*
Y-541570D02*
D03*
X-369272D02*
D03*
Y-536570D02*
D03*
Y-531570D02*
D03*
Y-526570D02*
D03*
X-399794Y-604760D02*
D03*
Y-609760D02*
D03*
Y-614760D02*
D03*
Y-619760D02*
D03*
X-371094D02*
D03*
Y-614760D02*
D03*
Y-609760D02*
D03*
Y-604760D02*
D03*
X-400940Y-720024D02*
D03*
Y-725024D02*
D03*
Y-730024D02*
D03*
Y-735024D02*
D03*
X-372240D02*
D03*
Y-730024D02*
D03*
Y-725024D02*
D03*
Y-720024D02*
D03*
D105*
X-394090Y-797034D02*
D03*
X-389090D02*
D03*
X-384090D02*
D03*
X-379090D02*
D03*
Y-825734D02*
D03*
X-384090D02*
D03*
X-389090D02*
D03*
X-394090D02*
D03*
X-391122Y-548420D02*
D03*
X-386122D02*
D03*
X-381122D02*
D03*
X-376122D02*
D03*
Y-519720D02*
D03*
X-381122D02*
D03*
X-386122D02*
D03*
X-391122D02*
D03*
X-392944Y-626610D02*
D03*
X-387944D02*
D03*
X-382944D02*
D03*
X-377944D02*
D03*
Y-597910D02*
D03*
X-382944D02*
D03*
X-387944D02*
D03*
X-392944D02*
D03*
X-394090Y-741874D02*
D03*
X-389090D02*
D03*
X-384090D02*
D03*
X-379090D02*
D03*
Y-713174D02*
D03*
X-384090D02*
D03*
X-389090D02*
D03*
X-394090D02*
D03*
D106*
X-611428Y-958088D02*
D03*
X-585928D02*
D03*
D107*
X-674116Y-1026362D02*
D03*
Y-956362D02*
D03*
D108*
X-479982Y-645288D02*
D03*
Y-661288D02*
D03*
X-501982D02*
D03*
Y-645288D02*
D03*
Y-844932D02*
D03*
Y-860932D02*
D03*
X-479982D02*
D03*
Y-844932D02*
D03*
D109*
X-788162Y-1047628D02*
D03*
Y-1000628D02*
D03*
D110*
X-180086Y-482346D02*
D03*
Y-456946D02*
D03*
Y-444246D02*
D03*
Y-418846D02*
D03*
X-220726D02*
D03*
Y-444246D02*
D03*
Y-456946D02*
D03*
Y-482346D02*
D03*
X-180086Y-558546D02*
D03*
Y-545846D02*
D03*
Y-520446D02*
D03*
X-220726D02*
D03*
Y-545846D02*
D03*
Y-558546D02*
D03*
X-180086Y-622046D02*
D03*
Y-583946D02*
D03*
Y-647446D02*
D03*
X-220726D02*
D03*
Y-583946D02*
D03*
Y-622046D02*
D03*
X-180086Y-660146D02*
D03*
Y-685546D02*
D03*
Y-723646D02*
D03*
X-220726D02*
D03*
Y-685546D02*
D03*
Y-660146D02*
D03*
X-180086Y-749046D02*
D03*
Y-761746D02*
D03*
Y-787146D02*
D03*
X-220726D02*
D03*
Y-761746D02*
D03*
Y-749046D02*
D03*
X-180086Y-825246D02*
D03*
Y-850646D02*
D03*
Y-888746D02*
D03*
Y-863346D02*
D03*
X-220726D02*
D03*
Y-888746D02*
D03*
Y-850646D02*
D03*
Y-825246D02*
D03*
X-180086Y-393446D02*
D03*
X-220726D02*
D03*
X-180086Y-406146D02*
D03*
X-220726D02*
D03*
X-180086Y-431546D02*
D03*
X-220726D02*
D03*
X-180086Y-469646D02*
D03*
X-220726D02*
D03*
X-180086Y-495046D02*
D03*
X-220726D02*
D03*
X-180086Y-507746D02*
D03*
X-220726D02*
D03*
X-180086Y-533146D02*
D03*
X-220726D02*
D03*
X-180086Y-571246D02*
D03*
X-220726D02*
D03*
X-180086Y-596646D02*
D03*
X-220726D02*
D03*
X-180086Y-609346D02*
D03*
X-220726D02*
D03*
X-180086Y-634746D02*
D03*
X-220726D02*
D03*
X-180086Y-672846D02*
D03*
X-220726D02*
D03*
X-180086Y-698246D02*
D03*
X-220726D02*
D03*
X-180086Y-710946D02*
D03*
X-220726D02*
D03*
X-180086Y-736346D02*
D03*
X-220726D02*
D03*
X-180086Y-774446D02*
D03*
X-220726D02*
D03*
X-180086Y-799846D02*
D03*
X-220726D02*
D03*
X-180086Y-812546D02*
D03*
X-220726D02*
D03*
X-180086Y-837946D02*
D03*
X-220726D02*
D03*
X-180086Y-876046D02*
D03*
X-220726D02*
D03*
X-710086Y-418846D02*
D03*
Y-444246D02*
D03*
Y-456946D02*
D03*
Y-482346D02*
D03*
Y-520446D02*
D03*
Y-545846D02*
D03*
Y-558546D02*
D03*
Y-647446D02*
D03*
Y-583946D02*
D03*
Y-622046D02*
D03*
Y-723646D02*
D03*
Y-685546D02*
D03*
Y-660146D02*
D03*
Y-787146D02*
D03*
Y-761746D02*
D03*
Y-749046D02*
D03*
Y-863346D02*
D03*
Y-888746D02*
D03*
Y-850646D02*
D03*
Y-825246D02*
D03*
Y-393446D02*
D03*
Y-406146D02*
D03*
Y-431546D02*
D03*
Y-469646D02*
D03*
Y-495046D02*
D03*
Y-507746D02*
D03*
Y-533146D02*
D03*
Y-571246D02*
D03*
Y-596646D02*
D03*
Y-609346D02*
D03*
Y-634746D02*
D03*
Y-672846D02*
D03*
Y-698246D02*
D03*
Y-710946D02*
D03*
Y-736346D02*
D03*
Y-774446D02*
D03*
Y-799846D02*
D03*
Y-812546D02*
D03*
Y-837946D02*
D03*
Y-876046D02*
D03*
X-750726Y-482346D02*
D03*
Y-456946D02*
D03*
Y-444246D02*
D03*
Y-418846D02*
D03*
Y-558546D02*
D03*
Y-545846D02*
D03*
Y-520446D02*
D03*
Y-622046D02*
D03*
Y-583946D02*
D03*
Y-647446D02*
D03*
Y-660146D02*
D03*
Y-685546D02*
D03*
Y-723646D02*
D03*
Y-749046D02*
D03*
Y-761746D02*
D03*
Y-787146D02*
D03*
Y-825246D02*
D03*
Y-850646D02*
D03*
Y-888746D02*
D03*
Y-863346D02*
D03*
Y-406146D02*
D03*
Y-431546D02*
D03*
Y-469646D02*
D03*
Y-495046D02*
D03*
Y-507746D02*
D03*
Y-533146D02*
D03*
Y-571246D02*
D03*
Y-596646D02*
D03*
Y-609346D02*
D03*
Y-634746D02*
D03*
Y-672846D02*
D03*
Y-698246D02*
D03*
Y-710946D02*
D03*
Y-736346D02*
D03*
Y-774446D02*
D03*
Y-799846D02*
D03*
Y-812546D02*
D03*
Y-837946D02*
D03*
Y-876046D02*
D03*
Y-393446D02*
D03*
D111*
X-162306Y-1049909D02*
D03*
Y-1063879D02*
D03*
X-178308Y-1064133D02*
D03*
Y-1050163D02*
D03*
D112*
X-125466Y-1073898D02*
D03*
X-105466D02*
D03*
X-85466D02*
D03*
X-65466D02*
D03*
X-45466D02*
D03*
X-125466Y-1126998D02*
D03*
X-105466D02*
D03*
X-85466D02*
D03*
X-65466D02*
D03*
X-45466D02*
D03*
D113*
X-945582Y-271324D02*
D03*
Y-214324D02*
D03*
X-27686Y-465478D02*
D03*
Y-522478D02*
D03*
X-26670Y-594106D02*
D03*
Y-651106D02*
D03*
D114*
X-913072Y-271324D02*
D03*
Y-214324D02*
D03*
X-60196Y-465478D02*
D03*
Y-522478D02*
D03*
X-59180Y-594106D02*
D03*
Y-651106D02*
D03*
D115*
X-897832Y-224824D02*
D03*
Y-228824D02*
D03*
Y-232824D02*
D03*
Y-236824D02*
D03*
Y-240824D02*
D03*
Y-244824D02*
D03*
Y-248824D02*
D03*
Y-252824D02*
D03*
Y-256824D02*
D03*
Y-260824D02*
D03*
X-75436Y-511978D02*
D03*
Y-507978D02*
D03*
Y-503978D02*
D03*
Y-499978D02*
D03*
Y-495978D02*
D03*
Y-491978D02*
D03*
Y-487978D02*
D03*
Y-483978D02*
D03*
Y-479978D02*
D03*
Y-475978D02*
D03*
X-74420Y-640606D02*
D03*
Y-636606D02*
D03*
Y-632606D02*
D03*
Y-628606D02*
D03*
Y-624606D02*
D03*
Y-620606D02*
D03*
Y-616606D02*
D03*
Y-612606D02*
D03*
Y-608606D02*
D03*
Y-604606D02*
D03*
D116*
X-910082Y-226824D02*
D03*
Y-230824D02*
D03*
Y-234824D02*
D03*
Y-238824D02*
D03*
Y-242824D02*
D03*
Y-246824D02*
D03*
Y-250824D02*
D03*
Y-254824D02*
D03*
Y-258824D02*
D03*
X-63186Y-509978D02*
D03*
Y-505978D02*
D03*
Y-501978D02*
D03*
Y-497978D02*
D03*
Y-493978D02*
D03*
Y-489978D02*
D03*
Y-485978D02*
D03*
Y-481978D02*
D03*
Y-477978D02*
D03*
X-62170Y-638606D02*
D03*
Y-634606D02*
D03*
Y-630606D02*
D03*
Y-626606D02*
D03*
Y-622606D02*
D03*
Y-618606D02*
D03*
Y-614606D02*
D03*
Y-610606D02*
D03*
Y-606606D02*
D03*
D117*
X-246740Y-37592D02*
D03*
X-228240D02*
D03*
X-247756Y-90678D02*
D03*
X-229256D02*
D03*
X-661310Y-109474D02*
D03*
X-679810D02*
D03*
X-660548Y-30226D02*
D03*
X-679048D02*
D03*
X-911458Y-761238D02*
D03*
X-892958D02*
D03*
X-319828Y-196346D02*
D03*
X-338328D02*
D03*
X-209952D02*
D03*
X-228452D02*
D03*
X-264054Y-196854D02*
D03*
X-282554D02*
D03*
X-397658Y-376428D02*
D03*
X-416158D02*
D03*
X-428604Y-232918D02*
D03*
X-410104D02*
D03*
X-892450Y-936498D02*
D03*
X-910950D02*
D03*
X-796692Y-861568D02*
D03*
X-815192D02*
D03*
X-899308Y-423672D02*
D03*
X-917808D02*
D03*
X-784754Y-391160D02*
D03*
X-803254D02*
D03*
X-896768Y-601726D02*
D03*
X-915268D02*
D03*
X-839110Y-495046D02*
D03*
X-857610D02*
D03*
X-521864Y-233934D02*
D03*
X-540364D02*
D03*
X-66654Y-825246D02*
D03*
X-48154D02*
D03*
X-359772Y-985520D02*
D03*
X-341272D02*
D03*
D118*
X-205436Y-63500D02*
D03*
X-230936Y-73000D02*
D03*
Y-54000D02*
D03*
X-736296Y-77318D02*
D03*
Y-58318D02*
D03*
X-761796Y-67818D02*
D03*
D119*
X-296058Y-101854D02*
D03*
X-314558D02*
D03*
X-315828Y-24892D02*
D03*
X-297328D02*
D03*
X-626258Y-30226D02*
D03*
X-644758D02*
D03*
X-626258Y-109220D02*
D03*
X-644758D02*
D03*
X-439572Y-1136904D02*
D03*
X-458072D02*
D03*
X-510394Y-907034D02*
D03*
X-491894D02*
D03*
X-439572Y-1122172D02*
D03*
X-458072D02*
D03*
X-510394Y-891286D02*
D03*
X-491894D02*
D03*
X-48154Y-842772D02*
D03*
X-66654D02*
D03*
X-359772Y-955548D02*
D03*
X-341272D02*
D03*
X-359772Y-970788D02*
D03*
X-341272D02*
D03*
X-56494Y-1011682D02*
D03*
X-37994D02*
D03*
D120*
X-374606Y-82550D02*
D03*
Y-69850D02*
D03*
Y-57150D02*
D03*
Y-44450D02*
D03*
X-432606Y-82550D02*
D03*
Y-69850D02*
D03*
Y-57150D02*
D03*
Y-44450D02*
D03*
X-539706Y-87122D02*
D03*
Y-74422D02*
D03*
Y-61722D02*
D03*
Y-49022D02*
D03*
X-597706Y-87122D02*
D03*
Y-74422D02*
D03*
Y-61722D02*
D03*
Y-49022D02*
D03*
D121*
X-516382Y-51726D02*
D03*
Y-34126D02*
D03*
X-454152Y-81788D02*
D03*
Y-99388D02*
D03*
X-643636Y-1047840D02*
D03*
Y-1065440D02*
D03*
D122*
X-625094Y-81280D02*
D03*
Y-56280D02*
D03*
X-699094Y-81280D02*
D03*
Y-56280D02*
D03*
X-267804Y-76504D02*
D03*
Y-51504D02*
D03*
X-341804Y-76504D02*
D03*
Y-51504D02*
D03*
D123*
X-440436Y-1090248D02*
D03*
Y-1100248D02*
D03*
X-450088Y-1090248D02*
D03*
Y-1100248D02*
D03*
X-456946Y-921686D02*
D03*
Y-911686D02*
D03*
X-447294Y-921686D02*
D03*
Y-911686D02*
D03*
X-437642Y-921686D02*
D03*
Y-911686D02*
D03*
X-466598Y-1089914D02*
D03*
Y-1099914D02*
D03*
Y-911686D02*
D03*
Y-921686D02*
D03*
X-476250Y-1099994D02*
D03*
Y-1089994D02*
D03*
X-485902Y-1099994D02*
D03*
Y-1089994D02*
D03*
X-495554Y-1099914D02*
D03*
Y-1089914D02*
D03*
X-504952Y-1099994D02*
D03*
Y-1089994D02*
D03*
X-395986Y-963342D02*
D03*
Y-953342D02*
D03*
X-466090Y-656844D02*
D03*
Y-666844D02*
D03*
Y-648382D02*
D03*
Y-638382D02*
D03*
Y-854536D02*
D03*
Y-864536D02*
D03*
Y-846502D02*
D03*
Y-836502D02*
D03*
X-482092Y-632888D02*
D03*
Y-622888D02*
D03*
X-482346Y-832024D02*
D03*
Y-822024D02*
D03*
X-454406Y-684864D02*
D03*
Y-694864D02*
D03*
X-351282Y-779112D02*
D03*
Y-769112D02*
D03*
Y-815514D02*
D03*
Y-805514D02*
D03*
Y-584748D02*
D03*
Y-574748D02*
D03*
Y-621324D02*
D03*
Y-611324D02*
D03*
X-412750Y-821356D02*
D03*
Y-811356D02*
D03*
X-412366Y-622086D02*
D03*
Y-612086D02*
D03*
X-351282Y-787226D02*
D03*
Y-797226D02*
D03*
Y-823802D02*
D03*
Y-833802D02*
D03*
Y-593036D02*
D03*
Y-603036D02*
D03*
Y-630120D02*
D03*
Y-640120D02*
D03*
Y-691816D02*
D03*
Y-681816D02*
D03*
Y-728138D02*
D03*
Y-718138D02*
D03*
Y-499404D02*
D03*
Y-489404D02*
D03*
Y-535980D02*
D03*
Y-525980D02*
D03*
X-413258Y-737790D02*
D03*
Y-727790D02*
D03*
X-409956Y-544162D02*
D03*
Y-534162D02*
D03*
X-351282Y-700024D02*
D03*
Y-710024D02*
D03*
Y-736426D02*
D03*
Y-746426D02*
D03*
Y-507692D02*
D03*
Y-517692D02*
D03*
Y-544268D02*
D03*
Y-554268D02*
D03*
X-869442Y-944296D02*
D03*
Y-934296D02*
D03*
X-878840D02*
D03*
Y-944296D02*
D03*
D124*
X-245618Y-72242D02*
D03*
Y-53742D02*
D03*
X-720598Y-58822D02*
D03*
Y-77322D02*
D03*
X-359410Y-921152D02*
D03*
Y-939652D02*
D03*
D125*
X-454152Y-65892D02*
D03*
Y-47392D02*
D03*
X-516636Y-67458D02*
D03*
Y-85958D02*
D03*
X-585470Y-937764D02*
D03*
Y-919264D02*
D03*
X-611886D02*
D03*
Y-937764D02*
D03*
X-709172Y-974958D02*
D03*
Y-956458D02*
D03*
Y-1008020D02*
D03*
Y-1026520D02*
D03*
X-344170Y-939652D02*
D03*
Y-921152D02*
D03*
X-627380Y-1047136D02*
D03*
Y-1065636D02*
D03*
D126*
X-774192Y-943222D02*
D03*
Y-958222D02*
D03*
X-845566Y-941698D02*
D03*
Y-956698D02*
D03*
X-811276Y-943222D02*
D03*
Y-958222D02*
D03*
D127*
X-842645Y-435356D02*
D03*
X-856615D02*
D03*
D128*
X-892302Y-486410D02*
D03*
Y-517906D02*
D03*
D129*
X-658114Y-1124712D02*
D03*
X-674114D02*
D03*
X-685038D02*
D03*
X-701038D02*
D03*
D130*
X-750406Y-149796D02*
D03*
X-180406D02*
D03*
X-750406Y-1109796D02*
D03*
X-180406D02*
D03*
D131*
X-343000Y-457600D02*
D03*
D132*
X-719074Y-214376D02*
D03*
X-712216Y-207264D02*
D03*
X-705358Y-200152D02*
D03*
X-143510Y-208280D02*
D03*
Y-198120D02*
D03*
X-143256Y-188468D02*
D03*
X-165100Y-202692D02*
D03*
X-164846Y-193294D02*
D03*
Y-184150D02*
D03*
X-146812Y-723646D02*
D03*
X-146558Y-676910D02*
D03*
X-269494Y-1113536D02*
D03*
X-249682Y-1113790D02*
D03*
X-259334Y-1113536D02*
D03*
X-535940Y-816102D02*
D03*
X-14478Y-350520D02*
D03*
X-14224Y-292862D02*
D03*
X-13970Y-235204D02*
D03*
X-13716Y-177546D02*
D03*
X-13462Y-119888D02*
D03*
X-13208Y-62230D02*
D03*
X-60452Y-15494D02*
D03*
X-118872D02*
D03*
X-201422Y-16002D02*
D03*
X-259080Y-15748D02*
D03*
X-359156Y-16002D02*
D03*
X-416814Y-15748D02*
D03*
X-474472Y-15494D02*
D03*
X-562356D02*
D03*
X-620014Y-15240D02*
D03*
X-740918Y-16002D02*
D03*
X-798576Y-15748D02*
D03*
X-856234Y-15494D02*
D03*
X-913892Y-15240D02*
D03*
X-957072Y-58420D02*
D03*
X-957326Y-116078D02*
D03*
X-957072Y-161290D02*
D03*
X-908050Y-162560D02*
D03*
X-887222Y-162306D02*
D03*
X-658622Y-913892D02*
D03*
X-658876Y-905764D02*
D03*
X-733552Y-599694D02*
D03*
X-733298Y-537464D02*
D03*
X-839216Y-1097788D02*
D03*
X-847344Y-1097280D02*
D03*
X-76962Y-991108D02*
D03*
X-72898Y-985012D02*
D03*
X-81534D02*
D03*
X-872744Y-981456D02*
D03*
X-880110Y-988568D02*
D03*
X-42672Y-1022858D02*
D03*
X-59186Y-1037844D02*
D03*
X-105156Y-976630D02*
D03*
X-104902Y-968502D02*
D03*
X-104648Y-960628D02*
D03*
X-91186Y-904748D02*
D03*
X-78740D02*
D03*
X-927415Y-251206D02*
D03*
X-927354Y-259080D02*
D03*
X-946658Y-242062D02*
D03*
Y-249872D02*
D03*
X-322072Y-816102D02*
D03*
X-337566Y-815086D02*
D03*
Y-807212D02*
D03*
X-314198Y-816356D02*
D03*
X-138684Y-731520D02*
D03*
X-301752Y-726440D02*
D03*
X-131064Y-731520D02*
D03*
X-301762Y-718566D02*
D03*
X-256794Y-738886D02*
D03*
X-290830Y-741680D02*
D03*
X-256794Y-746506D02*
D03*
X-282956Y-741680D02*
D03*
X-154940Y-669090D02*
D03*
X-273558Y-612648D02*
D03*
X-281432Y-612902D02*
D03*
X-154940Y-661416D02*
D03*
X-282194Y-687832D02*
D03*
X-309372Y-663194D02*
D03*
X-281940Y-680212D02*
D03*
X-317246Y-662940D02*
D03*
X-317500Y-553212D02*
D03*
X-95250Y-493014D02*
D03*
X-325120Y-553466D02*
D03*
X-95250Y-500634D02*
D03*
X-96012Y-479806D02*
D03*
X-335026Y-629666D02*
D03*
X-96266Y-471678D02*
D03*
X-327406Y-629666D02*
D03*
X-267462Y-791518D02*
D03*
X-107442Y-604774D02*
D03*
X-262128Y-797106D02*
D03*
X-99568Y-604774D02*
D03*
X-302768Y-796036D02*
D03*
Y-769620D02*
D03*
X-320294Y-732790D02*
D03*
X-341122Y-700532D02*
D03*
X-424942Y-613664D02*
D03*
X-447548Y-620776D02*
D03*
X-424942Y-621284D02*
D03*
X-447548Y-613156D02*
D03*
X-442468Y-578866D02*
D03*
X-420370Y-548386D02*
D03*
Y-556260D02*
D03*
X-442468Y-586740D02*
D03*
X-434086Y-782574D02*
D03*
X-467106Y-763016D02*
D03*
X-426466Y-782574D02*
D03*
X-467106Y-770636D02*
D03*
X-423418Y-728726D02*
D03*
X-438404Y-771652D02*
D03*
X-423418Y-736346D02*
D03*
X-438150Y-763778D02*
D03*
X-419862Y-806450D02*
D03*
X-436372Y-821182D02*
D03*
X-427482Y-806704D02*
D03*
X-436372Y-813308D02*
D03*
X-172466Y-899668D02*
D03*
X-159258Y-877570D02*
D03*
X-196596Y-1008126D02*
D03*
X-180848Y-999744D02*
D03*
X-161544Y-650748D02*
D03*
X-529082Y-720090D02*
D03*
X-510794Y-717042D02*
D03*
X-34290Y-1109726D02*
D03*
X-17272Y-1093104D02*
D03*
X-83820Y-635000D02*
D03*
X-811784Y-491490D02*
D03*
Y-485394D02*
D03*
Y-479298D02*
D03*
X-816102Y-809752D02*
D03*
X-815848Y-817626D02*
D03*
X-347726Y-856488D02*
D03*
X-368554Y-663194D02*
D03*
X-363982Y-567690D02*
D03*
X-122174Y-1107186D02*
D03*
X-129032D02*
D03*
X-668528Y-814070D02*
D03*
X-36068Y-837184D02*
D03*
X-209550Y-1132586D02*
D03*
X-51308Y-442214D02*
D03*
X-41656Y-442468D02*
D03*
X-29972Y-442722D02*
D03*
X-33528Y-686308D02*
D03*
X-42164D02*
D03*
X-597662Y-921004D02*
D03*
X-625094Y-920750D02*
D03*
X-192786Y-48260D02*
D03*
X-513080Y-249174D02*
D03*
X-562102Y-271780D02*
D03*
X-772922Y-726694D02*
D03*
X-516890Y-763270D02*
D03*
X-429768Y-748538D02*
D03*
X-426466Y-904494D02*
D03*
X-465836Y-887730D02*
D03*
X-507238Y-969518D02*
D03*
X-442722Y-1030224D02*
D03*
X-439166Y-974598D02*
D03*
X-507480Y-1029728D02*
D03*
X-329692Y-992378D02*
D03*
X-377444Y-934466D02*
D03*
X-377698Y-928116D02*
D03*
X-522224Y-945896D02*
D03*
X-520192Y-919734D02*
D03*
X-522732Y-913130D02*
D03*
X-529336D02*
D03*
X-262382Y-758698D02*
D03*
X-252730Y-691388D02*
D03*
X-242570Y-571754D02*
D03*
X-540512Y-504444D02*
D03*
X-244348Y-444500D02*
D03*
X-244094Y-394716D02*
D03*
Y-407416D02*
D03*
X-408940Y-244602D02*
D03*
X-511302Y-228854D02*
D03*
X-687324Y-18796D02*
D03*
X-678942D02*
D03*
X-775208Y-67818D02*
D03*
X-692404Y-110236D02*
D03*
X-527050Y-96520D02*
D03*
X-192786Y-40132D02*
D03*
X-224282Y-103124D02*
D03*
X-232156Y-103378D02*
D03*
X-452628Y-34798D02*
D03*
X-460756D02*
D03*
X-441706Y-107188D02*
D03*
X-504698Y-38354D02*
D03*
Y-31242D02*
D03*
X-441706Y-115062D02*
D03*
X-531876Y-118872D02*
D03*
X-538734Y-118618D02*
D03*
X-545338Y-118872D02*
D03*
X-485648Y-671068D02*
D03*
X-690118Y-392938D02*
D03*
X-684022D02*
D03*
X-760222Y-382270D02*
D03*
X-750316D02*
D03*
X-740918D02*
D03*
X-731266Y-720598D02*
D03*
X-521462Y-850900D02*
D03*
X-528828D02*
D03*
X-521462Y-843280D02*
D03*
X-528828D02*
D03*
X-342392Y-336296D02*
D03*
X-220218Y-339090D02*
D03*
X-278638Y-336042D02*
D03*
X-513080Y-257048D02*
D03*
X-511810Y-291084D02*
D03*
X-515620Y-752602D02*
D03*
X-517144Y-802386D02*
D03*
X-516636Y-808736D02*
D03*
X-501650Y-674624D02*
D03*
X-777494Y-831342D02*
D03*
Y-825246D02*
D03*
X-513080Y-629920D02*
D03*
X-558800Y-602034D02*
D03*
Y-592128D02*
D03*
X-656844Y-470154D02*
D03*
X-661924Y-639572D02*
D03*
X-661670Y-632460D02*
D03*
Y-625602D02*
D03*
X-660400Y-758952D02*
D03*
X-660146Y-752602D02*
D03*
X-557022Y-739902D02*
D03*
Y-746252D02*
D03*
X-613410Y-559054D02*
D03*
X-613664Y-532130D02*
D03*
Y-541274D02*
D03*
X-613410Y-550164D02*
D03*
X-650748Y-1108710D02*
D03*
X-658114Y-1108456D02*
D03*
X-647954Y-1100836D02*
D03*
X-654304Y-1100328D02*
D03*
X-661416Y-1099820D02*
D03*
X-353060Y-234696D02*
D03*
X-195326Y-198374D02*
D03*
X-199644Y-193294D02*
D03*
X-255016Y-237998D02*
D03*
Y-231140D02*
D03*
X-311150Y-239522D02*
D03*
Y-232410D02*
D03*
X-308864Y-191770D02*
D03*
X-387350Y-411226D02*
D03*
X-395224Y-250698D02*
D03*
X-379730Y-251714D02*
D03*
X-325374Y-470408D02*
D03*
X-315214Y-470662D02*
D03*
X-24892Y-808482D02*
D03*
X-33274Y-808228D02*
D03*
X-86614Y-809498D02*
D03*
X-94234D02*
D03*
X-167132Y-350012D02*
D03*
X-172720Y-344678D02*
D03*
X-178054Y-339852D02*
D03*
X-128778Y-415290D02*
D03*
X-134874D02*
D03*
X-302514Y-777494D02*
D03*
X-159004Y-725424D02*
D03*
X-159014Y-733044D02*
D03*
X-811022Y-460756D02*
D03*
X-810768Y-453644D02*
D03*
X-116332Y-630428D02*
D03*
X-108458D02*
D03*
X-328178Y-732790D02*
D03*
X-115824Y-616458D02*
D03*
X-437388Y-95504D02*
D03*
X-497586Y-929894D02*
D03*
X-440182Y-34544D02*
D03*
X-507238Y-929132D02*
D03*
X-99060Y-523494D02*
D03*
X-44450Y-485394D02*
D03*
X-323342Y-508762D02*
D03*
X-44450Y-477774D02*
D03*
X-323596Y-516636D02*
D03*
X-247142Y-497586D02*
D03*
Y-504444D02*
D03*
X-328168Y-571754D02*
D03*
X-319786Y-571246D02*
D03*
X-335788Y-522478D02*
D03*
X-315214Y-525526D02*
D03*
X-308102Y-761238D02*
D03*
X-315214Y-760984D02*
D03*
X-308102Y-753872D02*
D03*
X-314960Y-753618D02*
D03*
X-307848Y-746760D02*
D03*
X-315214Y-746506D02*
D03*
X-312674Y-697230D02*
D03*
X-283718Y-698500D02*
D03*
X-305816Y-605536D02*
D03*
X-284734Y-502920D02*
D03*
X-270510Y-505968D02*
D03*
X-241300Y-822452D02*
D03*
X-246380Y-827786D02*
D03*
X-230632Y-900430D02*
D03*
X-222250D02*
D03*
X-267970Y-890016D02*
D03*
X-329692Y-921766D02*
D03*
X-268732Y-897382D02*
D03*
X-953008Y-199136D02*
D03*
X-945642Y-199390D02*
D03*
X-938784D02*
D03*
X-900176Y-283972D02*
D03*
X-939292Y-284734D02*
D03*
X-946150D02*
D03*
X-953516Y-284480D02*
D03*
X-371602Y-674116D02*
D03*
X-399288Y-590804D02*
D03*
X-406146Y-630428D02*
D03*
X-398526Y-671576D02*
D03*
X-663194Y-853440D02*
D03*
X-659686Y-844248D02*
D03*
X-780288Y-860552D02*
D03*
X-780796Y-852424D02*
D03*
X-780542Y-844550D02*
D03*
X-790702Y-717296D02*
D03*
X-786384Y-722884D02*
D03*
X-829310Y-501650D02*
D03*
Y-493776D02*
D03*
X-778764Y-379476D02*
D03*
Y-372110D02*
D03*
X-834644Y-1090676D02*
D03*
X-842264D02*
D03*
X-849630Y-1090422D02*
D03*
X-31242Y-885444D02*
D03*
X-200152Y-1046988D02*
D03*
X-532892Y-1052576D02*
D03*
X-521462Y-1065276D02*
D03*
X-551180Y-1100836D02*
D03*
X-408940Y-926846D02*
D03*
X-419354D02*
D03*
X-409448Y-905256D02*
D03*
X-395986Y-907796D02*
D03*
X-266954Y-471678D02*
D03*
X-270002Y-459994D02*
D03*
X-567436Y-1084072D02*
D03*
X-670052Y-1047840D02*
D03*
X-772922Y-970026D02*
D03*
X-808228Y-969264D02*
D03*
X-666496Y-726694D02*
D03*
X-797560Y-532130D02*
D03*
X-774446Y-407924D02*
D03*
X-671068Y-415290D02*
D03*
X-819150Y-467360D02*
D03*
Y-460756D02*
D03*
Y-454152D02*
D03*
X-241046Y-196850D02*
D03*
X-295656Y-197358D02*
D03*
X-332232Y-213614D02*
D03*
X-393446Y-411026D02*
D03*
X-85598Y-510286D02*
D03*
X-116586Y-518414D02*
D03*
X-46990Y-516890D02*
D03*
X-108966Y-518414D02*
D03*
X-391922Y-671630D02*
D03*
X-402590Y-828294D02*
D03*
X-402082Y-756920D02*
D03*
X-404876Y-592890D02*
D03*
X-399796Y-630174D02*
D03*
X-484886Y-700786D02*
D03*
X-485902Y-679958D02*
D03*
X-485394Y-691134D02*
D03*
X-573532Y-323088D02*
D03*
X-556514Y-581968D02*
D03*
X-556260Y-563172D02*
D03*
X-558038Y-762054D02*
D03*
X-558292Y-780850D02*
D03*
X-842010Y-525780D02*
D03*
X-848106Y-525834D02*
D03*
X-847090Y-519484D02*
D03*
X-853186Y-519992D02*
D03*
X-155956Y-695706D02*
D03*
X-287528Y-647246D02*
D03*
X-156210Y-688086D02*
D03*
X-295148Y-646992D02*
D03*
X-33274Y-505714D02*
D03*
X-325120Y-593852D02*
D03*
X-33274Y-498094D02*
D03*
X-325374Y-602234D02*
D03*
X-382016Y-651002D02*
D03*
X-414782Y-643636D02*
D03*
X-389636Y-651002D02*
D03*
X-414782Y-651256D02*
D03*
X-40132Y-635000D02*
D03*
X-302778Y-788162D02*
D03*
X-39878Y-627380D02*
D03*
X-47752Y-616204D02*
D03*
X-48006Y-608584D02*
D03*
X-341122Y-708460D02*
D03*
X-874776Y-231448D02*
D03*
X-869950Y-214938D02*
D03*
X-882598Y-270870D02*
D03*
X-860806Y-261166D02*
D03*
X-591820Y-495046D02*
D03*
X-621792Y-488442D02*
D03*
X-859028Y-963676D02*
D03*
X-842264Y-968502D02*
D03*
X-850392D02*
D03*
X-859028Y-955294D02*
D03*
X-380873Y-953135D02*
D03*
X-408432Y-942086D02*
D03*
X-853948Y-225552D02*
D03*
X-404114Y-581152D02*
D03*
X-423672Y-575056D02*
D03*
X-926084Y-219710D02*
D03*
X-886968Y-228600D02*
D03*
X-883920Y-213922D02*
D03*
X-889000Y-207826D02*
D03*
X-853948Y-233362D02*
D03*
X-873760Y-288734D02*
D03*
Y-296354D02*
D03*
X-368300Y-480060D02*
D03*
X-356870Y-475234D02*
D03*
X-411734Y-309626D02*
D03*
X-410718Y-259080D02*
D03*
X-411480Y-284734D02*
D03*
X-403860Y-510921D02*
D03*
X-324358Y-959358D02*
D03*
X-324612Y-967486D02*
D03*
X-120396Y-801624D02*
D03*
X-112776Y-801878D02*
D03*
X-423672Y-567182D02*
D03*
X-404114Y-573278D02*
D03*
X-247396Y-657352D02*
D03*
X-258572Y-631444D02*
D03*
X-247396Y-649732D02*
D03*
X-266192Y-631190D02*
D03*
X-443738Y-533146D02*
D03*
X-415798Y-501904D02*
D03*
X-512826Y-552450D02*
D03*
X-511302Y-506984D02*
D03*
X-512826Y-542544D02*
D03*
X-463296Y-540258D02*
D03*
X-473202Y-545338D02*
D03*
X-403606Y-683260D02*
D03*
X-413512Y-684276D02*
D03*
X-423672Y-683260D02*
D03*
X-392684D02*
D03*
X-433578Y-682244D02*
D03*
X-442214Y-682498D02*
D03*
X-426466Y-516382D02*
D03*
X-456184Y-489966D02*
D03*
X-571246Y-860552D02*
D03*
X-566674Y-870458D02*
D03*
X-458216Y-801878D02*
D03*
X-653542Y-872490D02*
D03*
X-621030Y-479298D02*
D03*
X-617728Y-497332D02*
D03*
X-625094Y-504952D02*
D03*
X-631444Y-513334D02*
D03*
X-633730Y-522986D02*
D03*
X-663194Y-677672D02*
D03*
X-665734Y-659130D02*
D03*
X-665480Y-667766D02*
D03*
X-332613Y-258181D02*
D03*
X-278130Y-258689D02*
D03*
X-221107Y-258181D02*
D03*
X-220726Y-307848D02*
D03*
X-332486Y-308102D02*
D03*
X-794258Y-480060D02*
D03*
X-796036Y-494792D02*
D03*
X-794512Y-507746D02*
D03*
X-794258Y-520192D02*
D03*
X-796036Y-545846D02*
D03*
Y-560070D02*
D03*
X-796544Y-570738D02*
D03*
X-796290Y-583438D02*
D03*
X-796544Y-621538D02*
D03*
X-796290Y-608838D02*
D03*
X-411988Y-1091184D02*
D03*
X-431292Y-1081278D02*
D03*
X-420878Y-1131316D02*
D03*
X-427942Y-1122124D02*
D03*
X-419100Y-848360D02*
D03*
X-426720D02*
D03*
X-458216Y-794004D02*
D03*
X-452120Y-540512D02*
D03*
X-280670Y-876046D02*
D03*
X-305562Y-910590D02*
D03*
X-296672Y-919480D02*
D03*
X-477520Y-902208D02*
D03*
X-474726Y-892810D02*
D03*
X-483616Y-878332D02*
D03*
X-314452Y-898398D02*
D03*
X-557784Y-845820D02*
D03*
X-559308Y-919480D02*
D03*
X-565912Y-910844D02*
D03*
X-568198Y-927608D02*
D03*
X-541782Y-845312D02*
D03*
X-542036Y-915162D02*
D03*
X-607822Y-722884D02*
D03*
X-589534Y-746506D02*
D03*
X-470408Y-504698D02*
D03*
X-195326Y-947928D02*
D03*
X-223266Y-947674D02*
D03*
X-210820Y-949706D02*
D03*
X-571246Y-675640D02*
D03*
X-279146Y-888492D02*
D03*
X-596646Y-739648D02*
D03*
X-600964Y-731266D02*
D03*
X-613918Y-715010D02*
D03*
X-618490Y-702564D02*
D03*
X-623824Y-694182D02*
D03*
X-628650Y-686816D02*
D03*
X-616204Y-676656D02*
D03*
X-591312Y-684530D02*
D03*
X-613664Y-1036066D02*
D03*
X-613156Y-1025906D02*
D03*
X-612648Y-1016000D02*
D03*
X-611696Y-1004507D02*
D03*
X-343662Y-1050036D02*
D03*
X-466598Y-1108456D02*
D03*
X-476250D02*
D03*
X-485902D02*
D03*
X-495554D02*
D03*
X-505206D02*
D03*
X-566928Y-1002284D02*
D03*
X-606298Y-1072134D02*
D03*
X-606806Y-1061212D02*
D03*
X-868426Y-577850D02*
D03*
X-927608Y-591058D02*
D03*
X-868426Y-585470D02*
D03*
X-881888Y-589026D02*
D03*
X-927608Y-597154D02*
D03*
X-162306Y-1084834D02*
D03*
X-105410Y-1090422D02*
D03*
X-84582Y-1090168D02*
D03*
X-95250Y-1099312D02*
D03*
X-138176Y-1071626D02*
D03*
X-478790Y-928116D02*
D03*
X-470408Y-935482D02*
D03*
X-389382Y-1009904D02*
D03*
X-386080Y-1000760D02*
D03*
X-759206Y-950976D02*
D03*
Y-943864D02*
D03*
X-758698Y-937514D02*
D03*
X-796544Y-954786D02*
D03*
Y-947166D02*
D03*
Y-940054D02*
D03*
X-832358Y-953008D02*
D03*
Y-946404D02*
D03*
Y-939292D02*
D03*
X-879856Y-747014D02*
D03*
X-883666Y-411226D02*
D03*
X-930656Y-394716D02*
D03*
X-928624Y-411988D02*
D03*
X-928878Y-418338D02*
D03*
Y-424434D02*
D03*
X-906526Y-364490D02*
D03*
X-913638D02*
D03*
X-920496D02*
D03*
X-899414D02*
D03*
X-905256Y-543560D02*
D03*
X-912368D02*
D03*
X-919480D02*
D03*
X-897890Y-543814D02*
D03*
X-930148Y-573786D02*
D03*
X-927608Y-602996D02*
D03*
X-905764Y-699262D02*
D03*
X-919226D02*
D03*
X-912876D02*
D03*
X-898652D02*
D03*
X-929894Y-730758D02*
D03*
X-923290Y-752094D02*
D03*
X-923544Y-746252D02*
D03*
X-923290Y-757428D02*
D03*
X-919480Y-876300D02*
D03*
X-911606D02*
D03*
X-897128Y-876046D02*
D03*
X-904240D02*
D03*
X-929894Y-908304D02*
D03*
X-922528Y-940308D02*
D03*
Y-933450D02*
D03*
Y-926338D02*
D03*
X-880110Y-924052D02*
D03*
X-869442Y-407162D02*
D03*
Y-399542D02*
D03*
X-867918Y-740664D02*
D03*
X-868172Y-918718D02*
D03*
Y-911352D02*
D03*
X-771398Y-596900D02*
D03*
X-771906Y-659384D02*
D03*
X-867918Y-733552D02*
D03*
X-278384Y-307848D02*
D03*
X-750406Y-1109796D02*
D03*
D133*
X-905500Y-712646D02*
D03*
X-894500D02*
D03*
X-905500Y-723646D02*
D03*
X-894500D02*
D03*
X-905500Y-734646D02*
D03*
X-894500D02*
D03*
X-895262Y-399810D02*
D03*
X-906262D02*
D03*
X-895262Y-388810D02*
D03*
X-906262D02*
D03*
X-895262Y-377810D02*
D03*
X-906262D02*
D03*
X-894500Y-912256D02*
D03*
X-905500D02*
D03*
X-894500Y-901256D02*
D03*
X-905500D02*
D03*
X-894500Y-890256D02*
D03*
X-905500D02*
D03*
X-894500Y-578436D02*
D03*
X-905500D02*
D03*
X-894500Y-567436D02*
D03*
X-905500D02*
D03*
X-894500Y-556436D02*
D03*
X-905500D02*
D03*
D134*
X-119558Y-93500D02*
D03*
X-119658Y-1024000D02*
D03*
X-852558D02*
D03*
X-852458Y-93500D02*
D03*
D135*
X-750406Y-149796D02*
D03*
X-180406D02*
D03*
Y-1109796D02*
D03*
M02*
