G04*
G04 #@! TF.GenerationSoftware,Altium Limited,Altium Designer,20.0.2 (26)*
G04*
G04 Layer_Color=8388736*
%FSLAX44Y44*%
%MOMM*%
G71*
G01*
G75*
%ADD13C,0.1270*%
%ADD19C,0.2540*%
D13*
X-603756Y-954279D02*
X-598678Y-961897D01*
Y-954279D02*
X-603756Y-961897D01*
X-596139D02*
X-593600D01*
X-594869D01*
Y-954279D01*
X-596139Y-955549D01*
X-232412Y-40131D02*
X-231142Y-41401D01*
X-228603D01*
X-227333Y-40131D01*
Y-35053D01*
X-228603Y-33783D01*
X-231142D01*
X-232412Y-35053D01*
X-234951D02*
X-236220Y-33783D01*
X-238760D01*
X-240029Y-35053D01*
Y-40131D01*
X-238760Y-41401D01*
X-236220D01*
X-234951Y-40131D01*
Y-38862D01*
X-236220Y-37592D01*
X-240029D01*
X-247647Y-41401D02*
X-245108Y-40131D01*
X-242568Y-37592D01*
Y-35053D01*
X-243838Y-33783D01*
X-246377D01*
X-247647Y-35053D01*
Y-36322D01*
X-246377Y-37592D01*
X-242568D01*
X-214377Y-53978D02*
X-221995D01*
Y-57787D01*
X-220725Y-59057D01*
X-215647D01*
X-214377Y-57787D01*
Y-53978D01*
X-221995Y-61596D02*
Y-64135D01*
Y-62865D01*
X-214377D01*
X-215647Y-61596D01*
Y-67944D02*
X-214377Y-69213D01*
Y-71752D01*
X-215647Y-73022D01*
X-220725D01*
X-221995Y-71752D01*
Y-69213D01*
X-220725Y-67944D01*
X-215647D01*
X-313772Y-105028D02*
Y-98680D01*
X-310598D01*
X-309540Y-99738D01*
Y-101854D01*
X-310598Y-102912D01*
X-313772D01*
X-311656D02*
X-309540Y-105028D01*
X-307424Y-99738D02*
X-306366Y-98680D01*
X-304250D01*
X-303192Y-99738D01*
Y-100796D01*
X-304250Y-101854D01*
X-303192Y-102912D01*
Y-103970D01*
X-304250Y-105028D01*
X-306366D01*
X-307424Y-103970D01*
Y-102912D01*
X-306366Y-101854D01*
X-307424Y-100796D01*
Y-99738D01*
X-306366Y-101854D02*
X-304250D01*
X-301076Y-99738D02*
X-300018Y-98680D01*
X-297902D01*
X-296844Y-99738D01*
Y-100796D01*
X-297902Y-101854D01*
X-296844Y-102912D01*
Y-103970D01*
X-297902Y-105028D01*
X-300018D01*
X-301076Y-103970D01*
Y-102912D01*
X-300018Y-101854D01*
X-301076Y-100796D01*
Y-99738D01*
X-300018Y-101854D02*
X-297902D01*
X-512573Y-34674D02*
Y-29595D01*
X-516382D01*
Y-32134D01*
Y-29595D01*
X-520191D01*
X-512573Y-37213D02*
X-520191D01*
Y-41022D01*
X-518921Y-42291D01*
X-517651D01*
X-516382Y-41022D01*
Y-37213D01*
Y-41022D01*
X-515112Y-42291D01*
X-513843D01*
X-512573Y-41022D01*
Y-37213D01*
X-520191Y-44830D02*
Y-47370D01*
Y-46100D01*
X-512573D01*
X-513843Y-44830D01*
Y-51178D02*
X-512573Y-52448D01*
Y-54987D01*
X-513843Y-56257D01*
X-515112D01*
X-516382Y-54987D01*
Y-53717D01*
Y-54987D01*
X-517651Y-56257D01*
X-518921D01*
X-520191Y-54987D01*
Y-52448D01*
X-518921Y-51178D01*
X-242444Y-71456D02*
X-248792D01*
Y-68282D01*
X-247734Y-67224D01*
X-245618D01*
X-244560Y-68282D01*
Y-71456D01*
Y-69340D02*
X-242444Y-67224D01*
X-247734Y-65108D02*
X-248792Y-64050D01*
Y-61934D01*
X-247734Y-60876D01*
X-246676D01*
X-245618Y-61934D01*
X-244560Y-60876D01*
X-243502D01*
X-242444Y-61934D01*
Y-64050D01*
X-243502Y-65108D01*
X-244560D01*
X-245618Y-64050D01*
X-246676Y-65108D01*
X-247734D01*
X-245618Y-64050D02*
Y-61934D01*
X-248792Y-58760D02*
Y-54528D01*
X-247734D01*
X-243502Y-58760D01*
X-242444D01*
X-315042Y-28066D02*
Y-21718D01*
X-311868D01*
X-310810Y-22776D01*
Y-24892D01*
X-311868Y-25950D01*
X-315042D01*
X-312926D02*
X-310810Y-28066D01*
X-308694Y-22776D02*
X-307636Y-21718D01*
X-305520D01*
X-304462Y-22776D01*
Y-23834D01*
X-305520Y-24892D01*
X-304462Y-25950D01*
Y-27008D01*
X-305520Y-28066D01*
X-307636D01*
X-308694Y-27008D01*
Y-25950D01*
X-307636Y-24892D01*
X-308694Y-23834D01*
Y-22776D01*
X-307636Y-24892D02*
X-305520D01*
X-298114Y-21718D02*
X-300230Y-22776D01*
X-302346Y-24892D01*
Y-27008D01*
X-301288Y-28066D01*
X-299172D01*
X-298114Y-27008D01*
Y-25950D01*
X-299172Y-24892D01*
X-302346D01*
X-628102Y-27052D02*
Y-33400D01*
X-631276D01*
X-632334Y-32342D01*
Y-30226D01*
X-631276Y-29168D01*
X-628102D01*
X-630218D02*
X-632334Y-27052D01*
X-634450Y-32342D02*
X-635508Y-33400D01*
X-637624D01*
X-638682Y-32342D01*
Y-31284D01*
X-637624Y-30226D01*
X-638682Y-29168D01*
Y-28110D01*
X-637624Y-27052D01*
X-635508D01*
X-634450Y-28110D01*
Y-29168D01*
X-635508Y-30226D01*
X-634450Y-31284D01*
Y-32342D01*
X-635508Y-30226D02*
X-637624D01*
X-640798Y-27052D02*
X-642914D01*
X-641856D01*
Y-33400D01*
X-640798Y-32342D01*
X-723772Y-59608D02*
X-717424D01*
Y-62782D01*
X-718482Y-63840D01*
X-720598D01*
X-721656Y-62782D01*
Y-59608D01*
Y-61724D02*
X-723772Y-63840D01*
X-718482Y-65956D02*
X-717424Y-67014D01*
Y-69130D01*
X-718482Y-70188D01*
X-719540D01*
X-720598Y-69130D01*
X-721656Y-70188D01*
X-722714D01*
X-723772Y-69130D01*
Y-67014D01*
X-722714Y-65956D01*
X-721656D01*
X-720598Y-67014D01*
X-719540Y-65956D01*
X-718482D01*
X-720598Y-67014D02*
Y-69130D01*
X-718482Y-72304D02*
X-717424Y-73362D01*
Y-75478D01*
X-718482Y-76536D01*
X-722714D01*
X-723772Y-75478D01*
Y-73362D01*
X-722714Y-72304D01*
X-718482D01*
X-627044Y-106046D02*
Y-112394D01*
X-630218D01*
X-631276Y-111336D01*
Y-109220D01*
X-630218Y-108162D01*
X-627044D01*
X-629160D02*
X-631276Y-106046D01*
X-633392Y-112394D02*
X-637624D01*
Y-111336D01*
X-633392Y-107104D01*
Y-106046D01*
X-639740Y-107104D02*
X-640798Y-106046D01*
X-642914D01*
X-643972Y-107104D01*
Y-111336D01*
X-642914Y-112394D01*
X-640798D01*
X-639740Y-111336D01*
Y-110278D01*
X-640798Y-109220D01*
X-643972D01*
X-457961Y-95666D02*
Y-100745D01*
X-454152D01*
Y-98205D01*
Y-100745D01*
X-450343D01*
X-457961Y-93127D02*
X-450343D01*
Y-89318D01*
X-451613Y-88049D01*
X-452882D01*
X-454152Y-89318D01*
Y-93127D01*
Y-89318D01*
X-455422Y-88049D01*
X-456691D01*
X-457961Y-89318D01*
Y-93127D01*
X-451613Y-85510D02*
X-450343Y-84240D01*
Y-81701D01*
X-451613Y-80431D01*
X-456691D01*
X-457961Y-81701D01*
Y-84240D01*
X-456691Y-85510D01*
X-455422D01*
X-454152Y-84240D01*
Y-80431D01*
X-752855Y-74166D02*
X-745237D01*
Y-70357D01*
X-746507Y-69088D01*
X-751585D01*
X-752855Y-70357D01*
Y-74166D01*
X-751585Y-66548D02*
X-752855Y-65279D01*
Y-62740D01*
X-751585Y-61470D01*
X-750316D01*
X-749046Y-62740D01*
X-747776Y-61470D01*
X-746507D01*
X-745237Y-62740D01*
Y-65279D01*
X-746507Y-66548D01*
X-747776D01*
X-749046Y-65279D01*
X-750316Y-66548D01*
X-751585D01*
X-749046Y-65279D02*
Y-62740D01*
X-233428Y-93217D02*
X-232158Y-94487D01*
X-229619D01*
X-228349Y-93217D01*
Y-88139D01*
X-229619Y-86869D01*
X-232158D01*
X-233428Y-88139D01*
X-235967D02*
X-237236Y-86869D01*
X-239776D01*
X-241045Y-88139D01*
Y-93217D01*
X-239776Y-94487D01*
X-237236D01*
X-235967Y-93217D01*
Y-91948D01*
X-237236Y-90678D01*
X-241045D01*
X-248663Y-94487D02*
X-243584D01*
Y-90678D01*
X-246124Y-91948D01*
X-247393D01*
X-248663Y-90678D01*
Y-88139D01*
X-247393Y-86869D01*
X-244854D01*
X-243584Y-88139D01*
X-451613Y-51564D02*
X-450343Y-50294D01*
Y-47755D01*
X-451613Y-46485D01*
X-456691D01*
X-457961Y-47755D01*
Y-50294D01*
X-456691Y-51564D01*
Y-54103D02*
X-457961Y-55372D01*
Y-57912D01*
X-456691Y-59181D01*
X-451613D01*
X-450343Y-57912D01*
Y-55372D01*
X-451613Y-54103D01*
X-452882D01*
X-454152Y-55372D01*
Y-59181D01*
X-457961Y-65529D02*
X-450343D01*
X-454152Y-61720D01*
Y-66799D01*
X-675638Y-106935D02*
X-676908Y-105665D01*
X-679447D01*
X-680717Y-106935D01*
Y-112013D01*
X-679447Y-113283D01*
X-676908D01*
X-675638Y-112013D01*
X-673099Y-106935D02*
X-671830Y-105665D01*
X-669290D01*
X-668021Y-106935D01*
Y-108204D01*
X-669290Y-109474D01*
X-668021Y-110744D01*
Y-112013D01*
X-669290Y-113283D01*
X-671830D01*
X-673099Y-112013D01*
Y-110744D01*
X-671830Y-109474D01*
X-673099Y-108204D01*
Y-106935D01*
X-671830Y-109474D02*
X-669290D01*
X-660403Y-105665D02*
X-665482D01*
Y-109474D01*
X-662942Y-108204D01*
X-661673D01*
X-660403Y-109474D01*
Y-112013D01*
X-661673Y-113283D01*
X-664212D01*
X-665482Y-112013D01*
X-674876Y-27687D02*
X-676146Y-26417D01*
X-678685D01*
X-679955Y-27687D01*
Y-32765D01*
X-678685Y-34035D01*
X-676146D01*
X-674876Y-32765D01*
X-672337Y-27687D02*
X-671068Y-26417D01*
X-668528D01*
X-667259Y-27687D01*
Y-28956D01*
X-668528Y-30226D01*
X-667259Y-31496D01*
Y-32765D01*
X-668528Y-34035D01*
X-671068D01*
X-672337Y-32765D01*
Y-31496D01*
X-671068Y-30226D01*
X-672337Y-28956D01*
Y-27687D01*
X-671068Y-30226D02*
X-668528D01*
X-660911Y-34035D02*
Y-26417D01*
X-664720Y-30226D01*
X-659641D01*
X-519175Y-81786D02*
X-520445Y-83056D01*
Y-85595D01*
X-519175Y-86865D01*
X-514097D01*
X-512827Y-85595D01*
Y-83056D01*
X-514097Y-81786D01*
X-519175Y-79247D02*
X-520445Y-77978D01*
Y-75438D01*
X-519175Y-74169D01*
X-517906D01*
X-516636Y-75438D01*
X-515366Y-74169D01*
X-514097D01*
X-512827Y-75438D01*
Y-77978D01*
X-514097Y-79247D01*
X-515366D01*
X-516636Y-77978D01*
X-517906Y-79247D01*
X-519175D01*
X-516636Y-77978D02*
Y-75438D01*
X-519175Y-71630D02*
X-520445Y-70360D01*
Y-67821D01*
X-519175Y-66551D01*
X-517906D01*
X-516636Y-67821D01*
Y-69090D01*
Y-67821D01*
X-515366Y-66551D01*
X-514097D01*
X-512827Y-67821D01*
Y-70360D01*
X-514097Y-71630D01*
X-898399Y-763777D02*
X-897130Y-765047D01*
X-894591D01*
X-893321Y-763777D01*
Y-758699D01*
X-894591Y-757429D01*
X-897130D01*
X-898399Y-758699D01*
X-904747Y-757429D02*
Y-765047D01*
X-900938Y-761238D01*
X-906017D01*
X-908556Y-757429D02*
X-911095D01*
X-909826D01*
Y-765047D01*
X-908556Y-763777D01*
X-330348Y-193807D02*
X-331617Y-192537D01*
X-334156D01*
X-335426Y-193807D01*
Y-198885D01*
X-334156Y-200155D01*
X-331617D01*
X-330348Y-198885D01*
X-324000Y-200155D02*
Y-192537D01*
X-327808Y-196346D01*
X-322730D01*
X-220472Y-193807D02*
X-221741Y-192537D01*
X-224280D01*
X-225550Y-193807D01*
Y-198885D01*
X-224280Y-200155D01*
X-221741D01*
X-220472Y-198885D01*
X-212854Y-192537D02*
X-215393Y-193807D01*
X-217932Y-196346D01*
Y-198885D01*
X-216663Y-200155D01*
X-214124D01*
X-212854Y-198885D01*
Y-197616D01*
X-214124Y-196346D01*
X-217932D01*
X-274574Y-194315D02*
X-275843Y-193045D01*
X-278382D01*
X-279652Y-194315D01*
Y-199393D01*
X-278382Y-200663D01*
X-275843D01*
X-274574Y-199393D01*
X-266956Y-193045D02*
X-272034D01*
Y-196854D01*
X-269495Y-195584D01*
X-268226D01*
X-266956Y-196854D01*
Y-199393D01*
X-268226Y-200663D01*
X-270765D01*
X-272034Y-199393D01*
X-408178Y-373889D02*
X-409447Y-372619D01*
X-411986D01*
X-413256Y-373889D01*
Y-378967D01*
X-411986Y-380237D01*
X-409447D01*
X-408178Y-378967D01*
X-405638Y-373889D02*
X-404369Y-372619D01*
X-401830D01*
X-400560Y-373889D01*
Y-375158D01*
X-401830Y-376428D01*
X-400560Y-377698D01*
Y-378967D01*
X-401830Y-380237D01*
X-404369D01*
X-405638Y-378967D01*
Y-377698D01*
X-404369Y-376428D01*
X-405638Y-375158D01*
Y-373889D01*
X-404369Y-376428D02*
X-401830D01*
X-418084Y-235457D02*
X-416815Y-236727D01*
X-414276D01*
X-413006Y-235457D01*
Y-230379D01*
X-414276Y-229109D01*
X-416815D01*
X-418084Y-230379D01*
X-420624D02*
X-421893Y-229109D01*
X-424432D01*
X-425702Y-230379D01*
Y-235457D01*
X-424432Y-236727D01*
X-421893D01*
X-420624Y-235457D01*
Y-234188D01*
X-421893Y-232918D01*
X-425702D01*
X-582931Y-925340D02*
X-581661Y-924071D01*
Y-921531D01*
X-582931Y-920262D01*
X-588009D01*
X-589279Y-921531D01*
Y-924071D01*
X-588009Y-925340D01*
X-589279Y-927879D02*
Y-930418D01*
Y-929149D01*
X-581661D01*
X-582931Y-927879D01*
X-589279Y-934227D02*
Y-936766D01*
Y-935497D01*
X-581661D01*
X-582931Y-934227D01*
X-639827Y-1052831D02*
Y-1047753D01*
X-643636D01*
Y-1050292D01*
Y-1047753D01*
X-647445D01*
X-639827Y-1055370D02*
X-647445D01*
Y-1059179D01*
X-646175Y-1060449D01*
X-644905D01*
X-643636Y-1059179D01*
Y-1055370D01*
Y-1059179D01*
X-642366Y-1060449D01*
X-641097D01*
X-639827Y-1059179D01*
Y-1055370D01*
X-647445Y-1062988D02*
Y-1065527D01*
Y-1064258D01*
X-639827D01*
X-641097Y-1062988D01*
X-896622Y-939037D02*
X-895352Y-940307D01*
X-892813D01*
X-891543Y-939037D01*
Y-933959D01*
X-892813Y-932689D01*
X-895352D01*
X-896622Y-933959D01*
X-904239Y-932689D02*
X-899161D01*
X-904239Y-937768D01*
Y-939037D01*
X-902970Y-940307D01*
X-900430D01*
X-899161Y-939037D01*
X-910587Y-932689D02*
Y-940307D01*
X-906778Y-936498D01*
X-911857D01*
X-800864Y-864107D02*
X-799594Y-865377D01*
X-797055D01*
X-795785Y-864107D01*
Y-859029D01*
X-797055Y-857759D01*
X-799594D01*
X-800864Y-859029D01*
X-808481Y-857759D02*
X-803403D01*
X-808481Y-862838D01*
Y-864107D01*
X-807212Y-865377D01*
X-804672D01*
X-803403Y-864107D01*
X-816099Y-865377D02*
X-813560Y-864107D01*
X-811020Y-861568D01*
Y-859029D01*
X-812290Y-857759D01*
X-814829D01*
X-816099Y-859029D01*
Y-860298D01*
X-814829Y-861568D01*
X-811020D01*
X-903480Y-426211D02*
X-902210Y-427481D01*
X-899671D01*
X-898401Y-426211D01*
Y-421133D01*
X-899671Y-419863D01*
X-902210D01*
X-903480Y-421133D01*
X-911097Y-419863D02*
X-906019D01*
X-911097Y-424942D01*
Y-426211D01*
X-909828Y-427481D01*
X-907288D01*
X-906019Y-426211D01*
X-913636Y-421133D02*
X-914906Y-419863D01*
X-917445D01*
X-918715Y-421133D01*
Y-426211D01*
X-917445Y-427481D01*
X-914906D01*
X-913636Y-426211D01*
Y-424942D01*
X-914906Y-423672D01*
X-918715D01*
X-790195Y-393699D02*
X-788926Y-394969D01*
X-786386D01*
X-785117Y-393699D01*
Y-388621D01*
X-786386Y-387351D01*
X-788926D01*
X-790195Y-388621D01*
X-792734Y-393699D02*
X-794004Y-394969D01*
X-796543D01*
X-797813Y-393699D01*
Y-392430D01*
X-796543Y-391160D01*
X-795274D01*
X-796543D01*
X-797813Y-389891D01*
Y-388621D01*
X-796543Y-387351D01*
X-794004D01*
X-792734Y-388621D01*
X-800352Y-387351D02*
X-802891D01*
X-801622D01*
Y-394969D01*
X-800352Y-393699D01*
X-900940Y-604265D02*
X-899670Y-605535D01*
X-897131D01*
X-895861Y-604265D01*
Y-599187D01*
X-897131Y-597917D01*
X-899670D01*
X-900940Y-599187D01*
X-903479Y-604265D02*
X-904748Y-605535D01*
X-907288D01*
X-908557Y-604265D01*
Y-602996D01*
X-907288Y-601726D01*
X-906018D01*
X-907288D01*
X-908557Y-600456D01*
Y-599187D01*
X-907288Y-597917D01*
X-904748D01*
X-903479Y-599187D01*
X-916175Y-605535D02*
X-913636Y-604265D01*
X-911096Y-601726D01*
Y-599187D01*
X-912366Y-597917D01*
X-914905D01*
X-916175Y-599187D01*
Y-600456D01*
X-914905Y-601726D01*
X-911096D01*
X-843282Y-497585D02*
X-842012Y-498855D01*
X-839473D01*
X-838203Y-497585D01*
Y-492507D01*
X-839473Y-491237D01*
X-842012D01*
X-843282Y-492507D01*
X-845821Y-497585D02*
X-847090Y-498855D01*
X-849630D01*
X-850899Y-497585D01*
Y-496316D01*
X-849630Y-495046D01*
X-848360D01*
X-849630D01*
X-850899Y-493776D01*
Y-492507D01*
X-849630Y-491237D01*
X-847090D01*
X-845821Y-492507D01*
X-853438Y-497585D02*
X-854708Y-498855D01*
X-857247D01*
X-858517Y-497585D01*
Y-496316D01*
X-857247Y-495046D01*
X-858517Y-493776D01*
Y-492507D01*
X-857247Y-491237D01*
X-854708D01*
X-853438Y-492507D01*
Y-493776D01*
X-854708Y-495046D01*
X-853438Y-496316D01*
Y-497585D01*
X-854708Y-495046D02*
X-857247D01*
X-526670Y-236473D02*
X-525401Y-237743D01*
X-522862D01*
X-521592Y-236473D01*
Y-231395D01*
X-522862Y-230125D01*
X-525401D01*
X-526670Y-231395D01*
X-529210Y-230125D02*
X-531749D01*
X-530479D01*
Y-237743D01*
X-529210Y-236473D01*
X-535558D02*
X-536827Y-237743D01*
X-539366D01*
X-540636Y-236473D01*
Y-231395D01*
X-539366Y-230125D01*
X-536827D01*
X-535558Y-231395D01*
Y-236473D01*
X-457286Y-1140078D02*
Y-1133730D01*
X-454112D01*
X-453054Y-1134788D01*
Y-1136904D01*
X-454112Y-1137962D01*
X-457286D01*
X-455170D02*
X-453054Y-1140078D01*
X-446706D02*
X-450938D01*
X-446706Y-1135846D01*
Y-1134788D01*
X-447764Y-1133730D01*
X-449880D01*
X-450938Y-1134788D01*
X-444590D02*
X-443532Y-1133730D01*
X-441416D01*
X-440358Y-1134788D01*
Y-1139020D01*
X-441416Y-1140078D01*
X-443532D01*
X-444590Y-1139020D01*
Y-1134788D01*
X-493209Y-903860D02*
Y-910208D01*
X-496383D01*
X-497441Y-909150D01*
Y-907034D01*
X-496383Y-905976D01*
X-493209D01*
X-495325D02*
X-497441Y-903860D01*
X-499557D02*
X-501673D01*
X-500615D01*
Y-910208D01*
X-499557Y-909150D01*
X-504847Y-904918D02*
X-505905Y-903860D01*
X-508021D01*
X-509079Y-904918D01*
Y-909150D01*
X-508021Y-910208D01*
X-505905D01*
X-504847Y-909150D01*
Y-908092D01*
X-505905Y-907034D01*
X-509079D01*
X-609347Y-924070D02*
X-608077Y-922801D01*
Y-920262D01*
X-609347Y-918992D01*
X-614425D01*
X-615695Y-920262D01*
Y-922801D01*
X-614425Y-924070D01*
X-615695Y-926610D02*
Y-929149D01*
Y-927879D01*
X-608077D01*
X-609347Y-926610D01*
X-615695Y-938036D02*
Y-932958D01*
X-610616Y-938036D01*
X-609347D01*
X-608077Y-936766D01*
Y-934227D01*
X-609347Y-932958D01*
X-711711Y-970152D02*
X-712981Y-971421D01*
Y-973960D01*
X-711711Y-975230D01*
X-706633D01*
X-705363Y-973960D01*
Y-971421D01*
X-706633Y-970152D01*
X-705363Y-967612D02*
Y-965073D01*
Y-966343D01*
X-712981D01*
X-711711Y-967612D01*
Y-961264D02*
X-712981Y-959995D01*
Y-957456D01*
X-711711Y-956186D01*
X-710442D01*
X-709172Y-957456D01*
Y-958725D01*
Y-957456D01*
X-707902Y-956186D01*
X-706633D01*
X-705363Y-957456D01*
Y-959995D01*
X-706633Y-961264D01*
X-457286Y-1125346D02*
Y-1118998D01*
X-454112D01*
X-453054Y-1120056D01*
Y-1122172D01*
X-454112Y-1123230D01*
X-457286D01*
X-455170D02*
X-453054Y-1125346D01*
X-446706D02*
X-450938D01*
X-446706Y-1121114D01*
Y-1120056D01*
X-447764Y-1118998D01*
X-449880D01*
X-450938Y-1120056D01*
X-440358Y-1118998D02*
X-442474Y-1120056D01*
X-444590Y-1122172D01*
Y-1124288D01*
X-443532Y-1125346D01*
X-441416D01*
X-440358Y-1124288D01*
Y-1123230D01*
X-441416Y-1122172D01*
X-444590D01*
X-492680Y-888112D02*
Y-894460D01*
X-495854D01*
X-496912Y-893402D01*
Y-891286D01*
X-495854Y-890228D01*
X-492680D01*
X-494796D02*
X-496912Y-888112D01*
X-503260D02*
X-499028D01*
X-503260Y-892344D01*
Y-893402D01*
X-502202Y-894460D01*
X-500086D01*
X-499028Y-893402D01*
X-509608Y-894460D02*
X-505376D01*
Y-891286D01*
X-507492Y-892344D01*
X-508550D01*
X-509608Y-891286D01*
Y-889170D01*
X-508550Y-888112D01*
X-506434D01*
X-505376Y-889170D01*
X-65868Y-845946D02*
Y-839598D01*
X-62694D01*
X-61636Y-840656D01*
Y-842772D01*
X-62694Y-843830D01*
X-65868D01*
X-63752D02*
X-61636Y-845946D01*
X-59520Y-840656D02*
X-58462Y-839598D01*
X-56346D01*
X-55288Y-840656D01*
Y-841714D01*
X-56346Y-842772D01*
X-55288Y-843830D01*
Y-844888D01*
X-56346Y-845946D01*
X-58462D01*
X-59520Y-844888D01*
Y-843830D01*
X-58462Y-842772D01*
X-59520Y-841714D01*
Y-840656D01*
X-58462Y-842772D02*
X-56346D01*
X-48940Y-845946D02*
X-53172D01*
X-48940Y-841714D01*
Y-840656D01*
X-49998Y-839598D01*
X-52114D01*
X-53172Y-840656D01*
X-706633Y-1012826D02*
X-705363Y-1011557D01*
Y-1009018D01*
X-706633Y-1007748D01*
X-711711D01*
X-712981Y-1009018D01*
Y-1011557D01*
X-711711Y-1012826D01*
X-712981Y-1015366D02*
Y-1017905D01*
Y-1016635D01*
X-705363D01*
X-706633Y-1015366D01*
X-712981Y-1025522D02*
X-705363D01*
X-709172Y-1021714D01*
Y-1026792D01*
X-61213Y-822707D02*
X-62482Y-821437D01*
X-65022D01*
X-66291Y-822707D01*
Y-827785D01*
X-65022Y-829055D01*
X-62482D01*
X-61213Y-827785D01*
X-58674D02*
X-57404Y-829055D01*
X-54865D01*
X-53595Y-827785D01*
Y-822707D01*
X-54865Y-821437D01*
X-57404D01*
X-58674Y-822707D01*
Y-823976D01*
X-57404Y-825246D01*
X-53595D01*
X-51056Y-829055D02*
X-48517D01*
X-49786D01*
Y-821437D01*
X-51056Y-822707D01*
X-342058Y-952374D02*
Y-958722D01*
X-345232D01*
X-346290Y-957664D01*
Y-955548D01*
X-345232Y-954490D01*
X-342058D01*
X-344174D02*
X-346290Y-952374D01*
X-348406Y-957664D02*
X-349464Y-958722D01*
X-351580D01*
X-352638Y-957664D01*
Y-956606D01*
X-351580Y-955548D01*
X-352638Y-954490D01*
Y-953432D01*
X-351580Y-952374D01*
X-349464D01*
X-348406Y-953432D01*
Y-954490D01*
X-349464Y-955548D01*
X-348406Y-956606D01*
Y-957664D01*
X-349464Y-955548D02*
X-351580D01*
X-354754Y-957664D02*
X-355812Y-958722D01*
X-357928D01*
X-358986Y-957664D01*
Y-956606D01*
X-357928Y-955548D01*
X-356870D01*
X-357928D01*
X-358986Y-954490D01*
Y-953432D01*
X-357928Y-952374D01*
X-355812D01*
X-354754Y-953432D01*
X-342058Y-967614D02*
Y-973962D01*
X-345232D01*
X-346290Y-972904D01*
Y-970788D01*
X-345232Y-969730D01*
X-342058D01*
X-344174D02*
X-346290Y-967614D01*
X-348406Y-972904D02*
X-349464Y-973962D01*
X-351580D01*
X-352638Y-972904D01*
Y-971846D01*
X-351580Y-970788D01*
X-352638Y-969730D01*
Y-968672D01*
X-351580Y-967614D01*
X-349464D01*
X-348406Y-968672D01*
Y-969730D01*
X-349464Y-970788D01*
X-348406Y-971846D01*
Y-972904D01*
X-349464Y-970788D02*
X-351580D01*
X-357928Y-967614D02*
Y-973962D01*
X-354754Y-970788D01*
X-358986D01*
X-355600Y-982981D02*
X-356870Y-981711D01*
X-359409D01*
X-360679Y-982981D01*
Y-988059D01*
X-359409Y-989329D01*
X-356870D01*
X-355600Y-988059D01*
X-353061D02*
X-351792Y-989329D01*
X-349252D01*
X-347983Y-988059D01*
Y-982981D01*
X-349252Y-981711D01*
X-351792D01*
X-353061Y-982981D01*
Y-984250D01*
X-351792Y-985520D01*
X-347983D01*
X-340365Y-989329D02*
X-345444D01*
X-340365Y-984250D01*
Y-982981D01*
X-341635Y-981711D01*
X-344174D01*
X-345444Y-982981D01*
X-356236Y-938866D02*
X-362584D01*
Y-935692D01*
X-361526Y-934634D01*
X-359410D01*
X-358352Y-935692D01*
Y-938866D01*
Y-936750D02*
X-356236Y-934634D01*
X-361526Y-932518D02*
X-362584Y-931460D01*
Y-929344D01*
X-361526Y-928286D01*
X-360468D01*
X-359410Y-929344D01*
X-358352Y-928286D01*
X-357294D01*
X-356236Y-929344D01*
Y-931460D01*
X-357294Y-932518D01*
X-358352D01*
X-359410Y-931460D01*
X-360468Y-932518D01*
X-361526D01*
X-359410Y-931460D02*
Y-929344D01*
X-362584Y-921938D02*
Y-926170D01*
X-359410D01*
X-360468Y-924054D01*
Y-922996D01*
X-359410Y-921938D01*
X-357294D01*
X-356236Y-922996D01*
Y-925112D01*
X-357294Y-926170D01*
X-38780Y-1008508D02*
Y-1014856D01*
X-41954D01*
X-43012Y-1013798D01*
Y-1011682D01*
X-41954Y-1010624D01*
X-38780D01*
X-40896D02*
X-43012Y-1008508D01*
X-45128Y-1013798D02*
X-46186Y-1014856D01*
X-48302D01*
X-49360Y-1013798D01*
Y-1012740D01*
X-48302Y-1011682D01*
X-47244D01*
X-48302D01*
X-49360Y-1010624D01*
Y-1009566D01*
X-48302Y-1008508D01*
X-46186D01*
X-45128Y-1009566D01*
X-55708Y-1008508D02*
X-51476D01*
X-55708Y-1012740D01*
Y-1013798D01*
X-54650Y-1014856D01*
X-52534D01*
X-51476Y-1013798D01*
X-346709Y-935480D02*
X-347979Y-936750D01*
Y-939289D01*
X-346709Y-940559D01*
X-341631D01*
X-340361Y-939289D01*
Y-936750D01*
X-341631Y-935480D01*
Y-932941D02*
X-340361Y-931672D01*
Y-929132D01*
X-341631Y-927863D01*
X-346709D01*
X-347979Y-929132D01*
Y-931672D01*
X-346709Y-932941D01*
X-345440D01*
X-344170Y-931672D01*
Y-927863D01*
X-346709Y-925324D02*
X-347979Y-924054D01*
Y-921515D01*
X-346709Y-920245D01*
X-345440D01*
X-344170Y-921515D01*
Y-922784D01*
Y-921515D01*
X-342900Y-920245D01*
X-341631D01*
X-340361Y-921515D01*
Y-924054D01*
X-341631Y-925324D01*
X-624841Y-1051308D02*
X-623571Y-1050038D01*
Y-1047499D01*
X-624841Y-1046229D01*
X-629919D01*
X-631189Y-1047499D01*
Y-1050038D01*
X-629919Y-1051308D01*
X-631189Y-1058925D02*
Y-1053847D01*
X-626110Y-1058925D01*
X-624841D01*
X-623571Y-1057656D01*
Y-1055116D01*
X-624841Y-1053847D01*
X-631189Y-1066543D02*
Y-1061464D01*
X-626110Y-1066543D01*
X-624841D01*
X-623571Y-1065273D01*
Y-1062734D01*
X-624841Y-1061464D01*
D19*
X-417942Y-42500D02*
G03*
X-417942Y-42500I-1414J0D01*
G01*
X-551542Y-89072D02*
G03*
X-551542Y-89072I-1414J0D01*
G01*
X-617678Y-968088D02*
Y-948088D01*
Y-968088D02*
X-579678D01*
Y-948088D01*
X-617678D02*
X-579678D01*
X-699116Y-1034362D02*
Y-949362D01*
X-649116D01*
Y-1034362D02*
Y-949362D01*
X-699116Y-1034362D02*
X-649116D01*
X-252490Y-43592D02*
X-222490D01*
X-252490Y-31592D02*
X-222490D01*
Y-43592D02*
Y-31592D01*
X-252490Y-43592D02*
Y-31592D01*
X-210186Y-66500D02*
X-200186D01*
Y-60500D01*
X-210186D02*
X-200186D01*
X-236186Y-70500D02*
X-226186D01*
X-236186Y-75500D02*
Y-70500D01*
Y-75500D02*
X-226186D01*
X-236186Y-51500D02*
X-226186D01*
X-236186Y-56500D02*
Y-51500D01*
Y-56500D02*
X-226186D01*
Y-79500D02*
Y-48500D01*
Y-79500D02*
X-210186D01*
Y-48500D01*
X-226186D02*
X-210186D01*
X-320308Y-95854D02*
X-290308D01*
Y-107854D02*
Y-95854D01*
X-320308Y-107854D02*
X-290308D01*
X-320308D02*
Y-95854D01*
X-424356Y-88500D02*
Y-37500D01*
X-384356Y-88500D02*
Y-37500D01*
X-424356Y-88500D02*
X-384356D01*
X-424356Y-37500D02*
X-384356D01*
X-434356Y-42500D02*
X-424356D01*
X-434356Y-45500D02*
Y-42500D01*
Y-45500D02*
X-424356D01*
X-434356Y-55500D02*
X-424356D01*
X-434356Y-58500D02*
Y-55500D01*
Y-58500D02*
X-424356D01*
X-434356Y-68500D02*
X-424356D01*
X-434356Y-71500D02*
Y-68500D01*
Y-71500D02*
X-424356D01*
X-434356Y-80500D02*
X-424356D01*
X-434356Y-83500D02*
Y-80500D01*
Y-83500D02*
X-424356D01*
X-384356Y-42500D02*
X-374356D01*
Y-45500D02*
Y-42500D01*
X-384356Y-45500D02*
X-374356D01*
X-384356Y-55500D02*
X-374356D01*
Y-58500D02*
Y-55500D01*
X-384356Y-58500D02*
X-374356D01*
X-384356Y-68500D02*
X-374356D01*
Y-71500D02*
Y-68500D01*
X-384356Y-71500D02*
X-374356D01*
X-384356Y-80500D02*
X-374356D01*
Y-83500D02*
Y-80500D01*
X-384356Y-83500D02*
X-374356D01*
X-510382Y-57926D02*
Y-27926D01*
X-522382Y-57926D02*
X-510382D01*
X-522382D02*
Y-27926D01*
X-510382D01*
X-597956Y-48072D02*
X-587956D01*
X-597956Y-51072D02*
Y-48072D01*
Y-51072D02*
X-587956D01*
X-597956Y-60072D02*
X-587956D01*
X-597956Y-63072D02*
Y-60072D01*
Y-63072D02*
X-587956D01*
X-597956Y-73072D02*
X-587956D01*
X-597956Y-76072D02*
Y-73072D01*
Y-76072D02*
X-587956D01*
X-597956Y-86072D02*
X-587956D01*
X-597956Y-89072D02*
Y-86072D01*
Y-89072D02*
X-587956D01*
X-547956Y-48072D02*
X-537956D01*
Y-51072D02*
Y-48072D01*
X-547956Y-51072D02*
X-537956D01*
X-547956Y-60072D02*
X-537956D01*
Y-63072D02*
Y-60072D01*
X-547956Y-63072D02*
X-537956D01*
X-547956Y-73072D02*
X-537956D01*
Y-76072D02*
Y-73072D01*
X-547956Y-76072D02*
X-537956D01*
X-547956Y-86072D02*
X-537956D01*
Y-89072D02*
Y-86072D01*
X-547956Y-89072D02*
X-537956D01*
X-587956Y-94072D02*
X-547956D01*
X-587956Y-43072D02*
X-547956D01*
X-587956Y-94072D02*
Y-43072D01*
X-547956Y-94072D02*
Y-43072D01*
X-251618Y-77992D02*
X-239618D01*
Y-47992D01*
X-251618D02*
X-239618D01*
X-251618Y-77992D02*
Y-47992D01*
X-321578Y-30892D02*
Y-18892D01*
Y-30892D02*
X-291578D01*
Y-18892D01*
X-321578D02*
X-291578D01*
X-620508Y-36226D02*
Y-24226D01*
X-650508D02*
X-620508D01*
X-650508Y-36226D02*
Y-24226D01*
Y-36226D02*
X-620508D01*
X-726598Y-53072D02*
X-714598D01*
X-726598Y-83072D02*
Y-53072D01*
Y-83072D02*
X-714598D01*
Y-53072D01*
X-620508Y-115220D02*
Y-103220D01*
X-650508D02*
X-620508D01*
X-650508Y-115220D02*
Y-103220D01*
Y-115220D02*
X-620508D01*
X-460152Y-105588D02*
Y-75588D01*
X-448152D01*
Y-105588D02*
Y-75588D01*
X-460152Y-105588D02*
X-448152D01*
X-757046Y-82818D02*
X-741046D01*
X-757046D02*
Y-51818D01*
X-741046D01*
Y-82818D02*
Y-51818D01*
Y-74818D02*
X-731046D01*
Y-79818D02*
Y-74818D01*
X-741046Y-79818D02*
X-731046D01*
X-741046Y-55818D02*
X-731046D01*
Y-60818D02*
Y-55818D01*
X-741046Y-60818D02*
X-731046D01*
X-767046Y-70818D02*
X-757046D01*
X-767046D02*
Y-64818D01*
X-757046D01*
X-253506Y-96678D02*
X-223506D01*
X-253506Y-84678D02*
X-223506D01*
Y-96678D02*
Y-84678D01*
X-253506Y-96678D02*
Y-84678D01*
X-448152Y-71642D02*
Y-41642D01*
X-460152Y-71642D02*
Y-41642D01*
X-448152D01*
X-460152Y-71642D02*
X-448152D01*
X-685560Y-103474D02*
X-655560D01*
X-685560Y-115474D02*
X-655560D01*
X-685560D02*
Y-103474D01*
X-655560Y-115474D02*
Y-103474D01*
X-684798Y-24226D02*
X-654798D01*
X-684798Y-36226D02*
X-654798D01*
X-684798D02*
Y-24226D01*
X-654798Y-36226D02*
Y-24226D01*
X-522636Y-91708D02*
Y-61708D01*
X-510636Y-91708D02*
Y-61708D01*
X-522636Y-91708D02*
X-510636D01*
X-522636Y-61708D02*
X-510636D01*
X-917208Y-767238D02*
X-887208D01*
X-917208Y-755238D02*
X-887208D01*
Y-767238D02*
Y-755238D01*
X-917208Y-767238D02*
Y-755238D01*
X-344078Y-190346D02*
X-314078D01*
X-344078Y-202346D02*
X-314078D01*
X-344078D02*
Y-190346D01*
X-314078Y-202346D02*
Y-190346D01*
X-234202D02*
X-204202D01*
X-234202Y-202346D02*
X-204202D01*
X-234202D02*
Y-190346D01*
X-204202Y-202346D02*
Y-190346D01*
X-288304Y-190854D02*
X-258304D01*
X-288304Y-202854D02*
X-258304D01*
X-288304D02*
Y-190854D01*
X-258304Y-202854D02*
Y-190854D01*
X-421908Y-370428D02*
X-391908D01*
X-421908Y-382428D02*
X-391908D01*
X-421908D02*
Y-370428D01*
X-391908Y-382428D02*
Y-370428D01*
X-434354Y-238918D02*
X-404354D01*
X-434354Y-226918D02*
X-404354D01*
Y-238918D02*
Y-226918D01*
X-434354Y-238918D02*
Y-226918D01*
X-579470Y-943514D02*
Y-913514D01*
X-591470Y-943514D02*
Y-913514D01*
X-579470D01*
X-591470Y-943514D02*
X-579470D01*
X-649636Y-1041640D02*
X-637636D01*
X-649636Y-1071640D02*
Y-1041640D01*
Y-1071640D02*
X-637636D01*
Y-1041640D01*
X-916700Y-942498D02*
Y-930498D01*
X-886700Y-942498D02*
Y-930498D01*
X-916700D02*
X-886700D01*
X-916700Y-942498D02*
X-886700D01*
X-820942Y-867568D02*
Y-855568D01*
X-790942Y-867568D02*
Y-855568D01*
X-820942D02*
X-790942D01*
X-820942Y-867568D02*
X-790942D01*
X-923558Y-429672D02*
Y-417672D01*
X-893558Y-429672D02*
Y-417672D01*
X-923558D02*
X-893558D01*
X-923558Y-429672D02*
X-893558D01*
X-809004Y-397160D02*
Y-385160D01*
X-779004Y-397160D02*
Y-385160D01*
X-809004D02*
X-779004D01*
X-809004Y-397160D02*
X-779004D01*
X-921018Y-607726D02*
Y-595726D01*
X-891018Y-607726D02*
Y-595726D01*
X-921018D02*
X-891018D01*
X-921018Y-607726D02*
X-891018D01*
X-863360Y-501046D02*
Y-489046D01*
X-833360Y-501046D02*
Y-489046D01*
X-863360D02*
X-833360D01*
X-863360Y-501046D02*
X-833360D01*
X-546114Y-239934D02*
Y-227934D01*
X-516114Y-239934D02*
Y-227934D01*
X-546114D02*
X-516114D01*
X-546114Y-239934D02*
X-516114D01*
X-463822Y-1130904D02*
X-433822D01*
Y-1142904D02*
Y-1130904D01*
X-463822Y-1142904D02*
X-433822D01*
X-463822D02*
Y-1130904D01*
X-516144Y-913034D02*
X-486144D01*
X-516144D02*
Y-901034D01*
X-486144D01*
Y-913034D02*
Y-901034D01*
X-617886Y-943514D02*
X-605886D01*
X-617886Y-913514D02*
X-605886D01*
X-617886Y-943514D02*
Y-913514D01*
X-605886Y-943514D02*
Y-913514D01*
X-715172Y-950708D02*
X-703172D01*
X-715172Y-980708D02*
X-703172D01*
Y-950708D01*
X-715172Y-980708D02*
Y-950708D01*
X-463822Y-1116172D02*
X-433822D01*
Y-1128172D02*
Y-1116172D01*
X-463822Y-1128172D02*
X-433822D01*
X-463822D02*
Y-1116172D01*
X-516144Y-897286D02*
X-486144D01*
X-516144D02*
Y-885286D01*
X-486144D01*
Y-897286D02*
Y-885286D01*
X-72404Y-836772D02*
X-42404D01*
Y-848772D02*
Y-836772D01*
X-72404Y-848772D02*
X-42404D01*
X-72404D02*
Y-836772D01*
X-715172Y-1032270D02*
X-703172D01*
X-715172Y-1002270D02*
X-703172D01*
X-715172Y-1032270D02*
Y-1002270D01*
X-703172Y-1032270D02*
Y-1002270D01*
X-42404Y-831246D02*
Y-819246D01*
X-72404Y-831246D02*
Y-819246D01*
Y-831246D02*
X-42404D01*
X-72404Y-819246D02*
X-42404D01*
X-365522Y-961548D02*
X-335522D01*
X-365522D02*
Y-949548D01*
X-335522D01*
Y-961548D02*
Y-949548D01*
X-365522Y-976788D02*
X-335522D01*
X-365522D02*
Y-964788D01*
X-335522D01*
Y-976788D02*
Y-964788D01*
Y-991520D02*
Y-979520D01*
X-365522Y-991520D02*
Y-979520D01*
Y-991520D02*
X-335522D01*
X-365522Y-979520D02*
X-335522D01*
X-365410Y-945402D02*
Y-915402D01*
X-353410D01*
Y-945402D02*
Y-915402D01*
X-365410Y-945402D02*
X-353410D01*
X-62244Y-1017682D02*
X-32244D01*
X-62244D02*
Y-1005682D01*
X-32244D01*
Y-1017682D02*
Y-1005682D01*
X-350170Y-915402D02*
X-338170D01*
X-350170Y-945402D02*
X-338170D01*
Y-915402D01*
X-350170Y-945402D02*
Y-915402D01*
X-633380Y-1071386D02*
X-621380D01*
X-633380Y-1041386D02*
X-621380D01*
X-633380Y-1071386D02*
Y-1041386D01*
X-621380Y-1071386D02*
Y-1041386D01*
X-681733Y-1004058D02*
X-666498Y-993901D01*
X-681733D02*
X-666498Y-1004058D01*
Y-978666D02*
Y-988823D01*
X-676655Y-978666D01*
X-679194D01*
X-681733Y-981205D01*
Y-986284D01*
X-679194Y-988823D01*
X-421380Y-55882D02*
Y-68578D01*
X-418841Y-71118D01*
X-413763D01*
X-411223Y-68578D01*
Y-55882D01*
X-395989Y-71118D02*
X-406145D01*
X-395989Y-60961D01*
Y-58422D01*
X-398528Y-55882D01*
X-403606D01*
X-406145Y-58422D01*
X-390910Y-71118D02*
X-385832D01*
X-388371D01*
Y-55882D01*
X-390910Y-58422D01*
X-549662Y-75690D02*
Y-62994D01*
X-552201Y-60455D01*
X-557280D01*
X-559819Y-62994D01*
Y-75690D01*
X-564897Y-60455D02*
X-569976D01*
X-567436D01*
Y-75690D01*
X-564897Y-73150D01*
X-577593D02*
X-580132Y-75690D01*
X-585211D01*
X-587750Y-73150D01*
Y-70611D01*
X-585211Y-68072D01*
X-587750Y-65533D01*
Y-62994D01*
X-585211Y-60455D01*
X-580132D01*
X-577593Y-62994D01*
Y-65533D01*
X-580132Y-68072D01*
X-577593Y-70611D01*
Y-73150D01*
X-580132Y-68072D02*
X-585211D01*
M02*
