G04*
G04 #@! TF.GenerationSoftware,Altium Limited,Altium Designer,20.0.2 (26)*
G04*
G04 Layer_Color=65535*
%FSLAX44Y44*%
%MOMM*%
G71*
G01*
G75*
%ADD10C,0.2000*%
%ADD11C,0.6000*%
%ADD12C,0.2500*%
%ADD13C,0.1270*%
%ADD14C,0.1524*%
%ADD15C,0.0000*%
%ADD16C,0.1000*%
%ADD17C,0.2400*%
%ADD18C,0.3000*%
%ADD19C,0.2540*%
%ADD20C,0.4000*%
%ADD21C,0.1500*%
%ADD22C,1.0000*%
%ADD23C,0.1778*%
%ADD24C,0.1300*%
D10*
X-105480Y-965352D02*
G03*
X-105480Y-965352I-1000J0D01*
G01*
X-813274Y-1074754D02*
G03*
X-813274Y-1074754I-1000J0D01*
G01*
X-13978Y-870204D02*
G03*
X-13978Y-870204I-1000J0D01*
G01*
X-107514Y-764538D02*
G03*
X-107514Y-764538I-1000J0D01*
G01*
X-589550Y-239776D02*
G03*
X-589550Y-239776I-1000J0D01*
G01*
X-410340Y-801884D02*
G03*
X-410340Y-801884I-1000J0D01*
G01*
X-509482Y-668788D02*
G03*
X-509482Y-668788I-1000J0D01*
G01*
X-890332Y-266824D02*
G03*
X-890332Y-266824I-1000J0D01*
G01*
X-407372Y-524570D02*
G03*
X-407372Y-524570I-1000J0D01*
G01*
X-409194Y-602760D02*
G03*
X-409194Y-602760I-1000J0D01*
G01*
X-80936Y-469978D02*
G03*
X-80936Y-469978I-1000J0D01*
G01*
X-79920Y-598606D02*
G03*
X-79920Y-598606I-1000J0D01*
G01*
X-410340Y-718024D02*
G03*
X-410340Y-718024I-1000J0D01*
G01*
X-477536Y-238760D02*
G03*
X-477536Y-238760I-1000J0D01*
G01*
X-509482Y-868432D02*
G03*
X-509482Y-868432I-1000J0D01*
G01*
X-101180Y-962152D02*
Y-927852D01*
X-35980Y-962152D02*
Y-927852D01*
X-517480Y-1049356D02*
X-432480D01*
X-517480Y-964356D02*
X-432480D01*
Y-1049356D02*
Y-964356D01*
X-517480Y-1049356D02*
Y-964356D01*
X-942734Y-1029916D02*
Y-1027416D01*
X-896734Y-1029916D02*
Y-1027416D01*
X-942734Y-1057416D02*
Y-1054916D01*
X-896734Y-1057416D02*
Y-1054916D01*
X-942734Y-1027416D02*
X-896734D01*
X-942734Y-1057416D02*
X-896734D01*
X-922000Y-745646D02*
X-915250D01*
X-884750Y-701646D02*
X-878000D01*
X-884750Y-745646D02*
X-878000D01*
Y-706146D02*
Y-701646D01*
Y-745646D02*
Y-741146D01*
X-922000Y-745646D02*
Y-741146D01*
Y-701646D02*
X-915250D01*
X-922000Y-706146D02*
Y-701646D01*
X-699116Y-1034362D02*
X-692116D01*
X-699116D02*
Y-949362D01*
X-692116D01*
X-656116Y-1034362D02*
X-649116D01*
Y-949362D01*
X-656116D02*
X-649116D01*
X-944766Y-969758D02*
X-898766D01*
X-944766Y-999758D02*
X-898766D01*
X-944766Y-972258D02*
Y-969758D01*
X-898766Y-972258D02*
Y-969758D01*
X-944766Y-999758D02*
Y-997258D01*
X-898766Y-999758D02*
Y-997258D01*
X-808162Y-1048128D02*
Y-1000128D01*
X-768162Y-1048128D02*
Y-1000128D01*
X-808162Y-1048128D02*
X-804662D01*
X-808162Y-1000128D02*
X-804662D01*
X-771662Y-1048128D02*
X-768162D01*
X-771662Y-1000128D02*
X-768162D01*
X-238916Y-384446D02*
X-161446D01*
X-238916Y-897636D02*
X-238916Y-384446D01*
X-161446Y-897636D02*
X-161446Y-384446D01*
X-238916Y-897636D02*
X-161446D01*
X-768506D02*
X-692306D01*
X-692306Y-384446D01*
X-768506Y-897636D02*
X-768506Y-384446D01*
X-692306D01*
X-237990Y-33342D02*
X-236990D01*
X-237990Y-41842D02*
X-236990D01*
X-211186Y-78500D02*
Y-70750D01*
X-221186Y-78500D02*
X-211186D01*
Y-56250D02*
Y-48500D01*
X-221186D02*
X-211186D01*
X-306308Y-105604D02*
X-304308D01*
X-306308Y-98104D02*
X-304308D01*
X-421106Y-88500D02*
X-386106D01*
X-421106Y-38500D02*
X-386106D01*
Y-88500D02*
Y-38500D01*
X-421106Y-88500D02*
Y-38500D01*
X-551206Y-93072D02*
Y-43072D01*
X-586206Y-93072D02*
Y-43072D01*
Y-93072D02*
X-551206D01*
X-586206Y-43072D02*
X-551206D01*
X-249368Y-63992D02*
Y-61992D01*
X-241868Y-63992D02*
Y-61992D01*
X-307578Y-21142D02*
X-305578D01*
X-307578Y-28642D02*
X-305578D01*
X-636508Y-33976D02*
X-634508D01*
X-636508Y-26476D02*
X-634508D01*
X-716848Y-69072D02*
Y-67072D01*
X-724348Y-69072D02*
Y-67072D01*
X-636508Y-112970D02*
X-634508D01*
X-636508Y-105470D02*
X-634508D01*
X-756046Y-82818D02*
X-746046D01*
X-756046D02*
Y-75068D01*
Y-52818D02*
X-746046D01*
X-756046Y-60568D02*
Y-52818D01*
X-239006Y-86428D02*
X-238006D01*
X-239006Y-94928D02*
X-238006D01*
X-458402Y-57142D02*
Y-56142D01*
X-449902Y-57142D02*
Y-56142D01*
X-671060Y-113724D02*
X-670060D01*
X-671060Y-105224D02*
X-670060D01*
X-670298Y-34476D02*
X-669298D01*
X-670298Y-25976D02*
X-669298D01*
X-512386Y-77208D02*
Y-76208D01*
X-520886Y-77208D02*
Y-76208D01*
X-902708Y-756988D02*
X-901708D01*
X-902708Y-765488D02*
X-901708D01*
X-329578Y-200596D02*
X-328578D01*
X-329578Y-192096D02*
X-328578D01*
X-219702Y-200596D02*
X-218702D01*
X-219702Y-192096D02*
X-218702D01*
X-273804Y-201104D02*
X-272804D01*
X-273804Y-192604D02*
X-272804D01*
X-922762Y-371310D02*
Y-366810D01*
X-916012D01*
X-922762Y-410810D02*
Y-406310D01*
X-878762Y-410810D02*
Y-406310D01*
Y-371310D02*
Y-366810D01*
X-885512Y-410810D02*
X-878762D01*
X-885512Y-366810D02*
X-878762D01*
X-922762Y-410810D02*
X-916012D01*
X-922000Y-883756D02*
Y-879256D01*
X-915250D01*
X-922000Y-923256D02*
Y-918756D01*
X-878000Y-923256D02*
Y-918756D01*
Y-883756D02*
Y-879256D01*
X-884750Y-923256D02*
X-878000D01*
X-884750Y-879256D02*
X-878000D01*
X-922000Y-923256D02*
X-915250D01*
X-922000Y-549936D02*
Y-545436D01*
X-915250D01*
X-922000Y-589436D02*
Y-584936D01*
X-878000Y-589436D02*
Y-584936D01*
Y-549936D02*
Y-545436D01*
X-884750Y-589436D02*
X-878000D01*
X-884750Y-545436D02*
X-878000D01*
X-922000Y-589436D02*
X-915250D01*
X-407408Y-380678D02*
X-406408D01*
X-407408Y-372178D02*
X-406408D01*
X-419854Y-228668D02*
X-418854D01*
X-419854Y-237168D02*
X-418854D01*
X-589720Y-929014D02*
Y-928014D01*
X-581220Y-929014D02*
Y-928014D01*
X-902200Y-940748D02*
X-901200D01*
X-902200Y-932248D02*
X-901200D01*
X-806442Y-865818D02*
X-805442D01*
X-806442Y-857318D02*
X-805442D01*
X-909058Y-427922D02*
X-908058D01*
X-909058Y-419422D02*
X-908058D01*
X-794504Y-395410D02*
X-793504D01*
X-794504Y-386910D02*
X-793504D01*
X-906518Y-605976D02*
X-905518D01*
X-906518Y-597476D02*
X-905518D01*
X-848860Y-499296D02*
X-847860D01*
X-848860Y-490796D02*
X-847860D01*
X-531614Y-238184D02*
X-530614D01*
X-531614Y-229684D02*
X-530614D01*
X-449822Y-1140654D02*
X-447822D01*
X-449822Y-1133154D02*
X-447822D01*
X-502144Y-903284D02*
X-500144D01*
X-502144Y-910784D02*
X-500144D01*
X-607636Y-929014D02*
Y-928014D01*
X-616136Y-929014D02*
Y-928014D01*
X-713422Y-966208D02*
Y-965208D01*
X-704922Y-966208D02*
Y-965208D01*
X-449822Y-1125922D02*
X-447822D01*
X-449822Y-1118422D02*
X-447822D01*
X-502144Y-887536D02*
X-500144D01*
X-502144Y-895036D02*
X-500144D01*
X-58404Y-846522D02*
X-56404D01*
X-58404Y-839022D02*
X-56404D01*
X-704922Y-1017770D02*
Y-1016770D01*
X-713422Y-1017770D02*
Y-1016770D01*
X-57904Y-820996D02*
X-56904D01*
X-57904Y-829496D02*
X-56904D01*
X-351522Y-951798D02*
X-349522D01*
X-351522Y-959298D02*
X-349522D01*
X-351522Y-967038D02*
X-349522D01*
X-351522Y-974538D02*
X-349522D01*
X-351022Y-981270D02*
X-350022D01*
X-351022Y-989770D02*
X-350022D01*
X-355660Y-931402D02*
Y-929402D01*
X-363160Y-931402D02*
Y-929402D01*
X-48244Y-1007932D02*
X-46244D01*
X-48244Y-1015432D02*
X-46244D01*
X-348420Y-930902D02*
Y-929902D01*
X-339920Y-930902D02*
Y-929902D01*
X-623130Y-1056886D02*
Y-1055886D01*
X-631630Y-1056886D02*
Y-1055886D01*
X-230886Y-907085D02*
X-229220Y-905419D01*
X-225888D01*
X-224221Y-907085D01*
Y-908752D01*
X-225888Y-910418D01*
X-224221Y-912084D01*
Y-913750D01*
X-225888Y-915416D01*
X-229220D01*
X-230886Y-913750D01*
Y-912084D01*
X-229220Y-910418D01*
X-230886Y-908752D01*
Y-907085D01*
X-229220Y-910418D02*
X-225888D01*
X-220889Y-907085D02*
X-219223Y-905419D01*
X-215891D01*
X-214225Y-907085D01*
Y-913750D01*
X-215891Y-915416D01*
X-219223D01*
X-220889Y-913750D01*
Y-907085D01*
X-222092Y-382016D02*
X-228756D01*
X-222092Y-375351D01*
Y-373685D01*
X-223758Y-372019D01*
X-227090D01*
X-228756Y-373685D01*
X-179226Y-382016D02*
X-175894D01*
X-177560D01*
Y-372019D01*
X-179226Y-373685D01*
X-184404Y-905673D02*
X-177740D01*
Y-907339D01*
X-184404Y-914004D01*
Y-915670D01*
X-174407Y-914004D02*
X-172741Y-915670D01*
X-169409D01*
X-167743Y-914004D01*
Y-907339D01*
X-169409Y-905673D01*
X-172741D01*
X-174407Y-907339D01*
Y-909006D01*
X-172741Y-910672D01*
X-167743D01*
X-712626Y-902879D02*
X-705962D01*
Y-904545D01*
X-712626Y-911210D01*
Y-912876D01*
X-702629Y-911210D02*
X-700963Y-912876D01*
X-697631D01*
X-695965Y-911210D01*
Y-904545D01*
X-697631Y-902879D01*
X-700963D01*
X-702629Y-904545D01*
Y-906211D01*
X-700963Y-907878D01*
X-695965D01*
X-710692Y-378968D02*
X-707360D01*
X-709026D01*
Y-368971D01*
X-710692Y-370637D01*
X-749240Y-377190D02*
X-755904D01*
X-749240Y-370526D01*
Y-368859D01*
X-750906Y-367193D01*
X-754238D01*
X-755904Y-368859D01*
X-762156Y-905815D02*
X-760490Y-904149D01*
X-757158D01*
X-755491Y-905815D01*
Y-907482D01*
X-757158Y-909148D01*
X-755491Y-910814D01*
Y-912480D01*
X-757158Y-914146D01*
X-760490D01*
X-762156Y-912480D01*
Y-910814D01*
X-760490Y-909148D01*
X-762156Y-907482D01*
Y-905815D01*
X-760490Y-909148D02*
X-757158D01*
X-752159Y-905815D02*
X-750493Y-904149D01*
X-747161D01*
X-745495Y-905815D01*
Y-912480D01*
X-747161Y-914146D01*
X-750493D01*
X-752159Y-912480D01*
Y-905815D01*
D11*
X-504480Y-974356D02*
G03*
X-504480Y-974356I-3000J0D01*
G01*
X-408106Y-48500D02*
G03*
X-408106Y-48500I-3000J0D01*
G01*
X-558206Y-83072D02*
G03*
X-558206Y-83072I-3000J0D01*
G01*
D12*
X-529230Y-962356D02*
G03*
X-529230Y-962356I-1250J0D01*
G01*
X-927250Y-703146D02*
G03*
X-927250Y-703146I-1250J0D01*
G01*
X-431356Y-35700D02*
G03*
X-431356Y-35700I-1250J0D01*
G01*
X-538456Y-95872D02*
G03*
X-538456Y-95872I-1250J0D01*
G01*
X-928012Y-368310D02*
G03*
X-928012Y-368310I-1250J0D01*
G01*
X-927250Y-880756D02*
G03*
X-927250Y-880756I-1250J0D01*
G01*
Y-546936D02*
G03*
X-927250Y-546936I-1250J0D01*
G01*
X-698594Y-95780D02*
X-625594D01*
X-698594Y-41780D02*
X-625594D01*
Y-95780D02*
Y-88780D01*
X-698594Y-95780D02*
Y-88780D01*
Y-48780D02*
Y-41780D01*
X-625594Y-48780D02*
Y-41780D01*
Y-73780D02*
Y-63780D01*
X-698594Y-73780D02*
Y-63780D01*
X-268304Y-69004D02*
Y-59004D01*
X-341304Y-69004D02*
Y-59004D01*
Y-91004D02*
Y-84004D01*
X-268304Y-91004D02*
Y-84004D01*
Y-44004D02*
Y-37004D01*
X-341304Y-44004D02*
Y-37004D01*
Y-91004D02*
X-268304D01*
X-341304Y-37004D02*
X-268304D01*
D13*
X-811408Y-683006D02*
G03*
X-811408Y-683006I-6980J0D01*
G01*
X-885830Y-470916D02*
G03*
X-885830Y-470916I-6980J0D01*
G01*
X-864240Y-968248D02*
G03*
X-864240Y-968248I-6980J0D01*
G01*
X-813186Y-348488D02*
G03*
X-813186Y-348488I-6980J0D01*
G01*
X-929274Y-1105754D02*
Y-1082554D01*
X-896274D01*
X-816274D02*
X-783274D01*
Y-1105754D02*
Y-1082554D01*
X-929274Y-1160554D02*
X-783274D01*
X-24578Y-859204D02*
Y-855454D01*
X-80578D02*
X-24578D01*
X-80578Y-859204D02*
Y-855454D01*
Y-884954D02*
Y-881204D01*
Y-884954D02*
X-24578D01*
Y-881204D01*
X-72514Y-787038D02*
X-47514D01*
X-72514Y-710038D02*
X-47514D01*
X-17514D02*
X-3014D01*
Y-787038D02*
Y-710038D01*
X-17514Y-787038D02*
X-3014D01*
X-10014Y-789538D02*
Y-707538D01*
X-262630Y-301964D02*
Y-276964D01*
X-293630Y-301964D02*
Y-264964D01*
X-262630Y-276964D02*
Y-271964D01*
X-264130Y-270464D02*
X-262630Y-271964D01*
X-264130Y-270464D02*
Y-266964D01*
X-262630Y-265464D01*
X-261130Y-266964D01*
Y-270464D02*
Y-266964D01*
X-262630Y-271964D02*
X-261130Y-270464D01*
X-401590Y-799384D02*
Y-796384D01*
Y-826384D02*
Y-823384D01*
X-371590Y-799384D02*
Y-796384D01*
Y-826384D02*
Y-823384D01*
X-401590Y-796384D02*
X-398590D01*
X-401590Y-826384D02*
X-398590D01*
X-374590Y-796384D02*
X-371590D01*
X-374590Y-826384D02*
X-371590D01*
X-471932Y-668528D02*
Y-638048D01*
X-510032Y-668528D02*
X-471932D01*
X-510032Y-638048D02*
X-471932D01*
X-510032Y-668528D02*
Y-638048D01*
X-138266Y-1080448D02*
X-133466D01*
X-138266Y-1120448D02*
Y-1080448D01*
Y-1120448D02*
X-133466D01*
X-37466Y-1080448D02*
X-32666D01*
Y-1120448D02*
Y-1080448D01*
X-37466Y-1120448D02*
X-32666D01*
X-894582Y-275324D02*
Y-265824D01*
X-901332Y-275324D02*
X-894582D01*
Y-219824D02*
Y-210324D01*
X-901332D02*
X-894582D01*
X-931832Y-275324D02*
X-922832D01*
X-931832Y-210324D02*
X-922832D01*
X-962582Y-275324D02*
X-959832D01*
X-962582Y-210324D02*
X-959832D01*
X-962582Y-275324D02*
Y-210324D01*
X-371622Y-549070D02*
X-368622D01*
X-371622Y-519070D02*
X-368622D01*
X-398622Y-549070D02*
X-395622D01*
X-398622Y-519070D02*
X-395622D01*
X-368622Y-549070D02*
Y-546070D01*
Y-522070D02*
Y-519070D01*
X-398622Y-549070D02*
Y-546070D01*
Y-522070D02*
Y-519070D01*
X-373444Y-627260D02*
X-370444D01*
X-373444Y-597260D02*
X-370444D01*
X-400444Y-627260D02*
X-397444D01*
X-400444Y-597260D02*
X-397444D01*
X-370444Y-627260D02*
Y-624260D01*
Y-600260D02*
Y-597260D01*
X-400444Y-627260D02*
Y-624260D01*
Y-600260D02*
Y-597260D01*
X-78686Y-470978D02*
Y-461478D01*
X-71936D01*
X-78686Y-526478D02*
Y-516978D01*
Y-526478D02*
X-71936D01*
X-50436Y-461478D02*
X-41436D01*
X-50436Y-526478D02*
X-41436D01*
X-13436Y-461478D02*
X-10686D01*
X-13436Y-526478D02*
X-10686D01*
Y-461478D01*
X-77670Y-599606D02*
Y-590106D01*
X-70920D01*
X-77670Y-655106D02*
Y-645606D01*
Y-655106D02*
X-70920D01*
X-49420Y-590106D02*
X-40420D01*
X-49420Y-655106D02*
X-40420D01*
X-12420Y-590106D02*
X-9670D01*
X-12420Y-655106D02*
X-9670D01*
Y-590106D01*
X-374590Y-742524D02*
X-371590D01*
X-374590Y-712524D02*
X-371590D01*
X-401590Y-742524D02*
X-398590D01*
X-401590Y-712524D02*
X-398590D01*
X-371590Y-742524D02*
Y-739524D01*
Y-715524D02*
Y-712524D01*
X-401590Y-742524D02*
Y-739524D01*
Y-715524D02*
Y-712524D01*
X-510032Y-868172D02*
Y-837692D01*
X-471932D01*
X-510032Y-868172D02*
X-471932D01*
Y-837692D01*
X-317240Y-301456D02*
Y-276456D01*
X-348240Y-301456D02*
Y-264456D01*
X-317240Y-276456D02*
Y-271456D01*
X-318740Y-269956D02*
X-317240Y-271456D01*
X-318740Y-269956D02*
Y-266456D01*
X-317240Y-264956D01*
X-315740Y-266456D01*
Y-269956D02*
Y-266456D01*
X-317240Y-271456D02*
X-315740Y-269956D01*
X-205226Y-301456D02*
Y-276456D01*
X-236226Y-301456D02*
Y-264456D01*
X-205226Y-276456D02*
Y-271456D01*
X-206726Y-269956D02*
X-205226Y-271456D01*
X-206726Y-269956D02*
Y-266456D01*
X-205226Y-264956D01*
X-203726Y-266456D01*
Y-269956D02*
Y-266456D01*
X-205226Y-271456D02*
X-203726Y-269956D01*
D14*
X-568198Y-241808D02*
G03*
X-562102Y-241808I3048J0D01*
G01*
X-568198Y-481076D02*
G03*
X-572262Y-481076I-2032J0D01*
G01*
D02*
G03*
X-568198Y-481076I2032J0D01*
G01*
X-573278Y-679958D02*
G03*
X-569214Y-679958I2032J0D01*
G01*
D02*
G03*
X-573278Y-679958I-2032J0D01*
G01*
X-456184Y-240792D02*
G03*
X-450088Y-240792I3048J0D01*
G01*
X-856488Y-693928D02*
X-811784D01*
X-856488Y-734568D02*
X-811784D01*
X-578358Y-241808D02*
X-568198D01*
X-562102D01*
X-551942D01*
X-578358Y-329184D02*
X-551942D01*
X-560578Y-484886D02*
X-537210D01*
X-531114D01*
X-507746D01*
X-560578Y-625094D02*
X-507746D01*
X-561594Y-823976D02*
X-508762D01*
X-532130Y-683768D02*
X-508762D01*
X-538226D02*
X-532130D01*
X-561594D02*
X-538226D01*
X-466344Y-328168D02*
X-439928D01*
X-450088Y-240792D02*
X-439928D01*
X-456184D02*
X-450088D01*
X-466344D02*
X-456184D01*
X-871220Y-868680D02*
X-826516D01*
X-871220Y-828040D02*
X-826516D01*
X-857756Y-400304D02*
X-813052D01*
X-857756Y-359664D02*
X-813052D01*
X-912622Y-524510D02*
Y-479806D01*
X-871982Y-524510D02*
Y-479806D01*
D15*
X-537210Y-484886D02*
G03*
X-531114Y-484886I3048J0D01*
G01*
X-569976Y-479044D02*
G03*
X-569976Y-483108I-249J-2032D01*
G01*
X-570992Y-677926D02*
G03*
X-570992Y-681990I-249J-2032D01*
G01*
X-538226Y-683768D02*
G03*
X-532130Y-683768I3048J0D01*
G01*
D16*
X-618678Y-946588D02*
G03*
X-618678Y-946588I-500J0D01*
G01*
X-808036Y-730600D02*
X-799036D01*
X-808036Y-742600D02*
X-799036D01*
X-808036D02*
Y-730600D01*
X-784036Y-742600D02*
Y-730600D01*
X-793036D02*
X-784036D01*
X-793036Y-742600D02*
X-784036D01*
X-376800Y-833946D02*
X-371300D01*
X-376800Y-841946D02*
X-371300D01*
X-376800D02*
Y-833946D01*
X-359800Y-841946D02*
Y-833946D01*
X-365300D02*
X-359800D01*
X-365300Y-841946D02*
X-359800D01*
X-827024Y-803402D02*
X-826770Y-803148D01*
X-851154Y-803402D02*
X-827024D01*
X-852678Y-801878D02*
X-851154Y-803402D01*
X-852678Y-801878D02*
Y-792988D01*
X-851408Y-791718D01*
X-826770D01*
Y-803148D02*
Y-791718D01*
X-147180Y-706692D02*
X-130180D01*
Y-714692D02*
Y-706692D01*
X-147180Y-714692D02*
Y-706692D01*
Y-714692D02*
X-130180D01*
X-365878Y-997522D02*
X-348878D01*
Y-1005522D02*
Y-997522D01*
X-365878Y-1005522D02*
Y-997522D01*
Y-1005522D02*
X-348878D01*
X-365878Y-1007174D02*
X-348878D01*
Y-1015174D02*
Y-1007174D01*
X-365878Y-1015174D02*
Y-1007174D01*
Y-1015174D02*
X-348878D01*
X-365878Y-1016826D02*
X-348878D01*
Y-1024826D02*
Y-1016826D01*
X-365878Y-1024826D02*
Y-1016826D01*
Y-1024826D02*
X-348878D01*
X-365878Y-1026478D02*
X-348878D01*
Y-1034478D02*
Y-1026478D01*
X-365878Y-1034478D02*
Y-1026478D01*
Y-1034478D02*
X-348878D01*
X-365878Y-1036130D02*
X-348878D01*
Y-1044130D02*
Y-1036130D01*
X-365878Y-1044130D02*
Y-1036130D01*
Y-1044130D02*
X-348878D01*
X-365878Y-1046036D02*
X-348878D01*
Y-1054036D02*
Y-1046036D01*
X-365878Y-1054036D02*
Y-1046036D01*
Y-1054036D02*
X-348878D01*
X-436436Y-1103748D02*
Y-1086748D01*
X-444436Y-1103748D02*
X-436436D01*
X-444436Y-1086748D02*
X-436436D01*
X-444436Y-1103748D02*
Y-1086748D01*
X-446088Y-1103748D02*
Y-1086748D01*
X-454088Y-1103748D02*
X-446088D01*
X-454088Y-1086748D02*
X-446088D01*
X-454088Y-1103748D02*
Y-1086748D01*
X-599558Y-1074864D02*
X-582558D01*
X-599558D02*
Y-1066864D01*
X-582558Y-1074864D02*
Y-1066864D01*
X-599558D02*
X-582558D01*
X-599558Y-1064958D02*
X-582558D01*
X-599558D02*
Y-1056958D01*
X-582558Y-1064958D02*
Y-1056958D01*
X-599558D02*
X-582558D01*
X-460946Y-925186D02*
Y-908186D01*
X-452946D01*
X-460946Y-925186D02*
X-452946D01*
Y-908186D01*
X-451294Y-925186D02*
Y-908186D01*
X-443294D01*
X-451294Y-925186D02*
X-443294D01*
Y-908186D01*
X-441642Y-925186D02*
Y-908186D01*
X-433642D01*
X-441642Y-925186D02*
X-433642D01*
Y-908186D01*
X-462598Y-1103414D02*
Y-1086414D01*
X-470598Y-1103414D02*
X-462598D01*
X-470598Y-1086414D02*
X-462598D01*
X-470598Y-1103414D02*
Y-1086414D01*
X-600320Y-1040066D02*
X-583320D01*
X-600320D02*
Y-1032066D01*
X-583320Y-1040066D02*
Y-1032066D01*
X-600320D02*
X-583320D01*
X-600320Y-1029906D02*
X-583320D01*
X-600320D02*
Y-1021906D01*
X-583320Y-1029906D02*
Y-1021906D01*
X-600320D02*
X-583320D01*
X-462598Y-925186D02*
Y-908186D01*
X-470598Y-925186D02*
X-462598D01*
X-470598Y-908186D02*
X-462598D01*
X-470598Y-925186D02*
Y-908186D01*
X-600320Y-1020254D02*
X-583320D01*
X-600320D02*
Y-1012254D01*
X-583320Y-1020254D02*
Y-1012254D01*
X-600320D02*
X-583320D01*
X-600320Y-1010602D02*
X-583320D01*
X-600320D02*
Y-1002602D01*
X-583320Y-1010602D02*
Y-1002602D01*
X-600320D02*
X-583320D01*
X-480250Y-1103494D02*
Y-1086494D01*
X-472250D01*
X-480250Y-1103494D02*
X-472250D01*
Y-1086494D01*
X-489902Y-1103494D02*
Y-1086494D01*
X-481902D01*
X-489902Y-1103494D02*
X-481902D01*
Y-1086494D01*
X-499554Y-1103414D02*
Y-1086414D01*
X-491554D01*
X-499554Y-1103414D02*
X-491554D01*
Y-1086414D01*
X-508952Y-1103494D02*
Y-1086494D01*
X-500952D01*
X-508952Y-1103494D02*
X-500952D01*
Y-1086494D01*
X-564252Y-952310D02*
X-558752D01*
X-564252Y-960310D02*
X-558752D01*
X-564252D02*
Y-952310D01*
X-547252Y-960310D02*
Y-952310D01*
X-552752D02*
X-547252D01*
X-552752Y-960310D02*
X-547252D01*
X-564252Y-941896D02*
X-558752D01*
X-564252Y-949896D02*
X-558752D01*
X-564252D02*
Y-941896D01*
X-547252Y-949896D02*
Y-941896D01*
X-552752D02*
X-547252D01*
X-552752Y-949896D02*
X-547252D01*
X-399986Y-966842D02*
Y-961342D01*
X-391986Y-966842D02*
Y-961342D01*
X-399986Y-966842D02*
X-391986D01*
X-399986Y-949842D02*
X-391986D01*
X-399986Y-955342D02*
Y-949842D01*
X-391986Y-955342D02*
Y-949842D01*
X-434458Y-1086930D02*
X-428958D01*
X-434458Y-1094930D02*
X-428958D01*
X-434458D02*
Y-1086930D01*
X-417458Y-1094930D02*
Y-1086930D01*
X-422958D02*
X-417458D01*
X-422958Y-1094930D02*
X-417458D01*
X-529454Y-1085660D02*
X-523954D01*
X-529454Y-1093660D02*
X-523954D01*
X-529454D02*
Y-1085660D01*
X-512454Y-1093660D02*
Y-1085660D01*
X-517954D02*
X-512454D01*
X-517954Y-1093660D02*
X-512454D01*
X-564252Y-962216D02*
X-558752D01*
X-564252Y-970216D02*
X-558752D01*
X-564252D02*
Y-962216D01*
X-547252Y-970216D02*
Y-962216D01*
X-552752D02*
X-547252D01*
X-552752Y-970216D02*
X-547252D01*
X-493570Y-636714D02*
X-488070D01*
X-493570Y-628714D02*
X-488070D01*
Y-636714D02*
Y-628714D01*
X-505070Y-636714D02*
Y-628714D01*
Y-636714D02*
X-499570D01*
X-505070Y-628714D02*
X-499570D01*
X-493316Y-836104D02*
X-487816D01*
X-493316Y-828104D02*
X-487816D01*
Y-836104D02*
Y-828104D01*
X-504816Y-836104D02*
Y-828104D01*
Y-836104D02*
X-499316D01*
X-504816Y-828104D02*
X-499316D01*
X-462090Y-670344D02*
Y-653344D01*
X-470090Y-670344D02*
X-462090D01*
X-470090Y-653344D02*
X-462090D01*
X-470090Y-670344D02*
Y-653344D01*
Y-651882D02*
Y-634882D01*
X-462090D01*
X-470090Y-651882D02*
X-462090D01*
Y-634882D01*
Y-868036D02*
Y-851036D01*
X-470090Y-868036D02*
X-462090D01*
X-470090Y-851036D02*
X-462090D01*
X-470090Y-868036D02*
Y-851036D01*
Y-850002D02*
Y-833002D01*
X-462090D01*
X-470090Y-850002D02*
X-462090D01*
Y-833002D01*
X-688458Y-703008D02*
X-671458D01*
X-688458D02*
Y-695008D01*
X-671458Y-703008D02*
Y-695008D01*
X-688458D02*
X-671458D01*
X-684650Y-537400D02*
X-667650D01*
X-684650D02*
Y-529400D01*
X-667650Y-537400D02*
Y-529400D01*
X-684650D02*
X-667650D01*
X-684650Y-525208D02*
X-667650D01*
X-684650D02*
Y-517208D01*
X-667650Y-525208D02*
Y-517208D01*
X-684650D02*
X-667650D01*
X-684650Y-512000D02*
X-667650D01*
X-684650D02*
Y-504000D01*
X-667650Y-512000D02*
Y-504000D01*
X-684650D02*
X-667650D01*
X-684650Y-499554D02*
X-667650D01*
X-684650D02*
Y-491554D01*
X-667650Y-499554D02*
Y-491554D01*
X-684650D02*
X-667650D01*
X-684650Y-487108D02*
X-667650D01*
X-684650D02*
Y-479108D01*
X-667650Y-487108D02*
Y-479108D01*
X-684650D02*
X-667650D01*
X-684650Y-473900D02*
X-667650D01*
X-684650D02*
Y-465900D01*
X-667650Y-473900D02*
Y-465900D01*
X-684650D02*
X-667650D01*
X-684650Y-461200D02*
X-667650D01*
X-684650D02*
Y-453200D01*
X-667650Y-461200D02*
Y-453200D01*
X-684650D02*
X-667650D01*
X-684650Y-448500D02*
X-667650D01*
X-684650D02*
Y-440500D01*
X-667650Y-448500D02*
Y-440500D01*
X-684650D02*
X-667650D01*
X-684650Y-435292D02*
X-667650D01*
X-684650D02*
Y-427292D01*
X-667650Y-435292D02*
Y-427292D01*
X-684650D02*
X-667650D01*
X-157344Y-397700D02*
X-140344D01*
X-157344D02*
Y-389700D01*
X-140344Y-397700D02*
Y-389700D01*
X-157344D02*
X-140344D01*
X-684650Y-410146D02*
X-667650D01*
X-684650D02*
Y-402146D01*
X-667650Y-410146D02*
Y-402146D01*
X-684650D02*
X-667650D01*
X-260470Y-880300D02*
X-243470D01*
X-260470D02*
Y-872300D01*
X-243470Y-880300D02*
Y-872300D01*
X-260470D02*
X-243470D01*
X-260470Y-867854D02*
X-243470D01*
X-260470D02*
Y-859854D01*
X-243470Y-867854D02*
Y-859854D01*
X-260470D02*
X-243470D01*
X-260470Y-855154D02*
X-243470D01*
X-260470D02*
Y-847154D01*
X-243470Y-855154D02*
Y-847154D01*
X-260470D02*
X-243470D01*
X-147180Y-854138D02*
X-130180D01*
X-147180D02*
Y-846138D01*
X-130180Y-854138D02*
Y-846138D01*
X-147180D02*
X-130180D01*
X-260470Y-842200D02*
X-243470D01*
X-260470D02*
Y-834200D01*
X-243470Y-842200D02*
Y-834200D01*
X-260470D02*
X-243470D01*
X-146930Y-839406D02*
X-129930D01*
X-146930D02*
Y-831406D01*
X-129930Y-839406D02*
Y-831406D01*
X-146930D02*
X-129930D01*
X-260470Y-816800D02*
X-243470D01*
X-260470D02*
Y-808800D01*
X-243470Y-816800D02*
Y-808800D01*
X-260470D02*
X-243470D01*
X-146930Y-828484D02*
X-129930D01*
X-146930D02*
Y-820484D01*
X-129930Y-828484D02*
Y-820484D01*
X-146930D02*
X-129930D01*
X-788788Y-499554D02*
X-771788D01*
X-788788D02*
Y-491554D01*
X-771788Y-499554D02*
Y-491554D01*
X-788788D02*
X-771788D01*
X-788788Y-486346D02*
X-771788D01*
X-788788D02*
Y-478346D01*
X-771788Y-486346D02*
Y-478346D01*
X-788788D02*
X-771788D01*
X-258944Y-677100D02*
X-241944D01*
X-258944D02*
Y-669100D01*
X-241944Y-677100D02*
Y-669100D01*
X-258944D02*
X-241944D01*
X-788784Y-563054D02*
X-771784D01*
X-788784D02*
Y-555054D01*
X-771784Y-563054D02*
Y-555054D01*
X-788784D02*
X-771784D01*
X-788784Y-550100D02*
X-771784D01*
X-788784D02*
Y-542100D01*
X-771784Y-550100D02*
Y-542100D01*
X-788784D02*
X-771784D01*
X-788784Y-524446D02*
X-771784D01*
X-788784D02*
Y-516446D01*
X-771784Y-524446D02*
Y-516446D01*
X-788784D02*
X-771784D01*
X-788784Y-511492D02*
X-771784D01*
X-788784D02*
Y-503492D01*
X-771784Y-511492D02*
Y-503492D01*
X-788784D02*
X-771784D01*
X-690236Y-562546D02*
X-673236D01*
X-690236D02*
Y-554546D01*
X-673236Y-562546D02*
Y-554546D01*
X-690236D02*
X-673236D01*
X-788868Y-625792D02*
X-771868D01*
X-788868D02*
Y-617792D01*
X-771868Y-625792D02*
Y-617792D01*
X-788868D02*
X-771868D01*
X-690236Y-575246D02*
X-673236D01*
X-690236D02*
Y-567246D01*
X-673236Y-575246D02*
Y-567246D01*
X-690236D02*
X-673236D01*
X-788868Y-613346D02*
X-771868D01*
X-788868D02*
Y-605346D01*
X-771868Y-613346D02*
Y-605346D01*
X-788868D02*
X-771868D01*
X-690156Y-587946D02*
X-673156D01*
X-690156D02*
Y-579946D01*
X-673156Y-587946D02*
Y-579946D01*
X-690156D02*
X-673156D01*
X-788868Y-587946D02*
X-771868D01*
X-788868D02*
Y-579946D01*
X-771868Y-587946D02*
Y-579946D01*
X-788868D02*
X-771868D01*
X-690316Y-600646D02*
X-673316D01*
X-690316D02*
Y-592646D01*
X-673316Y-600646D02*
Y-592646D01*
X-690316D02*
X-673316D01*
X-788788Y-574992D02*
X-771788D01*
X-788788D02*
Y-566992D01*
X-771788Y-574992D02*
Y-566992D01*
X-788788D02*
X-771788D01*
X-260470Y-473646D02*
X-243470D01*
X-260470D02*
Y-465646D01*
X-243470Y-473646D02*
Y-465646D01*
X-260470D02*
X-243470D01*
X-260470Y-460946D02*
X-243470D01*
X-260470D02*
Y-452946D01*
X-243470Y-460946D02*
Y-452946D01*
X-260470D02*
X-243470D01*
X-364742Y-643184D02*
X-359242D01*
X-364742Y-635184D02*
X-359242D01*
Y-643184D02*
Y-635184D01*
X-376242Y-643184D02*
Y-635184D01*
Y-643184D02*
X-370742D01*
X-376242Y-635184D02*
X-370742D01*
X-364538Y-758126D02*
X-359038D01*
X-364538Y-750126D02*
X-359038D01*
Y-758126D02*
Y-750126D01*
X-376038Y-758126D02*
Y-750126D01*
Y-758126D02*
X-370538D01*
X-376038Y-750126D02*
X-370538D01*
X-362296Y-564444D02*
X-356796D01*
X-362296Y-556444D02*
X-356796D01*
Y-564444D02*
Y-556444D01*
X-373796Y-564444D02*
Y-556444D01*
Y-564444D02*
X-368296D01*
X-373796Y-556444D02*
X-368296D01*
X-557324Y-634936D02*
X-551824D01*
X-557324Y-626936D02*
X-551824D01*
Y-634936D02*
Y-626936D01*
X-568824Y-634936D02*
Y-626936D01*
Y-634936D02*
X-563324D01*
X-568824Y-626936D02*
X-563324D01*
X-559102Y-835850D02*
X-553602D01*
X-559102Y-827850D02*
X-553602D01*
Y-835850D02*
Y-827850D01*
X-570602Y-835850D02*
Y-827850D01*
Y-835850D02*
X-565102D01*
X-570602Y-827850D02*
X-565102D01*
X-486092Y-636388D02*
Y-630888D01*
X-478092Y-636388D02*
Y-630888D01*
X-486092Y-636388D02*
X-478092D01*
X-486092Y-619388D02*
X-478092D01*
X-486092Y-624888D02*
Y-619388D01*
X-478092Y-624888D02*
Y-619388D01*
X-643688Y-682434D02*
X-638188D01*
X-643688Y-674434D02*
X-638188D01*
Y-682434D02*
Y-674434D01*
X-655188Y-682434D02*
Y-674434D01*
Y-682434D02*
X-649688D01*
X-655188Y-674434D02*
X-649688D01*
X-486346Y-835524D02*
Y-830024D01*
X-478346Y-835524D02*
Y-830024D01*
X-486346Y-835524D02*
X-478346D01*
X-486346Y-818524D02*
X-478346D01*
X-486346Y-824024D02*
Y-818524D01*
X-478346Y-824024D02*
Y-818524D01*
X-643434Y-866838D02*
X-637934D01*
X-643434Y-858838D02*
X-637934D01*
Y-866838D02*
Y-858838D01*
X-654934Y-866838D02*
Y-858838D01*
Y-866838D02*
X-649434D01*
X-654934Y-858838D02*
X-649434D01*
X-643688Y-673036D02*
X-638188D01*
X-643688Y-665036D02*
X-638188D01*
Y-673036D02*
Y-665036D01*
X-655188Y-673036D02*
Y-665036D01*
Y-673036D02*
X-649688D01*
X-655188Y-665036D02*
X-649688D01*
X-643434Y-857254D02*
X-637934D01*
X-643434Y-849254D02*
X-637934D01*
Y-857254D02*
Y-849254D01*
X-654934Y-857254D02*
Y-849254D01*
Y-857254D02*
X-649434D01*
X-654934Y-849254D02*
X-649434D01*
X-643688Y-663638D02*
X-638188D01*
X-643688Y-655638D02*
X-638188D01*
Y-663638D02*
Y-655638D01*
X-655188Y-663638D02*
Y-655638D01*
Y-663638D02*
X-649688D01*
X-655188Y-655638D02*
X-649688D01*
X-643434Y-848042D02*
X-637934D01*
X-643434Y-840042D02*
X-637934D01*
Y-848042D02*
Y-840042D01*
X-654934Y-848042D02*
Y-840042D01*
Y-848042D02*
X-649434D01*
X-654934Y-840042D02*
X-649434D01*
X-655188Y-610934D02*
X-649688D01*
X-655188Y-618934D02*
X-649688D01*
X-655188D02*
Y-610934D01*
X-638188Y-618934D02*
Y-610934D01*
X-643688D02*
X-638188D01*
X-643688Y-618934D02*
X-638188D01*
X-643434Y-805116D02*
X-637934D01*
X-643434Y-797116D02*
X-637934D01*
Y-805116D02*
Y-797116D01*
X-654934Y-805116D02*
Y-797116D01*
Y-805116D02*
X-649434D01*
X-654934Y-797116D02*
X-649434D01*
X-643688Y-599630D02*
X-638188D01*
X-643688Y-591630D02*
X-638188D01*
Y-599630D02*
Y-591630D01*
X-655188Y-599630D02*
Y-591630D01*
Y-599630D02*
X-649688D01*
X-655188Y-591630D02*
X-649688D01*
X-643434Y-786320D02*
X-637934D01*
X-643434Y-778320D02*
X-637934D01*
Y-786320D02*
Y-778320D01*
X-654934Y-786320D02*
Y-778320D01*
Y-786320D02*
X-649434D01*
X-654934Y-778320D02*
X-649434D01*
X-643688Y-590232D02*
X-638188D01*
X-643688Y-582232D02*
X-638188D01*
Y-590232D02*
Y-582232D01*
X-655188Y-590232D02*
Y-582232D01*
Y-590232D02*
X-649688D01*
X-655188Y-582232D02*
X-649688D01*
X-643434Y-776922D02*
X-637934D01*
X-643434Y-768922D02*
X-637934D01*
Y-776922D02*
Y-768922D01*
X-654934Y-776922D02*
Y-768922D01*
Y-776922D02*
X-649434D01*
X-654934Y-768922D02*
X-649434D01*
X-655188Y-633540D02*
X-649688D01*
X-655188Y-641540D02*
X-649688D01*
X-655188D02*
Y-633540D01*
X-638188Y-641540D02*
Y-633540D01*
X-643688D02*
X-638188D01*
X-643688Y-641540D02*
X-638188D01*
X-655188Y-601282D02*
X-649688D01*
X-655188Y-609282D02*
X-649688D01*
X-655188D02*
Y-601282D01*
X-638188Y-609282D02*
Y-601282D01*
X-643688D02*
X-638188D01*
X-643688Y-609282D02*
X-638188D01*
X-655188Y-572834D02*
X-649688D01*
X-655188Y-580834D02*
X-649688D01*
X-655188D02*
Y-572834D01*
X-638188Y-580834D02*
Y-572834D01*
X-643688D02*
X-638188D01*
X-643688Y-580834D02*
X-638188D01*
X-655188Y-563436D02*
X-649688D01*
X-655188Y-571436D02*
X-649688D01*
X-655188D02*
Y-563436D01*
X-638188Y-571436D02*
Y-563436D01*
X-643688D02*
X-638188D01*
X-643688Y-571436D02*
X-638188D01*
X-654934Y-818706D02*
X-649434D01*
X-654934Y-826706D02*
X-649434D01*
X-654934D02*
Y-818706D01*
X-637934Y-826706D02*
Y-818706D01*
X-643434D02*
X-637934D01*
X-643434Y-826706D02*
X-637934D01*
X-654934Y-787718D02*
X-649434D01*
X-654934Y-795718D02*
X-649434D01*
X-654934D02*
Y-787718D01*
X-637934Y-795718D02*
Y-787718D01*
X-643434D02*
X-637934D01*
X-643434Y-795718D02*
X-637934D01*
X-654934Y-759524D02*
X-649434D01*
X-654934Y-767524D02*
X-649434D01*
X-654934D02*
Y-759524D01*
X-637934Y-767524D02*
Y-759524D01*
X-643434D02*
X-637934D01*
X-643434Y-767524D02*
X-637934D01*
X-654934Y-750126D02*
X-649434D01*
X-654934Y-758126D02*
X-649434D01*
X-654934D02*
Y-750126D01*
X-637934Y-758126D02*
Y-750126D01*
X-643434D02*
X-637934D01*
X-643434Y-758126D02*
X-637934D01*
X-455521Y-554204D02*
X-450021D01*
X-455521Y-546204D02*
X-450021D01*
Y-554204D02*
Y-546204D01*
X-467021Y-554204D02*
Y-546204D01*
Y-554204D02*
X-461521D01*
X-467021Y-546204D02*
X-461521D01*
X-455521Y-563602D02*
X-450021D01*
X-455521Y-555602D02*
X-450021D01*
Y-563602D02*
Y-555602D01*
X-467021Y-563602D02*
Y-555602D01*
Y-563602D02*
X-461521D01*
X-467021Y-555602D02*
X-461521D01*
X-441246Y-748220D02*
X-435746D01*
X-441246Y-740220D02*
X-435746D01*
Y-748220D02*
Y-740220D01*
X-452746Y-748220D02*
Y-740220D01*
Y-748220D02*
X-447246D01*
X-452746Y-740220D02*
X-447246D01*
X-441246Y-757110D02*
X-435746D01*
X-441246Y-749110D02*
X-435746D01*
Y-757110D02*
Y-749110D01*
X-452746Y-757110D02*
Y-749110D01*
Y-757110D02*
X-447246D01*
X-452746Y-749110D02*
X-447246D01*
X-434388Y-493204D02*
X-428888D01*
X-434388Y-485204D02*
X-428888D01*
Y-493204D02*
Y-485204D01*
X-445888Y-493204D02*
Y-485204D01*
Y-493204D02*
X-440388D01*
X-445888Y-485204D02*
X-440388D01*
X-450406Y-686864D02*
Y-681364D01*
X-458406Y-686864D02*
Y-681364D01*
X-450406D01*
X-458406Y-698364D02*
X-450406D01*
Y-692864D01*
X-458406Y-698364D02*
Y-692864D01*
X-355282Y-782612D02*
Y-765612D01*
X-347282D01*
X-355282Y-782612D02*
X-347282D01*
Y-765612D01*
X-355282Y-819014D02*
Y-802014D01*
X-347282D01*
X-355282Y-819014D02*
X-347282D01*
Y-802014D01*
X-355282Y-588248D02*
Y-571248D01*
X-347282D01*
X-355282Y-588248D02*
X-347282D01*
Y-571248D01*
X-355282Y-624824D02*
Y-607824D01*
X-347282D01*
X-355282Y-624824D02*
X-347282D01*
Y-607824D01*
X-416750Y-824856D02*
Y-807856D01*
X-408750D01*
X-416750Y-824856D02*
X-408750D01*
Y-807856D01*
X-395342Y-841946D02*
X-378342D01*
X-395342D02*
Y-833946D01*
X-378342Y-841946D02*
Y-833946D01*
X-395342D02*
X-378342D01*
X-416366Y-625586D02*
Y-608586D01*
X-408366D01*
X-416366Y-625586D02*
X-408366D01*
Y-608586D01*
X-394704Y-643184D02*
X-377704D01*
X-394704D02*
Y-635184D01*
X-377704Y-643184D02*
Y-635184D01*
X-394704D02*
X-377704D01*
X-347282Y-800726D02*
Y-783726D01*
X-355282Y-800726D02*
X-347282D01*
X-355282Y-783726D02*
X-347282D01*
X-355282Y-800726D02*
Y-783726D01*
X-347282Y-837302D02*
Y-820302D01*
X-355282Y-837302D02*
X-347282D01*
X-355282Y-820302D02*
X-347282D01*
X-355282Y-837302D02*
Y-820302D01*
X-347282Y-606536D02*
Y-589536D01*
X-355282Y-606536D02*
X-347282D01*
X-355282Y-589536D02*
X-347282D01*
X-355282Y-606536D02*
Y-589536D01*
X-347282Y-643620D02*
Y-626620D01*
X-355282Y-643620D02*
X-347282D01*
X-355282Y-626620D02*
X-347282D01*
X-355282Y-643620D02*
Y-626620D01*
Y-695316D02*
Y-678316D01*
X-347282D01*
X-355282Y-695316D02*
X-347282D01*
Y-678316D01*
X-355282Y-731638D02*
Y-714638D01*
X-347282D01*
X-355282Y-731638D02*
X-347282D01*
Y-714638D01*
X-355282Y-502904D02*
Y-485904D01*
X-347282D01*
X-355282Y-502904D02*
X-347282D01*
Y-485904D01*
X-355282Y-539480D02*
Y-522480D01*
X-347282D01*
X-355282Y-539480D02*
X-347282D01*
Y-522480D01*
X-417258Y-741290D02*
Y-724290D01*
X-409258D01*
X-417258Y-741290D02*
X-409258D01*
Y-724290D01*
X-395088Y-758126D02*
X-378088D01*
X-395088D02*
Y-750126D01*
X-378088Y-758126D02*
Y-750126D01*
X-395088D02*
X-378088D01*
X-413956Y-547662D02*
Y-530662D01*
X-405956D01*
X-413956Y-547662D02*
X-405956D01*
Y-530662D01*
X-392214Y-564578D02*
X-375214D01*
X-392214D02*
Y-556578D01*
X-375214Y-564578D02*
Y-556578D01*
X-392214D02*
X-375214D01*
X-347282Y-713524D02*
Y-696524D01*
X-355282Y-713524D02*
X-347282D01*
X-355282Y-696524D02*
X-347282D01*
X-355282Y-713524D02*
Y-696524D01*
X-347282Y-749926D02*
Y-732926D01*
X-355282Y-749926D02*
X-347282D01*
X-355282Y-732926D02*
X-347282D01*
X-355282Y-749926D02*
Y-732926D01*
X-347282Y-521192D02*
Y-504192D01*
X-355282Y-521192D02*
X-347282D01*
X-355282Y-504192D02*
X-347282D01*
X-355282Y-521192D02*
Y-504192D01*
X-347282Y-557768D02*
Y-540768D01*
X-355282Y-557768D02*
X-347282D01*
X-355282Y-540768D02*
X-347282D01*
X-355282Y-557768D02*
Y-540768D01*
X-794052Y-380904D02*
X-785052D01*
X-794052Y-368904D02*
X-785052D01*
Y-380904D02*
Y-368904D01*
X-809052Y-380904D02*
Y-368904D01*
Y-380904D02*
X-800052D01*
X-809052Y-368904D02*
X-800052D01*
X-796338Y-728408D02*
X-790838D01*
X-796338Y-720408D02*
X-790838D01*
Y-728408D02*
Y-720408D01*
X-807838Y-728408D02*
Y-720408D01*
Y-728408D02*
X-802338D01*
X-807838Y-720408D02*
X-802338D01*
X-873366Y-775398D02*
X-856366D01*
X-873366D02*
Y-767398D01*
X-856366Y-775398D02*
Y-767398D01*
X-873366D02*
X-856366D01*
X-848478Y-551370D02*
X-831478D01*
X-848478D02*
Y-543370D01*
X-831478Y-551370D02*
Y-543370D01*
X-848478D02*
X-831478D01*
X-821944Y-577850D02*
Y-566420D01*
X-846582D02*
X-821944D01*
X-847852Y-567690D02*
X-846582Y-566420D01*
X-847852Y-576580D02*
Y-567690D01*
Y-576580D02*
X-846328Y-578104D01*
X-822198D01*
X-821944Y-577850D01*
X-842058Y-515524D02*
X-833058D01*
X-842058Y-503524D02*
X-833058D01*
Y-515524D02*
Y-503524D01*
X-857058Y-515524D02*
Y-503524D01*
Y-515524D02*
X-848058D01*
X-857058Y-503524D02*
X-848058D01*
X-846192Y-781876D02*
X-829192D01*
Y-789876D02*
Y-781876D01*
X-846192Y-789876D02*
Y-781876D01*
Y-789876D02*
X-829192D01*
X-806498Y-853598D02*
X-797498D01*
X-806498Y-841598D02*
X-797498D01*
Y-853598D02*
Y-841598D01*
X-821498Y-853598D02*
Y-841598D01*
Y-853598D02*
X-812498D01*
X-821498Y-841598D02*
X-812498D01*
X-836930Y-455676D02*
Y-444246D01*
X-861568D02*
X-836930D01*
X-862838Y-445516D02*
X-861568Y-444246D01*
X-862838Y-454406D02*
Y-445516D01*
Y-454406D02*
X-861314Y-455930D01*
X-837184D01*
X-836930Y-455676D01*
X-814324Y-995426D02*
X-814070Y-995172D01*
X-838454Y-995426D02*
X-814324D01*
X-839978Y-993902D02*
X-838454Y-995426D01*
X-839978Y-993902D02*
Y-985012D01*
X-838708Y-983742D01*
X-814070D01*
Y-995172D02*
Y-983742D01*
X-832476Y-981900D02*
X-815476D01*
X-832476D02*
Y-973900D01*
X-815476Y-981900D02*
Y-973900D01*
X-832476D02*
X-815476D01*
X-873366Y-765238D02*
X-856366D01*
X-873366D02*
Y-757238D01*
X-856366Y-765238D02*
Y-757238D01*
X-873366D02*
X-856366D01*
X-915224Y-769716D02*
X-906224D01*
X-915224Y-781716D02*
X-906224D01*
X-915224D02*
Y-769716D01*
X-891224Y-781716D02*
Y-769716D01*
X-900224D02*
X-891224D01*
X-900224Y-781716D02*
X-891224D01*
X-882764Y-607504D02*
X-865764D01*
X-882764D02*
Y-599504D01*
X-865764Y-607504D02*
Y-599504D01*
X-882764D02*
X-865764D01*
X-882764Y-609410D02*
X-865764D01*
Y-617410D02*
Y-609410D01*
X-882764Y-617410D02*
Y-609410D01*
Y-617410D02*
X-865764D01*
X-918780Y-610204D02*
X-909780D01*
X-918780Y-622204D02*
X-909780D01*
X-918780D02*
Y-610204D01*
X-894780Y-622204D02*
Y-610204D01*
X-903780D02*
X-894780D01*
X-903780Y-622204D02*
X-894780D01*
X-887082Y-433896D02*
X-870082D01*
Y-441896D02*
Y-433896D01*
X-887082Y-441896D02*
Y-433896D01*
Y-441896D02*
X-870082D01*
X-887082Y-431482D02*
X-870082D01*
X-887082D02*
Y-423482D01*
X-870082Y-431482D02*
Y-423482D01*
X-887082D02*
X-870082D01*
X-921320Y-432150D02*
X-912320D01*
X-921320Y-444150D02*
X-912320D01*
X-921320D02*
Y-432150D01*
X-897320Y-444150D02*
Y-432150D01*
X-906320D02*
X-897320D01*
X-906320Y-444150D02*
X-897320D01*
X-873442Y-947796D02*
Y-930796D01*
X-865442D01*
X-873442Y-947796D02*
X-865442D01*
Y-930796D01*
X-913446Y-945484D02*
X-904446D01*
X-913446Y-957484D02*
X-904446D01*
X-913446D02*
Y-945484D01*
X-889446Y-957484D02*
Y-945484D01*
X-898446D02*
X-889446D01*
X-898446Y-957484D02*
X-889446D01*
X-874840Y-947796D02*
Y-930796D01*
X-882840Y-947796D02*
X-874840D01*
X-882840Y-930796D02*
X-874840D01*
X-882840Y-947796D02*
Y-930796D01*
D17*
X-124266Y-1057448D02*
G03*
X-124266Y-1057448I-1200J0D01*
G01*
D18*
X-617790Y-99514D02*
G03*
X-617790Y-99514I-1832J0D01*
G01*
X-345444Y-33270D02*
G03*
X-345444Y-33270I-1832J0D01*
G01*
D19*
X-259334Y-98044D02*
Y-89662D01*
X-250952Y-81280D01*
Y-76962D01*
X-192786Y-228854D02*
X-189992Y-231648D01*
X-193802Y-228854D02*
X-192786D01*
X-194818D02*
X-193802D01*
X-214630D02*
X-194818D01*
X-218694Y-232918D02*
X-214630Y-228854D01*
X-294132Y-227584D02*
X-283718D01*
X-280162Y-231140D01*
X-355346Y-225298D02*
X-353060D01*
X-349250Y-229108D01*
X-338328D01*
X-335788Y-231648D01*
X-514604Y-639318D02*
X-511302Y-636016D01*
Y-634492D01*
X-506222D01*
X-780406Y-1139796D02*
Y-119796D01*
Y-1139796D02*
X-150406D01*
X-780406Y-119796D02*
X-150406D01*
Y-1139796D02*
Y-119796D01*
X-692306Y-897636D02*
Y-384446D01*
X-768506Y-897636D02*
X-692306D01*
X-768506D02*
Y-384446D01*
X-692306D01*
X-238916Y-384446D02*
X-161446D01*
Y-897636D02*
Y-384446D01*
X-238916Y-897636D02*
X-161446D01*
X-238916D02*
Y-384446D01*
X-225806Y-46482D02*
X-213868Y-34544D01*
X-238760Y-46482D02*
X-225806D01*
X-138941Y-937519D02*
X-144020D01*
X-141481D01*
Y-950215D01*
X-144020Y-952754D01*
X-146559D01*
X-149098Y-950215D01*
X-133863Y-940058D02*
X-131324Y-937519D01*
X-126245D01*
X-123706Y-940058D01*
Y-942597D01*
X-126245Y-945136D01*
X-128785D01*
X-126245D01*
X-123706Y-947676D01*
Y-950215D01*
X-126245Y-952754D01*
X-131324D01*
X-133863Y-950215D01*
X-738635Y-351794D02*
X-741174Y-349255D01*
X-746253D01*
X-748792Y-351794D01*
Y-361951D01*
X-746253Y-364490D01*
X-741174D01*
X-738635Y-361951D01*
X-733557Y-364490D02*
Y-349255D01*
X-723400Y-364490D01*
Y-349255D01*
X-718322Y-364490D02*
X-713243D01*
X-715783D01*
Y-349255D01*
X-718322Y-351794D01*
X-211839Y-358906D02*
X-214379Y-356367D01*
X-219457D01*
X-221996Y-358906D01*
Y-369063D01*
X-219457Y-371602D01*
X-214379D01*
X-211839Y-369063D01*
X-206761Y-371602D02*
Y-356367D01*
X-196604Y-371602D01*
Y-356367D01*
X-181369Y-371602D02*
X-191526D01*
X-181369Y-361445D01*
Y-358906D01*
X-183908Y-356367D01*
X-188987D01*
X-191526Y-358906D01*
X-915927Y-185171D02*
X-921006D01*
X-918466D01*
Y-197867D01*
X-921006Y-200406D01*
X-923545D01*
X-926084Y-197867D01*
X-910849Y-185171D02*
X-900692D01*
Y-187710D01*
X-910849Y-197867D01*
Y-200406D01*
X-70107Y-559525D02*
X-75186D01*
X-72646D01*
Y-572221D01*
X-75186Y-574760D01*
X-77725D01*
X-80264Y-572221D01*
X-54872Y-559525D02*
X-59951Y-562064D01*
X-65029Y-567142D01*
Y-572221D01*
X-62490Y-574760D01*
X-57411D01*
X-54872Y-572221D01*
Y-569682D01*
X-57411Y-567142D01*
X-65029D01*
X-71317Y-430781D02*
X-76396D01*
X-73857D01*
Y-443477D01*
X-76396Y-446016D01*
X-78935D01*
X-81474Y-443477D01*
X-56082Y-430781D02*
X-66239D01*
Y-438399D01*
X-61161Y-435859D01*
X-58621D01*
X-56082Y-438399D01*
Y-443477D01*
X-58621Y-446016D01*
X-63700D01*
X-66239Y-443477D01*
D20*
X-957234Y-1057016D02*
Y-1027816D01*
X-884266Y-999358D02*
Y-970158D01*
D21*
X-157226Y-1051814D02*
Y-1044702D01*
X-167386D02*
X-157226D01*
X-167386Y-1051814D02*
Y-1044702D01*
X-157226Y-1069086D02*
Y-1061974D01*
X-167386Y-1069086D02*
X-157226D01*
X-167386D02*
Y-1061974D01*
X-844550Y-440436D02*
X-837438D01*
Y-430276D01*
X-844550D02*
X-837438D01*
X-861822Y-440436D02*
X-854710D01*
X-861822D02*
Y-430276D01*
X-854710D01*
X-183388Y-1069340D02*
Y-1062228D01*
Y-1069340D02*
X-173228D01*
Y-1062228D01*
X-183388Y-1052068D02*
Y-1044956D01*
X-173228D01*
Y-1052068D02*
Y-1044956D01*
D22*
X-5334Y-49022D02*
X-5334Y-1123188D01*
X-923036Y-5334D02*
X-49022Y-5334D01*
X-5334Y-49022D01*
X-44196Y-1162050D02*
X-5334Y-1123188D01*
X-928116Y-1162050D02*
X-44196D01*
X-966724Y-1123442D02*
X-928116Y-1162050D01*
X-966724Y-49022D02*
X-966724Y-1123442D01*
X-966724Y-49022D02*
X-923036Y-5334D01*
D23*
X-245620Y-1067819D02*
X-250698D01*
Y-1071627D01*
X-248159D01*
X-250698D01*
Y-1075436D01*
X-243081D02*
Y-1067819D01*
X-239272D01*
X-238002Y-1069088D01*
Y-1071627D01*
X-239272Y-1072897D01*
X-243081D01*
X-235463Y-1069088D02*
X-234193Y-1067819D01*
X-231654D01*
X-230385Y-1069088D01*
Y-1070358D01*
X-231654Y-1071627D01*
X-232924D01*
X-231654D01*
X-230385Y-1072897D01*
Y-1074166D01*
X-231654Y-1075436D01*
X-234193D01*
X-235463Y-1074166D01*
X-71884Y-294389D02*
X-76962D01*
Y-298197D01*
X-74423D01*
X-76962D01*
Y-302006D01*
X-69345D02*
Y-294389D01*
X-65536D01*
X-64266Y-295658D01*
Y-298197D01*
X-65536Y-299467D01*
X-69345D01*
X-56649Y-302006D02*
X-61727D01*
X-56649Y-296928D01*
Y-295658D01*
X-57918Y-294389D01*
X-60457D01*
X-61727Y-295658D01*
X-660148Y-155450D02*
X-665226D01*
Y-159259D01*
X-662687D01*
X-665226D01*
Y-163068D01*
X-657608D02*
Y-155450D01*
X-653800D01*
X-652530Y-156720D01*
Y-159259D01*
X-653800Y-160529D01*
X-657608D01*
X-649991Y-163068D02*
X-647452D01*
X-648721D01*
Y-155450D01*
X-649991Y-156720D01*
X-771654Y-1084070D02*
X-770385Y-1082801D01*
Y-1080262D01*
X-771654Y-1078992D01*
X-776732D01*
X-778002Y-1080262D01*
Y-1082801D01*
X-776732Y-1084070D01*
X-774193D01*
Y-1081531D01*
X-778002Y-1086609D02*
X-770385D01*
X-778002Y-1091688D01*
X-770385D01*
Y-1094227D02*
X-778002D01*
Y-1098036D01*
X-776732Y-1099305D01*
X-771654D01*
X-770385Y-1098036D01*
Y-1094227D01*
X-943861Y-1101090D02*
X-938783D01*
X-936244Y-1098551D01*
X-938783Y-1096012D01*
X-943861D01*
Y-1093473D02*
Y-1090933D01*
Y-1092203D01*
X-936244D01*
Y-1093473D01*
Y-1090933D01*
Y-1087124D02*
X-943861D01*
X-936244Y-1082046D01*
X-943861D01*
X-940053Y-1079507D02*
Y-1074429D01*
X-942592Y-1076968D02*
X-937514D01*
X-69088Y-1140209D02*
X-64010Y-1147826D01*
Y-1140209D02*
X-69088Y-1147826D01*
X-87884Y-1140716D02*
X-82806Y-1148334D01*
Y-1140716D02*
X-87884Y-1148334D01*
X-108204Y-1140716D02*
X-103126Y-1148334D01*
Y-1140716D02*
X-108204Y-1148334D01*
X-46736Y-1053595D02*
X-41658Y-1061212D01*
Y-1053595D02*
X-46736Y-1061212D01*
X-45720Y-983491D02*
X-40642Y-991108D01*
Y-983491D02*
X-45720Y-991108D01*
X-58928Y-983745D02*
X-53850Y-991362D01*
Y-983745D02*
X-58928Y-991362D01*
X-119126Y-984507D02*
Y-989585D01*
X-116587Y-992124D01*
X-114048Y-989585D01*
Y-984507D01*
X-111509D02*
Y-992124D01*
X-107700D01*
X-106430Y-990854D01*
Y-985776D01*
X-107700Y-984507D01*
X-111509D01*
X-103891D02*
Y-992124D01*
X-100082D01*
X-98813Y-990854D01*
Y-985776D01*
X-100082Y-984507D01*
X-103891D01*
X-96273Y-988315D02*
X-91195D01*
X-93734Y-985776D02*
Y-990854D01*
X-80012Y-996190D02*
X-81281Y-994921D01*
X-83820D01*
X-85090Y-996190D01*
Y-1001268D01*
X-83820Y-1002538D01*
X-81281D01*
X-80012Y-1001268D01*
Y-998729D01*
X-82551D01*
X-77473Y-1002538D02*
Y-994921D01*
X-72394Y-1002538D01*
Y-994921D01*
X-69855D02*
Y-1002538D01*
X-66046D01*
X-64777Y-1001268D01*
Y-996190D01*
X-66046Y-994921D01*
X-69855D01*
X-70104Y-898654D02*
X-65026Y-906272D01*
Y-898654D02*
X-70104Y-906272D01*
X-57150Y-898654D02*
X-52072Y-906272D01*
Y-898654D02*
X-57150Y-906272D01*
X-43942Y-905002D02*
Y-897384D01*
X-38864Y-905002D01*
Y-897384D01*
X-36325Y-905002D02*
Y-897384D01*
X-32516D01*
X-31246Y-898654D01*
Y-901193D01*
X-32516Y-902463D01*
X-36325D01*
X-33785D02*
X-31246Y-905002D01*
X-23629Y-898654D02*
X-24898Y-897384D01*
X-27437D01*
X-28707Y-898654D01*
Y-899924D01*
X-27437Y-901193D01*
X-24898D01*
X-23629Y-902463D01*
Y-903732D01*
X-24898Y-905002D01*
X-27437D01*
X-28707Y-903732D01*
X-21089Y-897384D02*
X-16011D01*
X-18550D01*
Y-905002D01*
X-87378Y-891796D02*
X-88647Y-890527D01*
X-91186D01*
X-92456Y-891796D01*
Y-896874D01*
X-91186Y-898144D01*
X-88647D01*
X-87378Y-896874D01*
X-84838Y-890527D02*
Y-898144D01*
X-79760D01*
X-77221Y-890527D02*
Y-898144D01*
Y-895605D01*
X-72143Y-890527D01*
X-75951Y-894335D01*
X-72143Y-898144D01*
X-118618Y-897131D02*
Y-904748D01*
X-114809D01*
X-113540Y-903478D01*
Y-898400D01*
X-114809Y-897131D01*
X-118618D01*
X-111000D02*
X-108461D01*
X-109731D01*
Y-904748D01*
X-111000D01*
X-108461D01*
X-100844Y-897131D02*
X-103383D01*
X-104653Y-898400D01*
Y-903478D01*
X-103383Y-904748D01*
X-100844D01*
X-99574Y-903478D01*
Y-898400D01*
X-100844Y-897131D01*
X-50294Y-1139954D02*
X-51563Y-1138684D01*
X-54102D01*
X-55372Y-1139954D01*
Y-1145032D01*
X-54102Y-1146302D01*
X-51563D01*
X-50294Y-1145032D01*
Y-1142493D01*
X-52833D01*
X-47755Y-1146302D02*
Y-1138684D01*
X-42676Y-1146302D01*
Y-1138684D01*
X-40137D02*
Y-1146302D01*
X-36328D01*
X-35059Y-1145032D01*
Y-1139954D01*
X-36328Y-1138684D01*
X-40137D01*
X-142748Y-1140971D02*
Y-1146049D01*
X-140209Y-1148588D01*
X-137670Y-1146049D01*
Y-1140971D01*
X-135131D02*
Y-1148588D01*
X-131322D01*
X-130052Y-1147318D01*
Y-1142240D01*
X-131322Y-1140971D01*
X-135131D01*
X-127513D02*
Y-1148588D01*
X-123704D01*
X-122435Y-1147318D01*
Y-1142240D01*
X-123704Y-1140971D01*
X-127513D01*
X-119895Y-1144779D02*
X-114817D01*
X-117356Y-1142240D02*
Y-1147318D01*
X-67562Y-1055372D02*
X-68832Y-1056641D01*
Y-1059180D01*
X-67562Y-1060450D01*
X-66292D01*
X-65023Y-1059180D01*
Y-1056641D01*
X-63753Y-1055372D01*
X-62484D01*
X-61214Y-1056641D01*
Y-1059180D01*
X-62484Y-1060450D01*
X-68832Y-1052832D02*
X-61214D01*
Y-1049024D01*
X-62484Y-1047754D01*
X-67562D01*
X-68832Y-1049024D01*
Y-1052832D01*
X-61214Y-1045215D02*
X-66292D01*
X-68832Y-1042676D01*
X-66292Y-1040137D01*
X-61214D01*
X-65023D01*
Y-1045215D01*
X-87628Y-1055372D02*
X-88897Y-1056641D01*
Y-1059180D01*
X-87628Y-1060450D01*
X-86358D01*
X-85089Y-1059180D01*
Y-1056641D01*
X-83819Y-1055372D01*
X-82550D01*
X-81280Y-1056641D01*
Y-1059180D01*
X-82550Y-1060450D01*
X-87628Y-1047754D02*
X-88897Y-1049024D01*
Y-1051563D01*
X-87628Y-1052832D01*
X-82550D01*
X-81280Y-1051563D01*
Y-1049024D01*
X-82550Y-1047754D01*
X-88897Y-1045215D02*
X-81280D01*
Y-1040137D01*
X-101092Y-1060958D02*
X-108709D01*
Y-1057149D01*
X-107440Y-1055880D01*
X-104901D01*
X-103631Y-1057149D01*
Y-1060958D01*
Y-1058419D02*
X-101092Y-1055880D01*
X-108709Y-1053341D02*
X-101092Y-1048262D01*
X-108709D02*
X-101092Y-1053341D01*
X-141222Y-1063244D02*
Y-1058166D01*
Y-1060705D01*
X-133604D01*
X-141222Y-1055627D02*
X-133604Y-1050548D01*
X-141222D02*
X-133604Y-1055627D01*
D24*
X-541528Y-948075D02*
Y-955573D01*
X-540028Y-957072D01*
X-537029D01*
X-535530Y-955573D01*
Y-948075D01*
X-532531D02*
X-526533D01*
Y-949574D01*
X-532531Y-955573D01*
Y-957072D01*
X-952246Y-1011575D02*
Y-1020572D01*
X-947747D01*
X-946248Y-1019072D01*
Y-1013074D01*
X-947747Y-1011575D01*
X-952246D01*
X-943249Y-1020572D02*
X-940250D01*
X-941749D01*
Y-1011575D01*
X-943249Y-1013074D01*
X-440534Y-391790D02*
X-442034Y-390291D01*
X-445033D01*
X-446532Y-391790D01*
Y-397789D01*
X-445033Y-399288D01*
X-442034D01*
X-440534Y-397789D01*
X-437535Y-390291D02*
X-431537D01*
Y-391790D01*
X-437535Y-397789D01*
Y-399288D01*
X-84714Y-1024734D02*
X-86213Y-1026234D01*
Y-1029232D01*
X-84714Y-1030732D01*
X-78716D01*
X-77216Y-1029232D01*
Y-1026234D01*
X-78716Y-1024734D01*
X-77216Y-1021735D02*
Y-1018736D01*
Y-1020235D01*
X-86213D01*
X-84714Y-1021735D01*
X-86213Y-1008239D02*
Y-1014237D01*
X-81714D01*
X-83214Y-1011238D01*
Y-1009739D01*
X-81714Y-1008239D01*
X-78716D01*
X-77216Y-1009739D01*
Y-1012738D01*
X-78716Y-1014237D01*
X-831440Y-739008D02*
X-832940Y-737509D01*
X-835938D01*
X-837438Y-739008D01*
Y-745006D01*
X-835938Y-746506D01*
X-832940D01*
X-831440Y-745006D01*
X-823942Y-746506D02*
Y-737509D01*
X-828441Y-742008D01*
X-822443D01*
X-813446Y-746506D02*
X-819444D01*
X-813446Y-740508D01*
Y-739008D01*
X-814945Y-737509D01*
X-817944D01*
X-819444Y-739008D01*
X-813660Y-794126D02*
X-815160Y-792627D01*
X-818158D01*
X-819658Y-794126D01*
Y-800125D01*
X-818158Y-801624D01*
X-815160D01*
X-813660Y-800125D01*
X-806162Y-801624D02*
Y-792627D01*
X-810661Y-797125D01*
X-804663D01*
X-797165Y-801624D02*
Y-792627D01*
X-801664Y-797125D01*
X-795666D01*
X-628626Y-621152D02*
X-630126Y-619653D01*
X-633125D01*
X-634624Y-621152D01*
Y-627150D01*
X-633125Y-628650D01*
X-630126D01*
X-628626Y-627150D01*
X-619629Y-619653D02*
X-622628Y-621152D01*
X-625627Y-624151D01*
Y-627150D01*
X-624128Y-628650D01*
X-621128D01*
X-619629Y-627150D01*
Y-625651D01*
X-621128Y-624151D01*
X-625627D01*
X-610632Y-619653D02*
X-613631Y-621152D01*
X-616630Y-624151D01*
Y-627150D01*
X-615130Y-628650D01*
X-612131D01*
X-610632Y-627150D01*
Y-625651D01*
X-612131Y-624151D01*
X-616630D01*
X-372462Y-845688D02*
X-373961Y-844189D01*
X-376960D01*
X-378460Y-845688D01*
Y-851686D01*
X-376960Y-853186D01*
X-373961D01*
X-372462Y-851686D01*
X-369463Y-845688D02*
X-367963Y-844189D01*
X-364964D01*
X-363465Y-845688D01*
Y-847188D01*
X-364964Y-848688D01*
X-363465Y-850187D01*
Y-851686D01*
X-364964Y-853186D01*
X-367963D01*
X-369463Y-851686D01*
Y-850187D01*
X-367963Y-848688D01*
X-369463Y-847188D01*
Y-845688D01*
X-367963Y-848688D02*
X-364964D01*
X-354468Y-853186D02*
X-360466D01*
X-354468Y-847188D01*
Y-845688D01*
X-355967Y-844189D01*
X-358966D01*
X-360466Y-845688D01*
X-870204Y-796183D02*
Y-805180D01*
X-865705D01*
X-864206Y-803680D01*
Y-797682D01*
X-865705Y-796183D01*
X-870204D01*
X-861207D02*
X-855209D01*
Y-797682D01*
X-861207Y-803680D01*
Y-805180D01*
X-105664Y-868827D02*
Y-877824D01*
X-101166D01*
X-99666Y-876324D01*
Y-870326D01*
X-101166Y-868827D01*
X-105664D01*
X-96667Y-876324D02*
X-95167Y-877824D01*
X-92168D01*
X-90669Y-876324D01*
Y-870326D01*
X-92168Y-868827D01*
X-95167D01*
X-96667Y-870326D01*
Y-871826D01*
X-95167Y-873326D01*
X-90669D01*
X-782467Y-754282D02*
Y-748284D01*
X-786965D01*
Y-751283D01*
Y-748284D01*
X-791464D01*
X-782467Y-757281D02*
X-791464D01*
Y-761780D01*
X-789965Y-763279D01*
X-788465D01*
X-786965Y-761780D01*
Y-757281D01*
Y-761780D01*
X-785466Y-763279D01*
X-783966D01*
X-782467Y-761780D01*
Y-757281D01*
X-783966Y-766278D02*
X-782467Y-767778D01*
Y-770777D01*
X-783966Y-772276D01*
X-785466D01*
X-786965Y-770777D01*
X-788465Y-772276D01*
X-789965D01*
X-791464Y-770777D01*
Y-767778D01*
X-789965Y-766278D01*
X-788465D01*
X-786965Y-767778D01*
X-785466Y-766278D01*
X-783966D01*
X-786965Y-767778D02*
Y-770777D01*
X-98650Y-680359D02*
X-101649D01*
X-100149D01*
Y-687857D01*
X-101649Y-689356D01*
X-103148D01*
X-104648Y-687857D01*
X-95651Y-689356D02*
X-92652D01*
X-94151D01*
Y-680359D01*
X-95651Y-681858D01*
X-846070Y-682137D02*
Y-691134D01*
X-840072D01*
X-832574D02*
Y-682137D01*
X-837073Y-686636D01*
X-831075D01*
X-802894Y-1078484D02*
Y-1069487D01*
X-798395D01*
X-796896Y-1070986D01*
Y-1073986D01*
X-798395Y-1075485D01*
X-802894D01*
X-787899Y-1078484D02*
X-793897D01*
X-787899Y-1072486D01*
Y-1070986D01*
X-789398Y-1069487D01*
X-792397D01*
X-793897Y-1070986D01*
X-274066Y-361696D02*
X-283063D01*
Y-357197D01*
X-281564Y-355698D01*
X-278564D01*
X-277065Y-357197D01*
Y-361696D01*
Y-358697D02*
X-274066Y-355698D01*
Y-352699D02*
Y-349700D01*
Y-351199D01*
X-283063D01*
X-281564Y-352699D01*
Y-345201D02*
X-283063Y-343702D01*
Y-340703D01*
X-281564Y-339203D01*
X-280064D01*
X-278564Y-340703D01*
X-277065Y-339203D01*
X-275565D01*
X-274066Y-340703D01*
Y-343702D01*
X-275565Y-345201D01*
X-277065D01*
X-278564Y-343702D01*
X-280064Y-345201D01*
X-281564D01*
X-278564Y-343702D02*
Y-340703D01*
X-634624Y-651002D02*
Y-642005D01*
X-630126D01*
X-628626Y-643504D01*
Y-646504D01*
X-630126Y-648003D01*
X-634624D01*
X-631625D02*
X-628626Y-651002D01*
X-619629Y-642005D02*
X-625627D01*
Y-646504D01*
X-622628Y-645004D01*
X-621128D01*
X-619629Y-646504D01*
Y-649502D01*
X-621128Y-651002D01*
X-624128D01*
X-625627Y-649502D01*
X-616630Y-643504D02*
X-615130Y-642005D01*
X-612131D01*
X-610632Y-643504D01*
Y-649502D01*
X-612131Y-651002D01*
X-615130D01*
X-616630Y-649502D01*
Y-643504D01*
X-828802Y-664103D02*
X-822804D01*
X-825803D01*
Y-673100D01*
X-819805D02*
Y-664103D01*
X-815306D01*
X-813807Y-665602D01*
Y-668602D01*
X-815306Y-670101D01*
X-819805D01*
X-806309Y-673100D02*
Y-664103D01*
X-810808Y-668602D01*
X-804810D01*
X-305161Y-291846D02*
X-297663D01*
X-296164Y-290347D01*
Y-287348D01*
X-297663Y-285848D01*
X-305161D01*
Y-276851D02*
Y-282849D01*
X-300662D01*
X-302162Y-279850D01*
Y-278350D01*
X-300662Y-276851D01*
X-297663D01*
X-296164Y-278350D01*
Y-281349D01*
X-297663Y-282849D01*
X-599440Y-222505D02*
Y-230002D01*
X-597940Y-231502D01*
X-594941D01*
X-593442Y-230002D01*
Y-222505D01*
X-584445D02*
X-587444Y-224004D01*
X-590443Y-227003D01*
Y-230002D01*
X-588943Y-231502D01*
X-585944D01*
X-584445Y-230002D01*
Y-228503D01*
X-585944Y-227003D01*
X-590443D01*
X-922528Y-684423D02*
Y-691920D01*
X-921029Y-693420D01*
X-918029D01*
X-916530Y-691920D01*
Y-684423D01*
X-913531Y-693420D02*
X-910532D01*
X-912031D01*
Y-684423D01*
X-913531Y-685922D01*
X-906033Y-693420D02*
X-903034D01*
X-904534D01*
Y-684423D01*
X-906033Y-685922D01*
X-563114Y-473603D02*
Y-481101D01*
X-561614Y-482600D01*
X-558615D01*
X-557116Y-481101D01*
Y-473603D01*
X-554117Y-482600D02*
X-551118D01*
X-552617D01*
Y-473603D01*
X-554117Y-475102D01*
X-546619D02*
X-545120Y-473603D01*
X-542121D01*
X-540621Y-475102D01*
Y-476602D01*
X-542121Y-478102D01*
X-543620D01*
X-542121D01*
X-540621Y-479601D01*
Y-481101D01*
X-542121Y-482600D01*
X-545120D01*
X-546619Y-481101D01*
X-398272Y-779419D02*
Y-786917D01*
X-396772Y-788416D01*
X-393773D01*
X-392274Y-786917D01*
Y-779419D01*
X-389275Y-788416D02*
X-386276D01*
X-387775D01*
Y-779419D01*
X-389275Y-780918D01*
X-381777Y-779419D02*
X-375779D01*
Y-780918D01*
X-381777Y-786917D01*
Y-788416D01*
X-631952Y-952901D02*
X-625954Y-961898D01*
Y-952901D02*
X-631952Y-961898D01*
X-622955D02*
X-619956D01*
X-621455D01*
Y-952901D01*
X-622955Y-954400D01*
X-680466Y-931565D02*
X-674468Y-940562D01*
Y-931565D02*
X-680466Y-940562D01*
X-665471D02*
X-671469D01*
X-665471Y-934564D01*
Y-933064D01*
X-666970Y-931565D01*
X-669969D01*
X-671469Y-933064D01*
X-485836Y-680953D02*
X-491834Y-671956D01*
Y-680953D02*
X-485836Y-671956D01*
X-499332D02*
Y-680953D01*
X-494833Y-676455D01*
X-500831D01*
X-913384Y-1003447D02*
Y-1012444D01*
X-908885D01*
X-907386Y-1010945D01*
Y-1004946D01*
X-908885Y-1003447D01*
X-913384D01*
X-898389Y-1012444D02*
X-904387D01*
X-898389Y-1006446D01*
Y-1004946D01*
X-899888Y-1003447D01*
X-902887D01*
X-904387Y-1004946D01*
X-762762Y-1029355D02*
Y-1038352D01*
X-758263D01*
X-756764Y-1036852D01*
Y-1030854D01*
X-758263Y-1029355D01*
X-762762D01*
X-753765Y-1030854D02*
X-752265Y-1029355D01*
X-749266D01*
X-747767Y-1030854D01*
Y-1032354D01*
X-749266Y-1033854D01*
X-750766D01*
X-749266D01*
X-747767Y-1035353D01*
Y-1036852D01*
X-749266Y-1038352D01*
X-752265D01*
X-753765Y-1036852D01*
X-147574Y-704088D02*
Y-695091D01*
X-143076D01*
X-141576Y-696590D01*
Y-699589D01*
X-143076Y-701089D01*
X-147574D01*
X-144575D02*
X-141576Y-704088D01*
X-138577D02*
X-135578D01*
X-137077D01*
Y-695091D01*
X-138577Y-696590D01*
X-131079D02*
X-129580Y-695091D01*
X-126581D01*
X-125081Y-696590D01*
Y-698090D01*
X-126581Y-699589D01*
X-128080D01*
X-126581D01*
X-125081Y-701089D01*
Y-702589D01*
X-126581Y-704088D01*
X-129580D01*
X-131079Y-702589D01*
X-122082Y-696590D02*
X-120583Y-695091D01*
X-117584D01*
X-116084Y-696590D01*
Y-698090D01*
X-117584Y-699589D01*
X-116084Y-701089D01*
Y-702589D01*
X-117584Y-704088D01*
X-120583D01*
X-122082Y-702589D01*
Y-701089D01*
X-120583Y-699589D01*
X-122082Y-698090D01*
Y-696590D01*
X-120583Y-699589D02*
X-117584D01*
X-774446Y-103125D02*
X-777445D01*
X-775946D01*
Y-110623D01*
X-777445Y-112122D01*
X-778944D01*
X-780444Y-110623D01*
X-765449Y-112122D02*
X-771447D01*
X-765449Y-106124D01*
Y-104624D01*
X-766948Y-103125D01*
X-769947D01*
X-771447Y-104624D01*
X-166370Y-1010920D02*
X-157373D01*
Y-1015418D01*
X-158872Y-1016918D01*
X-161871D01*
X-163371Y-1015418D01*
Y-1010920D01*
Y-1013919D02*
X-166370Y-1016918D01*
Y-1019917D02*
Y-1022916D01*
Y-1021417D01*
X-157373D01*
X-158872Y-1019917D01*
X-166370Y-1031913D02*
X-157373D01*
X-161871Y-1027415D01*
Y-1033413D01*
X-158872Y-1036412D02*
X-157373Y-1037911D01*
Y-1040910D01*
X-158872Y-1042410D01*
X-164870D01*
X-166370Y-1040910D01*
Y-1037911D01*
X-164870Y-1036412D01*
X-158872D01*
X-148697Y-1088234D02*
Y-1091233D01*
Y-1089734D01*
X-141200D01*
X-139700Y-1091233D01*
Y-1092732D01*
X-141200Y-1094232D01*
X-139700Y-1080736D02*
X-148697D01*
X-144199Y-1085235D01*
Y-1079237D01*
X-242922Y-20696D02*
X-244422Y-19197D01*
X-247421D01*
X-248920Y-20696D01*
Y-26695D01*
X-247421Y-28194D01*
X-244422D01*
X-242922Y-26695D01*
X-239923D02*
X-238423Y-28194D01*
X-235424D01*
X-233925Y-26695D01*
Y-20696D01*
X-235424Y-19197D01*
X-238423D01*
X-239923Y-20696D01*
Y-22196D01*
X-238423Y-23695D01*
X-233925D01*
X-224928Y-19197D02*
X-227927Y-20696D01*
X-230926Y-23695D01*
Y-26695D01*
X-229426Y-28194D01*
X-226427D01*
X-224928Y-26695D01*
Y-25195D01*
X-226427Y-23695D01*
X-230926D01*
X-206756Y-69489D02*
Y-78486D01*
X-202257D01*
X-200758Y-76986D01*
Y-70988D01*
X-202257Y-69489D01*
X-206756D01*
X-197759Y-78486D02*
X-194760D01*
X-196259D01*
Y-69489D01*
X-197759Y-70988D01*
X-190261D02*
X-188762Y-69489D01*
X-185763D01*
X-184263Y-70988D01*
Y-76986D01*
X-185763Y-78486D01*
X-188762D01*
X-190261Y-76986D01*
Y-70988D01*
X-345440Y-106680D02*
Y-97683D01*
X-340942D01*
X-339442Y-99182D01*
Y-102182D01*
X-340942Y-103681D01*
X-345440D01*
X-342441D02*
X-339442Y-106680D01*
X-336443Y-99182D02*
X-334943Y-97683D01*
X-331944D01*
X-330445Y-99182D01*
Y-100682D01*
X-331944Y-102182D01*
X-330445Y-103681D01*
Y-105181D01*
X-331944Y-106680D01*
X-334943D01*
X-336443Y-105181D01*
Y-103681D01*
X-334943Y-102182D01*
X-336443Y-100682D01*
Y-99182D01*
X-334943Y-102182D02*
X-331944D01*
X-327446Y-99182D02*
X-325946Y-97683D01*
X-322947D01*
X-321448Y-99182D01*
Y-100682D01*
X-322947Y-102182D01*
X-321448Y-103681D01*
Y-105181D01*
X-322947Y-106680D01*
X-325946D01*
X-327446Y-105181D01*
Y-103681D01*
X-325946Y-102182D01*
X-327446Y-100682D01*
Y-99182D01*
X-325946Y-102182D02*
X-322947D01*
X-406908Y-23515D02*
Y-31012D01*
X-405409Y-32512D01*
X-402410D01*
X-400910Y-31012D01*
Y-23515D01*
X-391913Y-32512D02*
X-397911D01*
X-391913Y-26514D01*
Y-25014D01*
X-393412Y-23515D01*
X-396411D01*
X-397911Y-25014D01*
X-388914Y-32512D02*
X-385915D01*
X-387414D01*
Y-23515D01*
X-388914Y-25014D01*
X-535276Y-17419D02*
X-541274D01*
Y-21918D01*
X-538275D01*
X-541274D01*
Y-26416D01*
X-532277Y-17419D02*
Y-26416D01*
X-527778D01*
X-526279Y-24917D01*
Y-23417D01*
X-527778Y-21918D01*
X-532277D01*
X-527778D01*
X-526279Y-20418D01*
Y-18918D01*
X-527778Y-17419D01*
X-532277D01*
X-523280Y-26416D02*
X-520281D01*
X-521780D01*
Y-17419D01*
X-523280Y-18918D01*
X-515782D02*
X-514283Y-17419D01*
X-511284D01*
X-509784Y-18918D01*
Y-20418D01*
X-511284Y-21918D01*
X-512783D01*
X-511284D01*
X-509784Y-23417D01*
Y-24917D01*
X-511284Y-26416D01*
X-514283D01*
X-515782Y-24917D01*
X-614934Y-96159D02*
Y-105156D01*
X-608936D01*
X-599939Y-96159D02*
X-605937D01*
Y-100658D01*
X-602938Y-99158D01*
X-601438D01*
X-599939Y-100658D01*
Y-103657D01*
X-601438Y-105156D01*
X-604437D01*
X-605937Y-103657D01*
X-570738Y-95905D02*
Y-103403D01*
X-569239Y-104902D01*
X-566240D01*
X-564740Y-103403D01*
Y-95905D01*
X-561741Y-104902D02*
X-558742D01*
X-560241D01*
Y-95905D01*
X-561741Y-97404D01*
X-554243D02*
X-552744Y-95905D01*
X-549745D01*
X-548245Y-97404D01*
Y-98904D01*
X-549745Y-100403D01*
X-548245Y-101903D01*
Y-103403D01*
X-549745Y-104902D01*
X-552744D01*
X-554243Y-103403D01*
Y-101903D01*
X-552744Y-100403D01*
X-554243Y-98904D01*
Y-97404D01*
X-552744Y-100403D02*
X-549745D01*
X-265430Y-108712D02*
Y-99715D01*
X-260931D01*
X-259432Y-101214D01*
Y-104213D01*
X-260931Y-105713D01*
X-265430D01*
X-262431D02*
X-259432Y-108712D01*
X-256433Y-101214D02*
X-254933Y-99715D01*
X-251934D01*
X-250435Y-101214D01*
Y-102714D01*
X-251934Y-104213D01*
X-250435Y-105713D01*
Y-107212D01*
X-251934Y-108712D01*
X-254933D01*
X-256433Y-107212D01*
Y-105713D01*
X-254933Y-104213D01*
X-256433Y-102714D01*
Y-101214D01*
X-254933Y-104213D02*
X-251934D01*
X-247436Y-99715D02*
X-241438D01*
Y-101214D01*
X-247436Y-107212D01*
Y-108712D01*
X-290830Y-28956D02*
Y-19959D01*
X-286332D01*
X-284832Y-21458D01*
Y-24457D01*
X-286332Y-25957D01*
X-290830D01*
X-287831D02*
X-284832Y-28956D01*
X-281833Y-21458D02*
X-280333Y-19959D01*
X-277334D01*
X-275835Y-21458D01*
Y-22958D01*
X-277334Y-24457D01*
X-275835Y-25957D01*
Y-27457D01*
X-277334Y-28956D01*
X-280333D01*
X-281833Y-27457D01*
Y-25957D01*
X-280333Y-24457D01*
X-281833Y-22958D01*
Y-21458D01*
X-280333Y-24457D02*
X-277334D01*
X-266838Y-19959D02*
X-269837Y-21458D01*
X-272836Y-24457D01*
Y-27457D01*
X-271336Y-28956D01*
X-268337D01*
X-266838Y-27457D01*
Y-25957D01*
X-268337Y-24457D01*
X-272836D01*
X-620776Y-35306D02*
Y-26309D01*
X-616278D01*
X-614778Y-27808D01*
Y-30807D01*
X-616278Y-32307D01*
X-620776D01*
X-617777D02*
X-614778Y-35306D01*
X-611779Y-27808D02*
X-610279Y-26309D01*
X-607280D01*
X-605781Y-27808D01*
Y-29308D01*
X-607280Y-30807D01*
X-605781Y-32307D01*
Y-33807D01*
X-607280Y-35306D01*
X-610279D01*
X-611779Y-33807D01*
Y-32307D01*
X-610279Y-30807D01*
X-611779Y-29308D01*
Y-27808D01*
X-610279Y-30807D02*
X-607280D01*
X-602782Y-35306D02*
X-599783D01*
X-601282D01*
Y-26309D01*
X-602782Y-27808D01*
X-715772Y-52578D02*
X-724769D01*
Y-48080D01*
X-723270Y-46580D01*
X-720270D01*
X-718771Y-48080D01*
Y-52578D01*
Y-49579D02*
X-715772Y-46580D01*
X-723270Y-43581D02*
X-724769Y-42081D01*
Y-39082D01*
X-723270Y-37583D01*
X-721770D01*
X-720270Y-39082D01*
X-718771Y-37583D01*
X-717271D01*
X-715772Y-39082D01*
Y-42081D01*
X-717271Y-43581D01*
X-718771D01*
X-720270Y-42081D01*
X-721770Y-43581D01*
X-723270D01*
X-720270Y-42081D02*
Y-39082D01*
X-723270Y-34584D02*
X-724769Y-33084D01*
Y-30085D01*
X-723270Y-28586D01*
X-717271D01*
X-715772Y-30085D01*
Y-33084D01*
X-717271Y-34584D01*
X-723270D01*
X-647192Y-131572D02*
Y-122575D01*
X-642693D01*
X-641194Y-124074D01*
Y-127073D01*
X-642693Y-128573D01*
X-647192D01*
X-644193D02*
X-641194Y-131572D01*
X-638195Y-122575D02*
X-632197D01*
Y-124074D01*
X-638195Y-130072D01*
Y-131572D01*
X-629198Y-130072D02*
X-627698Y-131572D01*
X-624699D01*
X-623200Y-130072D01*
Y-124074D01*
X-624699Y-122575D01*
X-627698D01*
X-629198Y-124074D01*
Y-125574D01*
X-627698Y-127073D01*
X-623200D01*
X-340106Y-24785D02*
Y-33782D01*
X-334108D01*
X-331109Y-24785D02*
X-325111D01*
Y-26284D01*
X-331109Y-32283D01*
Y-33782D01*
X-470769Y-95602D02*
Y-101600D01*
X-466270D01*
Y-98601D01*
Y-101600D01*
X-461772D01*
X-470769Y-92603D02*
X-461772D01*
Y-88104D01*
X-463271Y-86605D01*
X-464771D01*
X-466270Y-88104D01*
Y-92603D01*
Y-88104D01*
X-467770Y-86605D01*
X-469270D01*
X-470769Y-88104D01*
Y-92603D01*
X-463271Y-83606D02*
X-461772Y-82106D01*
Y-79107D01*
X-463271Y-77608D01*
X-469270D01*
X-470769Y-79107D01*
Y-82106D01*
X-469270Y-83606D01*
X-467770D01*
X-466270Y-82106D01*
Y-77608D01*
X-759460Y-40533D02*
Y-49530D01*
X-754961D01*
X-753462Y-48031D01*
Y-42032D01*
X-754961Y-40533D01*
X-759460D01*
X-750463Y-42032D02*
X-748963Y-40533D01*
X-745964D01*
X-744465Y-42032D01*
Y-43532D01*
X-745964Y-45031D01*
X-744465Y-46531D01*
Y-48031D01*
X-745964Y-49530D01*
X-748963D01*
X-750463Y-48031D01*
Y-46531D01*
X-748963Y-45031D01*
X-750463Y-43532D01*
Y-42032D01*
X-748963Y-45031D02*
X-745964D01*
X-216252Y-88260D02*
X-217752Y-86761D01*
X-220751D01*
X-222250Y-88260D01*
Y-94258D01*
X-220751Y-95758D01*
X-217752D01*
X-216252Y-94258D01*
X-213253D02*
X-211753Y-95758D01*
X-208754D01*
X-207255Y-94258D01*
Y-88260D01*
X-208754Y-86761D01*
X-211753D01*
X-213253Y-88260D01*
Y-89760D01*
X-211753Y-91259D01*
X-207255D01*
X-198258Y-86761D02*
X-204256D01*
Y-91259D01*
X-201257Y-89760D01*
X-199757D01*
X-198258Y-91259D01*
Y-94258D01*
X-199757Y-95758D01*
X-202756D01*
X-204256Y-94258D01*
X-469778Y-58010D02*
X-471277Y-59510D01*
Y-62509D01*
X-469778Y-64008D01*
X-463779D01*
X-462280Y-62509D01*
Y-59510D01*
X-463779Y-58010D01*
Y-55011D02*
X-462280Y-53511D01*
Y-50512D01*
X-463779Y-49013D01*
X-469778D01*
X-471277Y-50512D01*
Y-53511D01*
X-469778Y-55011D01*
X-468278D01*
X-466778Y-53511D01*
Y-49013D01*
X-462280Y-41515D02*
X-471277D01*
X-466778Y-46014D01*
Y-40016D01*
X-678024Y-124074D02*
X-679523Y-122575D01*
X-682523D01*
X-684022Y-124074D01*
Y-130072D01*
X-682523Y-131572D01*
X-679523D01*
X-678024Y-130072D01*
X-675025Y-124074D02*
X-673525Y-122575D01*
X-670526D01*
X-669027Y-124074D01*
Y-125574D01*
X-670526Y-127073D01*
X-669027Y-128573D01*
Y-130072D01*
X-670526Y-131572D01*
X-673525D01*
X-675025Y-130072D01*
Y-128573D01*
X-673525Y-127073D01*
X-675025Y-125574D01*
Y-124074D01*
X-673525Y-127073D02*
X-670526D01*
X-660030Y-122575D02*
X-666028D01*
Y-127073D01*
X-663029Y-125574D01*
X-661529D01*
X-660030Y-127073D01*
Y-130072D01*
X-661529Y-131572D01*
X-664528D01*
X-666028Y-130072D01*
X-703678Y-27046D02*
X-705178Y-25547D01*
X-708176D01*
X-709676Y-27046D01*
Y-33045D01*
X-708176Y-34544D01*
X-705178D01*
X-703678Y-33045D01*
X-700679Y-27046D02*
X-699179Y-25547D01*
X-696180D01*
X-694681Y-27046D01*
Y-28546D01*
X-696180Y-30045D01*
X-694681Y-31545D01*
Y-33045D01*
X-696180Y-34544D01*
X-699179D01*
X-700679Y-33045D01*
Y-31545D01*
X-699179Y-30045D01*
X-700679Y-28546D01*
Y-27046D01*
X-699179Y-30045D02*
X-696180D01*
X-687183Y-34544D02*
Y-25547D01*
X-691682Y-30045D01*
X-685684D01*
X-503272Y-73274D02*
X-504771Y-71775D01*
X-507771D01*
X-509270Y-73274D01*
Y-79272D01*
X-507771Y-80772D01*
X-504771D01*
X-503272Y-79272D01*
X-500273Y-73274D02*
X-498773Y-71775D01*
X-495774D01*
X-494275Y-73274D01*
Y-74774D01*
X-495774Y-76273D01*
X-494275Y-77773D01*
Y-79272D01*
X-495774Y-80772D01*
X-498773D01*
X-500273Y-79272D01*
Y-77773D01*
X-498773Y-76273D01*
X-500273Y-74774D01*
Y-73274D01*
X-498773Y-76273D02*
X-495774D01*
X-491276Y-73274D02*
X-489776Y-71775D01*
X-486777D01*
X-485278Y-73274D01*
Y-74774D01*
X-486777Y-76273D01*
X-488277D01*
X-486777D01*
X-485278Y-77773D01*
Y-79272D01*
X-486777Y-80772D01*
X-489776D01*
X-491276Y-79272D01*
X-181356Y-1009904D02*
X-172359D01*
Y-1014402D01*
X-173858Y-1015902D01*
X-176857D01*
X-178357Y-1014402D01*
Y-1009904D01*
Y-1012903D02*
X-181356Y-1015902D01*
Y-1018901D02*
Y-1021900D01*
Y-1020401D01*
X-172359D01*
X-173858Y-1018901D01*
Y-1026399D02*
X-172359Y-1027898D01*
Y-1030897D01*
X-173858Y-1032397D01*
X-175358D01*
X-176857Y-1030897D01*
Y-1029398D01*
Y-1030897D01*
X-178357Y-1032397D01*
X-179856D01*
X-181356Y-1030897D01*
Y-1027898D01*
X-179856Y-1026399D01*
Y-1035396D02*
X-181356Y-1036895D01*
Y-1039894D01*
X-179856Y-1041394D01*
X-173858D01*
X-172359Y-1039894D01*
Y-1036895D01*
X-173858Y-1035396D01*
X-175358D01*
X-176857Y-1036895D01*
Y-1041394D01*
X-687832Y-714248D02*
Y-705251D01*
X-683334D01*
X-681834Y-706750D01*
Y-709750D01*
X-683334Y-711249D01*
X-687832D01*
X-684833D02*
X-681834Y-714248D01*
X-678835D02*
X-675836D01*
X-677335D01*
Y-705251D01*
X-678835Y-706750D01*
X-671337D02*
X-669838Y-705251D01*
X-666839D01*
X-665339Y-706750D01*
Y-708250D01*
X-666839Y-709750D01*
X-668338D01*
X-666839D01*
X-665339Y-711249D01*
Y-712748D01*
X-666839Y-714248D01*
X-669838D01*
X-671337Y-712748D01*
X-662340Y-705251D02*
X-656342D01*
Y-706750D01*
X-662340Y-712748D01*
Y-714248D01*
X-665226Y-539496D02*
Y-530499D01*
X-660727D01*
X-659228Y-531998D01*
Y-534997D01*
X-660727Y-536497D01*
X-665226D01*
X-662227D02*
X-659228Y-539496D01*
X-656229D02*
X-653230D01*
X-654729D01*
Y-530499D01*
X-656229Y-531998D01*
X-648731D02*
X-647232Y-530499D01*
X-644233D01*
X-642733Y-531998D01*
Y-533498D01*
X-644233Y-534997D01*
X-645732D01*
X-644233D01*
X-642733Y-536497D01*
Y-537996D01*
X-644233Y-539496D01*
X-647232D01*
X-648731Y-537996D01*
X-633736Y-530499D02*
X-636735Y-531998D01*
X-639734Y-534997D01*
Y-537996D01*
X-638235Y-539496D01*
X-635236D01*
X-633736Y-537996D01*
Y-536497D01*
X-635236Y-534997D01*
X-639734D01*
X-667650Y-525208D02*
Y-516211D01*
X-663151D01*
X-661652Y-517710D01*
Y-520709D01*
X-663151Y-522209D01*
X-667650D01*
X-664651D02*
X-661652Y-525208D01*
X-658653D02*
X-655654D01*
X-657153D01*
Y-516211D01*
X-658653Y-517710D01*
X-651155D02*
X-649656Y-516211D01*
X-646657D01*
X-645157Y-517710D01*
Y-519210D01*
X-646657Y-520709D01*
X-648156D01*
X-646657D01*
X-645157Y-522209D01*
Y-523708D01*
X-646657Y-525208D01*
X-649656D01*
X-651155Y-523708D01*
X-636160Y-516211D02*
X-642158D01*
Y-520709D01*
X-639159Y-519210D01*
X-637660D01*
X-636160Y-520709D01*
Y-523708D01*
X-637660Y-525208D01*
X-640659D01*
X-642158Y-523708D01*
X-667650Y-512000D02*
Y-503003D01*
X-663151D01*
X-661652Y-504502D01*
Y-507501D01*
X-663151Y-509001D01*
X-667650D01*
X-664651D02*
X-661652Y-512000D01*
X-658653D02*
X-655654D01*
X-657153D01*
Y-503003D01*
X-658653Y-504502D01*
X-651155D02*
X-649656Y-503003D01*
X-646657D01*
X-645157Y-504502D01*
Y-506002D01*
X-646657Y-507501D01*
X-648156D01*
X-646657D01*
X-645157Y-509001D01*
Y-510500D01*
X-646657Y-512000D01*
X-649656D01*
X-651155Y-510500D01*
X-642158Y-504502D02*
X-640659Y-503003D01*
X-637660D01*
X-636160Y-504502D01*
Y-506002D01*
X-637660Y-507501D01*
X-639159D01*
X-637660D01*
X-636160Y-509001D01*
Y-510500D01*
X-637660Y-512000D01*
X-640659D01*
X-642158Y-510500D01*
X-667650Y-499554D02*
Y-490557D01*
X-663151D01*
X-661652Y-492056D01*
Y-495055D01*
X-663151Y-496555D01*
X-667650D01*
X-664651D02*
X-661652Y-499554D01*
X-658653D02*
X-655654D01*
X-657153D01*
Y-490557D01*
X-658653Y-492056D01*
X-651155D02*
X-649656Y-490557D01*
X-646657D01*
X-645157Y-492056D01*
Y-493556D01*
X-646657Y-495055D01*
X-648156D01*
X-646657D01*
X-645157Y-496555D01*
Y-498055D01*
X-646657Y-499554D01*
X-649656D01*
X-651155Y-498055D01*
X-642158Y-499554D02*
X-639159D01*
X-640659D01*
Y-490557D01*
X-642158Y-492056D01*
X-667650Y-487108D02*
Y-478111D01*
X-663151D01*
X-661652Y-479610D01*
Y-482609D01*
X-663151Y-484109D01*
X-667650D01*
X-664651D02*
X-661652Y-487108D01*
X-658653D02*
X-655654D01*
X-657153D01*
Y-478111D01*
X-658653Y-479610D01*
X-651155D02*
X-649656Y-478111D01*
X-646657D01*
X-645157Y-479610D01*
Y-481110D01*
X-646657Y-482609D01*
X-648156D01*
X-646657D01*
X-645157Y-484109D01*
Y-485608D01*
X-646657Y-487108D01*
X-649656D01*
X-651155Y-485608D01*
X-642158Y-479610D02*
X-640659Y-478111D01*
X-637660D01*
X-636160Y-479610D01*
Y-485608D01*
X-637660Y-487108D01*
X-640659D01*
X-642158Y-485608D01*
Y-479610D01*
X-651764Y-473202D02*
Y-464205D01*
X-647265D01*
X-645766Y-465704D01*
Y-468703D01*
X-647265Y-470203D01*
X-651764D01*
X-648765D02*
X-645766Y-473202D01*
X-642767D02*
X-639768D01*
X-641267D01*
Y-464205D01*
X-642767Y-465704D01*
X-629271Y-473202D02*
X-635269D01*
X-629271Y-467204D01*
Y-465704D01*
X-630771Y-464205D01*
X-633770D01*
X-635269Y-465704D01*
X-626272Y-471702D02*
X-624773Y-473202D01*
X-621774D01*
X-620274Y-471702D01*
Y-465704D01*
X-621774Y-464205D01*
X-624773D01*
X-626272Y-465704D01*
Y-467204D01*
X-624773Y-468703D01*
X-620274D01*
X-666242Y-459740D02*
Y-450743D01*
X-661743D01*
X-660244Y-452242D01*
Y-455242D01*
X-661743Y-456741D01*
X-666242D01*
X-663243D02*
X-660244Y-459740D01*
X-657245D02*
X-654246D01*
X-655745D01*
Y-450743D01*
X-657245Y-452242D01*
X-643749Y-459740D02*
X-649747D01*
X-643749Y-453742D01*
Y-452242D01*
X-645249Y-450743D01*
X-648248D01*
X-649747Y-452242D01*
X-640750D02*
X-639251Y-450743D01*
X-636252D01*
X-634752Y-452242D01*
Y-453742D01*
X-636252Y-455242D01*
X-634752Y-456741D01*
Y-458241D01*
X-636252Y-459740D01*
X-639251D01*
X-640750Y-458241D01*
Y-456741D01*
X-639251Y-455242D01*
X-640750Y-453742D01*
Y-452242D01*
X-639251Y-455242D02*
X-636252D01*
X-665734Y-446786D02*
Y-437789D01*
X-661236D01*
X-659736Y-439288D01*
Y-442287D01*
X-661236Y-443787D01*
X-665734D01*
X-662735D02*
X-659736Y-446786D01*
X-656737D02*
X-653738D01*
X-655237D01*
Y-437789D01*
X-656737Y-439288D01*
X-643241Y-446786D02*
X-649239D01*
X-643241Y-440788D01*
Y-439288D01*
X-644741Y-437789D01*
X-647740D01*
X-649239Y-439288D01*
X-640242Y-437789D02*
X-634244D01*
Y-439288D01*
X-640242Y-445286D01*
Y-446786D01*
X-665480Y-431038D02*
Y-422041D01*
X-660982D01*
X-659482Y-423540D01*
Y-426539D01*
X-660982Y-428039D01*
X-665480D01*
X-662481D02*
X-659482Y-431038D01*
X-656483D02*
X-653484D01*
X-654983D01*
Y-422041D01*
X-656483Y-423540D01*
X-642987Y-431038D02*
X-648985D01*
X-642987Y-425040D01*
Y-423540D01*
X-644487Y-422041D01*
X-647486D01*
X-648985Y-423540D01*
X-633990Y-422041D02*
X-636989Y-423540D01*
X-639988Y-426539D01*
Y-429538D01*
X-638489Y-431038D01*
X-635490D01*
X-633990Y-429538D01*
Y-428039D01*
X-635490Y-426539D01*
X-639988D01*
X-137922Y-397510D02*
Y-388513D01*
X-133424D01*
X-131924Y-390012D01*
Y-393012D01*
X-133424Y-394511D01*
X-137922D01*
X-134923D02*
X-131924Y-397510D01*
X-128925D02*
X-125926D01*
X-127425D01*
Y-388513D01*
X-128925Y-390012D01*
X-115429Y-397510D02*
X-121427D01*
X-115429Y-391512D01*
Y-390012D01*
X-116929Y-388513D01*
X-119928D01*
X-121427Y-390012D01*
X-106432Y-388513D02*
X-112430D01*
Y-393012D01*
X-109431Y-391512D01*
X-107932D01*
X-106432Y-393012D01*
Y-396011D01*
X-107932Y-397510D01*
X-110931D01*
X-112430Y-396011D01*
X-664464Y-410464D02*
Y-401467D01*
X-659966D01*
X-658466Y-402966D01*
Y-405965D01*
X-659966Y-407465D01*
X-664464D01*
X-661465D02*
X-658466Y-410464D01*
X-655467D02*
X-652468D01*
X-653967D01*
Y-401467D01*
X-655467Y-402966D01*
X-641971Y-410464D02*
X-647969D01*
X-641971Y-404466D01*
Y-402966D01*
X-643471Y-401467D01*
X-646470D01*
X-647969Y-402966D01*
X-634474Y-410464D02*
Y-401467D01*
X-638972Y-405965D01*
X-632974D01*
X-338836Y-1005332D02*
Y-996335D01*
X-334338D01*
X-332838Y-997834D01*
Y-1000834D01*
X-334338Y-1002333D01*
X-338836D01*
X-335837D02*
X-332838Y-1005332D01*
X-329839D02*
X-326840D01*
X-328339D01*
Y-996335D01*
X-329839Y-997834D01*
X-316343Y-1005332D02*
X-322341D01*
X-316343Y-999334D01*
Y-997834D01*
X-317843Y-996335D01*
X-320842D01*
X-322341Y-997834D01*
X-313344D02*
X-311845Y-996335D01*
X-308846D01*
X-307346Y-997834D01*
Y-999334D01*
X-308846Y-1000834D01*
X-310345D01*
X-308846D01*
X-307346Y-1002333D01*
Y-1003832D01*
X-308846Y-1005332D01*
X-311845D01*
X-313344Y-1003832D01*
X-338836Y-1015746D02*
Y-1006749D01*
X-334338D01*
X-332838Y-1008248D01*
Y-1011247D01*
X-334338Y-1012747D01*
X-338836D01*
X-335837D02*
X-332838Y-1015746D01*
X-329839D02*
X-326840D01*
X-328339D01*
Y-1006749D01*
X-329839Y-1008248D01*
X-316343Y-1015746D02*
X-322341D01*
X-316343Y-1009748D01*
Y-1008248D01*
X-317843Y-1006749D01*
X-320842D01*
X-322341Y-1008248D01*
X-307346Y-1015746D02*
X-313344D01*
X-307346Y-1009748D01*
Y-1008248D01*
X-308846Y-1006749D01*
X-311845D01*
X-313344Y-1008248D01*
X-338328Y-1026414D02*
Y-1017417D01*
X-333829D01*
X-332330Y-1018916D01*
Y-1021916D01*
X-333829Y-1023415D01*
X-338328D01*
X-335329D02*
X-332330Y-1026414D01*
X-329331D02*
X-326332D01*
X-327831D01*
Y-1017417D01*
X-329331Y-1018916D01*
X-315835Y-1026414D02*
X-321833D01*
X-315835Y-1020416D01*
Y-1018916D01*
X-317335Y-1017417D01*
X-320334D01*
X-321833Y-1018916D01*
X-312836Y-1026414D02*
X-309837D01*
X-311337D01*
Y-1017417D01*
X-312836Y-1018916D01*
X-338984Y-1035812D02*
Y-1026815D01*
X-334486D01*
X-332986Y-1028314D01*
Y-1031313D01*
X-334486Y-1032813D01*
X-338984D01*
X-335985D02*
X-332986Y-1035812D01*
X-329987D02*
X-326988D01*
X-328487D01*
Y-1026815D01*
X-329987Y-1028314D01*
X-316491Y-1035812D02*
X-322489D01*
X-316491Y-1029814D01*
Y-1028314D01*
X-317991Y-1026815D01*
X-320990D01*
X-322489Y-1028314D01*
X-313492D02*
X-311993Y-1026815D01*
X-308994D01*
X-307494Y-1028314D01*
Y-1034313D01*
X-308994Y-1035812D01*
X-311993D01*
X-313492Y-1034313D01*
Y-1028314D01*
X-338836Y-1045210D02*
Y-1036213D01*
X-334338D01*
X-332838Y-1037712D01*
Y-1040712D01*
X-334338Y-1042211D01*
X-338836D01*
X-335837D02*
X-332838Y-1045210D01*
X-329839D02*
X-326840D01*
X-328339D01*
Y-1036213D01*
X-329839Y-1037712D01*
X-322341Y-1045210D02*
X-319342D01*
X-320842D01*
Y-1036213D01*
X-322341Y-1037712D01*
X-314844Y-1043710D02*
X-313344Y-1045210D01*
X-310345D01*
X-308846Y-1043710D01*
Y-1037712D01*
X-310345Y-1036213D01*
X-313344D01*
X-314844Y-1037712D01*
Y-1039212D01*
X-313344Y-1040712D01*
X-308846D01*
X-339598Y-1054100D02*
Y-1045103D01*
X-335099D01*
X-333600Y-1046602D01*
Y-1049602D01*
X-335099Y-1051101D01*
X-339598D01*
X-336599D02*
X-333600Y-1054100D01*
X-330601D02*
X-327602D01*
X-329101D01*
Y-1045103D01*
X-330601Y-1046602D01*
X-323103Y-1054100D02*
X-320104D01*
X-321604D01*
Y-1045103D01*
X-323103Y-1046602D01*
X-315606D02*
X-314106Y-1045103D01*
X-311107D01*
X-309608Y-1046602D01*
Y-1048102D01*
X-311107Y-1049602D01*
X-309608Y-1051101D01*
Y-1052600D01*
X-311107Y-1054100D01*
X-314106D01*
X-315606Y-1052600D01*
Y-1051101D01*
X-314106Y-1049602D01*
X-315606Y-1048102D01*
Y-1046602D01*
X-314106Y-1049602D02*
X-311107D01*
X-434594Y-1104646D02*
Y-1095649D01*
X-430095D01*
X-428596Y-1097148D01*
Y-1100147D01*
X-430095Y-1101647D01*
X-434594D01*
X-431595D02*
X-428596Y-1104646D01*
X-425597D02*
X-422598D01*
X-424097D01*
Y-1095649D01*
X-425597Y-1097148D01*
X-418099Y-1104646D02*
X-415100D01*
X-416600D01*
Y-1095649D01*
X-418099Y-1097148D01*
X-410602Y-1095649D02*
X-404604D01*
Y-1097148D01*
X-410602Y-1103147D01*
Y-1104646D01*
X-453390Y-1114552D02*
Y-1105555D01*
X-448891D01*
X-447392Y-1107054D01*
Y-1110053D01*
X-448891Y-1111553D01*
X-453390D01*
X-450391D02*
X-447392Y-1114552D01*
X-444393D02*
X-441394D01*
X-442893D01*
Y-1105555D01*
X-444393Y-1107054D01*
X-436895Y-1114552D02*
X-433896D01*
X-435396D01*
Y-1105555D01*
X-436895Y-1107054D01*
X-423400Y-1105555D02*
X-426399Y-1107054D01*
X-429398Y-1110053D01*
Y-1113053D01*
X-427898Y-1114552D01*
X-424899D01*
X-423400Y-1113053D01*
Y-1111553D01*
X-424899Y-1110053D01*
X-429398D01*
X-580136Y-1076198D02*
Y-1067201D01*
X-575638D01*
X-574138Y-1068700D01*
Y-1071700D01*
X-575638Y-1073199D01*
X-580136D01*
X-577137D02*
X-574138Y-1076198D01*
X-571139D02*
X-568140D01*
X-569639D01*
Y-1067201D01*
X-571139Y-1068700D01*
X-563641Y-1076198D02*
X-560642D01*
X-562142D01*
Y-1067201D01*
X-563641Y-1068700D01*
X-550146Y-1067201D02*
X-556144D01*
Y-1071700D01*
X-553145Y-1070200D01*
X-551645D01*
X-550146Y-1071700D01*
Y-1074698D01*
X-551645Y-1076198D01*
X-554644D01*
X-556144Y-1074698D01*
X-579882Y-1065276D02*
Y-1056279D01*
X-575383D01*
X-573884Y-1057778D01*
Y-1060778D01*
X-575383Y-1062277D01*
X-579882D01*
X-576883D02*
X-573884Y-1065276D01*
X-570885D02*
X-567886D01*
X-569385D01*
Y-1056279D01*
X-570885Y-1057778D01*
X-563387Y-1065276D02*
X-560388D01*
X-561888D01*
Y-1056279D01*
X-563387Y-1057778D01*
X-551391Y-1065276D02*
Y-1056279D01*
X-555890Y-1060778D01*
X-549892D01*
X-250190Y-913892D02*
X-259187D01*
Y-909393D01*
X-257688Y-907894D01*
X-254688D01*
X-253189Y-909393D01*
Y-913892D01*
Y-910893D02*
X-250190Y-907894D01*
Y-904895D02*
Y-901896D01*
Y-903395D01*
X-259187D01*
X-257688Y-904895D01*
X-250190Y-897397D02*
Y-894398D01*
Y-895898D01*
X-259187D01*
X-257688Y-897397D01*
Y-889900D02*
X-259187Y-888400D01*
Y-885401D01*
X-257688Y-883902D01*
X-256188D01*
X-254688Y-885401D01*
Y-886901D01*
Y-885401D01*
X-253189Y-883902D01*
X-251689D01*
X-250190Y-885401D01*
Y-888400D01*
X-251689Y-889900D01*
X-294132Y-868680D02*
Y-859683D01*
X-289634D01*
X-288134Y-861182D01*
Y-864182D01*
X-289634Y-865681D01*
X-294132D01*
X-291133D02*
X-288134Y-868680D01*
X-285135D02*
X-282136D01*
X-283635D01*
Y-859683D01*
X-285135Y-861182D01*
X-277637Y-868680D02*
X-274638D01*
X-276138D01*
Y-859683D01*
X-277637Y-861182D01*
X-264142Y-868680D02*
X-270140D01*
X-264142Y-862682D01*
Y-861182D01*
X-265641Y-859683D01*
X-268640D01*
X-270140Y-861182D01*
X-291846Y-855980D02*
Y-846983D01*
X-287348D01*
X-285848Y-848482D01*
Y-851481D01*
X-287348Y-852981D01*
X-291846D01*
X-288847D02*
X-285848Y-855980D01*
X-282849D02*
X-279850D01*
X-281349D01*
Y-846983D01*
X-282849Y-848482D01*
X-275351Y-855980D02*
X-272352D01*
X-273852D01*
Y-846983D01*
X-275351Y-848482D01*
X-267854Y-855980D02*
X-264855D01*
X-266354D01*
Y-846983D01*
X-267854Y-848482D01*
X-127762Y-855218D02*
Y-846221D01*
X-123264D01*
X-121764Y-847720D01*
Y-850720D01*
X-123264Y-852219D01*
X-127762D01*
X-124763D02*
X-121764Y-855218D01*
X-118765D02*
X-115766D01*
X-117265D01*
Y-846221D01*
X-118765Y-847720D01*
X-111267Y-855218D02*
X-108268D01*
X-109768D01*
Y-846221D01*
X-111267Y-847720D01*
X-103770D02*
X-102270Y-846221D01*
X-99271D01*
X-97772Y-847720D01*
Y-853718D01*
X-99271Y-855218D01*
X-102270D01*
X-103770Y-853718D01*
Y-847720D01*
X-295148Y-843280D02*
Y-834283D01*
X-290650D01*
X-289150Y-835782D01*
Y-838782D01*
X-290650Y-840281D01*
X-295148D01*
X-292149D02*
X-289150Y-843280D01*
X-286151D02*
X-283152D01*
X-284651D01*
Y-834283D01*
X-286151Y-835782D01*
X-278653D02*
X-277154Y-834283D01*
X-274155D01*
X-272655Y-835782D01*
Y-841780D01*
X-274155Y-843280D01*
X-277154D01*
X-278653Y-841780D01*
Y-835782D01*
X-269656Y-841780D02*
X-268157Y-843280D01*
X-265158D01*
X-263658Y-841780D01*
Y-835782D01*
X-265158Y-834283D01*
X-268157D01*
X-269656Y-835782D01*
Y-837282D01*
X-268157Y-838782D01*
X-263658D01*
X-126750Y-839724D02*
Y-830727D01*
X-122251D01*
X-120752Y-832226D01*
Y-835226D01*
X-122251Y-836725D01*
X-126750D01*
X-123751D02*
X-120752Y-839724D01*
X-117753D02*
X-114754D01*
X-116253D01*
Y-830727D01*
X-117753Y-832226D01*
X-110255D02*
X-108756Y-830727D01*
X-105757D01*
X-104257Y-832226D01*
Y-838224D01*
X-105757Y-839724D01*
X-108756D01*
X-110255Y-838224D01*
Y-832226D01*
X-101258D02*
X-99759Y-830727D01*
X-96760D01*
X-95260Y-832226D01*
Y-833726D01*
X-96760Y-835226D01*
X-95260Y-836725D01*
Y-838224D01*
X-96760Y-839724D01*
X-99759D01*
X-101258Y-838224D01*
Y-836725D01*
X-99759Y-835226D01*
X-101258Y-833726D01*
Y-832226D01*
X-99759Y-835226D02*
X-96760D01*
X-295402Y-817880D02*
Y-808883D01*
X-290903D01*
X-289404Y-810382D01*
Y-813382D01*
X-290903Y-814881D01*
X-295402D01*
X-292403D02*
X-289404Y-817880D01*
X-286405D02*
X-283406D01*
X-284905D01*
Y-808883D01*
X-286405Y-810382D01*
X-278907D02*
X-277408Y-808883D01*
X-274409D01*
X-272909Y-810382D01*
Y-816380D01*
X-274409Y-817880D01*
X-277408D01*
X-278907Y-816380D01*
Y-810382D01*
X-269910Y-808883D02*
X-263912D01*
Y-810382D01*
X-269910Y-816380D01*
Y-817880D01*
X-127512Y-829564D02*
Y-820567D01*
X-123013D01*
X-121514Y-822066D01*
Y-825066D01*
X-123013Y-826565D01*
X-127512D01*
X-124513D02*
X-121514Y-829564D01*
X-118515D02*
X-115516D01*
X-117015D01*
Y-820567D01*
X-118515Y-822066D01*
X-111017D02*
X-109518Y-820567D01*
X-106519D01*
X-105019Y-822066D01*
Y-828064D01*
X-106519Y-829564D01*
X-109518D01*
X-111017Y-828064D01*
Y-822066D01*
X-96022Y-820567D02*
X-99021Y-822066D01*
X-102020Y-825066D01*
Y-828064D01*
X-100521Y-829564D01*
X-97522D01*
X-96022Y-828064D01*
Y-826565D01*
X-97522Y-825066D01*
X-102020D01*
X-800100Y-505206D02*
X-809097D01*
Y-500708D01*
X-807598Y-499208D01*
X-804598D01*
X-803099Y-500708D01*
Y-505206D01*
Y-502207D02*
X-800100Y-499208D01*
Y-496209D02*
Y-493210D01*
Y-494709D01*
X-809097D01*
X-807598Y-496209D01*
Y-488711D02*
X-809097Y-487212D01*
Y-484213D01*
X-807598Y-482713D01*
X-801600D01*
X-800100Y-484213D01*
Y-487212D01*
X-801600Y-488711D01*
X-807598D01*
X-809097Y-473716D02*
Y-479714D01*
X-804598D01*
X-806098Y-476715D01*
Y-475216D01*
X-804598Y-473716D01*
X-801600D01*
X-800100Y-475216D01*
Y-478215D01*
X-801600Y-479714D01*
X-803402Y-471170D02*
Y-462173D01*
X-798904D01*
X-797404Y-463672D01*
Y-466671D01*
X-798904Y-468171D01*
X-803402D01*
X-800403D02*
X-797404Y-471170D01*
X-794405D02*
X-791406D01*
X-792905D01*
Y-462173D01*
X-794405Y-463672D01*
X-786907D02*
X-785408Y-462173D01*
X-782409D01*
X-780909Y-463672D01*
Y-469670D01*
X-782409Y-471170D01*
X-785408D01*
X-786907Y-469670D01*
Y-463672D01*
X-773412Y-471170D02*
Y-462173D01*
X-777910Y-466671D01*
X-771912D01*
X-293116Y-673354D02*
Y-664357D01*
X-288617D01*
X-287118Y-665856D01*
Y-668856D01*
X-288617Y-670355D01*
X-293116D01*
X-290117D02*
X-287118Y-673354D01*
X-284119D02*
X-281120D01*
X-282619D01*
Y-664357D01*
X-284119Y-665856D01*
X-276621D02*
X-275122Y-664357D01*
X-272123D01*
X-270623Y-665856D01*
Y-671854D01*
X-272123Y-673354D01*
X-275122D01*
X-276621Y-671854D01*
Y-665856D01*
X-267624D02*
X-266125Y-664357D01*
X-263126D01*
X-261626Y-665856D01*
Y-667356D01*
X-263126Y-668856D01*
X-264625D01*
X-263126D01*
X-261626Y-670355D01*
Y-671854D01*
X-263126Y-673354D01*
X-266125D01*
X-267624Y-671854D01*
X-821436Y-557784D02*
Y-548787D01*
X-816937D01*
X-815438Y-550286D01*
Y-553285D01*
X-816937Y-554785D01*
X-821436D01*
X-818437D02*
X-815438Y-557784D01*
X-812439D02*
X-809440D01*
X-810939D01*
Y-548787D01*
X-812439Y-550286D01*
X-804941D02*
X-803442Y-548787D01*
X-800443D01*
X-798943Y-550286D01*
Y-556284D01*
X-800443Y-557784D01*
X-803442D01*
X-804941Y-556284D01*
Y-550286D01*
X-789946Y-557784D02*
X-795944D01*
X-789946Y-551786D01*
Y-550286D01*
X-791446Y-548787D01*
X-794445D01*
X-795944Y-550286D01*
X-508000Y-870605D02*
X-502002Y-879602D01*
Y-870605D02*
X-508000Y-879602D01*
X-499003Y-872104D02*
X-497503Y-870605D01*
X-494504D01*
X-493005Y-872104D01*
Y-873604D01*
X-494504Y-875104D01*
X-496004D01*
X-494504D01*
X-493005Y-876603D01*
Y-878102D01*
X-494504Y-879602D01*
X-497503D01*
X-499003Y-878102D01*
X-392176Y-582315D02*
Y-589813D01*
X-390676Y-591312D01*
X-387677D01*
X-386178Y-589813D01*
Y-582315D01*
X-383179Y-591312D02*
X-380180D01*
X-381679D01*
Y-582315D01*
X-383179Y-583814D01*
X-369683Y-582315D02*
X-372682Y-583814D01*
X-375681Y-586814D01*
Y-589813D01*
X-374182Y-591312D01*
X-371183D01*
X-369683Y-589813D01*
Y-588313D01*
X-371183Y-586814D01*
X-375681D01*
X-402844Y-696615D02*
Y-704112D01*
X-401344Y-705612D01*
X-398345D01*
X-396846Y-704112D01*
Y-696615D01*
X-393847Y-705612D02*
X-390848D01*
X-392347D01*
Y-696615D01*
X-393847Y-698114D01*
X-380351Y-696615D02*
X-386349D01*
Y-701114D01*
X-383350Y-699614D01*
X-381851D01*
X-380351Y-701114D01*
Y-704112D01*
X-381851Y-705612D01*
X-384850D01*
X-386349Y-704112D01*
X-393700Y-502305D02*
Y-509803D01*
X-392201Y-511302D01*
X-389202D01*
X-387702Y-509803D01*
Y-502305D01*
X-384703Y-511302D02*
X-381704D01*
X-383203D01*
Y-502305D01*
X-384703Y-503804D01*
X-372707Y-511302D02*
Y-502305D01*
X-377205Y-506804D01*
X-371207D01*
X-563622Y-670961D02*
Y-678458D01*
X-562122Y-679958D01*
X-559123D01*
X-557624Y-678458D01*
Y-670961D01*
X-554625Y-679958D02*
X-551626D01*
X-553125D01*
Y-670961D01*
X-554625Y-672460D01*
X-541129Y-679958D02*
X-547127D01*
X-541129Y-673960D01*
Y-672460D01*
X-542629Y-670961D01*
X-545628D01*
X-547127Y-672460D01*
X-937514Y-529483D02*
Y-536981D01*
X-936014Y-538480D01*
X-933016D01*
X-931516Y-536981D01*
Y-529483D01*
X-928517Y-538480D02*
X-925518D01*
X-927017D01*
Y-529483D01*
X-928517Y-530982D01*
X-921019D02*
X-919520Y-529483D01*
X-916521D01*
X-915021Y-530982D01*
Y-536981D01*
X-916521Y-538480D01*
X-919520D01*
X-921019Y-536981D01*
Y-530982D01*
X-926338Y-350413D02*
Y-357910D01*
X-924838Y-359410D01*
X-921840D01*
X-920340Y-357910D01*
Y-350413D01*
X-917341Y-357910D02*
X-915841Y-359410D01*
X-912842D01*
X-911343Y-357910D01*
Y-351912D01*
X-912842Y-350413D01*
X-915841D01*
X-917341Y-351912D01*
Y-353412D01*
X-915841Y-354911D01*
X-911343D01*
X-943610Y-887115D02*
Y-894613D01*
X-942111Y-896112D01*
X-939111D01*
X-937612Y-894613D01*
Y-887115D01*
X-934613Y-888614D02*
X-933113Y-887115D01*
X-930114D01*
X-928615Y-888614D01*
Y-890114D01*
X-930114Y-891613D01*
X-928615Y-893113D01*
Y-894613D01*
X-930114Y-896112D01*
X-933113D01*
X-934613Y-894613D01*
Y-893113D01*
X-933113Y-891613D01*
X-934613Y-890114D01*
Y-888614D01*
X-933113Y-891613D02*
X-930114D01*
X-361041Y-289052D02*
X-353544D01*
X-352044Y-287553D01*
Y-284554D01*
X-353544Y-283054D01*
X-361041D01*
X-359542Y-280055D02*
X-361041Y-278555D01*
Y-275556D01*
X-359542Y-274057D01*
X-358042D01*
X-356543Y-275556D01*
Y-277056D01*
Y-275556D01*
X-355043Y-274057D01*
X-353544D01*
X-352044Y-275556D01*
Y-278555D01*
X-353544Y-280055D01*
X-472694Y-225699D02*
Y-233197D01*
X-471194Y-234696D01*
X-468195D01*
X-466696Y-233197D01*
Y-225699D01*
X-457699Y-234696D02*
X-463697D01*
X-457699Y-228698D01*
Y-227198D01*
X-459198Y-225699D01*
X-462197D01*
X-463697Y-227198D01*
X-247757Y-289560D02*
X-240259D01*
X-238760Y-288060D01*
Y-285061D01*
X-240259Y-283562D01*
X-247757D01*
X-238760Y-280563D02*
Y-277564D01*
Y-279063D01*
X-247757D01*
X-246258Y-280563D01*
X-923544Y-456839D02*
X-917546D01*
X-920545D01*
Y-465836D01*
X-914547D02*
Y-456839D01*
X-910048D01*
X-908549Y-458338D01*
Y-461338D01*
X-910048Y-462837D01*
X-914547D01*
X-905550Y-458338D02*
X-904050Y-456839D01*
X-901051D01*
X-899552Y-458338D01*
Y-459838D01*
X-901051Y-461338D01*
X-902551D01*
X-901051D01*
X-899552Y-462837D01*
Y-464337D01*
X-901051Y-465836D01*
X-904050D01*
X-905550Y-464337D01*
X-812292Y-336697D02*
X-806294D01*
X-809293D01*
Y-345694D01*
X-803295D02*
Y-336697D01*
X-798796D01*
X-797297Y-338196D01*
Y-341195D01*
X-798796Y-342695D01*
X-803295D01*
X-788300Y-345694D02*
X-794298D01*
X-788300Y-339696D01*
Y-338196D01*
X-789799Y-336697D01*
X-792798D01*
X-794298Y-338196D01*
X-869442Y-977793D02*
X-863444D01*
X-866443D01*
Y-986790D01*
X-860445D02*
Y-977793D01*
X-855946D01*
X-854447Y-979292D01*
Y-982291D01*
X-855946Y-983791D01*
X-860445D01*
X-851448Y-986790D02*
X-848449D01*
X-849948D01*
Y-977793D01*
X-851448Y-979292D01*
X-819404Y-544068D02*
Y-535071D01*
X-814905D01*
X-813406Y-536570D01*
Y-539570D01*
X-814905Y-541069D01*
X-819404D01*
X-816405D02*
X-813406Y-544068D01*
X-810407D02*
X-807408D01*
X-808907D01*
Y-535071D01*
X-810407Y-536570D01*
X-802909D02*
X-801410Y-535071D01*
X-798411D01*
X-796911Y-536570D01*
Y-542569D01*
X-798411Y-544068D01*
X-801410D01*
X-802909Y-542569D01*
Y-536570D01*
X-793912Y-544068D02*
X-790913D01*
X-792413D01*
Y-535071D01*
X-793912Y-536570D01*
X-822706Y-526288D02*
Y-517291D01*
X-818207D01*
X-816708Y-518790D01*
Y-521790D01*
X-818207Y-523289D01*
X-822706D01*
X-819707D02*
X-816708Y-526288D01*
X-813709D02*
X-810710D01*
X-812209D01*
Y-517291D01*
X-813709Y-518790D01*
X-806211D02*
X-804712Y-517291D01*
X-801713D01*
X-800213Y-518790D01*
Y-524789D01*
X-801713Y-526288D01*
X-804712D01*
X-806211Y-524789D01*
Y-518790D01*
X-797214D02*
X-795715Y-517291D01*
X-792716D01*
X-791216Y-518790D01*
Y-524789D01*
X-792716Y-526288D01*
X-795715D01*
X-797214Y-524789D01*
Y-518790D01*
X-822706Y-515620D02*
Y-506623D01*
X-818207D01*
X-816708Y-508122D01*
Y-511121D01*
X-818207Y-512621D01*
X-822706D01*
X-819707D02*
X-816708Y-515620D01*
X-813709Y-514120D02*
X-812209Y-515620D01*
X-809210D01*
X-807711Y-514120D01*
Y-508122D01*
X-809210Y-506623D01*
X-812209D01*
X-813709Y-508122D01*
Y-509622D01*
X-812209Y-511121D01*
X-807711D01*
X-804712Y-514120D02*
X-803212Y-515620D01*
X-800213D01*
X-798714Y-514120D01*
Y-508122D01*
X-800213Y-506623D01*
X-803212D01*
X-804712Y-508122D01*
Y-509622D01*
X-803212Y-511121D01*
X-798714D01*
X-689864Y-551434D02*
Y-542437D01*
X-685366D01*
X-683866Y-543936D01*
Y-546936D01*
X-685366Y-548435D01*
X-689864D01*
X-686865D02*
X-683866Y-551434D01*
X-680867Y-549935D02*
X-679367Y-551434D01*
X-676368D01*
X-674869Y-549935D01*
Y-543936D01*
X-676368Y-542437D01*
X-679367D01*
X-680867Y-543936D01*
Y-545436D01*
X-679367Y-546936D01*
X-674869D01*
X-671870Y-543936D02*
X-670370Y-542437D01*
X-667371D01*
X-665872Y-543936D01*
Y-545436D01*
X-667371Y-546936D01*
X-665872Y-548435D01*
Y-549935D01*
X-667371Y-551434D01*
X-670370D01*
X-671870Y-549935D01*
Y-548435D01*
X-670370Y-546936D01*
X-671870Y-545436D01*
Y-543936D01*
X-670370Y-546936D02*
X-667371D01*
X-826262Y-625602D02*
Y-616605D01*
X-821764D01*
X-820264Y-618104D01*
Y-621104D01*
X-821764Y-622603D01*
X-826262D01*
X-823263D02*
X-820264Y-625602D01*
X-817265Y-624103D02*
X-815765Y-625602D01*
X-812766D01*
X-811267Y-624103D01*
Y-618104D01*
X-812766Y-616605D01*
X-815765D01*
X-817265Y-618104D01*
Y-619604D01*
X-815765Y-621104D01*
X-811267D01*
X-808268Y-616605D02*
X-802270D01*
Y-618104D01*
X-808268Y-624103D01*
Y-625602D01*
X-661670Y-576580D02*
X-670667D01*
Y-572081D01*
X-669168Y-570582D01*
X-666169D01*
X-664669Y-572081D01*
Y-576580D01*
Y-573581D02*
X-661670Y-570582D01*
X-663169Y-567583D02*
X-661670Y-566083D01*
Y-563084D01*
X-663169Y-561585D01*
X-669168D01*
X-670667Y-563084D01*
Y-566083D01*
X-669168Y-567583D01*
X-667668D01*
X-666169Y-566083D01*
Y-561585D01*
X-670667Y-552588D02*
X-669168Y-555587D01*
X-666169Y-558586D01*
X-663169D01*
X-661670Y-557086D01*
Y-554087D01*
X-663169Y-552588D01*
X-664669D01*
X-666169Y-554087D01*
Y-558586D01*
X-827024Y-612902D02*
Y-603905D01*
X-822525D01*
X-821026Y-605404D01*
Y-608404D01*
X-822525Y-609903D01*
X-827024D01*
X-824025D02*
X-821026Y-612902D01*
X-818027Y-611403D02*
X-816527Y-612902D01*
X-813528D01*
X-812029Y-611403D01*
Y-605404D01*
X-813528Y-603905D01*
X-816527D01*
X-818027Y-605404D01*
Y-606904D01*
X-816527Y-608404D01*
X-812029D01*
X-803032Y-603905D02*
X-809030D01*
Y-608404D01*
X-806031Y-606904D01*
X-804531D01*
X-803032Y-608404D01*
Y-611403D01*
X-804531Y-612902D01*
X-807530D01*
X-809030Y-611403D01*
X-670052Y-580136D02*
X-661055D01*
Y-584635D01*
X-662554Y-586134D01*
X-665554D01*
X-667053Y-584635D01*
Y-580136D01*
Y-583135D02*
X-670052Y-586134D01*
X-668552Y-589133D02*
X-670052Y-590633D01*
Y-593632D01*
X-668552Y-595131D01*
X-662554D01*
X-661055Y-593632D01*
Y-590633D01*
X-662554Y-589133D01*
X-664054D01*
X-665554Y-590633D01*
Y-595131D01*
X-670052Y-602629D02*
X-661055D01*
X-665554Y-598130D01*
Y-604128D01*
X-814324Y-597408D02*
Y-588411D01*
X-809826D01*
X-808326Y-589910D01*
Y-592910D01*
X-809826Y-594409D01*
X-814324D01*
X-811325D02*
X-808326Y-597408D01*
X-805327Y-595909D02*
X-803827Y-597408D01*
X-800828D01*
X-799329Y-595909D01*
Y-589910D01*
X-800828Y-588411D01*
X-803827D01*
X-805327Y-589910D01*
Y-591410D01*
X-803827Y-592910D01*
X-799329D01*
X-796330Y-589910D02*
X-794830Y-588411D01*
X-791831D01*
X-790332Y-589910D01*
Y-591410D01*
X-791831Y-592910D01*
X-793331D01*
X-791831D01*
X-790332Y-594409D01*
Y-595909D01*
X-791831Y-597408D01*
X-794830D01*
X-796330Y-595909D01*
X-689610Y-614934D02*
Y-605937D01*
X-685111D01*
X-683612Y-607436D01*
Y-610435D01*
X-685111Y-611935D01*
X-689610D01*
X-686611D02*
X-683612Y-614934D01*
X-680613Y-613434D02*
X-679113Y-614934D01*
X-676114D01*
X-674615Y-613434D01*
Y-607436D01*
X-676114Y-605937D01*
X-679113D01*
X-680613Y-607436D01*
Y-608936D01*
X-679113Y-610435D01*
X-674615D01*
X-665618Y-614934D02*
X-671616D01*
X-665618Y-608936D01*
Y-607436D01*
X-667117Y-605937D01*
X-670116D01*
X-671616Y-607436D01*
X-820420Y-575818D02*
Y-566821D01*
X-815921D01*
X-814422Y-568320D01*
Y-571320D01*
X-815921Y-572819D01*
X-820420D01*
X-817421D02*
X-814422Y-575818D01*
X-811423Y-574319D02*
X-809923Y-575818D01*
X-806924D01*
X-805425Y-574319D01*
Y-568320D01*
X-806924Y-566821D01*
X-809923D01*
X-811423Y-568320D01*
Y-569820D01*
X-809923Y-571320D01*
X-805425D01*
X-802426Y-575818D02*
X-799427D01*
X-800926D01*
Y-566821D01*
X-802426Y-568320D01*
X-294134Y-472948D02*
Y-463951D01*
X-289636D01*
X-288136Y-465450D01*
Y-468450D01*
X-289636Y-469949D01*
X-294134D01*
X-291135D02*
X-288136Y-472948D01*
X-285137Y-471449D02*
X-283637Y-472948D01*
X-280638D01*
X-279139Y-471449D01*
Y-465450D01*
X-280638Y-463951D01*
X-283637D01*
X-285137Y-465450D01*
Y-466950D01*
X-283637Y-468450D01*
X-279139D01*
X-276140Y-465450D02*
X-274640Y-463951D01*
X-271641D01*
X-270142Y-465450D01*
Y-471449D01*
X-271641Y-472948D01*
X-274640D01*
X-276140Y-471449D01*
Y-465450D01*
X-294642Y-461518D02*
Y-452521D01*
X-290144D01*
X-288644Y-454020D01*
Y-457020D01*
X-290144Y-458519D01*
X-294642D01*
X-291643D02*
X-288644Y-461518D01*
X-285645Y-454020D02*
X-284145Y-452521D01*
X-281146D01*
X-279647Y-454020D01*
Y-455520D01*
X-281146Y-457020D01*
X-279647Y-458519D01*
Y-460019D01*
X-281146Y-461518D01*
X-284145D01*
X-285645Y-460019D01*
Y-458519D01*
X-284145Y-457020D01*
X-285645Y-455520D01*
Y-454020D01*
X-284145Y-457020D02*
X-281146D01*
X-276648Y-460019D02*
X-275148Y-461518D01*
X-272149D01*
X-270650Y-460019D01*
Y-454020D01*
X-272149Y-452521D01*
X-275148D01*
X-276648Y-454020D01*
Y-455520D01*
X-275148Y-457020D01*
X-270650D01*
X-355092Y-912368D02*
X-364089D01*
Y-907869D01*
X-362590Y-906370D01*
X-359590D01*
X-358091Y-907869D01*
Y-912368D01*
Y-909369D02*
X-355092Y-906370D01*
X-362590Y-903371D02*
X-364089Y-901871D01*
Y-898872D01*
X-362590Y-897373D01*
X-361090D01*
X-359590Y-898872D01*
X-358091Y-897373D01*
X-356591D01*
X-355092Y-898872D01*
Y-901871D01*
X-356591Y-903371D01*
X-358091D01*
X-359590Y-901871D01*
X-361090Y-903371D01*
X-362590D01*
X-359590Y-901871D02*
Y-898872D01*
X-364089Y-888376D02*
Y-894374D01*
X-359590D01*
X-361090Y-891375D01*
Y-889875D01*
X-359590Y-888376D01*
X-356591D01*
X-355092Y-889875D01*
Y-892874D01*
X-356591Y-894374D01*
X-389382Y-975106D02*
Y-966109D01*
X-384883D01*
X-383384Y-967608D01*
Y-970608D01*
X-384883Y-972107D01*
X-389382D01*
X-386383D02*
X-383384Y-975106D01*
X-380385Y-967608D02*
X-378885Y-966109D01*
X-375886D01*
X-374387Y-967608D01*
Y-969108D01*
X-375886Y-970608D01*
X-374387Y-972107D01*
Y-973606D01*
X-375886Y-975106D01*
X-378885D01*
X-380385Y-973606D01*
Y-972107D01*
X-378885Y-970608D01*
X-380385Y-969108D01*
Y-967608D01*
X-378885Y-970608D02*
X-375886D01*
X-366889Y-975106D02*
Y-966109D01*
X-371388Y-970608D01*
X-365390D01*
X-335534Y-953770D02*
Y-944773D01*
X-331035D01*
X-329536Y-946272D01*
Y-949271D01*
X-331035Y-950771D01*
X-335534D01*
X-332535D02*
X-329536Y-953770D01*
X-326537Y-946272D02*
X-325037Y-944773D01*
X-322038D01*
X-320539Y-946272D01*
Y-947772D01*
X-322038Y-949271D01*
X-320539Y-950771D01*
Y-952271D01*
X-322038Y-953770D01*
X-325037D01*
X-326537Y-952271D01*
Y-950771D01*
X-325037Y-949271D01*
X-326537Y-947772D01*
Y-946272D01*
X-325037Y-949271D02*
X-322038D01*
X-317540Y-946272D02*
X-316040Y-944773D01*
X-313041D01*
X-311542Y-946272D01*
Y-947772D01*
X-313041Y-949271D01*
X-314541D01*
X-313041D01*
X-311542Y-950771D01*
Y-952271D01*
X-313041Y-953770D01*
X-316040D01*
X-317540Y-952271D01*
X-42926Y-850900D02*
Y-841903D01*
X-38428D01*
X-36928Y-843402D01*
Y-846402D01*
X-38428Y-847901D01*
X-42926D01*
X-39927D02*
X-36928Y-850900D01*
X-33929Y-843402D02*
X-32429Y-841903D01*
X-29430D01*
X-27931Y-843402D01*
Y-844902D01*
X-29430Y-846402D01*
X-27931Y-847901D01*
Y-849400D01*
X-29430Y-850900D01*
X-32429D01*
X-33929Y-849400D01*
Y-847901D01*
X-32429Y-846402D01*
X-33929Y-844902D01*
Y-843402D01*
X-32429Y-846402D02*
X-29430D01*
X-18934Y-850900D02*
X-24932D01*
X-18934Y-844902D01*
Y-843402D01*
X-20433Y-841903D01*
X-23432D01*
X-24932Y-843402D01*
X-345440Y-778002D02*
Y-769005D01*
X-340942D01*
X-339442Y-770504D01*
Y-773503D01*
X-340942Y-775003D01*
X-345440D01*
X-342441D02*
X-339442Y-778002D01*
X-336443Y-769005D02*
X-330445D01*
Y-770504D01*
X-336443Y-776503D01*
Y-778002D01*
X-327446Y-770504D02*
X-325946Y-769005D01*
X-322947D01*
X-321448Y-770504D01*
Y-772004D01*
X-322947Y-773503D01*
X-321448Y-775003D01*
Y-776503D01*
X-322947Y-778002D01*
X-325946D01*
X-327446Y-776503D01*
Y-775003D01*
X-325946Y-773503D01*
X-327446Y-772004D01*
Y-770504D01*
X-325946Y-773503D02*
X-322947D01*
X-331470Y-812292D02*
Y-803295D01*
X-326972D01*
X-325472Y-804794D01*
Y-807794D01*
X-326972Y-809293D01*
X-331470D01*
X-328471D02*
X-325472Y-812292D01*
X-322473Y-803295D02*
X-316475D01*
Y-804794D01*
X-322473Y-810792D01*
Y-812292D01*
X-313476Y-803295D02*
X-307478D01*
Y-804794D01*
X-313476Y-810792D01*
Y-812292D01*
X-345062Y-583184D02*
Y-574187D01*
X-340564D01*
X-339064Y-575686D01*
Y-578685D01*
X-340564Y-580185D01*
X-345062D01*
X-342063D02*
X-339064Y-583184D01*
X-336065Y-574187D02*
X-330067D01*
Y-575686D01*
X-336065Y-581684D01*
Y-583184D01*
X-321070Y-574187D02*
X-324069Y-575686D01*
X-327068Y-578685D01*
Y-581684D01*
X-325568Y-583184D01*
X-322569D01*
X-321070Y-581684D01*
Y-580185D01*
X-322569Y-578685D01*
X-327068D01*
X-344300Y-620776D02*
Y-611779D01*
X-339801D01*
X-338302Y-613278D01*
Y-616278D01*
X-339801Y-617777D01*
X-344300D01*
X-341301D02*
X-338302Y-620776D01*
X-335303Y-611779D02*
X-329305D01*
Y-613278D01*
X-335303Y-619277D01*
Y-620776D01*
X-320308Y-611779D02*
X-326306D01*
Y-616278D01*
X-323307Y-614778D01*
X-321807D01*
X-320308Y-616278D01*
Y-619277D01*
X-321807Y-620776D01*
X-324806D01*
X-326306Y-619277D01*
X-419608Y-834644D02*
X-428605D01*
Y-830145D01*
X-427106Y-828646D01*
X-424106D01*
X-422607Y-830145D01*
Y-834644D01*
Y-831645D02*
X-419608Y-828646D01*
X-428605Y-825647D02*
Y-819649D01*
X-427106D01*
X-421107Y-825647D01*
X-419608D01*
Y-812151D02*
X-428605D01*
X-424106Y-816650D01*
Y-810652D01*
X-406654Y-853440D02*
Y-844443D01*
X-402155D01*
X-400656Y-845942D01*
Y-848941D01*
X-402155Y-850441D01*
X-406654D01*
X-403655D02*
X-400656Y-853440D01*
X-397657Y-844443D02*
X-391659D01*
Y-845942D01*
X-397657Y-851941D01*
Y-853440D01*
X-388660Y-845942D02*
X-387160Y-844443D01*
X-384161D01*
X-382662Y-845942D01*
Y-847442D01*
X-384161Y-848941D01*
X-385661D01*
X-384161D01*
X-382662Y-850441D01*
Y-851941D01*
X-384161Y-853440D01*
X-387160D01*
X-388660Y-851941D01*
X-442722Y-608076D02*
Y-599079D01*
X-438223D01*
X-436724Y-600578D01*
Y-603577D01*
X-438223Y-605077D01*
X-442722D01*
X-439723D02*
X-436724Y-608076D01*
X-433725Y-599079D02*
X-427727D01*
Y-600578D01*
X-433725Y-606576D01*
Y-608076D01*
X-418730D02*
X-424728D01*
X-418730Y-602078D01*
Y-600578D01*
X-420229Y-599079D01*
X-423228D01*
X-424728Y-600578D01*
X-396240Y-657352D02*
X-405237D01*
Y-652853D01*
X-403738Y-651354D01*
X-400738D01*
X-399239Y-652853D01*
Y-657352D01*
Y-654353D02*
X-396240Y-651354D01*
X-405237Y-648355D02*
Y-642357D01*
X-403738D01*
X-397739Y-648355D01*
X-396240D01*
Y-639358D02*
Y-636359D01*
Y-637858D01*
X-405237D01*
X-403738Y-639358D01*
X-345440Y-795782D02*
Y-786785D01*
X-340942D01*
X-339442Y-788284D01*
Y-791283D01*
X-340942Y-792783D01*
X-345440D01*
X-342441D02*
X-339442Y-795782D01*
X-336443Y-786785D02*
X-330445D01*
Y-788284D01*
X-336443Y-794283D01*
Y-795782D01*
X-327446Y-788284D02*
X-325946Y-786785D01*
X-322947D01*
X-321448Y-788284D01*
Y-794283D01*
X-322947Y-795782D01*
X-325946D01*
X-327446Y-794283D01*
Y-788284D01*
X-344932Y-832612D02*
Y-823615D01*
X-340434D01*
X-338934Y-825114D01*
Y-828113D01*
X-340434Y-829613D01*
X-344932D01*
X-341933D02*
X-338934Y-832612D01*
X-329937Y-823615D02*
X-332936Y-825114D01*
X-335935Y-828113D01*
Y-831113D01*
X-334435Y-832612D01*
X-331436D01*
X-329937Y-831113D01*
Y-829613D01*
X-331436Y-828113D01*
X-335935D01*
X-326938Y-831113D02*
X-325438Y-832612D01*
X-322439D01*
X-320940Y-831113D01*
Y-825114D01*
X-322439Y-823615D01*
X-325438D01*
X-326938Y-825114D01*
Y-826614D01*
X-325438Y-828113D01*
X-320940D01*
X-344932Y-585978D02*
X-335935D01*
Y-590476D01*
X-337434Y-591976D01*
X-340434D01*
X-341933Y-590476D01*
Y-585978D01*
Y-588977D02*
X-344932Y-591976D01*
X-335935Y-600973D02*
X-337434Y-597974D01*
X-340434Y-594975D01*
X-343433D01*
X-344932Y-596475D01*
Y-599474D01*
X-343433Y-600973D01*
X-341933D01*
X-340434Y-599474D01*
Y-594975D01*
X-337434Y-603972D02*
X-335935Y-605472D01*
Y-608471D01*
X-337434Y-609970D01*
X-338934D01*
X-340434Y-608471D01*
X-341933Y-609970D01*
X-343433D01*
X-344932Y-608471D01*
Y-605472D01*
X-343433Y-603972D01*
X-341933D01*
X-340434Y-605472D01*
X-338934Y-603972D01*
X-337434D01*
X-340434Y-605472D02*
Y-608471D01*
X-344678Y-644144D02*
Y-635147D01*
X-340179D01*
X-338680Y-636646D01*
Y-639646D01*
X-340179Y-641145D01*
X-344678D01*
X-341679D02*
X-338680Y-644144D01*
X-329683Y-635147D02*
X-332682Y-636646D01*
X-335681Y-639646D01*
Y-642645D01*
X-334181Y-644144D01*
X-331182D01*
X-329683Y-642645D01*
Y-641145D01*
X-331182Y-639646D01*
X-335681D01*
X-326684Y-635147D02*
X-320686D01*
Y-636646D01*
X-326684Y-642645D01*
Y-644144D01*
X-344932Y-690118D02*
Y-681121D01*
X-340434D01*
X-338934Y-682620D01*
Y-685620D01*
X-340434Y-687119D01*
X-344932D01*
X-341933D02*
X-338934Y-690118D01*
X-329937Y-681121D02*
X-332936Y-682620D01*
X-335935Y-685620D01*
Y-688618D01*
X-334435Y-690118D01*
X-331436D01*
X-329937Y-688618D01*
Y-687119D01*
X-331436Y-685620D01*
X-335935D01*
X-320940Y-681121D02*
X-323939Y-682620D01*
X-326938Y-685620D01*
Y-688618D01*
X-325438Y-690118D01*
X-322439D01*
X-320940Y-688618D01*
Y-687119D01*
X-322439Y-685620D01*
X-326938D01*
X-344932Y-727202D02*
Y-718205D01*
X-340434D01*
X-338934Y-719704D01*
Y-722703D01*
X-340434Y-724203D01*
X-344932D01*
X-341933D02*
X-338934Y-727202D01*
X-329937Y-718205D02*
X-332936Y-719704D01*
X-335935Y-722703D01*
Y-725703D01*
X-334435Y-727202D01*
X-331436D01*
X-329937Y-725703D01*
Y-724203D01*
X-331436Y-722703D01*
X-335935D01*
X-320940Y-718205D02*
X-326938D01*
Y-722703D01*
X-323939Y-721204D01*
X-322439D01*
X-320940Y-722703D01*
Y-725703D01*
X-322439Y-727202D01*
X-325438D01*
X-326938Y-725703D01*
X-344808Y-496570D02*
Y-487573D01*
X-340309D01*
X-338810Y-489072D01*
Y-492071D01*
X-340309Y-493571D01*
X-344808D01*
X-341809D02*
X-338810Y-496570D01*
X-329813Y-487573D02*
X-332812Y-489072D01*
X-335811Y-492071D01*
Y-495070D01*
X-334311Y-496570D01*
X-331312D01*
X-329813Y-495070D01*
Y-493571D01*
X-331312Y-492071D01*
X-335811D01*
X-322315Y-496570D02*
Y-487573D01*
X-326814Y-492071D01*
X-320816D01*
X-344046Y-534162D02*
Y-525165D01*
X-339548D01*
X-338048Y-526664D01*
Y-529664D01*
X-339548Y-531163D01*
X-344046D01*
X-341047D02*
X-338048Y-534162D01*
X-329051Y-525165D02*
X-332050Y-526664D01*
X-335049Y-529664D01*
Y-532663D01*
X-333549Y-534162D01*
X-330550D01*
X-329051Y-532663D01*
Y-531163D01*
X-330550Y-529664D01*
X-335049D01*
X-326052Y-526664D02*
X-324552Y-525165D01*
X-321553D01*
X-320054Y-526664D01*
Y-528164D01*
X-321553Y-529664D01*
X-323053D01*
X-321553D01*
X-320054Y-531163D01*
Y-532663D01*
X-321553Y-534162D01*
X-324552D01*
X-326052Y-532663D01*
X-410972Y-767080D02*
X-419969D01*
Y-762581D01*
X-418470Y-761082D01*
X-415471D01*
X-413971Y-762581D01*
Y-767080D01*
Y-764081D02*
X-410972Y-761082D01*
X-419969Y-752085D02*
X-418470Y-755084D01*
X-415471Y-758083D01*
X-412472D01*
X-410972Y-756583D01*
Y-753584D01*
X-412472Y-752085D01*
X-413971D01*
X-415471Y-753584D01*
Y-758083D01*
X-410972Y-743088D02*
Y-749086D01*
X-416970Y-743088D01*
X-418470D01*
X-419969Y-744587D01*
Y-747586D01*
X-418470Y-749086D01*
X-397510Y-769620D02*
Y-760623D01*
X-393012D01*
X-391512Y-762122D01*
Y-765122D01*
X-393012Y-766621D01*
X-397510D01*
X-394511D02*
X-391512Y-769620D01*
X-382515Y-760623D02*
X-385514Y-762122D01*
X-388513Y-765122D01*
Y-768120D01*
X-387013Y-769620D01*
X-384014D01*
X-382515Y-768120D01*
Y-766621D01*
X-384014Y-765122D01*
X-388513D01*
X-379516Y-769620D02*
X-376517D01*
X-378016D01*
Y-760623D01*
X-379516Y-762122D01*
X-439420Y-540512D02*
Y-531515D01*
X-434921D01*
X-433422Y-533014D01*
Y-536013D01*
X-434921Y-537513D01*
X-439420D01*
X-436421D02*
X-433422Y-540512D01*
X-424425Y-531515D02*
X-427424Y-533014D01*
X-430423Y-536013D01*
Y-539012D01*
X-428923Y-540512D01*
X-425924D01*
X-424425Y-539012D01*
Y-537513D01*
X-425924Y-536013D01*
X-430423D01*
X-421426Y-533014D02*
X-419926Y-531515D01*
X-416927D01*
X-415428Y-533014D01*
Y-539012D01*
X-416927Y-540512D01*
X-419926D01*
X-421426Y-539012D01*
Y-533014D01*
X-397764Y-575818D02*
Y-566821D01*
X-393265D01*
X-391766Y-568320D01*
Y-571320D01*
X-393265Y-572819D01*
X-397764D01*
X-394765D02*
X-391766Y-575818D01*
X-382769Y-566821D02*
X-388767D01*
Y-571320D01*
X-385768Y-569820D01*
X-384268D01*
X-382769Y-571320D01*
Y-574319D01*
X-384268Y-575818D01*
X-387267D01*
X-388767Y-574319D01*
X-379770D02*
X-378270Y-575818D01*
X-375271D01*
X-373772Y-574319D01*
Y-568320D01*
X-375271Y-566821D01*
X-378270D01*
X-379770Y-568320D01*
Y-569820D01*
X-378270Y-571320D01*
X-373772D01*
X-334518Y-710438D02*
Y-701441D01*
X-330019D01*
X-328520Y-702940D01*
Y-705939D01*
X-330019Y-707439D01*
X-334518D01*
X-331519D02*
X-328520Y-710438D01*
X-319523Y-701441D02*
X-325521D01*
Y-705939D01*
X-322522Y-704440D01*
X-321022D01*
X-319523Y-705939D01*
Y-708939D01*
X-321022Y-710438D01*
X-324021D01*
X-325521Y-708939D01*
X-316524Y-702940D02*
X-315024Y-701441D01*
X-312025D01*
X-310526Y-702940D01*
Y-704440D01*
X-312025Y-705939D01*
X-310526Y-707439D01*
Y-708939D01*
X-312025Y-710438D01*
X-315024D01*
X-316524Y-708939D01*
Y-707439D01*
X-315024Y-705939D01*
X-316524Y-704440D01*
Y-702940D01*
X-315024Y-705939D02*
X-312025D01*
X-344170Y-747522D02*
Y-738525D01*
X-339672D01*
X-338172Y-740024D01*
Y-743024D01*
X-339672Y-744523D01*
X-344170D01*
X-341171D02*
X-338172Y-747522D01*
X-329175Y-738525D02*
X-335173D01*
Y-743024D01*
X-332174Y-741524D01*
X-330674D01*
X-329175Y-743024D01*
Y-746022D01*
X-330674Y-747522D01*
X-333673D01*
X-335173Y-746022D01*
X-326176Y-738525D02*
X-320178D01*
Y-740024D01*
X-326176Y-746022D01*
Y-747522D01*
X-344046Y-517144D02*
Y-508147D01*
X-339548D01*
X-338048Y-509646D01*
Y-512645D01*
X-339548Y-514145D01*
X-344046D01*
X-341047D02*
X-338048Y-517144D01*
X-329051Y-508147D02*
X-335049D01*
Y-512645D01*
X-332050Y-511146D01*
X-330550D01*
X-329051Y-512645D01*
Y-515644D01*
X-330550Y-517144D01*
X-333549D01*
X-335049Y-515644D01*
X-320054Y-508147D02*
X-323053Y-509646D01*
X-326052Y-512645D01*
Y-515644D01*
X-324552Y-517144D01*
X-321553D01*
X-320054Y-515644D01*
Y-514145D01*
X-321553Y-512645D01*
X-326052D01*
X-344046Y-553974D02*
Y-544977D01*
X-339548D01*
X-338048Y-546476D01*
Y-549476D01*
X-339548Y-550975D01*
X-344046D01*
X-341047D02*
X-338048Y-553974D01*
X-329051Y-544977D02*
X-335049D01*
Y-549476D01*
X-332050Y-547976D01*
X-330550D01*
X-329051Y-549476D01*
Y-552475D01*
X-330550Y-553974D01*
X-333549D01*
X-335049Y-552475D01*
X-320054Y-544977D02*
X-326052D01*
Y-549476D01*
X-323053Y-547976D01*
X-321553D01*
X-320054Y-549476D01*
Y-552475D01*
X-321553Y-553974D01*
X-324552D01*
X-326052Y-552475D01*
X-459740Y-666242D02*
Y-657245D01*
X-455242D01*
X-453742Y-658744D01*
Y-661743D01*
X-455242Y-663243D01*
X-459740D01*
X-456741D02*
X-453742Y-666242D01*
X-444745Y-657245D02*
X-450743D01*
Y-661743D01*
X-447744Y-660244D01*
X-446244D01*
X-444745Y-661743D01*
Y-664743D01*
X-446244Y-666242D01*
X-449243D01*
X-450743Y-664743D01*
X-437247Y-666242D02*
Y-657245D01*
X-441746Y-661743D01*
X-435748D01*
X-459994Y-645160D02*
Y-636163D01*
X-455495D01*
X-453996Y-637662D01*
Y-640661D01*
X-455495Y-642161D01*
X-459994D01*
X-456995D02*
X-453996Y-645160D01*
X-444999Y-636163D02*
X-450997D01*
Y-640661D01*
X-447998Y-639162D01*
X-446498D01*
X-444999Y-640661D01*
Y-643661D01*
X-446498Y-645160D01*
X-449497D01*
X-450997Y-643661D01*
X-442000Y-637662D02*
X-440500Y-636163D01*
X-437501D01*
X-436002Y-637662D01*
Y-639162D01*
X-437501Y-640661D01*
X-439001D01*
X-437501D01*
X-436002Y-642161D01*
Y-643661D01*
X-437501Y-645160D01*
X-440500D01*
X-442000Y-643661D01*
X-460248Y-863854D02*
Y-854857D01*
X-455750D01*
X-454250Y-856356D01*
Y-859355D01*
X-455750Y-860855D01*
X-460248D01*
X-457249D02*
X-454250Y-863854D01*
X-445253Y-854857D02*
X-451251D01*
Y-859355D01*
X-448252Y-857856D01*
X-446752D01*
X-445253Y-859355D01*
Y-862355D01*
X-446752Y-863854D01*
X-449751D01*
X-451251Y-862355D01*
X-436256Y-863854D02*
X-442254D01*
X-436256Y-857856D01*
Y-856356D01*
X-437755Y-854857D01*
X-440754D01*
X-442254Y-856356D01*
X-459740Y-844042D02*
Y-835045D01*
X-455242D01*
X-453742Y-836544D01*
Y-839544D01*
X-455242Y-841043D01*
X-459740D01*
X-456741D02*
X-453742Y-844042D01*
X-444745Y-835045D02*
X-450743D01*
Y-839544D01*
X-447744Y-838044D01*
X-446244D01*
X-444745Y-839544D01*
Y-842542D01*
X-446244Y-844042D01*
X-449243D01*
X-450743Y-842542D01*
X-441746Y-844042D02*
X-438747D01*
X-440246D01*
Y-835045D01*
X-441746Y-836544D01*
X-628020Y-837370D02*
Y-828373D01*
X-623521D01*
X-622022Y-829872D01*
Y-832871D01*
X-623521Y-834371D01*
X-628020D01*
X-625021D02*
X-622022Y-837370D01*
X-614524D02*
Y-828373D01*
X-619023Y-832871D01*
X-613025D01*
X-610026Y-835871D02*
X-608526Y-837370D01*
X-605527D01*
X-604028Y-835871D01*
Y-829872D01*
X-605527Y-828373D01*
X-608526D01*
X-610026Y-829872D01*
Y-831372D01*
X-608526Y-832871D01*
X-604028D01*
X-881126Y-786638D02*
Y-777641D01*
X-876628D01*
X-875128Y-779140D01*
Y-782140D01*
X-876628Y-783639D01*
X-881126D01*
X-878127D02*
X-875128Y-786638D01*
X-867630D02*
Y-777641D01*
X-872129Y-782140D01*
X-866131D01*
X-863132Y-779140D02*
X-861632Y-777641D01*
X-858633D01*
X-857134Y-779140D01*
Y-780640D01*
X-858633Y-782140D01*
X-857134Y-783639D01*
Y-785138D01*
X-858633Y-786638D01*
X-861632D01*
X-863132Y-785138D01*
Y-783639D01*
X-861632Y-782140D01*
X-863132Y-780640D01*
Y-779140D01*
X-861632Y-782140D02*
X-858633D01*
X-876046Y-755396D02*
Y-746399D01*
X-871547D01*
X-870048Y-747898D01*
Y-750898D01*
X-871547Y-752397D01*
X-876046D01*
X-873047D02*
X-870048Y-755396D01*
X-862550D02*
Y-746399D01*
X-867049Y-750898D01*
X-861051D01*
X-858052Y-746399D02*
X-852054D01*
Y-747898D01*
X-858052Y-753896D01*
Y-755396D01*
X-863854Y-619252D02*
Y-610255D01*
X-859355D01*
X-857856Y-611754D01*
Y-614753D01*
X-859355Y-616253D01*
X-863854D01*
X-860855D02*
X-857856Y-619252D01*
X-850358D02*
Y-610255D01*
X-854857Y-614753D01*
X-848859D01*
X-839862Y-610255D02*
X-842861Y-611754D01*
X-845860Y-614753D01*
Y-617752D01*
X-844360Y-619252D01*
X-841361D01*
X-839862Y-617752D01*
Y-616253D01*
X-841361Y-614753D01*
X-845860D01*
X-863600Y-607822D02*
Y-598825D01*
X-859101D01*
X-857602Y-600324D01*
Y-603324D01*
X-859101Y-604823D01*
X-863600D01*
X-860601D02*
X-857602Y-607822D01*
X-850104D02*
Y-598825D01*
X-854603Y-603324D01*
X-848605D01*
X-839608Y-598825D02*
X-845606D01*
Y-603324D01*
X-842607Y-601824D01*
X-841107D01*
X-839608Y-603324D01*
Y-606323D01*
X-841107Y-607822D01*
X-844106D01*
X-845606Y-606323D01*
X-893064Y-453644D02*
Y-444647D01*
X-888566D01*
X-887066Y-446146D01*
Y-449146D01*
X-888566Y-450645D01*
X-893064D01*
X-890065D02*
X-887066Y-453644D01*
X-879568D02*
Y-444647D01*
X-884067Y-449146D01*
X-878069D01*
X-870571Y-453644D02*
Y-444647D01*
X-875070Y-449146D01*
X-869072D01*
X-891794Y-422148D02*
Y-413151D01*
X-887296D01*
X-885796Y-414650D01*
Y-417649D01*
X-887296Y-419149D01*
X-891794D01*
X-888795D02*
X-885796Y-422148D01*
X-878298D02*
Y-413151D01*
X-882797Y-417649D01*
X-876799D01*
X-873800Y-414650D02*
X-872300Y-413151D01*
X-869301D01*
X-867802Y-414650D01*
Y-416150D01*
X-869301Y-417649D01*
X-870801D01*
X-869301D01*
X-867802Y-419149D01*
Y-420648D01*
X-869301Y-422148D01*
X-872300D01*
X-873800Y-420648D01*
X-859790Y-426466D02*
Y-417469D01*
X-855292D01*
X-853792Y-418968D01*
Y-421968D01*
X-855292Y-423467D01*
X-859790D01*
X-856791D02*
X-853792Y-426466D01*
X-846294D02*
Y-417469D01*
X-850793Y-421968D01*
X-844795D01*
X-835798Y-426466D02*
X-841796D01*
X-835798Y-420468D01*
Y-418968D01*
X-837297Y-417469D01*
X-840296D01*
X-841796Y-418968D01*
X-847852Y-779526D02*
Y-770529D01*
X-843354D01*
X-841854Y-772028D01*
Y-775027D01*
X-843354Y-776527D01*
X-847852D01*
X-844853D02*
X-841854Y-779526D01*
X-834356D02*
Y-770529D01*
X-838855Y-775027D01*
X-832857D01*
X-829858Y-779526D02*
X-826859D01*
X-828358D01*
Y-770529D01*
X-829858Y-772028D01*
X-850900Y-541274D02*
Y-532277D01*
X-846402D01*
X-844902Y-533776D01*
Y-536776D01*
X-846402Y-538275D01*
X-850900D01*
X-847901D02*
X-844902Y-541274D01*
X-837404D02*
Y-532277D01*
X-841903Y-536776D01*
X-835905D01*
X-832906Y-533776D02*
X-831406Y-532277D01*
X-828407D01*
X-826908Y-533776D01*
Y-539775D01*
X-828407Y-541274D01*
X-831406D01*
X-832906Y-539775D01*
Y-533776D01*
X-814070Y-983742D02*
Y-974745D01*
X-809572D01*
X-808072Y-976244D01*
Y-979243D01*
X-809572Y-980743D01*
X-814070D01*
X-811071D02*
X-808072Y-983742D01*
X-805073Y-976244D02*
X-803573Y-974745D01*
X-800574D01*
X-799075Y-976244D01*
Y-977744D01*
X-800574Y-979243D01*
X-802074D01*
X-800574D01*
X-799075Y-980743D01*
Y-982243D01*
X-800574Y-983742D01*
X-803573D01*
X-805073Y-982243D01*
X-796076D02*
X-794576Y-983742D01*
X-791577D01*
X-790078Y-982243D01*
Y-976244D01*
X-791577Y-974745D01*
X-794576D01*
X-796076Y-976244D01*
Y-977744D01*
X-794576Y-979243D01*
X-790078D01*
X-886460Y-948944D02*
X-880112D01*
Y-952118D01*
X-881170Y-953176D01*
X-883286D01*
X-884344Y-952118D01*
Y-948944D01*
Y-951060D02*
X-886460Y-953176D01*
X-881170Y-955292D02*
X-880112Y-956350D01*
Y-958466D01*
X-881170Y-959524D01*
X-882228D01*
X-883286Y-958466D01*
Y-957408D01*
Y-958466D01*
X-884344Y-959524D01*
X-885402D01*
X-886460Y-958466D01*
Y-956350D01*
X-885402Y-955292D01*
X-881170Y-961640D02*
X-880112Y-962698D01*
Y-964814D01*
X-881170Y-965872D01*
X-882228D01*
X-883286Y-964814D01*
X-884344Y-965872D01*
X-885402D01*
X-886460Y-964814D01*
Y-962698D01*
X-885402Y-961640D01*
X-884344D01*
X-883286Y-962698D01*
X-882228Y-961640D01*
X-881170D01*
X-883286Y-962698D02*
Y-964814D01*
X-855218Y-947674D02*
X-864215D01*
Y-943176D01*
X-862716Y-941676D01*
X-859716D01*
X-858217Y-943176D01*
Y-947674D01*
Y-944675D02*
X-855218Y-941676D01*
X-862716Y-938677D02*
X-864215Y-937177D01*
Y-934178D01*
X-862716Y-932679D01*
X-861216D01*
X-859716Y-934178D01*
Y-935678D01*
Y-934178D01*
X-858217Y-932679D01*
X-856718D01*
X-855218Y-934178D01*
Y-937177D01*
X-856718Y-938677D01*
X-864215Y-929680D02*
Y-923682D01*
X-862716D01*
X-856718Y-929680D01*
X-855218D01*
X-452374Y-905002D02*
X-461371D01*
Y-900503D01*
X-459872Y-899004D01*
X-456872D01*
X-455373Y-900503D01*
Y-905002D01*
Y-902003D02*
X-452374Y-899004D01*
X-459872Y-896005D02*
X-461371Y-894505D01*
Y-891506D01*
X-459872Y-890007D01*
X-458372D01*
X-456872Y-891506D01*
Y-893006D01*
Y-891506D01*
X-455373Y-890007D01*
X-453873D01*
X-452374Y-891506D01*
Y-894505D01*
X-453873Y-896005D01*
X-461371Y-881010D02*
X-459872Y-884009D01*
X-456872Y-887008D01*
X-453873D01*
X-452374Y-885508D01*
Y-882509D01*
X-453873Y-881010D01*
X-455373D01*
X-456872Y-882509D01*
Y-887008D01*
X-441960Y-905002D02*
X-450957D01*
Y-900503D01*
X-449458Y-899004D01*
X-446459D01*
X-444959Y-900503D01*
Y-905002D01*
Y-902003D02*
X-441960Y-899004D01*
X-449458Y-896005D02*
X-450957Y-894505D01*
Y-891506D01*
X-449458Y-890007D01*
X-447958D01*
X-446459Y-891506D01*
Y-893006D01*
Y-891506D01*
X-444959Y-890007D01*
X-443460D01*
X-441960Y-891506D01*
Y-894505D01*
X-443460Y-896005D01*
X-450957Y-881010D02*
Y-887008D01*
X-446459D01*
X-447958Y-884009D01*
Y-882509D01*
X-446459Y-881010D01*
X-443460D01*
X-441960Y-882509D01*
Y-885508D01*
X-443460Y-887008D01*
X-431292Y-905002D02*
X-440289D01*
Y-900503D01*
X-438790Y-899004D01*
X-435790D01*
X-434291Y-900503D01*
Y-905002D01*
Y-902003D02*
X-431292Y-899004D01*
X-438790Y-896005D02*
X-440289Y-894505D01*
Y-891506D01*
X-438790Y-890007D01*
X-437290D01*
X-435790Y-891506D01*
Y-893006D01*
Y-891506D01*
X-434291Y-890007D01*
X-432791D01*
X-431292Y-891506D01*
Y-894505D01*
X-432791Y-896005D01*
X-431292Y-882509D02*
X-440289D01*
X-435790Y-887008D01*
Y-881010D01*
X-471170Y-1112694D02*
X-462173D01*
Y-1117193D01*
X-463672Y-1118692D01*
X-466671D01*
X-468171Y-1117193D01*
Y-1112694D01*
Y-1115693D02*
X-471170Y-1118692D01*
X-463672Y-1121691D02*
X-462173Y-1123191D01*
Y-1126190D01*
X-463672Y-1127689D01*
X-465172D01*
X-466671Y-1126190D01*
Y-1124690D01*
Y-1126190D01*
X-468171Y-1127689D01*
X-469670D01*
X-471170Y-1126190D01*
Y-1123191D01*
X-469670Y-1121691D01*
X-463672Y-1130688D02*
X-462173Y-1132188D01*
Y-1135187D01*
X-463672Y-1136686D01*
X-465172D01*
X-466671Y-1135187D01*
Y-1133687D01*
Y-1135187D01*
X-468171Y-1136686D01*
X-469670D01*
X-471170Y-1135187D01*
Y-1132188D01*
X-469670Y-1130688D01*
X-32766Y-1005078D02*
X-23769D01*
Y-1009576D01*
X-25268Y-1011076D01*
X-28268D01*
X-29767Y-1009576D01*
Y-1005078D01*
Y-1008077D02*
X-32766Y-1011076D01*
X-25268Y-1014075D02*
X-23769Y-1015575D01*
Y-1018574D01*
X-25268Y-1020073D01*
X-26768D01*
X-28268Y-1018574D01*
Y-1017074D01*
Y-1018574D01*
X-29767Y-1020073D01*
X-31267D01*
X-32766Y-1018574D01*
Y-1015575D01*
X-31267Y-1014075D01*
X-32766Y-1029070D02*
Y-1023072D01*
X-26768Y-1029070D01*
X-25268D01*
X-23769Y-1027571D01*
Y-1024572D01*
X-25268Y-1023072D01*
X-581152Y-1042162D02*
Y-1033165D01*
X-576654D01*
X-575154Y-1034664D01*
Y-1037663D01*
X-576654Y-1039163D01*
X-581152D01*
X-578153D02*
X-575154Y-1042162D01*
X-572155Y-1034664D02*
X-570655Y-1033165D01*
X-567656D01*
X-566157Y-1034664D01*
Y-1036164D01*
X-567656Y-1037663D01*
X-569156D01*
X-567656D01*
X-566157Y-1039163D01*
Y-1040663D01*
X-567656Y-1042162D01*
X-570655D01*
X-572155Y-1040663D01*
X-563158Y-1042162D02*
X-560159D01*
X-561658D01*
Y-1033165D01*
X-563158Y-1034664D01*
X-580644Y-1030732D02*
Y-1021735D01*
X-576146D01*
X-574646Y-1023234D01*
Y-1026234D01*
X-576146Y-1027733D01*
X-580644D01*
X-577645D02*
X-574646Y-1030732D01*
X-571647Y-1023234D02*
X-570147Y-1021735D01*
X-567148D01*
X-565649Y-1023234D01*
Y-1024734D01*
X-567148Y-1026234D01*
X-568648D01*
X-567148D01*
X-565649Y-1027733D01*
Y-1029232D01*
X-567148Y-1030732D01*
X-570147D01*
X-571647Y-1029232D01*
X-562650Y-1023234D02*
X-561150Y-1021735D01*
X-558151D01*
X-556652Y-1023234D01*
Y-1029232D01*
X-558151Y-1030732D01*
X-561150D01*
X-562650Y-1029232D01*
Y-1023234D01*
X-496062Y-922020D02*
Y-913023D01*
X-491563D01*
X-490064Y-914522D01*
Y-917522D01*
X-491563Y-919021D01*
X-496062D01*
X-493063D02*
X-490064Y-922020D01*
X-481067D02*
X-487065D01*
X-481067Y-916022D01*
Y-914522D01*
X-482566Y-913023D01*
X-485565D01*
X-487065Y-914522D01*
X-478068Y-920520D02*
X-476568Y-922020D01*
X-473569D01*
X-472070Y-920520D01*
Y-914522D01*
X-473569Y-913023D01*
X-476568D01*
X-478068Y-914522D01*
Y-916022D01*
X-476568Y-917522D01*
X-472070D01*
X-580644Y-1019048D02*
Y-1010051D01*
X-576146D01*
X-574646Y-1011550D01*
Y-1014549D01*
X-576146Y-1016049D01*
X-580644D01*
X-577645D02*
X-574646Y-1019048D01*
X-565649D02*
X-571647D01*
X-565649Y-1013050D01*
Y-1011550D01*
X-567148Y-1010051D01*
X-570147D01*
X-571647Y-1011550D01*
X-562650D02*
X-561150Y-1010051D01*
X-558151D01*
X-556652Y-1011550D01*
Y-1013050D01*
X-558151Y-1014549D01*
X-556652Y-1016049D01*
Y-1017549D01*
X-558151Y-1019048D01*
X-561150D01*
X-562650Y-1017549D01*
Y-1016049D01*
X-561150Y-1014549D01*
X-562650Y-1013050D01*
Y-1011550D01*
X-561150Y-1014549D02*
X-558151D01*
X-601980Y-1000252D02*
Y-991255D01*
X-597481D01*
X-595982Y-992754D01*
Y-995753D01*
X-597481Y-997253D01*
X-601980D01*
X-598981D02*
X-595982Y-1000252D01*
X-586985D02*
X-592983D01*
X-586985Y-994254D01*
Y-992754D01*
X-588484Y-991255D01*
X-591483D01*
X-592983Y-992754D01*
X-583986Y-991255D02*
X-577988D01*
Y-992754D01*
X-583986Y-998753D01*
Y-1000252D01*
X-422402Y-1126998D02*
Y-1118001D01*
X-417904D01*
X-416404Y-1119500D01*
Y-1122499D01*
X-417904Y-1123999D01*
X-422402D01*
X-419403D02*
X-416404Y-1126998D01*
X-407407D02*
X-413405D01*
X-407407Y-1121000D01*
Y-1119500D01*
X-408906Y-1118001D01*
X-411905D01*
X-413405Y-1119500D01*
X-398410Y-1118001D02*
X-401409Y-1119500D01*
X-404408Y-1122499D01*
Y-1125499D01*
X-402908Y-1126998D01*
X-399909D01*
X-398410Y-1125499D01*
Y-1123999D01*
X-399909Y-1122499D01*
X-404408D01*
X-540766Y-894334D02*
Y-885337D01*
X-536268D01*
X-534768Y-886836D01*
Y-889836D01*
X-536268Y-891335D01*
X-540766D01*
X-537767D02*
X-534768Y-894334D01*
X-525771D02*
X-531769D01*
X-525771Y-888336D01*
Y-886836D01*
X-527270Y-885337D01*
X-530269D01*
X-531769Y-886836D01*
X-516774Y-885337D02*
X-522772D01*
Y-889836D01*
X-519773Y-888336D01*
X-518273D01*
X-516774Y-889836D01*
Y-892834D01*
X-518273Y-894334D01*
X-521272D01*
X-522772Y-892834D01*
X-481330Y-1114298D02*
X-472333D01*
Y-1118796D01*
X-473832Y-1120296D01*
X-476832D01*
X-478331Y-1118796D01*
Y-1114298D01*
Y-1117297D02*
X-481330Y-1120296D01*
Y-1129293D02*
Y-1123295D01*
X-475332Y-1129293D01*
X-473832D01*
X-472333Y-1127794D01*
Y-1124795D01*
X-473832Y-1123295D01*
X-481330Y-1136791D02*
X-472333D01*
X-476832Y-1132292D01*
Y-1138290D01*
X-491744Y-1114552D02*
X-482747D01*
Y-1119051D01*
X-484246Y-1120550D01*
X-487245D01*
X-488745Y-1119051D01*
Y-1114552D01*
Y-1117551D02*
X-491744Y-1120550D01*
Y-1129547D02*
Y-1123549D01*
X-485746Y-1129547D01*
X-484246D01*
X-482747Y-1128048D01*
Y-1125049D01*
X-484246Y-1123549D01*
Y-1132546D02*
X-482747Y-1134046D01*
Y-1137045D01*
X-484246Y-1138544D01*
X-485746D01*
X-487245Y-1137045D01*
Y-1135545D01*
Y-1137045D01*
X-488745Y-1138544D01*
X-490244D01*
X-491744Y-1137045D01*
Y-1134046D01*
X-490244Y-1132546D01*
X-502158Y-1114552D02*
X-493161D01*
Y-1119051D01*
X-494660Y-1120550D01*
X-497659D01*
X-499159Y-1119051D01*
Y-1114552D01*
Y-1117551D02*
X-502158Y-1120550D01*
Y-1129547D02*
Y-1123549D01*
X-496160Y-1129547D01*
X-494660D01*
X-493161Y-1128048D01*
Y-1125049D01*
X-494660Y-1123549D01*
X-502158Y-1138544D02*
Y-1132546D01*
X-496160Y-1138544D01*
X-494660D01*
X-493161Y-1137045D01*
Y-1134046D01*
X-494660Y-1132546D01*
X-513842Y-1115060D02*
X-504845D01*
Y-1119558D01*
X-506344Y-1121058D01*
X-509343D01*
X-510843Y-1119558D01*
Y-1115060D01*
Y-1118059D02*
X-513842Y-1121058D01*
Y-1130055D02*
Y-1124057D01*
X-507844Y-1130055D01*
X-506344D01*
X-504845Y-1128556D01*
Y-1125557D01*
X-506344Y-1124057D01*
X-513842Y-1133054D02*
Y-1136053D01*
Y-1134554D01*
X-504845D01*
X-506344Y-1133054D01*
X-459486Y-1151890D02*
Y-1142893D01*
X-454987D01*
X-453488Y-1144392D01*
Y-1147392D01*
X-454987Y-1148891D01*
X-459486D01*
X-456487D02*
X-453488Y-1151890D01*
X-444491D02*
X-450489D01*
X-444491Y-1145892D01*
Y-1144392D01*
X-445990Y-1142893D01*
X-448989D01*
X-450489Y-1144392D01*
X-441492D02*
X-439992Y-1142893D01*
X-436993D01*
X-435494Y-1144392D01*
Y-1150390D01*
X-436993Y-1151890D01*
X-439992D01*
X-441492Y-1150390D01*
Y-1144392D01*
X-539496Y-908558D02*
Y-899561D01*
X-534997D01*
X-533498Y-901060D01*
Y-904060D01*
X-534997Y-905559D01*
X-539496D01*
X-536497D02*
X-533498Y-908558D01*
X-530499D02*
X-527500D01*
X-528999D01*
Y-899561D01*
X-530499Y-901060D01*
X-523001Y-907058D02*
X-521502Y-908558D01*
X-518503D01*
X-517003Y-907058D01*
Y-901060D01*
X-518503Y-899561D01*
X-521502D01*
X-523001Y-901060D01*
Y-902560D01*
X-521502Y-904060D01*
X-517003D01*
X-297180Y-233172D02*
X-306177D01*
Y-228673D01*
X-304678Y-227174D01*
X-301679D01*
X-300179Y-228673D01*
Y-233172D01*
Y-230173D02*
X-297180Y-227174D01*
Y-224175D02*
Y-221176D01*
Y-222675D01*
X-306177D01*
X-304678Y-224175D01*
X-306177Y-216677D02*
Y-210679D01*
X-304678D01*
X-298680Y-216677D01*
X-297180D01*
X-261112Y-314706D02*
X-252115D01*
Y-319205D01*
X-253614Y-320704D01*
X-256614D01*
X-258113Y-319205D01*
Y-314706D01*
Y-317705D02*
X-261112Y-320704D01*
Y-323703D02*
Y-326702D01*
Y-325203D01*
X-252115D01*
X-253614Y-323703D01*
X-252115Y-337199D02*
X-253614Y-334200D01*
X-256614Y-331201D01*
X-259613D01*
X-261112Y-332700D01*
Y-335699D01*
X-259613Y-337199D01*
X-258113D01*
X-256614Y-335699D01*
Y-331201D01*
X-294894Y-335026D02*
X-303891D01*
Y-330527D01*
X-302392Y-329028D01*
X-299393D01*
X-297893Y-330527D01*
Y-335026D01*
Y-332027D02*
X-294894Y-329028D01*
Y-326029D02*
Y-323030D01*
Y-324529D01*
X-303891D01*
X-302392Y-326029D01*
X-303891Y-312533D02*
Y-318531D01*
X-299393D01*
X-300892Y-315532D01*
Y-314033D01*
X-299393Y-312533D01*
X-296394D01*
X-294894Y-314033D01*
Y-317032D01*
X-296394Y-318531D01*
X-335788Y-332740D02*
X-326791D01*
Y-337239D01*
X-328290Y-338738D01*
X-331289D01*
X-332789Y-337239D01*
Y-332740D01*
Y-335739D02*
X-335788Y-338738D01*
Y-341737D02*
Y-344736D01*
Y-343237D01*
X-326791D01*
X-328290Y-341737D01*
X-335788Y-353733D02*
X-326791D01*
X-331289Y-349235D01*
Y-355233D01*
X-379222Y-229362D02*
Y-220365D01*
X-374724D01*
X-373224Y-221864D01*
Y-224863D01*
X-374724Y-226363D01*
X-379222D01*
X-376223D02*
X-373224Y-229362D01*
X-370225D02*
X-367226D01*
X-368725D01*
Y-220365D01*
X-370225Y-221864D01*
X-362727D02*
X-361228Y-220365D01*
X-358229D01*
X-356729Y-221864D01*
Y-223364D01*
X-358229Y-224863D01*
X-359728D01*
X-358229D01*
X-356729Y-226363D01*
Y-227862D01*
X-358229Y-229362D01*
X-361228D01*
X-362727Y-227862D01*
X-318516Y-314452D02*
X-309519D01*
Y-318951D01*
X-311018Y-320450D01*
X-314018D01*
X-315517Y-318951D01*
Y-314452D01*
Y-317451D02*
X-318516Y-320450D01*
Y-323449D02*
Y-326448D01*
Y-324949D01*
X-309519D01*
X-311018Y-323449D01*
X-318516Y-336945D02*
Y-330947D01*
X-312518Y-336945D01*
X-311018D01*
X-309519Y-335445D01*
Y-332446D01*
X-311018Y-330947D01*
X-347980Y-328676D02*
X-356977D01*
Y-324178D01*
X-355478Y-322678D01*
X-352478D01*
X-350979Y-324178D01*
Y-328676D01*
Y-325677D02*
X-347980Y-322678D01*
Y-319679D02*
Y-316680D01*
Y-318179D01*
X-356977D01*
X-355478Y-319679D01*
X-347980Y-312181D02*
Y-309182D01*
Y-310682D01*
X-356977D01*
X-355478Y-312181D01*
X-203200Y-311912D02*
X-194203D01*
Y-316411D01*
X-195702Y-317910D01*
X-198701D01*
X-200201Y-316411D01*
Y-311912D01*
Y-314911D02*
X-203200Y-317910D01*
Y-320909D02*
Y-323908D01*
Y-322409D01*
X-194203D01*
X-195702Y-320909D01*
Y-328407D02*
X-194203Y-329906D01*
Y-332905D01*
X-195702Y-334405D01*
X-201700D01*
X-203200Y-332905D01*
Y-329906D01*
X-201700Y-328407D01*
X-195702D01*
X-223012Y-347726D02*
X-232009D01*
Y-343228D01*
X-230510Y-341728D01*
X-227511D01*
X-226011Y-343228D01*
Y-347726D01*
Y-344727D02*
X-223012Y-341728D01*
X-224512Y-338729D02*
X-223012Y-337229D01*
Y-334230D01*
X-224512Y-332731D01*
X-230510D01*
X-232009Y-334230D01*
Y-337229D01*
X-230510Y-338729D01*
X-229010D01*
X-227511Y-337229D01*
Y-332731D01*
X-185420Y-247904D02*
X-194417D01*
Y-243405D01*
X-192918Y-241906D01*
X-189918D01*
X-188419Y-243405D01*
Y-247904D01*
Y-244905D02*
X-185420Y-241906D01*
X-192918Y-238907D02*
X-194417Y-237407D01*
Y-234408D01*
X-192918Y-232909D01*
X-191418D01*
X-189918Y-234408D01*
X-188419Y-232909D01*
X-186919D01*
X-185420Y-234408D01*
Y-237407D01*
X-186919Y-238907D01*
X-188419D01*
X-189918Y-237407D01*
X-191418Y-238907D01*
X-192918D01*
X-189918Y-237407D02*
Y-234408D01*
X-236982Y-327406D02*
X-245979D01*
Y-322907D01*
X-244480Y-321408D01*
X-241481D01*
X-239981Y-322907D01*
Y-327406D01*
Y-324407D02*
X-236982Y-321408D01*
X-245979Y-318409D02*
Y-312411D01*
X-244480D01*
X-238482Y-318409D01*
X-236982D01*
X-197104Y-247904D02*
X-206101D01*
Y-243405D01*
X-204602Y-241906D01*
X-201602D01*
X-200103Y-243405D01*
Y-247904D01*
Y-244905D02*
X-197104Y-241906D01*
X-206101Y-232909D02*
X-204602Y-235908D01*
X-201602Y-238907D01*
X-198603D01*
X-197104Y-237407D01*
Y-234408D01*
X-198603Y-232909D01*
X-200103D01*
X-201602Y-234408D01*
Y-238907D01*
X-236728Y-247904D02*
X-245725D01*
Y-243405D01*
X-244226Y-241906D01*
X-241227D01*
X-239727Y-243405D01*
Y-247904D01*
Y-244905D02*
X-236728Y-241906D01*
X-245725Y-232909D02*
Y-238907D01*
X-241227D01*
X-242726Y-235908D01*
Y-234408D01*
X-241227Y-232909D01*
X-238228D01*
X-236728Y-234408D01*
Y-237407D01*
X-238228Y-238907D01*
X-263652Y-244856D02*
X-254655D01*
Y-249354D01*
X-256154Y-250854D01*
X-259153D01*
X-260653Y-249354D01*
Y-244856D01*
Y-247855D02*
X-263652Y-250854D01*
Y-258352D02*
X-254655D01*
X-259153Y-253853D01*
Y-259851D01*
X-292862Y-252730D02*
X-301859D01*
Y-248232D01*
X-300360Y-246732D01*
X-297360D01*
X-295861Y-248232D01*
Y-252730D01*
Y-249731D02*
X-292862Y-246732D01*
X-300360Y-243733D02*
X-301859Y-242233D01*
Y-239234D01*
X-300360Y-237735D01*
X-298860D01*
X-297360Y-239234D01*
Y-240734D01*
Y-239234D01*
X-295861Y-237735D01*
X-294361D01*
X-292862Y-239234D01*
Y-242233D01*
X-294361Y-243733D01*
X-323342Y-259334D02*
Y-250337D01*
X-318843D01*
X-317344Y-251836D01*
Y-254835D01*
X-318843Y-256335D01*
X-323342D01*
X-320343D02*
X-317344Y-259334D01*
X-308347D02*
X-314345D01*
X-308347Y-253336D01*
Y-251836D01*
X-309846Y-250337D01*
X-312845D01*
X-314345Y-251836D01*
X-348234Y-255524D02*
X-357231D01*
Y-251026D01*
X-355732Y-249526D01*
X-352733D01*
X-351233Y-251026D01*
Y-255524D01*
Y-252525D02*
X-348234Y-249526D01*
Y-246527D02*
Y-243528D01*
Y-245027D01*
X-357231D01*
X-355732Y-246527D01*
X-924159Y-522732D02*
X-915162D01*
Y-516734D01*
X-922660Y-513735D02*
X-924159Y-512235D01*
Y-509236D01*
X-922660Y-507737D01*
X-921160D01*
X-919660Y-509236D01*
Y-510736D01*
Y-509236D01*
X-918161Y-507737D01*
X-916662D01*
X-915162Y-509236D01*
Y-512235D01*
X-916662Y-513735D01*
X-857758Y-346857D02*
Y-355854D01*
X-851760D01*
X-842763D02*
X-848761D01*
X-842763Y-349856D01*
Y-348356D01*
X-844262Y-346857D01*
X-847261D01*
X-848761Y-348356D01*
X-887730Y-835045D02*
Y-844042D01*
X-881732D01*
X-878733D02*
X-875734D01*
X-877233D01*
Y-835045D01*
X-878733Y-836544D01*
X-785007Y-414430D02*
Y-408432D01*
X-789505D01*
Y-411431D01*
Y-408432D01*
X-794004D01*
X-785007Y-417429D02*
X-794004D01*
Y-421928D01*
X-792505Y-423427D01*
X-791005D01*
X-789505Y-421928D01*
Y-417429D01*
Y-421928D01*
X-788006Y-423427D01*
X-786506D01*
X-785007Y-421928D01*
Y-417429D01*
Y-426426D02*
Y-432424D01*
X-786506D01*
X-792505Y-426426D01*
X-794004D01*
X-794610Y-890925D02*
X-800608D01*
Y-895424D01*
X-797609D01*
X-800608D01*
Y-899922D01*
X-791611Y-890925D02*
Y-899922D01*
X-787112D01*
X-785613Y-898422D01*
Y-896923D01*
X-787112Y-895424D01*
X-791611D01*
X-787112D01*
X-785613Y-893924D01*
Y-892424D01*
X-787112Y-890925D01*
X-791611D01*
X-776616D02*
X-779615Y-892424D01*
X-782614Y-895424D01*
Y-898422D01*
X-781114Y-899922D01*
X-778115D01*
X-776616Y-898422D01*
Y-896923D01*
X-778115Y-895424D01*
X-782614D01*
X-853792Y-890671D02*
X-859790D01*
Y-895170D01*
X-856791D01*
X-859790D01*
Y-899668D01*
X-850793Y-890671D02*
Y-899668D01*
X-846294D01*
X-844795Y-898168D01*
Y-896669D01*
X-846294Y-895170D01*
X-850793D01*
X-846294D01*
X-844795Y-893670D01*
Y-892170D01*
X-846294Y-890671D01*
X-850793D01*
X-835798D02*
X-841796D01*
Y-895170D01*
X-838797Y-893670D01*
X-837297D01*
X-835798Y-895170D01*
Y-898168D01*
X-837297Y-899668D01*
X-840296D01*
X-841796Y-898168D01*
X-726792Y-1124097D02*
X-732790D01*
Y-1128596D01*
X-729791D01*
X-732790D01*
Y-1133094D01*
X-723793Y-1124097D02*
Y-1133094D01*
X-719294D01*
X-717795Y-1131594D01*
Y-1130095D01*
X-719294Y-1128596D01*
X-723793D01*
X-719294D01*
X-717795Y-1127096D01*
Y-1125596D01*
X-719294Y-1124097D01*
X-723793D01*
X-710297Y-1133094D02*
Y-1124097D01*
X-714796Y-1128596D01*
X-708798D01*
X-642718Y-1124605D02*
X-648716D01*
Y-1129103D01*
X-645717D01*
X-648716D01*
Y-1133602D01*
X-639719Y-1124605D02*
Y-1133602D01*
X-635220D01*
X-633721Y-1132103D01*
Y-1130603D01*
X-635220Y-1129103D01*
X-639719D01*
X-635220D01*
X-633721Y-1127604D01*
Y-1126104D01*
X-635220Y-1124605D01*
X-639719D01*
X-630722Y-1126104D02*
X-629222Y-1124605D01*
X-626223D01*
X-624724Y-1126104D01*
Y-1127604D01*
X-626223Y-1129103D01*
X-627723D01*
X-626223D01*
X-624724Y-1130603D01*
Y-1132103D01*
X-626223Y-1133602D01*
X-629222D01*
X-630722Y-1132103D01*
X-823312Y-889909D02*
X-829310D01*
Y-894408D01*
X-826311D01*
X-829310D01*
Y-898906D01*
X-820313Y-889909D02*
Y-898906D01*
X-815814D01*
X-814315Y-897406D01*
Y-895907D01*
X-815814Y-894408D01*
X-820313D01*
X-815814D01*
X-814315Y-892908D01*
Y-891408D01*
X-815814Y-889909D01*
X-820313D01*
X-805318Y-898906D02*
X-811316D01*
X-805318Y-892908D01*
Y-891408D01*
X-806817Y-889909D01*
X-809816D01*
X-811316Y-891408D01*
X-659745Y-1060040D02*
Y-1066038D01*
X-655247D01*
Y-1063039D01*
Y-1066038D01*
X-650748D01*
X-659745Y-1057041D02*
X-650748D01*
Y-1052542D01*
X-652247Y-1051043D01*
X-653747D01*
X-655247Y-1052542D01*
Y-1057041D01*
Y-1052542D01*
X-656746Y-1051043D01*
X-658246D01*
X-659745Y-1052542D01*
Y-1057041D01*
X-650748Y-1048044D02*
Y-1045045D01*
Y-1046544D01*
X-659745D01*
X-658246Y-1048044D01*
X-843788Y-580537D02*
Y-589534D01*
X-839289D01*
X-837790Y-588035D01*
Y-582036D01*
X-839289Y-580537D01*
X-843788D01*
X-828793D02*
X-831792Y-582036D01*
X-834791Y-585036D01*
Y-588035D01*
X-833291Y-589534D01*
X-830292D01*
X-828793Y-588035D01*
Y-586535D01*
X-830292Y-585036D01*
X-834791D01*
X-869696Y-459379D02*
Y-468376D01*
X-865198D01*
X-863698Y-466876D01*
Y-460878D01*
X-865198Y-459379D01*
X-869696D01*
X-854701D02*
X-860699D01*
Y-463877D01*
X-857700Y-462378D01*
X-856200D01*
X-854701Y-463877D01*
Y-466876D01*
X-856200Y-468376D01*
X-859199D01*
X-860699Y-466876D01*
X-830326Y-997097D02*
Y-1006094D01*
X-825827D01*
X-824328Y-1004594D01*
Y-998596D01*
X-825827Y-997097D01*
X-830326D01*
X-816830Y-1006094D02*
Y-997097D01*
X-821329Y-1001596D01*
X-815331D01*
X-346334Y-906624D02*
X-347833Y-908123D01*
Y-911123D01*
X-346334Y-912622D01*
X-340336D01*
X-338836Y-911123D01*
Y-908123D01*
X-340336Y-906624D01*
Y-903625D02*
X-338836Y-902125D01*
Y-899126D01*
X-340336Y-897627D01*
X-346334D01*
X-347833Y-899126D01*
Y-902125D01*
X-346334Y-903625D01*
X-344834D01*
X-343335Y-902125D01*
Y-897627D01*
X-346334Y-894628D02*
X-347833Y-893128D01*
Y-890129D01*
X-346334Y-888630D01*
X-344834D01*
X-343335Y-890129D01*
Y-891629D01*
Y-890129D01*
X-341835Y-888630D01*
X-340336D01*
X-338836Y-890129D01*
Y-893128D01*
X-340336Y-894628D01*
X-385416Y-982340D02*
X-386916Y-980841D01*
X-389915D01*
X-391414Y-982340D01*
Y-988338D01*
X-389915Y-989838D01*
X-386916D01*
X-385416Y-988338D01*
X-382417D02*
X-380917Y-989838D01*
X-377918D01*
X-376419Y-988338D01*
Y-982340D01*
X-377918Y-980841D01*
X-380917D01*
X-382417Y-982340D01*
Y-983840D01*
X-380917Y-985340D01*
X-376419D01*
X-367422Y-989838D02*
X-373420D01*
X-367422Y-983840D01*
Y-982340D01*
X-368921Y-980841D01*
X-371920D01*
X-373420Y-982340D01*
X-35404Y-822574D02*
X-36904Y-821075D01*
X-39903D01*
X-41402Y-822574D01*
Y-828572D01*
X-39903Y-830072D01*
X-36904D01*
X-35404Y-828572D01*
X-32405D02*
X-30905Y-830072D01*
X-27906D01*
X-26407Y-828572D01*
Y-822574D01*
X-27906Y-821075D01*
X-30905D01*
X-32405Y-822574D01*
Y-824074D01*
X-30905Y-825574D01*
X-26407D01*
X-23408Y-830072D02*
X-20409D01*
X-21908D01*
Y-821075D01*
X-23408Y-822574D01*
X-369668Y-647314D02*
X-371167Y-645815D01*
X-374166D01*
X-375666Y-647314D01*
Y-653313D01*
X-374166Y-654812D01*
X-371167D01*
X-369668Y-653313D01*
X-366669Y-647314D02*
X-365169Y-645815D01*
X-362170D01*
X-360671Y-647314D01*
Y-648814D01*
X-362170Y-650313D01*
X-360671Y-651813D01*
Y-653313D01*
X-362170Y-654812D01*
X-365169D01*
X-366669Y-653313D01*
Y-651813D01*
X-365169Y-650313D01*
X-366669Y-648814D01*
Y-647314D01*
X-365169Y-650313D02*
X-362170D01*
X-357672Y-654812D02*
X-354673D01*
X-356172D01*
Y-645815D01*
X-357672Y-647314D01*
X-350872Y-754248D02*
X-352371Y-752749D01*
X-355370D01*
X-356870Y-754248D01*
Y-760247D01*
X-355370Y-761746D01*
X-352371D01*
X-350872Y-760247D01*
X-347873Y-754248D02*
X-346373Y-752749D01*
X-343374D01*
X-341875Y-754248D01*
Y-755748D01*
X-343374Y-757247D01*
X-341875Y-758747D01*
Y-760247D01*
X-343374Y-761746D01*
X-346373D01*
X-347873Y-760247D01*
Y-758747D01*
X-346373Y-757247D01*
X-347873Y-755748D01*
Y-754248D01*
X-346373Y-757247D02*
X-343374D01*
X-338876Y-754248D02*
X-337376Y-752749D01*
X-334377D01*
X-332878Y-754248D01*
Y-760247D01*
X-334377Y-761746D01*
X-337376D01*
X-338876Y-760247D01*
Y-754248D01*
X-348332Y-560954D02*
X-349832Y-559455D01*
X-352831D01*
X-354330Y-560954D01*
Y-566953D01*
X-352831Y-568452D01*
X-349832D01*
X-348332Y-566953D01*
X-345333Y-559455D02*
X-339335D01*
Y-560954D01*
X-345333Y-566953D01*
Y-568452D01*
X-336336Y-566953D02*
X-334836Y-568452D01*
X-331837D01*
X-330338Y-566953D01*
Y-560954D01*
X-331837Y-559455D01*
X-334836D01*
X-336336Y-560954D01*
Y-562454D01*
X-334836Y-563954D01*
X-330338D01*
X-523880Y-653640D02*
X-525379Y-655139D01*
Y-658139D01*
X-523880Y-659638D01*
X-517882D01*
X-516382Y-658139D01*
Y-655139D01*
X-517882Y-653640D01*
X-525379Y-650641D02*
Y-644643D01*
X-523880D01*
X-517882Y-650641D01*
X-516382D01*
X-523880Y-641644D02*
X-525379Y-640144D01*
Y-637145D01*
X-523880Y-635646D01*
X-522380D01*
X-520881Y-637145D01*
X-519381Y-635646D01*
X-517882D01*
X-516382Y-637145D01*
Y-640144D01*
X-517882Y-641644D01*
X-519381D01*
X-520881Y-640144D01*
X-522380Y-641644D01*
X-523880D01*
X-520881Y-640144D02*
Y-637145D01*
X-563216Y-638932D02*
X-564715Y-637433D01*
X-567715D01*
X-569214Y-638932D01*
Y-644930D01*
X-567715Y-646430D01*
X-564715D01*
X-563216Y-644930D01*
X-560217Y-637433D02*
X-554219D01*
Y-638932D01*
X-560217Y-644930D01*
Y-646430D01*
X-551220Y-637433D02*
X-545222D01*
Y-638932D01*
X-551220Y-644930D01*
Y-646430D01*
X-525116Y-827908D02*
X-526615Y-826409D01*
X-529614D01*
X-531114Y-827908D01*
Y-833906D01*
X-529614Y-835406D01*
X-526615D01*
X-525116Y-833906D01*
X-522117Y-826409D02*
X-516119D01*
Y-827908D01*
X-522117Y-833906D01*
Y-835406D01*
X-507122Y-826409D02*
X-510121Y-827908D01*
X-513120Y-830908D01*
Y-833906D01*
X-511620Y-835406D01*
X-508621D01*
X-507122Y-833906D01*
Y-832407D01*
X-508621Y-830908D01*
X-513120D01*
X-580522Y-845156D02*
X-582021Y-846656D01*
Y-849654D01*
X-580522Y-851154D01*
X-574524D01*
X-573024Y-849654D01*
Y-846656D01*
X-574524Y-845156D01*
X-582021Y-842157D02*
Y-836159D01*
X-580522D01*
X-574524Y-842157D01*
X-573024D01*
X-582021Y-827162D02*
Y-833160D01*
X-577523D01*
X-579022Y-830161D01*
Y-828661D01*
X-577523Y-827162D01*
X-574524D01*
X-573024Y-828661D01*
Y-831660D01*
X-574524Y-833160D01*
X-468982Y-622168D02*
X-470481Y-620669D01*
X-473480D01*
X-474980Y-622168D01*
Y-628167D01*
X-473480Y-629666D01*
X-470481D01*
X-468982Y-628167D01*
X-465983Y-620669D02*
X-459985D01*
Y-622168D01*
X-465983Y-628167D01*
Y-629666D01*
X-452487D02*
Y-620669D01*
X-456986Y-625168D01*
X-450988D01*
X-637916Y-691036D02*
X-636417Y-689537D01*
Y-686537D01*
X-637916Y-685038D01*
X-643914D01*
X-645414Y-686537D01*
Y-689537D01*
X-643914Y-691036D01*
X-636417Y-694035D02*
Y-700033D01*
X-637916D01*
X-643914Y-694035D01*
X-645414D01*
X-637916Y-703032D02*
X-636417Y-704532D01*
Y-707531D01*
X-637916Y-709030D01*
X-639416D01*
X-640916Y-707531D01*
Y-706031D01*
Y-707531D01*
X-642415Y-709030D01*
X-643914D01*
X-645414Y-707531D01*
Y-704532D01*
X-643914Y-703032D01*
X-469998Y-822146D02*
X-471497Y-820647D01*
X-474496D01*
X-475996Y-822146D01*
Y-828145D01*
X-474496Y-829644D01*
X-471497D01*
X-469998Y-828145D01*
X-466999Y-820647D02*
X-461001D01*
Y-822146D01*
X-466999Y-828145D01*
Y-829644D01*
X-452004D02*
X-458002D01*
X-452004Y-823646D01*
Y-822146D01*
X-453503Y-820647D01*
X-456502D01*
X-458002Y-822146D01*
X-622022Y-860352D02*
X-623521Y-858853D01*
X-626521D01*
X-628020Y-860352D01*
Y-866350D01*
X-626521Y-867850D01*
X-623521D01*
X-622022Y-866350D01*
X-619023Y-858853D02*
X-613025D01*
Y-860352D01*
X-619023Y-866350D01*
Y-867850D01*
X-610026D02*
X-607027D01*
X-608526D01*
Y-858853D01*
X-610026Y-860352D01*
X-628626Y-663824D02*
X-630126Y-662325D01*
X-633125D01*
X-634624Y-663824D01*
Y-669822D01*
X-633125Y-671322D01*
X-630126D01*
X-628626Y-669822D01*
X-625627Y-662325D02*
X-619629D01*
Y-663824D01*
X-625627Y-669822D01*
Y-671322D01*
X-616630Y-663824D02*
X-615130Y-662325D01*
X-612131D01*
X-610632Y-663824D01*
Y-669822D01*
X-612131Y-671322D01*
X-615130D01*
X-616630Y-669822D01*
Y-663824D01*
X-622022Y-849752D02*
X-623521Y-848253D01*
X-626521D01*
X-628020Y-849752D01*
Y-855751D01*
X-626521Y-857250D01*
X-623521D01*
X-622022Y-855751D01*
X-613025Y-848253D02*
X-616024Y-849752D01*
X-619023Y-852751D01*
Y-855751D01*
X-617523Y-857250D01*
X-614524D01*
X-613025Y-855751D01*
Y-854251D01*
X-614524Y-852751D01*
X-619023D01*
X-610026Y-855751D02*
X-608526Y-857250D01*
X-605527D01*
X-604028Y-855751D01*
Y-849752D01*
X-605527Y-848253D01*
X-608526D01*
X-610026Y-849752D01*
Y-851252D01*
X-608526Y-852751D01*
X-604028D01*
X-628626Y-654172D02*
X-630126Y-652673D01*
X-633125D01*
X-634624Y-654172D01*
Y-660171D01*
X-633125Y-661670D01*
X-630126D01*
X-628626Y-660171D01*
X-619629Y-652673D02*
X-622628Y-654172D01*
X-625627Y-657171D01*
Y-660171D01*
X-624128Y-661670D01*
X-621128D01*
X-619629Y-660171D01*
Y-658671D01*
X-621128Y-657171D01*
X-625627D01*
X-616630Y-654172D02*
X-615130Y-652673D01*
X-612131D01*
X-610632Y-654172D01*
Y-655672D01*
X-612131Y-657171D01*
X-610632Y-658671D01*
Y-660171D01*
X-612131Y-661670D01*
X-615130D01*
X-616630Y-660171D01*
Y-658671D01*
X-615130Y-657171D01*
X-616630Y-655672D01*
Y-654172D01*
X-615130Y-657171D02*
X-612131D01*
X-622022Y-840286D02*
X-623521Y-838787D01*
X-626521D01*
X-628020Y-840286D01*
Y-846284D01*
X-626521Y-847784D01*
X-623521D01*
X-622022Y-846284D01*
X-613025Y-838787D02*
X-616024Y-840286D01*
X-619023Y-843286D01*
Y-846284D01*
X-617523Y-847784D01*
X-614524D01*
X-613025Y-846284D01*
Y-844785D01*
X-614524Y-843286D01*
X-619023D01*
X-610026Y-838787D02*
X-604028D01*
Y-840286D01*
X-610026Y-846284D01*
Y-847784D01*
X-628748Y-610992D02*
X-630247Y-609493D01*
X-633246D01*
X-634746Y-610992D01*
Y-616991D01*
X-633246Y-618490D01*
X-630247D01*
X-628748Y-616991D01*
X-619751Y-609493D02*
X-622750Y-610992D01*
X-625749Y-613992D01*
Y-616991D01*
X-624249Y-618490D01*
X-621250D01*
X-619751Y-616991D01*
Y-615491D01*
X-621250Y-613992D01*
X-625749D01*
X-610754Y-609493D02*
X-616752D01*
Y-613992D01*
X-613753Y-612492D01*
X-612253D01*
X-610754Y-613992D01*
Y-616991D01*
X-612253Y-618490D01*
X-615252D01*
X-616752Y-616991D01*
X-622022Y-798376D02*
X-623521Y-796877D01*
X-626521D01*
X-628020Y-798376D01*
Y-804374D01*
X-626521Y-805874D01*
X-623521D01*
X-622022Y-804374D01*
X-613025Y-796877D02*
X-616024Y-798376D01*
X-619023Y-801376D01*
Y-804374D01*
X-617523Y-805874D01*
X-614524D01*
X-613025Y-804374D01*
Y-802875D01*
X-614524Y-801376D01*
X-619023D01*
X-605527Y-805874D02*
Y-796877D01*
X-610026Y-801376D01*
X-604028D01*
X-622022Y-808028D02*
X-623521Y-806529D01*
X-626521D01*
X-628020Y-808028D01*
Y-814026D01*
X-626521Y-815526D01*
X-623521D01*
X-622022Y-814026D01*
X-613025Y-806529D02*
X-616024Y-808028D01*
X-619023Y-811028D01*
Y-814026D01*
X-617523Y-815526D01*
X-614524D01*
X-613025Y-814026D01*
Y-812527D01*
X-614524Y-811028D01*
X-619023D01*
X-610026Y-808028D02*
X-608526Y-806529D01*
X-605527D01*
X-604028Y-808028D01*
Y-809528D01*
X-605527Y-811028D01*
X-607027D01*
X-605527D01*
X-604028Y-812527D01*
Y-814026D01*
X-605527Y-815526D01*
X-608526D01*
X-610026Y-814026D01*
X-628634Y-591116D02*
X-630134Y-589617D01*
X-633133D01*
X-634632Y-591116D01*
Y-597114D01*
X-633133Y-598614D01*
X-630134D01*
X-628634Y-597114D01*
X-619637Y-589617D02*
X-622636Y-591116D01*
X-625635Y-594115D01*
Y-597114D01*
X-624136Y-598614D01*
X-621136D01*
X-619637Y-597114D01*
Y-595615D01*
X-621136Y-594115D01*
X-625635D01*
X-610640Y-598614D02*
X-616638D01*
X-610640Y-592616D01*
Y-591116D01*
X-612139Y-589617D01*
X-615138D01*
X-616638Y-591116D01*
X-622022Y-781104D02*
X-623521Y-779605D01*
X-626521D01*
X-628020Y-781104D01*
Y-787103D01*
X-626521Y-788602D01*
X-623521D01*
X-622022Y-787103D01*
X-613025Y-779605D02*
X-616024Y-781104D01*
X-619023Y-784103D01*
Y-787103D01*
X-617523Y-788602D01*
X-614524D01*
X-613025Y-787103D01*
Y-785603D01*
X-614524Y-784103D01*
X-619023D01*
X-610026Y-788602D02*
X-607027D01*
X-608526D01*
Y-779605D01*
X-610026Y-781104D01*
X-628634Y-581718D02*
X-630134Y-580219D01*
X-633133D01*
X-634632Y-581718D01*
Y-587716D01*
X-633133Y-589216D01*
X-630134D01*
X-628634Y-587716D01*
X-619637Y-580219D02*
X-622636Y-581718D01*
X-625635Y-584717D01*
Y-587716D01*
X-624136Y-589216D01*
X-621136D01*
X-619637Y-587716D01*
Y-586217D01*
X-621136Y-584717D01*
X-625635D01*
X-616638Y-581718D02*
X-615138Y-580219D01*
X-612139D01*
X-610640Y-581718D01*
Y-587716D01*
X-612139Y-589216D01*
X-615138D01*
X-616638Y-587716D01*
Y-581718D01*
X-622022Y-770182D02*
X-623521Y-768683D01*
X-626521D01*
X-628020Y-770182D01*
Y-776180D01*
X-626521Y-777680D01*
X-623521D01*
X-622022Y-776180D01*
X-613025Y-768683D02*
X-619023D01*
Y-773182D01*
X-616024Y-771682D01*
X-614524D01*
X-613025Y-773182D01*
Y-776180D01*
X-614524Y-777680D01*
X-617523D01*
X-619023Y-776180D01*
X-610026D02*
X-608526Y-777680D01*
X-605527D01*
X-604028Y-776180D01*
Y-770182D01*
X-605527Y-768683D01*
X-608526D01*
X-610026Y-770182D01*
Y-771682D01*
X-608526Y-773182D01*
X-604028D01*
X-628626Y-632582D02*
X-630126Y-631083D01*
X-633125D01*
X-634624Y-632582D01*
Y-638581D01*
X-633125Y-640080D01*
X-630126D01*
X-628626Y-638581D01*
X-619629Y-631083D02*
X-625627D01*
Y-635582D01*
X-622628Y-634082D01*
X-621128D01*
X-619629Y-635582D01*
Y-638581D01*
X-621128Y-640080D01*
X-624128D01*
X-625627Y-638581D01*
X-616630Y-632582D02*
X-615130Y-631083D01*
X-612131D01*
X-610632Y-632582D01*
Y-634082D01*
X-612131Y-635582D01*
X-610632Y-637081D01*
Y-638581D01*
X-612131Y-640080D01*
X-615130D01*
X-616630Y-638581D01*
Y-637081D01*
X-615130Y-635582D01*
X-616630Y-634082D01*
Y-632582D01*
X-615130Y-635582D02*
X-612131D01*
X-628634Y-600768D02*
X-630134Y-599269D01*
X-633133D01*
X-634632Y-600768D01*
Y-606767D01*
X-633133Y-608266D01*
X-630134D01*
X-628634Y-606767D01*
X-619637Y-599269D02*
X-625635D01*
Y-603767D01*
X-622636Y-602268D01*
X-621136D01*
X-619637Y-603767D01*
Y-606767D01*
X-621136Y-608266D01*
X-624136D01*
X-625635Y-606767D01*
X-616638Y-599269D02*
X-610640D01*
Y-600768D01*
X-616638Y-606767D01*
Y-608266D01*
X-628634Y-572320D02*
X-630134Y-570821D01*
X-633133D01*
X-634632Y-572320D01*
Y-578318D01*
X-633133Y-579818D01*
X-630134D01*
X-628634Y-578318D01*
X-619637Y-570821D02*
X-625635D01*
Y-575319D01*
X-622636Y-573820D01*
X-621136D01*
X-619637Y-575319D01*
Y-578318D01*
X-621136Y-579818D01*
X-624136D01*
X-625635Y-578318D01*
X-610640Y-570821D02*
X-613639Y-572320D01*
X-616638Y-575319D01*
Y-578318D01*
X-615138Y-579818D01*
X-612139D01*
X-610640Y-578318D01*
Y-576819D01*
X-612139Y-575319D01*
X-616638D01*
X-649322Y-553334D02*
X-650822Y-551835D01*
X-653820D01*
X-655320Y-553334D01*
Y-559333D01*
X-653820Y-560832D01*
X-650822D01*
X-649322Y-559333D01*
X-640325Y-551835D02*
X-646323D01*
Y-556334D01*
X-643324Y-554834D01*
X-641824D01*
X-640325Y-556334D01*
Y-559333D01*
X-641824Y-560832D01*
X-644823D01*
X-646323Y-559333D01*
X-631328Y-551835D02*
X-637326D01*
Y-556334D01*
X-634327Y-554834D01*
X-632827D01*
X-631328Y-556334D01*
Y-559333D01*
X-632827Y-560832D01*
X-635826D01*
X-637326Y-559333D01*
X-622022Y-820542D02*
X-623521Y-819043D01*
X-626521D01*
X-628020Y-820542D01*
Y-826541D01*
X-626521Y-828040D01*
X-623521D01*
X-622022Y-826541D01*
X-613025Y-819043D02*
X-619023D01*
Y-823541D01*
X-616024Y-822042D01*
X-614524D01*
X-613025Y-823541D01*
Y-826541D01*
X-614524Y-828040D01*
X-617523D01*
X-619023Y-826541D01*
X-605527Y-828040D02*
Y-819043D01*
X-610026Y-823541D01*
X-604028D01*
X-622022Y-789554D02*
X-623521Y-788055D01*
X-626521D01*
X-628020Y-789554D01*
Y-795553D01*
X-626521Y-797052D01*
X-623521D01*
X-622022Y-795553D01*
X-613025Y-788055D02*
X-619023D01*
Y-792553D01*
X-616024Y-791054D01*
X-614524D01*
X-613025Y-792553D01*
Y-795553D01*
X-614524Y-797052D01*
X-617523D01*
X-619023Y-795553D01*
X-610026Y-789554D02*
X-608526Y-788055D01*
X-605527D01*
X-604028Y-789554D01*
Y-791054D01*
X-605527Y-792553D01*
X-607027D01*
X-605527D01*
X-604028Y-794053D01*
Y-795553D01*
X-605527Y-797052D01*
X-608526D01*
X-610026Y-795553D01*
X-622022Y-760852D02*
X-623521Y-759353D01*
X-626521D01*
X-628020Y-760852D01*
Y-766851D01*
X-626521Y-768350D01*
X-623521D01*
X-622022Y-766851D01*
X-613025Y-759353D02*
X-619023D01*
Y-763851D01*
X-616024Y-762352D01*
X-614524D01*
X-613025Y-763851D01*
Y-766851D01*
X-614524Y-768350D01*
X-617523D01*
X-619023Y-766851D01*
X-604028Y-768350D02*
X-610026D01*
X-604028Y-762352D01*
Y-760852D01*
X-605527Y-759353D01*
X-608526D01*
X-610026Y-760852D01*
X-622022Y-750810D02*
X-623521Y-749311D01*
X-626521D01*
X-628020Y-750810D01*
Y-756808D01*
X-626521Y-758308D01*
X-623521D01*
X-622022Y-756808D01*
X-613025Y-749311D02*
X-619023D01*
Y-753810D01*
X-616024Y-752310D01*
X-614524D01*
X-613025Y-753810D01*
Y-756808D01*
X-614524Y-758308D01*
X-617523D01*
X-619023Y-756808D01*
X-610026Y-758308D02*
X-607027D01*
X-608526D01*
Y-749311D01*
X-610026Y-750810D01*
X-444023Y-546706D02*
X-445522Y-545207D01*
X-448521D01*
X-450021Y-546706D01*
Y-552705D01*
X-448521Y-554204D01*
X-445522D01*
X-444023Y-552705D01*
X-435026Y-545207D02*
X-441024D01*
Y-549706D01*
X-438025Y-548206D01*
X-436525D01*
X-435026Y-549706D01*
Y-552705D01*
X-436525Y-554204D01*
X-439524D01*
X-441024Y-552705D01*
X-432027Y-546706D02*
X-430527Y-545207D01*
X-427528D01*
X-426029Y-546706D01*
Y-552705D01*
X-427528Y-554204D01*
X-430527D01*
X-432027Y-552705D01*
Y-546706D01*
X-487016Y-556890D02*
X-488516Y-555391D01*
X-491515D01*
X-493014Y-556890D01*
Y-562888D01*
X-491515Y-564388D01*
X-488516D01*
X-487016Y-562888D01*
X-479518Y-564388D02*
Y-555391D01*
X-484017Y-559889D01*
X-478019D01*
X-475020Y-562888D02*
X-473520Y-564388D01*
X-470521D01*
X-469022Y-562888D01*
Y-556890D01*
X-470521Y-555391D01*
X-473520D01*
X-475020Y-556890D01*
Y-558390D01*
X-473520Y-559889D01*
X-469022D01*
X-472284Y-738500D02*
X-473783Y-737001D01*
X-476782D01*
X-478282Y-738500D01*
Y-744499D01*
X-476782Y-745998D01*
X-473783D01*
X-472284Y-744499D01*
X-464786Y-745998D02*
Y-737001D01*
X-469285Y-741499D01*
X-463287D01*
X-460288Y-738500D02*
X-458788Y-737001D01*
X-455789D01*
X-454290Y-738500D01*
Y-740000D01*
X-455789Y-741499D01*
X-454290Y-742999D01*
Y-744499D01*
X-455789Y-745998D01*
X-458788D01*
X-460288Y-744499D01*
Y-742999D01*
X-458788Y-741499D01*
X-460288Y-740000D01*
Y-738500D01*
X-458788Y-741499D02*
X-455789D01*
X-472284Y-750692D02*
X-473783Y-749193D01*
X-476782D01*
X-478282Y-750692D01*
Y-756691D01*
X-476782Y-758190D01*
X-473783D01*
X-472284Y-756691D01*
X-464786Y-758190D02*
Y-749193D01*
X-469285Y-753691D01*
X-463287D01*
X-460288Y-749193D02*
X-454290D01*
Y-750692D01*
X-460288Y-756691D01*
Y-758190D01*
X-420214Y-486278D02*
X-421713Y-484779D01*
X-424712D01*
X-426212Y-486278D01*
Y-492276D01*
X-424712Y-493776D01*
X-421713D01*
X-420214Y-492276D01*
X-412716Y-493776D02*
Y-484779D01*
X-417215Y-489277D01*
X-411217D01*
X-402220Y-484779D02*
X-405219Y-486278D01*
X-408218Y-489277D01*
Y-492276D01*
X-406718Y-493776D01*
X-403719D01*
X-402220Y-492276D01*
Y-490777D01*
X-403719Y-489277D01*
X-408218D01*
X-468508Y-695804D02*
X-470007Y-697303D01*
Y-700303D01*
X-468508Y-701802D01*
X-462509D01*
X-461010Y-700303D01*
Y-697303D01*
X-462509Y-695804D01*
X-461010Y-688306D02*
X-470007D01*
X-465508Y-692805D01*
Y-686807D01*
X-470007Y-677810D02*
Y-683808D01*
X-465508D01*
X-467008Y-680809D01*
Y-679309D01*
X-465508Y-677810D01*
X-462509D01*
X-461010Y-679309D01*
Y-682308D01*
X-462509Y-683808D01*
X-803026Y-710536D02*
X-804525Y-712036D01*
Y-715034D01*
X-803026Y-716534D01*
X-797028D01*
X-795528Y-715034D01*
Y-712036D01*
X-797028Y-710536D01*
X-795528Y-703038D02*
X-804525D01*
X-800026Y-707537D01*
Y-701539D01*
X-803026Y-698540D02*
X-804525Y-697040D01*
Y-694041D01*
X-803026Y-692542D01*
X-801526D01*
X-800026Y-694041D01*
Y-695541D01*
Y-694041D01*
X-798527Y-692542D01*
X-797028D01*
X-795528Y-694041D01*
Y-697040D01*
X-797028Y-698540D01*
X-946248Y-758566D02*
X-947747Y-757067D01*
X-950747D01*
X-952246Y-758566D01*
Y-764565D01*
X-950747Y-766064D01*
X-947747D01*
X-946248Y-764565D01*
X-938750Y-766064D02*
Y-757067D01*
X-943249Y-761565D01*
X-937251D01*
X-934252Y-766064D02*
X-931253D01*
X-932752D01*
Y-757067D01*
X-934252Y-758566D01*
X-935326Y-772790D02*
X-936825Y-771291D01*
X-939825D01*
X-941324Y-772790D01*
Y-778789D01*
X-939825Y-780288D01*
X-936825D01*
X-935326Y-778789D01*
X-927828Y-780288D02*
Y-771291D01*
X-932327Y-775789D01*
X-926329D01*
X-923330Y-772790D02*
X-921830Y-771291D01*
X-918831D01*
X-917332Y-772790D01*
Y-778789D01*
X-918831Y-780288D01*
X-921830D01*
X-923330Y-778789D01*
Y-772790D01*
X-794356Y-435478D02*
X-795855Y-433979D01*
X-798855D01*
X-800354Y-435478D01*
Y-441477D01*
X-798855Y-442976D01*
X-795855D01*
X-794356Y-441477D01*
X-791357Y-435478D02*
X-789857Y-433979D01*
X-786858D01*
X-785359Y-435478D01*
Y-436978D01*
X-786858Y-438478D01*
X-788358D01*
X-786858D01*
X-785359Y-439977D01*
Y-441477D01*
X-786858Y-442976D01*
X-789857D01*
X-791357Y-441477D01*
X-782360D02*
X-780860Y-442976D01*
X-777861D01*
X-776362Y-441477D01*
Y-435478D01*
X-777861Y-433979D01*
X-780860D01*
X-782360Y-435478D01*
Y-436978D01*
X-780860Y-438478D01*
X-776362D01*
X-854300Y-479928D02*
X-855799Y-478429D01*
X-858799D01*
X-860298Y-479928D01*
Y-485927D01*
X-858799Y-487426D01*
X-855799D01*
X-854300Y-485927D01*
X-851301Y-479928D02*
X-849801Y-478429D01*
X-846802D01*
X-845303Y-479928D01*
Y-481428D01*
X-846802Y-482928D01*
X-848302D01*
X-846802D01*
X-845303Y-484427D01*
Y-485927D01*
X-846802Y-487426D01*
X-849801D01*
X-851301Y-485927D01*
X-842304Y-479928D02*
X-840804Y-478429D01*
X-837805D01*
X-836306Y-479928D01*
Y-481428D01*
X-837805Y-482928D01*
X-836306Y-484427D01*
Y-485927D01*
X-837805Y-487426D01*
X-840804D01*
X-842304Y-485927D01*
Y-484427D01*
X-840804Y-482928D01*
X-842304Y-481428D01*
Y-479928D01*
X-840804Y-482928D02*
X-837805D01*
X-866018Y-526640D02*
X-867517Y-528139D01*
Y-531138D01*
X-866018Y-532638D01*
X-860020D01*
X-858520Y-531138D01*
Y-528139D01*
X-860020Y-526640D01*
X-866018Y-523641D02*
X-867517Y-522141D01*
Y-519142D01*
X-866018Y-517643D01*
X-864518D01*
X-863018Y-519142D01*
Y-520642D01*
Y-519142D01*
X-861519Y-517643D01*
X-860020D01*
X-858520Y-519142D01*
Y-522141D01*
X-860020Y-523641D01*
X-867517Y-514644D02*
Y-508646D01*
X-866018D01*
X-860020Y-514644D01*
X-858520D01*
X-950566Y-597530D02*
X-952066Y-596031D01*
X-955064D01*
X-956564Y-597530D01*
Y-603529D01*
X-955064Y-605028D01*
X-952066D01*
X-950566Y-603529D01*
X-947567Y-597530D02*
X-946067Y-596031D01*
X-943068D01*
X-941569Y-597530D01*
Y-599030D01*
X-943068Y-600530D01*
X-944568D01*
X-943068D01*
X-941569Y-602029D01*
Y-603529D01*
X-943068Y-605028D01*
X-946067D01*
X-947567Y-603529D01*
X-932572Y-596031D02*
X-935571Y-597530D01*
X-938570Y-600530D01*
Y-603529D01*
X-937070Y-605028D01*
X-934071D01*
X-932572Y-603529D01*
Y-602029D01*
X-934071Y-600530D01*
X-938570D01*
X-939644Y-613532D02*
X-941143Y-612033D01*
X-944143D01*
X-945642Y-613532D01*
Y-619530D01*
X-944143Y-621030D01*
X-941143D01*
X-939644Y-619530D01*
X-936645Y-613532D02*
X-935145Y-612033D01*
X-932146D01*
X-930647Y-613532D01*
Y-615032D01*
X-932146Y-616531D01*
X-933646D01*
X-932146D01*
X-930647Y-618031D01*
Y-619530D01*
X-932146Y-621030D01*
X-935145D01*
X-936645Y-619530D01*
X-921650Y-612033D02*
X-927648D01*
Y-616531D01*
X-924649Y-615032D01*
X-923149D01*
X-921650Y-616531D01*
Y-619530D01*
X-923149Y-621030D01*
X-926148D01*
X-927648Y-619530D01*
X-831428Y-962450D02*
X-832486Y-961392D01*
X-834602D01*
X-835660Y-962450D01*
Y-966682D01*
X-834602Y-967740D01*
X-832486D01*
X-831428Y-966682D01*
X-829312Y-962450D02*
X-828254Y-961392D01*
X-826138D01*
X-825080Y-962450D01*
Y-963508D01*
X-826138Y-964566D01*
X-827196D01*
X-826138D01*
X-825080Y-965624D01*
Y-966682D01*
X-826138Y-967740D01*
X-828254D01*
X-829312Y-966682D01*
X-819790Y-967740D02*
Y-961392D01*
X-822964Y-964566D01*
X-818732D01*
X-759558Y-958718D02*
X-761058Y-957219D01*
X-764056D01*
X-765556Y-958718D01*
Y-964716D01*
X-764056Y-966216D01*
X-761058D01*
X-759558Y-964716D01*
X-756559Y-958718D02*
X-755059Y-957219D01*
X-752060D01*
X-750561Y-958718D01*
Y-960218D01*
X-752060Y-961718D01*
X-753560D01*
X-752060D01*
X-750561Y-963217D01*
Y-964716D01*
X-752060Y-966216D01*
X-755059D01*
X-756559Y-964716D01*
X-747562Y-958718D02*
X-746062Y-957219D01*
X-743063D01*
X-741564Y-958718D01*
Y-960218D01*
X-743063Y-961718D01*
X-744563D01*
X-743063D01*
X-741564Y-963217D01*
Y-964716D01*
X-743063Y-966216D01*
X-746062D01*
X-747562Y-964716D01*
X-840838Y-874136D02*
X-842337Y-872637D01*
X-845337D01*
X-846836Y-874136D01*
Y-880135D01*
X-845337Y-881634D01*
X-842337D01*
X-840838Y-880135D01*
X-837839Y-874136D02*
X-836339Y-872637D01*
X-833340D01*
X-831841Y-874136D01*
Y-875636D01*
X-833340Y-877135D01*
X-834840D01*
X-833340D01*
X-831841Y-878635D01*
Y-880135D01*
X-833340Y-881634D01*
X-836339D01*
X-837839Y-880135D01*
X-822844Y-881634D02*
X-828842D01*
X-822844Y-875636D01*
Y-874136D01*
X-824343Y-872637D01*
X-827342D01*
X-828842Y-874136D01*
X-791308Y-398140D02*
X-792807Y-396641D01*
X-795807D01*
X-797306Y-398140D01*
Y-404138D01*
X-795807Y-405638D01*
X-792807D01*
X-791308Y-404138D01*
X-788309Y-398140D02*
X-786809Y-396641D01*
X-783810D01*
X-782311Y-398140D01*
Y-399640D01*
X-783810Y-401139D01*
X-785310D01*
X-783810D01*
X-782311Y-402639D01*
Y-404138D01*
X-783810Y-405638D01*
X-786809D01*
X-788309Y-404138D01*
X-779312Y-405638D02*
X-776313D01*
X-777812D01*
Y-396641D01*
X-779312Y-398140D01*
X-802738Y-359024D02*
X-804238Y-357525D01*
X-807236D01*
X-808736Y-359024D01*
Y-365023D01*
X-807236Y-366522D01*
X-804238D01*
X-802738Y-365023D01*
X-799739Y-359024D02*
X-798239Y-357525D01*
X-795240D01*
X-793741Y-359024D01*
Y-360524D01*
X-795240Y-362024D01*
X-796740D01*
X-795240D01*
X-793741Y-363523D01*
Y-365023D01*
X-795240Y-366522D01*
X-798239D01*
X-799739Y-365023D01*
X-790742Y-359024D02*
X-789242Y-357525D01*
X-786243D01*
X-784744Y-359024D01*
Y-365023D01*
X-786243Y-366522D01*
X-789242D01*
X-790742Y-365023D01*
Y-359024D01*
X-951074Y-420492D02*
X-952573Y-418993D01*
X-955573D01*
X-957072Y-420492D01*
Y-426491D01*
X-955573Y-427990D01*
X-952573D01*
X-951074Y-426491D01*
X-942077Y-427990D02*
X-948075D01*
X-942077Y-421992D01*
Y-420492D01*
X-943576Y-418993D01*
X-946575D01*
X-948075Y-420492D01*
X-939078Y-426491D02*
X-937578Y-427990D01*
X-934579D01*
X-933080Y-426491D01*
Y-420492D01*
X-934579Y-418993D01*
X-937578D01*
X-939078Y-420492D01*
Y-421992D01*
X-937578Y-423492D01*
X-933080D01*
X-942438Y-433700D02*
X-943938Y-432201D01*
X-946936D01*
X-948436Y-433700D01*
Y-439698D01*
X-946936Y-441198D01*
X-943938D01*
X-942438Y-439698D01*
X-933441Y-441198D02*
X-939439D01*
X-933441Y-435200D01*
Y-433700D01*
X-934940Y-432201D01*
X-937939D01*
X-939439Y-433700D01*
X-930442D02*
X-928942Y-432201D01*
X-925943D01*
X-924444Y-433700D01*
Y-435200D01*
X-925943Y-436699D01*
X-924444Y-438199D01*
Y-439698D01*
X-925943Y-441198D01*
X-928942D01*
X-930442Y-439698D01*
Y-438199D01*
X-928942Y-436699D01*
X-930442Y-435200D01*
Y-433700D01*
X-928942Y-436699D02*
X-925943D01*
X-798674Y-964560D02*
X-800173Y-963061D01*
X-803173D01*
X-804672Y-964560D01*
Y-970558D01*
X-803173Y-972058D01*
X-800173D01*
X-798674Y-970558D01*
X-789677Y-972058D02*
X-795675D01*
X-789677Y-966060D01*
Y-964560D01*
X-791176Y-963061D01*
X-794175D01*
X-795675Y-964560D01*
X-786678Y-963061D02*
X-780680D01*
Y-964560D01*
X-786678Y-970558D01*
Y-972058D01*
X-792478Y-850394D02*
X-793747Y-851663D01*
Y-854202D01*
X-792478Y-855472D01*
X-787400D01*
X-786130Y-854202D01*
Y-851663D01*
X-787400Y-850394D01*
X-786130Y-842776D02*
Y-847855D01*
X-791208Y-842776D01*
X-792478D01*
X-793747Y-844046D01*
Y-846585D01*
X-792478Y-847855D01*
X-793747Y-835159D02*
X-792478Y-837698D01*
X-789939Y-840237D01*
X-787400D01*
X-786130Y-838967D01*
Y-836428D01*
X-787400Y-835159D01*
X-788669D01*
X-789939Y-836428D01*
Y-840237D01*
X-813660Y-830956D02*
X-815160Y-829457D01*
X-818158D01*
X-819658Y-830956D01*
Y-836954D01*
X-818158Y-838454D01*
X-815160D01*
X-813660Y-836954D01*
X-804663Y-838454D02*
X-810661D01*
X-804663Y-832456D01*
Y-830956D01*
X-806162Y-829457D01*
X-809161D01*
X-810661Y-830956D01*
X-795666Y-829457D02*
X-801664D01*
Y-833956D01*
X-798665Y-832456D01*
X-797165D01*
X-795666Y-833956D01*
Y-836954D01*
X-797165Y-838454D01*
X-800164D01*
X-801664Y-836954D01*
X-943708Y-934334D02*
X-945208Y-932835D01*
X-948206D01*
X-949706Y-934334D01*
Y-940332D01*
X-948206Y-941832D01*
X-945208D01*
X-943708Y-940332D01*
X-934711Y-941832D02*
X-940709D01*
X-934711Y-935834D01*
Y-934334D01*
X-936210Y-932835D01*
X-939209D01*
X-940709Y-934334D01*
X-927213Y-941832D02*
Y-932835D01*
X-931712Y-937334D01*
X-925714D01*
X-933802Y-947796D02*
X-935302Y-946297D01*
X-938300D01*
X-939800Y-947796D01*
Y-953794D01*
X-938300Y-955294D01*
X-935302D01*
X-933802Y-953794D01*
X-924805Y-955294D02*
X-930803D01*
X-924805Y-949296D01*
Y-947796D01*
X-926304Y-946297D01*
X-929303D01*
X-930803Y-947796D01*
X-921806D02*
X-920306Y-946297D01*
X-917307D01*
X-915808Y-947796D01*
Y-949296D01*
X-917307Y-950796D01*
X-918807D01*
X-917307D01*
X-915808Y-952295D01*
Y-953794D01*
X-917307Y-955294D01*
X-920306D01*
X-921806Y-953794D01*
X-630814Y-1034640D02*
X-632313Y-1036140D01*
Y-1039138D01*
X-630814Y-1040638D01*
X-624815D01*
X-623316Y-1039138D01*
Y-1036140D01*
X-624815Y-1034640D01*
X-623316Y-1025643D02*
Y-1031641D01*
X-629314Y-1025643D01*
X-630814D01*
X-632313Y-1027142D01*
Y-1030141D01*
X-630814Y-1031641D01*
X-623316Y-1016646D02*
Y-1022644D01*
X-629314Y-1016646D01*
X-630814D01*
X-632313Y-1018145D01*
Y-1021144D01*
X-630814Y-1022644D01*
X-573918Y-958948D02*
X-575417Y-960447D01*
Y-963447D01*
X-573918Y-964946D01*
X-567920D01*
X-566420Y-963447D01*
Y-960447D01*
X-567920Y-958948D01*
X-566420Y-949951D02*
Y-955949D01*
X-572418Y-949951D01*
X-573918D01*
X-575417Y-951450D01*
Y-954449D01*
X-573918Y-955949D01*
X-566420Y-946952D02*
Y-943953D01*
Y-945452D01*
X-575417D01*
X-573918Y-946952D01*
X-560168Y-932556D02*
X-561668Y-931057D01*
X-564666D01*
X-566166Y-932556D01*
Y-938555D01*
X-564666Y-940054D01*
X-561668D01*
X-560168Y-938555D01*
X-551171Y-940054D02*
X-557169D01*
X-551171Y-934056D01*
Y-932556D01*
X-552670Y-931057D01*
X-555669D01*
X-557169Y-932556D01*
X-548172D02*
X-546672Y-931057D01*
X-543673D01*
X-542174Y-932556D01*
Y-938555D01*
X-543673Y-940054D01*
X-546672D01*
X-548172Y-938555D01*
Y-932556D01*
X-399166Y-940914D02*
X-400665Y-942413D01*
Y-945413D01*
X-399166Y-946912D01*
X-393167D01*
X-391668Y-945413D01*
Y-942413D01*
X-393167Y-940914D01*
X-391668Y-937915D02*
Y-934916D01*
Y-936415D01*
X-400665D01*
X-399166Y-937915D01*
X-393167Y-930417D02*
X-391668Y-928918D01*
Y-925919D01*
X-393167Y-924419D01*
X-399166D01*
X-400665Y-925919D01*
Y-928918D01*
X-399166Y-930417D01*
X-397666D01*
X-396166Y-928918D01*
Y-924419D01*
X-417674Y-1077082D02*
X-419174Y-1075583D01*
X-422173D01*
X-423672Y-1077082D01*
Y-1083081D01*
X-422173Y-1084580D01*
X-419174D01*
X-417674Y-1083081D01*
X-414675Y-1084580D02*
X-411676D01*
X-413175D01*
Y-1075583D01*
X-414675Y-1077082D01*
X-407177D02*
X-405678Y-1075583D01*
X-402679D01*
X-401179Y-1077082D01*
Y-1078582D01*
X-402679Y-1080081D01*
X-401179Y-1081581D01*
Y-1083081D01*
X-402679Y-1084580D01*
X-405678D01*
X-407177Y-1083081D01*
Y-1081581D01*
X-405678Y-1080081D01*
X-407177Y-1078582D01*
Y-1077082D01*
X-405678Y-1080081D02*
X-402679D01*
X-548230Y-1085972D02*
X-549729Y-1084473D01*
X-552729D01*
X-554228Y-1085972D01*
Y-1091971D01*
X-552729Y-1093470D01*
X-549729D01*
X-548230Y-1091971D01*
X-545231Y-1093470D02*
X-542232D01*
X-543731D01*
Y-1084473D01*
X-545231Y-1085972D01*
X-537733Y-1084473D02*
X-531735D01*
Y-1085972D01*
X-537733Y-1091971D01*
Y-1093470D01*
X-561946Y-973450D02*
X-563446Y-971951D01*
X-566445D01*
X-567944Y-973450D01*
Y-979448D01*
X-566445Y-980948D01*
X-563446D01*
X-561946Y-979448D01*
X-558947Y-980948D02*
X-555948D01*
X-557447D01*
Y-971951D01*
X-558947Y-973450D01*
X-545451Y-971951D02*
X-548450Y-973450D01*
X-551449Y-976450D01*
Y-979448D01*
X-549950Y-980948D01*
X-546951D01*
X-545451Y-979448D01*
Y-977949D01*
X-546951Y-976450D01*
X-551449D01*
X-726322Y-1022702D02*
X-727821Y-1024202D01*
Y-1027200D01*
X-726322Y-1028700D01*
X-720323D01*
X-718824Y-1027200D01*
Y-1024202D01*
X-720323Y-1022702D01*
X-718824Y-1019703D02*
Y-1016704D01*
Y-1018203D01*
X-727821D01*
X-726322Y-1019703D01*
X-718824Y-1007707D02*
X-727821D01*
X-723323Y-1012205D01*
Y-1006207D01*
X-725814Y-970124D02*
X-727313Y-971624D01*
Y-974622D01*
X-725814Y-976122D01*
X-719816D01*
X-718316Y-974622D01*
Y-971624D01*
X-719816Y-970124D01*
X-718316Y-967125D02*
Y-964126D01*
Y-965625D01*
X-727313D01*
X-725814Y-967125D01*
Y-959627D02*
X-727313Y-958128D01*
Y-955129D01*
X-725814Y-953629D01*
X-724314D01*
X-722814Y-955129D01*
Y-956628D01*
Y-955129D01*
X-721315Y-953629D01*
X-719816D01*
X-718316Y-955129D01*
Y-958128D01*
X-719816Y-959627D01*
X-616048Y-902834D02*
X-617547Y-901335D01*
X-620546D01*
X-622046Y-902834D01*
Y-908832D01*
X-620546Y-910332D01*
X-617547D01*
X-616048Y-908832D01*
X-613049Y-910332D02*
X-610050D01*
X-611549D01*
Y-901335D01*
X-613049Y-902834D01*
X-599553Y-910332D02*
X-605551D01*
X-599553Y-904334D01*
Y-902834D01*
X-601053Y-901335D01*
X-604052D01*
X-605551Y-902834D01*
X-587092Y-904108D02*
X-588591Y-902609D01*
X-591590D01*
X-593090Y-904108D01*
Y-910107D01*
X-591590Y-911606D01*
X-588591D01*
X-587092Y-910107D01*
X-584093Y-911606D02*
X-581094D01*
X-582593D01*
Y-902609D01*
X-584093Y-904108D01*
X-576595Y-911606D02*
X-573596D01*
X-575096D01*
Y-902609D01*
X-576595Y-904108D01*
X-536292Y-216784D02*
X-537791Y-215285D01*
X-540790D01*
X-542290Y-216784D01*
Y-222782D01*
X-540790Y-224282D01*
X-537791D01*
X-536292Y-222782D01*
X-533293Y-224282D02*
X-530294D01*
X-531793D01*
Y-215285D01*
X-533293Y-216784D01*
X-525795D02*
X-524296Y-215285D01*
X-521297D01*
X-519797Y-216784D01*
Y-222782D01*
X-521297Y-224282D01*
X-524296D01*
X-525795Y-222782D01*
Y-216784D01*
X-428596D02*
X-430095Y-215285D01*
X-433094D01*
X-434594Y-216784D01*
Y-222782D01*
X-433094Y-224282D01*
X-430095D01*
X-428596Y-222782D01*
X-425597D02*
X-424097Y-224282D01*
X-421098D01*
X-419599Y-222782D01*
Y-216784D01*
X-421098Y-215285D01*
X-424097D01*
X-425597Y-216784D01*
Y-218284D01*
X-424097Y-219783D01*
X-419599D01*
X-435962Y-372740D02*
X-437462Y-371241D01*
X-440461D01*
X-441960Y-372740D01*
Y-378739D01*
X-440461Y-380238D01*
X-437462D01*
X-435962Y-378739D01*
X-432963Y-372740D02*
X-431463Y-371241D01*
X-428464D01*
X-426965Y-372740D01*
Y-374240D01*
X-428464Y-375740D01*
X-426965Y-377239D01*
Y-378739D01*
X-428464Y-380238D01*
X-431463D01*
X-432963Y-378739D01*
Y-377239D01*
X-431463Y-375740D01*
X-432963Y-374240D01*
Y-372740D01*
X-431463Y-375740D02*
X-428464D01*
X-221332Y-181478D02*
X-222831Y-179979D01*
X-225830D01*
X-227330Y-181478D01*
Y-187477D01*
X-225830Y-188976D01*
X-222831D01*
X-221332Y-187477D01*
X-212335Y-179979D02*
X-215334Y-181478D01*
X-218333Y-184478D01*
Y-187477D01*
X-216833Y-188976D01*
X-213834D01*
X-212335Y-187477D01*
Y-185977D01*
X-213834Y-184478D01*
X-218333D01*
X-275180Y-181732D02*
X-276679Y-180233D01*
X-279678D01*
X-281178Y-181732D01*
Y-187731D01*
X-279678Y-189230D01*
X-276679D01*
X-275180Y-187731D01*
X-266183Y-180233D02*
X-272181D01*
Y-184732D01*
X-269182Y-183232D01*
X-267682D01*
X-266183Y-184732D01*
Y-187731D01*
X-267682Y-189230D01*
X-270681D01*
X-272181Y-187731D01*
X-357222Y-193670D02*
X-358722Y-192171D01*
X-361721D01*
X-363220Y-193670D01*
Y-199669D01*
X-361721Y-201168D01*
X-358722D01*
X-357222Y-199669D01*
X-349724Y-201168D02*
Y-192171D01*
X-354223Y-196670D01*
X-348225D01*
X-190622Y-216564D02*
X-189123Y-215065D01*
Y-212066D01*
X-190622Y-210566D01*
X-196621D01*
X-198120Y-212066D01*
Y-215065D01*
X-196621Y-216564D01*
X-190622Y-219563D02*
X-189123Y-221063D01*
Y-224062D01*
X-190622Y-225561D01*
X-192122D01*
X-193622Y-224062D01*
Y-222562D01*
Y-224062D01*
X-195121Y-225561D01*
X-196621D01*
X-198120Y-224062D01*
Y-221063D01*
X-196621Y-219563D01*
X-246248Y-215548D02*
X-244749Y-214049D01*
Y-211049D01*
X-246248Y-209550D01*
X-252246D01*
X-253746Y-211049D01*
Y-214049D01*
X-252246Y-215548D01*
X-253746Y-224545D02*
Y-218547D01*
X-247748Y-224545D01*
X-246248D01*
X-244749Y-223046D01*
Y-220047D01*
X-246248Y-218547D01*
X-357984Y-208656D02*
X-359483Y-207157D01*
X-362482D01*
X-363982Y-208656D01*
Y-214655D01*
X-362482Y-216154D01*
X-359483D01*
X-357984Y-214655D01*
X-354985Y-216154D02*
X-351986D01*
X-353485D01*
Y-207157D01*
X-354985Y-208656D01*
M02*
